G04 #@! TF.GenerationSoftware,KiCad,Pcbnew,(5.1.5)-3*
G04 #@! TF.CreationDate,2020-04-13T18:35:58-04:00*
G04 #@! TF.ProjectId,SensorEndPanel,53656e73-6f72-4456-9e64-50616e656c2e,rev?*
G04 #@! TF.SameCoordinates,Original*
G04 #@! TF.FileFunction,Soldermask,Top*
G04 #@! TF.FilePolarity,Negative*
%FSLAX46Y46*%
G04 Gerber Fmt 4.6, Leading zero omitted, Abs format (unit mm)*
G04 Created by KiCad (PCBNEW (5.1.5)-3) date 2020-04-13 18:35:58*
%MOMM*%
%LPD*%
G04 APERTURE LIST*
%ADD10C,0.100000*%
G04 APERTURE END LIST*
D10*
G36*
X122881564Y-40139389D02*
G01*
X123068007Y-40216616D01*
X123072835Y-40218616D01*
X123244973Y-40333635D01*
X123391365Y-40480027D01*
X123505048Y-40650165D01*
X123506385Y-40652167D01*
X123585611Y-40843436D01*
X123626000Y-41046484D01*
X123626000Y-41253516D01*
X123585611Y-41456564D01*
X123506385Y-41647833D01*
X123506384Y-41647835D01*
X123391365Y-41819973D01*
X123244973Y-41966365D01*
X123072835Y-42081384D01*
X123072834Y-42081385D01*
X123072833Y-42081385D01*
X122881564Y-42160611D01*
X122678516Y-42201000D01*
X122471484Y-42201000D01*
X122268436Y-42160611D01*
X122077167Y-42081385D01*
X122077166Y-42081385D01*
X122077165Y-42081384D01*
X121905027Y-41966365D01*
X121758635Y-41819973D01*
X121643616Y-41647835D01*
X121643615Y-41647833D01*
X121564389Y-41456564D01*
X121524000Y-41253516D01*
X121524000Y-41046484D01*
X121564389Y-40843436D01*
X121643615Y-40652167D01*
X121644953Y-40650165D01*
X121758635Y-40480027D01*
X121905027Y-40333635D01*
X122077165Y-40218616D01*
X122081993Y-40216616D01*
X122268436Y-40139389D01*
X122471484Y-40099000D01*
X122678516Y-40099000D01*
X122881564Y-40139389D01*
G37*
G36*
X101906564Y-40137389D02*
G01*
X102097833Y-40216615D01*
X102097835Y-40216616D01*
X102269973Y-40331635D01*
X102416365Y-40478027D01*
X102468589Y-40556185D01*
X102531385Y-40650167D01*
X102610611Y-40841436D01*
X102651000Y-41044484D01*
X102651000Y-41251516D01*
X102610611Y-41454564D01*
X102531385Y-41645833D01*
X102531384Y-41645835D01*
X102416365Y-41817973D01*
X102269973Y-41964365D01*
X102097835Y-42079384D01*
X102097834Y-42079385D01*
X102097833Y-42079385D01*
X101906564Y-42158611D01*
X101703516Y-42199000D01*
X101496484Y-42199000D01*
X101293436Y-42158611D01*
X101102167Y-42079385D01*
X101102166Y-42079385D01*
X101102165Y-42079384D01*
X100930027Y-41964365D01*
X100783635Y-41817973D01*
X100668616Y-41645835D01*
X100668615Y-41645833D01*
X100589389Y-41454564D01*
X100549000Y-41251516D01*
X100549000Y-41044484D01*
X100589389Y-40841436D01*
X100668615Y-40650167D01*
X100731412Y-40556185D01*
X100783635Y-40478027D01*
X100930027Y-40331635D01*
X101102165Y-40216616D01*
X101102167Y-40216615D01*
X101293436Y-40137389D01*
X101496484Y-40097000D01*
X101703516Y-40097000D01*
X101906564Y-40137389D01*
G37*
G36*
X147060228Y-39821703D02*
G01*
X147215100Y-39885853D01*
X147354481Y-39978985D01*
X147473015Y-40097519D01*
X147566147Y-40236900D01*
X147630297Y-40391772D01*
X147663000Y-40556184D01*
X147663000Y-40723816D01*
X147630297Y-40888228D01*
X147566147Y-41043100D01*
X147473015Y-41182481D01*
X147354481Y-41301015D01*
X147215100Y-41394147D01*
X147060228Y-41458297D01*
X146895816Y-41491000D01*
X146728184Y-41491000D01*
X146563772Y-41458297D01*
X146408900Y-41394147D01*
X146269519Y-41301015D01*
X146150985Y-41182481D01*
X146057853Y-41043100D01*
X145993703Y-40888228D01*
X145961000Y-40723816D01*
X145961000Y-40556184D01*
X145993703Y-40391772D01*
X146057853Y-40236900D01*
X146150985Y-40097519D01*
X146269519Y-39978985D01*
X146408900Y-39885853D01*
X146563772Y-39821703D01*
X146728184Y-39789000D01*
X146895816Y-39789000D01*
X147060228Y-39821703D01*
G37*
G36*
X131058228Y-39567703D02*
G01*
X131213100Y-39631853D01*
X131352481Y-39724985D01*
X131471015Y-39843519D01*
X131564147Y-39982900D01*
X131628297Y-40137772D01*
X131661000Y-40302184D01*
X131661000Y-40469816D01*
X131628297Y-40634228D01*
X131564147Y-40789100D01*
X131471015Y-40928481D01*
X131352481Y-41047015D01*
X131213100Y-41140147D01*
X131058228Y-41204297D01*
X130893816Y-41237000D01*
X130726184Y-41237000D01*
X130561772Y-41204297D01*
X130406900Y-41140147D01*
X130267519Y-41047015D01*
X130148985Y-40928481D01*
X130055853Y-40789100D01*
X129991703Y-40634228D01*
X129959000Y-40469816D01*
X129959000Y-40302184D01*
X129991703Y-40137772D01*
X130055853Y-39982900D01*
X130148985Y-39843519D01*
X130267519Y-39724985D01*
X130406900Y-39631853D01*
X130561772Y-39567703D01*
X130726184Y-39535000D01*
X130893816Y-39535000D01*
X131058228Y-39567703D01*
G37*
G36*
X141218228Y-39567703D02*
G01*
X141373100Y-39631853D01*
X141512481Y-39724985D01*
X141631015Y-39843519D01*
X141724147Y-39982900D01*
X141788297Y-40137772D01*
X141821000Y-40302184D01*
X141821000Y-40469816D01*
X141788297Y-40634228D01*
X141724147Y-40789100D01*
X141631015Y-40928481D01*
X141512481Y-41047015D01*
X141373100Y-41140147D01*
X141218228Y-41204297D01*
X141053816Y-41237000D01*
X140886184Y-41237000D01*
X140721772Y-41204297D01*
X140566900Y-41140147D01*
X140427519Y-41047015D01*
X140308985Y-40928481D01*
X140215853Y-40789100D01*
X140151703Y-40634228D01*
X140119000Y-40469816D01*
X140119000Y-40302184D01*
X140151703Y-40137772D01*
X140215853Y-39982900D01*
X140308985Y-39843519D01*
X140427519Y-39724985D01*
X140566900Y-39631853D01*
X140721772Y-39567703D01*
X140886184Y-39535000D01*
X141053816Y-39535000D01*
X141218228Y-39567703D01*
G37*
G36*
X51106564Y-37089389D02*
G01*
X51297833Y-37168615D01*
X51297835Y-37168616D01*
X51319362Y-37183000D01*
X51469973Y-37283635D01*
X51616365Y-37430027D01*
X51731385Y-37602167D01*
X51810611Y-37793436D01*
X51851000Y-37996484D01*
X51851000Y-38203516D01*
X51810611Y-38406564D01*
X51731385Y-38597833D01*
X51731384Y-38597835D01*
X51616365Y-38769973D01*
X51469973Y-38916365D01*
X51297835Y-39031384D01*
X51297834Y-39031385D01*
X51297833Y-39031385D01*
X51106564Y-39110611D01*
X50903516Y-39151000D01*
X50696484Y-39151000D01*
X50493436Y-39110611D01*
X50302167Y-39031385D01*
X50302166Y-39031385D01*
X50302165Y-39031384D01*
X50130027Y-38916365D01*
X49983635Y-38769973D01*
X49868616Y-38597835D01*
X49868615Y-38597833D01*
X49789389Y-38406564D01*
X49749000Y-38203516D01*
X49749000Y-37996484D01*
X49789389Y-37793436D01*
X49868615Y-37602167D01*
X49983635Y-37430027D01*
X50130027Y-37283635D01*
X50280638Y-37183000D01*
X50302165Y-37168616D01*
X50302167Y-37168615D01*
X50493436Y-37089389D01*
X50696484Y-37049000D01*
X50903516Y-37049000D01*
X51106564Y-37089389D01*
G37*
G36*
X173280564Y-37089389D02*
G01*
X173471833Y-37168615D01*
X173471835Y-37168616D01*
X173493362Y-37183000D01*
X173643973Y-37283635D01*
X173790365Y-37430027D01*
X173905385Y-37602167D01*
X173984611Y-37793436D01*
X174025000Y-37996484D01*
X174025000Y-38203516D01*
X173984611Y-38406564D01*
X173905385Y-38597833D01*
X173905384Y-38597835D01*
X173790365Y-38769973D01*
X173643973Y-38916365D01*
X173471835Y-39031384D01*
X173471834Y-39031385D01*
X173471833Y-39031385D01*
X173280564Y-39110611D01*
X173077516Y-39151000D01*
X172870484Y-39151000D01*
X172667436Y-39110611D01*
X172476167Y-39031385D01*
X172476166Y-39031385D01*
X172476165Y-39031384D01*
X172304027Y-38916365D01*
X172157635Y-38769973D01*
X172042616Y-38597835D01*
X172042615Y-38597833D01*
X171963389Y-38406564D01*
X171923000Y-38203516D01*
X171923000Y-37996484D01*
X171963389Y-37793436D01*
X172042615Y-37602167D01*
X172157635Y-37430027D01*
X172304027Y-37283635D01*
X172454638Y-37183000D01*
X172476165Y-37168616D01*
X172476167Y-37168615D01*
X172667436Y-37089389D01*
X172870484Y-37049000D01*
X173077516Y-37049000D01*
X173280564Y-37089389D01*
G37*
G36*
X132219000Y-37183000D02*
G01*
X131717000Y-37183000D01*
X131717000Y-35581000D01*
X132219000Y-35581000D01*
X132219000Y-37183000D01*
G37*
G36*
X130919000Y-37183000D02*
G01*
X130417000Y-37183000D01*
X130417000Y-35581000D01*
X130919000Y-35581000D01*
X130919000Y-37183000D01*
G37*
G36*
X132219000Y-34523000D02*
G01*
X130417000Y-34523000D01*
X130417000Y-32921000D01*
X132219000Y-32921000D01*
X132219000Y-34523000D01*
G37*
G36*
X147060228Y-32321703D02*
G01*
X147215100Y-32385853D01*
X147354481Y-32478985D01*
X147473015Y-32597519D01*
X147566147Y-32736900D01*
X147630297Y-32891772D01*
X147663000Y-33056184D01*
X147663000Y-33223816D01*
X147630297Y-33388228D01*
X147566147Y-33543100D01*
X147473015Y-33682481D01*
X147354481Y-33801015D01*
X147215100Y-33894147D01*
X147060228Y-33958297D01*
X146895816Y-33991000D01*
X146728184Y-33991000D01*
X146563772Y-33958297D01*
X146408900Y-33894147D01*
X146269519Y-33801015D01*
X146150985Y-33682481D01*
X146057853Y-33543100D01*
X145993703Y-33388228D01*
X145961000Y-33223816D01*
X145961000Y-33056184D01*
X145993703Y-32891772D01*
X146057853Y-32736900D01*
X146150985Y-32597519D01*
X146269519Y-32478985D01*
X146408900Y-32385853D01*
X146563772Y-32321703D01*
X146728184Y-32289000D01*
X146895816Y-32289000D01*
X147060228Y-32321703D01*
G37*
G36*
X136791000Y-30873000D02*
G01*
X134989000Y-30873000D01*
X134989000Y-29071000D01*
X136791000Y-29071000D01*
X136791000Y-30873000D01*
G37*
G36*
X138543512Y-29075927D02*
G01*
X138692812Y-29105624D01*
X138856784Y-29173544D01*
X139004354Y-29272147D01*
X139129853Y-29397646D01*
X139228456Y-29545216D01*
X139296376Y-29709188D01*
X139331000Y-29883259D01*
X139331000Y-30060741D01*
X139296376Y-30234812D01*
X139228456Y-30398784D01*
X139129853Y-30546354D01*
X139004354Y-30671853D01*
X138856784Y-30770456D01*
X138692812Y-30838376D01*
X138543512Y-30868073D01*
X138518742Y-30873000D01*
X138341258Y-30873000D01*
X138316488Y-30868073D01*
X138167188Y-30838376D01*
X138003216Y-30770456D01*
X137855646Y-30671853D01*
X137730147Y-30546354D01*
X137631544Y-30398784D01*
X137563624Y-30234812D01*
X137529000Y-30060741D01*
X137529000Y-29883259D01*
X137563624Y-29709188D01*
X137631544Y-29545216D01*
X137730147Y-29397646D01*
X137855646Y-29272147D01*
X138003216Y-29173544D01*
X138167188Y-29105624D01*
X138316488Y-29075927D01*
X138341258Y-29071000D01*
X138518742Y-29071000D01*
X138543512Y-29075927D01*
G37*
G36*
X141083512Y-29075927D02*
G01*
X141232812Y-29105624D01*
X141396784Y-29173544D01*
X141544354Y-29272147D01*
X141669853Y-29397646D01*
X141768456Y-29545216D01*
X141836376Y-29709188D01*
X141871000Y-29883259D01*
X141871000Y-30060741D01*
X141836376Y-30234812D01*
X141768456Y-30398784D01*
X141669853Y-30546354D01*
X141544354Y-30671853D01*
X141396784Y-30770456D01*
X141232812Y-30838376D01*
X141083512Y-30868073D01*
X141058742Y-30873000D01*
X140881258Y-30873000D01*
X140856488Y-30868073D01*
X140707188Y-30838376D01*
X140543216Y-30770456D01*
X140395646Y-30671853D01*
X140270147Y-30546354D01*
X140171544Y-30398784D01*
X140103624Y-30234812D01*
X140069000Y-30060741D01*
X140069000Y-29883259D01*
X140103624Y-29709188D01*
X140171544Y-29545216D01*
X140270147Y-29397646D01*
X140395646Y-29272147D01*
X140543216Y-29173544D01*
X140707188Y-29105624D01*
X140856488Y-29075927D01*
X140881258Y-29071000D01*
X141058742Y-29071000D01*
X141083512Y-29075927D01*
G37*
G36*
X101906564Y-27691389D02*
G01*
X102093007Y-27768616D01*
X102097835Y-27770616D01*
X102269973Y-27885635D01*
X102416365Y-28032027D01*
X102530048Y-28202165D01*
X102531385Y-28204167D01*
X102610611Y-28395436D01*
X102651000Y-28598484D01*
X102651000Y-28805516D01*
X102610611Y-29008564D01*
X102531385Y-29199833D01*
X102531384Y-29199835D01*
X102416365Y-29371973D01*
X102269973Y-29518365D01*
X102097835Y-29633384D01*
X102097834Y-29633385D01*
X102097833Y-29633385D01*
X101906564Y-29712611D01*
X101703516Y-29753000D01*
X101496484Y-29753000D01*
X101293436Y-29712611D01*
X101102167Y-29633385D01*
X101102166Y-29633385D01*
X101102165Y-29633384D01*
X100930027Y-29518365D01*
X100783635Y-29371973D01*
X100668616Y-29199835D01*
X100668615Y-29199833D01*
X100589389Y-29008564D01*
X100549000Y-28805516D01*
X100549000Y-28598484D01*
X100589389Y-28395436D01*
X100668615Y-28204167D01*
X100669953Y-28202165D01*
X100783635Y-28032027D01*
X100930027Y-27885635D01*
X101102165Y-27770616D01*
X101106993Y-27768616D01*
X101293436Y-27691389D01*
X101496484Y-27651000D01*
X101703516Y-27651000D01*
X101906564Y-27691389D01*
G37*
G36*
X122881564Y-27689389D02*
G01*
X123072833Y-27768615D01*
X123072835Y-27768616D01*
X123075828Y-27770616D01*
X123244973Y-27883635D01*
X123391365Y-28030027D01*
X123506385Y-28202167D01*
X123585611Y-28393436D01*
X123626000Y-28596484D01*
X123626000Y-28803516D01*
X123585611Y-29006564D01*
X123516446Y-29173544D01*
X123506384Y-29197835D01*
X123391365Y-29369973D01*
X123244973Y-29516365D01*
X123072835Y-29631384D01*
X123072834Y-29631385D01*
X123072833Y-29631385D01*
X122881564Y-29710611D01*
X122678516Y-29751000D01*
X122471484Y-29751000D01*
X122268436Y-29710611D01*
X122077167Y-29631385D01*
X122077166Y-29631385D01*
X122077165Y-29631384D01*
X121905027Y-29516365D01*
X121758635Y-29369973D01*
X121643616Y-29197835D01*
X121633554Y-29173544D01*
X121564389Y-29006564D01*
X121524000Y-28803516D01*
X121524000Y-28596484D01*
X121564389Y-28393436D01*
X121643615Y-28202167D01*
X121758635Y-28030027D01*
X121905027Y-27883635D01*
X122074172Y-27770616D01*
X122077165Y-27768616D01*
X122077167Y-27768615D01*
X122268436Y-27689389D01*
X122471484Y-27649000D01*
X122678516Y-27649000D01*
X122881564Y-27689389D01*
G37*
M02*
