G04 #@! TF.GenerationSoftware,KiCad,Pcbnew,(5.1.5)-3*
G04 #@! TF.CreationDate,2020-04-13T18:35:58-04:00*
G04 #@! TF.ProjectId,SensorEndPanel,53656e73-6f72-4456-9e64-50616e656c2e,rev?*
G04 #@! TF.SameCoordinates,Original*
G04 #@! TF.FileFunction,Legend,Top*
G04 #@! TF.FilePolarity,Positive*
%FSLAX46Y46*%
G04 Gerber Fmt 4.6, Leading zero omitted, Abs format (unit mm)*
G04 Created by KiCad (PCBNEW (5.1.5)-3) date 2020-04-13 18:35:58*
%MOMM*%
%LPD*%
G04 APERTURE LIST*
%ADD10C,0.150000*%
%ADD11C,0.120000*%
G04 APERTURE END LIST*
D10*
X141547619Y-32214285D02*
X141547619Y-31738095D01*
X141071428Y-31690476D01*
X141119047Y-31738095D01*
X141166666Y-31833333D01*
X141166666Y-32071428D01*
X141119047Y-32166666D01*
X141071428Y-32214285D01*
X140976190Y-32261904D01*
X140738095Y-32261904D01*
X140642857Y-32214285D01*
X140595238Y-32166666D01*
X140547619Y-32071428D01*
X140547619Y-31833333D01*
X140595238Y-31738095D01*
X140642857Y-31690476D01*
X141547619Y-32547619D02*
X140547619Y-32880952D01*
X141547619Y-33214285D01*
X140452380Y-33309523D02*
X140452380Y-34071428D01*
X141071428Y-34642857D02*
X141023809Y-34785714D01*
X140976190Y-34833333D01*
X140880952Y-34880952D01*
X140738095Y-34880952D01*
X140642857Y-34833333D01*
X140595238Y-34785714D01*
X140547619Y-34690476D01*
X140547619Y-34309523D01*
X141547619Y-34309523D01*
X141547619Y-34642857D01*
X141500000Y-34738095D01*
X141452380Y-34785714D01*
X141357142Y-34833333D01*
X141261904Y-34833333D01*
X141166666Y-34785714D01*
X141119047Y-34738095D01*
X141071428Y-34642857D01*
X141071428Y-34309523D01*
X141214285Y-35738095D02*
X140547619Y-35738095D01*
X141214285Y-35309523D02*
X140690476Y-35309523D01*
X140595238Y-35357142D01*
X140547619Y-35452380D01*
X140547619Y-35595238D01*
X140595238Y-35690476D01*
X140642857Y-35738095D01*
X140595238Y-36166666D02*
X140547619Y-36261904D01*
X140547619Y-36452380D01*
X140595238Y-36547619D01*
X140690476Y-36595238D01*
X140738095Y-36595238D01*
X140833333Y-36547619D01*
X140880952Y-36452380D01*
X140880952Y-36309523D01*
X140928571Y-36214285D01*
X141023809Y-36166666D01*
X141071428Y-36166666D01*
X141166666Y-36214285D01*
X141214285Y-36309523D01*
X141214285Y-36452380D01*
X141166666Y-36547619D01*
X140452380Y-36785714D02*
X140452380Y-37547619D01*
X140547619Y-38309523D02*
X140547619Y-37738095D01*
X140547619Y-38023809D02*
X141547619Y-38023809D01*
X141404761Y-37928571D01*
X141309523Y-37833333D01*
X141261904Y-37738095D01*
X138875000Y-32263095D02*
X138922619Y-32167857D01*
X138922619Y-32025000D01*
X138875000Y-31882142D01*
X138779761Y-31786904D01*
X138684523Y-31739285D01*
X138494047Y-31691666D01*
X138351190Y-31691666D01*
X138160714Y-31739285D01*
X138065476Y-31786904D01*
X137970238Y-31882142D01*
X137922619Y-32025000D01*
X137922619Y-32120238D01*
X137970238Y-32263095D01*
X138017857Y-32310714D01*
X138351190Y-32310714D01*
X138351190Y-32120238D01*
X137922619Y-32739285D02*
X138922619Y-32739285D01*
X137922619Y-33310714D01*
X138922619Y-33310714D01*
X137922619Y-33786904D02*
X138922619Y-33786904D01*
X138922619Y-34025000D01*
X138875000Y-34167857D01*
X138779761Y-34263095D01*
X138684523Y-34310714D01*
X138494047Y-34358333D01*
X138351190Y-34358333D01*
X138160714Y-34310714D01*
X138065476Y-34263095D01*
X137970238Y-34167857D01*
X137922619Y-34025000D01*
X137922619Y-33786904D01*
X136422619Y-31641666D02*
X136422619Y-32213095D01*
X135422619Y-31927380D02*
X136422619Y-31927380D01*
X135470238Y-32927380D02*
X135422619Y-32832142D01*
X135422619Y-32641666D01*
X135470238Y-32546428D01*
X135565476Y-32498809D01*
X135946428Y-32498809D01*
X136041666Y-32546428D01*
X136089285Y-32641666D01*
X136089285Y-32832142D01*
X136041666Y-32927380D01*
X135946428Y-32975000D01*
X135851190Y-32975000D01*
X135755952Y-32498809D01*
X135422619Y-33403571D02*
X136089285Y-33403571D01*
X135994047Y-33403571D02*
X136041666Y-33451190D01*
X136089285Y-33546428D01*
X136089285Y-33689285D01*
X136041666Y-33784523D01*
X135946428Y-33832142D01*
X135422619Y-33832142D01*
X135946428Y-33832142D02*
X136041666Y-33879761D01*
X136089285Y-33975000D01*
X136089285Y-34117857D01*
X136041666Y-34213095D01*
X135946428Y-34260714D01*
X135422619Y-34260714D01*
X136089285Y-34736904D02*
X135089285Y-34736904D01*
X136041666Y-34736904D02*
X136089285Y-34832142D01*
X136089285Y-35022619D01*
X136041666Y-35117857D01*
X135994047Y-35165476D01*
X135898809Y-35213095D01*
X135613095Y-35213095D01*
X135517857Y-35165476D01*
X135470238Y-35117857D01*
X135422619Y-35022619D01*
X135422619Y-34832142D01*
X135470238Y-34736904D01*
D11*
X173974000Y-38100000D02*
G75*
G03X173974000Y-38100000I-1000000J0D01*
G01*
X51800000Y-38100000D02*
G75*
G03X51800000Y-38100000I-1000000J0D01*
G01*
X48260000Y-44450000D02*
X50800000Y-44450000D01*
X48260000Y-44450000D02*
X48260000Y-25400000D01*
X175514000Y-44450000D02*
X48260000Y-44450000D01*
X175514000Y-25400000D02*
X175514000Y-44450000D01*
X48260000Y-25400000D02*
X175514000Y-25400000D01*
X123580400Y-41148000D02*
G75*
G03X123580400Y-41148000I-1000000J0D01*
G01*
X124612400Y-43180000D02*
X124612400Y-41148000D01*
X102600000Y-41148000D02*
G75*
G03X102600000Y-41148000I-1000000J0D01*
G01*
X99568000Y-43180000D02*
X99568000Y-41148000D01*
X123580400Y-28702000D02*
G75*
G03X123580400Y-28702000I-1000000J0D01*
G01*
X124612400Y-26670000D02*
X124612400Y-28702000D01*
X102600000Y-28702000D02*
G75*
G03X102600000Y-28702000I-1000000J0D01*
G01*
X99568000Y-26670000D02*
X99568000Y-28702000D01*
X124612400Y-43180000D02*
X99568000Y-43180000D01*
X124612400Y-26670000D02*
X124612400Y-43180000D01*
X99568000Y-26670000D02*
X124612400Y-26670000D01*
X99568000Y-43180000D02*
X99568000Y-26670000D01*
X130158000Y-34352000D02*
X130158000Y-35752000D01*
X132478000Y-35752000D02*
X132478000Y-33852000D01*
X139930000Y-40386000D02*
X139160000Y-40386000D01*
X131850000Y-40386000D02*
X132620000Y-40386000D01*
X139160000Y-39016000D02*
X132620000Y-39016000D01*
X139160000Y-41756000D02*
X139160000Y-39016000D01*
X132620000Y-41756000D02*
X139160000Y-41756000D01*
X132620000Y-39016000D02*
X132620000Y-41756000D01*
X134560000Y-31302000D02*
X134560000Y-29972000D01*
X135890000Y-31302000D02*
X134560000Y-31302000D01*
X137160000Y-31302000D02*
X137160000Y-28642000D01*
X137160000Y-28642000D02*
X142300000Y-28642000D01*
X137160000Y-31302000D02*
X142300000Y-31302000D01*
X142300000Y-31302000D02*
X142300000Y-28642000D01*
X146812000Y-34180000D02*
X146812000Y-34870000D01*
X146812000Y-39600000D02*
X146812000Y-38910000D01*
X145392000Y-34870000D02*
X145392000Y-38910000D01*
X148232000Y-34870000D02*
X145392000Y-34870000D01*
X148232000Y-38910000D02*
X148232000Y-34870000D01*
X145392000Y-38910000D02*
X148232000Y-38910000D01*
D10*
X104538095Y-29377380D02*
X104538095Y-28377380D01*
X104538095Y-28853571D02*
X105109523Y-28853571D01*
X105109523Y-29377380D02*
X105109523Y-28377380D01*
X106014285Y-28377380D02*
X105823809Y-28377380D01*
X105728571Y-28425000D01*
X105680952Y-28472619D01*
X105585714Y-28615476D01*
X105538095Y-28805952D01*
X105538095Y-29186904D01*
X105585714Y-29282142D01*
X105633333Y-29329761D01*
X105728571Y-29377380D01*
X105919047Y-29377380D01*
X106014285Y-29329761D01*
X106061904Y-29282142D01*
X106109523Y-29186904D01*
X106109523Y-28948809D01*
X106061904Y-28853571D01*
X106014285Y-28805952D01*
X105919047Y-28758333D01*
X105728571Y-28758333D01*
X105633333Y-28805952D01*
X105585714Y-28853571D01*
X105538095Y-28948809D01*
X118263095Y-29427380D02*
X118263095Y-28427380D01*
X118263095Y-28903571D02*
X118834523Y-28903571D01*
X118834523Y-29427380D02*
X118834523Y-28427380D01*
X119786904Y-28427380D02*
X119310714Y-28427380D01*
X119263095Y-28903571D01*
X119310714Y-28855952D01*
X119405952Y-28808333D01*
X119644047Y-28808333D01*
X119739285Y-28855952D01*
X119786904Y-28903571D01*
X119834523Y-28998809D01*
X119834523Y-29236904D01*
X119786904Y-29332142D01*
X119739285Y-29379761D01*
X119644047Y-29427380D01*
X119405952Y-29427380D01*
X119310714Y-29379761D01*
X119263095Y-29332142D01*
X172212095Y-35352380D02*
X172212095Y-34352380D01*
X172212095Y-34828571D02*
X172783523Y-34828571D01*
X172783523Y-35352380D02*
X172783523Y-34352380D01*
X173688285Y-34685714D02*
X173688285Y-35352380D01*
X173450190Y-34304761D02*
X173212095Y-35019047D01*
X173831142Y-35019047D01*
X118163095Y-41477380D02*
X118163095Y-40477380D01*
X118163095Y-40953571D02*
X118734523Y-40953571D01*
X118734523Y-41477380D02*
X118734523Y-40477380D01*
X119115476Y-40477380D02*
X119734523Y-40477380D01*
X119401190Y-40858333D01*
X119544047Y-40858333D01*
X119639285Y-40905952D01*
X119686904Y-40953571D01*
X119734523Y-41048809D01*
X119734523Y-41286904D01*
X119686904Y-41382142D01*
X119639285Y-41429761D01*
X119544047Y-41477380D01*
X119258333Y-41477380D01*
X119163095Y-41429761D01*
X119115476Y-41382142D01*
X50038095Y-35352380D02*
X50038095Y-34352380D01*
X50038095Y-34828571D02*
X50609523Y-34828571D01*
X50609523Y-35352380D02*
X50609523Y-34352380D01*
X51038095Y-34447619D02*
X51085714Y-34400000D01*
X51180952Y-34352380D01*
X51419047Y-34352380D01*
X51514285Y-34400000D01*
X51561904Y-34447619D01*
X51609523Y-34542857D01*
X51609523Y-34638095D01*
X51561904Y-34780952D01*
X50990476Y-35352380D01*
X51609523Y-35352380D01*
X104463095Y-41527380D02*
X104463095Y-40527380D01*
X104463095Y-41003571D02*
X105034523Y-41003571D01*
X105034523Y-41527380D02*
X105034523Y-40527380D01*
X106034523Y-41527380D02*
X105463095Y-41527380D01*
X105748809Y-41527380D02*
X105748809Y-40527380D01*
X105653571Y-40670238D01*
X105558333Y-40765476D01*
X105463095Y-40813095D01*
X125222095Y-42124380D02*
X125222095Y-42933904D01*
X125269714Y-43029142D01*
X125317333Y-43076761D01*
X125412571Y-43124380D01*
X125603047Y-43124380D01*
X125698285Y-43076761D01*
X125745904Y-43029142D01*
X125793523Y-42933904D01*
X125793523Y-42124380D01*
X126222095Y-42219619D02*
X126269714Y-42172000D01*
X126364952Y-42124380D01*
X126603047Y-42124380D01*
X126698285Y-42172000D01*
X126745904Y-42219619D01*
X126793523Y-42314857D01*
X126793523Y-42410095D01*
X126745904Y-42552952D01*
X126174476Y-43124380D01*
X126793523Y-43124380D01*
X94400952Y-27376380D02*
X94400952Y-26376380D01*
X94781904Y-26376380D01*
X94877142Y-26424000D01*
X94924761Y-26471619D01*
X94972380Y-26566857D01*
X94972380Y-26709714D01*
X94924761Y-26804952D01*
X94877142Y-26852571D01*
X94781904Y-26900190D01*
X94400952Y-26900190D01*
X95400952Y-27376380D02*
X95400952Y-26709714D01*
X95400952Y-26376380D02*
X95353333Y-26424000D01*
X95400952Y-26471619D01*
X95448571Y-26424000D01*
X95400952Y-26376380D01*
X95400952Y-26471619D01*
X96448571Y-27281142D02*
X96400952Y-27328761D01*
X96258095Y-27376380D01*
X96162857Y-27376380D01*
X96020000Y-27328761D01*
X95924761Y-27233523D01*
X95877142Y-27138285D01*
X95829523Y-26947809D01*
X95829523Y-26804952D01*
X95877142Y-26614476D01*
X95924761Y-26519238D01*
X96020000Y-26424000D01*
X96162857Y-26376380D01*
X96258095Y-26376380D01*
X96400952Y-26424000D01*
X96448571Y-26471619D01*
X97305714Y-27376380D02*
X97305714Y-26852571D01*
X97258095Y-26757333D01*
X97162857Y-26709714D01*
X96972380Y-26709714D01*
X96877142Y-26757333D01*
X97305714Y-27328761D02*
X97210476Y-27376380D01*
X96972380Y-27376380D01*
X96877142Y-27328761D01*
X96829523Y-27233523D01*
X96829523Y-27138285D01*
X96877142Y-27043047D01*
X96972380Y-26995428D01*
X97210476Y-26995428D01*
X97305714Y-26947809D01*
X97781904Y-27376380D02*
X97781904Y-26709714D01*
X97781904Y-26804952D02*
X97829523Y-26757333D01*
X97924761Y-26709714D01*
X98067619Y-26709714D01*
X98162857Y-26757333D01*
X98210476Y-26852571D01*
X98210476Y-27376380D01*
X98210476Y-26852571D02*
X98258095Y-26757333D01*
X98353333Y-26709714D01*
X98496190Y-26709714D01*
X98591428Y-26757333D01*
X98639047Y-26852571D01*
X98639047Y-27376380D01*
X133310380Y-35813904D02*
X134119904Y-35813904D01*
X134215142Y-35766285D01*
X134262761Y-35718666D01*
X134310380Y-35623428D01*
X134310380Y-35432952D01*
X134262761Y-35337714D01*
X134215142Y-35290095D01*
X134119904Y-35242476D01*
X133310380Y-35242476D01*
X134310380Y-34242476D02*
X134310380Y-34813904D01*
X134310380Y-34528190D02*
X133310380Y-34528190D01*
X133453238Y-34623428D01*
X133548476Y-34718666D01*
X133596095Y-34813904D01*
X129230380Y-36266285D02*
X129230380Y-36742476D01*
X128230380Y-36742476D01*
X129230380Y-35932952D02*
X128230380Y-35932952D01*
X128944666Y-35599619D01*
X128230380Y-35266285D01*
X129230380Y-35266285D01*
X128325619Y-34837714D02*
X128278000Y-34790095D01*
X128230380Y-34694857D01*
X128230380Y-34456761D01*
X128278000Y-34361523D01*
X128325619Y-34313904D01*
X128420857Y-34266285D01*
X128516095Y-34266285D01*
X128658952Y-34313904D01*
X129230380Y-34885333D01*
X129230380Y-34266285D01*
X128230380Y-33647238D02*
X128230380Y-33552000D01*
X128278000Y-33456761D01*
X128325619Y-33409142D01*
X128420857Y-33361523D01*
X128611333Y-33313904D01*
X128849428Y-33313904D01*
X129039904Y-33361523D01*
X129135142Y-33409142D01*
X129182761Y-33456761D01*
X129230380Y-33552000D01*
X129230380Y-33647238D01*
X129182761Y-33742476D01*
X129135142Y-33790095D01*
X129039904Y-33837714D01*
X128849428Y-33885333D01*
X128611333Y-33885333D01*
X128420857Y-33837714D01*
X128325619Y-33790095D01*
X128278000Y-33742476D01*
X128230380Y-33647238D01*
X135723333Y-38468380D02*
X135390000Y-37992190D01*
X135151904Y-38468380D02*
X135151904Y-37468380D01*
X135532857Y-37468380D01*
X135628095Y-37516000D01*
X135675714Y-37563619D01*
X135723333Y-37658857D01*
X135723333Y-37801714D01*
X135675714Y-37896952D01*
X135628095Y-37944571D01*
X135532857Y-37992190D01*
X135151904Y-37992190D01*
X136675714Y-38468380D02*
X136104285Y-38468380D01*
X136390000Y-38468380D02*
X136390000Y-37468380D01*
X136294761Y-37611238D01*
X136199523Y-37706476D01*
X136104285Y-37754095D01*
X135675714Y-43208380D02*
X135104285Y-43208380D01*
X135390000Y-43208380D02*
X135390000Y-42208380D01*
X135294761Y-42351238D01*
X135199523Y-42446476D01*
X135104285Y-42494095D01*
X136104285Y-43208380D02*
X136104285Y-42208380D01*
X136675714Y-43208380D02*
X136247142Y-42636952D01*
X136675714Y-42208380D02*
X136104285Y-42779809D01*
X143441666Y-30452380D02*
X143441666Y-31166666D01*
X143394047Y-31309523D01*
X143298809Y-31404761D01*
X143155952Y-31452380D01*
X143060714Y-31452380D01*
X144441666Y-31452380D02*
X143870238Y-31452380D01*
X144155952Y-31452380D02*
X144155952Y-30452380D01*
X144060714Y-30595238D01*
X143965476Y-30690476D01*
X143870238Y-30738095D01*
X134438095Y-27106571D02*
X134580952Y-27154190D01*
X134628571Y-27201809D01*
X134676190Y-27297047D01*
X134676190Y-27439904D01*
X134628571Y-27535142D01*
X134580952Y-27582761D01*
X134485714Y-27630380D01*
X134104761Y-27630380D01*
X134104761Y-26630380D01*
X134438095Y-26630380D01*
X134533333Y-26678000D01*
X134580952Y-26725619D01*
X134628571Y-26820857D01*
X134628571Y-26916095D01*
X134580952Y-27011333D01*
X134533333Y-27058952D01*
X134438095Y-27106571D01*
X134104761Y-27106571D01*
X135247619Y-27630380D02*
X135152380Y-27582761D01*
X135104761Y-27535142D01*
X135057142Y-27439904D01*
X135057142Y-27154190D01*
X135104761Y-27058952D01*
X135152380Y-27011333D01*
X135247619Y-26963714D01*
X135390476Y-26963714D01*
X135485714Y-27011333D01*
X135533333Y-27058952D01*
X135580952Y-27154190D01*
X135580952Y-27439904D01*
X135533333Y-27535142D01*
X135485714Y-27582761D01*
X135390476Y-27630380D01*
X135247619Y-27630380D01*
X136438095Y-27630380D02*
X136438095Y-27106571D01*
X136390476Y-27011333D01*
X136295238Y-26963714D01*
X136104761Y-26963714D01*
X136009523Y-27011333D01*
X136438095Y-27582761D02*
X136342857Y-27630380D01*
X136104761Y-27630380D01*
X136009523Y-27582761D01*
X135961904Y-27487523D01*
X135961904Y-27392285D01*
X136009523Y-27297047D01*
X136104761Y-27249428D01*
X136342857Y-27249428D01*
X136438095Y-27201809D01*
X136914285Y-27630380D02*
X136914285Y-26963714D01*
X136914285Y-27154190D02*
X136961904Y-27058952D01*
X137009523Y-27011333D01*
X137104761Y-26963714D01*
X137200000Y-26963714D01*
X137961904Y-27630380D02*
X137961904Y-26630380D01*
X137961904Y-27582761D02*
X137866666Y-27630380D01*
X137676190Y-27630380D01*
X137580952Y-27582761D01*
X137533333Y-27535142D01*
X137485714Y-27439904D01*
X137485714Y-27154190D01*
X137533333Y-27058952D01*
X137580952Y-27011333D01*
X137676190Y-26963714D01*
X137866666Y-26963714D01*
X137961904Y-27011333D01*
X138200000Y-27725619D02*
X138961904Y-27725619D01*
X139057142Y-26963714D02*
X139438095Y-26963714D01*
X139200000Y-26630380D02*
X139200000Y-27487523D01*
X139247619Y-27582761D01*
X139342857Y-27630380D01*
X139438095Y-27630380D01*
X139914285Y-27630380D02*
X139819047Y-27582761D01*
X139771428Y-27535142D01*
X139723809Y-27439904D01*
X139723809Y-27154190D01*
X139771428Y-27058952D01*
X139819047Y-27011333D01*
X139914285Y-26963714D01*
X140057142Y-26963714D01*
X140152380Y-27011333D01*
X140200000Y-27058952D01*
X140247619Y-27154190D01*
X140247619Y-27439904D01*
X140200000Y-27535142D01*
X140152380Y-27582761D01*
X140057142Y-27630380D01*
X139914285Y-27630380D01*
X140438095Y-27725619D02*
X141200000Y-27725619D01*
X141771428Y-27106571D02*
X141914285Y-27154190D01*
X141961904Y-27201809D01*
X142009523Y-27297047D01*
X142009523Y-27439904D01*
X141961904Y-27535142D01*
X141914285Y-27582761D01*
X141819047Y-27630380D01*
X141438095Y-27630380D01*
X141438095Y-26630380D01*
X141771428Y-26630380D01*
X141866666Y-26678000D01*
X141914285Y-26725619D01*
X141961904Y-26820857D01*
X141961904Y-26916095D01*
X141914285Y-27011333D01*
X141866666Y-27058952D01*
X141771428Y-27106571D01*
X141438095Y-27106571D01*
X142580952Y-27630380D02*
X142485714Y-27582761D01*
X142438095Y-27535142D01*
X142390476Y-27439904D01*
X142390476Y-27154190D01*
X142438095Y-27058952D01*
X142485714Y-27011333D01*
X142580952Y-26963714D01*
X142723809Y-26963714D01*
X142819047Y-27011333D01*
X142866666Y-27058952D01*
X142914285Y-27154190D01*
X142914285Y-27439904D01*
X142866666Y-27535142D01*
X142819047Y-27582761D01*
X142723809Y-27630380D01*
X142580952Y-27630380D01*
X143771428Y-27630380D02*
X143771428Y-27106571D01*
X143723809Y-27011333D01*
X143628571Y-26963714D01*
X143438095Y-26963714D01*
X143342857Y-27011333D01*
X143771428Y-27582761D02*
X143676190Y-27630380D01*
X143438095Y-27630380D01*
X143342857Y-27582761D01*
X143295238Y-27487523D01*
X143295238Y-27392285D01*
X143342857Y-27297047D01*
X143438095Y-27249428D01*
X143676190Y-27249428D01*
X143771428Y-27201809D01*
X144247619Y-27630380D02*
X144247619Y-26963714D01*
X144247619Y-27154190D02*
X144295238Y-27058952D01*
X144342857Y-27011333D01*
X144438095Y-26963714D01*
X144533333Y-26963714D01*
X145295238Y-27630380D02*
X145295238Y-26630380D01*
X145295238Y-27582761D02*
X145200000Y-27630380D01*
X145009523Y-27630380D01*
X144914285Y-27582761D01*
X144866666Y-27535142D01*
X144819047Y-27439904D01*
X144819047Y-27154190D01*
X144866666Y-27058952D01*
X144914285Y-27011333D01*
X145009523Y-26963714D01*
X145200000Y-26963714D01*
X145295238Y-27011333D01*
X144749142Y-37056666D02*
X144796761Y-37104285D01*
X144844380Y-37247142D01*
X144844380Y-37342380D01*
X144796761Y-37485238D01*
X144701523Y-37580476D01*
X144606285Y-37628095D01*
X144415809Y-37675714D01*
X144272952Y-37675714D01*
X144082476Y-37628095D01*
X143987238Y-37580476D01*
X143892000Y-37485238D01*
X143844380Y-37342380D01*
X143844380Y-37247142D01*
X143892000Y-37104285D01*
X143939619Y-37056666D01*
X144844380Y-36104285D02*
X144844380Y-36675714D01*
X144844380Y-36390000D02*
X143844380Y-36390000D01*
X143987238Y-36485238D01*
X144082476Y-36580476D01*
X144130095Y-36675714D01*
X149684380Y-37485238D02*
X149684380Y-38056666D01*
X149684380Y-37770952D02*
X148684380Y-37770952D01*
X148827238Y-37866190D01*
X148922476Y-37961428D01*
X148970095Y-38056666D01*
X149017714Y-36628095D02*
X149684380Y-36628095D01*
X149017714Y-37056666D02*
X149541523Y-37056666D01*
X149636761Y-37009047D01*
X149684380Y-36913809D01*
X149684380Y-36770952D01*
X149636761Y-36675714D01*
X149589142Y-36628095D01*
X149160571Y-35818571D02*
X149160571Y-36151904D01*
X149684380Y-36151904D02*
X148684380Y-36151904D01*
X148684380Y-35675714D01*
M02*
