G04 #@! TF.GenerationSoftware,KiCad,Pcbnew,(5.1.5)-3*
G04 #@! TF.CreationDate,2020-04-11T23:17:57-04:00*
G04 #@! TF.ProjectId,SensorEndPanel,53656e73-6f72-4456-9e64-50616e656c2e,rev?*
G04 #@! TF.SameCoordinates,Original*
G04 #@! TF.FileFunction,Copper,L2,Bot*
G04 #@! TF.FilePolarity,Positive*
%FSLAX46Y46*%
G04 Gerber Fmt 4.6, Leading zero omitted, Abs format (unit mm)*
G04 Created by KiCad (PCBNEW (5.1.5)-3) date 2020-04-11 23:17:57*
%MOMM*%
%LPD*%
G04 APERTURE LIST*
%ADD10O,1.600000X1.600000*%
%ADD11C,1.600000*%
%ADD12O,1.700000X1.700000*%
%ADD13R,1.700000X1.700000*%
%ADD14C,0.800000*%
%ADD15C,0.254000*%
G04 APERTURE END LIST*
D10*
X140970000Y-40386000D03*
D11*
X130810000Y-40386000D03*
D12*
X140970000Y-29972000D03*
X138430000Y-29972000D03*
D13*
X135890000Y-29972000D03*
D10*
X146812000Y-33140000D03*
D11*
X146812000Y-40640000D03*
D14*
X133480000Y-36380000D03*
D15*
G36*
X174854001Y-43790000D02*
G01*
X48920000Y-43790000D01*
X48920000Y-40986967D01*
X99965000Y-40986967D01*
X99965000Y-41309033D01*
X100027832Y-41624912D01*
X100151082Y-41922463D01*
X100330013Y-42190252D01*
X100557748Y-42417987D01*
X100825537Y-42596918D01*
X101123088Y-42720168D01*
X101438967Y-42783000D01*
X101761033Y-42783000D01*
X102076912Y-42720168D01*
X102374463Y-42596918D01*
X102642252Y-42417987D01*
X102869987Y-42190252D01*
X103048918Y-41922463D01*
X103172168Y-41624912D01*
X103235000Y-41309033D01*
X103235000Y-40988967D01*
X120940000Y-40988967D01*
X120940000Y-41311033D01*
X121002832Y-41626912D01*
X121126082Y-41924463D01*
X121305013Y-42192252D01*
X121532748Y-42419987D01*
X121800537Y-42598918D01*
X122098088Y-42722168D01*
X122413967Y-42785000D01*
X122736033Y-42785000D01*
X123051912Y-42722168D01*
X123349463Y-42598918D01*
X123617252Y-42419987D01*
X123844987Y-42192252D01*
X124023918Y-41924463D01*
X124147168Y-41626912D01*
X124210000Y-41311033D01*
X124210000Y-40988967D01*
X124147168Y-40673088D01*
X124023918Y-40375537D01*
X123936473Y-40244665D01*
X129375000Y-40244665D01*
X129375000Y-40527335D01*
X129430147Y-40804574D01*
X129538320Y-41065727D01*
X129695363Y-41300759D01*
X129895241Y-41500637D01*
X130130273Y-41657680D01*
X130391426Y-41765853D01*
X130668665Y-41821000D01*
X130951335Y-41821000D01*
X131228574Y-41765853D01*
X131489727Y-41657680D01*
X131724759Y-41500637D01*
X131924637Y-41300759D01*
X132081680Y-41065727D01*
X132189853Y-40804574D01*
X132245000Y-40527335D01*
X132245000Y-40244665D01*
X139535000Y-40244665D01*
X139535000Y-40527335D01*
X139590147Y-40804574D01*
X139698320Y-41065727D01*
X139855363Y-41300759D01*
X140055241Y-41500637D01*
X140290273Y-41657680D01*
X140551426Y-41765853D01*
X140828665Y-41821000D01*
X141111335Y-41821000D01*
X141388574Y-41765853D01*
X141649727Y-41657680D01*
X141884759Y-41500637D01*
X142084637Y-41300759D01*
X142241680Y-41065727D01*
X142349853Y-40804574D01*
X142405000Y-40527335D01*
X142405000Y-40498665D01*
X145377000Y-40498665D01*
X145377000Y-40781335D01*
X145432147Y-41058574D01*
X145540320Y-41319727D01*
X145697363Y-41554759D01*
X145897241Y-41754637D01*
X146132273Y-41911680D01*
X146393426Y-42019853D01*
X146670665Y-42075000D01*
X146953335Y-42075000D01*
X147230574Y-42019853D01*
X147491727Y-41911680D01*
X147726759Y-41754637D01*
X147926637Y-41554759D01*
X148083680Y-41319727D01*
X148191853Y-41058574D01*
X148247000Y-40781335D01*
X148247000Y-40498665D01*
X148191853Y-40221426D01*
X148083680Y-39960273D01*
X147926637Y-39725241D01*
X147726759Y-39525363D01*
X147491727Y-39368320D01*
X147230574Y-39260147D01*
X146953335Y-39205000D01*
X146670665Y-39205000D01*
X146393426Y-39260147D01*
X146132273Y-39368320D01*
X145897241Y-39525363D01*
X145697363Y-39725241D01*
X145540320Y-39960273D01*
X145432147Y-40221426D01*
X145377000Y-40498665D01*
X142405000Y-40498665D01*
X142405000Y-40244665D01*
X142349853Y-39967426D01*
X142241680Y-39706273D01*
X142084637Y-39471241D01*
X141884759Y-39271363D01*
X141649727Y-39114320D01*
X141388574Y-39006147D01*
X141111335Y-38951000D01*
X140828665Y-38951000D01*
X140551426Y-39006147D01*
X140290273Y-39114320D01*
X140055241Y-39271363D01*
X139855363Y-39471241D01*
X139698320Y-39706273D01*
X139590147Y-39967426D01*
X139535000Y-40244665D01*
X132245000Y-40244665D01*
X132189853Y-39967426D01*
X132081680Y-39706273D01*
X131924637Y-39471241D01*
X131724759Y-39271363D01*
X131489727Y-39114320D01*
X131228574Y-39006147D01*
X130951335Y-38951000D01*
X130668665Y-38951000D01*
X130391426Y-39006147D01*
X130130273Y-39114320D01*
X129895241Y-39271363D01*
X129695363Y-39471241D01*
X129538320Y-39706273D01*
X129430147Y-39967426D01*
X129375000Y-40244665D01*
X123936473Y-40244665D01*
X123844987Y-40107748D01*
X123617252Y-39880013D01*
X123349463Y-39701082D01*
X123051912Y-39577832D01*
X122736033Y-39515000D01*
X122413967Y-39515000D01*
X122098088Y-39577832D01*
X121800537Y-39701082D01*
X121532748Y-39880013D01*
X121305013Y-40107748D01*
X121126082Y-40375537D01*
X121002832Y-40673088D01*
X120940000Y-40988967D01*
X103235000Y-40988967D01*
X103235000Y-40986967D01*
X103172168Y-40671088D01*
X103048918Y-40373537D01*
X102869987Y-40105748D01*
X102642252Y-39878013D01*
X102374463Y-39699082D01*
X102076912Y-39575832D01*
X101761033Y-39513000D01*
X101438967Y-39513000D01*
X101123088Y-39575832D01*
X100825537Y-39699082D01*
X100557748Y-39878013D01*
X100330013Y-40105748D01*
X100151082Y-40373537D01*
X100027832Y-40671088D01*
X99965000Y-40986967D01*
X48920000Y-40986967D01*
X48920000Y-37938967D01*
X49165000Y-37938967D01*
X49165000Y-38261033D01*
X49227832Y-38576912D01*
X49351082Y-38874463D01*
X49530013Y-39142252D01*
X49757748Y-39369987D01*
X50025537Y-39548918D01*
X50323088Y-39672168D01*
X50638967Y-39735000D01*
X50961033Y-39735000D01*
X51276912Y-39672168D01*
X51574463Y-39548918D01*
X51842252Y-39369987D01*
X52069987Y-39142252D01*
X52248918Y-38874463D01*
X52372168Y-38576912D01*
X52435000Y-38261033D01*
X52435000Y-37938967D01*
X171339000Y-37938967D01*
X171339000Y-38261033D01*
X171401832Y-38576912D01*
X171525082Y-38874463D01*
X171704013Y-39142252D01*
X171931748Y-39369987D01*
X172199537Y-39548918D01*
X172497088Y-39672168D01*
X172812967Y-39735000D01*
X173135033Y-39735000D01*
X173450912Y-39672168D01*
X173748463Y-39548918D01*
X174016252Y-39369987D01*
X174243987Y-39142252D01*
X174422918Y-38874463D01*
X174546168Y-38576912D01*
X174609000Y-38261033D01*
X174609000Y-37938967D01*
X174546168Y-37623088D01*
X174422918Y-37325537D01*
X174243987Y-37057748D01*
X174016252Y-36830013D01*
X173748463Y-36651082D01*
X173450912Y-36527832D01*
X173135033Y-36465000D01*
X172812967Y-36465000D01*
X172497088Y-36527832D01*
X172199537Y-36651082D01*
X171931748Y-36830013D01*
X171704013Y-37057748D01*
X171525082Y-37325537D01*
X171401832Y-37623088D01*
X171339000Y-37938967D01*
X52435000Y-37938967D01*
X52372168Y-37623088D01*
X52248918Y-37325537D01*
X52069987Y-37057748D01*
X51842252Y-36830013D01*
X51574463Y-36651082D01*
X51276912Y-36527832D01*
X50961033Y-36465000D01*
X50638967Y-36465000D01*
X50323088Y-36527832D01*
X50025537Y-36651082D01*
X49757748Y-36830013D01*
X49530013Y-37057748D01*
X49351082Y-37325537D01*
X49227832Y-37623088D01*
X49165000Y-37938967D01*
X48920000Y-37938967D01*
X48920000Y-33489040D01*
X145420091Y-33489040D01*
X145514930Y-33753881D01*
X145659615Y-33995131D01*
X145848586Y-34203519D01*
X146074580Y-34371037D01*
X146328913Y-34491246D01*
X146462961Y-34531904D01*
X146685000Y-34409915D01*
X146685000Y-33267000D01*
X146939000Y-33267000D01*
X146939000Y-34409915D01*
X147161039Y-34531904D01*
X147295087Y-34491246D01*
X147549420Y-34371037D01*
X147775414Y-34203519D01*
X147964385Y-33995131D01*
X148109070Y-33753881D01*
X148203909Y-33489040D01*
X148082624Y-33267000D01*
X146939000Y-33267000D01*
X146685000Y-33267000D01*
X145541376Y-33267000D01*
X145420091Y-33489040D01*
X48920000Y-33489040D01*
X48920000Y-32790960D01*
X145420091Y-32790960D01*
X145541376Y-33013000D01*
X146685000Y-33013000D01*
X146685000Y-31870085D01*
X146939000Y-31870085D01*
X146939000Y-33013000D01*
X148082624Y-33013000D01*
X148203909Y-32790960D01*
X148109070Y-32526119D01*
X147964385Y-32284869D01*
X147775414Y-32076481D01*
X147549420Y-31908963D01*
X147295087Y-31788754D01*
X147161039Y-31748096D01*
X146939000Y-31870085D01*
X146685000Y-31870085D01*
X146462961Y-31748096D01*
X146328913Y-31788754D01*
X146074580Y-31908963D01*
X145848586Y-32076481D01*
X145659615Y-32284869D01*
X145514930Y-32526119D01*
X145420091Y-32790960D01*
X48920000Y-32790960D01*
X48920000Y-28540967D01*
X99965000Y-28540967D01*
X99965000Y-28863033D01*
X100027832Y-29178912D01*
X100151082Y-29476463D01*
X100330013Y-29744252D01*
X100557748Y-29971987D01*
X100825537Y-30150918D01*
X101123088Y-30274168D01*
X101438967Y-30337000D01*
X101761033Y-30337000D01*
X102076912Y-30274168D01*
X102374463Y-30150918D01*
X102642252Y-29971987D01*
X102869987Y-29744252D01*
X103048918Y-29476463D01*
X103172168Y-29178912D01*
X103235000Y-28863033D01*
X103235000Y-28540967D01*
X103234603Y-28538967D01*
X120940000Y-28538967D01*
X120940000Y-28861033D01*
X121002832Y-29176912D01*
X121126082Y-29474463D01*
X121305013Y-29742252D01*
X121532748Y-29969987D01*
X121800537Y-30148918D01*
X122098088Y-30272168D01*
X122413967Y-30335000D01*
X122736033Y-30335000D01*
X123051912Y-30272168D01*
X123349463Y-30148918D01*
X123617252Y-29969987D01*
X123844987Y-29742252D01*
X124023918Y-29474463D01*
X124147168Y-29176912D01*
X124158090Y-29122000D01*
X134401928Y-29122000D01*
X134401928Y-30822000D01*
X134414188Y-30946482D01*
X134450498Y-31066180D01*
X134509463Y-31176494D01*
X134588815Y-31273185D01*
X134685506Y-31352537D01*
X134795820Y-31411502D01*
X134915518Y-31447812D01*
X135040000Y-31460072D01*
X136740000Y-31460072D01*
X136864482Y-31447812D01*
X136984180Y-31411502D01*
X137094494Y-31352537D01*
X137191185Y-31273185D01*
X137270537Y-31176494D01*
X137329502Y-31066180D01*
X137353966Y-30985534D01*
X137429731Y-31069588D01*
X137663080Y-31243641D01*
X137925901Y-31368825D01*
X138073110Y-31413476D01*
X138303000Y-31292155D01*
X138303000Y-30099000D01*
X138283000Y-30099000D01*
X138283000Y-29845000D01*
X138303000Y-29845000D01*
X138303000Y-28651845D01*
X138557000Y-28651845D01*
X138557000Y-29845000D01*
X138577000Y-29845000D01*
X138577000Y-30099000D01*
X138557000Y-30099000D01*
X138557000Y-31292155D01*
X138786890Y-31413476D01*
X138934099Y-31368825D01*
X139196920Y-31243641D01*
X139430269Y-31069588D01*
X139625178Y-30853355D01*
X139694805Y-30736466D01*
X139816525Y-30918632D01*
X140023368Y-31125475D01*
X140266589Y-31287990D01*
X140536842Y-31399932D01*
X140823740Y-31457000D01*
X141116260Y-31457000D01*
X141403158Y-31399932D01*
X141673411Y-31287990D01*
X141916632Y-31125475D01*
X142123475Y-30918632D01*
X142285990Y-30675411D01*
X142397932Y-30405158D01*
X142455000Y-30118260D01*
X142455000Y-29825740D01*
X142397932Y-29538842D01*
X142285990Y-29268589D01*
X142123475Y-29025368D01*
X141916632Y-28818525D01*
X141673411Y-28656010D01*
X141403158Y-28544068D01*
X141116260Y-28487000D01*
X140823740Y-28487000D01*
X140536842Y-28544068D01*
X140266589Y-28656010D01*
X140023368Y-28818525D01*
X139816525Y-29025368D01*
X139694805Y-29207534D01*
X139625178Y-29090645D01*
X139430269Y-28874412D01*
X139196920Y-28700359D01*
X138934099Y-28575175D01*
X138786890Y-28530524D01*
X138557000Y-28651845D01*
X138303000Y-28651845D01*
X138073110Y-28530524D01*
X137925901Y-28575175D01*
X137663080Y-28700359D01*
X137429731Y-28874412D01*
X137353966Y-28958466D01*
X137329502Y-28877820D01*
X137270537Y-28767506D01*
X137191185Y-28670815D01*
X137094494Y-28591463D01*
X136984180Y-28532498D01*
X136864482Y-28496188D01*
X136740000Y-28483928D01*
X135040000Y-28483928D01*
X134915518Y-28496188D01*
X134795820Y-28532498D01*
X134685506Y-28591463D01*
X134588815Y-28670815D01*
X134509463Y-28767506D01*
X134450498Y-28877820D01*
X134414188Y-28997518D01*
X134401928Y-29122000D01*
X124158090Y-29122000D01*
X124210000Y-28861033D01*
X124210000Y-28538967D01*
X124147168Y-28223088D01*
X124023918Y-27925537D01*
X123844987Y-27657748D01*
X123617252Y-27430013D01*
X123349463Y-27251082D01*
X123051912Y-27127832D01*
X122736033Y-27065000D01*
X122413967Y-27065000D01*
X122098088Y-27127832D01*
X121800537Y-27251082D01*
X121532748Y-27430013D01*
X121305013Y-27657748D01*
X121126082Y-27925537D01*
X121002832Y-28223088D01*
X120940000Y-28538967D01*
X103234603Y-28538967D01*
X103172168Y-28225088D01*
X103048918Y-27927537D01*
X102869987Y-27659748D01*
X102642252Y-27432013D01*
X102374463Y-27253082D01*
X102076912Y-27129832D01*
X101761033Y-27067000D01*
X101438967Y-27067000D01*
X101123088Y-27129832D01*
X100825537Y-27253082D01*
X100557748Y-27432013D01*
X100330013Y-27659748D01*
X100151082Y-27927537D01*
X100027832Y-28225088D01*
X99965000Y-28540967D01*
X48920000Y-28540967D01*
X48920000Y-26060000D01*
X174854000Y-26060000D01*
X174854001Y-43790000D01*
G37*
X174854001Y-43790000D02*
X48920000Y-43790000D01*
X48920000Y-40986967D01*
X99965000Y-40986967D01*
X99965000Y-41309033D01*
X100027832Y-41624912D01*
X100151082Y-41922463D01*
X100330013Y-42190252D01*
X100557748Y-42417987D01*
X100825537Y-42596918D01*
X101123088Y-42720168D01*
X101438967Y-42783000D01*
X101761033Y-42783000D01*
X102076912Y-42720168D01*
X102374463Y-42596918D01*
X102642252Y-42417987D01*
X102869987Y-42190252D01*
X103048918Y-41922463D01*
X103172168Y-41624912D01*
X103235000Y-41309033D01*
X103235000Y-40988967D01*
X120940000Y-40988967D01*
X120940000Y-41311033D01*
X121002832Y-41626912D01*
X121126082Y-41924463D01*
X121305013Y-42192252D01*
X121532748Y-42419987D01*
X121800537Y-42598918D01*
X122098088Y-42722168D01*
X122413967Y-42785000D01*
X122736033Y-42785000D01*
X123051912Y-42722168D01*
X123349463Y-42598918D01*
X123617252Y-42419987D01*
X123844987Y-42192252D01*
X124023918Y-41924463D01*
X124147168Y-41626912D01*
X124210000Y-41311033D01*
X124210000Y-40988967D01*
X124147168Y-40673088D01*
X124023918Y-40375537D01*
X123936473Y-40244665D01*
X129375000Y-40244665D01*
X129375000Y-40527335D01*
X129430147Y-40804574D01*
X129538320Y-41065727D01*
X129695363Y-41300759D01*
X129895241Y-41500637D01*
X130130273Y-41657680D01*
X130391426Y-41765853D01*
X130668665Y-41821000D01*
X130951335Y-41821000D01*
X131228574Y-41765853D01*
X131489727Y-41657680D01*
X131724759Y-41500637D01*
X131924637Y-41300759D01*
X132081680Y-41065727D01*
X132189853Y-40804574D01*
X132245000Y-40527335D01*
X132245000Y-40244665D01*
X139535000Y-40244665D01*
X139535000Y-40527335D01*
X139590147Y-40804574D01*
X139698320Y-41065727D01*
X139855363Y-41300759D01*
X140055241Y-41500637D01*
X140290273Y-41657680D01*
X140551426Y-41765853D01*
X140828665Y-41821000D01*
X141111335Y-41821000D01*
X141388574Y-41765853D01*
X141649727Y-41657680D01*
X141884759Y-41500637D01*
X142084637Y-41300759D01*
X142241680Y-41065727D01*
X142349853Y-40804574D01*
X142405000Y-40527335D01*
X142405000Y-40498665D01*
X145377000Y-40498665D01*
X145377000Y-40781335D01*
X145432147Y-41058574D01*
X145540320Y-41319727D01*
X145697363Y-41554759D01*
X145897241Y-41754637D01*
X146132273Y-41911680D01*
X146393426Y-42019853D01*
X146670665Y-42075000D01*
X146953335Y-42075000D01*
X147230574Y-42019853D01*
X147491727Y-41911680D01*
X147726759Y-41754637D01*
X147926637Y-41554759D01*
X148083680Y-41319727D01*
X148191853Y-41058574D01*
X148247000Y-40781335D01*
X148247000Y-40498665D01*
X148191853Y-40221426D01*
X148083680Y-39960273D01*
X147926637Y-39725241D01*
X147726759Y-39525363D01*
X147491727Y-39368320D01*
X147230574Y-39260147D01*
X146953335Y-39205000D01*
X146670665Y-39205000D01*
X146393426Y-39260147D01*
X146132273Y-39368320D01*
X145897241Y-39525363D01*
X145697363Y-39725241D01*
X145540320Y-39960273D01*
X145432147Y-40221426D01*
X145377000Y-40498665D01*
X142405000Y-40498665D01*
X142405000Y-40244665D01*
X142349853Y-39967426D01*
X142241680Y-39706273D01*
X142084637Y-39471241D01*
X141884759Y-39271363D01*
X141649727Y-39114320D01*
X141388574Y-39006147D01*
X141111335Y-38951000D01*
X140828665Y-38951000D01*
X140551426Y-39006147D01*
X140290273Y-39114320D01*
X140055241Y-39271363D01*
X139855363Y-39471241D01*
X139698320Y-39706273D01*
X139590147Y-39967426D01*
X139535000Y-40244665D01*
X132245000Y-40244665D01*
X132189853Y-39967426D01*
X132081680Y-39706273D01*
X131924637Y-39471241D01*
X131724759Y-39271363D01*
X131489727Y-39114320D01*
X131228574Y-39006147D01*
X130951335Y-38951000D01*
X130668665Y-38951000D01*
X130391426Y-39006147D01*
X130130273Y-39114320D01*
X129895241Y-39271363D01*
X129695363Y-39471241D01*
X129538320Y-39706273D01*
X129430147Y-39967426D01*
X129375000Y-40244665D01*
X123936473Y-40244665D01*
X123844987Y-40107748D01*
X123617252Y-39880013D01*
X123349463Y-39701082D01*
X123051912Y-39577832D01*
X122736033Y-39515000D01*
X122413967Y-39515000D01*
X122098088Y-39577832D01*
X121800537Y-39701082D01*
X121532748Y-39880013D01*
X121305013Y-40107748D01*
X121126082Y-40375537D01*
X121002832Y-40673088D01*
X120940000Y-40988967D01*
X103235000Y-40988967D01*
X103235000Y-40986967D01*
X103172168Y-40671088D01*
X103048918Y-40373537D01*
X102869987Y-40105748D01*
X102642252Y-39878013D01*
X102374463Y-39699082D01*
X102076912Y-39575832D01*
X101761033Y-39513000D01*
X101438967Y-39513000D01*
X101123088Y-39575832D01*
X100825537Y-39699082D01*
X100557748Y-39878013D01*
X100330013Y-40105748D01*
X100151082Y-40373537D01*
X100027832Y-40671088D01*
X99965000Y-40986967D01*
X48920000Y-40986967D01*
X48920000Y-37938967D01*
X49165000Y-37938967D01*
X49165000Y-38261033D01*
X49227832Y-38576912D01*
X49351082Y-38874463D01*
X49530013Y-39142252D01*
X49757748Y-39369987D01*
X50025537Y-39548918D01*
X50323088Y-39672168D01*
X50638967Y-39735000D01*
X50961033Y-39735000D01*
X51276912Y-39672168D01*
X51574463Y-39548918D01*
X51842252Y-39369987D01*
X52069987Y-39142252D01*
X52248918Y-38874463D01*
X52372168Y-38576912D01*
X52435000Y-38261033D01*
X52435000Y-37938967D01*
X171339000Y-37938967D01*
X171339000Y-38261033D01*
X171401832Y-38576912D01*
X171525082Y-38874463D01*
X171704013Y-39142252D01*
X171931748Y-39369987D01*
X172199537Y-39548918D01*
X172497088Y-39672168D01*
X172812967Y-39735000D01*
X173135033Y-39735000D01*
X173450912Y-39672168D01*
X173748463Y-39548918D01*
X174016252Y-39369987D01*
X174243987Y-39142252D01*
X174422918Y-38874463D01*
X174546168Y-38576912D01*
X174609000Y-38261033D01*
X174609000Y-37938967D01*
X174546168Y-37623088D01*
X174422918Y-37325537D01*
X174243987Y-37057748D01*
X174016252Y-36830013D01*
X173748463Y-36651082D01*
X173450912Y-36527832D01*
X173135033Y-36465000D01*
X172812967Y-36465000D01*
X172497088Y-36527832D01*
X172199537Y-36651082D01*
X171931748Y-36830013D01*
X171704013Y-37057748D01*
X171525082Y-37325537D01*
X171401832Y-37623088D01*
X171339000Y-37938967D01*
X52435000Y-37938967D01*
X52372168Y-37623088D01*
X52248918Y-37325537D01*
X52069987Y-37057748D01*
X51842252Y-36830013D01*
X51574463Y-36651082D01*
X51276912Y-36527832D01*
X50961033Y-36465000D01*
X50638967Y-36465000D01*
X50323088Y-36527832D01*
X50025537Y-36651082D01*
X49757748Y-36830013D01*
X49530013Y-37057748D01*
X49351082Y-37325537D01*
X49227832Y-37623088D01*
X49165000Y-37938967D01*
X48920000Y-37938967D01*
X48920000Y-33489040D01*
X145420091Y-33489040D01*
X145514930Y-33753881D01*
X145659615Y-33995131D01*
X145848586Y-34203519D01*
X146074580Y-34371037D01*
X146328913Y-34491246D01*
X146462961Y-34531904D01*
X146685000Y-34409915D01*
X146685000Y-33267000D01*
X146939000Y-33267000D01*
X146939000Y-34409915D01*
X147161039Y-34531904D01*
X147295087Y-34491246D01*
X147549420Y-34371037D01*
X147775414Y-34203519D01*
X147964385Y-33995131D01*
X148109070Y-33753881D01*
X148203909Y-33489040D01*
X148082624Y-33267000D01*
X146939000Y-33267000D01*
X146685000Y-33267000D01*
X145541376Y-33267000D01*
X145420091Y-33489040D01*
X48920000Y-33489040D01*
X48920000Y-32790960D01*
X145420091Y-32790960D01*
X145541376Y-33013000D01*
X146685000Y-33013000D01*
X146685000Y-31870085D01*
X146939000Y-31870085D01*
X146939000Y-33013000D01*
X148082624Y-33013000D01*
X148203909Y-32790960D01*
X148109070Y-32526119D01*
X147964385Y-32284869D01*
X147775414Y-32076481D01*
X147549420Y-31908963D01*
X147295087Y-31788754D01*
X147161039Y-31748096D01*
X146939000Y-31870085D01*
X146685000Y-31870085D01*
X146462961Y-31748096D01*
X146328913Y-31788754D01*
X146074580Y-31908963D01*
X145848586Y-32076481D01*
X145659615Y-32284869D01*
X145514930Y-32526119D01*
X145420091Y-32790960D01*
X48920000Y-32790960D01*
X48920000Y-28540967D01*
X99965000Y-28540967D01*
X99965000Y-28863033D01*
X100027832Y-29178912D01*
X100151082Y-29476463D01*
X100330013Y-29744252D01*
X100557748Y-29971987D01*
X100825537Y-30150918D01*
X101123088Y-30274168D01*
X101438967Y-30337000D01*
X101761033Y-30337000D01*
X102076912Y-30274168D01*
X102374463Y-30150918D01*
X102642252Y-29971987D01*
X102869987Y-29744252D01*
X103048918Y-29476463D01*
X103172168Y-29178912D01*
X103235000Y-28863033D01*
X103235000Y-28540967D01*
X103234603Y-28538967D01*
X120940000Y-28538967D01*
X120940000Y-28861033D01*
X121002832Y-29176912D01*
X121126082Y-29474463D01*
X121305013Y-29742252D01*
X121532748Y-29969987D01*
X121800537Y-30148918D01*
X122098088Y-30272168D01*
X122413967Y-30335000D01*
X122736033Y-30335000D01*
X123051912Y-30272168D01*
X123349463Y-30148918D01*
X123617252Y-29969987D01*
X123844987Y-29742252D01*
X124023918Y-29474463D01*
X124147168Y-29176912D01*
X124158090Y-29122000D01*
X134401928Y-29122000D01*
X134401928Y-30822000D01*
X134414188Y-30946482D01*
X134450498Y-31066180D01*
X134509463Y-31176494D01*
X134588815Y-31273185D01*
X134685506Y-31352537D01*
X134795820Y-31411502D01*
X134915518Y-31447812D01*
X135040000Y-31460072D01*
X136740000Y-31460072D01*
X136864482Y-31447812D01*
X136984180Y-31411502D01*
X137094494Y-31352537D01*
X137191185Y-31273185D01*
X137270537Y-31176494D01*
X137329502Y-31066180D01*
X137353966Y-30985534D01*
X137429731Y-31069588D01*
X137663080Y-31243641D01*
X137925901Y-31368825D01*
X138073110Y-31413476D01*
X138303000Y-31292155D01*
X138303000Y-30099000D01*
X138283000Y-30099000D01*
X138283000Y-29845000D01*
X138303000Y-29845000D01*
X138303000Y-28651845D01*
X138557000Y-28651845D01*
X138557000Y-29845000D01*
X138577000Y-29845000D01*
X138577000Y-30099000D01*
X138557000Y-30099000D01*
X138557000Y-31292155D01*
X138786890Y-31413476D01*
X138934099Y-31368825D01*
X139196920Y-31243641D01*
X139430269Y-31069588D01*
X139625178Y-30853355D01*
X139694805Y-30736466D01*
X139816525Y-30918632D01*
X140023368Y-31125475D01*
X140266589Y-31287990D01*
X140536842Y-31399932D01*
X140823740Y-31457000D01*
X141116260Y-31457000D01*
X141403158Y-31399932D01*
X141673411Y-31287990D01*
X141916632Y-31125475D01*
X142123475Y-30918632D01*
X142285990Y-30675411D01*
X142397932Y-30405158D01*
X142455000Y-30118260D01*
X142455000Y-29825740D01*
X142397932Y-29538842D01*
X142285990Y-29268589D01*
X142123475Y-29025368D01*
X141916632Y-28818525D01*
X141673411Y-28656010D01*
X141403158Y-28544068D01*
X141116260Y-28487000D01*
X140823740Y-28487000D01*
X140536842Y-28544068D01*
X140266589Y-28656010D01*
X140023368Y-28818525D01*
X139816525Y-29025368D01*
X139694805Y-29207534D01*
X139625178Y-29090645D01*
X139430269Y-28874412D01*
X139196920Y-28700359D01*
X138934099Y-28575175D01*
X138786890Y-28530524D01*
X138557000Y-28651845D01*
X138303000Y-28651845D01*
X138073110Y-28530524D01*
X137925901Y-28575175D01*
X137663080Y-28700359D01*
X137429731Y-28874412D01*
X137353966Y-28958466D01*
X137329502Y-28877820D01*
X137270537Y-28767506D01*
X137191185Y-28670815D01*
X137094494Y-28591463D01*
X136984180Y-28532498D01*
X136864482Y-28496188D01*
X136740000Y-28483928D01*
X135040000Y-28483928D01*
X134915518Y-28496188D01*
X134795820Y-28532498D01*
X134685506Y-28591463D01*
X134588815Y-28670815D01*
X134509463Y-28767506D01*
X134450498Y-28877820D01*
X134414188Y-28997518D01*
X134401928Y-29122000D01*
X124158090Y-29122000D01*
X124210000Y-28861033D01*
X124210000Y-28538967D01*
X124147168Y-28223088D01*
X124023918Y-27925537D01*
X123844987Y-27657748D01*
X123617252Y-27430013D01*
X123349463Y-27251082D01*
X123051912Y-27127832D01*
X122736033Y-27065000D01*
X122413967Y-27065000D01*
X122098088Y-27127832D01*
X121800537Y-27251082D01*
X121532748Y-27430013D01*
X121305013Y-27657748D01*
X121126082Y-27925537D01*
X121002832Y-28223088D01*
X120940000Y-28538967D01*
X103234603Y-28538967D01*
X103172168Y-28225088D01*
X103048918Y-27927537D01*
X102869987Y-27659748D01*
X102642252Y-27432013D01*
X102374463Y-27253082D01*
X102076912Y-27129832D01*
X101761033Y-27067000D01*
X101438967Y-27067000D01*
X101123088Y-27129832D01*
X100825537Y-27253082D01*
X100557748Y-27432013D01*
X100330013Y-27659748D01*
X100151082Y-27927537D01*
X100027832Y-28225088D01*
X99965000Y-28540967D01*
X48920000Y-28540967D01*
X48920000Y-26060000D01*
X174854000Y-26060000D01*
X174854001Y-43790000D01*
M02*
