M48
; DRILL file {KiCad (5.1.5)-3} date 4/13/2020 6:35:10 PM
; FORMAT={-:-/ absolute / inch / decimal}
; #@! TF.CreationDate,2020-04-13T18:35:10-04:00
; #@! TF.GenerationSoftware,Kicad,Pcbnew,(5.1.5)-3
FMAT,2
INCH
T1C0.0315
T2C0.0433
T3C0.0728
T4C0.1260
%
G90
G05
T1
X7.0825Y-3.2765
X7.4825Y-3.2765
X7.087Y-2.759
X7.487Y-2.759
T2
X7.5772Y-2.9327
X7.5772Y-3.0228
X7.5772Y-3.113
T3
X8.2756Y-2.911
X8.2756Y-3.187
X8.4736Y-2.911
X8.4736Y-3.187
X7.8587Y-3.2567
X7.8587Y-3.5327
X8.0567Y-3.2567
X8.0567Y-3.5327
X7.8602Y-2.563
X7.8602Y-2.839
X8.0582Y-2.563
X8.0582Y-2.839
T4
X6.78Y-2.36
X6.78Y-3.64
X8.42Y-3.64
X8.42Y-2.36
T0
M30
