G04 #@! TF.GenerationSoftware,KiCad,Pcbnew,(5.1.5)-3*
G04 #@! TF.CreationDate,2020-04-11T23:13:17-04:00*
G04 #@! TF.ProjectId,BurnWire_Circuit,4275726e-5769-4726-955f-436972637569,rev?*
G04 #@! TF.SameCoordinates,Original*
G04 #@! TF.FileFunction,Legend,Top*
G04 #@! TF.FilePolarity,Positive*
%FSLAX46Y46*%
G04 Gerber Fmt 4.6, Leading zero omitted, Abs format (unit mm)*
G04 Created by KiCad (PCBNEW (5.1.5)-3) date 2020-04-11 23:13:17*
%MOMM*%
%LPD*%
G04 APERTURE LIST*
%ADD10C,0.300000*%
%ADD11C,0.120000*%
%ADD12C,0.150000*%
G04 APERTURE END LIST*
D10*
X181532000Y-58312857D02*
X181746285Y-58384285D01*
X181817714Y-58455714D01*
X181889142Y-58598571D01*
X181889142Y-58812857D01*
X181817714Y-58955714D01*
X181746285Y-59027142D01*
X181603428Y-59098571D01*
X181032000Y-59098571D01*
X181032000Y-57598571D01*
X181532000Y-57598571D01*
X181674857Y-57670000D01*
X181746285Y-57741428D01*
X181817714Y-57884285D01*
X181817714Y-58027142D01*
X181746285Y-58170000D01*
X181674857Y-58241428D01*
X181532000Y-58312857D01*
X181032000Y-58312857D01*
X182532000Y-57598571D02*
X182532000Y-58812857D01*
X182603428Y-58955714D01*
X182674857Y-59027142D01*
X182817714Y-59098571D01*
X183103428Y-59098571D01*
X183246285Y-59027142D01*
X183317714Y-58955714D01*
X183389142Y-58812857D01*
X183389142Y-57598571D01*
X184960571Y-59098571D02*
X184460571Y-58384285D01*
X184103428Y-59098571D02*
X184103428Y-57598571D01*
X184674857Y-57598571D01*
X184817714Y-57670000D01*
X184889142Y-57741428D01*
X184960571Y-57884285D01*
X184960571Y-58098571D01*
X184889142Y-58241428D01*
X184817714Y-58312857D01*
X184674857Y-58384285D01*
X184103428Y-58384285D01*
X185603428Y-59098571D02*
X185603428Y-57598571D01*
X186460571Y-59098571D01*
X186460571Y-57598571D01*
X187246285Y-59027142D02*
X187246285Y-59098571D01*
X187174857Y-59241428D01*
X187103428Y-59312857D01*
X189532000Y-58312857D02*
X189746285Y-58384285D01*
X189817714Y-58455714D01*
X189889142Y-58598571D01*
X189889142Y-58812857D01*
X189817714Y-58955714D01*
X189746285Y-59027142D01*
X189603428Y-59098571D01*
X189032000Y-59098571D01*
X189032000Y-57598571D01*
X189532000Y-57598571D01*
X189674857Y-57670000D01*
X189746285Y-57741428D01*
X189817714Y-57884285D01*
X189817714Y-58027142D01*
X189746285Y-58170000D01*
X189674857Y-58241428D01*
X189532000Y-58312857D01*
X189032000Y-58312857D01*
X190460571Y-58670000D02*
X191174857Y-58670000D01*
X190317714Y-59098571D02*
X190817714Y-57598571D01*
X191317714Y-59098571D01*
X192317714Y-58312857D02*
X192532000Y-58384285D01*
X192603428Y-58455714D01*
X192674857Y-58598571D01*
X192674857Y-58812857D01*
X192603428Y-58955714D01*
X192532000Y-59027142D01*
X192389142Y-59098571D01*
X191817714Y-59098571D01*
X191817714Y-57598571D01*
X192317714Y-57598571D01*
X192460571Y-57670000D01*
X192532000Y-57741428D01*
X192603428Y-57884285D01*
X192603428Y-58027142D01*
X192532000Y-58170000D01*
X192460571Y-58241428D01*
X192317714Y-58312857D01*
X191817714Y-58312857D01*
X193603428Y-58384285D02*
X193603428Y-59098571D01*
X193103428Y-57598571D02*
X193603428Y-58384285D01*
X194103428Y-57598571D01*
X194603428Y-58955714D02*
X194674857Y-59027142D01*
X194603428Y-59098571D01*
X194532000Y-59027142D01*
X194603428Y-58955714D01*
X194603428Y-59098571D01*
X194603428Y-58527142D02*
X194532000Y-57670000D01*
X194603428Y-57598571D01*
X194674857Y-57670000D01*
X194603428Y-58527142D01*
X194603428Y-57598571D01*
X196960571Y-58312857D02*
X197174857Y-58384285D01*
X197246285Y-58455714D01*
X197317714Y-58598571D01*
X197317714Y-58812857D01*
X197246285Y-58955714D01*
X197174857Y-59027142D01*
X197032000Y-59098571D01*
X196460571Y-59098571D01*
X196460571Y-57598571D01*
X196960571Y-57598571D01*
X197103428Y-57670000D01*
X197174857Y-57741428D01*
X197246285Y-57884285D01*
X197246285Y-58027142D01*
X197174857Y-58170000D01*
X197103428Y-58241428D01*
X196960571Y-58312857D01*
X196460571Y-58312857D01*
X197960571Y-57598571D02*
X197960571Y-58812857D01*
X198032000Y-58955714D01*
X198103428Y-59027142D01*
X198246285Y-59098571D01*
X198532000Y-59098571D01*
X198674857Y-59027142D01*
X198746285Y-58955714D01*
X198817714Y-58812857D01*
X198817714Y-57598571D01*
X200389142Y-59098571D02*
X199889142Y-58384285D01*
X199532000Y-59098571D02*
X199532000Y-57598571D01*
X200103428Y-57598571D01*
X200246285Y-57670000D01*
X200317714Y-57741428D01*
X200389142Y-57884285D01*
X200389142Y-58098571D01*
X200317714Y-58241428D01*
X200246285Y-58312857D01*
X200103428Y-58384285D01*
X199532000Y-58384285D01*
X201032000Y-59098571D02*
X201032000Y-57598571D01*
X201889142Y-59098571D01*
X201889142Y-57598571D01*
X202603428Y-58955714D02*
X202674857Y-59027142D01*
X202603428Y-59098571D01*
X202532000Y-59027142D01*
X202603428Y-58955714D01*
X202603428Y-59098571D01*
X202603428Y-58527142D02*
X202532000Y-57670000D01*
X202603428Y-57598571D01*
X202674857Y-57670000D01*
X202603428Y-58527142D01*
X202603428Y-57598571D01*
X203317714Y-58955714D02*
X203389142Y-59027142D01*
X203317714Y-59098571D01*
X203246285Y-59027142D01*
X203317714Y-58955714D01*
X203317714Y-59098571D01*
X203317714Y-58527142D02*
X203246285Y-57670000D01*
X203317714Y-57598571D01*
X203389142Y-57670000D01*
X203317714Y-58527142D01*
X203317714Y-57598571D01*
X204032000Y-58955714D02*
X204103428Y-59027142D01*
X204032000Y-59098571D01*
X203960571Y-59027142D01*
X204032000Y-58955714D01*
X204032000Y-59098571D01*
X204032000Y-58527142D02*
X203960571Y-57670000D01*
X204032000Y-57598571D01*
X204103428Y-57670000D01*
X204032000Y-58527142D01*
X204032000Y-57598571D01*
D11*
X206061600Y-82262400D02*
X198136800Y-82262400D01*
X206061600Y-90187200D02*
X206061600Y-82262400D01*
X198136800Y-90187200D02*
X206061600Y-90187200D01*
X198136800Y-82262400D02*
X198136800Y-90187200D01*
X206101600Y-64642400D02*
X198176800Y-64642400D01*
X206101600Y-72567200D02*
X206101600Y-64642400D01*
X198176800Y-72567200D02*
X206101600Y-72567200D01*
X198176800Y-64642400D02*
X198176800Y-72567200D01*
X216651600Y-73482400D02*
X208726800Y-73482400D01*
X216651600Y-81407200D02*
X216651600Y-73482400D01*
X208726800Y-81407200D02*
X216651600Y-81407200D01*
X208726800Y-73482400D02*
X208726800Y-81407200D01*
X189129800Y-70078600D02*
X188359800Y-70078600D01*
X181049800Y-70078600D02*
X181819800Y-70078600D01*
X188359800Y-68708600D02*
X181819800Y-68708600D01*
X188359800Y-71448600D02*
X188359800Y-68708600D01*
X181819800Y-71448600D02*
X188359800Y-71448600D01*
X181819800Y-68708600D02*
X181819800Y-71448600D01*
X189015500Y-83223100D02*
X188245500Y-83223100D01*
X180935500Y-83223100D02*
X181705500Y-83223100D01*
X188245500Y-81853100D02*
X181705500Y-81853100D01*
X188245500Y-84593100D02*
X188245500Y-81853100D01*
X181705500Y-84593100D02*
X188245500Y-84593100D01*
X181705500Y-81853100D02*
X181705500Y-84593100D01*
X191809000Y-73481000D02*
X191809000Y-73370000D01*
X191809000Y-75771000D02*
X191809000Y-75498000D01*
X191809000Y-78061000D02*
X191809000Y-77788000D01*
X191809000Y-80190000D02*
X191809000Y-80079000D01*
X191070000Y-73370000D02*
X193610000Y-73370000D01*
X191070000Y-80190000D02*
X193610000Y-80190000D01*
X193610000Y-80190000D02*
X193610000Y-73370000D01*
X191070000Y-80190000D02*
X191070000Y-73370000D01*
D12*
X176530095Y-60396380D02*
X176530095Y-59396380D01*
X176530095Y-59872571D02*
X177101523Y-59872571D01*
X177101523Y-60396380D02*
X177101523Y-59396380D01*
X177482476Y-59396380D02*
X178101523Y-59396380D01*
X177768190Y-59777333D01*
X177911047Y-59777333D01*
X178006285Y-59824952D01*
X178053904Y-59872571D01*
X178101523Y-59967809D01*
X178101523Y-60205904D01*
X178053904Y-60301142D01*
X178006285Y-60348761D01*
X177911047Y-60396380D01*
X177625333Y-60396380D01*
X177530095Y-60348761D01*
X177482476Y-60301142D01*
X202036666Y-91502380D02*
X202036666Y-92216666D01*
X201989047Y-92359523D01*
X201893809Y-92454761D01*
X201750952Y-92502380D01*
X201655714Y-92502380D01*
X202417619Y-91502380D02*
X203036666Y-91502380D01*
X202703333Y-91883333D01*
X202846190Y-91883333D01*
X202941428Y-91930952D01*
X202989047Y-91978571D01*
X203036666Y-92073809D01*
X203036666Y-92311904D01*
X202989047Y-92407142D01*
X202941428Y-92454761D01*
X202846190Y-92502380D01*
X202560476Y-92502380D01*
X202465238Y-92454761D01*
X202417619Y-92407142D01*
X201856666Y-73482380D02*
X201856666Y-74196666D01*
X201809047Y-74339523D01*
X201713809Y-74434761D01*
X201570952Y-74482380D01*
X201475714Y-74482380D01*
X202856666Y-74482380D02*
X202285238Y-74482380D01*
X202570952Y-74482380D02*
X202570952Y-73482380D01*
X202475714Y-73625238D01*
X202380476Y-73720476D01*
X202285238Y-73768095D01*
X212456666Y-82282380D02*
X212456666Y-82996666D01*
X212409047Y-83139523D01*
X212313809Y-83234761D01*
X212170952Y-83282380D01*
X212075714Y-83282380D01*
X212885238Y-82377619D02*
X212932857Y-82330000D01*
X213028095Y-82282380D01*
X213266190Y-82282380D01*
X213361428Y-82330000D01*
X213409047Y-82377619D01*
X213456666Y-82472857D01*
X213456666Y-82568095D01*
X213409047Y-82710952D01*
X212837619Y-83282380D01*
X213456666Y-83282380D01*
X176530095Y-92908380D02*
X176530095Y-91908380D01*
X176530095Y-92384571D02*
X177101523Y-92384571D01*
X177101523Y-92908380D02*
X177101523Y-91908380D01*
X178006285Y-92241714D02*
X178006285Y-92908380D01*
X177768190Y-91860761D02*
X177530095Y-92575047D01*
X178149142Y-92575047D01*
X208026095Y-92908380D02*
X208026095Y-91908380D01*
X208026095Y-92384571D02*
X208597523Y-92384571D01*
X208597523Y-92908380D02*
X208597523Y-91908380D01*
X209026095Y-92003619D02*
X209073714Y-91956000D01*
X209168952Y-91908380D01*
X209407047Y-91908380D01*
X209502285Y-91956000D01*
X209549904Y-92003619D01*
X209597523Y-92098857D01*
X209597523Y-92194095D01*
X209549904Y-92336952D01*
X208978476Y-92908380D01*
X209597523Y-92908380D01*
X208026095Y-60396380D02*
X208026095Y-59396380D01*
X208026095Y-59872571D02*
X208597523Y-59872571D01*
X208597523Y-60396380D02*
X208597523Y-59396380D01*
X209597523Y-60396380D02*
X209026095Y-60396380D01*
X209311809Y-60396380D02*
X209311809Y-59396380D01*
X209216571Y-59539238D01*
X209121333Y-59634476D01*
X209026095Y-59682095D01*
X184923133Y-68160980D02*
X184589800Y-67684790D01*
X184351704Y-68160980D02*
X184351704Y-67160980D01*
X184732657Y-67160980D01*
X184827895Y-67208600D01*
X184875514Y-67256219D01*
X184923133Y-67351457D01*
X184923133Y-67494314D01*
X184875514Y-67589552D01*
X184827895Y-67637171D01*
X184732657Y-67684790D01*
X184351704Y-67684790D01*
X185304085Y-67256219D02*
X185351704Y-67208600D01*
X185446942Y-67160980D01*
X185685038Y-67160980D01*
X185780276Y-67208600D01*
X185827895Y-67256219D01*
X185875514Y-67351457D01*
X185875514Y-67446695D01*
X185827895Y-67589552D01*
X185256466Y-68160980D01*
X185875514Y-68160980D01*
X184808833Y-81305480D02*
X184475500Y-80829290D01*
X184237404Y-81305480D02*
X184237404Y-80305480D01*
X184618357Y-80305480D01*
X184713595Y-80353100D01*
X184761214Y-80400719D01*
X184808833Y-80495957D01*
X184808833Y-80638814D01*
X184761214Y-80734052D01*
X184713595Y-80781671D01*
X184618357Y-80829290D01*
X184237404Y-80829290D01*
X185761214Y-81305480D02*
X185189785Y-81305480D01*
X185475500Y-81305480D02*
X185475500Y-80305480D01*
X185380261Y-80448338D01*
X185285023Y-80543576D01*
X185189785Y-80591195D01*
X190617619Y-76875238D02*
X190570000Y-76970476D01*
X190474761Y-77065714D01*
X190331904Y-77208571D01*
X190284285Y-77303809D01*
X190284285Y-77399047D01*
X190522380Y-77351428D02*
X190474761Y-77446666D01*
X190379523Y-77541904D01*
X190189047Y-77589523D01*
X189855714Y-77589523D01*
X189665238Y-77541904D01*
X189570000Y-77446666D01*
X189522380Y-77351428D01*
X189522380Y-77160952D01*
X189570000Y-77065714D01*
X189665238Y-76970476D01*
X189855714Y-76922857D01*
X190189047Y-76922857D01*
X190379523Y-76970476D01*
X190474761Y-77065714D01*
X190522380Y-77160952D01*
X190522380Y-77351428D01*
X190522380Y-75970476D02*
X190522380Y-76541904D01*
X190522380Y-76256190D02*
X189522380Y-76256190D01*
X189665238Y-76351428D01*
X189760476Y-76446666D01*
X189808095Y-76541904D01*
M02*
