G04 #@! TF.GenerationSoftware,KiCad,Pcbnew,(5.1.5)-3*
G04 #@! TF.CreationDate,2020-04-13T18:35:01-04:00*
G04 #@! TF.ProjectId,BurnWire_Circuit,4275726e-5769-4726-955f-436972637569,rev?*
G04 #@! TF.SameCoordinates,Original*
G04 #@! TF.FileFunction,Legend,Top*
G04 #@! TF.FilePolarity,Positive*
%FSLAX46Y46*%
G04 Gerber Fmt 4.6, Leading zero omitted, Abs format (unit mm)*
G04 Created by KiCad (PCBNEW (5.1.5)-3) date 2020-04-13 18:35:01*
%MOMM*%
%LPD*%
G04 APERTURE LIST*
%ADD10C,0.300000*%
%ADD11C,0.120000*%
%ADD12C,0.150000*%
G04 APERTURE END LIST*
D10*
X181532000Y-58312857D02*
X181746285Y-58384285D01*
X181817714Y-58455714D01*
X181889142Y-58598571D01*
X181889142Y-58812857D01*
X181817714Y-58955714D01*
X181746285Y-59027142D01*
X181603428Y-59098571D01*
X181032000Y-59098571D01*
X181032000Y-57598571D01*
X181532000Y-57598571D01*
X181674857Y-57670000D01*
X181746285Y-57741428D01*
X181817714Y-57884285D01*
X181817714Y-58027142D01*
X181746285Y-58170000D01*
X181674857Y-58241428D01*
X181532000Y-58312857D01*
X181032000Y-58312857D01*
X182532000Y-57598571D02*
X182532000Y-58812857D01*
X182603428Y-58955714D01*
X182674857Y-59027142D01*
X182817714Y-59098571D01*
X183103428Y-59098571D01*
X183246285Y-59027142D01*
X183317714Y-58955714D01*
X183389142Y-58812857D01*
X183389142Y-57598571D01*
X184960571Y-59098571D02*
X184460571Y-58384285D01*
X184103428Y-59098571D02*
X184103428Y-57598571D01*
X184674857Y-57598571D01*
X184817714Y-57670000D01*
X184889142Y-57741428D01*
X184960571Y-57884285D01*
X184960571Y-58098571D01*
X184889142Y-58241428D01*
X184817714Y-58312857D01*
X184674857Y-58384285D01*
X184103428Y-58384285D01*
X185603428Y-59098571D02*
X185603428Y-57598571D01*
X186460571Y-59098571D01*
X186460571Y-57598571D01*
X187246285Y-59027142D02*
X187246285Y-59098571D01*
X187174857Y-59241428D01*
X187103428Y-59312857D01*
X189532000Y-58312857D02*
X189746285Y-58384285D01*
X189817714Y-58455714D01*
X189889142Y-58598571D01*
X189889142Y-58812857D01*
X189817714Y-58955714D01*
X189746285Y-59027142D01*
X189603428Y-59098571D01*
X189032000Y-59098571D01*
X189032000Y-57598571D01*
X189532000Y-57598571D01*
X189674857Y-57670000D01*
X189746285Y-57741428D01*
X189817714Y-57884285D01*
X189817714Y-58027142D01*
X189746285Y-58170000D01*
X189674857Y-58241428D01*
X189532000Y-58312857D01*
X189032000Y-58312857D01*
X190460571Y-58670000D02*
X191174857Y-58670000D01*
X190317714Y-59098571D02*
X190817714Y-57598571D01*
X191317714Y-59098571D01*
X192317714Y-58312857D02*
X192532000Y-58384285D01*
X192603428Y-58455714D01*
X192674857Y-58598571D01*
X192674857Y-58812857D01*
X192603428Y-58955714D01*
X192532000Y-59027142D01*
X192389142Y-59098571D01*
X191817714Y-59098571D01*
X191817714Y-57598571D01*
X192317714Y-57598571D01*
X192460571Y-57670000D01*
X192532000Y-57741428D01*
X192603428Y-57884285D01*
X192603428Y-58027142D01*
X192532000Y-58170000D01*
X192460571Y-58241428D01*
X192317714Y-58312857D01*
X191817714Y-58312857D01*
X193603428Y-58384285D02*
X193603428Y-59098571D01*
X193103428Y-57598571D02*
X193603428Y-58384285D01*
X194103428Y-57598571D01*
X194603428Y-58955714D02*
X194674857Y-59027142D01*
X194603428Y-59098571D01*
X194532000Y-59027142D01*
X194603428Y-58955714D01*
X194603428Y-59098571D01*
X194603428Y-58527142D02*
X194532000Y-57670000D01*
X194603428Y-57598571D01*
X194674857Y-57670000D01*
X194603428Y-58527142D01*
X194603428Y-57598571D01*
X196960571Y-58312857D02*
X197174857Y-58384285D01*
X197246285Y-58455714D01*
X197317714Y-58598571D01*
X197317714Y-58812857D01*
X197246285Y-58955714D01*
X197174857Y-59027142D01*
X197032000Y-59098571D01*
X196460571Y-59098571D01*
X196460571Y-57598571D01*
X196960571Y-57598571D01*
X197103428Y-57670000D01*
X197174857Y-57741428D01*
X197246285Y-57884285D01*
X197246285Y-58027142D01*
X197174857Y-58170000D01*
X197103428Y-58241428D01*
X196960571Y-58312857D01*
X196460571Y-58312857D01*
X197960571Y-57598571D02*
X197960571Y-58812857D01*
X198032000Y-58955714D01*
X198103428Y-59027142D01*
X198246285Y-59098571D01*
X198532000Y-59098571D01*
X198674857Y-59027142D01*
X198746285Y-58955714D01*
X198817714Y-58812857D01*
X198817714Y-57598571D01*
X200389142Y-59098571D02*
X199889142Y-58384285D01*
X199532000Y-59098571D02*
X199532000Y-57598571D01*
X200103428Y-57598571D01*
X200246285Y-57670000D01*
X200317714Y-57741428D01*
X200389142Y-57884285D01*
X200389142Y-58098571D01*
X200317714Y-58241428D01*
X200246285Y-58312857D01*
X200103428Y-58384285D01*
X199532000Y-58384285D01*
X201032000Y-59098571D02*
X201032000Y-57598571D01*
X201889142Y-59098571D01*
X201889142Y-57598571D01*
X202603428Y-58955714D02*
X202674857Y-59027142D01*
X202603428Y-59098571D01*
X202532000Y-59027142D01*
X202603428Y-58955714D01*
X202603428Y-59098571D01*
X202603428Y-58527142D02*
X202532000Y-57670000D01*
X202603428Y-57598571D01*
X202674857Y-57670000D01*
X202603428Y-58527142D01*
X202603428Y-57598571D01*
X203317714Y-58955714D02*
X203389142Y-59027142D01*
X203317714Y-59098571D01*
X203246285Y-59027142D01*
X203317714Y-58955714D01*
X203317714Y-59098571D01*
X203317714Y-58527142D02*
X203246285Y-57670000D01*
X203317714Y-57598571D01*
X203389142Y-57670000D01*
X203317714Y-58527142D01*
X203317714Y-57598571D01*
X204032000Y-58955714D02*
X204103428Y-59027142D01*
X204032000Y-59098571D01*
X203960571Y-59027142D01*
X204032000Y-58955714D01*
X204032000Y-59098571D01*
X204032000Y-58527142D02*
X203960571Y-57670000D01*
X204032000Y-57598571D01*
X204103428Y-57670000D01*
X204032000Y-58527142D01*
X204032000Y-57598571D01*
D11*
X206061600Y-82262400D02*
X198136800Y-82262400D01*
X206061600Y-90187200D02*
X206061600Y-82262400D01*
X198136800Y-90187200D02*
X206061600Y-90187200D01*
X198136800Y-82262400D02*
X198136800Y-90187200D01*
X206101600Y-64642400D02*
X198176800Y-64642400D01*
X206101600Y-72567200D02*
X206101600Y-64642400D01*
X198176800Y-72567200D02*
X206101600Y-72567200D01*
X198176800Y-64642400D02*
X198176800Y-72567200D01*
X216651600Y-73482400D02*
X208726800Y-73482400D01*
X216651600Y-81407200D02*
X216651600Y-73482400D01*
X208726800Y-81407200D02*
X216651600Y-81407200D01*
X208726800Y-73482400D02*
X208726800Y-81407200D01*
X189129800Y-70078600D02*
X188359800Y-70078600D01*
X181049800Y-70078600D02*
X181819800Y-70078600D01*
X188359800Y-68708600D02*
X181819800Y-68708600D01*
X188359800Y-71448600D02*
X188359800Y-68708600D01*
X181819800Y-71448600D02*
X188359800Y-71448600D01*
X181819800Y-68708600D02*
X181819800Y-71448600D01*
X189015500Y-83223100D02*
X188245500Y-83223100D01*
X180935500Y-83223100D02*
X181705500Y-83223100D01*
X188245500Y-81853100D02*
X181705500Y-81853100D01*
X188245500Y-84593100D02*
X188245500Y-81853100D01*
X181705500Y-84593100D02*
X188245500Y-84593100D01*
X181705500Y-81853100D02*
X181705500Y-84593100D01*
X191809000Y-73481000D02*
X191809000Y-73370000D01*
X191809000Y-75771000D02*
X191809000Y-75498000D01*
X191809000Y-78061000D02*
X191809000Y-77788000D01*
X191809000Y-80190000D02*
X191809000Y-80079000D01*
X191070000Y-73370000D02*
X193610000Y-73370000D01*
X191070000Y-80190000D02*
X193610000Y-80190000D01*
X193610000Y-80190000D02*
X193610000Y-73370000D01*
X191070000Y-80190000D02*
X191070000Y-73370000D01*
D12*
X176530095Y-60396380D02*
X176530095Y-59396380D01*
X176530095Y-59872571D02*
X177101523Y-59872571D01*
X177101523Y-60396380D02*
X177101523Y-59396380D01*
X177482476Y-59396380D02*
X178101523Y-59396380D01*
X177768190Y-59777333D01*
X177911047Y-59777333D01*
X178006285Y-59824952D01*
X178053904Y-59872571D01*
X178101523Y-59967809D01*
X178101523Y-60205904D01*
X178053904Y-60301142D01*
X178006285Y-60348761D01*
X177911047Y-60396380D01*
X177625333Y-60396380D01*
X177530095Y-60348761D01*
X177482476Y-60301142D01*
X202036666Y-91502380D02*
X202036666Y-92216666D01*
X201989047Y-92359523D01*
X201893809Y-92454761D01*
X201750952Y-92502380D01*
X201655714Y-92502380D01*
X202417619Y-91502380D02*
X203036666Y-91502380D01*
X202703333Y-91883333D01*
X202846190Y-91883333D01*
X202941428Y-91930952D01*
X202989047Y-91978571D01*
X203036666Y-92073809D01*
X203036666Y-92311904D01*
X202989047Y-92407142D01*
X202941428Y-92454761D01*
X202846190Y-92502380D01*
X202560476Y-92502380D01*
X202465238Y-92454761D01*
X202417619Y-92407142D01*
X196896190Y-80198571D02*
X197039047Y-80246190D01*
X197086666Y-80293809D01*
X197134285Y-80389047D01*
X197134285Y-80531904D01*
X197086666Y-80627142D01*
X197039047Y-80674761D01*
X196943809Y-80722380D01*
X196562857Y-80722380D01*
X196562857Y-79722380D01*
X196896190Y-79722380D01*
X196991428Y-79770000D01*
X197039047Y-79817619D01*
X197086666Y-79912857D01*
X197086666Y-80008095D01*
X197039047Y-80103333D01*
X196991428Y-80150952D01*
X196896190Y-80198571D01*
X196562857Y-80198571D01*
X197991428Y-80055714D02*
X197991428Y-80722380D01*
X197562857Y-80055714D02*
X197562857Y-80579523D01*
X197610476Y-80674761D01*
X197705714Y-80722380D01*
X197848571Y-80722380D01*
X197943809Y-80674761D01*
X197991428Y-80627142D01*
X198467619Y-80722380D02*
X198467619Y-80055714D01*
X198467619Y-80246190D02*
X198515238Y-80150952D01*
X198562857Y-80103333D01*
X198658095Y-80055714D01*
X198753333Y-80055714D01*
X199086666Y-80055714D02*
X199086666Y-80722380D01*
X199086666Y-80150952D02*
X199134285Y-80103333D01*
X199229523Y-80055714D01*
X199372380Y-80055714D01*
X199467619Y-80103333D01*
X199515238Y-80198571D01*
X199515238Y-80722380D01*
X199896190Y-79722380D02*
X200134285Y-80722380D01*
X200324761Y-80008095D01*
X200515238Y-80722380D01*
X200753333Y-79722380D01*
X201134285Y-80722380D02*
X201134285Y-80055714D01*
X201134285Y-79722380D02*
X201086666Y-79770000D01*
X201134285Y-79817619D01*
X201181904Y-79770000D01*
X201134285Y-79722380D01*
X201134285Y-79817619D01*
X201610476Y-80722380D02*
X201610476Y-80055714D01*
X201610476Y-80246190D02*
X201658095Y-80150952D01*
X201705714Y-80103333D01*
X201800952Y-80055714D01*
X201896190Y-80055714D01*
X202610476Y-80674761D02*
X202515238Y-80722380D01*
X202324761Y-80722380D01*
X202229523Y-80674761D01*
X202181904Y-80579523D01*
X202181904Y-80198571D01*
X202229523Y-80103333D01*
X202324761Y-80055714D01*
X202515238Y-80055714D01*
X202610476Y-80103333D01*
X202658095Y-80198571D01*
X202658095Y-80293809D01*
X202181904Y-80389047D01*
X203039047Y-80674761D02*
X203181904Y-80722380D01*
X203420000Y-80722380D01*
X203515238Y-80674761D01*
X203562857Y-80627142D01*
X203610476Y-80531904D01*
X203610476Y-80436666D01*
X203562857Y-80341428D01*
X203515238Y-80293809D01*
X203420000Y-80246190D01*
X203229523Y-80198571D01*
X203134285Y-80150952D01*
X203086666Y-80103333D01*
X203039047Y-80008095D01*
X203039047Y-79912857D01*
X203086666Y-79817619D01*
X203134285Y-79770000D01*
X203229523Y-79722380D01*
X203467619Y-79722380D01*
X203610476Y-79770000D01*
X204039047Y-80722380D02*
X204039047Y-80055714D01*
X204039047Y-79722380D02*
X203991428Y-79770000D01*
X204039047Y-79817619D01*
X204086666Y-79770000D01*
X204039047Y-79722380D01*
X204039047Y-79817619D01*
X204943809Y-80055714D02*
X204943809Y-80865238D01*
X204896190Y-80960476D01*
X204848571Y-81008095D01*
X204753333Y-81055714D01*
X204610476Y-81055714D01*
X204515238Y-81008095D01*
X204943809Y-80674761D02*
X204848571Y-80722380D01*
X204658095Y-80722380D01*
X204562857Y-80674761D01*
X204515238Y-80627142D01*
X204467619Y-80531904D01*
X204467619Y-80246190D01*
X204515238Y-80150952D01*
X204562857Y-80103333D01*
X204658095Y-80055714D01*
X204848571Y-80055714D01*
X204943809Y-80103333D01*
X205420000Y-80055714D02*
X205420000Y-80722380D01*
X205420000Y-80150952D02*
X205467619Y-80103333D01*
X205562857Y-80055714D01*
X205705714Y-80055714D01*
X205800952Y-80103333D01*
X205848571Y-80198571D01*
X205848571Y-80722380D01*
X206753333Y-80722380D02*
X206753333Y-80198571D01*
X206705714Y-80103333D01*
X206610476Y-80055714D01*
X206420000Y-80055714D01*
X206324761Y-80103333D01*
X206753333Y-80674761D02*
X206658095Y-80722380D01*
X206420000Y-80722380D01*
X206324761Y-80674761D01*
X206277142Y-80579523D01*
X206277142Y-80484285D01*
X206324761Y-80389047D01*
X206420000Y-80341428D01*
X206658095Y-80341428D01*
X206753333Y-80293809D01*
X207372380Y-80722380D02*
X207277142Y-80674761D01*
X207229523Y-80579523D01*
X207229523Y-79722380D01*
X201856666Y-73482380D02*
X201856666Y-74196666D01*
X201809047Y-74339523D01*
X201713809Y-74434761D01*
X201570952Y-74482380D01*
X201475714Y-74482380D01*
X202856666Y-74482380D02*
X202285238Y-74482380D01*
X202570952Y-74482380D02*
X202570952Y-73482380D01*
X202475714Y-73625238D01*
X202380476Y-73720476D01*
X202285238Y-73768095D01*
X201448095Y-62440000D02*
X201352857Y-62392380D01*
X201210000Y-62392380D01*
X201067142Y-62440000D01*
X200971904Y-62535238D01*
X200924285Y-62630476D01*
X200876666Y-62820952D01*
X200876666Y-62963809D01*
X200924285Y-63154285D01*
X200971904Y-63249523D01*
X201067142Y-63344761D01*
X201210000Y-63392380D01*
X201305238Y-63392380D01*
X201448095Y-63344761D01*
X201495714Y-63297142D01*
X201495714Y-62963809D01*
X201305238Y-62963809D01*
X201924285Y-63392380D02*
X201924285Y-62392380D01*
X202495714Y-63392380D01*
X202495714Y-62392380D01*
X202971904Y-63392380D02*
X202971904Y-62392380D01*
X203210000Y-62392380D01*
X203352857Y-62440000D01*
X203448095Y-62535238D01*
X203495714Y-62630476D01*
X203543333Y-62820952D01*
X203543333Y-62963809D01*
X203495714Y-63154285D01*
X203448095Y-63249523D01*
X203352857Y-63344761D01*
X203210000Y-63392380D01*
X202971904Y-63392380D01*
X212456666Y-82282380D02*
X212456666Y-82996666D01*
X212409047Y-83139523D01*
X212313809Y-83234761D01*
X212170952Y-83282380D01*
X212075714Y-83282380D01*
X212885238Y-82377619D02*
X212932857Y-82330000D01*
X213028095Y-82282380D01*
X213266190Y-82282380D01*
X213361428Y-82330000D01*
X213409047Y-82377619D01*
X213456666Y-82472857D01*
X213456666Y-82568095D01*
X213409047Y-82710952D01*
X212837619Y-83282380D01*
X213456666Y-83282380D01*
X209884285Y-70952380D02*
X209408095Y-70952380D01*
X209360476Y-71428571D01*
X209408095Y-71380952D01*
X209503333Y-71333333D01*
X209741428Y-71333333D01*
X209836666Y-71380952D01*
X209884285Y-71428571D01*
X209931904Y-71523809D01*
X209931904Y-71761904D01*
X209884285Y-71857142D01*
X209836666Y-71904761D01*
X209741428Y-71952380D01*
X209503333Y-71952380D01*
X209408095Y-71904761D01*
X209360476Y-71857142D01*
X210217619Y-70952380D02*
X210550952Y-71952380D01*
X210884285Y-70952380D01*
X210979523Y-72047619D02*
X211741428Y-72047619D01*
X212312857Y-71428571D02*
X212455714Y-71476190D01*
X212503333Y-71523809D01*
X212550952Y-71619047D01*
X212550952Y-71761904D01*
X212503333Y-71857142D01*
X212455714Y-71904761D01*
X212360476Y-71952380D01*
X211979523Y-71952380D01*
X211979523Y-70952380D01*
X212312857Y-70952380D01*
X212408095Y-71000000D01*
X212455714Y-71047619D01*
X212503333Y-71142857D01*
X212503333Y-71238095D01*
X212455714Y-71333333D01*
X212408095Y-71380952D01*
X212312857Y-71428571D01*
X211979523Y-71428571D01*
X213408095Y-71285714D02*
X213408095Y-71952380D01*
X212979523Y-71285714D02*
X212979523Y-71809523D01*
X213027142Y-71904761D01*
X213122380Y-71952380D01*
X213265238Y-71952380D01*
X213360476Y-71904761D01*
X213408095Y-71857142D01*
X213836666Y-71904761D02*
X213931904Y-71952380D01*
X214122380Y-71952380D01*
X214217619Y-71904761D01*
X214265238Y-71809523D01*
X214265238Y-71761904D01*
X214217619Y-71666666D01*
X214122380Y-71619047D01*
X213979523Y-71619047D01*
X213884285Y-71571428D01*
X213836666Y-71476190D01*
X213836666Y-71428571D01*
X213884285Y-71333333D01*
X213979523Y-71285714D01*
X214122380Y-71285714D01*
X214217619Y-71333333D01*
X214455714Y-72047619D02*
X215217619Y-72047619D01*
X215408095Y-71047619D02*
X215455714Y-71000000D01*
X215550952Y-70952380D01*
X215789047Y-70952380D01*
X215884285Y-71000000D01*
X215931904Y-71047619D01*
X215979523Y-71142857D01*
X215979523Y-71238095D01*
X215931904Y-71380952D01*
X215360476Y-71952380D01*
X215979523Y-71952380D01*
X176530095Y-92908380D02*
X176530095Y-91908380D01*
X176530095Y-92384571D02*
X177101523Y-92384571D01*
X177101523Y-92908380D02*
X177101523Y-91908380D01*
X178006285Y-92241714D02*
X178006285Y-92908380D01*
X177768190Y-91860761D02*
X177530095Y-92575047D01*
X178149142Y-92575047D01*
X208026095Y-92908380D02*
X208026095Y-91908380D01*
X208026095Y-92384571D02*
X208597523Y-92384571D01*
X208597523Y-92908380D02*
X208597523Y-91908380D01*
X209026095Y-92003619D02*
X209073714Y-91956000D01*
X209168952Y-91908380D01*
X209407047Y-91908380D01*
X209502285Y-91956000D01*
X209549904Y-92003619D01*
X209597523Y-92098857D01*
X209597523Y-92194095D01*
X209549904Y-92336952D01*
X208978476Y-92908380D01*
X209597523Y-92908380D01*
X208026095Y-60396380D02*
X208026095Y-59396380D01*
X208026095Y-59872571D02*
X208597523Y-59872571D01*
X208597523Y-60396380D02*
X208597523Y-59396380D01*
X209597523Y-60396380D02*
X209026095Y-60396380D01*
X209311809Y-60396380D02*
X209311809Y-59396380D01*
X209216571Y-59539238D01*
X209121333Y-59634476D01*
X209026095Y-59682095D01*
X184923133Y-68160980D02*
X184589800Y-67684790D01*
X184351704Y-68160980D02*
X184351704Y-67160980D01*
X184732657Y-67160980D01*
X184827895Y-67208600D01*
X184875514Y-67256219D01*
X184923133Y-67351457D01*
X184923133Y-67494314D01*
X184875514Y-67589552D01*
X184827895Y-67637171D01*
X184732657Y-67684790D01*
X184351704Y-67684790D01*
X185304085Y-67256219D02*
X185351704Y-67208600D01*
X185446942Y-67160980D01*
X185685038Y-67160980D01*
X185780276Y-67208600D01*
X185827895Y-67256219D01*
X185875514Y-67351457D01*
X185875514Y-67446695D01*
X185827895Y-67589552D01*
X185256466Y-68160980D01*
X185875514Y-68160980D01*
X184565990Y-72234314D02*
X184565990Y-72900980D01*
X184327895Y-71853361D02*
X184089800Y-72567647D01*
X184708847Y-72567647D01*
X185089800Y-72805742D02*
X185137419Y-72853361D01*
X185089800Y-72900980D01*
X185042180Y-72853361D01*
X185089800Y-72805742D01*
X185089800Y-72900980D01*
X185470752Y-71900980D02*
X186137419Y-71900980D01*
X185708847Y-72900980D01*
X184808833Y-81305480D02*
X184475500Y-80829290D01*
X184237404Y-81305480D02*
X184237404Y-80305480D01*
X184618357Y-80305480D01*
X184713595Y-80353100D01*
X184761214Y-80400719D01*
X184808833Y-80495957D01*
X184808833Y-80638814D01*
X184761214Y-80734052D01*
X184713595Y-80781671D01*
X184618357Y-80829290D01*
X184237404Y-80829290D01*
X185761214Y-81305480D02*
X185189785Y-81305480D01*
X185475500Y-81305480D02*
X185475500Y-80305480D01*
X185380261Y-80448338D01*
X185285023Y-80543576D01*
X185189785Y-80591195D01*
X184451690Y-85378814D02*
X184451690Y-86045480D01*
X184213595Y-84997861D02*
X183975500Y-85712147D01*
X184594547Y-85712147D01*
X184975500Y-85950242D02*
X185023119Y-85997861D01*
X184975500Y-86045480D01*
X184927880Y-85997861D01*
X184975500Y-85950242D01*
X184975500Y-86045480D01*
X185356452Y-85045480D02*
X186023119Y-85045480D01*
X185594547Y-86045480D01*
X190617619Y-76875238D02*
X190570000Y-76970476D01*
X190474761Y-77065714D01*
X190331904Y-77208571D01*
X190284285Y-77303809D01*
X190284285Y-77399047D01*
X190522380Y-77351428D02*
X190474761Y-77446666D01*
X190379523Y-77541904D01*
X190189047Y-77589523D01*
X189855714Y-77589523D01*
X189665238Y-77541904D01*
X189570000Y-77446666D01*
X189522380Y-77351428D01*
X189522380Y-77160952D01*
X189570000Y-77065714D01*
X189665238Y-76970476D01*
X189855714Y-76922857D01*
X190189047Y-76922857D01*
X190379523Y-76970476D01*
X190474761Y-77065714D01*
X190522380Y-77160952D01*
X190522380Y-77351428D01*
X190522380Y-75970476D02*
X190522380Y-76541904D01*
X190522380Y-76256190D02*
X189522380Y-76256190D01*
X189665238Y-76351428D01*
X189760476Y-76446666D01*
X189808095Y-76541904D01*
X194668571Y-79470476D02*
X194716190Y-79327619D01*
X194763809Y-79280000D01*
X194859047Y-79232380D01*
X195001904Y-79232380D01*
X195097142Y-79280000D01*
X195144761Y-79327619D01*
X195192380Y-79422857D01*
X195192380Y-79803809D01*
X194192380Y-79803809D01*
X194192380Y-79470476D01*
X194240000Y-79375238D01*
X194287619Y-79327619D01*
X194382857Y-79280000D01*
X194478095Y-79280000D01*
X194573333Y-79327619D01*
X194620952Y-79375238D01*
X194668571Y-79470476D01*
X194668571Y-79803809D01*
X194525714Y-78375238D02*
X195192380Y-78375238D01*
X194525714Y-78803809D02*
X195049523Y-78803809D01*
X195144761Y-78756190D01*
X195192380Y-78660952D01*
X195192380Y-78518095D01*
X195144761Y-78422857D01*
X195097142Y-78375238D01*
X195192380Y-77899047D02*
X194525714Y-77899047D01*
X194716190Y-77899047D02*
X194620952Y-77851428D01*
X194573333Y-77803809D01*
X194525714Y-77708571D01*
X194525714Y-77613333D01*
X194525714Y-77280000D02*
X195192380Y-77280000D01*
X194620952Y-77280000D02*
X194573333Y-77232380D01*
X194525714Y-77137142D01*
X194525714Y-76994285D01*
X194573333Y-76899047D01*
X194668571Y-76851428D01*
X195192380Y-76851428D01*
X194192380Y-76470476D02*
X195192380Y-76232380D01*
X194478095Y-76041904D01*
X195192380Y-75851428D01*
X194192380Y-75613333D01*
X195192380Y-75232380D02*
X194525714Y-75232380D01*
X194192380Y-75232380D02*
X194240000Y-75280000D01*
X194287619Y-75232380D01*
X194240000Y-75184761D01*
X194192380Y-75232380D01*
X194287619Y-75232380D01*
X195192380Y-74756190D02*
X194525714Y-74756190D01*
X194716190Y-74756190D02*
X194620952Y-74708571D01*
X194573333Y-74660952D01*
X194525714Y-74565714D01*
X194525714Y-74470476D01*
X195144761Y-73756190D02*
X195192380Y-73851428D01*
X195192380Y-74041904D01*
X195144761Y-74137142D01*
X195049523Y-74184761D01*
X194668571Y-74184761D01*
X194573333Y-74137142D01*
X194525714Y-74041904D01*
X194525714Y-73851428D01*
X194573333Y-73756190D01*
X194668571Y-73708571D01*
X194763809Y-73708571D01*
X194859047Y-74184761D01*
M02*
