G04 #@! TF.GenerationSoftware,KiCad,Pcbnew,(5.1.5)-3*
G04 #@! TF.CreationDate,2020-04-13T18:35:01-04:00*
G04 #@! TF.ProjectId,BurnWire_Circuit,4275726e-5769-4726-955f-436972637569,rev?*
G04 #@! TF.SameCoordinates,Original*
G04 #@! TF.FileFunction,Copper,L2,Bot*
G04 #@! TF.FilePolarity,Positive*
%FSLAX46Y46*%
G04 Gerber Fmt 4.6, Leading zero omitted, Abs format (unit mm)*
G04 Created by KiCad (PCBNEW (5.1.5)-3) date 2020-04-13 18:35:01*
%MOMM*%
%LPD*%
G04 APERTURE LIST*
%ADD10C,2.200000*%
%ADD11O,1.600000X1.600000*%
%ADD12C,1.600000*%
%ADD13O,1.800000X1.717500*%
%ADD14R,1.800000X1.717500*%
%ADD15C,0.254000*%
G04 APERTURE END LIST*
D10*
X199610000Y-82719600D03*
X204639200Y-82719600D03*
X204639200Y-89730000D03*
X199610000Y-89730000D03*
X199650000Y-65099600D03*
X204679200Y-65099600D03*
X204679200Y-72110000D03*
X199650000Y-72110000D03*
X210200000Y-73939600D03*
X215229200Y-73939600D03*
X215229200Y-80950000D03*
X210200000Y-80950000D03*
D11*
X190169800Y-70078600D03*
D12*
X180009800Y-70078600D03*
D11*
X190055500Y-83223100D03*
D12*
X179895500Y-83223100D03*
D13*
X192460000Y-74490000D03*
X192460000Y-76780000D03*
D14*
X192460000Y-79070000D03*
D15*
G36*
X217760163Y-95849871D02*
G01*
X168300000Y-95840130D01*
X168300000Y-92235872D01*
X169977000Y-92235872D01*
X169977000Y-92676128D01*
X170062890Y-93107925D01*
X170231369Y-93514669D01*
X170475962Y-93880729D01*
X170787271Y-94192038D01*
X171153331Y-94436631D01*
X171560075Y-94605110D01*
X171991872Y-94691000D01*
X172432128Y-94691000D01*
X172863925Y-94605110D01*
X173270669Y-94436631D01*
X173636729Y-94192038D01*
X173948038Y-93880729D01*
X174192631Y-93514669D01*
X174361110Y-93107925D01*
X174447000Y-92676128D01*
X174447000Y-92235872D01*
X211633000Y-92235872D01*
X211633000Y-92676128D01*
X211718890Y-93107925D01*
X211887369Y-93514669D01*
X212131962Y-93880729D01*
X212443271Y-94192038D01*
X212809331Y-94436631D01*
X213216075Y-94605110D01*
X213647872Y-94691000D01*
X214088128Y-94691000D01*
X214519925Y-94605110D01*
X214926669Y-94436631D01*
X215292729Y-94192038D01*
X215604038Y-93880729D01*
X215848631Y-93514669D01*
X216017110Y-93107925D01*
X216103000Y-92676128D01*
X216103000Y-92235872D01*
X216017110Y-91804075D01*
X215848631Y-91397331D01*
X215604038Y-91031271D01*
X215292729Y-90719962D01*
X214926669Y-90475369D01*
X214519925Y-90306890D01*
X214088128Y-90221000D01*
X213647872Y-90221000D01*
X213216075Y-90306890D01*
X212809331Y-90475369D01*
X212443271Y-90719962D01*
X212131962Y-91031271D01*
X211887369Y-91397331D01*
X211718890Y-91804075D01*
X211633000Y-92235872D01*
X174447000Y-92235872D01*
X174361110Y-91804075D01*
X174192631Y-91397331D01*
X173948038Y-91031271D01*
X173636729Y-90719962D01*
X173270669Y-90475369D01*
X172863925Y-90306890D01*
X172432128Y-90221000D01*
X171991872Y-90221000D01*
X171560075Y-90306890D01*
X171153331Y-90475369D01*
X170787271Y-90719962D01*
X170475962Y-91031271D01*
X170231369Y-91397331D01*
X170062890Y-91804075D01*
X169977000Y-92235872D01*
X168300000Y-92235872D01*
X168300000Y-89559117D01*
X197875000Y-89559117D01*
X197875000Y-89900883D01*
X197941675Y-90236081D01*
X198072463Y-90551831D01*
X198262337Y-90835998D01*
X198504002Y-91077663D01*
X198788169Y-91267537D01*
X199103919Y-91398325D01*
X199439117Y-91465000D01*
X199780883Y-91465000D01*
X200116081Y-91398325D01*
X200431831Y-91267537D01*
X200715998Y-91077663D01*
X200957663Y-90835998D01*
X201147537Y-90551831D01*
X201278325Y-90236081D01*
X201345000Y-89900883D01*
X201345000Y-89559117D01*
X202904200Y-89559117D01*
X202904200Y-89900883D01*
X202970875Y-90236081D01*
X203101663Y-90551831D01*
X203291537Y-90835998D01*
X203533202Y-91077663D01*
X203817369Y-91267537D01*
X204133119Y-91398325D01*
X204468317Y-91465000D01*
X204810083Y-91465000D01*
X205145281Y-91398325D01*
X205461031Y-91267537D01*
X205745198Y-91077663D01*
X205986863Y-90835998D01*
X206176737Y-90551831D01*
X206307525Y-90236081D01*
X206374200Y-89900883D01*
X206374200Y-89559117D01*
X206307525Y-89223919D01*
X206176737Y-88908169D01*
X205986863Y-88624002D01*
X205745198Y-88382337D01*
X205461031Y-88192463D01*
X205145281Y-88061675D01*
X204810083Y-87995000D01*
X204468317Y-87995000D01*
X204133119Y-88061675D01*
X203817369Y-88192463D01*
X203533202Y-88382337D01*
X203291537Y-88624002D01*
X203101663Y-88908169D01*
X202970875Y-89223919D01*
X202904200Y-89559117D01*
X201345000Y-89559117D01*
X201278325Y-89223919D01*
X201147537Y-88908169D01*
X200957663Y-88624002D01*
X200715998Y-88382337D01*
X200431831Y-88192463D01*
X200116081Y-88061675D01*
X199780883Y-87995000D01*
X199439117Y-87995000D01*
X199103919Y-88061675D01*
X198788169Y-88192463D01*
X198504002Y-88382337D01*
X198262337Y-88624002D01*
X198072463Y-88908169D01*
X197941675Y-89223919D01*
X197875000Y-89559117D01*
X168300000Y-89559117D01*
X168300000Y-83081765D01*
X178460500Y-83081765D01*
X178460500Y-83364435D01*
X178515647Y-83641674D01*
X178623820Y-83902827D01*
X178780863Y-84137859D01*
X178980741Y-84337737D01*
X179215773Y-84494780D01*
X179476926Y-84602953D01*
X179754165Y-84658100D01*
X180036835Y-84658100D01*
X180314074Y-84602953D01*
X180575227Y-84494780D01*
X180810259Y-84337737D01*
X181010137Y-84137859D01*
X181167180Y-83902827D01*
X181275353Y-83641674D01*
X181289184Y-83572139D01*
X188663596Y-83572139D01*
X188704254Y-83706187D01*
X188824463Y-83960520D01*
X188991981Y-84186514D01*
X189200369Y-84375485D01*
X189441619Y-84520170D01*
X189706460Y-84615009D01*
X189928500Y-84493724D01*
X189928500Y-83350100D01*
X190182500Y-83350100D01*
X190182500Y-84493724D01*
X190404540Y-84615009D01*
X190669381Y-84520170D01*
X190910631Y-84375485D01*
X191119019Y-84186514D01*
X191286537Y-83960520D01*
X191406746Y-83706187D01*
X191447404Y-83572139D01*
X191325415Y-83350100D01*
X190182500Y-83350100D01*
X189928500Y-83350100D01*
X188785585Y-83350100D01*
X188663596Y-83572139D01*
X181289184Y-83572139D01*
X181330500Y-83364435D01*
X181330500Y-83081765D01*
X181289185Y-82874061D01*
X188663596Y-82874061D01*
X188785585Y-83096100D01*
X189928500Y-83096100D01*
X189928500Y-81952476D01*
X190182500Y-81952476D01*
X190182500Y-83096100D01*
X191325415Y-83096100D01*
X191447404Y-82874061D01*
X191406746Y-82740013D01*
X191316332Y-82548717D01*
X197875000Y-82548717D01*
X197875000Y-82890483D01*
X197941675Y-83225681D01*
X198072463Y-83541431D01*
X198262337Y-83825598D01*
X198504002Y-84067263D01*
X198788169Y-84257137D01*
X199103919Y-84387925D01*
X199439117Y-84454600D01*
X199780883Y-84454600D01*
X200116081Y-84387925D01*
X200431831Y-84257137D01*
X200715998Y-84067263D01*
X200957663Y-83825598D01*
X201147537Y-83541431D01*
X201278325Y-83225681D01*
X201345000Y-82890483D01*
X201345000Y-82548717D01*
X202904200Y-82548717D01*
X202904200Y-82890483D01*
X202970875Y-83225681D01*
X203101663Y-83541431D01*
X203291537Y-83825598D01*
X203533202Y-84067263D01*
X203817369Y-84257137D01*
X204133119Y-84387925D01*
X204468317Y-84454600D01*
X204810083Y-84454600D01*
X205145281Y-84387925D01*
X205461031Y-84257137D01*
X205745198Y-84067263D01*
X205986863Y-83825598D01*
X206176737Y-83541431D01*
X206307525Y-83225681D01*
X206374200Y-82890483D01*
X206374200Y-82548717D01*
X206307525Y-82213519D01*
X206176737Y-81897769D01*
X205986863Y-81613602D01*
X205745198Y-81371937D01*
X205461031Y-81182063D01*
X205145281Y-81051275D01*
X204810083Y-80984600D01*
X204468317Y-80984600D01*
X204133119Y-81051275D01*
X203817369Y-81182063D01*
X203533202Y-81371937D01*
X203291537Y-81613602D01*
X203101663Y-81897769D01*
X202970875Y-82213519D01*
X202904200Y-82548717D01*
X201345000Y-82548717D01*
X201278325Y-82213519D01*
X201147537Y-81897769D01*
X200957663Y-81613602D01*
X200715998Y-81371937D01*
X200431831Y-81182063D01*
X200116081Y-81051275D01*
X199780883Y-80984600D01*
X199439117Y-80984600D01*
X199103919Y-81051275D01*
X198788169Y-81182063D01*
X198504002Y-81371937D01*
X198262337Y-81613602D01*
X198072463Y-81897769D01*
X197941675Y-82213519D01*
X197875000Y-82548717D01*
X191316332Y-82548717D01*
X191286537Y-82485680D01*
X191119019Y-82259686D01*
X190910631Y-82070715D01*
X190669381Y-81926030D01*
X190404540Y-81831191D01*
X190182500Y-81952476D01*
X189928500Y-81952476D01*
X189706460Y-81831191D01*
X189441619Y-81926030D01*
X189200369Y-82070715D01*
X188991981Y-82259686D01*
X188824463Y-82485680D01*
X188704254Y-82740013D01*
X188663596Y-82874061D01*
X181289185Y-82874061D01*
X181275353Y-82804526D01*
X181167180Y-82543373D01*
X181010137Y-82308341D01*
X180810259Y-82108463D01*
X180575227Y-81951420D01*
X180314074Y-81843247D01*
X180036835Y-81788100D01*
X179754165Y-81788100D01*
X179476926Y-81843247D01*
X179215773Y-81951420D01*
X178980741Y-82108463D01*
X178780863Y-82308341D01*
X178623820Y-82543373D01*
X178515647Y-82804526D01*
X178460500Y-83081765D01*
X168300000Y-83081765D01*
X168300000Y-80779117D01*
X208465000Y-80779117D01*
X208465000Y-81120883D01*
X208531675Y-81456081D01*
X208662463Y-81771831D01*
X208852337Y-82055998D01*
X209094002Y-82297663D01*
X209378169Y-82487537D01*
X209693919Y-82618325D01*
X210029117Y-82685000D01*
X210370883Y-82685000D01*
X210706081Y-82618325D01*
X211021831Y-82487537D01*
X211305998Y-82297663D01*
X211547663Y-82055998D01*
X211737537Y-81771831D01*
X211868325Y-81456081D01*
X211935000Y-81120883D01*
X211935000Y-80779117D01*
X213494200Y-80779117D01*
X213494200Y-81120883D01*
X213560875Y-81456081D01*
X213691663Y-81771831D01*
X213881537Y-82055998D01*
X214123202Y-82297663D01*
X214407369Y-82487537D01*
X214723119Y-82618325D01*
X215058317Y-82685000D01*
X215400083Y-82685000D01*
X215735281Y-82618325D01*
X216051031Y-82487537D01*
X216335198Y-82297663D01*
X216576863Y-82055998D01*
X216766737Y-81771831D01*
X216897525Y-81456081D01*
X216964200Y-81120883D01*
X216964200Y-80779117D01*
X216897525Y-80443919D01*
X216766737Y-80128169D01*
X216576863Y-79844002D01*
X216335198Y-79602337D01*
X216051031Y-79412463D01*
X215735281Y-79281675D01*
X215400083Y-79215000D01*
X215058317Y-79215000D01*
X214723119Y-79281675D01*
X214407369Y-79412463D01*
X214123202Y-79602337D01*
X213881537Y-79844002D01*
X213691663Y-80128169D01*
X213560875Y-80443919D01*
X213494200Y-80779117D01*
X211935000Y-80779117D01*
X211868325Y-80443919D01*
X211737537Y-80128169D01*
X211547663Y-79844002D01*
X211305998Y-79602337D01*
X211021831Y-79412463D01*
X210706081Y-79281675D01*
X210370883Y-79215000D01*
X210029117Y-79215000D01*
X209693919Y-79281675D01*
X209378169Y-79412463D01*
X209094002Y-79602337D01*
X208852337Y-79844002D01*
X208662463Y-80128169D01*
X208531675Y-80443919D01*
X208465000Y-80779117D01*
X168300000Y-80779117D01*
X168300000Y-74490000D01*
X190917773Y-74490000D01*
X190946614Y-74782826D01*
X191032028Y-75064399D01*
X191170733Y-75323898D01*
X191357399Y-75551351D01*
X191459326Y-75635000D01*
X191357399Y-75718649D01*
X191170733Y-75946102D01*
X191032028Y-76205601D01*
X190946614Y-76487174D01*
X190917773Y-76780000D01*
X190946614Y-77072826D01*
X191032028Y-77354399D01*
X191170733Y-77613898D01*
X191219450Y-77673260D01*
X191205506Y-77680713D01*
X191108815Y-77760065D01*
X191029463Y-77856756D01*
X190970498Y-77967070D01*
X190934188Y-78086768D01*
X190921928Y-78211250D01*
X190921928Y-79928750D01*
X190934188Y-80053232D01*
X190970498Y-80172930D01*
X191029463Y-80283244D01*
X191108815Y-80379935D01*
X191205506Y-80459287D01*
X191315820Y-80518252D01*
X191435518Y-80554562D01*
X191560000Y-80566822D01*
X193360000Y-80566822D01*
X193484482Y-80554562D01*
X193604180Y-80518252D01*
X193714494Y-80459287D01*
X193811185Y-80379935D01*
X193890537Y-80283244D01*
X193949502Y-80172930D01*
X193985812Y-80053232D01*
X193998072Y-79928750D01*
X193998072Y-78211250D01*
X193985812Y-78086768D01*
X193949502Y-77967070D01*
X193890537Y-77856756D01*
X193811185Y-77760065D01*
X193714494Y-77680713D01*
X193700550Y-77673260D01*
X193749267Y-77613898D01*
X193887972Y-77354399D01*
X193973386Y-77072826D01*
X194002227Y-76780000D01*
X193973386Y-76487174D01*
X193887972Y-76205601D01*
X193749267Y-75946102D01*
X193562601Y-75718649D01*
X193460674Y-75635000D01*
X193562601Y-75551351D01*
X193749267Y-75323898D01*
X193887972Y-75064399D01*
X193973386Y-74782826D01*
X194002227Y-74490000D01*
X193973386Y-74197174D01*
X193887972Y-73915601D01*
X193749267Y-73656102D01*
X193562601Y-73428649D01*
X193426206Y-73316712D01*
X198622893Y-73316712D01*
X198730726Y-73591338D01*
X199037384Y-73742216D01*
X199367585Y-73830369D01*
X199708639Y-73852409D01*
X200047439Y-73807489D01*
X200370966Y-73697336D01*
X200569274Y-73591338D01*
X200677107Y-73316712D01*
X203652093Y-73316712D01*
X203759926Y-73591338D01*
X204066584Y-73742216D01*
X204396785Y-73830369D01*
X204737839Y-73852409D01*
X205076639Y-73807489D01*
X205190515Y-73768717D01*
X208465000Y-73768717D01*
X208465000Y-74110483D01*
X208531675Y-74445681D01*
X208662463Y-74761431D01*
X208852337Y-75045598D01*
X209094002Y-75287263D01*
X209378169Y-75477137D01*
X209693919Y-75607925D01*
X210029117Y-75674600D01*
X210370883Y-75674600D01*
X210706081Y-75607925D01*
X211021831Y-75477137D01*
X211305998Y-75287263D01*
X211547663Y-75045598D01*
X211737537Y-74761431D01*
X211868325Y-74445681D01*
X211935000Y-74110483D01*
X211935000Y-73768717D01*
X213494200Y-73768717D01*
X213494200Y-74110483D01*
X213560875Y-74445681D01*
X213691663Y-74761431D01*
X213881537Y-75045598D01*
X214123202Y-75287263D01*
X214407369Y-75477137D01*
X214723119Y-75607925D01*
X215058317Y-75674600D01*
X215400083Y-75674600D01*
X215735281Y-75607925D01*
X216051031Y-75477137D01*
X216335198Y-75287263D01*
X216576863Y-75045598D01*
X216766737Y-74761431D01*
X216897525Y-74445681D01*
X216964200Y-74110483D01*
X216964200Y-73768717D01*
X216897525Y-73433519D01*
X216766737Y-73117769D01*
X216576863Y-72833602D01*
X216335198Y-72591937D01*
X216051031Y-72402063D01*
X215735281Y-72271275D01*
X215400083Y-72204600D01*
X215058317Y-72204600D01*
X214723119Y-72271275D01*
X214407369Y-72402063D01*
X214123202Y-72591937D01*
X213881537Y-72833602D01*
X213691663Y-73117769D01*
X213560875Y-73433519D01*
X213494200Y-73768717D01*
X211935000Y-73768717D01*
X211868325Y-73433519D01*
X211737537Y-73117769D01*
X211547663Y-72833602D01*
X211305998Y-72591937D01*
X211021831Y-72402063D01*
X210706081Y-72271275D01*
X210370883Y-72204600D01*
X210029117Y-72204600D01*
X209693919Y-72271275D01*
X209378169Y-72402063D01*
X209094002Y-72591937D01*
X208852337Y-72833602D01*
X208662463Y-73117769D01*
X208531675Y-73433519D01*
X208465000Y-73768717D01*
X205190515Y-73768717D01*
X205400166Y-73697336D01*
X205598474Y-73591338D01*
X205706307Y-73316712D01*
X204679200Y-72289605D01*
X203652093Y-73316712D01*
X200677107Y-73316712D01*
X199650000Y-72289605D01*
X198622893Y-73316712D01*
X193426206Y-73316712D01*
X193335148Y-73241983D01*
X193075649Y-73103278D01*
X192794076Y-73017864D01*
X192574627Y-72996250D01*
X192345373Y-72996250D01*
X192125924Y-73017864D01*
X191844351Y-73103278D01*
X191584852Y-73241983D01*
X191357399Y-73428649D01*
X191170733Y-73656102D01*
X191032028Y-73915601D01*
X190946614Y-74197174D01*
X190917773Y-74490000D01*
X168300000Y-74490000D01*
X168300000Y-72168639D01*
X197907591Y-72168639D01*
X197952511Y-72507439D01*
X198062664Y-72830966D01*
X198168662Y-73029274D01*
X198443288Y-73137107D01*
X199470395Y-72110000D01*
X199829605Y-72110000D01*
X200856712Y-73137107D01*
X201131338Y-73029274D01*
X201282216Y-72722616D01*
X201370369Y-72392415D01*
X201384830Y-72168639D01*
X202936791Y-72168639D01*
X202981711Y-72507439D01*
X203091864Y-72830966D01*
X203197862Y-73029274D01*
X203472488Y-73137107D01*
X204499595Y-72110000D01*
X204858805Y-72110000D01*
X205885912Y-73137107D01*
X206160538Y-73029274D01*
X206311416Y-72722616D01*
X206399569Y-72392415D01*
X206421609Y-72051361D01*
X206376689Y-71712561D01*
X206266536Y-71389034D01*
X206160538Y-71190726D01*
X205885912Y-71082893D01*
X204858805Y-72110000D01*
X204499595Y-72110000D01*
X203472488Y-71082893D01*
X203197862Y-71190726D01*
X203046984Y-71497384D01*
X202958831Y-71827585D01*
X202936791Y-72168639D01*
X201384830Y-72168639D01*
X201392409Y-72051361D01*
X201347489Y-71712561D01*
X201237336Y-71389034D01*
X201131338Y-71190726D01*
X200856712Y-71082893D01*
X199829605Y-72110000D01*
X199470395Y-72110000D01*
X198443288Y-71082893D01*
X198168662Y-71190726D01*
X198017784Y-71497384D01*
X197929631Y-71827585D01*
X197907591Y-72168639D01*
X168300000Y-72168639D01*
X168300000Y-69937265D01*
X178574800Y-69937265D01*
X178574800Y-70219935D01*
X178629947Y-70497174D01*
X178738120Y-70758327D01*
X178895163Y-70993359D01*
X179095041Y-71193237D01*
X179330073Y-71350280D01*
X179591226Y-71458453D01*
X179868465Y-71513600D01*
X180151135Y-71513600D01*
X180428374Y-71458453D01*
X180689527Y-71350280D01*
X180924559Y-71193237D01*
X181124437Y-70993359D01*
X181281480Y-70758327D01*
X181389653Y-70497174D01*
X181403484Y-70427639D01*
X188777896Y-70427639D01*
X188818554Y-70561687D01*
X188938763Y-70816020D01*
X189106281Y-71042014D01*
X189314669Y-71230985D01*
X189555919Y-71375670D01*
X189820760Y-71470509D01*
X190042800Y-71349224D01*
X190042800Y-70205600D01*
X190296800Y-70205600D01*
X190296800Y-71349224D01*
X190518840Y-71470509D01*
X190783681Y-71375670D01*
X191024931Y-71230985D01*
X191233319Y-71042014D01*
X191336149Y-70903288D01*
X198622893Y-70903288D01*
X199650000Y-71930395D01*
X200677107Y-70903288D01*
X203652093Y-70903288D01*
X204679200Y-71930395D01*
X205706307Y-70903288D01*
X205598474Y-70628662D01*
X205291816Y-70477784D01*
X204961615Y-70389631D01*
X204620561Y-70367591D01*
X204281761Y-70412511D01*
X203958234Y-70522664D01*
X203759926Y-70628662D01*
X203652093Y-70903288D01*
X200677107Y-70903288D01*
X200569274Y-70628662D01*
X200262616Y-70477784D01*
X199932415Y-70389631D01*
X199591361Y-70367591D01*
X199252561Y-70412511D01*
X198929034Y-70522664D01*
X198730726Y-70628662D01*
X198622893Y-70903288D01*
X191336149Y-70903288D01*
X191400837Y-70816020D01*
X191521046Y-70561687D01*
X191561704Y-70427639D01*
X191439715Y-70205600D01*
X190296800Y-70205600D01*
X190042800Y-70205600D01*
X188899885Y-70205600D01*
X188777896Y-70427639D01*
X181403484Y-70427639D01*
X181444800Y-70219935D01*
X181444800Y-69937265D01*
X181403485Y-69729561D01*
X188777896Y-69729561D01*
X188899885Y-69951600D01*
X190042800Y-69951600D01*
X190042800Y-68807976D01*
X190296800Y-68807976D01*
X190296800Y-69951600D01*
X191439715Y-69951600D01*
X191561704Y-69729561D01*
X191521046Y-69595513D01*
X191400837Y-69341180D01*
X191233319Y-69115186D01*
X191024931Y-68926215D01*
X190783681Y-68781530D01*
X190518840Y-68686691D01*
X190296800Y-68807976D01*
X190042800Y-68807976D01*
X189820760Y-68686691D01*
X189555919Y-68781530D01*
X189314669Y-68926215D01*
X189106281Y-69115186D01*
X188938763Y-69341180D01*
X188818554Y-69595513D01*
X188777896Y-69729561D01*
X181403485Y-69729561D01*
X181389653Y-69660026D01*
X181281480Y-69398873D01*
X181124437Y-69163841D01*
X180924559Y-68963963D01*
X180689527Y-68806920D01*
X180428374Y-68698747D01*
X180151135Y-68643600D01*
X179868465Y-68643600D01*
X179591226Y-68698747D01*
X179330073Y-68806920D01*
X179095041Y-68963963D01*
X178895163Y-69163841D01*
X178738120Y-69398873D01*
X178629947Y-69660026D01*
X178574800Y-69937265D01*
X168300000Y-69937265D01*
X168300000Y-66306312D01*
X198622893Y-66306312D01*
X198730726Y-66580938D01*
X199037384Y-66731816D01*
X199367585Y-66819969D01*
X199708639Y-66842009D01*
X200047439Y-66797089D01*
X200370966Y-66686936D01*
X200569274Y-66580938D01*
X200677107Y-66306312D01*
X203652093Y-66306312D01*
X203759926Y-66580938D01*
X204066584Y-66731816D01*
X204396785Y-66819969D01*
X204737839Y-66842009D01*
X205076639Y-66797089D01*
X205400166Y-66686936D01*
X205598474Y-66580938D01*
X205706307Y-66306312D01*
X204679200Y-65279205D01*
X203652093Y-66306312D01*
X200677107Y-66306312D01*
X199650000Y-65279205D01*
X198622893Y-66306312D01*
X168300000Y-66306312D01*
X168300000Y-65158239D01*
X197907591Y-65158239D01*
X197952511Y-65497039D01*
X198062664Y-65820566D01*
X198168662Y-66018874D01*
X198443288Y-66126707D01*
X199470395Y-65099600D01*
X199829605Y-65099600D01*
X200856712Y-66126707D01*
X201131338Y-66018874D01*
X201282216Y-65712216D01*
X201370369Y-65382015D01*
X201384830Y-65158239D01*
X202936791Y-65158239D01*
X202981711Y-65497039D01*
X203091864Y-65820566D01*
X203197862Y-66018874D01*
X203472488Y-66126707D01*
X204499595Y-65099600D01*
X204858805Y-65099600D01*
X205885912Y-66126707D01*
X206160538Y-66018874D01*
X206311416Y-65712216D01*
X206399569Y-65382015D01*
X206421609Y-65040961D01*
X206376689Y-64702161D01*
X206266536Y-64378634D01*
X206160538Y-64180326D01*
X205885912Y-64072493D01*
X204858805Y-65099600D01*
X204499595Y-65099600D01*
X203472488Y-64072493D01*
X203197862Y-64180326D01*
X203046984Y-64486984D01*
X202958831Y-64817185D01*
X202936791Y-65158239D01*
X201384830Y-65158239D01*
X201392409Y-65040961D01*
X201347489Y-64702161D01*
X201237336Y-64378634D01*
X201131338Y-64180326D01*
X200856712Y-64072493D01*
X199829605Y-65099600D01*
X199470395Y-65099600D01*
X198443288Y-64072493D01*
X198168662Y-64180326D01*
X198017784Y-64486984D01*
X197929631Y-64817185D01*
X197907591Y-65158239D01*
X168300000Y-65158239D01*
X168300000Y-63892888D01*
X198622893Y-63892888D01*
X199650000Y-64919995D01*
X200677107Y-63892888D01*
X203652093Y-63892888D01*
X204679200Y-64919995D01*
X205706307Y-63892888D01*
X205598474Y-63618262D01*
X205291816Y-63467384D01*
X204961615Y-63379231D01*
X204620561Y-63357191D01*
X204281761Y-63402111D01*
X203958234Y-63512264D01*
X203759926Y-63618262D01*
X203652093Y-63892888D01*
X200677107Y-63892888D01*
X200569274Y-63618262D01*
X200262616Y-63467384D01*
X199932415Y-63379231D01*
X199591361Y-63357191D01*
X199252561Y-63402111D01*
X198929034Y-63512264D01*
X198730726Y-63618262D01*
X198622893Y-63892888D01*
X168300000Y-63892888D01*
X168300000Y-59723872D01*
X169977000Y-59723872D01*
X169977000Y-60164128D01*
X170062890Y-60595925D01*
X170231369Y-61002669D01*
X170475962Y-61368729D01*
X170787271Y-61680038D01*
X171153331Y-61924631D01*
X171560075Y-62093110D01*
X171991872Y-62179000D01*
X172432128Y-62179000D01*
X172863925Y-62093110D01*
X173270669Y-61924631D01*
X173636729Y-61680038D01*
X173948038Y-61368729D01*
X174192631Y-61002669D01*
X174361110Y-60595925D01*
X174447000Y-60164128D01*
X174447000Y-59723872D01*
X211633000Y-59723872D01*
X211633000Y-60164128D01*
X211718890Y-60595925D01*
X211887369Y-61002669D01*
X212131962Y-61368729D01*
X212443271Y-61680038D01*
X212809331Y-61924631D01*
X213216075Y-62093110D01*
X213647872Y-62179000D01*
X214088128Y-62179000D01*
X214519925Y-62093110D01*
X214926669Y-61924631D01*
X215292729Y-61680038D01*
X215604038Y-61368729D01*
X215848631Y-61002669D01*
X216017110Y-60595925D01*
X216103000Y-60164128D01*
X216103000Y-59723872D01*
X216017110Y-59292075D01*
X215848631Y-58885331D01*
X215604038Y-58519271D01*
X215292729Y-58207962D01*
X214926669Y-57963369D01*
X214519925Y-57794890D01*
X214088128Y-57709000D01*
X213647872Y-57709000D01*
X213216075Y-57794890D01*
X212809331Y-57963369D01*
X212443271Y-58207962D01*
X212131962Y-58519271D01*
X211887369Y-58885331D01*
X211718890Y-59292075D01*
X211633000Y-59723872D01*
X174447000Y-59723872D01*
X174361110Y-59292075D01*
X174192631Y-58885331D01*
X173948038Y-58519271D01*
X173636729Y-58207962D01*
X173270669Y-57963369D01*
X172863925Y-57794890D01*
X172432128Y-57709000D01*
X171991872Y-57709000D01*
X171560075Y-57794890D01*
X171153331Y-57963369D01*
X170787271Y-58207962D01*
X170475962Y-58519271D01*
X170231369Y-58885331D01*
X170062890Y-59292075D01*
X169977000Y-59723872D01*
X168300000Y-59723872D01*
X168300000Y-56530000D01*
X217769838Y-56530000D01*
X217760163Y-95849871D01*
G37*
X217760163Y-95849871D02*
X168300000Y-95840130D01*
X168300000Y-92235872D01*
X169977000Y-92235872D01*
X169977000Y-92676128D01*
X170062890Y-93107925D01*
X170231369Y-93514669D01*
X170475962Y-93880729D01*
X170787271Y-94192038D01*
X171153331Y-94436631D01*
X171560075Y-94605110D01*
X171991872Y-94691000D01*
X172432128Y-94691000D01*
X172863925Y-94605110D01*
X173270669Y-94436631D01*
X173636729Y-94192038D01*
X173948038Y-93880729D01*
X174192631Y-93514669D01*
X174361110Y-93107925D01*
X174447000Y-92676128D01*
X174447000Y-92235872D01*
X211633000Y-92235872D01*
X211633000Y-92676128D01*
X211718890Y-93107925D01*
X211887369Y-93514669D01*
X212131962Y-93880729D01*
X212443271Y-94192038D01*
X212809331Y-94436631D01*
X213216075Y-94605110D01*
X213647872Y-94691000D01*
X214088128Y-94691000D01*
X214519925Y-94605110D01*
X214926669Y-94436631D01*
X215292729Y-94192038D01*
X215604038Y-93880729D01*
X215848631Y-93514669D01*
X216017110Y-93107925D01*
X216103000Y-92676128D01*
X216103000Y-92235872D01*
X216017110Y-91804075D01*
X215848631Y-91397331D01*
X215604038Y-91031271D01*
X215292729Y-90719962D01*
X214926669Y-90475369D01*
X214519925Y-90306890D01*
X214088128Y-90221000D01*
X213647872Y-90221000D01*
X213216075Y-90306890D01*
X212809331Y-90475369D01*
X212443271Y-90719962D01*
X212131962Y-91031271D01*
X211887369Y-91397331D01*
X211718890Y-91804075D01*
X211633000Y-92235872D01*
X174447000Y-92235872D01*
X174361110Y-91804075D01*
X174192631Y-91397331D01*
X173948038Y-91031271D01*
X173636729Y-90719962D01*
X173270669Y-90475369D01*
X172863925Y-90306890D01*
X172432128Y-90221000D01*
X171991872Y-90221000D01*
X171560075Y-90306890D01*
X171153331Y-90475369D01*
X170787271Y-90719962D01*
X170475962Y-91031271D01*
X170231369Y-91397331D01*
X170062890Y-91804075D01*
X169977000Y-92235872D01*
X168300000Y-92235872D01*
X168300000Y-89559117D01*
X197875000Y-89559117D01*
X197875000Y-89900883D01*
X197941675Y-90236081D01*
X198072463Y-90551831D01*
X198262337Y-90835998D01*
X198504002Y-91077663D01*
X198788169Y-91267537D01*
X199103919Y-91398325D01*
X199439117Y-91465000D01*
X199780883Y-91465000D01*
X200116081Y-91398325D01*
X200431831Y-91267537D01*
X200715998Y-91077663D01*
X200957663Y-90835998D01*
X201147537Y-90551831D01*
X201278325Y-90236081D01*
X201345000Y-89900883D01*
X201345000Y-89559117D01*
X202904200Y-89559117D01*
X202904200Y-89900883D01*
X202970875Y-90236081D01*
X203101663Y-90551831D01*
X203291537Y-90835998D01*
X203533202Y-91077663D01*
X203817369Y-91267537D01*
X204133119Y-91398325D01*
X204468317Y-91465000D01*
X204810083Y-91465000D01*
X205145281Y-91398325D01*
X205461031Y-91267537D01*
X205745198Y-91077663D01*
X205986863Y-90835998D01*
X206176737Y-90551831D01*
X206307525Y-90236081D01*
X206374200Y-89900883D01*
X206374200Y-89559117D01*
X206307525Y-89223919D01*
X206176737Y-88908169D01*
X205986863Y-88624002D01*
X205745198Y-88382337D01*
X205461031Y-88192463D01*
X205145281Y-88061675D01*
X204810083Y-87995000D01*
X204468317Y-87995000D01*
X204133119Y-88061675D01*
X203817369Y-88192463D01*
X203533202Y-88382337D01*
X203291537Y-88624002D01*
X203101663Y-88908169D01*
X202970875Y-89223919D01*
X202904200Y-89559117D01*
X201345000Y-89559117D01*
X201278325Y-89223919D01*
X201147537Y-88908169D01*
X200957663Y-88624002D01*
X200715998Y-88382337D01*
X200431831Y-88192463D01*
X200116081Y-88061675D01*
X199780883Y-87995000D01*
X199439117Y-87995000D01*
X199103919Y-88061675D01*
X198788169Y-88192463D01*
X198504002Y-88382337D01*
X198262337Y-88624002D01*
X198072463Y-88908169D01*
X197941675Y-89223919D01*
X197875000Y-89559117D01*
X168300000Y-89559117D01*
X168300000Y-83081765D01*
X178460500Y-83081765D01*
X178460500Y-83364435D01*
X178515647Y-83641674D01*
X178623820Y-83902827D01*
X178780863Y-84137859D01*
X178980741Y-84337737D01*
X179215773Y-84494780D01*
X179476926Y-84602953D01*
X179754165Y-84658100D01*
X180036835Y-84658100D01*
X180314074Y-84602953D01*
X180575227Y-84494780D01*
X180810259Y-84337737D01*
X181010137Y-84137859D01*
X181167180Y-83902827D01*
X181275353Y-83641674D01*
X181289184Y-83572139D01*
X188663596Y-83572139D01*
X188704254Y-83706187D01*
X188824463Y-83960520D01*
X188991981Y-84186514D01*
X189200369Y-84375485D01*
X189441619Y-84520170D01*
X189706460Y-84615009D01*
X189928500Y-84493724D01*
X189928500Y-83350100D01*
X190182500Y-83350100D01*
X190182500Y-84493724D01*
X190404540Y-84615009D01*
X190669381Y-84520170D01*
X190910631Y-84375485D01*
X191119019Y-84186514D01*
X191286537Y-83960520D01*
X191406746Y-83706187D01*
X191447404Y-83572139D01*
X191325415Y-83350100D01*
X190182500Y-83350100D01*
X189928500Y-83350100D01*
X188785585Y-83350100D01*
X188663596Y-83572139D01*
X181289184Y-83572139D01*
X181330500Y-83364435D01*
X181330500Y-83081765D01*
X181289185Y-82874061D01*
X188663596Y-82874061D01*
X188785585Y-83096100D01*
X189928500Y-83096100D01*
X189928500Y-81952476D01*
X190182500Y-81952476D01*
X190182500Y-83096100D01*
X191325415Y-83096100D01*
X191447404Y-82874061D01*
X191406746Y-82740013D01*
X191316332Y-82548717D01*
X197875000Y-82548717D01*
X197875000Y-82890483D01*
X197941675Y-83225681D01*
X198072463Y-83541431D01*
X198262337Y-83825598D01*
X198504002Y-84067263D01*
X198788169Y-84257137D01*
X199103919Y-84387925D01*
X199439117Y-84454600D01*
X199780883Y-84454600D01*
X200116081Y-84387925D01*
X200431831Y-84257137D01*
X200715998Y-84067263D01*
X200957663Y-83825598D01*
X201147537Y-83541431D01*
X201278325Y-83225681D01*
X201345000Y-82890483D01*
X201345000Y-82548717D01*
X202904200Y-82548717D01*
X202904200Y-82890483D01*
X202970875Y-83225681D01*
X203101663Y-83541431D01*
X203291537Y-83825598D01*
X203533202Y-84067263D01*
X203817369Y-84257137D01*
X204133119Y-84387925D01*
X204468317Y-84454600D01*
X204810083Y-84454600D01*
X205145281Y-84387925D01*
X205461031Y-84257137D01*
X205745198Y-84067263D01*
X205986863Y-83825598D01*
X206176737Y-83541431D01*
X206307525Y-83225681D01*
X206374200Y-82890483D01*
X206374200Y-82548717D01*
X206307525Y-82213519D01*
X206176737Y-81897769D01*
X205986863Y-81613602D01*
X205745198Y-81371937D01*
X205461031Y-81182063D01*
X205145281Y-81051275D01*
X204810083Y-80984600D01*
X204468317Y-80984600D01*
X204133119Y-81051275D01*
X203817369Y-81182063D01*
X203533202Y-81371937D01*
X203291537Y-81613602D01*
X203101663Y-81897769D01*
X202970875Y-82213519D01*
X202904200Y-82548717D01*
X201345000Y-82548717D01*
X201278325Y-82213519D01*
X201147537Y-81897769D01*
X200957663Y-81613602D01*
X200715998Y-81371937D01*
X200431831Y-81182063D01*
X200116081Y-81051275D01*
X199780883Y-80984600D01*
X199439117Y-80984600D01*
X199103919Y-81051275D01*
X198788169Y-81182063D01*
X198504002Y-81371937D01*
X198262337Y-81613602D01*
X198072463Y-81897769D01*
X197941675Y-82213519D01*
X197875000Y-82548717D01*
X191316332Y-82548717D01*
X191286537Y-82485680D01*
X191119019Y-82259686D01*
X190910631Y-82070715D01*
X190669381Y-81926030D01*
X190404540Y-81831191D01*
X190182500Y-81952476D01*
X189928500Y-81952476D01*
X189706460Y-81831191D01*
X189441619Y-81926030D01*
X189200369Y-82070715D01*
X188991981Y-82259686D01*
X188824463Y-82485680D01*
X188704254Y-82740013D01*
X188663596Y-82874061D01*
X181289185Y-82874061D01*
X181275353Y-82804526D01*
X181167180Y-82543373D01*
X181010137Y-82308341D01*
X180810259Y-82108463D01*
X180575227Y-81951420D01*
X180314074Y-81843247D01*
X180036835Y-81788100D01*
X179754165Y-81788100D01*
X179476926Y-81843247D01*
X179215773Y-81951420D01*
X178980741Y-82108463D01*
X178780863Y-82308341D01*
X178623820Y-82543373D01*
X178515647Y-82804526D01*
X178460500Y-83081765D01*
X168300000Y-83081765D01*
X168300000Y-80779117D01*
X208465000Y-80779117D01*
X208465000Y-81120883D01*
X208531675Y-81456081D01*
X208662463Y-81771831D01*
X208852337Y-82055998D01*
X209094002Y-82297663D01*
X209378169Y-82487537D01*
X209693919Y-82618325D01*
X210029117Y-82685000D01*
X210370883Y-82685000D01*
X210706081Y-82618325D01*
X211021831Y-82487537D01*
X211305998Y-82297663D01*
X211547663Y-82055998D01*
X211737537Y-81771831D01*
X211868325Y-81456081D01*
X211935000Y-81120883D01*
X211935000Y-80779117D01*
X213494200Y-80779117D01*
X213494200Y-81120883D01*
X213560875Y-81456081D01*
X213691663Y-81771831D01*
X213881537Y-82055998D01*
X214123202Y-82297663D01*
X214407369Y-82487537D01*
X214723119Y-82618325D01*
X215058317Y-82685000D01*
X215400083Y-82685000D01*
X215735281Y-82618325D01*
X216051031Y-82487537D01*
X216335198Y-82297663D01*
X216576863Y-82055998D01*
X216766737Y-81771831D01*
X216897525Y-81456081D01*
X216964200Y-81120883D01*
X216964200Y-80779117D01*
X216897525Y-80443919D01*
X216766737Y-80128169D01*
X216576863Y-79844002D01*
X216335198Y-79602337D01*
X216051031Y-79412463D01*
X215735281Y-79281675D01*
X215400083Y-79215000D01*
X215058317Y-79215000D01*
X214723119Y-79281675D01*
X214407369Y-79412463D01*
X214123202Y-79602337D01*
X213881537Y-79844002D01*
X213691663Y-80128169D01*
X213560875Y-80443919D01*
X213494200Y-80779117D01*
X211935000Y-80779117D01*
X211868325Y-80443919D01*
X211737537Y-80128169D01*
X211547663Y-79844002D01*
X211305998Y-79602337D01*
X211021831Y-79412463D01*
X210706081Y-79281675D01*
X210370883Y-79215000D01*
X210029117Y-79215000D01*
X209693919Y-79281675D01*
X209378169Y-79412463D01*
X209094002Y-79602337D01*
X208852337Y-79844002D01*
X208662463Y-80128169D01*
X208531675Y-80443919D01*
X208465000Y-80779117D01*
X168300000Y-80779117D01*
X168300000Y-74490000D01*
X190917773Y-74490000D01*
X190946614Y-74782826D01*
X191032028Y-75064399D01*
X191170733Y-75323898D01*
X191357399Y-75551351D01*
X191459326Y-75635000D01*
X191357399Y-75718649D01*
X191170733Y-75946102D01*
X191032028Y-76205601D01*
X190946614Y-76487174D01*
X190917773Y-76780000D01*
X190946614Y-77072826D01*
X191032028Y-77354399D01*
X191170733Y-77613898D01*
X191219450Y-77673260D01*
X191205506Y-77680713D01*
X191108815Y-77760065D01*
X191029463Y-77856756D01*
X190970498Y-77967070D01*
X190934188Y-78086768D01*
X190921928Y-78211250D01*
X190921928Y-79928750D01*
X190934188Y-80053232D01*
X190970498Y-80172930D01*
X191029463Y-80283244D01*
X191108815Y-80379935D01*
X191205506Y-80459287D01*
X191315820Y-80518252D01*
X191435518Y-80554562D01*
X191560000Y-80566822D01*
X193360000Y-80566822D01*
X193484482Y-80554562D01*
X193604180Y-80518252D01*
X193714494Y-80459287D01*
X193811185Y-80379935D01*
X193890537Y-80283244D01*
X193949502Y-80172930D01*
X193985812Y-80053232D01*
X193998072Y-79928750D01*
X193998072Y-78211250D01*
X193985812Y-78086768D01*
X193949502Y-77967070D01*
X193890537Y-77856756D01*
X193811185Y-77760065D01*
X193714494Y-77680713D01*
X193700550Y-77673260D01*
X193749267Y-77613898D01*
X193887972Y-77354399D01*
X193973386Y-77072826D01*
X194002227Y-76780000D01*
X193973386Y-76487174D01*
X193887972Y-76205601D01*
X193749267Y-75946102D01*
X193562601Y-75718649D01*
X193460674Y-75635000D01*
X193562601Y-75551351D01*
X193749267Y-75323898D01*
X193887972Y-75064399D01*
X193973386Y-74782826D01*
X194002227Y-74490000D01*
X193973386Y-74197174D01*
X193887972Y-73915601D01*
X193749267Y-73656102D01*
X193562601Y-73428649D01*
X193426206Y-73316712D01*
X198622893Y-73316712D01*
X198730726Y-73591338D01*
X199037384Y-73742216D01*
X199367585Y-73830369D01*
X199708639Y-73852409D01*
X200047439Y-73807489D01*
X200370966Y-73697336D01*
X200569274Y-73591338D01*
X200677107Y-73316712D01*
X203652093Y-73316712D01*
X203759926Y-73591338D01*
X204066584Y-73742216D01*
X204396785Y-73830369D01*
X204737839Y-73852409D01*
X205076639Y-73807489D01*
X205190515Y-73768717D01*
X208465000Y-73768717D01*
X208465000Y-74110483D01*
X208531675Y-74445681D01*
X208662463Y-74761431D01*
X208852337Y-75045598D01*
X209094002Y-75287263D01*
X209378169Y-75477137D01*
X209693919Y-75607925D01*
X210029117Y-75674600D01*
X210370883Y-75674600D01*
X210706081Y-75607925D01*
X211021831Y-75477137D01*
X211305998Y-75287263D01*
X211547663Y-75045598D01*
X211737537Y-74761431D01*
X211868325Y-74445681D01*
X211935000Y-74110483D01*
X211935000Y-73768717D01*
X213494200Y-73768717D01*
X213494200Y-74110483D01*
X213560875Y-74445681D01*
X213691663Y-74761431D01*
X213881537Y-75045598D01*
X214123202Y-75287263D01*
X214407369Y-75477137D01*
X214723119Y-75607925D01*
X215058317Y-75674600D01*
X215400083Y-75674600D01*
X215735281Y-75607925D01*
X216051031Y-75477137D01*
X216335198Y-75287263D01*
X216576863Y-75045598D01*
X216766737Y-74761431D01*
X216897525Y-74445681D01*
X216964200Y-74110483D01*
X216964200Y-73768717D01*
X216897525Y-73433519D01*
X216766737Y-73117769D01*
X216576863Y-72833602D01*
X216335198Y-72591937D01*
X216051031Y-72402063D01*
X215735281Y-72271275D01*
X215400083Y-72204600D01*
X215058317Y-72204600D01*
X214723119Y-72271275D01*
X214407369Y-72402063D01*
X214123202Y-72591937D01*
X213881537Y-72833602D01*
X213691663Y-73117769D01*
X213560875Y-73433519D01*
X213494200Y-73768717D01*
X211935000Y-73768717D01*
X211868325Y-73433519D01*
X211737537Y-73117769D01*
X211547663Y-72833602D01*
X211305998Y-72591937D01*
X211021831Y-72402063D01*
X210706081Y-72271275D01*
X210370883Y-72204600D01*
X210029117Y-72204600D01*
X209693919Y-72271275D01*
X209378169Y-72402063D01*
X209094002Y-72591937D01*
X208852337Y-72833602D01*
X208662463Y-73117769D01*
X208531675Y-73433519D01*
X208465000Y-73768717D01*
X205190515Y-73768717D01*
X205400166Y-73697336D01*
X205598474Y-73591338D01*
X205706307Y-73316712D01*
X204679200Y-72289605D01*
X203652093Y-73316712D01*
X200677107Y-73316712D01*
X199650000Y-72289605D01*
X198622893Y-73316712D01*
X193426206Y-73316712D01*
X193335148Y-73241983D01*
X193075649Y-73103278D01*
X192794076Y-73017864D01*
X192574627Y-72996250D01*
X192345373Y-72996250D01*
X192125924Y-73017864D01*
X191844351Y-73103278D01*
X191584852Y-73241983D01*
X191357399Y-73428649D01*
X191170733Y-73656102D01*
X191032028Y-73915601D01*
X190946614Y-74197174D01*
X190917773Y-74490000D01*
X168300000Y-74490000D01*
X168300000Y-72168639D01*
X197907591Y-72168639D01*
X197952511Y-72507439D01*
X198062664Y-72830966D01*
X198168662Y-73029274D01*
X198443288Y-73137107D01*
X199470395Y-72110000D01*
X199829605Y-72110000D01*
X200856712Y-73137107D01*
X201131338Y-73029274D01*
X201282216Y-72722616D01*
X201370369Y-72392415D01*
X201384830Y-72168639D01*
X202936791Y-72168639D01*
X202981711Y-72507439D01*
X203091864Y-72830966D01*
X203197862Y-73029274D01*
X203472488Y-73137107D01*
X204499595Y-72110000D01*
X204858805Y-72110000D01*
X205885912Y-73137107D01*
X206160538Y-73029274D01*
X206311416Y-72722616D01*
X206399569Y-72392415D01*
X206421609Y-72051361D01*
X206376689Y-71712561D01*
X206266536Y-71389034D01*
X206160538Y-71190726D01*
X205885912Y-71082893D01*
X204858805Y-72110000D01*
X204499595Y-72110000D01*
X203472488Y-71082893D01*
X203197862Y-71190726D01*
X203046984Y-71497384D01*
X202958831Y-71827585D01*
X202936791Y-72168639D01*
X201384830Y-72168639D01*
X201392409Y-72051361D01*
X201347489Y-71712561D01*
X201237336Y-71389034D01*
X201131338Y-71190726D01*
X200856712Y-71082893D01*
X199829605Y-72110000D01*
X199470395Y-72110000D01*
X198443288Y-71082893D01*
X198168662Y-71190726D01*
X198017784Y-71497384D01*
X197929631Y-71827585D01*
X197907591Y-72168639D01*
X168300000Y-72168639D01*
X168300000Y-69937265D01*
X178574800Y-69937265D01*
X178574800Y-70219935D01*
X178629947Y-70497174D01*
X178738120Y-70758327D01*
X178895163Y-70993359D01*
X179095041Y-71193237D01*
X179330073Y-71350280D01*
X179591226Y-71458453D01*
X179868465Y-71513600D01*
X180151135Y-71513600D01*
X180428374Y-71458453D01*
X180689527Y-71350280D01*
X180924559Y-71193237D01*
X181124437Y-70993359D01*
X181281480Y-70758327D01*
X181389653Y-70497174D01*
X181403484Y-70427639D01*
X188777896Y-70427639D01*
X188818554Y-70561687D01*
X188938763Y-70816020D01*
X189106281Y-71042014D01*
X189314669Y-71230985D01*
X189555919Y-71375670D01*
X189820760Y-71470509D01*
X190042800Y-71349224D01*
X190042800Y-70205600D01*
X190296800Y-70205600D01*
X190296800Y-71349224D01*
X190518840Y-71470509D01*
X190783681Y-71375670D01*
X191024931Y-71230985D01*
X191233319Y-71042014D01*
X191336149Y-70903288D01*
X198622893Y-70903288D01*
X199650000Y-71930395D01*
X200677107Y-70903288D01*
X203652093Y-70903288D01*
X204679200Y-71930395D01*
X205706307Y-70903288D01*
X205598474Y-70628662D01*
X205291816Y-70477784D01*
X204961615Y-70389631D01*
X204620561Y-70367591D01*
X204281761Y-70412511D01*
X203958234Y-70522664D01*
X203759926Y-70628662D01*
X203652093Y-70903288D01*
X200677107Y-70903288D01*
X200569274Y-70628662D01*
X200262616Y-70477784D01*
X199932415Y-70389631D01*
X199591361Y-70367591D01*
X199252561Y-70412511D01*
X198929034Y-70522664D01*
X198730726Y-70628662D01*
X198622893Y-70903288D01*
X191336149Y-70903288D01*
X191400837Y-70816020D01*
X191521046Y-70561687D01*
X191561704Y-70427639D01*
X191439715Y-70205600D01*
X190296800Y-70205600D01*
X190042800Y-70205600D01*
X188899885Y-70205600D01*
X188777896Y-70427639D01*
X181403484Y-70427639D01*
X181444800Y-70219935D01*
X181444800Y-69937265D01*
X181403485Y-69729561D01*
X188777896Y-69729561D01*
X188899885Y-69951600D01*
X190042800Y-69951600D01*
X190042800Y-68807976D01*
X190296800Y-68807976D01*
X190296800Y-69951600D01*
X191439715Y-69951600D01*
X191561704Y-69729561D01*
X191521046Y-69595513D01*
X191400837Y-69341180D01*
X191233319Y-69115186D01*
X191024931Y-68926215D01*
X190783681Y-68781530D01*
X190518840Y-68686691D01*
X190296800Y-68807976D01*
X190042800Y-68807976D01*
X189820760Y-68686691D01*
X189555919Y-68781530D01*
X189314669Y-68926215D01*
X189106281Y-69115186D01*
X188938763Y-69341180D01*
X188818554Y-69595513D01*
X188777896Y-69729561D01*
X181403485Y-69729561D01*
X181389653Y-69660026D01*
X181281480Y-69398873D01*
X181124437Y-69163841D01*
X180924559Y-68963963D01*
X180689527Y-68806920D01*
X180428374Y-68698747D01*
X180151135Y-68643600D01*
X179868465Y-68643600D01*
X179591226Y-68698747D01*
X179330073Y-68806920D01*
X179095041Y-68963963D01*
X178895163Y-69163841D01*
X178738120Y-69398873D01*
X178629947Y-69660026D01*
X178574800Y-69937265D01*
X168300000Y-69937265D01*
X168300000Y-66306312D01*
X198622893Y-66306312D01*
X198730726Y-66580938D01*
X199037384Y-66731816D01*
X199367585Y-66819969D01*
X199708639Y-66842009D01*
X200047439Y-66797089D01*
X200370966Y-66686936D01*
X200569274Y-66580938D01*
X200677107Y-66306312D01*
X203652093Y-66306312D01*
X203759926Y-66580938D01*
X204066584Y-66731816D01*
X204396785Y-66819969D01*
X204737839Y-66842009D01*
X205076639Y-66797089D01*
X205400166Y-66686936D01*
X205598474Y-66580938D01*
X205706307Y-66306312D01*
X204679200Y-65279205D01*
X203652093Y-66306312D01*
X200677107Y-66306312D01*
X199650000Y-65279205D01*
X198622893Y-66306312D01*
X168300000Y-66306312D01*
X168300000Y-65158239D01*
X197907591Y-65158239D01*
X197952511Y-65497039D01*
X198062664Y-65820566D01*
X198168662Y-66018874D01*
X198443288Y-66126707D01*
X199470395Y-65099600D01*
X199829605Y-65099600D01*
X200856712Y-66126707D01*
X201131338Y-66018874D01*
X201282216Y-65712216D01*
X201370369Y-65382015D01*
X201384830Y-65158239D01*
X202936791Y-65158239D01*
X202981711Y-65497039D01*
X203091864Y-65820566D01*
X203197862Y-66018874D01*
X203472488Y-66126707D01*
X204499595Y-65099600D01*
X204858805Y-65099600D01*
X205885912Y-66126707D01*
X206160538Y-66018874D01*
X206311416Y-65712216D01*
X206399569Y-65382015D01*
X206421609Y-65040961D01*
X206376689Y-64702161D01*
X206266536Y-64378634D01*
X206160538Y-64180326D01*
X205885912Y-64072493D01*
X204858805Y-65099600D01*
X204499595Y-65099600D01*
X203472488Y-64072493D01*
X203197862Y-64180326D01*
X203046984Y-64486984D01*
X202958831Y-64817185D01*
X202936791Y-65158239D01*
X201384830Y-65158239D01*
X201392409Y-65040961D01*
X201347489Y-64702161D01*
X201237336Y-64378634D01*
X201131338Y-64180326D01*
X200856712Y-64072493D01*
X199829605Y-65099600D01*
X199470395Y-65099600D01*
X198443288Y-64072493D01*
X198168662Y-64180326D01*
X198017784Y-64486984D01*
X197929631Y-64817185D01*
X197907591Y-65158239D01*
X168300000Y-65158239D01*
X168300000Y-63892888D01*
X198622893Y-63892888D01*
X199650000Y-64919995D01*
X200677107Y-63892888D01*
X203652093Y-63892888D01*
X204679200Y-64919995D01*
X205706307Y-63892888D01*
X205598474Y-63618262D01*
X205291816Y-63467384D01*
X204961615Y-63379231D01*
X204620561Y-63357191D01*
X204281761Y-63402111D01*
X203958234Y-63512264D01*
X203759926Y-63618262D01*
X203652093Y-63892888D01*
X200677107Y-63892888D01*
X200569274Y-63618262D01*
X200262616Y-63467384D01*
X199932415Y-63379231D01*
X199591361Y-63357191D01*
X199252561Y-63402111D01*
X198929034Y-63512264D01*
X198730726Y-63618262D01*
X198622893Y-63892888D01*
X168300000Y-63892888D01*
X168300000Y-59723872D01*
X169977000Y-59723872D01*
X169977000Y-60164128D01*
X170062890Y-60595925D01*
X170231369Y-61002669D01*
X170475962Y-61368729D01*
X170787271Y-61680038D01*
X171153331Y-61924631D01*
X171560075Y-62093110D01*
X171991872Y-62179000D01*
X172432128Y-62179000D01*
X172863925Y-62093110D01*
X173270669Y-61924631D01*
X173636729Y-61680038D01*
X173948038Y-61368729D01*
X174192631Y-61002669D01*
X174361110Y-60595925D01*
X174447000Y-60164128D01*
X174447000Y-59723872D01*
X211633000Y-59723872D01*
X211633000Y-60164128D01*
X211718890Y-60595925D01*
X211887369Y-61002669D01*
X212131962Y-61368729D01*
X212443271Y-61680038D01*
X212809331Y-61924631D01*
X213216075Y-62093110D01*
X213647872Y-62179000D01*
X214088128Y-62179000D01*
X214519925Y-62093110D01*
X214926669Y-61924631D01*
X215292729Y-61680038D01*
X215604038Y-61368729D01*
X215848631Y-61002669D01*
X216017110Y-60595925D01*
X216103000Y-60164128D01*
X216103000Y-59723872D01*
X216017110Y-59292075D01*
X215848631Y-58885331D01*
X215604038Y-58519271D01*
X215292729Y-58207962D01*
X214926669Y-57963369D01*
X214519925Y-57794890D01*
X214088128Y-57709000D01*
X213647872Y-57709000D01*
X213216075Y-57794890D01*
X212809331Y-57963369D01*
X212443271Y-58207962D01*
X212131962Y-58519271D01*
X211887369Y-58885331D01*
X211718890Y-59292075D01*
X211633000Y-59723872D01*
X174447000Y-59723872D01*
X174361110Y-59292075D01*
X174192631Y-58885331D01*
X173948038Y-58519271D01*
X173636729Y-58207962D01*
X173270669Y-57963369D01*
X172863925Y-57794890D01*
X172432128Y-57709000D01*
X171991872Y-57709000D01*
X171560075Y-57794890D01*
X171153331Y-57963369D01*
X170787271Y-58207962D01*
X170475962Y-58519271D01*
X170231369Y-58885331D01*
X170062890Y-59292075D01*
X169977000Y-59723872D01*
X168300000Y-59723872D01*
X168300000Y-56530000D01*
X217769838Y-56530000D01*
X217760163Y-95849871D01*
G36*
X217760163Y-95849871D02*
G01*
X168300000Y-95840130D01*
X168300000Y-92235872D01*
X169977000Y-92235872D01*
X169977000Y-92676128D01*
X170062890Y-93107925D01*
X170231369Y-93514669D01*
X170475962Y-93880729D01*
X170787271Y-94192038D01*
X171153331Y-94436631D01*
X171560075Y-94605110D01*
X171991872Y-94691000D01*
X172432128Y-94691000D01*
X172863925Y-94605110D01*
X173270669Y-94436631D01*
X173636729Y-94192038D01*
X173948038Y-93880729D01*
X174192631Y-93514669D01*
X174361110Y-93107925D01*
X174447000Y-92676128D01*
X174447000Y-92235872D01*
X211633000Y-92235872D01*
X211633000Y-92676128D01*
X211718890Y-93107925D01*
X211887369Y-93514669D01*
X212131962Y-93880729D01*
X212443271Y-94192038D01*
X212809331Y-94436631D01*
X213216075Y-94605110D01*
X213647872Y-94691000D01*
X214088128Y-94691000D01*
X214519925Y-94605110D01*
X214926669Y-94436631D01*
X215292729Y-94192038D01*
X215604038Y-93880729D01*
X215848631Y-93514669D01*
X216017110Y-93107925D01*
X216103000Y-92676128D01*
X216103000Y-92235872D01*
X216017110Y-91804075D01*
X215848631Y-91397331D01*
X215604038Y-91031271D01*
X215292729Y-90719962D01*
X214926669Y-90475369D01*
X214519925Y-90306890D01*
X214088128Y-90221000D01*
X213647872Y-90221000D01*
X213216075Y-90306890D01*
X212809331Y-90475369D01*
X212443271Y-90719962D01*
X212131962Y-91031271D01*
X211887369Y-91397331D01*
X211718890Y-91804075D01*
X211633000Y-92235872D01*
X174447000Y-92235872D01*
X174361110Y-91804075D01*
X174192631Y-91397331D01*
X173948038Y-91031271D01*
X173636729Y-90719962D01*
X173270669Y-90475369D01*
X172863925Y-90306890D01*
X172432128Y-90221000D01*
X171991872Y-90221000D01*
X171560075Y-90306890D01*
X171153331Y-90475369D01*
X170787271Y-90719962D01*
X170475962Y-91031271D01*
X170231369Y-91397331D01*
X170062890Y-91804075D01*
X169977000Y-92235872D01*
X168300000Y-92235872D01*
X168300000Y-89559117D01*
X197875000Y-89559117D01*
X197875000Y-89900883D01*
X197941675Y-90236081D01*
X198072463Y-90551831D01*
X198262337Y-90835998D01*
X198504002Y-91077663D01*
X198788169Y-91267537D01*
X199103919Y-91398325D01*
X199439117Y-91465000D01*
X199780883Y-91465000D01*
X200116081Y-91398325D01*
X200431831Y-91267537D01*
X200715998Y-91077663D01*
X200957663Y-90835998D01*
X201147537Y-90551831D01*
X201278325Y-90236081D01*
X201345000Y-89900883D01*
X201345000Y-89559117D01*
X202904200Y-89559117D01*
X202904200Y-89900883D01*
X202970875Y-90236081D01*
X203101663Y-90551831D01*
X203291537Y-90835998D01*
X203533202Y-91077663D01*
X203817369Y-91267537D01*
X204133119Y-91398325D01*
X204468317Y-91465000D01*
X204810083Y-91465000D01*
X205145281Y-91398325D01*
X205461031Y-91267537D01*
X205745198Y-91077663D01*
X205986863Y-90835998D01*
X206176737Y-90551831D01*
X206307525Y-90236081D01*
X206374200Y-89900883D01*
X206374200Y-89559117D01*
X206307525Y-89223919D01*
X206176737Y-88908169D01*
X205986863Y-88624002D01*
X205745198Y-88382337D01*
X205461031Y-88192463D01*
X205145281Y-88061675D01*
X204810083Y-87995000D01*
X204468317Y-87995000D01*
X204133119Y-88061675D01*
X203817369Y-88192463D01*
X203533202Y-88382337D01*
X203291537Y-88624002D01*
X203101663Y-88908169D01*
X202970875Y-89223919D01*
X202904200Y-89559117D01*
X201345000Y-89559117D01*
X201278325Y-89223919D01*
X201147537Y-88908169D01*
X200957663Y-88624002D01*
X200715998Y-88382337D01*
X200431831Y-88192463D01*
X200116081Y-88061675D01*
X199780883Y-87995000D01*
X199439117Y-87995000D01*
X199103919Y-88061675D01*
X198788169Y-88192463D01*
X198504002Y-88382337D01*
X198262337Y-88624002D01*
X198072463Y-88908169D01*
X197941675Y-89223919D01*
X197875000Y-89559117D01*
X168300000Y-89559117D01*
X168300000Y-83081765D01*
X178460500Y-83081765D01*
X178460500Y-83364435D01*
X178515647Y-83641674D01*
X178623820Y-83902827D01*
X178780863Y-84137859D01*
X178980741Y-84337737D01*
X179215773Y-84494780D01*
X179476926Y-84602953D01*
X179754165Y-84658100D01*
X180036835Y-84658100D01*
X180314074Y-84602953D01*
X180575227Y-84494780D01*
X180810259Y-84337737D01*
X181010137Y-84137859D01*
X181167180Y-83902827D01*
X181275353Y-83641674D01*
X181289184Y-83572139D01*
X188663596Y-83572139D01*
X188704254Y-83706187D01*
X188824463Y-83960520D01*
X188991981Y-84186514D01*
X189200369Y-84375485D01*
X189441619Y-84520170D01*
X189706460Y-84615009D01*
X189928500Y-84493724D01*
X189928500Y-83350100D01*
X190182500Y-83350100D01*
X190182500Y-84493724D01*
X190404540Y-84615009D01*
X190669381Y-84520170D01*
X190910631Y-84375485D01*
X191119019Y-84186514D01*
X191286537Y-83960520D01*
X191406746Y-83706187D01*
X191447404Y-83572139D01*
X191325415Y-83350100D01*
X190182500Y-83350100D01*
X189928500Y-83350100D01*
X188785585Y-83350100D01*
X188663596Y-83572139D01*
X181289184Y-83572139D01*
X181330500Y-83364435D01*
X181330500Y-83081765D01*
X181289185Y-82874061D01*
X188663596Y-82874061D01*
X188785585Y-83096100D01*
X189928500Y-83096100D01*
X189928500Y-81952476D01*
X190182500Y-81952476D01*
X190182500Y-83096100D01*
X191325415Y-83096100D01*
X191447404Y-82874061D01*
X191406746Y-82740013D01*
X191316332Y-82548717D01*
X197875000Y-82548717D01*
X197875000Y-82890483D01*
X197941675Y-83225681D01*
X198072463Y-83541431D01*
X198262337Y-83825598D01*
X198504002Y-84067263D01*
X198788169Y-84257137D01*
X199103919Y-84387925D01*
X199439117Y-84454600D01*
X199780883Y-84454600D01*
X200116081Y-84387925D01*
X200431831Y-84257137D01*
X200715998Y-84067263D01*
X200957663Y-83825598D01*
X201147537Y-83541431D01*
X201278325Y-83225681D01*
X201345000Y-82890483D01*
X201345000Y-82548717D01*
X202904200Y-82548717D01*
X202904200Y-82890483D01*
X202970875Y-83225681D01*
X203101663Y-83541431D01*
X203291537Y-83825598D01*
X203533202Y-84067263D01*
X203817369Y-84257137D01*
X204133119Y-84387925D01*
X204468317Y-84454600D01*
X204810083Y-84454600D01*
X205145281Y-84387925D01*
X205461031Y-84257137D01*
X205745198Y-84067263D01*
X205986863Y-83825598D01*
X206176737Y-83541431D01*
X206307525Y-83225681D01*
X206374200Y-82890483D01*
X206374200Y-82548717D01*
X206307525Y-82213519D01*
X206176737Y-81897769D01*
X205986863Y-81613602D01*
X205745198Y-81371937D01*
X205461031Y-81182063D01*
X205145281Y-81051275D01*
X204810083Y-80984600D01*
X204468317Y-80984600D01*
X204133119Y-81051275D01*
X203817369Y-81182063D01*
X203533202Y-81371937D01*
X203291537Y-81613602D01*
X203101663Y-81897769D01*
X202970875Y-82213519D01*
X202904200Y-82548717D01*
X201345000Y-82548717D01*
X201278325Y-82213519D01*
X201147537Y-81897769D01*
X200957663Y-81613602D01*
X200715998Y-81371937D01*
X200431831Y-81182063D01*
X200116081Y-81051275D01*
X199780883Y-80984600D01*
X199439117Y-80984600D01*
X199103919Y-81051275D01*
X198788169Y-81182063D01*
X198504002Y-81371937D01*
X198262337Y-81613602D01*
X198072463Y-81897769D01*
X197941675Y-82213519D01*
X197875000Y-82548717D01*
X191316332Y-82548717D01*
X191286537Y-82485680D01*
X191119019Y-82259686D01*
X190910631Y-82070715D01*
X190669381Y-81926030D01*
X190404540Y-81831191D01*
X190182500Y-81952476D01*
X189928500Y-81952476D01*
X189706460Y-81831191D01*
X189441619Y-81926030D01*
X189200369Y-82070715D01*
X188991981Y-82259686D01*
X188824463Y-82485680D01*
X188704254Y-82740013D01*
X188663596Y-82874061D01*
X181289185Y-82874061D01*
X181275353Y-82804526D01*
X181167180Y-82543373D01*
X181010137Y-82308341D01*
X180810259Y-82108463D01*
X180575227Y-81951420D01*
X180314074Y-81843247D01*
X180036835Y-81788100D01*
X179754165Y-81788100D01*
X179476926Y-81843247D01*
X179215773Y-81951420D01*
X178980741Y-82108463D01*
X178780863Y-82308341D01*
X178623820Y-82543373D01*
X178515647Y-82804526D01*
X178460500Y-83081765D01*
X168300000Y-83081765D01*
X168300000Y-80779117D01*
X208465000Y-80779117D01*
X208465000Y-81120883D01*
X208531675Y-81456081D01*
X208662463Y-81771831D01*
X208852337Y-82055998D01*
X209094002Y-82297663D01*
X209378169Y-82487537D01*
X209693919Y-82618325D01*
X210029117Y-82685000D01*
X210370883Y-82685000D01*
X210706081Y-82618325D01*
X211021831Y-82487537D01*
X211305998Y-82297663D01*
X211547663Y-82055998D01*
X211737537Y-81771831D01*
X211868325Y-81456081D01*
X211935000Y-81120883D01*
X211935000Y-80779117D01*
X213494200Y-80779117D01*
X213494200Y-81120883D01*
X213560875Y-81456081D01*
X213691663Y-81771831D01*
X213881537Y-82055998D01*
X214123202Y-82297663D01*
X214407369Y-82487537D01*
X214723119Y-82618325D01*
X215058317Y-82685000D01*
X215400083Y-82685000D01*
X215735281Y-82618325D01*
X216051031Y-82487537D01*
X216335198Y-82297663D01*
X216576863Y-82055998D01*
X216766737Y-81771831D01*
X216897525Y-81456081D01*
X216964200Y-81120883D01*
X216964200Y-80779117D01*
X216897525Y-80443919D01*
X216766737Y-80128169D01*
X216576863Y-79844002D01*
X216335198Y-79602337D01*
X216051031Y-79412463D01*
X215735281Y-79281675D01*
X215400083Y-79215000D01*
X215058317Y-79215000D01*
X214723119Y-79281675D01*
X214407369Y-79412463D01*
X214123202Y-79602337D01*
X213881537Y-79844002D01*
X213691663Y-80128169D01*
X213560875Y-80443919D01*
X213494200Y-80779117D01*
X211935000Y-80779117D01*
X211868325Y-80443919D01*
X211737537Y-80128169D01*
X211547663Y-79844002D01*
X211305998Y-79602337D01*
X211021831Y-79412463D01*
X210706081Y-79281675D01*
X210370883Y-79215000D01*
X210029117Y-79215000D01*
X209693919Y-79281675D01*
X209378169Y-79412463D01*
X209094002Y-79602337D01*
X208852337Y-79844002D01*
X208662463Y-80128169D01*
X208531675Y-80443919D01*
X208465000Y-80779117D01*
X168300000Y-80779117D01*
X168300000Y-74490000D01*
X190917773Y-74490000D01*
X190946614Y-74782826D01*
X191032028Y-75064399D01*
X191170733Y-75323898D01*
X191357399Y-75551351D01*
X191459326Y-75635000D01*
X191357399Y-75718649D01*
X191170733Y-75946102D01*
X191032028Y-76205601D01*
X190946614Y-76487174D01*
X190917773Y-76780000D01*
X190946614Y-77072826D01*
X191032028Y-77354399D01*
X191170733Y-77613898D01*
X191219450Y-77673260D01*
X191205506Y-77680713D01*
X191108815Y-77760065D01*
X191029463Y-77856756D01*
X190970498Y-77967070D01*
X190934188Y-78086768D01*
X190921928Y-78211250D01*
X190921928Y-79928750D01*
X190934188Y-80053232D01*
X190970498Y-80172930D01*
X191029463Y-80283244D01*
X191108815Y-80379935D01*
X191205506Y-80459287D01*
X191315820Y-80518252D01*
X191435518Y-80554562D01*
X191560000Y-80566822D01*
X193360000Y-80566822D01*
X193484482Y-80554562D01*
X193604180Y-80518252D01*
X193714494Y-80459287D01*
X193811185Y-80379935D01*
X193890537Y-80283244D01*
X193949502Y-80172930D01*
X193985812Y-80053232D01*
X193998072Y-79928750D01*
X193998072Y-78211250D01*
X193985812Y-78086768D01*
X193949502Y-77967070D01*
X193890537Y-77856756D01*
X193811185Y-77760065D01*
X193714494Y-77680713D01*
X193700550Y-77673260D01*
X193749267Y-77613898D01*
X193887972Y-77354399D01*
X193973386Y-77072826D01*
X194002227Y-76780000D01*
X193973386Y-76487174D01*
X193887972Y-76205601D01*
X193749267Y-75946102D01*
X193562601Y-75718649D01*
X193460674Y-75635000D01*
X193562601Y-75551351D01*
X193749267Y-75323898D01*
X193887972Y-75064399D01*
X193973386Y-74782826D01*
X194002227Y-74490000D01*
X193973386Y-74197174D01*
X193887972Y-73915601D01*
X193749267Y-73656102D01*
X193562601Y-73428649D01*
X193426206Y-73316712D01*
X198622893Y-73316712D01*
X198730726Y-73591338D01*
X199037384Y-73742216D01*
X199367585Y-73830369D01*
X199708639Y-73852409D01*
X200047439Y-73807489D01*
X200370966Y-73697336D01*
X200569274Y-73591338D01*
X200677107Y-73316712D01*
X203652093Y-73316712D01*
X203759926Y-73591338D01*
X204066584Y-73742216D01*
X204396785Y-73830369D01*
X204737839Y-73852409D01*
X205076639Y-73807489D01*
X205190515Y-73768717D01*
X208465000Y-73768717D01*
X208465000Y-74110483D01*
X208531675Y-74445681D01*
X208662463Y-74761431D01*
X208852337Y-75045598D01*
X209094002Y-75287263D01*
X209378169Y-75477137D01*
X209693919Y-75607925D01*
X210029117Y-75674600D01*
X210370883Y-75674600D01*
X210706081Y-75607925D01*
X211021831Y-75477137D01*
X211305998Y-75287263D01*
X211547663Y-75045598D01*
X211737537Y-74761431D01*
X211868325Y-74445681D01*
X211935000Y-74110483D01*
X211935000Y-73768717D01*
X213494200Y-73768717D01*
X213494200Y-74110483D01*
X213560875Y-74445681D01*
X213691663Y-74761431D01*
X213881537Y-75045598D01*
X214123202Y-75287263D01*
X214407369Y-75477137D01*
X214723119Y-75607925D01*
X215058317Y-75674600D01*
X215400083Y-75674600D01*
X215735281Y-75607925D01*
X216051031Y-75477137D01*
X216335198Y-75287263D01*
X216576863Y-75045598D01*
X216766737Y-74761431D01*
X216897525Y-74445681D01*
X216964200Y-74110483D01*
X216964200Y-73768717D01*
X216897525Y-73433519D01*
X216766737Y-73117769D01*
X216576863Y-72833602D01*
X216335198Y-72591937D01*
X216051031Y-72402063D01*
X215735281Y-72271275D01*
X215400083Y-72204600D01*
X215058317Y-72204600D01*
X214723119Y-72271275D01*
X214407369Y-72402063D01*
X214123202Y-72591937D01*
X213881537Y-72833602D01*
X213691663Y-73117769D01*
X213560875Y-73433519D01*
X213494200Y-73768717D01*
X211935000Y-73768717D01*
X211868325Y-73433519D01*
X211737537Y-73117769D01*
X211547663Y-72833602D01*
X211305998Y-72591937D01*
X211021831Y-72402063D01*
X210706081Y-72271275D01*
X210370883Y-72204600D01*
X210029117Y-72204600D01*
X209693919Y-72271275D01*
X209378169Y-72402063D01*
X209094002Y-72591937D01*
X208852337Y-72833602D01*
X208662463Y-73117769D01*
X208531675Y-73433519D01*
X208465000Y-73768717D01*
X205190515Y-73768717D01*
X205400166Y-73697336D01*
X205598474Y-73591338D01*
X205706307Y-73316712D01*
X204679200Y-72289605D01*
X203652093Y-73316712D01*
X200677107Y-73316712D01*
X199650000Y-72289605D01*
X198622893Y-73316712D01*
X193426206Y-73316712D01*
X193335148Y-73241983D01*
X193075649Y-73103278D01*
X192794076Y-73017864D01*
X192574627Y-72996250D01*
X192345373Y-72996250D01*
X192125924Y-73017864D01*
X191844351Y-73103278D01*
X191584852Y-73241983D01*
X191357399Y-73428649D01*
X191170733Y-73656102D01*
X191032028Y-73915601D01*
X190946614Y-74197174D01*
X190917773Y-74490000D01*
X168300000Y-74490000D01*
X168300000Y-72168639D01*
X197907591Y-72168639D01*
X197952511Y-72507439D01*
X198062664Y-72830966D01*
X198168662Y-73029274D01*
X198443288Y-73137107D01*
X199470395Y-72110000D01*
X199829605Y-72110000D01*
X200856712Y-73137107D01*
X201131338Y-73029274D01*
X201282216Y-72722616D01*
X201370369Y-72392415D01*
X201384830Y-72168639D01*
X202936791Y-72168639D01*
X202981711Y-72507439D01*
X203091864Y-72830966D01*
X203197862Y-73029274D01*
X203472488Y-73137107D01*
X204499595Y-72110000D01*
X204858805Y-72110000D01*
X205885912Y-73137107D01*
X206160538Y-73029274D01*
X206311416Y-72722616D01*
X206399569Y-72392415D01*
X206421609Y-72051361D01*
X206376689Y-71712561D01*
X206266536Y-71389034D01*
X206160538Y-71190726D01*
X205885912Y-71082893D01*
X204858805Y-72110000D01*
X204499595Y-72110000D01*
X203472488Y-71082893D01*
X203197862Y-71190726D01*
X203046984Y-71497384D01*
X202958831Y-71827585D01*
X202936791Y-72168639D01*
X201384830Y-72168639D01*
X201392409Y-72051361D01*
X201347489Y-71712561D01*
X201237336Y-71389034D01*
X201131338Y-71190726D01*
X200856712Y-71082893D01*
X199829605Y-72110000D01*
X199470395Y-72110000D01*
X198443288Y-71082893D01*
X198168662Y-71190726D01*
X198017784Y-71497384D01*
X197929631Y-71827585D01*
X197907591Y-72168639D01*
X168300000Y-72168639D01*
X168300000Y-69937265D01*
X178574800Y-69937265D01*
X178574800Y-70219935D01*
X178629947Y-70497174D01*
X178738120Y-70758327D01*
X178895163Y-70993359D01*
X179095041Y-71193237D01*
X179330073Y-71350280D01*
X179591226Y-71458453D01*
X179868465Y-71513600D01*
X180151135Y-71513600D01*
X180428374Y-71458453D01*
X180689527Y-71350280D01*
X180924559Y-71193237D01*
X181124437Y-70993359D01*
X181281480Y-70758327D01*
X181389653Y-70497174D01*
X181403484Y-70427639D01*
X188777896Y-70427639D01*
X188818554Y-70561687D01*
X188938763Y-70816020D01*
X189106281Y-71042014D01*
X189314669Y-71230985D01*
X189555919Y-71375670D01*
X189820760Y-71470509D01*
X190042800Y-71349224D01*
X190042800Y-70205600D01*
X190296800Y-70205600D01*
X190296800Y-71349224D01*
X190518840Y-71470509D01*
X190783681Y-71375670D01*
X191024931Y-71230985D01*
X191233319Y-71042014D01*
X191336149Y-70903288D01*
X198622893Y-70903288D01*
X199650000Y-71930395D01*
X200677107Y-70903288D01*
X203652093Y-70903288D01*
X204679200Y-71930395D01*
X205706307Y-70903288D01*
X205598474Y-70628662D01*
X205291816Y-70477784D01*
X204961615Y-70389631D01*
X204620561Y-70367591D01*
X204281761Y-70412511D01*
X203958234Y-70522664D01*
X203759926Y-70628662D01*
X203652093Y-70903288D01*
X200677107Y-70903288D01*
X200569274Y-70628662D01*
X200262616Y-70477784D01*
X199932415Y-70389631D01*
X199591361Y-70367591D01*
X199252561Y-70412511D01*
X198929034Y-70522664D01*
X198730726Y-70628662D01*
X198622893Y-70903288D01*
X191336149Y-70903288D01*
X191400837Y-70816020D01*
X191521046Y-70561687D01*
X191561704Y-70427639D01*
X191439715Y-70205600D01*
X190296800Y-70205600D01*
X190042800Y-70205600D01*
X188899885Y-70205600D01*
X188777896Y-70427639D01*
X181403484Y-70427639D01*
X181444800Y-70219935D01*
X181444800Y-69937265D01*
X181403485Y-69729561D01*
X188777896Y-69729561D01*
X188899885Y-69951600D01*
X190042800Y-69951600D01*
X190042800Y-68807976D01*
X190296800Y-68807976D01*
X190296800Y-69951600D01*
X191439715Y-69951600D01*
X191561704Y-69729561D01*
X191521046Y-69595513D01*
X191400837Y-69341180D01*
X191233319Y-69115186D01*
X191024931Y-68926215D01*
X190783681Y-68781530D01*
X190518840Y-68686691D01*
X190296800Y-68807976D01*
X190042800Y-68807976D01*
X189820760Y-68686691D01*
X189555919Y-68781530D01*
X189314669Y-68926215D01*
X189106281Y-69115186D01*
X188938763Y-69341180D01*
X188818554Y-69595513D01*
X188777896Y-69729561D01*
X181403485Y-69729561D01*
X181389653Y-69660026D01*
X181281480Y-69398873D01*
X181124437Y-69163841D01*
X180924559Y-68963963D01*
X180689527Y-68806920D01*
X180428374Y-68698747D01*
X180151135Y-68643600D01*
X179868465Y-68643600D01*
X179591226Y-68698747D01*
X179330073Y-68806920D01*
X179095041Y-68963963D01*
X178895163Y-69163841D01*
X178738120Y-69398873D01*
X178629947Y-69660026D01*
X178574800Y-69937265D01*
X168300000Y-69937265D01*
X168300000Y-66306312D01*
X198622893Y-66306312D01*
X198730726Y-66580938D01*
X199037384Y-66731816D01*
X199367585Y-66819969D01*
X199708639Y-66842009D01*
X200047439Y-66797089D01*
X200370966Y-66686936D01*
X200569274Y-66580938D01*
X200677107Y-66306312D01*
X203652093Y-66306312D01*
X203759926Y-66580938D01*
X204066584Y-66731816D01*
X204396785Y-66819969D01*
X204737839Y-66842009D01*
X205076639Y-66797089D01*
X205400166Y-66686936D01*
X205598474Y-66580938D01*
X205706307Y-66306312D01*
X204679200Y-65279205D01*
X203652093Y-66306312D01*
X200677107Y-66306312D01*
X199650000Y-65279205D01*
X198622893Y-66306312D01*
X168300000Y-66306312D01*
X168300000Y-65158239D01*
X197907591Y-65158239D01*
X197952511Y-65497039D01*
X198062664Y-65820566D01*
X198168662Y-66018874D01*
X198443288Y-66126707D01*
X199470395Y-65099600D01*
X199829605Y-65099600D01*
X200856712Y-66126707D01*
X201131338Y-66018874D01*
X201282216Y-65712216D01*
X201370369Y-65382015D01*
X201384830Y-65158239D01*
X202936791Y-65158239D01*
X202981711Y-65497039D01*
X203091864Y-65820566D01*
X203197862Y-66018874D01*
X203472488Y-66126707D01*
X204499595Y-65099600D01*
X204858805Y-65099600D01*
X205885912Y-66126707D01*
X206160538Y-66018874D01*
X206311416Y-65712216D01*
X206399569Y-65382015D01*
X206421609Y-65040961D01*
X206376689Y-64702161D01*
X206266536Y-64378634D01*
X206160538Y-64180326D01*
X205885912Y-64072493D01*
X204858805Y-65099600D01*
X204499595Y-65099600D01*
X203472488Y-64072493D01*
X203197862Y-64180326D01*
X203046984Y-64486984D01*
X202958831Y-64817185D01*
X202936791Y-65158239D01*
X201384830Y-65158239D01*
X201392409Y-65040961D01*
X201347489Y-64702161D01*
X201237336Y-64378634D01*
X201131338Y-64180326D01*
X200856712Y-64072493D01*
X199829605Y-65099600D01*
X199470395Y-65099600D01*
X198443288Y-64072493D01*
X198168662Y-64180326D01*
X198017784Y-64486984D01*
X197929631Y-64817185D01*
X197907591Y-65158239D01*
X168300000Y-65158239D01*
X168300000Y-63892888D01*
X198622893Y-63892888D01*
X199650000Y-64919995D01*
X200677107Y-63892888D01*
X203652093Y-63892888D01*
X204679200Y-64919995D01*
X205706307Y-63892888D01*
X205598474Y-63618262D01*
X205291816Y-63467384D01*
X204961615Y-63379231D01*
X204620561Y-63357191D01*
X204281761Y-63402111D01*
X203958234Y-63512264D01*
X203759926Y-63618262D01*
X203652093Y-63892888D01*
X200677107Y-63892888D01*
X200569274Y-63618262D01*
X200262616Y-63467384D01*
X199932415Y-63379231D01*
X199591361Y-63357191D01*
X199252561Y-63402111D01*
X198929034Y-63512264D01*
X198730726Y-63618262D01*
X198622893Y-63892888D01*
X168300000Y-63892888D01*
X168300000Y-59723872D01*
X169977000Y-59723872D01*
X169977000Y-60164128D01*
X170062890Y-60595925D01*
X170231369Y-61002669D01*
X170475962Y-61368729D01*
X170787271Y-61680038D01*
X171153331Y-61924631D01*
X171560075Y-62093110D01*
X171991872Y-62179000D01*
X172432128Y-62179000D01*
X172863925Y-62093110D01*
X173270669Y-61924631D01*
X173636729Y-61680038D01*
X173948038Y-61368729D01*
X174192631Y-61002669D01*
X174361110Y-60595925D01*
X174447000Y-60164128D01*
X174447000Y-59723872D01*
X211633000Y-59723872D01*
X211633000Y-60164128D01*
X211718890Y-60595925D01*
X211887369Y-61002669D01*
X212131962Y-61368729D01*
X212443271Y-61680038D01*
X212809331Y-61924631D01*
X213216075Y-62093110D01*
X213647872Y-62179000D01*
X214088128Y-62179000D01*
X214519925Y-62093110D01*
X214926669Y-61924631D01*
X215292729Y-61680038D01*
X215604038Y-61368729D01*
X215848631Y-61002669D01*
X216017110Y-60595925D01*
X216103000Y-60164128D01*
X216103000Y-59723872D01*
X216017110Y-59292075D01*
X215848631Y-58885331D01*
X215604038Y-58519271D01*
X215292729Y-58207962D01*
X214926669Y-57963369D01*
X214519925Y-57794890D01*
X214088128Y-57709000D01*
X213647872Y-57709000D01*
X213216075Y-57794890D01*
X212809331Y-57963369D01*
X212443271Y-58207962D01*
X212131962Y-58519271D01*
X211887369Y-58885331D01*
X211718890Y-59292075D01*
X211633000Y-59723872D01*
X174447000Y-59723872D01*
X174361110Y-59292075D01*
X174192631Y-58885331D01*
X173948038Y-58519271D01*
X173636729Y-58207962D01*
X173270669Y-57963369D01*
X172863925Y-57794890D01*
X172432128Y-57709000D01*
X171991872Y-57709000D01*
X171560075Y-57794890D01*
X171153331Y-57963369D01*
X170787271Y-58207962D01*
X170475962Y-58519271D01*
X170231369Y-58885331D01*
X170062890Y-59292075D01*
X169977000Y-59723872D01*
X168300000Y-59723872D01*
X168300000Y-56530000D01*
X217769838Y-56530000D01*
X217760163Y-95849871D01*
G37*
X217760163Y-95849871D02*
X168300000Y-95840130D01*
X168300000Y-92235872D01*
X169977000Y-92235872D01*
X169977000Y-92676128D01*
X170062890Y-93107925D01*
X170231369Y-93514669D01*
X170475962Y-93880729D01*
X170787271Y-94192038D01*
X171153331Y-94436631D01*
X171560075Y-94605110D01*
X171991872Y-94691000D01*
X172432128Y-94691000D01*
X172863925Y-94605110D01*
X173270669Y-94436631D01*
X173636729Y-94192038D01*
X173948038Y-93880729D01*
X174192631Y-93514669D01*
X174361110Y-93107925D01*
X174447000Y-92676128D01*
X174447000Y-92235872D01*
X211633000Y-92235872D01*
X211633000Y-92676128D01*
X211718890Y-93107925D01*
X211887369Y-93514669D01*
X212131962Y-93880729D01*
X212443271Y-94192038D01*
X212809331Y-94436631D01*
X213216075Y-94605110D01*
X213647872Y-94691000D01*
X214088128Y-94691000D01*
X214519925Y-94605110D01*
X214926669Y-94436631D01*
X215292729Y-94192038D01*
X215604038Y-93880729D01*
X215848631Y-93514669D01*
X216017110Y-93107925D01*
X216103000Y-92676128D01*
X216103000Y-92235872D01*
X216017110Y-91804075D01*
X215848631Y-91397331D01*
X215604038Y-91031271D01*
X215292729Y-90719962D01*
X214926669Y-90475369D01*
X214519925Y-90306890D01*
X214088128Y-90221000D01*
X213647872Y-90221000D01*
X213216075Y-90306890D01*
X212809331Y-90475369D01*
X212443271Y-90719962D01*
X212131962Y-91031271D01*
X211887369Y-91397331D01*
X211718890Y-91804075D01*
X211633000Y-92235872D01*
X174447000Y-92235872D01*
X174361110Y-91804075D01*
X174192631Y-91397331D01*
X173948038Y-91031271D01*
X173636729Y-90719962D01*
X173270669Y-90475369D01*
X172863925Y-90306890D01*
X172432128Y-90221000D01*
X171991872Y-90221000D01*
X171560075Y-90306890D01*
X171153331Y-90475369D01*
X170787271Y-90719962D01*
X170475962Y-91031271D01*
X170231369Y-91397331D01*
X170062890Y-91804075D01*
X169977000Y-92235872D01*
X168300000Y-92235872D01*
X168300000Y-89559117D01*
X197875000Y-89559117D01*
X197875000Y-89900883D01*
X197941675Y-90236081D01*
X198072463Y-90551831D01*
X198262337Y-90835998D01*
X198504002Y-91077663D01*
X198788169Y-91267537D01*
X199103919Y-91398325D01*
X199439117Y-91465000D01*
X199780883Y-91465000D01*
X200116081Y-91398325D01*
X200431831Y-91267537D01*
X200715998Y-91077663D01*
X200957663Y-90835998D01*
X201147537Y-90551831D01*
X201278325Y-90236081D01*
X201345000Y-89900883D01*
X201345000Y-89559117D01*
X202904200Y-89559117D01*
X202904200Y-89900883D01*
X202970875Y-90236081D01*
X203101663Y-90551831D01*
X203291537Y-90835998D01*
X203533202Y-91077663D01*
X203817369Y-91267537D01*
X204133119Y-91398325D01*
X204468317Y-91465000D01*
X204810083Y-91465000D01*
X205145281Y-91398325D01*
X205461031Y-91267537D01*
X205745198Y-91077663D01*
X205986863Y-90835998D01*
X206176737Y-90551831D01*
X206307525Y-90236081D01*
X206374200Y-89900883D01*
X206374200Y-89559117D01*
X206307525Y-89223919D01*
X206176737Y-88908169D01*
X205986863Y-88624002D01*
X205745198Y-88382337D01*
X205461031Y-88192463D01*
X205145281Y-88061675D01*
X204810083Y-87995000D01*
X204468317Y-87995000D01*
X204133119Y-88061675D01*
X203817369Y-88192463D01*
X203533202Y-88382337D01*
X203291537Y-88624002D01*
X203101663Y-88908169D01*
X202970875Y-89223919D01*
X202904200Y-89559117D01*
X201345000Y-89559117D01*
X201278325Y-89223919D01*
X201147537Y-88908169D01*
X200957663Y-88624002D01*
X200715998Y-88382337D01*
X200431831Y-88192463D01*
X200116081Y-88061675D01*
X199780883Y-87995000D01*
X199439117Y-87995000D01*
X199103919Y-88061675D01*
X198788169Y-88192463D01*
X198504002Y-88382337D01*
X198262337Y-88624002D01*
X198072463Y-88908169D01*
X197941675Y-89223919D01*
X197875000Y-89559117D01*
X168300000Y-89559117D01*
X168300000Y-83081765D01*
X178460500Y-83081765D01*
X178460500Y-83364435D01*
X178515647Y-83641674D01*
X178623820Y-83902827D01*
X178780863Y-84137859D01*
X178980741Y-84337737D01*
X179215773Y-84494780D01*
X179476926Y-84602953D01*
X179754165Y-84658100D01*
X180036835Y-84658100D01*
X180314074Y-84602953D01*
X180575227Y-84494780D01*
X180810259Y-84337737D01*
X181010137Y-84137859D01*
X181167180Y-83902827D01*
X181275353Y-83641674D01*
X181289184Y-83572139D01*
X188663596Y-83572139D01*
X188704254Y-83706187D01*
X188824463Y-83960520D01*
X188991981Y-84186514D01*
X189200369Y-84375485D01*
X189441619Y-84520170D01*
X189706460Y-84615009D01*
X189928500Y-84493724D01*
X189928500Y-83350100D01*
X190182500Y-83350100D01*
X190182500Y-84493724D01*
X190404540Y-84615009D01*
X190669381Y-84520170D01*
X190910631Y-84375485D01*
X191119019Y-84186514D01*
X191286537Y-83960520D01*
X191406746Y-83706187D01*
X191447404Y-83572139D01*
X191325415Y-83350100D01*
X190182500Y-83350100D01*
X189928500Y-83350100D01*
X188785585Y-83350100D01*
X188663596Y-83572139D01*
X181289184Y-83572139D01*
X181330500Y-83364435D01*
X181330500Y-83081765D01*
X181289185Y-82874061D01*
X188663596Y-82874061D01*
X188785585Y-83096100D01*
X189928500Y-83096100D01*
X189928500Y-81952476D01*
X190182500Y-81952476D01*
X190182500Y-83096100D01*
X191325415Y-83096100D01*
X191447404Y-82874061D01*
X191406746Y-82740013D01*
X191316332Y-82548717D01*
X197875000Y-82548717D01*
X197875000Y-82890483D01*
X197941675Y-83225681D01*
X198072463Y-83541431D01*
X198262337Y-83825598D01*
X198504002Y-84067263D01*
X198788169Y-84257137D01*
X199103919Y-84387925D01*
X199439117Y-84454600D01*
X199780883Y-84454600D01*
X200116081Y-84387925D01*
X200431831Y-84257137D01*
X200715998Y-84067263D01*
X200957663Y-83825598D01*
X201147537Y-83541431D01*
X201278325Y-83225681D01*
X201345000Y-82890483D01*
X201345000Y-82548717D01*
X202904200Y-82548717D01*
X202904200Y-82890483D01*
X202970875Y-83225681D01*
X203101663Y-83541431D01*
X203291537Y-83825598D01*
X203533202Y-84067263D01*
X203817369Y-84257137D01*
X204133119Y-84387925D01*
X204468317Y-84454600D01*
X204810083Y-84454600D01*
X205145281Y-84387925D01*
X205461031Y-84257137D01*
X205745198Y-84067263D01*
X205986863Y-83825598D01*
X206176737Y-83541431D01*
X206307525Y-83225681D01*
X206374200Y-82890483D01*
X206374200Y-82548717D01*
X206307525Y-82213519D01*
X206176737Y-81897769D01*
X205986863Y-81613602D01*
X205745198Y-81371937D01*
X205461031Y-81182063D01*
X205145281Y-81051275D01*
X204810083Y-80984600D01*
X204468317Y-80984600D01*
X204133119Y-81051275D01*
X203817369Y-81182063D01*
X203533202Y-81371937D01*
X203291537Y-81613602D01*
X203101663Y-81897769D01*
X202970875Y-82213519D01*
X202904200Y-82548717D01*
X201345000Y-82548717D01*
X201278325Y-82213519D01*
X201147537Y-81897769D01*
X200957663Y-81613602D01*
X200715998Y-81371937D01*
X200431831Y-81182063D01*
X200116081Y-81051275D01*
X199780883Y-80984600D01*
X199439117Y-80984600D01*
X199103919Y-81051275D01*
X198788169Y-81182063D01*
X198504002Y-81371937D01*
X198262337Y-81613602D01*
X198072463Y-81897769D01*
X197941675Y-82213519D01*
X197875000Y-82548717D01*
X191316332Y-82548717D01*
X191286537Y-82485680D01*
X191119019Y-82259686D01*
X190910631Y-82070715D01*
X190669381Y-81926030D01*
X190404540Y-81831191D01*
X190182500Y-81952476D01*
X189928500Y-81952476D01*
X189706460Y-81831191D01*
X189441619Y-81926030D01*
X189200369Y-82070715D01*
X188991981Y-82259686D01*
X188824463Y-82485680D01*
X188704254Y-82740013D01*
X188663596Y-82874061D01*
X181289185Y-82874061D01*
X181275353Y-82804526D01*
X181167180Y-82543373D01*
X181010137Y-82308341D01*
X180810259Y-82108463D01*
X180575227Y-81951420D01*
X180314074Y-81843247D01*
X180036835Y-81788100D01*
X179754165Y-81788100D01*
X179476926Y-81843247D01*
X179215773Y-81951420D01*
X178980741Y-82108463D01*
X178780863Y-82308341D01*
X178623820Y-82543373D01*
X178515647Y-82804526D01*
X178460500Y-83081765D01*
X168300000Y-83081765D01*
X168300000Y-80779117D01*
X208465000Y-80779117D01*
X208465000Y-81120883D01*
X208531675Y-81456081D01*
X208662463Y-81771831D01*
X208852337Y-82055998D01*
X209094002Y-82297663D01*
X209378169Y-82487537D01*
X209693919Y-82618325D01*
X210029117Y-82685000D01*
X210370883Y-82685000D01*
X210706081Y-82618325D01*
X211021831Y-82487537D01*
X211305998Y-82297663D01*
X211547663Y-82055998D01*
X211737537Y-81771831D01*
X211868325Y-81456081D01*
X211935000Y-81120883D01*
X211935000Y-80779117D01*
X213494200Y-80779117D01*
X213494200Y-81120883D01*
X213560875Y-81456081D01*
X213691663Y-81771831D01*
X213881537Y-82055998D01*
X214123202Y-82297663D01*
X214407369Y-82487537D01*
X214723119Y-82618325D01*
X215058317Y-82685000D01*
X215400083Y-82685000D01*
X215735281Y-82618325D01*
X216051031Y-82487537D01*
X216335198Y-82297663D01*
X216576863Y-82055998D01*
X216766737Y-81771831D01*
X216897525Y-81456081D01*
X216964200Y-81120883D01*
X216964200Y-80779117D01*
X216897525Y-80443919D01*
X216766737Y-80128169D01*
X216576863Y-79844002D01*
X216335198Y-79602337D01*
X216051031Y-79412463D01*
X215735281Y-79281675D01*
X215400083Y-79215000D01*
X215058317Y-79215000D01*
X214723119Y-79281675D01*
X214407369Y-79412463D01*
X214123202Y-79602337D01*
X213881537Y-79844002D01*
X213691663Y-80128169D01*
X213560875Y-80443919D01*
X213494200Y-80779117D01*
X211935000Y-80779117D01*
X211868325Y-80443919D01*
X211737537Y-80128169D01*
X211547663Y-79844002D01*
X211305998Y-79602337D01*
X211021831Y-79412463D01*
X210706081Y-79281675D01*
X210370883Y-79215000D01*
X210029117Y-79215000D01*
X209693919Y-79281675D01*
X209378169Y-79412463D01*
X209094002Y-79602337D01*
X208852337Y-79844002D01*
X208662463Y-80128169D01*
X208531675Y-80443919D01*
X208465000Y-80779117D01*
X168300000Y-80779117D01*
X168300000Y-74490000D01*
X190917773Y-74490000D01*
X190946614Y-74782826D01*
X191032028Y-75064399D01*
X191170733Y-75323898D01*
X191357399Y-75551351D01*
X191459326Y-75635000D01*
X191357399Y-75718649D01*
X191170733Y-75946102D01*
X191032028Y-76205601D01*
X190946614Y-76487174D01*
X190917773Y-76780000D01*
X190946614Y-77072826D01*
X191032028Y-77354399D01*
X191170733Y-77613898D01*
X191219450Y-77673260D01*
X191205506Y-77680713D01*
X191108815Y-77760065D01*
X191029463Y-77856756D01*
X190970498Y-77967070D01*
X190934188Y-78086768D01*
X190921928Y-78211250D01*
X190921928Y-79928750D01*
X190934188Y-80053232D01*
X190970498Y-80172930D01*
X191029463Y-80283244D01*
X191108815Y-80379935D01*
X191205506Y-80459287D01*
X191315820Y-80518252D01*
X191435518Y-80554562D01*
X191560000Y-80566822D01*
X193360000Y-80566822D01*
X193484482Y-80554562D01*
X193604180Y-80518252D01*
X193714494Y-80459287D01*
X193811185Y-80379935D01*
X193890537Y-80283244D01*
X193949502Y-80172930D01*
X193985812Y-80053232D01*
X193998072Y-79928750D01*
X193998072Y-78211250D01*
X193985812Y-78086768D01*
X193949502Y-77967070D01*
X193890537Y-77856756D01*
X193811185Y-77760065D01*
X193714494Y-77680713D01*
X193700550Y-77673260D01*
X193749267Y-77613898D01*
X193887972Y-77354399D01*
X193973386Y-77072826D01*
X194002227Y-76780000D01*
X193973386Y-76487174D01*
X193887972Y-76205601D01*
X193749267Y-75946102D01*
X193562601Y-75718649D01*
X193460674Y-75635000D01*
X193562601Y-75551351D01*
X193749267Y-75323898D01*
X193887972Y-75064399D01*
X193973386Y-74782826D01*
X194002227Y-74490000D01*
X193973386Y-74197174D01*
X193887972Y-73915601D01*
X193749267Y-73656102D01*
X193562601Y-73428649D01*
X193426206Y-73316712D01*
X198622893Y-73316712D01*
X198730726Y-73591338D01*
X199037384Y-73742216D01*
X199367585Y-73830369D01*
X199708639Y-73852409D01*
X200047439Y-73807489D01*
X200370966Y-73697336D01*
X200569274Y-73591338D01*
X200677107Y-73316712D01*
X203652093Y-73316712D01*
X203759926Y-73591338D01*
X204066584Y-73742216D01*
X204396785Y-73830369D01*
X204737839Y-73852409D01*
X205076639Y-73807489D01*
X205190515Y-73768717D01*
X208465000Y-73768717D01*
X208465000Y-74110483D01*
X208531675Y-74445681D01*
X208662463Y-74761431D01*
X208852337Y-75045598D01*
X209094002Y-75287263D01*
X209378169Y-75477137D01*
X209693919Y-75607925D01*
X210029117Y-75674600D01*
X210370883Y-75674600D01*
X210706081Y-75607925D01*
X211021831Y-75477137D01*
X211305998Y-75287263D01*
X211547663Y-75045598D01*
X211737537Y-74761431D01*
X211868325Y-74445681D01*
X211935000Y-74110483D01*
X211935000Y-73768717D01*
X213494200Y-73768717D01*
X213494200Y-74110483D01*
X213560875Y-74445681D01*
X213691663Y-74761431D01*
X213881537Y-75045598D01*
X214123202Y-75287263D01*
X214407369Y-75477137D01*
X214723119Y-75607925D01*
X215058317Y-75674600D01*
X215400083Y-75674600D01*
X215735281Y-75607925D01*
X216051031Y-75477137D01*
X216335198Y-75287263D01*
X216576863Y-75045598D01*
X216766737Y-74761431D01*
X216897525Y-74445681D01*
X216964200Y-74110483D01*
X216964200Y-73768717D01*
X216897525Y-73433519D01*
X216766737Y-73117769D01*
X216576863Y-72833602D01*
X216335198Y-72591937D01*
X216051031Y-72402063D01*
X215735281Y-72271275D01*
X215400083Y-72204600D01*
X215058317Y-72204600D01*
X214723119Y-72271275D01*
X214407369Y-72402063D01*
X214123202Y-72591937D01*
X213881537Y-72833602D01*
X213691663Y-73117769D01*
X213560875Y-73433519D01*
X213494200Y-73768717D01*
X211935000Y-73768717D01*
X211868325Y-73433519D01*
X211737537Y-73117769D01*
X211547663Y-72833602D01*
X211305998Y-72591937D01*
X211021831Y-72402063D01*
X210706081Y-72271275D01*
X210370883Y-72204600D01*
X210029117Y-72204600D01*
X209693919Y-72271275D01*
X209378169Y-72402063D01*
X209094002Y-72591937D01*
X208852337Y-72833602D01*
X208662463Y-73117769D01*
X208531675Y-73433519D01*
X208465000Y-73768717D01*
X205190515Y-73768717D01*
X205400166Y-73697336D01*
X205598474Y-73591338D01*
X205706307Y-73316712D01*
X204679200Y-72289605D01*
X203652093Y-73316712D01*
X200677107Y-73316712D01*
X199650000Y-72289605D01*
X198622893Y-73316712D01*
X193426206Y-73316712D01*
X193335148Y-73241983D01*
X193075649Y-73103278D01*
X192794076Y-73017864D01*
X192574627Y-72996250D01*
X192345373Y-72996250D01*
X192125924Y-73017864D01*
X191844351Y-73103278D01*
X191584852Y-73241983D01*
X191357399Y-73428649D01*
X191170733Y-73656102D01*
X191032028Y-73915601D01*
X190946614Y-74197174D01*
X190917773Y-74490000D01*
X168300000Y-74490000D01*
X168300000Y-72168639D01*
X197907591Y-72168639D01*
X197952511Y-72507439D01*
X198062664Y-72830966D01*
X198168662Y-73029274D01*
X198443288Y-73137107D01*
X199470395Y-72110000D01*
X199829605Y-72110000D01*
X200856712Y-73137107D01*
X201131338Y-73029274D01*
X201282216Y-72722616D01*
X201370369Y-72392415D01*
X201384830Y-72168639D01*
X202936791Y-72168639D01*
X202981711Y-72507439D01*
X203091864Y-72830966D01*
X203197862Y-73029274D01*
X203472488Y-73137107D01*
X204499595Y-72110000D01*
X204858805Y-72110000D01*
X205885912Y-73137107D01*
X206160538Y-73029274D01*
X206311416Y-72722616D01*
X206399569Y-72392415D01*
X206421609Y-72051361D01*
X206376689Y-71712561D01*
X206266536Y-71389034D01*
X206160538Y-71190726D01*
X205885912Y-71082893D01*
X204858805Y-72110000D01*
X204499595Y-72110000D01*
X203472488Y-71082893D01*
X203197862Y-71190726D01*
X203046984Y-71497384D01*
X202958831Y-71827585D01*
X202936791Y-72168639D01*
X201384830Y-72168639D01*
X201392409Y-72051361D01*
X201347489Y-71712561D01*
X201237336Y-71389034D01*
X201131338Y-71190726D01*
X200856712Y-71082893D01*
X199829605Y-72110000D01*
X199470395Y-72110000D01*
X198443288Y-71082893D01*
X198168662Y-71190726D01*
X198017784Y-71497384D01*
X197929631Y-71827585D01*
X197907591Y-72168639D01*
X168300000Y-72168639D01*
X168300000Y-69937265D01*
X178574800Y-69937265D01*
X178574800Y-70219935D01*
X178629947Y-70497174D01*
X178738120Y-70758327D01*
X178895163Y-70993359D01*
X179095041Y-71193237D01*
X179330073Y-71350280D01*
X179591226Y-71458453D01*
X179868465Y-71513600D01*
X180151135Y-71513600D01*
X180428374Y-71458453D01*
X180689527Y-71350280D01*
X180924559Y-71193237D01*
X181124437Y-70993359D01*
X181281480Y-70758327D01*
X181389653Y-70497174D01*
X181403484Y-70427639D01*
X188777896Y-70427639D01*
X188818554Y-70561687D01*
X188938763Y-70816020D01*
X189106281Y-71042014D01*
X189314669Y-71230985D01*
X189555919Y-71375670D01*
X189820760Y-71470509D01*
X190042800Y-71349224D01*
X190042800Y-70205600D01*
X190296800Y-70205600D01*
X190296800Y-71349224D01*
X190518840Y-71470509D01*
X190783681Y-71375670D01*
X191024931Y-71230985D01*
X191233319Y-71042014D01*
X191336149Y-70903288D01*
X198622893Y-70903288D01*
X199650000Y-71930395D01*
X200677107Y-70903288D01*
X203652093Y-70903288D01*
X204679200Y-71930395D01*
X205706307Y-70903288D01*
X205598474Y-70628662D01*
X205291816Y-70477784D01*
X204961615Y-70389631D01*
X204620561Y-70367591D01*
X204281761Y-70412511D01*
X203958234Y-70522664D01*
X203759926Y-70628662D01*
X203652093Y-70903288D01*
X200677107Y-70903288D01*
X200569274Y-70628662D01*
X200262616Y-70477784D01*
X199932415Y-70389631D01*
X199591361Y-70367591D01*
X199252561Y-70412511D01*
X198929034Y-70522664D01*
X198730726Y-70628662D01*
X198622893Y-70903288D01*
X191336149Y-70903288D01*
X191400837Y-70816020D01*
X191521046Y-70561687D01*
X191561704Y-70427639D01*
X191439715Y-70205600D01*
X190296800Y-70205600D01*
X190042800Y-70205600D01*
X188899885Y-70205600D01*
X188777896Y-70427639D01*
X181403484Y-70427639D01*
X181444800Y-70219935D01*
X181444800Y-69937265D01*
X181403485Y-69729561D01*
X188777896Y-69729561D01*
X188899885Y-69951600D01*
X190042800Y-69951600D01*
X190042800Y-68807976D01*
X190296800Y-68807976D01*
X190296800Y-69951600D01*
X191439715Y-69951600D01*
X191561704Y-69729561D01*
X191521046Y-69595513D01*
X191400837Y-69341180D01*
X191233319Y-69115186D01*
X191024931Y-68926215D01*
X190783681Y-68781530D01*
X190518840Y-68686691D01*
X190296800Y-68807976D01*
X190042800Y-68807976D01*
X189820760Y-68686691D01*
X189555919Y-68781530D01*
X189314669Y-68926215D01*
X189106281Y-69115186D01*
X188938763Y-69341180D01*
X188818554Y-69595513D01*
X188777896Y-69729561D01*
X181403485Y-69729561D01*
X181389653Y-69660026D01*
X181281480Y-69398873D01*
X181124437Y-69163841D01*
X180924559Y-68963963D01*
X180689527Y-68806920D01*
X180428374Y-68698747D01*
X180151135Y-68643600D01*
X179868465Y-68643600D01*
X179591226Y-68698747D01*
X179330073Y-68806920D01*
X179095041Y-68963963D01*
X178895163Y-69163841D01*
X178738120Y-69398873D01*
X178629947Y-69660026D01*
X178574800Y-69937265D01*
X168300000Y-69937265D01*
X168300000Y-66306312D01*
X198622893Y-66306312D01*
X198730726Y-66580938D01*
X199037384Y-66731816D01*
X199367585Y-66819969D01*
X199708639Y-66842009D01*
X200047439Y-66797089D01*
X200370966Y-66686936D01*
X200569274Y-66580938D01*
X200677107Y-66306312D01*
X203652093Y-66306312D01*
X203759926Y-66580938D01*
X204066584Y-66731816D01*
X204396785Y-66819969D01*
X204737839Y-66842009D01*
X205076639Y-66797089D01*
X205400166Y-66686936D01*
X205598474Y-66580938D01*
X205706307Y-66306312D01*
X204679200Y-65279205D01*
X203652093Y-66306312D01*
X200677107Y-66306312D01*
X199650000Y-65279205D01*
X198622893Y-66306312D01*
X168300000Y-66306312D01*
X168300000Y-65158239D01*
X197907591Y-65158239D01*
X197952511Y-65497039D01*
X198062664Y-65820566D01*
X198168662Y-66018874D01*
X198443288Y-66126707D01*
X199470395Y-65099600D01*
X199829605Y-65099600D01*
X200856712Y-66126707D01*
X201131338Y-66018874D01*
X201282216Y-65712216D01*
X201370369Y-65382015D01*
X201384830Y-65158239D01*
X202936791Y-65158239D01*
X202981711Y-65497039D01*
X203091864Y-65820566D01*
X203197862Y-66018874D01*
X203472488Y-66126707D01*
X204499595Y-65099600D01*
X204858805Y-65099600D01*
X205885912Y-66126707D01*
X206160538Y-66018874D01*
X206311416Y-65712216D01*
X206399569Y-65382015D01*
X206421609Y-65040961D01*
X206376689Y-64702161D01*
X206266536Y-64378634D01*
X206160538Y-64180326D01*
X205885912Y-64072493D01*
X204858805Y-65099600D01*
X204499595Y-65099600D01*
X203472488Y-64072493D01*
X203197862Y-64180326D01*
X203046984Y-64486984D01*
X202958831Y-64817185D01*
X202936791Y-65158239D01*
X201384830Y-65158239D01*
X201392409Y-65040961D01*
X201347489Y-64702161D01*
X201237336Y-64378634D01*
X201131338Y-64180326D01*
X200856712Y-64072493D01*
X199829605Y-65099600D01*
X199470395Y-65099600D01*
X198443288Y-64072493D01*
X198168662Y-64180326D01*
X198017784Y-64486984D01*
X197929631Y-64817185D01*
X197907591Y-65158239D01*
X168300000Y-65158239D01*
X168300000Y-63892888D01*
X198622893Y-63892888D01*
X199650000Y-64919995D01*
X200677107Y-63892888D01*
X203652093Y-63892888D01*
X204679200Y-64919995D01*
X205706307Y-63892888D01*
X205598474Y-63618262D01*
X205291816Y-63467384D01*
X204961615Y-63379231D01*
X204620561Y-63357191D01*
X204281761Y-63402111D01*
X203958234Y-63512264D01*
X203759926Y-63618262D01*
X203652093Y-63892888D01*
X200677107Y-63892888D01*
X200569274Y-63618262D01*
X200262616Y-63467384D01*
X199932415Y-63379231D01*
X199591361Y-63357191D01*
X199252561Y-63402111D01*
X198929034Y-63512264D01*
X198730726Y-63618262D01*
X198622893Y-63892888D01*
X168300000Y-63892888D01*
X168300000Y-59723872D01*
X169977000Y-59723872D01*
X169977000Y-60164128D01*
X170062890Y-60595925D01*
X170231369Y-61002669D01*
X170475962Y-61368729D01*
X170787271Y-61680038D01*
X171153331Y-61924631D01*
X171560075Y-62093110D01*
X171991872Y-62179000D01*
X172432128Y-62179000D01*
X172863925Y-62093110D01*
X173270669Y-61924631D01*
X173636729Y-61680038D01*
X173948038Y-61368729D01*
X174192631Y-61002669D01*
X174361110Y-60595925D01*
X174447000Y-60164128D01*
X174447000Y-59723872D01*
X211633000Y-59723872D01*
X211633000Y-60164128D01*
X211718890Y-60595925D01*
X211887369Y-61002669D01*
X212131962Y-61368729D01*
X212443271Y-61680038D01*
X212809331Y-61924631D01*
X213216075Y-62093110D01*
X213647872Y-62179000D01*
X214088128Y-62179000D01*
X214519925Y-62093110D01*
X214926669Y-61924631D01*
X215292729Y-61680038D01*
X215604038Y-61368729D01*
X215848631Y-61002669D01*
X216017110Y-60595925D01*
X216103000Y-60164128D01*
X216103000Y-59723872D01*
X216017110Y-59292075D01*
X215848631Y-58885331D01*
X215604038Y-58519271D01*
X215292729Y-58207962D01*
X214926669Y-57963369D01*
X214519925Y-57794890D01*
X214088128Y-57709000D01*
X213647872Y-57709000D01*
X213216075Y-57794890D01*
X212809331Y-57963369D01*
X212443271Y-58207962D01*
X212131962Y-58519271D01*
X211887369Y-58885331D01*
X211718890Y-59292075D01*
X211633000Y-59723872D01*
X174447000Y-59723872D01*
X174361110Y-59292075D01*
X174192631Y-58885331D01*
X173948038Y-58519271D01*
X173636729Y-58207962D01*
X173270669Y-57963369D01*
X172863925Y-57794890D01*
X172432128Y-57709000D01*
X171991872Y-57709000D01*
X171560075Y-57794890D01*
X171153331Y-57963369D01*
X170787271Y-58207962D01*
X170475962Y-58519271D01*
X170231369Y-58885331D01*
X170062890Y-59292075D01*
X169977000Y-59723872D01*
X168300000Y-59723872D01*
X168300000Y-56530000D01*
X217769838Y-56530000D01*
X217760163Y-95849871D01*
G36*
X217760163Y-95849871D02*
G01*
X168300000Y-95840130D01*
X168300000Y-92235872D01*
X169977000Y-92235872D01*
X169977000Y-92676128D01*
X170062890Y-93107925D01*
X170231369Y-93514669D01*
X170475962Y-93880729D01*
X170787271Y-94192038D01*
X171153331Y-94436631D01*
X171560075Y-94605110D01*
X171991872Y-94691000D01*
X172432128Y-94691000D01*
X172863925Y-94605110D01*
X173270669Y-94436631D01*
X173636729Y-94192038D01*
X173948038Y-93880729D01*
X174192631Y-93514669D01*
X174361110Y-93107925D01*
X174447000Y-92676128D01*
X174447000Y-92235872D01*
X211633000Y-92235872D01*
X211633000Y-92676128D01*
X211718890Y-93107925D01*
X211887369Y-93514669D01*
X212131962Y-93880729D01*
X212443271Y-94192038D01*
X212809331Y-94436631D01*
X213216075Y-94605110D01*
X213647872Y-94691000D01*
X214088128Y-94691000D01*
X214519925Y-94605110D01*
X214926669Y-94436631D01*
X215292729Y-94192038D01*
X215604038Y-93880729D01*
X215848631Y-93514669D01*
X216017110Y-93107925D01*
X216103000Y-92676128D01*
X216103000Y-92235872D01*
X216017110Y-91804075D01*
X215848631Y-91397331D01*
X215604038Y-91031271D01*
X215292729Y-90719962D01*
X214926669Y-90475369D01*
X214519925Y-90306890D01*
X214088128Y-90221000D01*
X213647872Y-90221000D01*
X213216075Y-90306890D01*
X212809331Y-90475369D01*
X212443271Y-90719962D01*
X212131962Y-91031271D01*
X211887369Y-91397331D01*
X211718890Y-91804075D01*
X211633000Y-92235872D01*
X174447000Y-92235872D01*
X174361110Y-91804075D01*
X174192631Y-91397331D01*
X173948038Y-91031271D01*
X173636729Y-90719962D01*
X173270669Y-90475369D01*
X172863925Y-90306890D01*
X172432128Y-90221000D01*
X171991872Y-90221000D01*
X171560075Y-90306890D01*
X171153331Y-90475369D01*
X170787271Y-90719962D01*
X170475962Y-91031271D01*
X170231369Y-91397331D01*
X170062890Y-91804075D01*
X169977000Y-92235872D01*
X168300000Y-92235872D01*
X168300000Y-89559117D01*
X197875000Y-89559117D01*
X197875000Y-89900883D01*
X197941675Y-90236081D01*
X198072463Y-90551831D01*
X198262337Y-90835998D01*
X198504002Y-91077663D01*
X198788169Y-91267537D01*
X199103919Y-91398325D01*
X199439117Y-91465000D01*
X199780883Y-91465000D01*
X200116081Y-91398325D01*
X200431831Y-91267537D01*
X200715998Y-91077663D01*
X200957663Y-90835998D01*
X201147537Y-90551831D01*
X201278325Y-90236081D01*
X201345000Y-89900883D01*
X201345000Y-89559117D01*
X202904200Y-89559117D01*
X202904200Y-89900883D01*
X202970875Y-90236081D01*
X203101663Y-90551831D01*
X203291537Y-90835998D01*
X203533202Y-91077663D01*
X203817369Y-91267537D01*
X204133119Y-91398325D01*
X204468317Y-91465000D01*
X204810083Y-91465000D01*
X205145281Y-91398325D01*
X205461031Y-91267537D01*
X205745198Y-91077663D01*
X205986863Y-90835998D01*
X206176737Y-90551831D01*
X206307525Y-90236081D01*
X206374200Y-89900883D01*
X206374200Y-89559117D01*
X206307525Y-89223919D01*
X206176737Y-88908169D01*
X205986863Y-88624002D01*
X205745198Y-88382337D01*
X205461031Y-88192463D01*
X205145281Y-88061675D01*
X204810083Y-87995000D01*
X204468317Y-87995000D01*
X204133119Y-88061675D01*
X203817369Y-88192463D01*
X203533202Y-88382337D01*
X203291537Y-88624002D01*
X203101663Y-88908169D01*
X202970875Y-89223919D01*
X202904200Y-89559117D01*
X201345000Y-89559117D01*
X201278325Y-89223919D01*
X201147537Y-88908169D01*
X200957663Y-88624002D01*
X200715998Y-88382337D01*
X200431831Y-88192463D01*
X200116081Y-88061675D01*
X199780883Y-87995000D01*
X199439117Y-87995000D01*
X199103919Y-88061675D01*
X198788169Y-88192463D01*
X198504002Y-88382337D01*
X198262337Y-88624002D01*
X198072463Y-88908169D01*
X197941675Y-89223919D01*
X197875000Y-89559117D01*
X168300000Y-89559117D01*
X168300000Y-83081765D01*
X178460500Y-83081765D01*
X178460500Y-83364435D01*
X178515647Y-83641674D01*
X178623820Y-83902827D01*
X178780863Y-84137859D01*
X178980741Y-84337737D01*
X179215773Y-84494780D01*
X179476926Y-84602953D01*
X179754165Y-84658100D01*
X180036835Y-84658100D01*
X180314074Y-84602953D01*
X180575227Y-84494780D01*
X180810259Y-84337737D01*
X181010137Y-84137859D01*
X181167180Y-83902827D01*
X181275353Y-83641674D01*
X181289184Y-83572139D01*
X188663596Y-83572139D01*
X188704254Y-83706187D01*
X188824463Y-83960520D01*
X188991981Y-84186514D01*
X189200369Y-84375485D01*
X189441619Y-84520170D01*
X189706460Y-84615009D01*
X189928500Y-84493724D01*
X189928500Y-83350100D01*
X190182500Y-83350100D01*
X190182500Y-84493724D01*
X190404540Y-84615009D01*
X190669381Y-84520170D01*
X190910631Y-84375485D01*
X191119019Y-84186514D01*
X191286537Y-83960520D01*
X191406746Y-83706187D01*
X191447404Y-83572139D01*
X191325415Y-83350100D01*
X190182500Y-83350100D01*
X189928500Y-83350100D01*
X188785585Y-83350100D01*
X188663596Y-83572139D01*
X181289184Y-83572139D01*
X181330500Y-83364435D01*
X181330500Y-83081765D01*
X181289185Y-82874061D01*
X188663596Y-82874061D01*
X188785585Y-83096100D01*
X189928500Y-83096100D01*
X189928500Y-81952476D01*
X190182500Y-81952476D01*
X190182500Y-83096100D01*
X191325415Y-83096100D01*
X191447404Y-82874061D01*
X191406746Y-82740013D01*
X191316332Y-82548717D01*
X197875000Y-82548717D01*
X197875000Y-82890483D01*
X197941675Y-83225681D01*
X198072463Y-83541431D01*
X198262337Y-83825598D01*
X198504002Y-84067263D01*
X198788169Y-84257137D01*
X199103919Y-84387925D01*
X199439117Y-84454600D01*
X199780883Y-84454600D01*
X200116081Y-84387925D01*
X200431831Y-84257137D01*
X200715998Y-84067263D01*
X200957663Y-83825598D01*
X201147537Y-83541431D01*
X201278325Y-83225681D01*
X201345000Y-82890483D01*
X201345000Y-82548717D01*
X202904200Y-82548717D01*
X202904200Y-82890483D01*
X202970875Y-83225681D01*
X203101663Y-83541431D01*
X203291537Y-83825598D01*
X203533202Y-84067263D01*
X203817369Y-84257137D01*
X204133119Y-84387925D01*
X204468317Y-84454600D01*
X204810083Y-84454600D01*
X205145281Y-84387925D01*
X205461031Y-84257137D01*
X205745198Y-84067263D01*
X205986863Y-83825598D01*
X206176737Y-83541431D01*
X206307525Y-83225681D01*
X206374200Y-82890483D01*
X206374200Y-82548717D01*
X206307525Y-82213519D01*
X206176737Y-81897769D01*
X205986863Y-81613602D01*
X205745198Y-81371937D01*
X205461031Y-81182063D01*
X205145281Y-81051275D01*
X204810083Y-80984600D01*
X204468317Y-80984600D01*
X204133119Y-81051275D01*
X203817369Y-81182063D01*
X203533202Y-81371937D01*
X203291537Y-81613602D01*
X203101663Y-81897769D01*
X202970875Y-82213519D01*
X202904200Y-82548717D01*
X201345000Y-82548717D01*
X201278325Y-82213519D01*
X201147537Y-81897769D01*
X200957663Y-81613602D01*
X200715998Y-81371937D01*
X200431831Y-81182063D01*
X200116081Y-81051275D01*
X199780883Y-80984600D01*
X199439117Y-80984600D01*
X199103919Y-81051275D01*
X198788169Y-81182063D01*
X198504002Y-81371937D01*
X198262337Y-81613602D01*
X198072463Y-81897769D01*
X197941675Y-82213519D01*
X197875000Y-82548717D01*
X191316332Y-82548717D01*
X191286537Y-82485680D01*
X191119019Y-82259686D01*
X190910631Y-82070715D01*
X190669381Y-81926030D01*
X190404540Y-81831191D01*
X190182500Y-81952476D01*
X189928500Y-81952476D01*
X189706460Y-81831191D01*
X189441619Y-81926030D01*
X189200369Y-82070715D01*
X188991981Y-82259686D01*
X188824463Y-82485680D01*
X188704254Y-82740013D01*
X188663596Y-82874061D01*
X181289185Y-82874061D01*
X181275353Y-82804526D01*
X181167180Y-82543373D01*
X181010137Y-82308341D01*
X180810259Y-82108463D01*
X180575227Y-81951420D01*
X180314074Y-81843247D01*
X180036835Y-81788100D01*
X179754165Y-81788100D01*
X179476926Y-81843247D01*
X179215773Y-81951420D01*
X178980741Y-82108463D01*
X178780863Y-82308341D01*
X178623820Y-82543373D01*
X178515647Y-82804526D01*
X178460500Y-83081765D01*
X168300000Y-83081765D01*
X168300000Y-80779117D01*
X208465000Y-80779117D01*
X208465000Y-81120883D01*
X208531675Y-81456081D01*
X208662463Y-81771831D01*
X208852337Y-82055998D01*
X209094002Y-82297663D01*
X209378169Y-82487537D01*
X209693919Y-82618325D01*
X210029117Y-82685000D01*
X210370883Y-82685000D01*
X210706081Y-82618325D01*
X211021831Y-82487537D01*
X211305998Y-82297663D01*
X211547663Y-82055998D01*
X211737537Y-81771831D01*
X211868325Y-81456081D01*
X211935000Y-81120883D01*
X211935000Y-80779117D01*
X213494200Y-80779117D01*
X213494200Y-81120883D01*
X213560875Y-81456081D01*
X213691663Y-81771831D01*
X213881537Y-82055998D01*
X214123202Y-82297663D01*
X214407369Y-82487537D01*
X214723119Y-82618325D01*
X215058317Y-82685000D01*
X215400083Y-82685000D01*
X215735281Y-82618325D01*
X216051031Y-82487537D01*
X216335198Y-82297663D01*
X216576863Y-82055998D01*
X216766737Y-81771831D01*
X216897525Y-81456081D01*
X216964200Y-81120883D01*
X216964200Y-80779117D01*
X216897525Y-80443919D01*
X216766737Y-80128169D01*
X216576863Y-79844002D01*
X216335198Y-79602337D01*
X216051031Y-79412463D01*
X215735281Y-79281675D01*
X215400083Y-79215000D01*
X215058317Y-79215000D01*
X214723119Y-79281675D01*
X214407369Y-79412463D01*
X214123202Y-79602337D01*
X213881537Y-79844002D01*
X213691663Y-80128169D01*
X213560875Y-80443919D01*
X213494200Y-80779117D01*
X211935000Y-80779117D01*
X211868325Y-80443919D01*
X211737537Y-80128169D01*
X211547663Y-79844002D01*
X211305998Y-79602337D01*
X211021831Y-79412463D01*
X210706081Y-79281675D01*
X210370883Y-79215000D01*
X210029117Y-79215000D01*
X209693919Y-79281675D01*
X209378169Y-79412463D01*
X209094002Y-79602337D01*
X208852337Y-79844002D01*
X208662463Y-80128169D01*
X208531675Y-80443919D01*
X208465000Y-80779117D01*
X168300000Y-80779117D01*
X168300000Y-74490000D01*
X190917773Y-74490000D01*
X190946614Y-74782826D01*
X191032028Y-75064399D01*
X191170733Y-75323898D01*
X191357399Y-75551351D01*
X191459326Y-75635000D01*
X191357399Y-75718649D01*
X191170733Y-75946102D01*
X191032028Y-76205601D01*
X190946614Y-76487174D01*
X190917773Y-76780000D01*
X190946614Y-77072826D01*
X191032028Y-77354399D01*
X191170733Y-77613898D01*
X191219450Y-77673260D01*
X191205506Y-77680713D01*
X191108815Y-77760065D01*
X191029463Y-77856756D01*
X190970498Y-77967070D01*
X190934188Y-78086768D01*
X190921928Y-78211250D01*
X190921928Y-79928750D01*
X190934188Y-80053232D01*
X190970498Y-80172930D01*
X191029463Y-80283244D01*
X191108815Y-80379935D01*
X191205506Y-80459287D01*
X191315820Y-80518252D01*
X191435518Y-80554562D01*
X191560000Y-80566822D01*
X193360000Y-80566822D01*
X193484482Y-80554562D01*
X193604180Y-80518252D01*
X193714494Y-80459287D01*
X193811185Y-80379935D01*
X193890537Y-80283244D01*
X193949502Y-80172930D01*
X193985812Y-80053232D01*
X193998072Y-79928750D01*
X193998072Y-78211250D01*
X193985812Y-78086768D01*
X193949502Y-77967070D01*
X193890537Y-77856756D01*
X193811185Y-77760065D01*
X193714494Y-77680713D01*
X193700550Y-77673260D01*
X193749267Y-77613898D01*
X193887972Y-77354399D01*
X193973386Y-77072826D01*
X194002227Y-76780000D01*
X193973386Y-76487174D01*
X193887972Y-76205601D01*
X193749267Y-75946102D01*
X193562601Y-75718649D01*
X193460674Y-75635000D01*
X193562601Y-75551351D01*
X193749267Y-75323898D01*
X193887972Y-75064399D01*
X193973386Y-74782826D01*
X194002227Y-74490000D01*
X193973386Y-74197174D01*
X193887972Y-73915601D01*
X193749267Y-73656102D01*
X193562601Y-73428649D01*
X193426206Y-73316712D01*
X198622893Y-73316712D01*
X198730726Y-73591338D01*
X199037384Y-73742216D01*
X199367585Y-73830369D01*
X199708639Y-73852409D01*
X200047439Y-73807489D01*
X200370966Y-73697336D01*
X200569274Y-73591338D01*
X200677107Y-73316712D01*
X203652093Y-73316712D01*
X203759926Y-73591338D01*
X204066584Y-73742216D01*
X204396785Y-73830369D01*
X204737839Y-73852409D01*
X205076639Y-73807489D01*
X205190515Y-73768717D01*
X208465000Y-73768717D01*
X208465000Y-74110483D01*
X208531675Y-74445681D01*
X208662463Y-74761431D01*
X208852337Y-75045598D01*
X209094002Y-75287263D01*
X209378169Y-75477137D01*
X209693919Y-75607925D01*
X210029117Y-75674600D01*
X210370883Y-75674600D01*
X210706081Y-75607925D01*
X211021831Y-75477137D01*
X211305998Y-75287263D01*
X211547663Y-75045598D01*
X211737537Y-74761431D01*
X211868325Y-74445681D01*
X211935000Y-74110483D01*
X211935000Y-73768717D01*
X213494200Y-73768717D01*
X213494200Y-74110483D01*
X213560875Y-74445681D01*
X213691663Y-74761431D01*
X213881537Y-75045598D01*
X214123202Y-75287263D01*
X214407369Y-75477137D01*
X214723119Y-75607925D01*
X215058317Y-75674600D01*
X215400083Y-75674600D01*
X215735281Y-75607925D01*
X216051031Y-75477137D01*
X216335198Y-75287263D01*
X216576863Y-75045598D01*
X216766737Y-74761431D01*
X216897525Y-74445681D01*
X216964200Y-74110483D01*
X216964200Y-73768717D01*
X216897525Y-73433519D01*
X216766737Y-73117769D01*
X216576863Y-72833602D01*
X216335198Y-72591937D01*
X216051031Y-72402063D01*
X215735281Y-72271275D01*
X215400083Y-72204600D01*
X215058317Y-72204600D01*
X214723119Y-72271275D01*
X214407369Y-72402063D01*
X214123202Y-72591937D01*
X213881537Y-72833602D01*
X213691663Y-73117769D01*
X213560875Y-73433519D01*
X213494200Y-73768717D01*
X211935000Y-73768717D01*
X211868325Y-73433519D01*
X211737537Y-73117769D01*
X211547663Y-72833602D01*
X211305998Y-72591937D01*
X211021831Y-72402063D01*
X210706081Y-72271275D01*
X210370883Y-72204600D01*
X210029117Y-72204600D01*
X209693919Y-72271275D01*
X209378169Y-72402063D01*
X209094002Y-72591937D01*
X208852337Y-72833602D01*
X208662463Y-73117769D01*
X208531675Y-73433519D01*
X208465000Y-73768717D01*
X205190515Y-73768717D01*
X205400166Y-73697336D01*
X205598474Y-73591338D01*
X205706307Y-73316712D01*
X204679200Y-72289605D01*
X203652093Y-73316712D01*
X200677107Y-73316712D01*
X199650000Y-72289605D01*
X198622893Y-73316712D01*
X193426206Y-73316712D01*
X193335148Y-73241983D01*
X193075649Y-73103278D01*
X192794076Y-73017864D01*
X192574627Y-72996250D01*
X192345373Y-72996250D01*
X192125924Y-73017864D01*
X191844351Y-73103278D01*
X191584852Y-73241983D01*
X191357399Y-73428649D01*
X191170733Y-73656102D01*
X191032028Y-73915601D01*
X190946614Y-74197174D01*
X190917773Y-74490000D01*
X168300000Y-74490000D01*
X168300000Y-72168639D01*
X197907591Y-72168639D01*
X197952511Y-72507439D01*
X198062664Y-72830966D01*
X198168662Y-73029274D01*
X198443288Y-73137107D01*
X199470395Y-72110000D01*
X199829605Y-72110000D01*
X200856712Y-73137107D01*
X201131338Y-73029274D01*
X201282216Y-72722616D01*
X201370369Y-72392415D01*
X201384830Y-72168639D01*
X202936791Y-72168639D01*
X202981711Y-72507439D01*
X203091864Y-72830966D01*
X203197862Y-73029274D01*
X203472488Y-73137107D01*
X204499595Y-72110000D01*
X204858805Y-72110000D01*
X205885912Y-73137107D01*
X206160538Y-73029274D01*
X206311416Y-72722616D01*
X206399569Y-72392415D01*
X206421609Y-72051361D01*
X206376689Y-71712561D01*
X206266536Y-71389034D01*
X206160538Y-71190726D01*
X205885912Y-71082893D01*
X204858805Y-72110000D01*
X204499595Y-72110000D01*
X203472488Y-71082893D01*
X203197862Y-71190726D01*
X203046984Y-71497384D01*
X202958831Y-71827585D01*
X202936791Y-72168639D01*
X201384830Y-72168639D01*
X201392409Y-72051361D01*
X201347489Y-71712561D01*
X201237336Y-71389034D01*
X201131338Y-71190726D01*
X200856712Y-71082893D01*
X199829605Y-72110000D01*
X199470395Y-72110000D01*
X198443288Y-71082893D01*
X198168662Y-71190726D01*
X198017784Y-71497384D01*
X197929631Y-71827585D01*
X197907591Y-72168639D01*
X168300000Y-72168639D01*
X168300000Y-69937265D01*
X178574800Y-69937265D01*
X178574800Y-70219935D01*
X178629947Y-70497174D01*
X178738120Y-70758327D01*
X178895163Y-70993359D01*
X179095041Y-71193237D01*
X179330073Y-71350280D01*
X179591226Y-71458453D01*
X179868465Y-71513600D01*
X180151135Y-71513600D01*
X180428374Y-71458453D01*
X180689527Y-71350280D01*
X180924559Y-71193237D01*
X181124437Y-70993359D01*
X181281480Y-70758327D01*
X181389653Y-70497174D01*
X181403484Y-70427639D01*
X188777896Y-70427639D01*
X188818554Y-70561687D01*
X188938763Y-70816020D01*
X189106281Y-71042014D01*
X189314669Y-71230985D01*
X189555919Y-71375670D01*
X189820760Y-71470509D01*
X190042800Y-71349224D01*
X190042800Y-70205600D01*
X190296800Y-70205600D01*
X190296800Y-71349224D01*
X190518840Y-71470509D01*
X190783681Y-71375670D01*
X191024931Y-71230985D01*
X191233319Y-71042014D01*
X191336149Y-70903288D01*
X198622893Y-70903288D01*
X199650000Y-71930395D01*
X200677107Y-70903288D01*
X203652093Y-70903288D01*
X204679200Y-71930395D01*
X205706307Y-70903288D01*
X205598474Y-70628662D01*
X205291816Y-70477784D01*
X204961615Y-70389631D01*
X204620561Y-70367591D01*
X204281761Y-70412511D01*
X203958234Y-70522664D01*
X203759926Y-70628662D01*
X203652093Y-70903288D01*
X200677107Y-70903288D01*
X200569274Y-70628662D01*
X200262616Y-70477784D01*
X199932415Y-70389631D01*
X199591361Y-70367591D01*
X199252561Y-70412511D01*
X198929034Y-70522664D01*
X198730726Y-70628662D01*
X198622893Y-70903288D01*
X191336149Y-70903288D01*
X191400837Y-70816020D01*
X191521046Y-70561687D01*
X191561704Y-70427639D01*
X191439715Y-70205600D01*
X190296800Y-70205600D01*
X190042800Y-70205600D01*
X188899885Y-70205600D01*
X188777896Y-70427639D01*
X181403484Y-70427639D01*
X181444800Y-70219935D01*
X181444800Y-69937265D01*
X181403485Y-69729561D01*
X188777896Y-69729561D01*
X188899885Y-69951600D01*
X190042800Y-69951600D01*
X190042800Y-68807976D01*
X190296800Y-68807976D01*
X190296800Y-69951600D01*
X191439715Y-69951600D01*
X191561704Y-69729561D01*
X191521046Y-69595513D01*
X191400837Y-69341180D01*
X191233319Y-69115186D01*
X191024931Y-68926215D01*
X190783681Y-68781530D01*
X190518840Y-68686691D01*
X190296800Y-68807976D01*
X190042800Y-68807976D01*
X189820760Y-68686691D01*
X189555919Y-68781530D01*
X189314669Y-68926215D01*
X189106281Y-69115186D01*
X188938763Y-69341180D01*
X188818554Y-69595513D01*
X188777896Y-69729561D01*
X181403485Y-69729561D01*
X181389653Y-69660026D01*
X181281480Y-69398873D01*
X181124437Y-69163841D01*
X180924559Y-68963963D01*
X180689527Y-68806920D01*
X180428374Y-68698747D01*
X180151135Y-68643600D01*
X179868465Y-68643600D01*
X179591226Y-68698747D01*
X179330073Y-68806920D01*
X179095041Y-68963963D01*
X178895163Y-69163841D01*
X178738120Y-69398873D01*
X178629947Y-69660026D01*
X178574800Y-69937265D01*
X168300000Y-69937265D01*
X168300000Y-66306312D01*
X198622893Y-66306312D01*
X198730726Y-66580938D01*
X199037384Y-66731816D01*
X199367585Y-66819969D01*
X199708639Y-66842009D01*
X200047439Y-66797089D01*
X200370966Y-66686936D01*
X200569274Y-66580938D01*
X200677107Y-66306312D01*
X203652093Y-66306312D01*
X203759926Y-66580938D01*
X204066584Y-66731816D01*
X204396785Y-66819969D01*
X204737839Y-66842009D01*
X205076639Y-66797089D01*
X205400166Y-66686936D01*
X205598474Y-66580938D01*
X205706307Y-66306312D01*
X204679200Y-65279205D01*
X203652093Y-66306312D01*
X200677107Y-66306312D01*
X199650000Y-65279205D01*
X198622893Y-66306312D01*
X168300000Y-66306312D01*
X168300000Y-65158239D01*
X197907591Y-65158239D01*
X197952511Y-65497039D01*
X198062664Y-65820566D01*
X198168662Y-66018874D01*
X198443288Y-66126707D01*
X199470395Y-65099600D01*
X199829605Y-65099600D01*
X200856712Y-66126707D01*
X201131338Y-66018874D01*
X201282216Y-65712216D01*
X201370369Y-65382015D01*
X201384830Y-65158239D01*
X202936791Y-65158239D01*
X202981711Y-65497039D01*
X203091864Y-65820566D01*
X203197862Y-66018874D01*
X203472488Y-66126707D01*
X204499595Y-65099600D01*
X204858805Y-65099600D01*
X205885912Y-66126707D01*
X206160538Y-66018874D01*
X206311416Y-65712216D01*
X206399569Y-65382015D01*
X206421609Y-65040961D01*
X206376689Y-64702161D01*
X206266536Y-64378634D01*
X206160538Y-64180326D01*
X205885912Y-64072493D01*
X204858805Y-65099600D01*
X204499595Y-65099600D01*
X203472488Y-64072493D01*
X203197862Y-64180326D01*
X203046984Y-64486984D01*
X202958831Y-64817185D01*
X202936791Y-65158239D01*
X201384830Y-65158239D01*
X201392409Y-65040961D01*
X201347489Y-64702161D01*
X201237336Y-64378634D01*
X201131338Y-64180326D01*
X200856712Y-64072493D01*
X199829605Y-65099600D01*
X199470395Y-65099600D01*
X198443288Y-64072493D01*
X198168662Y-64180326D01*
X198017784Y-64486984D01*
X197929631Y-64817185D01*
X197907591Y-65158239D01*
X168300000Y-65158239D01*
X168300000Y-63892888D01*
X198622893Y-63892888D01*
X199650000Y-64919995D01*
X200677107Y-63892888D01*
X203652093Y-63892888D01*
X204679200Y-64919995D01*
X205706307Y-63892888D01*
X205598474Y-63618262D01*
X205291816Y-63467384D01*
X204961615Y-63379231D01*
X204620561Y-63357191D01*
X204281761Y-63402111D01*
X203958234Y-63512264D01*
X203759926Y-63618262D01*
X203652093Y-63892888D01*
X200677107Y-63892888D01*
X200569274Y-63618262D01*
X200262616Y-63467384D01*
X199932415Y-63379231D01*
X199591361Y-63357191D01*
X199252561Y-63402111D01*
X198929034Y-63512264D01*
X198730726Y-63618262D01*
X198622893Y-63892888D01*
X168300000Y-63892888D01*
X168300000Y-59723872D01*
X169977000Y-59723872D01*
X169977000Y-60164128D01*
X170062890Y-60595925D01*
X170231369Y-61002669D01*
X170475962Y-61368729D01*
X170787271Y-61680038D01*
X171153331Y-61924631D01*
X171560075Y-62093110D01*
X171991872Y-62179000D01*
X172432128Y-62179000D01*
X172863925Y-62093110D01*
X173270669Y-61924631D01*
X173636729Y-61680038D01*
X173948038Y-61368729D01*
X174192631Y-61002669D01*
X174361110Y-60595925D01*
X174447000Y-60164128D01*
X174447000Y-59723872D01*
X211633000Y-59723872D01*
X211633000Y-60164128D01*
X211718890Y-60595925D01*
X211887369Y-61002669D01*
X212131962Y-61368729D01*
X212443271Y-61680038D01*
X212809331Y-61924631D01*
X213216075Y-62093110D01*
X213647872Y-62179000D01*
X214088128Y-62179000D01*
X214519925Y-62093110D01*
X214926669Y-61924631D01*
X215292729Y-61680038D01*
X215604038Y-61368729D01*
X215848631Y-61002669D01*
X216017110Y-60595925D01*
X216103000Y-60164128D01*
X216103000Y-59723872D01*
X216017110Y-59292075D01*
X215848631Y-58885331D01*
X215604038Y-58519271D01*
X215292729Y-58207962D01*
X214926669Y-57963369D01*
X214519925Y-57794890D01*
X214088128Y-57709000D01*
X213647872Y-57709000D01*
X213216075Y-57794890D01*
X212809331Y-57963369D01*
X212443271Y-58207962D01*
X212131962Y-58519271D01*
X211887369Y-58885331D01*
X211718890Y-59292075D01*
X211633000Y-59723872D01*
X174447000Y-59723872D01*
X174361110Y-59292075D01*
X174192631Y-58885331D01*
X173948038Y-58519271D01*
X173636729Y-58207962D01*
X173270669Y-57963369D01*
X172863925Y-57794890D01*
X172432128Y-57709000D01*
X171991872Y-57709000D01*
X171560075Y-57794890D01*
X171153331Y-57963369D01*
X170787271Y-58207962D01*
X170475962Y-58519271D01*
X170231369Y-58885331D01*
X170062890Y-59292075D01*
X169977000Y-59723872D01*
X168300000Y-59723872D01*
X168300000Y-56530000D01*
X217769838Y-56530000D01*
X217760163Y-95849871D01*
G37*
X217760163Y-95849871D02*
X168300000Y-95840130D01*
X168300000Y-92235872D01*
X169977000Y-92235872D01*
X169977000Y-92676128D01*
X170062890Y-93107925D01*
X170231369Y-93514669D01*
X170475962Y-93880729D01*
X170787271Y-94192038D01*
X171153331Y-94436631D01*
X171560075Y-94605110D01*
X171991872Y-94691000D01*
X172432128Y-94691000D01*
X172863925Y-94605110D01*
X173270669Y-94436631D01*
X173636729Y-94192038D01*
X173948038Y-93880729D01*
X174192631Y-93514669D01*
X174361110Y-93107925D01*
X174447000Y-92676128D01*
X174447000Y-92235872D01*
X211633000Y-92235872D01*
X211633000Y-92676128D01*
X211718890Y-93107925D01*
X211887369Y-93514669D01*
X212131962Y-93880729D01*
X212443271Y-94192038D01*
X212809331Y-94436631D01*
X213216075Y-94605110D01*
X213647872Y-94691000D01*
X214088128Y-94691000D01*
X214519925Y-94605110D01*
X214926669Y-94436631D01*
X215292729Y-94192038D01*
X215604038Y-93880729D01*
X215848631Y-93514669D01*
X216017110Y-93107925D01*
X216103000Y-92676128D01*
X216103000Y-92235872D01*
X216017110Y-91804075D01*
X215848631Y-91397331D01*
X215604038Y-91031271D01*
X215292729Y-90719962D01*
X214926669Y-90475369D01*
X214519925Y-90306890D01*
X214088128Y-90221000D01*
X213647872Y-90221000D01*
X213216075Y-90306890D01*
X212809331Y-90475369D01*
X212443271Y-90719962D01*
X212131962Y-91031271D01*
X211887369Y-91397331D01*
X211718890Y-91804075D01*
X211633000Y-92235872D01*
X174447000Y-92235872D01*
X174361110Y-91804075D01*
X174192631Y-91397331D01*
X173948038Y-91031271D01*
X173636729Y-90719962D01*
X173270669Y-90475369D01*
X172863925Y-90306890D01*
X172432128Y-90221000D01*
X171991872Y-90221000D01*
X171560075Y-90306890D01*
X171153331Y-90475369D01*
X170787271Y-90719962D01*
X170475962Y-91031271D01*
X170231369Y-91397331D01*
X170062890Y-91804075D01*
X169977000Y-92235872D01*
X168300000Y-92235872D01*
X168300000Y-89559117D01*
X197875000Y-89559117D01*
X197875000Y-89900883D01*
X197941675Y-90236081D01*
X198072463Y-90551831D01*
X198262337Y-90835998D01*
X198504002Y-91077663D01*
X198788169Y-91267537D01*
X199103919Y-91398325D01*
X199439117Y-91465000D01*
X199780883Y-91465000D01*
X200116081Y-91398325D01*
X200431831Y-91267537D01*
X200715998Y-91077663D01*
X200957663Y-90835998D01*
X201147537Y-90551831D01*
X201278325Y-90236081D01*
X201345000Y-89900883D01*
X201345000Y-89559117D01*
X202904200Y-89559117D01*
X202904200Y-89900883D01*
X202970875Y-90236081D01*
X203101663Y-90551831D01*
X203291537Y-90835998D01*
X203533202Y-91077663D01*
X203817369Y-91267537D01*
X204133119Y-91398325D01*
X204468317Y-91465000D01*
X204810083Y-91465000D01*
X205145281Y-91398325D01*
X205461031Y-91267537D01*
X205745198Y-91077663D01*
X205986863Y-90835998D01*
X206176737Y-90551831D01*
X206307525Y-90236081D01*
X206374200Y-89900883D01*
X206374200Y-89559117D01*
X206307525Y-89223919D01*
X206176737Y-88908169D01*
X205986863Y-88624002D01*
X205745198Y-88382337D01*
X205461031Y-88192463D01*
X205145281Y-88061675D01*
X204810083Y-87995000D01*
X204468317Y-87995000D01*
X204133119Y-88061675D01*
X203817369Y-88192463D01*
X203533202Y-88382337D01*
X203291537Y-88624002D01*
X203101663Y-88908169D01*
X202970875Y-89223919D01*
X202904200Y-89559117D01*
X201345000Y-89559117D01*
X201278325Y-89223919D01*
X201147537Y-88908169D01*
X200957663Y-88624002D01*
X200715998Y-88382337D01*
X200431831Y-88192463D01*
X200116081Y-88061675D01*
X199780883Y-87995000D01*
X199439117Y-87995000D01*
X199103919Y-88061675D01*
X198788169Y-88192463D01*
X198504002Y-88382337D01*
X198262337Y-88624002D01*
X198072463Y-88908169D01*
X197941675Y-89223919D01*
X197875000Y-89559117D01*
X168300000Y-89559117D01*
X168300000Y-83081765D01*
X178460500Y-83081765D01*
X178460500Y-83364435D01*
X178515647Y-83641674D01*
X178623820Y-83902827D01*
X178780863Y-84137859D01*
X178980741Y-84337737D01*
X179215773Y-84494780D01*
X179476926Y-84602953D01*
X179754165Y-84658100D01*
X180036835Y-84658100D01*
X180314074Y-84602953D01*
X180575227Y-84494780D01*
X180810259Y-84337737D01*
X181010137Y-84137859D01*
X181167180Y-83902827D01*
X181275353Y-83641674D01*
X181289184Y-83572139D01*
X188663596Y-83572139D01*
X188704254Y-83706187D01*
X188824463Y-83960520D01*
X188991981Y-84186514D01*
X189200369Y-84375485D01*
X189441619Y-84520170D01*
X189706460Y-84615009D01*
X189928500Y-84493724D01*
X189928500Y-83350100D01*
X190182500Y-83350100D01*
X190182500Y-84493724D01*
X190404540Y-84615009D01*
X190669381Y-84520170D01*
X190910631Y-84375485D01*
X191119019Y-84186514D01*
X191286537Y-83960520D01*
X191406746Y-83706187D01*
X191447404Y-83572139D01*
X191325415Y-83350100D01*
X190182500Y-83350100D01*
X189928500Y-83350100D01*
X188785585Y-83350100D01*
X188663596Y-83572139D01*
X181289184Y-83572139D01*
X181330500Y-83364435D01*
X181330500Y-83081765D01*
X181289185Y-82874061D01*
X188663596Y-82874061D01*
X188785585Y-83096100D01*
X189928500Y-83096100D01*
X189928500Y-81952476D01*
X190182500Y-81952476D01*
X190182500Y-83096100D01*
X191325415Y-83096100D01*
X191447404Y-82874061D01*
X191406746Y-82740013D01*
X191316332Y-82548717D01*
X197875000Y-82548717D01*
X197875000Y-82890483D01*
X197941675Y-83225681D01*
X198072463Y-83541431D01*
X198262337Y-83825598D01*
X198504002Y-84067263D01*
X198788169Y-84257137D01*
X199103919Y-84387925D01*
X199439117Y-84454600D01*
X199780883Y-84454600D01*
X200116081Y-84387925D01*
X200431831Y-84257137D01*
X200715998Y-84067263D01*
X200957663Y-83825598D01*
X201147537Y-83541431D01*
X201278325Y-83225681D01*
X201345000Y-82890483D01*
X201345000Y-82548717D01*
X202904200Y-82548717D01*
X202904200Y-82890483D01*
X202970875Y-83225681D01*
X203101663Y-83541431D01*
X203291537Y-83825598D01*
X203533202Y-84067263D01*
X203817369Y-84257137D01*
X204133119Y-84387925D01*
X204468317Y-84454600D01*
X204810083Y-84454600D01*
X205145281Y-84387925D01*
X205461031Y-84257137D01*
X205745198Y-84067263D01*
X205986863Y-83825598D01*
X206176737Y-83541431D01*
X206307525Y-83225681D01*
X206374200Y-82890483D01*
X206374200Y-82548717D01*
X206307525Y-82213519D01*
X206176737Y-81897769D01*
X205986863Y-81613602D01*
X205745198Y-81371937D01*
X205461031Y-81182063D01*
X205145281Y-81051275D01*
X204810083Y-80984600D01*
X204468317Y-80984600D01*
X204133119Y-81051275D01*
X203817369Y-81182063D01*
X203533202Y-81371937D01*
X203291537Y-81613602D01*
X203101663Y-81897769D01*
X202970875Y-82213519D01*
X202904200Y-82548717D01*
X201345000Y-82548717D01*
X201278325Y-82213519D01*
X201147537Y-81897769D01*
X200957663Y-81613602D01*
X200715998Y-81371937D01*
X200431831Y-81182063D01*
X200116081Y-81051275D01*
X199780883Y-80984600D01*
X199439117Y-80984600D01*
X199103919Y-81051275D01*
X198788169Y-81182063D01*
X198504002Y-81371937D01*
X198262337Y-81613602D01*
X198072463Y-81897769D01*
X197941675Y-82213519D01*
X197875000Y-82548717D01*
X191316332Y-82548717D01*
X191286537Y-82485680D01*
X191119019Y-82259686D01*
X190910631Y-82070715D01*
X190669381Y-81926030D01*
X190404540Y-81831191D01*
X190182500Y-81952476D01*
X189928500Y-81952476D01*
X189706460Y-81831191D01*
X189441619Y-81926030D01*
X189200369Y-82070715D01*
X188991981Y-82259686D01*
X188824463Y-82485680D01*
X188704254Y-82740013D01*
X188663596Y-82874061D01*
X181289185Y-82874061D01*
X181275353Y-82804526D01*
X181167180Y-82543373D01*
X181010137Y-82308341D01*
X180810259Y-82108463D01*
X180575227Y-81951420D01*
X180314074Y-81843247D01*
X180036835Y-81788100D01*
X179754165Y-81788100D01*
X179476926Y-81843247D01*
X179215773Y-81951420D01*
X178980741Y-82108463D01*
X178780863Y-82308341D01*
X178623820Y-82543373D01*
X178515647Y-82804526D01*
X178460500Y-83081765D01*
X168300000Y-83081765D01*
X168300000Y-80779117D01*
X208465000Y-80779117D01*
X208465000Y-81120883D01*
X208531675Y-81456081D01*
X208662463Y-81771831D01*
X208852337Y-82055998D01*
X209094002Y-82297663D01*
X209378169Y-82487537D01*
X209693919Y-82618325D01*
X210029117Y-82685000D01*
X210370883Y-82685000D01*
X210706081Y-82618325D01*
X211021831Y-82487537D01*
X211305998Y-82297663D01*
X211547663Y-82055998D01*
X211737537Y-81771831D01*
X211868325Y-81456081D01*
X211935000Y-81120883D01*
X211935000Y-80779117D01*
X213494200Y-80779117D01*
X213494200Y-81120883D01*
X213560875Y-81456081D01*
X213691663Y-81771831D01*
X213881537Y-82055998D01*
X214123202Y-82297663D01*
X214407369Y-82487537D01*
X214723119Y-82618325D01*
X215058317Y-82685000D01*
X215400083Y-82685000D01*
X215735281Y-82618325D01*
X216051031Y-82487537D01*
X216335198Y-82297663D01*
X216576863Y-82055998D01*
X216766737Y-81771831D01*
X216897525Y-81456081D01*
X216964200Y-81120883D01*
X216964200Y-80779117D01*
X216897525Y-80443919D01*
X216766737Y-80128169D01*
X216576863Y-79844002D01*
X216335198Y-79602337D01*
X216051031Y-79412463D01*
X215735281Y-79281675D01*
X215400083Y-79215000D01*
X215058317Y-79215000D01*
X214723119Y-79281675D01*
X214407369Y-79412463D01*
X214123202Y-79602337D01*
X213881537Y-79844002D01*
X213691663Y-80128169D01*
X213560875Y-80443919D01*
X213494200Y-80779117D01*
X211935000Y-80779117D01*
X211868325Y-80443919D01*
X211737537Y-80128169D01*
X211547663Y-79844002D01*
X211305998Y-79602337D01*
X211021831Y-79412463D01*
X210706081Y-79281675D01*
X210370883Y-79215000D01*
X210029117Y-79215000D01*
X209693919Y-79281675D01*
X209378169Y-79412463D01*
X209094002Y-79602337D01*
X208852337Y-79844002D01*
X208662463Y-80128169D01*
X208531675Y-80443919D01*
X208465000Y-80779117D01*
X168300000Y-80779117D01*
X168300000Y-74490000D01*
X190917773Y-74490000D01*
X190946614Y-74782826D01*
X191032028Y-75064399D01*
X191170733Y-75323898D01*
X191357399Y-75551351D01*
X191459326Y-75635000D01*
X191357399Y-75718649D01*
X191170733Y-75946102D01*
X191032028Y-76205601D01*
X190946614Y-76487174D01*
X190917773Y-76780000D01*
X190946614Y-77072826D01*
X191032028Y-77354399D01*
X191170733Y-77613898D01*
X191219450Y-77673260D01*
X191205506Y-77680713D01*
X191108815Y-77760065D01*
X191029463Y-77856756D01*
X190970498Y-77967070D01*
X190934188Y-78086768D01*
X190921928Y-78211250D01*
X190921928Y-79928750D01*
X190934188Y-80053232D01*
X190970498Y-80172930D01*
X191029463Y-80283244D01*
X191108815Y-80379935D01*
X191205506Y-80459287D01*
X191315820Y-80518252D01*
X191435518Y-80554562D01*
X191560000Y-80566822D01*
X193360000Y-80566822D01*
X193484482Y-80554562D01*
X193604180Y-80518252D01*
X193714494Y-80459287D01*
X193811185Y-80379935D01*
X193890537Y-80283244D01*
X193949502Y-80172930D01*
X193985812Y-80053232D01*
X193998072Y-79928750D01*
X193998072Y-78211250D01*
X193985812Y-78086768D01*
X193949502Y-77967070D01*
X193890537Y-77856756D01*
X193811185Y-77760065D01*
X193714494Y-77680713D01*
X193700550Y-77673260D01*
X193749267Y-77613898D01*
X193887972Y-77354399D01*
X193973386Y-77072826D01*
X194002227Y-76780000D01*
X193973386Y-76487174D01*
X193887972Y-76205601D01*
X193749267Y-75946102D01*
X193562601Y-75718649D01*
X193460674Y-75635000D01*
X193562601Y-75551351D01*
X193749267Y-75323898D01*
X193887972Y-75064399D01*
X193973386Y-74782826D01*
X194002227Y-74490000D01*
X193973386Y-74197174D01*
X193887972Y-73915601D01*
X193749267Y-73656102D01*
X193562601Y-73428649D01*
X193426206Y-73316712D01*
X198622893Y-73316712D01*
X198730726Y-73591338D01*
X199037384Y-73742216D01*
X199367585Y-73830369D01*
X199708639Y-73852409D01*
X200047439Y-73807489D01*
X200370966Y-73697336D01*
X200569274Y-73591338D01*
X200677107Y-73316712D01*
X203652093Y-73316712D01*
X203759926Y-73591338D01*
X204066584Y-73742216D01*
X204396785Y-73830369D01*
X204737839Y-73852409D01*
X205076639Y-73807489D01*
X205190515Y-73768717D01*
X208465000Y-73768717D01*
X208465000Y-74110483D01*
X208531675Y-74445681D01*
X208662463Y-74761431D01*
X208852337Y-75045598D01*
X209094002Y-75287263D01*
X209378169Y-75477137D01*
X209693919Y-75607925D01*
X210029117Y-75674600D01*
X210370883Y-75674600D01*
X210706081Y-75607925D01*
X211021831Y-75477137D01*
X211305998Y-75287263D01*
X211547663Y-75045598D01*
X211737537Y-74761431D01*
X211868325Y-74445681D01*
X211935000Y-74110483D01*
X211935000Y-73768717D01*
X213494200Y-73768717D01*
X213494200Y-74110483D01*
X213560875Y-74445681D01*
X213691663Y-74761431D01*
X213881537Y-75045598D01*
X214123202Y-75287263D01*
X214407369Y-75477137D01*
X214723119Y-75607925D01*
X215058317Y-75674600D01*
X215400083Y-75674600D01*
X215735281Y-75607925D01*
X216051031Y-75477137D01*
X216335198Y-75287263D01*
X216576863Y-75045598D01*
X216766737Y-74761431D01*
X216897525Y-74445681D01*
X216964200Y-74110483D01*
X216964200Y-73768717D01*
X216897525Y-73433519D01*
X216766737Y-73117769D01*
X216576863Y-72833602D01*
X216335198Y-72591937D01*
X216051031Y-72402063D01*
X215735281Y-72271275D01*
X215400083Y-72204600D01*
X215058317Y-72204600D01*
X214723119Y-72271275D01*
X214407369Y-72402063D01*
X214123202Y-72591937D01*
X213881537Y-72833602D01*
X213691663Y-73117769D01*
X213560875Y-73433519D01*
X213494200Y-73768717D01*
X211935000Y-73768717D01*
X211868325Y-73433519D01*
X211737537Y-73117769D01*
X211547663Y-72833602D01*
X211305998Y-72591937D01*
X211021831Y-72402063D01*
X210706081Y-72271275D01*
X210370883Y-72204600D01*
X210029117Y-72204600D01*
X209693919Y-72271275D01*
X209378169Y-72402063D01*
X209094002Y-72591937D01*
X208852337Y-72833602D01*
X208662463Y-73117769D01*
X208531675Y-73433519D01*
X208465000Y-73768717D01*
X205190515Y-73768717D01*
X205400166Y-73697336D01*
X205598474Y-73591338D01*
X205706307Y-73316712D01*
X204679200Y-72289605D01*
X203652093Y-73316712D01*
X200677107Y-73316712D01*
X199650000Y-72289605D01*
X198622893Y-73316712D01*
X193426206Y-73316712D01*
X193335148Y-73241983D01*
X193075649Y-73103278D01*
X192794076Y-73017864D01*
X192574627Y-72996250D01*
X192345373Y-72996250D01*
X192125924Y-73017864D01*
X191844351Y-73103278D01*
X191584852Y-73241983D01*
X191357399Y-73428649D01*
X191170733Y-73656102D01*
X191032028Y-73915601D01*
X190946614Y-74197174D01*
X190917773Y-74490000D01*
X168300000Y-74490000D01*
X168300000Y-72168639D01*
X197907591Y-72168639D01*
X197952511Y-72507439D01*
X198062664Y-72830966D01*
X198168662Y-73029274D01*
X198443288Y-73137107D01*
X199470395Y-72110000D01*
X199829605Y-72110000D01*
X200856712Y-73137107D01*
X201131338Y-73029274D01*
X201282216Y-72722616D01*
X201370369Y-72392415D01*
X201384830Y-72168639D01*
X202936791Y-72168639D01*
X202981711Y-72507439D01*
X203091864Y-72830966D01*
X203197862Y-73029274D01*
X203472488Y-73137107D01*
X204499595Y-72110000D01*
X204858805Y-72110000D01*
X205885912Y-73137107D01*
X206160538Y-73029274D01*
X206311416Y-72722616D01*
X206399569Y-72392415D01*
X206421609Y-72051361D01*
X206376689Y-71712561D01*
X206266536Y-71389034D01*
X206160538Y-71190726D01*
X205885912Y-71082893D01*
X204858805Y-72110000D01*
X204499595Y-72110000D01*
X203472488Y-71082893D01*
X203197862Y-71190726D01*
X203046984Y-71497384D01*
X202958831Y-71827585D01*
X202936791Y-72168639D01*
X201384830Y-72168639D01*
X201392409Y-72051361D01*
X201347489Y-71712561D01*
X201237336Y-71389034D01*
X201131338Y-71190726D01*
X200856712Y-71082893D01*
X199829605Y-72110000D01*
X199470395Y-72110000D01*
X198443288Y-71082893D01*
X198168662Y-71190726D01*
X198017784Y-71497384D01*
X197929631Y-71827585D01*
X197907591Y-72168639D01*
X168300000Y-72168639D01*
X168300000Y-69937265D01*
X178574800Y-69937265D01*
X178574800Y-70219935D01*
X178629947Y-70497174D01*
X178738120Y-70758327D01*
X178895163Y-70993359D01*
X179095041Y-71193237D01*
X179330073Y-71350280D01*
X179591226Y-71458453D01*
X179868465Y-71513600D01*
X180151135Y-71513600D01*
X180428374Y-71458453D01*
X180689527Y-71350280D01*
X180924559Y-71193237D01*
X181124437Y-70993359D01*
X181281480Y-70758327D01*
X181389653Y-70497174D01*
X181403484Y-70427639D01*
X188777896Y-70427639D01*
X188818554Y-70561687D01*
X188938763Y-70816020D01*
X189106281Y-71042014D01*
X189314669Y-71230985D01*
X189555919Y-71375670D01*
X189820760Y-71470509D01*
X190042800Y-71349224D01*
X190042800Y-70205600D01*
X190296800Y-70205600D01*
X190296800Y-71349224D01*
X190518840Y-71470509D01*
X190783681Y-71375670D01*
X191024931Y-71230985D01*
X191233319Y-71042014D01*
X191336149Y-70903288D01*
X198622893Y-70903288D01*
X199650000Y-71930395D01*
X200677107Y-70903288D01*
X203652093Y-70903288D01*
X204679200Y-71930395D01*
X205706307Y-70903288D01*
X205598474Y-70628662D01*
X205291816Y-70477784D01*
X204961615Y-70389631D01*
X204620561Y-70367591D01*
X204281761Y-70412511D01*
X203958234Y-70522664D01*
X203759926Y-70628662D01*
X203652093Y-70903288D01*
X200677107Y-70903288D01*
X200569274Y-70628662D01*
X200262616Y-70477784D01*
X199932415Y-70389631D01*
X199591361Y-70367591D01*
X199252561Y-70412511D01*
X198929034Y-70522664D01*
X198730726Y-70628662D01*
X198622893Y-70903288D01*
X191336149Y-70903288D01*
X191400837Y-70816020D01*
X191521046Y-70561687D01*
X191561704Y-70427639D01*
X191439715Y-70205600D01*
X190296800Y-70205600D01*
X190042800Y-70205600D01*
X188899885Y-70205600D01*
X188777896Y-70427639D01*
X181403484Y-70427639D01*
X181444800Y-70219935D01*
X181444800Y-69937265D01*
X181403485Y-69729561D01*
X188777896Y-69729561D01*
X188899885Y-69951600D01*
X190042800Y-69951600D01*
X190042800Y-68807976D01*
X190296800Y-68807976D01*
X190296800Y-69951600D01*
X191439715Y-69951600D01*
X191561704Y-69729561D01*
X191521046Y-69595513D01*
X191400837Y-69341180D01*
X191233319Y-69115186D01*
X191024931Y-68926215D01*
X190783681Y-68781530D01*
X190518840Y-68686691D01*
X190296800Y-68807976D01*
X190042800Y-68807976D01*
X189820760Y-68686691D01*
X189555919Y-68781530D01*
X189314669Y-68926215D01*
X189106281Y-69115186D01*
X188938763Y-69341180D01*
X188818554Y-69595513D01*
X188777896Y-69729561D01*
X181403485Y-69729561D01*
X181389653Y-69660026D01*
X181281480Y-69398873D01*
X181124437Y-69163841D01*
X180924559Y-68963963D01*
X180689527Y-68806920D01*
X180428374Y-68698747D01*
X180151135Y-68643600D01*
X179868465Y-68643600D01*
X179591226Y-68698747D01*
X179330073Y-68806920D01*
X179095041Y-68963963D01*
X178895163Y-69163841D01*
X178738120Y-69398873D01*
X178629947Y-69660026D01*
X178574800Y-69937265D01*
X168300000Y-69937265D01*
X168300000Y-66306312D01*
X198622893Y-66306312D01*
X198730726Y-66580938D01*
X199037384Y-66731816D01*
X199367585Y-66819969D01*
X199708639Y-66842009D01*
X200047439Y-66797089D01*
X200370966Y-66686936D01*
X200569274Y-66580938D01*
X200677107Y-66306312D01*
X203652093Y-66306312D01*
X203759926Y-66580938D01*
X204066584Y-66731816D01*
X204396785Y-66819969D01*
X204737839Y-66842009D01*
X205076639Y-66797089D01*
X205400166Y-66686936D01*
X205598474Y-66580938D01*
X205706307Y-66306312D01*
X204679200Y-65279205D01*
X203652093Y-66306312D01*
X200677107Y-66306312D01*
X199650000Y-65279205D01*
X198622893Y-66306312D01*
X168300000Y-66306312D01*
X168300000Y-65158239D01*
X197907591Y-65158239D01*
X197952511Y-65497039D01*
X198062664Y-65820566D01*
X198168662Y-66018874D01*
X198443288Y-66126707D01*
X199470395Y-65099600D01*
X199829605Y-65099600D01*
X200856712Y-66126707D01*
X201131338Y-66018874D01*
X201282216Y-65712216D01*
X201370369Y-65382015D01*
X201384830Y-65158239D01*
X202936791Y-65158239D01*
X202981711Y-65497039D01*
X203091864Y-65820566D01*
X203197862Y-66018874D01*
X203472488Y-66126707D01*
X204499595Y-65099600D01*
X204858805Y-65099600D01*
X205885912Y-66126707D01*
X206160538Y-66018874D01*
X206311416Y-65712216D01*
X206399569Y-65382015D01*
X206421609Y-65040961D01*
X206376689Y-64702161D01*
X206266536Y-64378634D01*
X206160538Y-64180326D01*
X205885912Y-64072493D01*
X204858805Y-65099600D01*
X204499595Y-65099600D01*
X203472488Y-64072493D01*
X203197862Y-64180326D01*
X203046984Y-64486984D01*
X202958831Y-64817185D01*
X202936791Y-65158239D01*
X201384830Y-65158239D01*
X201392409Y-65040961D01*
X201347489Y-64702161D01*
X201237336Y-64378634D01*
X201131338Y-64180326D01*
X200856712Y-64072493D01*
X199829605Y-65099600D01*
X199470395Y-65099600D01*
X198443288Y-64072493D01*
X198168662Y-64180326D01*
X198017784Y-64486984D01*
X197929631Y-64817185D01*
X197907591Y-65158239D01*
X168300000Y-65158239D01*
X168300000Y-63892888D01*
X198622893Y-63892888D01*
X199650000Y-64919995D01*
X200677107Y-63892888D01*
X203652093Y-63892888D01*
X204679200Y-64919995D01*
X205706307Y-63892888D01*
X205598474Y-63618262D01*
X205291816Y-63467384D01*
X204961615Y-63379231D01*
X204620561Y-63357191D01*
X204281761Y-63402111D01*
X203958234Y-63512264D01*
X203759926Y-63618262D01*
X203652093Y-63892888D01*
X200677107Y-63892888D01*
X200569274Y-63618262D01*
X200262616Y-63467384D01*
X199932415Y-63379231D01*
X199591361Y-63357191D01*
X199252561Y-63402111D01*
X198929034Y-63512264D01*
X198730726Y-63618262D01*
X198622893Y-63892888D01*
X168300000Y-63892888D01*
X168300000Y-59723872D01*
X169977000Y-59723872D01*
X169977000Y-60164128D01*
X170062890Y-60595925D01*
X170231369Y-61002669D01*
X170475962Y-61368729D01*
X170787271Y-61680038D01*
X171153331Y-61924631D01*
X171560075Y-62093110D01*
X171991872Y-62179000D01*
X172432128Y-62179000D01*
X172863925Y-62093110D01*
X173270669Y-61924631D01*
X173636729Y-61680038D01*
X173948038Y-61368729D01*
X174192631Y-61002669D01*
X174361110Y-60595925D01*
X174447000Y-60164128D01*
X174447000Y-59723872D01*
X211633000Y-59723872D01*
X211633000Y-60164128D01*
X211718890Y-60595925D01*
X211887369Y-61002669D01*
X212131962Y-61368729D01*
X212443271Y-61680038D01*
X212809331Y-61924631D01*
X213216075Y-62093110D01*
X213647872Y-62179000D01*
X214088128Y-62179000D01*
X214519925Y-62093110D01*
X214926669Y-61924631D01*
X215292729Y-61680038D01*
X215604038Y-61368729D01*
X215848631Y-61002669D01*
X216017110Y-60595925D01*
X216103000Y-60164128D01*
X216103000Y-59723872D01*
X216017110Y-59292075D01*
X215848631Y-58885331D01*
X215604038Y-58519271D01*
X215292729Y-58207962D01*
X214926669Y-57963369D01*
X214519925Y-57794890D01*
X214088128Y-57709000D01*
X213647872Y-57709000D01*
X213216075Y-57794890D01*
X212809331Y-57963369D01*
X212443271Y-58207962D01*
X212131962Y-58519271D01*
X211887369Y-58885331D01*
X211718890Y-59292075D01*
X211633000Y-59723872D01*
X174447000Y-59723872D01*
X174361110Y-59292075D01*
X174192631Y-58885331D01*
X173948038Y-58519271D01*
X173636729Y-58207962D01*
X173270669Y-57963369D01*
X172863925Y-57794890D01*
X172432128Y-57709000D01*
X171991872Y-57709000D01*
X171560075Y-57794890D01*
X171153331Y-57963369D01*
X170787271Y-58207962D01*
X170475962Y-58519271D01*
X170231369Y-58885331D01*
X170062890Y-59292075D01*
X169977000Y-59723872D01*
X168300000Y-59723872D01*
X168300000Y-56530000D01*
X217769838Y-56530000D01*
X217760163Y-95849871D01*
G36*
X217760163Y-95849871D02*
G01*
X168300000Y-95840130D01*
X168300000Y-92235872D01*
X169977000Y-92235872D01*
X169977000Y-92676128D01*
X170062890Y-93107925D01*
X170231369Y-93514669D01*
X170475962Y-93880729D01*
X170787271Y-94192038D01*
X171153331Y-94436631D01*
X171560075Y-94605110D01*
X171991872Y-94691000D01*
X172432128Y-94691000D01*
X172863925Y-94605110D01*
X173270669Y-94436631D01*
X173636729Y-94192038D01*
X173948038Y-93880729D01*
X174192631Y-93514669D01*
X174361110Y-93107925D01*
X174447000Y-92676128D01*
X174447000Y-92235872D01*
X211633000Y-92235872D01*
X211633000Y-92676128D01*
X211718890Y-93107925D01*
X211887369Y-93514669D01*
X212131962Y-93880729D01*
X212443271Y-94192038D01*
X212809331Y-94436631D01*
X213216075Y-94605110D01*
X213647872Y-94691000D01*
X214088128Y-94691000D01*
X214519925Y-94605110D01*
X214926669Y-94436631D01*
X215292729Y-94192038D01*
X215604038Y-93880729D01*
X215848631Y-93514669D01*
X216017110Y-93107925D01*
X216103000Y-92676128D01*
X216103000Y-92235872D01*
X216017110Y-91804075D01*
X215848631Y-91397331D01*
X215604038Y-91031271D01*
X215292729Y-90719962D01*
X214926669Y-90475369D01*
X214519925Y-90306890D01*
X214088128Y-90221000D01*
X213647872Y-90221000D01*
X213216075Y-90306890D01*
X212809331Y-90475369D01*
X212443271Y-90719962D01*
X212131962Y-91031271D01*
X211887369Y-91397331D01*
X211718890Y-91804075D01*
X211633000Y-92235872D01*
X174447000Y-92235872D01*
X174361110Y-91804075D01*
X174192631Y-91397331D01*
X173948038Y-91031271D01*
X173636729Y-90719962D01*
X173270669Y-90475369D01*
X172863925Y-90306890D01*
X172432128Y-90221000D01*
X171991872Y-90221000D01*
X171560075Y-90306890D01*
X171153331Y-90475369D01*
X170787271Y-90719962D01*
X170475962Y-91031271D01*
X170231369Y-91397331D01*
X170062890Y-91804075D01*
X169977000Y-92235872D01*
X168300000Y-92235872D01*
X168300000Y-89559117D01*
X197875000Y-89559117D01*
X197875000Y-89900883D01*
X197941675Y-90236081D01*
X198072463Y-90551831D01*
X198262337Y-90835998D01*
X198504002Y-91077663D01*
X198788169Y-91267537D01*
X199103919Y-91398325D01*
X199439117Y-91465000D01*
X199780883Y-91465000D01*
X200116081Y-91398325D01*
X200431831Y-91267537D01*
X200715998Y-91077663D01*
X200957663Y-90835998D01*
X201147537Y-90551831D01*
X201278325Y-90236081D01*
X201345000Y-89900883D01*
X201345000Y-89559117D01*
X202904200Y-89559117D01*
X202904200Y-89900883D01*
X202970875Y-90236081D01*
X203101663Y-90551831D01*
X203291537Y-90835998D01*
X203533202Y-91077663D01*
X203817369Y-91267537D01*
X204133119Y-91398325D01*
X204468317Y-91465000D01*
X204810083Y-91465000D01*
X205145281Y-91398325D01*
X205461031Y-91267537D01*
X205745198Y-91077663D01*
X205986863Y-90835998D01*
X206176737Y-90551831D01*
X206307525Y-90236081D01*
X206374200Y-89900883D01*
X206374200Y-89559117D01*
X206307525Y-89223919D01*
X206176737Y-88908169D01*
X205986863Y-88624002D01*
X205745198Y-88382337D01*
X205461031Y-88192463D01*
X205145281Y-88061675D01*
X204810083Y-87995000D01*
X204468317Y-87995000D01*
X204133119Y-88061675D01*
X203817369Y-88192463D01*
X203533202Y-88382337D01*
X203291537Y-88624002D01*
X203101663Y-88908169D01*
X202970875Y-89223919D01*
X202904200Y-89559117D01*
X201345000Y-89559117D01*
X201278325Y-89223919D01*
X201147537Y-88908169D01*
X200957663Y-88624002D01*
X200715998Y-88382337D01*
X200431831Y-88192463D01*
X200116081Y-88061675D01*
X199780883Y-87995000D01*
X199439117Y-87995000D01*
X199103919Y-88061675D01*
X198788169Y-88192463D01*
X198504002Y-88382337D01*
X198262337Y-88624002D01*
X198072463Y-88908169D01*
X197941675Y-89223919D01*
X197875000Y-89559117D01*
X168300000Y-89559117D01*
X168300000Y-83081765D01*
X178460500Y-83081765D01*
X178460500Y-83364435D01*
X178515647Y-83641674D01*
X178623820Y-83902827D01*
X178780863Y-84137859D01*
X178980741Y-84337737D01*
X179215773Y-84494780D01*
X179476926Y-84602953D01*
X179754165Y-84658100D01*
X180036835Y-84658100D01*
X180314074Y-84602953D01*
X180575227Y-84494780D01*
X180810259Y-84337737D01*
X181010137Y-84137859D01*
X181167180Y-83902827D01*
X181275353Y-83641674D01*
X181289184Y-83572139D01*
X188663596Y-83572139D01*
X188704254Y-83706187D01*
X188824463Y-83960520D01*
X188991981Y-84186514D01*
X189200369Y-84375485D01*
X189441619Y-84520170D01*
X189706460Y-84615009D01*
X189928500Y-84493724D01*
X189928500Y-83350100D01*
X190182500Y-83350100D01*
X190182500Y-84493724D01*
X190404540Y-84615009D01*
X190669381Y-84520170D01*
X190910631Y-84375485D01*
X191119019Y-84186514D01*
X191286537Y-83960520D01*
X191406746Y-83706187D01*
X191447404Y-83572139D01*
X191325415Y-83350100D01*
X190182500Y-83350100D01*
X189928500Y-83350100D01*
X188785585Y-83350100D01*
X188663596Y-83572139D01*
X181289184Y-83572139D01*
X181330500Y-83364435D01*
X181330500Y-83081765D01*
X181289185Y-82874061D01*
X188663596Y-82874061D01*
X188785585Y-83096100D01*
X189928500Y-83096100D01*
X189928500Y-81952476D01*
X190182500Y-81952476D01*
X190182500Y-83096100D01*
X191325415Y-83096100D01*
X191447404Y-82874061D01*
X191406746Y-82740013D01*
X191316332Y-82548717D01*
X197875000Y-82548717D01*
X197875000Y-82890483D01*
X197941675Y-83225681D01*
X198072463Y-83541431D01*
X198262337Y-83825598D01*
X198504002Y-84067263D01*
X198788169Y-84257137D01*
X199103919Y-84387925D01*
X199439117Y-84454600D01*
X199780883Y-84454600D01*
X200116081Y-84387925D01*
X200431831Y-84257137D01*
X200715998Y-84067263D01*
X200957663Y-83825598D01*
X201147537Y-83541431D01*
X201278325Y-83225681D01*
X201345000Y-82890483D01*
X201345000Y-82548717D01*
X202904200Y-82548717D01*
X202904200Y-82890483D01*
X202970875Y-83225681D01*
X203101663Y-83541431D01*
X203291537Y-83825598D01*
X203533202Y-84067263D01*
X203817369Y-84257137D01*
X204133119Y-84387925D01*
X204468317Y-84454600D01*
X204810083Y-84454600D01*
X205145281Y-84387925D01*
X205461031Y-84257137D01*
X205745198Y-84067263D01*
X205986863Y-83825598D01*
X206176737Y-83541431D01*
X206307525Y-83225681D01*
X206374200Y-82890483D01*
X206374200Y-82548717D01*
X206307525Y-82213519D01*
X206176737Y-81897769D01*
X205986863Y-81613602D01*
X205745198Y-81371937D01*
X205461031Y-81182063D01*
X205145281Y-81051275D01*
X204810083Y-80984600D01*
X204468317Y-80984600D01*
X204133119Y-81051275D01*
X203817369Y-81182063D01*
X203533202Y-81371937D01*
X203291537Y-81613602D01*
X203101663Y-81897769D01*
X202970875Y-82213519D01*
X202904200Y-82548717D01*
X201345000Y-82548717D01*
X201278325Y-82213519D01*
X201147537Y-81897769D01*
X200957663Y-81613602D01*
X200715998Y-81371937D01*
X200431831Y-81182063D01*
X200116081Y-81051275D01*
X199780883Y-80984600D01*
X199439117Y-80984600D01*
X199103919Y-81051275D01*
X198788169Y-81182063D01*
X198504002Y-81371937D01*
X198262337Y-81613602D01*
X198072463Y-81897769D01*
X197941675Y-82213519D01*
X197875000Y-82548717D01*
X191316332Y-82548717D01*
X191286537Y-82485680D01*
X191119019Y-82259686D01*
X190910631Y-82070715D01*
X190669381Y-81926030D01*
X190404540Y-81831191D01*
X190182500Y-81952476D01*
X189928500Y-81952476D01*
X189706460Y-81831191D01*
X189441619Y-81926030D01*
X189200369Y-82070715D01*
X188991981Y-82259686D01*
X188824463Y-82485680D01*
X188704254Y-82740013D01*
X188663596Y-82874061D01*
X181289185Y-82874061D01*
X181275353Y-82804526D01*
X181167180Y-82543373D01*
X181010137Y-82308341D01*
X180810259Y-82108463D01*
X180575227Y-81951420D01*
X180314074Y-81843247D01*
X180036835Y-81788100D01*
X179754165Y-81788100D01*
X179476926Y-81843247D01*
X179215773Y-81951420D01*
X178980741Y-82108463D01*
X178780863Y-82308341D01*
X178623820Y-82543373D01*
X178515647Y-82804526D01*
X178460500Y-83081765D01*
X168300000Y-83081765D01*
X168300000Y-80779117D01*
X208465000Y-80779117D01*
X208465000Y-81120883D01*
X208531675Y-81456081D01*
X208662463Y-81771831D01*
X208852337Y-82055998D01*
X209094002Y-82297663D01*
X209378169Y-82487537D01*
X209693919Y-82618325D01*
X210029117Y-82685000D01*
X210370883Y-82685000D01*
X210706081Y-82618325D01*
X211021831Y-82487537D01*
X211305998Y-82297663D01*
X211547663Y-82055998D01*
X211737537Y-81771831D01*
X211868325Y-81456081D01*
X211935000Y-81120883D01*
X211935000Y-80779117D01*
X213494200Y-80779117D01*
X213494200Y-81120883D01*
X213560875Y-81456081D01*
X213691663Y-81771831D01*
X213881537Y-82055998D01*
X214123202Y-82297663D01*
X214407369Y-82487537D01*
X214723119Y-82618325D01*
X215058317Y-82685000D01*
X215400083Y-82685000D01*
X215735281Y-82618325D01*
X216051031Y-82487537D01*
X216335198Y-82297663D01*
X216576863Y-82055998D01*
X216766737Y-81771831D01*
X216897525Y-81456081D01*
X216964200Y-81120883D01*
X216964200Y-80779117D01*
X216897525Y-80443919D01*
X216766737Y-80128169D01*
X216576863Y-79844002D01*
X216335198Y-79602337D01*
X216051031Y-79412463D01*
X215735281Y-79281675D01*
X215400083Y-79215000D01*
X215058317Y-79215000D01*
X214723119Y-79281675D01*
X214407369Y-79412463D01*
X214123202Y-79602337D01*
X213881537Y-79844002D01*
X213691663Y-80128169D01*
X213560875Y-80443919D01*
X213494200Y-80779117D01*
X211935000Y-80779117D01*
X211868325Y-80443919D01*
X211737537Y-80128169D01*
X211547663Y-79844002D01*
X211305998Y-79602337D01*
X211021831Y-79412463D01*
X210706081Y-79281675D01*
X210370883Y-79215000D01*
X210029117Y-79215000D01*
X209693919Y-79281675D01*
X209378169Y-79412463D01*
X209094002Y-79602337D01*
X208852337Y-79844002D01*
X208662463Y-80128169D01*
X208531675Y-80443919D01*
X208465000Y-80779117D01*
X168300000Y-80779117D01*
X168300000Y-74490000D01*
X190917773Y-74490000D01*
X190946614Y-74782826D01*
X191032028Y-75064399D01*
X191170733Y-75323898D01*
X191357399Y-75551351D01*
X191459326Y-75635000D01*
X191357399Y-75718649D01*
X191170733Y-75946102D01*
X191032028Y-76205601D01*
X190946614Y-76487174D01*
X190917773Y-76780000D01*
X190946614Y-77072826D01*
X191032028Y-77354399D01*
X191170733Y-77613898D01*
X191219450Y-77673260D01*
X191205506Y-77680713D01*
X191108815Y-77760065D01*
X191029463Y-77856756D01*
X190970498Y-77967070D01*
X190934188Y-78086768D01*
X190921928Y-78211250D01*
X190921928Y-79928750D01*
X190934188Y-80053232D01*
X190970498Y-80172930D01*
X191029463Y-80283244D01*
X191108815Y-80379935D01*
X191205506Y-80459287D01*
X191315820Y-80518252D01*
X191435518Y-80554562D01*
X191560000Y-80566822D01*
X193360000Y-80566822D01*
X193484482Y-80554562D01*
X193604180Y-80518252D01*
X193714494Y-80459287D01*
X193811185Y-80379935D01*
X193890537Y-80283244D01*
X193949502Y-80172930D01*
X193985812Y-80053232D01*
X193998072Y-79928750D01*
X193998072Y-78211250D01*
X193985812Y-78086768D01*
X193949502Y-77967070D01*
X193890537Y-77856756D01*
X193811185Y-77760065D01*
X193714494Y-77680713D01*
X193700550Y-77673260D01*
X193749267Y-77613898D01*
X193887972Y-77354399D01*
X193973386Y-77072826D01*
X194002227Y-76780000D01*
X193973386Y-76487174D01*
X193887972Y-76205601D01*
X193749267Y-75946102D01*
X193562601Y-75718649D01*
X193460674Y-75635000D01*
X193562601Y-75551351D01*
X193749267Y-75323898D01*
X193887972Y-75064399D01*
X193973386Y-74782826D01*
X194002227Y-74490000D01*
X193973386Y-74197174D01*
X193887972Y-73915601D01*
X193749267Y-73656102D01*
X193562601Y-73428649D01*
X193426206Y-73316712D01*
X198622893Y-73316712D01*
X198730726Y-73591338D01*
X199037384Y-73742216D01*
X199367585Y-73830369D01*
X199708639Y-73852409D01*
X200047439Y-73807489D01*
X200370966Y-73697336D01*
X200569274Y-73591338D01*
X200677107Y-73316712D01*
X203652093Y-73316712D01*
X203759926Y-73591338D01*
X204066584Y-73742216D01*
X204396785Y-73830369D01*
X204737839Y-73852409D01*
X205076639Y-73807489D01*
X205190515Y-73768717D01*
X208465000Y-73768717D01*
X208465000Y-74110483D01*
X208531675Y-74445681D01*
X208662463Y-74761431D01*
X208852337Y-75045598D01*
X209094002Y-75287263D01*
X209378169Y-75477137D01*
X209693919Y-75607925D01*
X210029117Y-75674600D01*
X210370883Y-75674600D01*
X210706081Y-75607925D01*
X211021831Y-75477137D01*
X211305998Y-75287263D01*
X211547663Y-75045598D01*
X211737537Y-74761431D01*
X211868325Y-74445681D01*
X211935000Y-74110483D01*
X211935000Y-73768717D01*
X213494200Y-73768717D01*
X213494200Y-74110483D01*
X213560875Y-74445681D01*
X213691663Y-74761431D01*
X213881537Y-75045598D01*
X214123202Y-75287263D01*
X214407369Y-75477137D01*
X214723119Y-75607925D01*
X215058317Y-75674600D01*
X215400083Y-75674600D01*
X215735281Y-75607925D01*
X216051031Y-75477137D01*
X216335198Y-75287263D01*
X216576863Y-75045598D01*
X216766737Y-74761431D01*
X216897525Y-74445681D01*
X216964200Y-74110483D01*
X216964200Y-73768717D01*
X216897525Y-73433519D01*
X216766737Y-73117769D01*
X216576863Y-72833602D01*
X216335198Y-72591937D01*
X216051031Y-72402063D01*
X215735281Y-72271275D01*
X215400083Y-72204600D01*
X215058317Y-72204600D01*
X214723119Y-72271275D01*
X214407369Y-72402063D01*
X214123202Y-72591937D01*
X213881537Y-72833602D01*
X213691663Y-73117769D01*
X213560875Y-73433519D01*
X213494200Y-73768717D01*
X211935000Y-73768717D01*
X211868325Y-73433519D01*
X211737537Y-73117769D01*
X211547663Y-72833602D01*
X211305998Y-72591937D01*
X211021831Y-72402063D01*
X210706081Y-72271275D01*
X210370883Y-72204600D01*
X210029117Y-72204600D01*
X209693919Y-72271275D01*
X209378169Y-72402063D01*
X209094002Y-72591937D01*
X208852337Y-72833602D01*
X208662463Y-73117769D01*
X208531675Y-73433519D01*
X208465000Y-73768717D01*
X205190515Y-73768717D01*
X205400166Y-73697336D01*
X205598474Y-73591338D01*
X205706307Y-73316712D01*
X204679200Y-72289605D01*
X203652093Y-73316712D01*
X200677107Y-73316712D01*
X199650000Y-72289605D01*
X198622893Y-73316712D01*
X193426206Y-73316712D01*
X193335148Y-73241983D01*
X193075649Y-73103278D01*
X192794076Y-73017864D01*
X192574627Y-72996250D01*
X192345373Y-72996250D01*
X192125924Y-73017864D01*
X191844351Y-73103278D01*
X191584852Y-73241983D01*
X191357399Y-73428649D01*
X191170733Y-73656102D01*
X191032028Y-73915601D01*
X190946614Y-74197174D01*
X190917773Y-74490000D01*
X168300000Y-74490000D01*
X168300000Y-72168639D01*
X197907591Y-72168639D01*
X197952511Y-72507439D01*
X198062664Y-72830966D01*
X198168662Y-73029274D01*
X198443288Y-73137107D01*
X199470395Y-72110000D01*
X199829605Y-72110000D01*
X200856712Y-73137107D01*
X201131338Y-73029274D01*
X201282216Y-72722616D01*
X201370369Y-72392415D01*
X201384830Y-72168639D01*
X202936791Y-72168639D01*
X202981711Y-72507439D01*
X203091864Y-72830966D01*
X203197862Y-73029274D01*
X203472488Y-73137107D01*
X204499595Y-72110000D01*
X204858805Y-72110000D01*
X205885912Y-73137107D01*
X206160538Y-73029274D01*
X206311416Y-72722616D01*
X206399569Y-72392415D01*
X206421609Y-72051361D01*
X206376689Y-71712561D01*
X206266536Y-71389034D01*
X206160538Y-71190726D01*
X205885912Y-71082893D01*
X204858805Y-72110000D01*
X204499595Y-72110000D01*
X203472488Y-71082893D01*
X203197862Y-71190726D01*
X203046984Y-71497384D01*
X202958831Y-71827585D01*
X202936791Y-72168639D01*
X201384830Y-72168639D01*
X201392409Y-72051361D01*
X201347489Y-71712561D01*
X201237336Y-71389034D01*
X201131338Y-71190726D01*
X200856712Y-71082893D01*
X199829605Y-72110000D01*
X199470395Y-72110000D01*
X198443288Y-71082893D01*
X198168662Y-71190726D01*
X198017784Y-71497384D01*
X197929631Y-71827585D01*
X197907591Y-72168639D01*
X168300000Y-72168639D01*
X168300000Y-69937265D01*
X178574800Y-69937265D01*
X178574800Y-70219935D01*
X178629947Y-70497174D01*
X178738120Y-70758327D01*
X178895163Y-70993359D01*
X179095041Y-71193237D01*
X179330073Y-71350280D01*
X179591226Y-71458453D01*
X179868465Y-71513600D01*
X180151135Y-71513600D01*
X180428374Y-71458453D01*
X180689527Y-71350280D01*
X180924559Y-71193237D01*
X181124437Y-70993359D01*
X181281480Y-70758327D01*
X181389653Y-70497174D01*
X181403484Y-70427639D01*
X188777896Y-70427639D01*
X188818554Y-70561687D01*
X188938763Y-70816020D01*
X189106281Y-71042014D01*
X189314669Y-71230985D01*
X189555919Y-71375670D01*
X189820760Y-71470509D01*
X190042800Y-71349224D01*
X190042800Y-70205600D01*
X190296800Y-70205600D01*
X190296800Y-71349224D01*
X190518840Y-71470509D01*
X190783681Y-71375670D01*
X191024931Y-71230985D01*
X191233319Y-71042014D01*
X191336149Y-70903288D01*
X198622893Y-70903288D01*
X199650000Y-71930395D01*
X200677107Y-70903288D01*
X203652093Y-70903288D01*
X204679200Y-71930395D01*
X205706307Y-70903288D01*
X205598474Y-70628662D01*
X205291816Y-70477784D01*
X204961615Y-70389631D01*
X204620561Y-70367591D01*
X204281761Y-70412511D01*
X203958234Y-70522664D01*
X203759926Y-70628662D01*
X203652093Y-70903288D01*
X200677107Y-70903288D01*
X200569274Y-70628662D01*
X200262616Y-70477784D01*
X199932415Y-70389631D01*
X199591361Y-70367591D01*
X199252561Y-70412511D01*
X198929034Y-70522664D01*
X198730726Y-70628662D01*
X198622893Y-70903288D01*
X191336149Y-70903288D01*
X191400837Y-70816020D01*
X191521046Y-70561687D01*
X191561704Y-70427639D01*
X191439715Y-70205600D01*
X190296800Y-70205600D01*
X190042800Y-70205600D01*
X188899885Y-70205600D01*
X188777896Y-70427639D01*
X181403484Y-70427639D01*
X181444800Y-70219935D01*
X181444800Y-69937265D01*
X181403485Y-69729561D01*
X188777896Y-69729561D01*
X188899885Y-69951600D01*
X190042800Y-69951600D01*
X190042800Y-68807976D01*
X190296800Y-68807976D01*
X190296800Y-69951600D01*
X191439715Y-69951600D01*
X191561704Y-69729561D01*
X191521046Y-69595513D01*
X191400837Y-69341180D01*
X191233319Y-69115186D01*
X191024931Y-68926215D01*
X190783681Y-68781530D01*
X190518840Y-68686691D01*
X190296800Y-68807976D01*
X190042800Y-68807976D01*
X189820760Y-68686691D01*
X189555919Y-68781530D01*
X189314669Y-68926215D01*
X189106281Y-69115186D01*
X188938763Y-69341180D01*
X188818554Y-69595513D01*
X188777896Y-69729561D01*
X181403485Y-69729561D01*
X181389653Y-69660026D01*
X181281480Y-69398873D01*
X181124437Y-69163841D01*
X180924559Y-68963963D01*
X180689527Y-68806920D01*
X180428374Y-68698747D01*
X180151135Y-68643600D01*
X179868465Y-68643600D01*
X179591226Y-68698747D01*
X179330073Y-68806920D01*
X179095041Y-68963963D01*
X178895163Y-69163841D01*
X178738120Y-69398873D01*
X178629947Y-69660026D01*
X178574800Y-69937265D01*
X168300000Y-69937265D01*
X168300000Y-66306312D01*
X198622893Y-66306312D01*
X198730726Y-66580938D01*
X199037384Y-66731816D01*
X199367585Y-66819969D01*
X199708639Y-66842009D01*
X200047439Y-66797089D01*
X200370966Y-66686936D01*
X200569274Y-66580938D01*
X200677107Y-66306312D01*
X203652093Y-66306312D01*
X203759926Y-66580938D01*
X204066584Y-66731816D01*
X204396785Y-66819969D01*
X204737839Y-66842009D01*
X205076639Y-66797089D01*
X205400166Y-66686936D01*
X205598474Y-66580938D01*
X205706307Y-66306312D01*
X204679200Y-65279205D01*
X203652093Y-66306312D01*
X200677107Y-66306312D01*
X199650000Y-65279205D01*
X198622893Y-66306312D01*
X168300000Y-66306312D01*
X168300000Y-65158239D01*
X197907591Y-65158239D01*
X197952511Y-65497039D01*
X198062664Y-65820566D01*
X198168662Y-66018874D01*
X198443288Y-66126707D01*
X199470395Y-65099600D01*
X199829605Y-65099600D01*
X200856712Y-66126707D01*
X201131338Y-66018874D01*
X201282216Y-65712216D01*
X201370369Y-65382015D01*
X201384830Y-65158239D01*
X202936791Y-65158239D01*
X202981711Y-65497039D01*
X203091864Y-65820566D01*
X203197862Y-66018874D01*
X203472488Y-66126707D01*
X204499595Y-65099600D01*
X204858805Y-65099600D01*
X205885912Y-66126707D01*
X206160538Y-66018874D01*
X206311416Y-65712216D01*
X206399569Y-65382015D01*
X206421609Y-65040961D01*
X206376689Y-64702161D01*
X206266536Y-64378634D01*
X206160538Y-64180326D01*
X205885912Y-64072493D01*
X204858805Y-65099600D01*
X204499595Y-65099600D01*
X203472488Y-64072493D01*
X203197862Y-64180326D01*
X203046984Y-64486984D01*
X202958831Y-64817185D01*
X202936791Y-65158239D01*
X201384830Y-65158239D01*
X201392409Y-65040961D01*
X201347489Y-64702161D01*
X201237336Y-64378634D01*
X201131338Y-64180326D01*
X200856712Y-64072493D01*
X199829605Y-65099600D01*
X199470395Y-65099600D01*
X198443288Y-64072493D01*
X198168662Y-64180326D01*
X198017784Y-64486984D01*
X197929631Y-64817185D01*
X197907591Y-65158239D01*
X168300000Y-65158239D01*
X168300000Y-63892888D01*
X198622893Y-63892888D01*
X199650000Y-64919995D01*
X200677107Y-63892888D01*
X203652093Y-63892888D01*
X204679200Y-64919995D01*
X205706307Y-63892888D01*
X205598474Y-63618262D01*
X205291816Y-63467384D01*
X204961615Y-63379231D01*
X204620561Y-63357191D01*
X204281761Y-63402111D01*
X203958234Y-63512264D01*
X203759926Y-63618262D01*
X203652093Y-63892888D01*
X200677107Y-63892888D01*
X200569274Y-63618262D01*
X200262616Y-63467384D01*
X199932415Y-63379231D01*
X199591361Y-63357191D01*
X199252561Y-63402111D01*
X198929034Y-63512264D01*
X198730726Y-63618262D01*
X198622893Y-63892888D01*
X168300000Y-63892888D01*
X168300000Y-59723872D01*
X169977000Y-59723872D01*
X169977000Y-60164128D01*
X170062890Y-60595925D01*
X170231369Y-61002669D01*
X170475962Y-61368729D01*
X170787271Y-61680038D01*
X171153331Y-61924631D01*
X171560075Y-62093110D01*
X171991872Y-62179000D01*
X172432128Y-62179000D01*
X172863925Y-62093110D01*
X173270669Y-61924631D01*
X173636729Y-61680038D01*
X173948038Y-61368729D01*
X174192631Y-61002669D01*
X174361110Y-60595925D01*
X174447000Y-60164128D01*
X174447000Y-59723872D01*
X211633000Y-59723872D01*
X211633000Y-60164128D01*
X211718890Y-60595925D01*
X211887369Y-61002669D01*
X212131962Y-61368729D01*
X212443271Y-61680038D01*
X212809331Y-61924631D01*
X213216075Y-62093110D01*
X213647872Y-62179000D01*
X214088128Y-62179000D01*
X214519925Y-62093110D01*
X214926669Y-61924631D01*
X215292729Y-61680038D01*
X215604038Y-61368729D01*
X215848631Y-61002669D01*
X216017110Y-60595925D01*
X216103000Y-60164128D01*
X216103000Y-59723872D01*
X216017110Y-59292075D01*
X215848631Y-58885331D01*
X215604038Y-58519271D01*
X215292729Y-58207962D01*
X214926669Y-57963369D01*
X214519925Y-57794890D01*
X214088128Y-57709000D01*
X213647872Y-57709000D01*
X213216075Y-57794890D01*
X212809331Y-57963369D01*
X212443271Y-58207962D01*
X212131962Y-58519271D01*
X211887369Y-58885331D01*
X211718890Y-59292075D01*
X211633000Y-59723872D01*
X174447000Y-59723872D01*
X174361110Y-59292075D01*
X174192631Y-58885331D01*
X173948038Y-58519271D01*
X173636729Y-58207962D01*
X173270669Y-57963369D01*
X172863925Y-57794890D01*
X172432128Y-57709000D01*
X171991872Y-57709000D01*
X171560075Y-57794890D01*
X171153331Y-57963369D01*
X170787271Y-58207962D01*
X170475962Y-58519271D01*
X170231369Y-58885331D01*
X170062890Y-59292075D01*
X169977000Y-59723872D01*
X168300000Y-59723872D01*
X168300000Y-56530000D01*
X217769838Y-56530000D01*
X217760163Y-95849871D01*
G37*
X217760163Y-95849871D02*
X168300000Y-95840130D01*
X168300000Y-92235872D01*
X169977000Y-92235872D01*
X169977000Y-92676128D01*
X170062890Y-93107925D01*
X170231369Y-93514669D01*
X170475962Y-93880729D01*
X170787271Y-94192038D01*
X171153331Y-94436631D01*
X171560075Y-94605110D01*
X171991872Y-94691000D01*
X172432128Y-94691000D01*
X172863925Y-94605110D01*
X173270669Y-94436631D01*
X173636729Y-94192038D01*
X173948038Y-93880729D01*
X174192631Y-93514669D01*
X174361110Y-93107925D01*
X174447000Y-92676128D01*
X174447000Y-92235872D01*
X211633000Y-92235872D01*
X211633000Y-92676128D01*
X211718890Y-93107925D01*
X211887369Y-93514669D01*
X212131962Y-93880729D01*
X212443271Y-94192038D01*
X212809331Y-94436631D01*
X213216075Y-94605110D01*
X213647872Y-94691000D01*
X214088128Y-94691000D01*
X214519925Y-94605110D01*
X214926669Y-94436631D01*
X215292729Y-94192038D01*
X215604038Y-93880729D01*
X215848631Y-93514669D01*
X216017110Y-93107925D01*
X216103000Y-92676128D01*
X216103000Y-92235872D01*
X216017110Y-91804075D01*
X215848631Y-91397331D01*
X215604038Y-91031271D01*
X215292729Y-90719962D01*
X214926669Y-90475369D01*
X214519925Y-90306890D01*
X214088128Y-90221000D01*
X213647872Y-90221000D01*
X213216075Y-90306890D01*
X212809331Y-90475369D01*
X212443271Y-90719962D01*
X212131962Y-91031271D01*
X211887369Y-91397331D01*
X211718890Y-91804075D01*
X211633000Y-92235872D01*
X174447000Y-92235872D01*
X174361110Y-91804075D01*
X174192631Y-91397331D01*
X173948038Y-91031271D01*
X173636729Y-90719962D01*
X173270669Y-90475369D01*
X172863925Y-90306890D01*
X172432128Y-90221000D01*
X171991872Y-90221000D01*
X171560075Y-90306890D01*
X171153331Y-90475369D01*
X170787271Y-90719962D01*
X170475962Y-91031271D01*
X170231369Y-91397331D01*
X170062890Y-91804075D01*
X169977000Y-92235872D01*
X168300000Y-92235872D01*
X168300000Y-89559117D01*
X197875000Y-89559117D01*
X197875000Y-89900883D01*
X197941675Y-90236081D01*
X198072463Y-90551831D01*
X198262337Y-90835998D01*
X198504002Y-91077663D01*
X198788169Y-91267537D01*
X199103919Y-91398325D01*
X199439117Y-91465000D01*
X199780883Y-91465000D01*
X200116081Y-91398325D01*
X200431831Y-91267537D01*
X200715998Y-91077663D01*
X200957663Y-90835998D01*
X201147537Y-90551831D01*
X201278325Y-90236081D01*
X201345000Y-89900883D01*
X201345000Y-89559117D01*
X202904200Y-89559117D01*
X202904200Y-89900883D01*
X202970875Y-90236081D01*
X203101663Y-90551831D01*
X203291537Y-90835998D01*
X203533202Y-91077663D01*
X203817369Y-91267537D01*
X204133119Y-91398325D01*
X204468317Y-91465000D01*
X204810083Y-91465000D01*
X205145281Y-91398325D01*
X205461031Y-91267537D01*
X205745198Y-91077663D01*
X205986863Y-90835998D01*
X206176737Y-90551831D01*
X206307525Y-90236081D01*
X206374200Y-89900883D01*
X206374200Y-89559117D01*
X206307525Y-89223919D01*
X206176737Y-88908169D01*
X205986863Y-88624002D01*
X205745198Y-88382337D01*
X205461031Y-88192463D01*
X205145281Y-88061675D01*
X204810083Y-87995000D01*
X204468317Y-87995000D01*
X204133119Y-88061675D01*
X203817369Y-88192463D01*
X203533202Y-88382337D01*
X203291537Y-88624002D01*
X203101663Y-88908169D01*
X202970875Y-89223919D01*
X202904200Y-89559117D01*
X201345000Y-89559117D01*
X201278325Y-89223919D01*
X201147537Y-88908169D01*
X200957663Y-88624002D01*
X200715998Y-88382337D01*
X200431831Y-88192463D01*
X200116081Y-88061675D01*
X199780883Y-87995000D01*
X199439117Y-87995000D01*
X199103919Y-88061675D01*
X198788169Y-88192463D01*
X198504002Y-88382337D01*
X198262337Y-88624002D01*
X198072463Y-88908169D01*
X197941675Y-89223919D01*
X197875000Y-89559117D01*
X168300000Y-89559117D01*
X168300000Y-83081765D01*
X178460500Y-83081765D01*
X178460500Y-83364435D01*
X178515647Y-83641674D01*
X178623820Y-83902827D01*
X178780863Y-84137859D01*
X178980741Y-84337737D01*
X179215773Y-84494780D01*
X179476926Y-84602953D01*
X179754165Y-84658100D01*
X180036835Y-84658100D01*
X180314074Y-84602953D01*
X180575227Y-84494780D01*
X180810259Y-84337737D01*
X181010137Y-84137859D01*
X181167180Y-83902827D01*
X181275353Y-83641674D01*
X181289184Y-83572139D01*
X188663596Y-83572139D01*
X188704254Y-83706187D01*
X188824463Y-83960520D01*
X188991981Y-84186514D01*
X189200369Y-84375485D01*
X189441619Y-84520170D01*
X189706460Y-84615009D01*
X189928500Y-84493724D01*
X189928500Y-83350100D01*
X190182500Y-83350100D01*
X190182500Y-84493724D01*
X190404540Y-84615009D01*
X190669381Y-84520170D01*
X190910631Y-84375485D01*
X191119019Y-84186514D01*
X191286537Y-83960520D01*
X191406746Y-83706187D01*
X191447404Y-83572139D01*
X191325415Y-83350100D01*
X190182500Y-83350100D01*
X189928500Y-83350100D01*
X188785585Y-83350100D01*
X188663596Y-83572139D01*
X181289184Y-83572139D01*
X181330500Y-83364435D01*
X181330500Y-83081765D01*
X181289185Y-82874061D01*
X188663596Y-82874061D01*
X188785585Y-83096100D01*
X189928500Y-83096100D01*
X189928500Y-81952476D01*
X190182500Y-81952476D01*
X190182500Y-83096100D01*
X191325415Y-83096100D01*
X191447404Y-82874061D01*
X191406746Y-82740013D01*
X191316332Y-82548717D01*
X197875000Y-82548717D01*
X197875000Y-82890483D01*
X197941675Y-83225681D01*
X198072463Y-83541431D01*
X198262337Y-83825598D01*
X198504002Y-84067263D01*
X198788169Y-84257137D01*
X199103919Y-84387925D01*
X199439117Y-84454600D01*
X199780883Y-84454600D01*
X200116081Y-84387925D01*
X200431831Y-84257137D01*
X200715998Y-84067263D01*
X200957663Y-83825598D01*
X201147537Y-83541431D01*
X201278325Y-83225681D01*
X201345000Y-82890483D01*
X201345000Y-82548717D01*
X202904200Y-82548717D01*
X202904200Y-82890483D01*
X202970875Y-83225681D01*
X203101663Y-83541431D01*
X203291537Y-83825598D01*
X203533202Y-84067263D01*
X203817369Y-84257137D01*
X204133119Y-84387925D01*
X204468317Y-84454600D01*
X204810083Y-84454600D01*
X205145281Y-84387925D01*
X205461031Y-84257137D01*
X205745198Y-84067263D01*
X205986863Y-83825598D01*
X206176737Y-83541431D01*
X206307525Y-83225681D01*
X206374200Y-82890483D01*
X206374200Y-82548717D01*
X206307525Y-82213519D01*
X206176737Y-81897769D01*
X205986863Y-81613602D01*
X205745198Y-81371937D01*
X205461031Y-81182063D01*
X205145281Y-81051275D01*
X204810083Y-80984600D01*
X204468317Y-80984600D01*
X204133119Y-81051275D01*
X203817369Y-81182063D01*
X203533202Y-81371937D01*
X203291537Y-81613602D01*
X203101663Y-81897769D01*
X202970875Y-82213519D01*
X202904200Y-82548717D01*
X201345000Y-82548717D01*
X201278325Y-82213519D01*
X201147537Y-81897769D01*
X200957663Y-81613602D01*
X200715998Y-81371937D01*
X200431831Y-81182063D01*
X200116081Y-81051275D01*
X199780883Y-80984600D01*
X199439117Y-80984600D01*
X199103919Y-81051275D01*
X198788169Y-81182063D01*
X198504002Y-81371937D01*
X198262337Y-81613602D01*
X198072463Y-81897769D01*
X197941675Y-82213519D01*
X197875000Y-82548717D01*
X191316332Y-82548717D01*
X191286537Y-82485680D01*
X191119019Y-82259686D01*
X190910631Y-82070715D01*
X190669381Y-81926030D01*
X190404540Y-81831191D01*
X190182500Y-81952476D01*
X189928500Y-81952476D01*
X189706460Y-81831191D01*
X189441619Y-81926030D01*
X189200369Y-82070715D01*
X188991981Y-82259686D01*
X188824463Y-82485680D01*
X188704254Y-82740013D01*
X188663596Y-82874061D01*
X181289185Y-82874061D01*
X181275353Y-82804526D01*
X181167180Y-82543373D01*
X181010137Y-82308341D01*
X180810259Y-82108463D01*
X180575227Y-81951420D01*
X180314074Y-81843247D01*
X180036835Y-81788100D01*
X179754165Y-81788100D01*
X179476926Y-81843247D01*
X179215773Y-81951420D01*
X178980741Y-82108463D01*
X178780863Y-82308341D01*
X178623820Y-82543373D01*
X178515647Y-82804526D01*
X178460500Y-83081765D01*
X168300000Y-83081765D01*
X168300000Y-80779117D01*
X208465000Y-80779117D01*
X208465000Y-81120883D01*
X208531675Y-81456081D01*
X208662463Y-81771831D01*
X208852337Y-82055998D01*
X209094002Y-82297663D01*
X209378169Y-82487537D01*
X209693919Y-82618325D01*
X210029117Y-82685000D01*
X210370883Y-82685000D01*
X210706081Y-82618325D01*
X211021831Y-82487537D01*
X211305998Y-82297663D01*
X211547663Y-82055998D01*
X211737537Y-81771831D01*
X211868325Y-81456081D01*
X211935000Y-81120883D01*
X211935000Y-80779117D01*
X213494200Y-80779117D01*
X213494200Y-81120883D01*
X213560875Y-81456081D01*
X213691663Y-81771831D01*
X213881537Y-82055998D01*
X214123202Y-82297663D01*
X214407369Y-82487537D01*
X214723119Y-82618325D01*
X215058317Y-82685000D01*
X215400083Y-82685000D01*
X215735281Y-82618325D01*
X216051031Y-82487537D01*
X216335198Y-82297663D01*
X216576863Y-82055998D01*
X216766737Y-81771831D01*
X216897525Y-81456081D01*
X216964200Y-81120883D01*
X216964200Y-80779117D01*
X216897525Y-80443919D01*
X216766737Y-80128169D01*
X216576863Y-79844002D01*
X216335198Y-79602337D01*
X216051031Y-79412463D01*
X215735281Y-79281675D01*
X215400083Y-79215000D01*
X215058317Y-79215000D01*
X214723119Y-79281675D01*
X214407369Y-79412463D01*
X214123202Y-79602337D01*
X213881537Y-79844002D01*
X213691663Y-80128169D01*
X213560875Y-80443919D01*
X213494200Y-80779117D01*
X211935000Y-80779117D01*
X211868325Y-80443919D01*
X211737537Y-80128169D01*
X211547663Y-79844002D01*
X211305998Y-79602337D01*
X211021831Y-79412463D01*
X210706081Y-79281675D01*
X210370883Y-79215000D01*
X210029117Y-79215000D01*
X209693919Y-79281675D01*
X209378169Y-79412463D01*
X209094002Y-79602337D01*
X208852337Y-79844002D01*
X208662463Y-80128169D01*
X208531675Y-80443919D01*
X208465000Y-80779117D01*
X168300000Y-80779117D01*
X168300000Y-74490000D01*
X190917773Y-74490000D01*
X190946614Y-74782826D01*
X191032028Y-75064399D01*
X191170733Y-75323898D01*
X191357399Y-75551351D01*
X191459326Y-75635000D01*
X191357399Y-75718649D01*
X191170733Y-75946102D01*
X191032028Y-76205601D01*
X190946614Y-76487174D01*
X190917773Y-76780000D01*
X190946614Y-77072826D01*
X191032028Y-77354399D01*
X191170733Y-77613898D01*
X191219450Y-77673260D01*
X191205506Y-77680713D01*
X191108815Y-77760065D01*
X191029463Y-77856756D01*
X190970498Y-77967070D01*
X190934188Y-78086768D01*
X190921928Y-78211250D01*
X190921928Y-79928750D01*
X190934188Y-80053232D01*
X190970498Y-80172930D01*
X191029463Y-80283244D01*
X191108815Y-80379935D01*
X191205506Y-80459287D01*
X191315820Y-80518252D01*
X191435518Y-80554562D01*
X191560000Y-80566822D01*
X193360000Y-80566822D01*
X193484482Y-80554562D01*
X193604180Y-80518252D01*
X193714494Y-80459287D01*
X193811185Y-80379935D01*
X193890537Y-80283244D01*
X193949502Y-80172930D01*
X193985812Y-80053232D01*
X193998072Y-79928750D01*
X193998072Y-78211250D01*
X193985812Y-78086768D01*
X193949502Y-77967070D01*
X193890537Y-77856756D01*
X193811185Y-77760065D01*
X193714494Y-77680713D01*
X193700550Y-77673260D01*
X193749267Y-77613898D01*
X193887972Y-77354399D01*
X193973386Y-77072826D01*
X194002227Y-76780000D01*
X193973386Y-76487174D01*
X193887972Y-76205601D01*
X193749267Y-75946102D01*
X193562601Y-75718649D01*
X193460674Y-75635000D01*
X193562601Y-75551351D01*
X193749267Y-75323898D01*
X193887972Y-75064399D01*
X193973386Y-74782826D01*
X194002227Y-74490000D01*
X193973386Y-74197174D01*
X193887972Y-73915601D01*
X193749267Y-73656102D01*
X193562601Y-73428649D01*
X193426206Y-73316712D01*
X198622893Y-73316712D01*
X198730726Y-73591338D01*
X199037384Y-73742216D01*
X199367585Y-73830369D01*
X199708639Y-73852409D01*
X200047439Y-73807489D01*
X200370966Y-73697336D01*
X200569274Y-73591338D01*
X200677107Y-73316712D01*
X203652093Y-73316712D01*
X203759926Y-73591338D01*
X204066584Y-73742216D01*
X204396785Y-73830369D01*
X204737839Y-73852409D01*
X205076639Y-73807489D01*
X205190515Y-73768717D01*
X208465000Y-73768717D01*
X208465000Y-74110483D01*
X208531675Y-74445681D01*
X208662463Y-74761431D01*
X208852337Y-75045598D01*
X209094002Y-75287263D01*
X209378169Y-75477137D01*
X209693919Y-75607925D01*
X210029117Y-75674600D01*
X210370883Y-75674600D01*
X210706081Y-75607925D01*
X211021831Y-75477137D01*
X211305998Y-75287263D01*
X211547663Y-75045598D01*
X211737537Y-74761431D01*
X211868325Y-74445681D01*
X211935000Y-74110483D01*
X211935000Y-73768717D01*
X213494200Y-73768717D01*
X213494200Y-74110483D01*
X213560875Y-74445681D01*
X213691663Y-74761431D01*
X213881537Y-75045598D01*
X214123202Y-75287263D01*
X214407369Y-75477137D01*
X214723119Y-75607925D01*
X215058317Y-75674600D01*
X215400083Y-75674600D01*
X215735281Y-75607925D01*
X216051031Y-75477137D01*
X216335198Y-75287263D01*
X216576863Y-75045598D01*
X216766737Y-74761431D01*
X216897525Y-74445681D01*
X216964200Y-74110483D01*
X216964200Y-73768717D01*
X216897525Y-73433519D01*
X216766737Y-73117769D01*
X216576863Y-72833602D01*
X216335198Y-72591937D01*
X216051031Y-72402063D01*
X215735281Y-72271275D01*
X215400083Y-72204600D01*
X215058317Y-72204600D01*
X214723119Y-72271275D01*
X214407369Y-72402063D01*
X214123202Y-72591937D01*
X213881537Y-72833602D01*
X213691663Y-73117769D01*
X213560875Y-73433519D01*
X213494200Y-73768717D01*
X211935000Y-73768717D01*
X211868325Y-73433519D01*
X211737537Y-73117769D01*
X211547663Y-72833602D01*
X211305998Y-72591937D01*
X211021831Y-72402063D01*
X210706081Y-72271275D01*
X210370883Y-72204600D01*
X210029117Y-72204600D01*
X209693919Y-72271275D01*
X209378169Y-72402063D01*
X209094002Y-72591937D01*
X208852337Y-72833602D01*
X208662463Y-73117769D01*
X208531675Y-73433519D01*
X208465000Y-73768717D01*
X205190515Y-73768717D01*
X205400166Y-73697336D01*
X205598474Y-73591338D01*
X205706307Y-73316712D01*
X204679200Y-72289605D01*
X203652093Y-73316712D01*
X200677107Y-73316712D01*
X199650000Y-72289605D01*
X198622893Y-73316712D01*
X193426206Y-73316712D01*
X193335148Y-73241983D01*
X193075649Y-73103278D01*
X192794076Y-73017864D01*
X192574627Y-72996250D01*
X192345373Y-72996250D01*
X192125924Y-73017864D01*
X191844351Y-73103278D01*
X191584852Y-73241983D01*
X191357399Y-73428649D01*
X191170733Y-73656102D01*
X191032028Y-73915601D01*
X190946614Y-74197174D01*
X190917773Y-74490000D01*
X168300000Y-74490000D01*
X168300000Y-72168639D01*
X197907591Y-72168639D01*
X197952511Y-72507439D01*
X198062664Y-72830966D01*
X198168662Y-73029274D01*
X198443288Y-73137107D01*
X199470395Y-72110000D01*
X199829605Y-72110000D01*
X200856712Y-73137107D01*
X201131338Y-73029274D01*
X201282216Y-72722616D01*
X201370369Y-72392415D01*
X201384830Y-72168639D01*
X202936791Y-72168639D01*
X202981711Y-72507439D01*
X203091864Y-72830966D01*
X203197862Y-73029274D01*
X203472488Y-73137107D01*
X204499595Y-72110000D01*
X204858805Y-72110000D01*
X205885912Y-73137107D01*
X206160538Y-73029274D01*
X206311416Y-72722616D01*
X206399569Y-72392415D01*
X206421609Y-72051361D01*
X206376689Y-71712561D01*
X206266536Y-71389034D01*
X206160538Y-71190726D01*
X205885912Y-71082893D01*
X204858805Y-72110000D01*
X204499595Y-72110000D01*
X203472488Y-71082893D01*
X203197862Y-71190726D01*
X203046984Y-71497384D01*
X202958831Y-71827585D01*
X202936791Y-72168639D01*
X201384830Y-72168639D01*
X201392409Y-72051361D01*
X201347489Y-71712561D01*
X201237336Y-71389034D01*
X201131338Y-71190726D01*
X200856712Y-71082893D01*
X199829605Y-72110000D01*
X199470395Y-72110000D01*
X198443288Y-71082893D01*
X198168662Y-71190726D01*
X198017784Y-71497384D01*
X197929631Y-71827585D01*
X197907591Y-72168639D01*
X168300000Y-72168639D01*
X168300000Y-69937265D01*
X178574800Y-69937265D01*
X178574800Y-70219935D01*
X178629947Y-70497174D01*
X178738120Y-70758327D01*
X178895163Y-70993359D01*
X179095041Y-71193237D01*
X179330073Y-71350280D01*
X179591226Y-71458453D01*
X179868465Y-71513600D01*
X180151135Y-71513600D01*
X180428374Y-71458453D01*
X180689527Y-71350280D01*
X180924559Y-71193237D01*
X181124437Y-70993359D01*
X181281480Y-70758327D01*
X181389653Y-70497174D01*
X181403484Y-70427639D01*
X188777896Y-70427639D01*
X188818554Y-70561687D01*
X188938763Y-70816020D01*
X189106281Y-71042014D01*
X189314669Y-71230985D01*
X189555919Y-71375670D01*
X189820760Y-71470509D01*
X190042800Y-71349224D01*
X190042800Y-70205600D01*
X190296800Y-70205600D01*
X190296800Y-71349224D01*
X190518840Y-71470509D01*
X190783681Y-71375670D01*
X191024931Y-71230985D01*
X191233319Y-71042014D01*
X191336149Y-70903288D01*
X198622893Y-70903288D01*
X199650000Y-71930395D01*
X200677107Y-70903288D01*
X203652093Y-70903288D01*
X204679200Y-71930395D01*
X205706307Y-70903288D01*
X205598474Y-70628662D01*
X205291816Y-70477784D01*
X204961615Y-70389631D01*
X204620561Y-70367591D01*
X204281761Y-70412511D01*
X203958234Y-70522664D01*
X203759926Y-70628662D01*
X203652093Y-70903288D01*
X200677107Y-70903288D01*
X200569274Y-70628662D01*
X200262616Y-70477784D01*
X199932415Y-70389631D01*
X199591361Y-70367591D01*
X199252561Y-70412511D01*
X198929034Y-70522664D01*
X198730726Y-70628662D01*
X198622893Y-70903288D01*
X191336149Y-70903288D01*
X191400837Y-70816020D01*
X191521046Y-70561687D01*
X191561704Y-70427639D01*
X191439715Y-70205600D01*
X190296800Y-70205600D01*
X190042800Y-70205600D01*
X188899885Y-70205600D01*
X188777896Y-70427639D01*
X181403484Y-70427639D01*
X181444800Y-70219935D01*
X181444800Y-69937265D01*
X181403485Y-69729561D01*
X188777896Y-69729561D01*
X188899885Y-69951600D01*
X190042800Y-69951600D01*
X190042800Y-68807976D01*
X190296800Y-68807976D01*
X190296800Y-69951600D01*
X191439715Y-69951600D01*
X191561704Y-69729561D01*
X191521046Y-69595513D01*
X191400837Y-69341180D01*
X191233319Y-69115186D01*
X191024931Y-68926215D01*
X190783681Y-68781530D01*
X190518840Y-68686691D01*
X190296800Y-68807976D01*
X190042800Y-68807976D01*
X189820760Y-68686691D01*
X189555919Y-68781530D01*
X189314669Y-68926215D01*
X189106281Y-69115186D01*
X188938763Y-69341180D01*
X188818554Y-69595513D01*
X188777896Y-69729561D01*
X181403485Y-69729561D01*
X181389653Y-69660026D01*
X181281480Y-69398873D01*
X181124437Y-69163841D01*
X180924559Y-68963963D01*
X180689527Y-68806920D01*
X180428374Y-68698747D01*
X180151135Y-68643600D01*
X179868465Y-68643600D01*
X179591226Y-68698747D01*
X179330073Y-68806920D01*
X179095041Y-68963963D01*
X178895163Y-69163841D01*
X178738120Y-69398873D01*
X178629947Y-69660026D01*
X178574800Y-69937265D01*
X168300000Y-69937265D01*
X168300000Y-66306312D01*
X198622893Y-66306312D01*
X198730726Y-66580938D01*
X199037384Y-66731816D01*
X199367585Y-66819969D01*
X199708639Y-66842009D01*
X200047439Y-66797089D01*
X200370966Y-66686936D01*
X200569274Y-66580938D01*
X200677107Y-66306312D01*
X203652093Y-66306312D01*
X203759926Y-66580938D01*
X204066584Y-66731816D01*
X204396785Y-66819969D01*
X204737839Y-66842009D01*
X205076639Y-66797089D01*
X205400166Y-66686936D01*
X205598474Y-66580938D01*
X205706307Y-66306312D01*
X204679200Y-65279205D01*
X203652093Y-66306312D01*
X200677107Y-66306312D01*
X199650000Y-65279205D01*
X198622893Y-66306312D01*
X168300000Y-66306312D01*
X168300000Y-65158239D01*
X197907591Y-65158239D01*
X197952511Y-65497039D01*
X198062664Y-65820566D01*
X198168662Y-66018874D01*
X198443288Y-66126707D01*
X199470395Y-65099600D01*
X199829605Y-65099600D01*
X200856712Y-66126707D01*
X201131338Y-66018874D01*
X201282216Y-65712216D01*
X201370369Y-65382015D01*
X201384830Y-65158239D01*
X202936791Y-65158239D01*
X202981711Y-65497039D01*
X203091864Y-65820566D01*
X203197862Y-66018874D01*
X203472488Y-66126707D01*
X204499595Y-65099600D01*
X204858805Y-65099600D01*
X205885912Y-66126707D01*
X206160538Y-66018874D01*
X206311416Y-65712216D01*
X206399569Y-65382015D01*
X206421609Y-65040961D01*
X206376689Y-64702161D01*
X206266536Y-64378634D01*
X206160538Y-64180326D01*
X205885912Y-64072493D01*
X204858805Y-65099600D01*
X204499595Y-65099600D01*
X203472488Y-64072493D01*
X203197862Y-64180326D01*
X203046984Y-64486984D01*
X202958831Y-64817185D01*
X202936791Y-65158239D01*
X201384830Y-65158239D01*
X201392409Y-65040961D01*
X201347489Y-64702161D01*
X201237336Y-64378634D01*
X201131338Y-64180326D01*
X200856712Y-64072493D01*
X199829605Y-65099600D01*
X199470395Y-65099600D01*
X198443288Y-64072493D01*
X198168662Y-64180326D01*
X198017784Y-64486984D01*
X197929631Y-64817185D01*
X197907591Y-65158239D01*
X168300000Y-65158239D01*
X168300000Y-63892888D01*
X198622893Y-63892888D01*
X199650000Y-64919995D01*
X200677107Y-63892888D01*
X203652093Y-63892888D01*
X204679200Y-64919995D01*
X205706307Y-63892888D01*
X205598474Y-63618262D01*
X205291816Y-63467384D01*
X204961615Y-63379231D01*
X204620561Y-63357191D01*
X204281761Y-63402111D01*
X203958234Y-63512264D01*
X203759926Y-63618262D01*
X203652093Y-63892888D01*
X200677107Y-63892888D01*
X200569274Y-63618262D01*
X200262616Y-63467384D01*
X199932415Y-63379231D01*
X199591361Y-63357191D01*
X199252561Y-63402111D01*
X198929034Y-63512264D01*
X198730726Y-63618262D01*
X198622893Y-63892888D01*
X168300000Y-63892888D01*
X168300000Y-59723872D01*
X169977000Y-59723872D01*
X169977000Y-60164128D01*
X170062890Y-60595925D01*
X170231369Y-61002669D01*
X170475962Y-61368729D01*
X170787271Y-61680038D01*
X171153331Y-61924631D01*
X171560075Y-62093110D01*
X171991872Y-62179000D01*
X172432128Y-62179000D01*
X172863925Y-62093110D01*
X173270669Y-61924631D01*
X173636729Y-61680038D01*
X173948038Y-61368729D01*
X174192631Y-61002669D01*
X174361110Y-60595925D01*
X174447000Y-60164128D01*
X174447000Y-59723872D01*
X211633000Y-59723872D01*
X211633000Y-60164128D01*
X211718890Y-60595925D01*
X211887369Y-61002669D01*
X212131962Y-61368729D01*
X212443271Y-61680038D01*
X212809331Y-61924631D01*
X213216075Y-62093110D01*
X213647872Y-62179000D01*
X214088128Y-62179000D01*
X214519925Y-62093110D01*
X214926669Y-61924631D01*
X215292729Y-61680038D01*
X215604038Y-61368729D01*
X215848631Y-61002669D01*
X216017110Y-60595925D01*
X216103000Y-60164128D01*
X216103000Y-59723872D01*
X216017110Y-59292075D01*
X215848631Y-58885331D01*
X215604038Y-58519271D01*
X215292729Y-58207962D01*
X214926669Y-57963369D01*
X214519925Y-57794890D01*
X214088128Y-57709000D01*
X213647872Y-57709000D01*
X213216075Y-57794890D01*
X212809331Y-57963369D01*
X212443271Y-58207962D01*
X212131962Y-58519271D01*
X211887369Y-58885331D01*
X211718890Y-59292075D01*
X211633000Y-59723872D01*
X174447000Y-59723872D01*
X174361110Y-59292075D01*
X174192631Y-58885331D01*
X173948038Y-58519271D01*
X173636729Y-58207962D01*
X173270669Y-57963369D01*
X172863925Y-57794890D01*
X172432128Y-57709000D01*
X171991872Y-57709000D01*
X171560075Y-57794890D01*
X171153331Y-57963369D01*
X170787271Y-58207962D01*
X170475962Y-58519271D01*
X170231369Y-58885331D01*
X170062890Y-59292075D01*
X169977000Y-59723872D01*
X168300000Y-59723872D01*
X168300000Y-56530000D01*
X217769838Y-56530000D01*
X217760163Y-95849871D01*
M02*
