M48
; DRILL file {KiCad (5.1.5)-3} date 3/31/2020 4:00:20 PM
; FORMAT={-:-/ absolute / inch / decimal}
; #@! TF.CreationDate,2020-03-31T16:00:20-04:00
; #@! TF.GenerationSoftware,Kicad,Pcbnew,(5.1.5)-3
FMAT,2
INCH
T1C0.0157
T2C0.0295
T3C0.0315
T4C0.0394
T5C0.0400
T6C0.0402
T7C0.0433
T8C0.0630
T9C0.1200
T10C0.0866
T11C0.0984
T12C0.1378
%
G90
G05
T1
X3.3185Y-4.0305
X3.3735Y-4.284
X3.4366Y-4.0295
X3.463Y-4.2843
X3.652Y-3.565
X3.6661Y-4.4559
X3.7063Y-4.4941
X3.7106Y-3.5646
X3.7449Y-4.5315
X3.7744Y-3.5646
X3.7831Y-4.5705
X3.8291Y-5.3012
X3.8413Y-3.5642
X3.8543Y-4.9685
X3.9906Y-4.1961
X3.998Y-4.0969
X5.2146Y-2.5953
X5.2988Y-2.5953
X5.4559Y-5.4449
X5.953Y-3.683
X6.17Y-5.206
X6.678Y-4.258
X6.7354Y-2.4874
X6.7843Y-2.4323
X6.808Y-4.258
X6.8488Y-2.4886
X6.863Y-2.365
X6.9874Y-2.6945
X7.467Y-4.253
X7.504Y-4.395
X7.539Y-4.312
T2
X4.831Y-4.647
X4.881Y-4.647
X4.931Y-4.647
X4.456Y-4.101
X4.506Y-4.101
X4.556Y-4.101
T3
X4.9835Y-3.1394
X4.9835Y-3.4346
X3.216Y-4.7285
X3.616Y-4.7285
X6.861Y-3.995
X6.861Y-4.095
X4.1689Y-2.6193
X4.1689Y-3.0193
X4.774Y-3.995
X4.774Y-4.395
X4.6988Y-3.1402
X4.6988Y-3.4354
X3.2142Y-4.5836
X3.6142Y-4.5836
X4.487Y-4.236
X4.487Y-4.636
X4.426Y-3.1402
X4.426Y-3.4354
X4.261Y-4.918
X4.661Y-4.918
X4.7Y-2.6185
X4.7Y-3.0185
X4.1697Y-3.139
X4.1697Y-3.4343
X4.4252Y-2.6193
X4.4252Y-3.0193
X4.929Y-3.996
X4.929Y-4.396
X4.782Y-4.918
X5.182Y-4.918
X4.9823Y-2.6181
X4.9823Y-3.0181
X4.26Y-4.768
X4.66Y-4.768
X7.055Y-3.996
X7.055Y-4.096
T4
X5.065Y-2.412
X5.165Y-2.412
X5.265Y-2.412
X5.365Y-2.412
X5.465Y-2.412
X5.565Y-2.412
X5.665Y-2.412
X5.765Y-2.412
X5.865Y-2.412
X3.74Y-5.528
X3.7945Y-5.6398
X3.8491Y-5.528
X3.9036Y-5.6398
X3.9581Y-5.528
X4.0126Y-5.6398
X4.0672Y-5.528
X4.1217Y-5.6398
X4.1762Y-5.528
X4.2307Y-5.6398
X4.2853Y-5.528
X4.3398Y-5.6398
X4.3943Y-5.528
X4.4489Y-5.6398
X4.5034Y-5.528
X4.5579Y-5.6398
X4.6124Y-5.528
X4.667Y-5.6398
X4.7215Y-5.528
X4.776Y-5.6398
X4.8306Y-5.528
X4.8851Y-5.6398
X4.9396Y-5.528
X4.9941Y-5.6398
X5.0487Y-5.528
X5.1032Y-5.6398
X5.1577Y-5.528
X5.2122Y-5.6398
X5.2668Y-5.528
X5.3213Y-5.6398
X5.3758Y-5.528
X5.4304Y-5.6398
X5.4849Y-5.528
X5.5394Y-5.6398
X5.5939Y-5.528
X5.6485Y-5.6398
X5.703Y-5.528
X3.262Y-4.184
X3.362Y-4.184
X3.462Y-4.184
X3.562Y-4.184
X6.614Y-5.531
X6.6685Y-5.6428
X6.7231Y-5.531
X6.7776Y-5.6428
X6.8321Y-5.531
X6.8866Y-5.6428
X6.9412Y-5.531
X6.9957Y-5.6428
X7.0502Y-5.531
X7.1047Y-5.6428
X7.1593Y-5.531
X7.2138Y-5.6428
X7.2683Y-5.531
X7.3229Y-5.6428
X7.3774Y-5.531
X3.245Y-4.8938
X3.245Y-4.9938
X3.245Y-5.0938
X3.245Y-5.1938
X3.26Y-4.4192
X3.36Y-4.4192
X3.46Y-4.4192
X3.56Y-4.4192
X3.799Y-5.088
X3.799Y-5.188
X3.899Y-5.088
X3.899Y-5.188
X3.999Y-5.088
X3.999Y-5.188
X4.099Y-5.088
X4.099Y-5.188
X4.199Y-5.088
X4.199Y-5.188
X4.299Y-5.088
X4.299Y-5.188
X4.399Y-5.088
X4.399Y-5.188
X4.499Y-5.088
X4.499Y-5.188
X4.599Y-5.088
X4.599Y-5.188
X4.699Y-5.088
X4.699Y-5.188
X4.799Y-5.088
X4.799Y-5.188
X4.899Y-5.088
X4.899Y-5.188
X4.999Y-5.088
X4.999Y-5.188
X5.099Y-5.088
X5.099Y-5.188
X5.199Y-5.088
X5.199Y-5.188
X5.299Y-5.088
X5.299Y-5.188
X5.399Y-5.088
X5.399Y-5.188
X5.499Y-5.088
X5.499Y-5.188
X5.599Y-5.088
X5.599Y-5.188
X5.699Y-5.088
X5.699Y-5.188
T5
X4.706Y-3.825
X4.806Y-3.825
X4.906Y-3.825
X5.006Y-3.825
X5.106Y-3.825
X5.206Y-3.825
X5.306Y-3.825
X5.406Y-3.825
X4.346Y-1.925
X4.446Y-1.925
X4.546Y-1.925
X4.646Y-1.925
X4.746Y-1.925
X4.846Y-1.925
X4.946Y-1.925
X5.046Y-1.925
X5.146Y-1.925
X5.246Y-1.925
X7.306Y-1.925
X7.306Y-2.025
X7.306Y-2.125
X7.306Y-2.225
X7.306Y-2.325
X7.306Y-2.425
X7.306Y-2.525
X7.306Y-2.625
X7.306Y-2.725
X7.306Y-2.825
X7.306Y-2.925
X7.306Y-3.025
X7.306Y-3.125
X7.306Y-3.225
X7.306Y-3.325
X7.306Y-3.425
X7.306Y-3.525
X7.306Y-3.625
X7.406Y-1.925
X7.406Y-2.025
X7.406Y-2.125
X7.406Y-2.225
X7.406Y-2.325
X7.406Y-2.425
X7.406Y-2.525
X7.406Y-2.625
X7.406Y-2.725
X7.406Y-2.825
X7.406Y-2.925
X7.406Y-3.025
X7.406Y-3.125
X7.406Y-3.225
X7.406Y-3.325
X7.406Y-3.425
X7.406Y-3.525
X7.406Y-3.625
X6.306Y-1.925
X6.406Y-1.925
X6.506Y-1.925
X6.606Y-1.925
X6.706Y-1.925
X6.806Y-1.925
X6.906Y-1.925
X7.006Y-1.925
X6.506Y-3.825
X6.606Y-3.825
X6.706Y-3.825
X6.806Y-3.825
X6.906Y-3.825
X7.006Y-3.825
X7.106Y-3.825
X7.206Y-3.825
X5.406Y-1.925
X5.506Y-1.925
X5.606Y-1.925
X5.706Y-1.925
X5.806Y-1.925
X5.906Y-1.925
X6.006Y-1.925
X6.106Y-1.925
X5.606Y-3.825
X5.706Y-3.825
X5.806Y-3.825
X5.906Y-3.825
X6.006Y-3.825
X6.106Y-3.825
X6.206Y-3.825
X6.306Y-3.825
T6
X5.139Y-4.088
X5.239Y-4.088
X5.339Y-4.088
X5.439Y-4.088
X5.539Y-4.088
X5.639Y-4.088
X5.739Y-4.088
X3.877Y-4.109
X3.877Y-4.209
X3.877Y-4.309
X3.877Y-4.409
X3.877Y-4.509
X3.877Y-4.609
X4.277Y-4.109
X4.277Y-4.209
X4.277Y-4.309
X4.277Y-4.409
X4.277Y-4.509
X4.277Y-4.609
X6.152Y-4.961
X6.252Y-4.961
X6.352Y-4.961
X6.452Y-4.961
X6.552Y-4.961
T7
X7.76Y-4.99
X7.76Y-5.0569
X7.76Y-5.1239
X7.76Y-5.1908
X7.76Y-5.2577
X7.767Y-4.362
X7.767Y-4.4289
X7.767Y-4.4959
X7.767Y-4.5628
X7.767Y-4.6297
T8
X7.27Y-4.062
X7.77Y-4.062
X6.193Y-4.064
X6.693Y-4.064
T9
X7.156Y-1.925
X6.206Y-2.525
X4.206Y-1.925
X7.406Y-3.825
X6.206Y-3.625
X4.156Y-3.825
T10
X6.009Y-4.921
X6.539Y-4.3992
T11
X5.1618Y-4.663
X5.7138Y-4.263
X5.7142Y-4.6634
X5.1622Y-4.2634
T12
X3.385Y-5.552
X7.715Y-2.007
X7.715Y-5.552
X3.38Y-2.007
T0
M30
