G04 #@! TF.GenerationSoftware,KiCad,Pcbnew,(5.1.5)-3*
G04 #@! TF.CreationDate,2020-04-13T23:59:43-04:00*
G04 #@! TF.ProjectId,Deck_Plate_PCB,4465636b-5f50-46c6-9174-655f5043422e,A*
G04 #@! TF.SameCoordinates,Original*
G04 #@! TF.FileFunction,Legend,Top*
G04 #@! TF.FilePolarity,Positive*
%FSLAX46Y46*%
G04 Gerber Fmt 4.6, Leading zero omitted, Abs format (unit mm)*
G04 Created by KiCad (PCBNEW (5.1.5)-3) date 2020-04-13 23:59:43*
%MOMM*%
%LPD*%
G04 APERTURE LIST*
%ADD10C,0.250000*%
%ADD11C,0.400000*%
%ADD12C,0.150000*%
%ADD13C,0.120000*%
G04 APERTURE END LIST*
D10*
X167549047Y-101121428D02*
X168310952Y-101121428D01*
X167930000Y-101502380D02*
X167930000Y-100740476D01*
D11*
X197570952Y-93879523D02*
X196380476Y-94712857D01*
X197570952Y-95308095D02*
X195070952Y-95308095D01*
X195070952Y-94355714D01*
X195190000Y-94117619D01*
X195309047Y-93998571D01*
X195547142Y-93879523D01*
X195904285Y-93879523D01*
X196142380Y-93998571D01*
X196261428Y-94117619D01*
X196380476Y-94355714D01*
X196380476Y-95308095D01*
X197570952Y-92450952D02*
X197451904Y-92689047D01*
X197332857Y-92808095D01*
X197094761Y-92927142D01*
X196380476Y-92927142D01*
X196142380Y-92808095D01*
X196023333Y-92689047D01*
X195904285Y-92450952D01*
X195904285Y-92093809D01*
X196023333Y-91855714D01*
X196142380Y-91736666D01*
X196380476Y-91617619D01*
X197094761Y-91617619D01*
X197332857Y-91736666D01*
X197451904Y-91855714D01*
X197570952Y-92093809D01*
X197570952Y-92450952D01*
X197451904Y-89474761D02*
X197570952Y-89712857D01*
X197570952Y-90189047D01*
X197451904Y-90427142D01*
X197332857Y-90546190D01*
X197094761Y-90665238D01*
X196380476Y-90665238D01*
X196142380Y-90546190D01*
X196023333Y-90427142D01*
X195904285Y-90189047D01*
X195904285Y-89712857D01*
X196023333Y-89474761D01*
X197570952Y-88403333D02*
X195070952Y-88403333D01*
X196618571Y-88165238D02*
X197570952Y-87450952D01*
X195904285Y-87450952D02*
X196856666Y-88403333D01*
X197451904Y-86498571D02*
X197570952Y-86141428D01*
X197570952Y-85546190D01*
X197451904Y-85308095D01*
X197332857Y-85189047D01*
X197094761Y-85070000D01*
X196856666Y-85070000D01*
X196618571Y-85189047D01*
X196499523Y-85308095D01*
X196380476Y-85546190D01*
X196261428Y-86022380D01*
X196142380Y-86260476D01*
X196023333Y-86379523D01*
X195785238Y-86498571D01*
X195547142Y-86498571D01*
X195309047Y-86379523D01*
X195190000Y-86260476D01*
X195070952Y-86022380D01*
X195070952Y-85427142D01*
X195190000Y-85070000D01*
X197570952Y-82927142D02*
X196261428Y-82927142D01*
X196023333Y-83046190D01*
X195904285Y-83284285D01*
X195904285Y-83760476D01*
X196023333Y-83998571D01*
X197451904Y-82927142D02*
X197570952Y-83165238D01*
X197570952Y-83760476D01*
X197451904Y-83998571D01*
X197213809Y-84117619D01*
X196975714Y-84117619D01*
X196737619Y-83998571D01*
X196618571Y-83760476D01*
X196618571Y-83165238D01*
X196499523Y-82927142D01*
X195904285Y-82093809D02*
X195904285Y-81141428D01*
X195070952Y-81736666D02*
X197213809Y-81736666D01*
X197451904Y-81617619D01*
X197570952Y-81379523D01*
X197570952Y-81141428D01*
X196618571Y-80308095D02*
X196618571Y-78403333D01*
X195070952Y-77450952D02*
X197570952Y-75784285D01*
X195070952Y-75784285D02*
X197570952Y-77450952D01*
X196380476Y-73284285D02*
X196261428Y-73403333D01*
X196142380Y-73641428D01*
X196142380Y-73879523D01*
X196261428Y-74117619D01*
X196380476Y-74236666D01*
X196618571Y-74355714D01*
X196856666Y-74355714D01*
X197094761Y-74236666D01*
X197213809Y-74117619D01*
X197332857Y-73879523D01*
X197332857Y-73641428D01*
X197213809Y-73403333D01*
X197094761Y-73284285D01*
X196142380Y-73284285D02*
X197094761Y-73284285D01*
X197213809Y-73165238D01*
X197213809Y-73046190D01*
X197094761Y-72808095D01*
X196856666Y-72689047D01*
X196261428Y-72689047D01*
X195904285Y-72927142D01*
X195666190Y-73284285D01*
X195547142Y-73760476D01*
X195666190Y-74236666D01*
X195904285Y-74593809D01*
X196261428Y-74831904D01*
X196737619Y-74950952D01*
X197213809Y-74831904D01*
X197570952Y-74593809D01*
X197809047Y-74236666D01*
X197928095Y-73760476D01*
X197809047Y-73284285D01*
X197570952Y-72927142D01*
X195070952Y-71974761D02*
X197570952Y-71141428D01*
X195070952Y-70308095D01*
X195070952Y-69831904D02*
X195070952Y-68403333D01*
X197570952Y-69117619D02*
X195070952Y-69117619D01*
X195309047Y-65784285D02*
X195190000Y-65665238D01*
X195070952Y-65427142D01*
X195070952Y-64831904D01*
X195190000Y-64593809D01*
X195309047Y-64474761D01*
X195547142Y-64355714D01*
X195785238Y-64355714D01*
X196142380Y-64474761D01*
X197570952Y-65903333D01*
X197570952Y-64355714D01*
X195070952Y-62808095D02*
X195070952Y-62570000D01*
X195190000Y-62331904D01*
X195309047Y-62212857D01*
X195547142Y-62093809D01*
X196023333Y-61974761D01*
X196618571Y-61974761D01*
X197094761Y-62093809D01*
X197332857Y-62212857D01*
X197451904Y-62331904D01*
X197570952Y-62570000D01*
X197570952Y-62808095D01*
X197451904Y-63046190D01*
X197332857Y-63165238D01*
X197094761Y-63284285D01*
X196618571Y-63403333D01*
X196023333Y-63403333D01*
X195547142Y-63284285D01*
X195309047Y-63165238D01*
X195190000Y-63046190D01*
X195070952Y-62808095D01*
X195309047Y-61022380D02*
X195190000Y-60903333D01*
X195070952Y-60665238D01*
X195070952Y-60070000D01*
X195190000Y-59831904D01*
X195309047Y-59712857D01*
X195547142Y-59593809D01*
X195785238Y-59593809D01*
X196142380Y-59712857D01*
X197570952Y-61141428D01*
X197570952Y-59593809D01*
X195070952Y-58046190D02*
X195070952Y-57808095D01*
X195190000Y-57570000D01*
X195309047Y-57450952D01*
X195547142Y-57331904D01*
X196023333Y-57212857D01*
X196618571Y-57212857D01*
X197094761Y-57331904D01*
X197332857Y-57450952D01*
X197451904Y-57570000D01*
X197570952Y-57808095D01*
X197570952Y-58046190D01*
X197451904Y-58284285D01*
X197332857Y-58403333D01*
X197094761Y-58522380D01*
X196618571Y-58641428D01*
X196023333Y-58641428D01*
X195547142Y-58522380D01*
X195309047Y-58403333D01*
X195190000Y-58284285D01*
X195070952Y-58046190D01*
D12*
X97865714Y-89636666D02*
X98341904Y-89636666D01*
X97770476Y-89922380D02*
X98103809Y-88922380D01*
X98437142Y-89922380D01*
X98675238Y-88922380D02*
X99341904Y-88922380D01*
X98913333Y-89922380D01*
X95635714Y-89656666D02*
X96111904Y-89656666D01*
X95540476Y-89942380D02*
X95873809Y-88942380D01*
X96207142Y-89942380D01*
X96969047Y-89275714D02*
X96969047Y-89942380D01*
X96730952Y-88894761D02*
X96492857Y-89609047D01*
X97111904Y-89609047D01*
X93595714Y-89676666D02*
X94071904Y-89676666D01*
X93500476Y-89962380D02*
X93833809Y-88962380D01*
X94167142Y-89962380D01*
X94976666Y-88962380D02*
X94500476Y-88962380D01*
X94452857Y-89438571D01*
X94500476Y-89390952D01*
X94595714Y-89343333D01*
X94833809Y-89343333D01*
X94929047Y-89390952D01*
X94976666Y-89438571D01*
X95024285Y-89533809D01*
X95024285Y-89771904D01*
X94976666Y-89867142D01*
X94929047Y-89914761D01*
X94833809Y-89962380D01*
X94595714Y-89962380D01*
X94500476Y-89914761D01*
X94452857Y-89867142D01*
X91515714Y-89676666D02*
X91991904Y-89676666D01*
X91420476Y-89962380D02*
X91753809Y-88962380D01*
X92087142Y-89962380D01*
X92849047Y-88962380D02*
X92658571Y-88962380D01*
X92563333Y-89010000D01*
X92515714Y-89057619D01*
X92420476Y-89200476D01*
X92372857Y-89390952D01*
X92372857Y-89771904D01*
X92420476Y-89867142D01*
X92468095Y-89914761D01*
X92563333Y-89962380D01*
X92753809Y-89962380D01*
X92849047Y-89914761D01*
X92896666Y-89867142D01*
X92944285Y-89771904D01*
X92944285Y-89533809D01*
X92896666Y-89438571D01*
X92849047Y-89390952D01*
X92753809Y-89343333D01*
X92563333Y-89343333D01*
X92468095Y-89390952D01*
X92420476Y-89438571D01*
X92372857Y-89533809D01*
X103979523Y-63824761D02*
X104122380Y-63872380D01*
X104360476Y-63872380D01*
X104455714Y-63824761D01*
X104503333Y-63777142D01*
X104550952Y-63681904D01*
X104550952Y-63586666D01*
X104503333Y-63491428D01*
X104455714Y-63443809D01*
X104360476Y-63396190D01*
X104170000Y-63348571D01*
X104074761Y-63300952D01*
X104027142Y-63253333D01*
X103979523Y-63158095D01*
X103979523Y-63062857D01*
X104027142Y-62967619D01*
X104074761Y-62920000D01*
X104170000Y-62872380D01*
X104408095Y-62872380D01*
X104550952Y-62920000D01*
X104979523Y-63872380D02*
X104979523Y-63205714D01*
X104979523Y-62872380D02*
X104931904Y-62920000D01*
X104979523Y-62967619D01*
X105027142Y-62920000D01*
X104979523Y-62872380D01*
X104979523Y-62967619D01*
X105884285Y-63205714D02*
X105884285Y-64015238D01*
X105836666Y-64110476D01*
X105789047Y-64158095D01*
X105693809Y-64205714D01*
X105550952Y-64205714D01*
X105455714Y-64158095D01*
X105884285Y-63824761D02*
X105789047Y-63872380D01*
X105598571Y-63872380D01*
X105503333Y-63824761D01*
X105455714Y-63777142D01*
X105408095Y-63681904D01*
X105408095Y-63396190D01*
X105455714Y-63300952D01*
X105503333Y-63253333D01*
X105598571Y-63205714D01*
X105789047Y-63205714D01*
X105884285Y-63253333D01*
X106360476Y-63205714D02*
X106360476Y-63872380D01*
X106360476Y-63300952D02*
X106408095Y-63253333D01*
X106503333Y-63205714D01*
X106646190Y-63205714D01*
X106741428Y-63253333D01*
X106789047Y-63348571D01*
X106789047Y-63872380D01*
X107693809Y-63872380D02*
X107693809Y-63348571D01*
X107646190Y-63253333D01*
X107550952Y-63205714D01*
X107360476Y-63205714D01*
X107265238Y-63253333D01*
X107693809Y-63824761D02*
X107598571Y-63872380D01*
X107360476Y-63872380D01*
X107265238Y-63824761D01*
X107217619Y-63729523D01*
X107217619Y-63634285D01*
X107265238Y-63539047D01*
X107360476Y-63491428D01*
X107598571Y-63491428D01*
X107693809Y-63443809D01*
X108312857Y-63872380D02*
X108217619Y-63824761D01*
X108170000Y-63729523D01*
X108170000Y-62872380D01*
X110027142Y-63777142D02*
X109979523Y-63824761D01*
X109836666Y-63872380D01*
X109741428Y-63872380D01*
X109598571Y-63824761D01*
X109503333Y-63729523D01*
X109455714Y-63634285D01*
X109408095Y-63443809D01*
X109408095Y-63300952D01*
X109455714Y-63110476D01*
X109503333Y-63015238D01*
X109598571Y-62920000D01*
X109741428Y-62872380D01*
X109836666Y-62872380D01*
X109979523Y-62920000D01*
X110027142Y-62967619D01*
X110598571Y-63872380D02*
X110503333Y-63824761D01*
X110455714Y-63777142D01*
X110408095Y-63681904D01*
X110408095Y-63396190D01*
X110455714Y-63300952D01*
X110503333Y-63253333D01*
X110598571Y-63205714D01*
X110741428Y-63205714D01*
X110836666Y-63253333D01*
X110884285Y-63300952D01*
X110931904Y-63396190D01*
X110931904Y-63681904D01*
X110884285Y-63777142D01*
X110836666Y-63824761D01*
X110741428Y-63872380D01*
X110598571Y-63872380D01*
X111360476Y-63205714D02*
X111360476Y-63872380D01*
X111360476Y-63300952D02*
X111408095Y-63253333D01*
X111503333Y-63205714D01*
X111646190Y-63205714D01*
X111741428Y-63253333D01*
X111789047Y-63348571D01*
X111789047Y-63872380D01*
X112693809Y-63872380D02*
X112693809Y-62872380D01*
X112693809Y-63824761D02*
X112598571Y-63872380D01*
X112408095Y-63872380D01*
X112312857Y-63824761D01*
X112265238Y-63777142D01*
X112217619Y-63681904D01*
X112217619Y-63396190D01*
X112265238Y-63300952D01*
X112312857Y-63253333D01*
X112408095Y-63205714D01*
X112598571Y-63205714D01*
X112693809Y-63253333D01*
X113170000Y-63872380D02*
X113170000Y-63205714D01*
X113170000Y-62872380D02*
X113122380Y-62920000D01*
X113170000Y-62967619D01*
X113217619Y-62920000D01*
X113170000Y-62872380D01*
X113170000Y-62967619D01*
X113503333Y-63205714D02*
X113884285Y-63205714D01*
X113646190Y-62872380D02*
X113646190Y-63729523D01*
X113693809Y-63824761D01*
X113789047Y-63872380D01*
X113884285Y-63872380D01*
X114217619Y-63872380D02*
X114217619Y-63205714D01*
X114217619Y-62872380D02*
X114169999Y-62920000D01*
X114217619Y-62967619D01*
X114265238Y-62920000D01*
X114217619Y-62872380D01*
X114217619Y-62967619D01*
X114836666Y-63872380D02*
X114741428Y-63824761D01*
X114693809Y-63777142D01*
X114646190Y-63681904D01*
X114646190Y-63396190D01*
X114693809Y-63300952D01*
X114741428Y-63253333D01*
X114836666Y-63205714D01*
X114979523Y-63205714D01*
X115074761Y-63253333D01*
X115122380Y-63300952D01*
X115169999Y-63396190D01*
X115169999Y-63681904D01*
X115122380Y-63777142D01*
X115074761Y-63824761D01*
X114979523Y-63872380D01*
X114836666Y-63872380D01*
X115598571Y-63205714D02*
X115598571Y-63872380D01*
X115598571Y-63300952D02*
X115646190Y-63253333D01*
X115741428Y-63205714D01*
X115884285Y-63205714D01*
X115979523Y-63253333D01*
X116027142Y-63348571D01*
X116027142Y-63872380D01*
X116503333Y-63872380D02*
X116503333Y-63205714D01*
X116503333Y-62872380D02*
X116455714Y-62920000D01*
X116503333Y-62967619D01*
X116550952Y-62920000D01*
X116503333Y-62872380D01*
X116503333Y-62967619D01*
X116979523Y-63205714D02*
X116979523Y-63872380D01*
X116979523Y-63300952D02*
X117027142Y-63253333D01*
X117122380Y-63205714D01*
X117265238Y-63205714D01*
X117360476Y-63253333D01*
X117408095Y-63348571D01*
X117408095Y-63872380D01*
X118312857Y-63205714D02*
X118312857Y-64015238D01*
X118265238Y-64110476D01*
X118217619Y-64158095D01*
X118122380Y-64205714D01*
X117979523Y-64205714D01*
X117884285Y-64158095D01*
X118312857Y-63824761D02*
X118217619Y-63872380D01*
X118027142Y-63872380D01*
X117931904Y-63824761D01*
X117884285Y-63777142D01*
X117836666Y-63681904D01*
X117836666Y-63396190D01*
X117884285Y-63300952D01*
X117931904Y-63253333D01*
X118027142Y-63205714D01*
X118217619Y-63205714D01*
X118312857Y-63253333D01*
X149138571Y-59185238D02*
X149186190Y-59042380D01*
X149233809Y-58994761D01*
X149329047Y-58947142D01*
X149471904Y-58947142D01*
X149567142Y-58994761D01*
X149614761Y-59042380D01*
X149662380Y-59137619D01*
X149662380Y-59518571D01*
X148662380Y-59518571D01*
X148662380Y-59185238D01*
X148710000Y-59090000D01*
X148757619Y-59042380D01*
X148852857Y-58994761D01*
X148948095Y-58994761D01*
X149043333Y-59042380D01*
X149090952Y-59090000D01*
X149138571Y-59185238D01*
X149138571Y-59518571D01*
X149662380Y-58375714D02*
X149614761Y-58470952D01*
X149567142Y-58518571D01*
X149471904Y-58566190D01*
X149186190Y-58566190D01*
X149090952Y-58518571D01*
X149043333Y-58470952D01*
X148995714Y-58375714D01*
X148995714Y-58232857D01*
X149043333Y-58137619D01*
X149090952Y-58090000D01*
X149186190Y-58042380D01*
X149471904Y-58042380D01*
X149567142Y-58090000D01*
X149614761Y-58137619D01*
X149662380Y-58232857D01*
X149662380Y-58375714D01*
X149662380Y-57709047D02*
X148995714Y-57185238D01*
X148995714Y-57709047D02*
X149662380Y-57185238D01*
X149757619Y-57042380D02*
X149757619Y-56280476D01*
X148662380Y-56185238D02*
X148662380Y-55613809D01*
X149662380Y-55899523D02*
X148662380Y-55899523D01*
X149614761Y-54899523D02*
X149662380Y-54994761D01*
X149662380Y-55185238D01*
X149614761Y-55280476D01*
X149519523Y-55328095D01*
X149138571Y-55328095D01*
X149043333Y-55280476D01*
X148995714Y-55185238D01*
X148995714Y-54994761D01*
X149043333Y-54899523D01*
X149138571Y-54851904D01*
X149233809Y-54851904D01*
X149329047Y-55328095D01*
X149662380Y-54423333D02*
X148995714Y-54423333D01*
X149090952Y-54423333D02*
X149043333Y-54375714D01*
X148995714Y-54280476D01*
X148995714Y-54137619D01*
X149043333Y-54042380D01*
X149138571Y-53994761D01*
X149662380Y-53994761D01*
X149138571Y-53994761D02*
X149043333Y-53947142D01*
X148995714Y-53851904D01*
X148995714Y-53709047D01*
X149043333Y-53613809D01*
X149138571Y-53566190D01*
X149662380Y-53566190D01*
X148995714Y-53090000D02*
X149995714Y-53090000D01*
X149043333Y-53090000D02*
X148995714Y-52994761D01*
X148995714Y-52804285D01*
X149043333Y-52709047D01*
X149090952Y-52661428D01*
X149186190Y-52613809D01*
X149471904Y-52613809D01*
X149567142Y-52661428D01*
X149614761Y-52709047D01*
X149662380Y-52804285D01*
X149662380Y-52994761D01*
X149614761Y-53090000D01*
X146804761Y-59591428D02*
X146852380Y-59448571D01*
X146852380Y-59210476D01*
X146804761Y-59115238D01*
X146757142Y-59067619D01*
X146661904Y-59020000D01*
X146566666Y-59020000D01*
X146471428Y-59067619D01*
X146423809Y-59115238D01*
X146376190Y-59210476D01*
X146328571Y-59400952D01*
X146280952Y-59496190D01*
X146233333Y-59543809D01*
X146138095Y-59591428D01*
X146042857Y-59591428D01*
X145947619Y-59543809D01*
X145900000Y-59496190D01*
X145852380Y-59400952D01*
X145852380Y-59162857D01*
X145900000Y-59020000D01*
X146852380Y-58448571D02*
X146804761Y-58543809D01*
X146757142Y-58591428D01*
X146661904Y-58639047D01*
X146376190Y-58639047D01*
X146280952Y-58591428D01*
X146233333Y-58543809D01*
X146185714Y-58448571D01*
X146185714Y-58305714D01*
X146233333Y-58210476D01*
X146280952Y-58162857D01*
X146376190Y-58115238D01*
X146661904Y-58115238D01*
X146757142Y-58162857D01*
X146804761Y-58210476D01*
X146852380Y-58305714D01*
X146852380Y-58448571D01*
X146852380Y-57543809D02*
X146804761Y-57639047D01*
X146709523Y-57686666D01*
X145852380Y-57686666D01*
X146852380Y-56734285D02*
X146328571Y-56734285D01*
X146233333Y-56781904D01*
X146185714Y-56877142D01*
X146185714Y-57067619D01*
X146233333Y-57162857D01*
X146804761Y-56734285D02*
X146852380Y-56829523D01*
X146852380Y-57067619D01*
X146804761Y-57162857D01*
X146709523Y-57210476D01*
X146614285Y-57210476D01*
X146519047Y-57162857D01*
X146471428Y-57067619D01*
X146471428Y-56829523D01*
X146423809Y-56734285D01*
X146852380Y-56258095D02*
X146185714Y-56258095D01*
X146376190Y-56258095D02*
X146280952Y-56210476D01*
X146233333Y-56162857D01*
X146185714Y-56067619D01*
X146185714Y-55972380D01*
X146947619Y-55877142D02*
X146947619Y-55115238D01*
X145852380Y-55020000D02*
X145852380Y-54448571D01*
X146852380Y-54734285D02*
X145852380Y-54734285D01*
X146804761Y-53734285D02*
X146852380Y-53829523D01*
X146852380Y-54020000D01*
X146804761Y-54115238D01*
X146709523Y-54162857D01*
X146328571Y-54162857D01*
X146233333Y-54115238D01*
X146185714Y-54020000D01*
X146185714Y-53829523D01*
X146233333Y-53734285D01*
X146328571Y-53686666D01*
X146423809Y-53686666D01*
X146519047Y-54162857D01*
X146852380Y-53258095D02*
X146185714Y-53258095D01*
X146280952Y-53258095D02*
X146233333Y-53210476D01*
X146185714Y-53115238D01*
X146185714Y-52972380D01*
X146233333Y-52877142D01*
X146328571Y-52829523D01*
X146852380Y-52829523D01*
X146328571Y-52829523D02*
X146233333Y-52781904D01*
X146185714Y-52686666D01*
X146185714Y-52543809D01*
X146233333Y-52448571D01*
X146328571Y-52400952D01*
X146852380Y-52400952D01*
X146185714Y-51924761D02*
X147185714Y-51924761D01*
X146233333Y-51924761D02*
X146185714Y-51829523D01*
X146185714Y-51639047D01*
X146233333Y-51543809D01*
X146280952Y-51496190D01*
X146376190Y-51448571D01*
X146661904Y-51448571D01*
X146757142Y-51496190D01*
X146804761Y-51543809D01*
X146852380Y-51639047D01*
X146852380Y-51829523D01*
X146804761Y-51924761D01*
X144392380Y-59539523D02*
X143392380Y-59539523D01*
X143392380Y-59301428D01*
X143440000Y-59158571D01*
X143535238Y-59063333D01*
X143630476Y-59015714D01*
X143820952Y-58968095D01*
X143963809Y-58968095D01*
X144154285Y-59015714D01*
X144249523Y-59063333D01*
X144344761Y-59158571D01*
X144392380Y-59301428D01*
X144392380Y-59539523D01*
X144392380Y-58539523D02*
X143725714Y-58539523D01*
X143392380Y-58539523D02*
X143440000Y-58587142D01*
X143487619Y-58539523D01*
X143440000Y-58491904D01*
X143392380Y-58539523D01*
X143487619Y-58539523D01*
X144392380Y-58063333D02*
X143725714Y-58063333D01*
X143916190Y-58063333D02*
X143820952Y-58015714D01*
X143773333Y-57968095D01*
X143725714Y-57872857D01*
X143725714Y-57777619D01*
X141824761Y-59562380D02*
X141872380Y-59419523D01*
X141872380Y-59181428D01*
X141824761Y-59086190D01*
X141777142Y-59038571D01*
X141681904Y-58990952D01*
X141586666Y-58990952D01*
X141491428Y-59038571D01*
X141443809Y-59086190D01*
X141396190Y-59181428D01*
X141348571Y-59371904D01*
X141300952Y-59467142D01*
X141253333Y-59514761D01*
X141158095Y-59562380D01*
X141062857Y-59562380D01*
X140967619Y-59514761D01*
X140920000Y-59467142D01*
X140872380Y-59371904D01*
X140872380Y-59133809D01*
X140920000Y-58990952D01*
X141205714Y-58705238D02*
X141205714Y-58324285D01*
X140872380Y-58562380D02*
X141729523Y-58562380D01*
X141824761Y-58514761D01*
X141872380Y-58419523D01*
X141872380Y-58324285D01*
X141824761Y-57610000D02*
X141872380Y-57705238D01*
X141872380Y-57895714D01*
X141824761Y-57990952D01*
X141729523Y-58038571D01*
X141348571Y-58038571D01*
X141253333Y-57990952D01*
X141205714Y-57895714D01*
X141205714Y-57705238D01*
X141253333Y-57610000D01*
X141348571Y-57562380D01*
X141443809Y-57562380D01*
X141539047Y-58038571D01*
X141205714Y-57133809D02*
X142205714Y-57133809D01*
X141253333Y-57133809D02*
X141205714Y-57038571D01*
X141205714Y-56848095D01*
X141253333Y-56752857D01*
X141300952Y-56705238D01*
X141396190Y-56657619D01*
X141681904Y-56657619D01*
X141777142Y-56705238D01*
X141824761Y-56752857D01*
X141872380Y-56848095D01*
X141872380Y-57038571D01*
X141824761Y-57133809D01*
X138838571Y-59240476D02*
X138886190Y-59097619D01*
X138933809Y-59050000D01*
X139029047Y-59002380D01*
X139171904Y-59002380D01*
X139267142Y-59050000D01*
X139314761Y-59097619D01*
X139362380Y-59192857D01*
X139362380Y-59573809D01*
X138362380Y-59573809D01*
X138362380Y-59240476D01*
X138410000Y-59145238D01*
X138457619Y-59097619D01*
X138552857Y-59050000D01*
X138648095Y-59050000D01*
X138743333Y-59097619D01*
X138790952Y-59145238D01*
X138838571Y-59240476D01*
X138838571Y-59573809D01*
X138695714Y-58145238D02*
X139362380Y-58145238D01*
X138695714Y-58573809D02*
X139219523Y-58573809D01*
X139314761Y-58526190D01*
X139362380Y-58430952D01*
X139362380Y-58288095D01*
X139314761Y-58192857D01*
X139267142Y-58145238D01*
X139362380Y-57669047D02*
X138695714Y-57669047D01*
X138886190Y-57669047D02*
X138790952Y-57621428D01*
X138743333Y-57573809D01*
X138695714Y-57478571D01*
X138695714Y-57383333D01*
X138695714Y-57050000D02*
X139362380Y-57050000D01*
X138790952Y-57050000D02*
X138743333Y-57002380D01*
X138695714Y-56907142D01*
X138695714Y-56764285D01*
X138743333Y-56669047D01*
X138838571Y-56621428D01*
X139362380Y-56621428D01*
X139457619Y-56383333D02*
X139457619Y-55621428D01*
X139314761Y-55430952D02*
X139362380Y-55288095D01*
X139362380Y-55050000D01*
X139314761Y-54954761D01*
X139267142Y-54907142D01*
X139171904Y-54859523D01*
X139076666Y-54859523D01*
X138981428Y-54907142D01*
X138933809Y-54954761D01*
X138886190Y-55050000D01*
X138838571Y-55240476D01*
X138790952Y-55335714D01*
X138743333Y-55383333D01*
X138648095Y-55430952D01*
X138552857Y-55430952D01*
X138457619Y-55383333D01*
X138410000Y-55335714D01*
X138362380Y-55240476D01*
X138362380Y-55002380D01*
X138410000Y-54859523D01*
X139362380Y-54430952D02*
X138695714Y-54430952D01*
X138362380Y-54430952D02*
X138410000Y-54478571D01*
X138457619Y-54430952D01*
X138410000Y-54383333D01*
X138362380Y-54430952D01*
X138457619Y-54430952D01*
X138695714Y-53526190D02*
X139505238Y-53526190D01*
X139600476Y-53573809D01*
X139648095Y-53621428D01*
X139695714Y-53716666D01*
X139695714Y-53859523D01*
X139648095Y-53954761D01*
X139314761Y-53526190D02*
X139362380Y-53621428D01*
X139362380Y-53811904D01*
X139314761Y-53907142D01*
X139267142Y-53954761D01*
X139171904Y-54002380D01*
X138886190Y-54002380D01*
X138790952Y-53954761D01*
X138743333Y-53907142D01*
X138695714Y-53811904D01*
X138695714Y-53621428D01*
X138743333Y-53526190D01*
X135962380Y-59608571D02*
X135962380Y-59037142D01*
X136962380Y-59322857D02*
X135962380Y-59322857D01*
X135962380Y-58846666D02*
X135962380Y-58275238D01*
X136962380Y-58560952D02*
X135962380Y-58560952D01*
X136962380Y-57465714D02*
X136962380Y-57941904D01*
X135962380Y-57941904D01*
X137057619Y-57370476D02*
X137057619Y-56608571D01*
X136962380Y-55799047D02*
X136486190Y-56132380D01*
X136962380Y-56370476D02*
X135962380Y-56370476D01*
X135962380Y-55989523D01*
X136010000Y-55894285D01*
X136057619Y-55846666D01*
X136152857Y-55799047D01*
X136295714Y-55799047D01*
X136390952Y-55846666D01*
X136438571Y-55894285D01*
X136486190Y-55989523D01*
X136486190Y-56370476D01*
X135962380Y-55465714D02*
X136962380Y-54799047D01*
X135962380Y-54799047D02*
X136962380Y-55465714D01*
X133252380Y-59559523D02*
X133252380Y-58988095D01*
X134252380Y-59273809D02*
X133252380Y-59273809D01*
X133252380Y-58797619D02*
X133252380Y-58226190D01*
X134252380Y-58511904D02*
X133252380Y-58511904D01*
X134252380Y-57416666D02*
X134252380Y-57892857D01*
X133252380Y-57892857D01*
X134347619Y-57321428D02*
X134347619Y-56559523D01*
X133252380Y-56464285D02*
X133252380Y-55892857D01*
X134252380Y-56178571D02*
X133252380Y-56178571D01*
X133252380Y-55654761D02*
X134252380Y-54988095D01*
X133252380Y-54988095D02*
X134252380Y-55654761D01*
X131624761Y-59570476D02*
X131672380Y-59427619D01*
X131672380Y-59189523D01*
X131624761Y-59094285D01*
X131577142Y-59046666D01*
X131481904Y-58999047D01*
X131386666Y-58999047D01*
X131291428Y-59046666D01*
X131243809Y-59094285D01*
X131196190Y-59189523D01*
X131148571Y-59380000D01*
X131100952Y-59475238D01*
X131053333Y-59522857D01*
X130958095Y-59570476D01*
X130862857Y-59570476D01*
X130767619Y-59522857D01*
X130720000Y-59475238D01*
X130672380Y-59380000D01*
X130672380Y-59141904D01*
X130720000Y-58999047D01*
X131577142Y-57999047D02*
X131624761Y-58046666D01*
X131672380Y-58189523D01*
X131672380Y-58284761D01*
X131624761Y-58427619D01*
X131529523Y-58522857D01*
X131434285Y-58570476D01*
X131243809Y-58618095D01*
X131100952Y-58618095D01*
X130910476Y-58570476D01*
X130815238Y-58522857D01*
X130720000Y-58427619D01*
X130672380Y-58284761D01*
X130672380Y-58189523D01*
X130720000Y-58046666D01*
X130767619Y-57999047D01*
X131672380Y-57094285D02*
X131672380Y-57570476D01*
X130672380Y-57570476D01*
X129034761Y-59614285D02*
X129082380Y-59471428D01*
X129082380Y-59233333D01*
X129034761Y-59138095D01*
X128987142Y-59090476D01*
X128891904Y-59042857D01*
X128796666Y-59042857D01*
X128701428Y-59090476D01*
X128653809Y-59138095D01*
X128606190Y-59233333D01*
X128558571Y-59423809D01*
X128510952Y-59519047D01*
X128463333Y-59566666D01*
X128368095Y-59614285D01*
X128272857Y-59614285D01*
X128177619Y-59566666D01*
X128130000Y-59519047D01*
X128082380Y-59423809D01*
X128082380Y-59185714D01*
X128130000Y-59042857D01*
X129082380Y-58614285D02*
X128082380Y-58614285D01*
X128082380Y-58376190D01*
X128130000Y-58233333D01*
X128225238Y-58138095D01*
X128320476Y-58090476D01*
X128510952Y-58042857D01*
X128653809Y-58042857D01*
X128844285Y-58090476D01*
X128939523Y-58138095D01*
X129034761Y-58233333D01*
X129082380Y-58376190D01*
X129082380Y-58614285D01*
X128796666Y-57661904D02*
X128796666Y-57185714D01*
X129082380Y-57757142D02*
X128082380Y-57423809D01*
X129082380Y-57090476D01*
X147054285Y-128995714D02*
X147054285Y-129662380D01*
X146816190Y-128614761D02*
X146578095Y-129329047D01*
X147197142Y-129329047D01*
X147768571Y-128662380D02*
X147863809Y-128662380D01*
X147959047Y-128710000D01*
X148006666Y-128757619D01*
X148054285Y-128852857D01*
X148101904Y-129043333D01*
X148101904Y-129281428D01*
X148054285Y-129471904D01*
X148006666Y-129567142D01*
X147959047Y-129614761D01*
X147863809Y-129662380D01*
X147768571Y-129662380D01*
X147673333Y-129614761D01*
X147625714Y-129567142D01*
X147578095Y-129471904D01*
X147530476Y-129281428D01*
X147530476Y-129043333D01*
X147578095Y-128852857D01*
X147625714Y-128757619D01*
X147673333Y-128710000D01*
X147768571Y-128662380D01*
X146570476Y-131192380D02*
X147189523Y-131192380D01*
X146856190Y-131573333D01*
X146999047Y-131573333D01*
X147094285Y-131620952D01*
X147141904Y-131668571D01*
X147189523Y-131763809D01*
X147189523Y-132001904D01*
X147141904Y-132097142D01*
X147094285Y-132144761D01*
X146999047Y-132192380D01*
X146713333Y-132192380D01*
X146618095Y-132144761D01*
X146570476Y-132097142D01*
X147665714Y-132192380D02*
X147856190Y-132192380D01*
X147951428Y-132144761D01*
X147999047Y-132097142D01*
X148094285Y-131954285D01*
X148141904Y-131763809D01*
X148141904Y-131382857D01*
X148094285Y-131287619D01*
X148046666Y-131240000D01*
X147951428Y-131192380D01*
X147760952Y-131192380D01*
X147665714Y-131240000D01*
X147618095Y-131287619D01*
X147570476Y-131382857D01*
X147570476Y-131620952D01*
X147618095Y-131716190D01*
X147665714Y-131763809D01*
X147760952Y-131811428D01*
X147951428Y-131811428D01*
X148046666Y-131763809D01*
X148094285Y-131716190D01*
X148141904Y-131620952D01*
X93684285Y-128857619D02*
X93731904Y-128810000D01*
X93827142Y-128762380D01*
X94065238Y-128762380D01*
X94160476Y-128810000D01*
X94208095Y-128857619D01*
X94255714Y-128952857D01*
X94255714Y-129048095D01*
X94208095Y-129190952D01*
X93636666Y-129762380D01*
X94255714Y-129762380D01*
X94295714Y-132262380D02*
X93724285Y-132262380D01*
X94010000Y-132262380D02*
X94010000Y-131262380D01*
X93914761Y-131405238D01*
X93819523Y-131500476D01*
X93724285Y-131548095D01*
X86558095Y-123840000D02*
X86462857Y-123792380D01*
X86320000Y-123792380D01*
X86177142Y-123840000D01*
X86081904Y-123935238D01*
X86034285Y-124030476D01*
X85986666Y-124220952D01*
X85986666Y-124363809D01*
X86034285Y-124554285D01*
X86081904Y-124649523D01*
X86177142Y-124744761D01*
X86320000Y-124792380D01*
X86415238Y-124792380D01*
X86558095Y-124744761D01*
X86605714Y-124697142D01*
X86605714Y-124363809D01*
X86415238Y-124363809D01*
X87034285Y-124792380D02*
X87034285Y-123792380D01*
X87605714Y-124792380D01*
X87605714Y-123792380D01*
X88081904Y-124792380D02*
X88081904Y-123792380D01*
X88320000Y-123792380D01*
X88462857Y-123840000D01*
X88558095Y-123935238D01*
X88605714Y-124030476D01*
X88653333Y-124220952D01*
X88653333Y-124363809D01*
X88605714Y-124554285D01*
X88558095Y-124649523D01*
X88462857Y-124744761D01*
X88320000Y-124792380D01*
X88081904Y-124792380D01*
X86404285Y-126422380D02*
X85928095Y-126422380D01*
X85880476Y-126898571D01*
X85928095Y-126850952D01*
X86023333Y-126803333D01*
X86261428Y-126803333D01*
X86356666Y-126850952D01*
X86404285Y-126898571D01*
X86451904Y-126993809D01*
X86451904Y-127231904D01*
X86404285Y-127327142D01*
X86356666Y-127374761D01*
X86261428Y-127422380D01*
X86023333Y-127422380D01*
X85928095Y-127374761D01*
X85880476Y-127327142D01*
X86737619Y-126422380D02*
X87070952Y-127422380D01*
X87404285Y-126422380D01*
X87499523Y-127517619D02*
X88261428Y-127517619D01*
X88832857Y-126898571D02*
X88975714Y-126946190D01*
X89023333Y-126993809D01*
X89070952Y-127089047D01*
X89070952Y-127231904D01*
X89023333Y-127327142D01*
X88975714Y-127374761D01*
X88880476Y-127422380D01*
X88499523Y-127422380D01*
X88499523Y-126422380D01*
X88832857Y-126422380D01*
X88928095Y-126470000D01*
X88975714Y-126517619D01*
X89023333Y-126612857D01*
X89023333Y-126708095D01*
X88975714Y-126803333D01*
X88928095Y-126850952D01*
X88832857Y-126898571D01*
X88499523Y-126898571D01*
X89928095Y-126755714D02*
X89928095Y-127422380D01*
X89499523Y-126755714D02*
X89499523Y-127279523D01*
X89547142Y-127374761D01*
X89642380Y-127422380D01*
X89785238Y-127422380D01*
X89880476Y-127374761D01*
X89928095Y-127327142D01*
X90356666Y-127374761D02*
X90451904Y-127422380D01*
X90642380Y-127422380D01*
X90737619Y-127374761D01*
X90785238Y-127279523D01*
X90785238Y-127231904D01*
X90737619Y-127136666D01*
X90642380Y-127089047D01*
X90499523Y-127089047D01*
X90404285Y-127041428D01*
X90356666Y-126946190D01*
X90356666Y-126898571D01*
X90404285Y-126803333D01*
X90499523Y-126755714D01*
X90642380Y-126755714D01*
X90737619Y-126803333D01*
X90975714Y-127517619D02*
X91737619Y-127517619D01*
X91928095Y-126517619D02*
X91975714Y-126470000D01*
X92070952Y-126422380D01*
X92309047Y-126422380D01*
X92404285Y-126470000D01*
X92451904Y-126517619D01*
X92499523Y-126612857D01*
X92499523Y-126708095D01*
X92451904Y-126850952D01*
X91880476Y-127422380D01*
X92499523Y-127422380D01*
X86062857Y-129932380D02*
X86253333Y-129932380D01*
X86348571Y-129884761D01*
X86396190Y-129837142D01*
X86491428Y-129694285D01*
X86539047Y-129503809D01*
X86539047Y-129122857D01*
X86491428Y-129027619D01*
X86443809Y-128980000D01*
X86348571Y-128932380D01*
X86158095Y-128932380D01*
X86062857Y-128980000D01*
X86015238Y-129027619D01*
X85967619Y-129122857D01*
X85967619Y-129360952D01*
X86015238Y-129456190D01*
X86062857Y-129503809D01*
X86158095Y-129551428D01*
X86348571Y-129551428D01*
X86443809Y-129503809D01*
X86491428Y-129456190D01*
X86539047Y-129360952D01*
X86824761Y-128932380D02*
X87158095Y-129932380D01*
X87491428Y-128932380D01*
X87586666Y-130027619D02*
X88348571Y-130027619D01*
X88920000Y-129408571D02*
X89062857Y-129456190D01*
X89110476Y-129503809D01*
X89158095Y-129599047D01*
X89158095Y-129741904D01*
X89110476Y-129837142D01*
X89062857Y-129884761D01*
X88967619Y-129932380D01*
X88586666Y-129932380D01*
X88586666Y-128932380D01*
X88920000Y-128932380D01*
X89015238Y-128980000D01*
X89062857Y-129027619D01*
X89110476Y-129122857D01*
X89110476Y-129218095D01*
X89062857Y-129313333D01*
X89015238Y-129360952D01*
X88920000Y-129408571D01*
X88586666Y-129408571D01*
X90015238Y-129265714D02*
X90015238Y-129932380D01*
X89586666Y-129265714D02*
X89586666Y-129789523D01*
X89634285Y-129884761D01*
X89729523Y-129932380D01*
X89872380Y-129932380D01*
X89967619Y-129884761D01*
X90015238Y-129837142D01*
X90443809Y-129884761D02*
X90539047Y-129932380D01*
X90729523Y-129932380D01*
X90824761Y-129884761D01*
X90872380Y-129789523D01*
X90872380Y-129741904D01*
X90824761Y-129646666D01*
X90729523Y-129599047D01*
X90586666Y-129599047D01*
X90491428Y-129551428D01*
X90443809Y-129456190D01*
X90443809Y-129408571D01*
X90491428Y-129313333D01*
X90586666Y-129265714D01*
X90729523Y-129265714D01*
X90824761Y-129313333D01*
X86694285Y-131262380D02*
X86218095Y-131262380D01*
X86170476Y-131738571D01*
X86218095Y-131690952D01*
X86313333Y-131643333D01*
X86551428Y-131643333D01*
X86646666Y-131690952D01*
X86694285Y-131738571D01*
X86741904Y-131833809D01*
X86741904Y-132071904D01*
X86694285Y-132167142D01*
X86646666Y-132214761D01*
X86551428Y-132262380D01*
X86313333Y-132262380D01*
X86218095Y-132214761D01*
X86170476Y-132167142D01*
X87027619Y-131262380D02*
X87360952Y-132262380D01*
X87694285Y-131262380D01*
X87789523Y-132357619D02*
X88551428Y-132357619D01*
X89122857Y-131738571D02*
X89265714Y-131786190D01*
X89313333Y-131833809D01*
X89360952Y-131929047D01*
X89360952Y-132071904D01*
X89313333Y-132167142D01*
X89265714Y-132214761D01*
X89170476Y-132262380D01*
X88789523Y-132262380D01*
X88789523Y-131262380D01*
X89122857Y-131262380D01*
X89218095Y-131310000D01*
X89265714Y-131357619D01*
X89313333Y-131452857D01*
X89313333Y-131548095D01*
X89265714Y-131643333D01*
X89218095Y-131690952D01*
X89122857Y-131738571D01*
X88789523Y-131738571D01*
X90218095Y-131595714D02*
X90218095Y-132262380D01*
X89789523Y-131595714D02*
X89789523Y-132119523D01*
X89837142Y-132214761D01*
X89932380Y-132262380D01*
X90075238Y-132262380D01*
X90170476Y-132214761D01*
X90218095Y-132167142D01*
X90646666Y-132214761D02*
X90741904Y-132262380D01*
X90932380Y-132262380D01*
X91027619Y-132214761D01*
X91075238Y-132119523D01*
X91075238Y-132071904D01*
X91027619Y-131976666D01*
X90932380Y-131929047D01*
X90789523Y-131929047D01*
X90694285Y-131881428D01*
X90646666Y-131786190D01*
X90646666Y-131738571D01*
X90694285Y-131643333D01*
X90789523Y-131595714D01*
X90932380Y-131595714D01*
X91027619Y-131643333D01*
X91265714Y-132357619D02*
X92027619Y-132357619D01*
X92789523Y-132262380D02*
X92218095Y-132262380D01*
X92503809Y-132262380D02*
X92503809Y-131262380D01*
X92408571Y-131405238D01*
X92313333Y-131500476D01*
X92218095Y-131548095D01*
X119984780Y-94329285D02*
X119984780Y-94900714D01*
X119984780Y-94615000D02*
X118984780Y-94615000D01*
X119127638Y-94710238D01*
X119222876Y-94805476D01*
X119270495Y-94900714D01*
D13*
X93383530Y-136548256D02*
G75*
G02X95018311Y-134600000I1634781J288256D01*
G01*
X147616470Y-136548256D02*
G75*
G03X145981689Y-134600000I-1634781J288256D01*
G01*
X94282798Y-141648256D02*
G75*
G03X95917579Y-143020000I1634781J288256D01*
G01*
X146717202Y-141648256D02*
G75*
G02X145082421Y-143020000I-1634781J288256D01*
G01*
X95018311Y-134600000D02*
X145981689Y-134600000D01*
X95917579Y-143020000D02*
X145082421Y-143020000D01*
X147616470Y-136548256D02*
X146717202Y-141648256D01*
X93383530Y-136548256D02*
X94282798Y-141648256D01*
X86053000Y-83904800D02*
G75*
G03X86053000Y-83904800I-1090000J0D01*
G01*
X99517200Y-70593000D02*
G75*
G03X99517200Y-70593000I-1090000J0D01*
G01*
X82730000Y-86140000D02*
X82730000Y-68360000D01*
X100510000Y-86140000D02*
X82730000Y-86140000D01*
X100510000Y-68360000D02*
X100510000Y-86140000D01*
X82730000Y-68360000D02*
X100510000Y-68360000D01*
X169260000Y-88845000D02*
X159490000Y-88845000D01*
X169260000Y-67015000D02*
X159490000Y-67015000D01*
X159490000Y-79538000D02*
X159490000Y-88845000D01*
X159490000Y-67015000D02*
X159490000Y-76322000D01*
X169260000Y-79538000D02*
X169260000Y-88845000D01*
X169260000Y-67015000D02*
X169260000Y-76322000D01*
X171960000Y-67085000D02*
X181730000Y-67085000D01*
X171960000Y-88915000D02*
X181730000Y-88915000D01*
X181730000Y-76392000D02*
X181730000Y-67085000D01*
X181730000Y-88915000D02*
X181730000Y-79608000D01*
X171960000Y-76392000D02*
X171960000Y-67085000D01*
X171960000Y-88915000D02*
X171960000Y-79608000D01*
X187529600Y-121589200D02*
X177318800Y-121589200D01*
X187529600Y-121589200D02*
X187529600Y-111378400D01*
X187529600Y-111378400D02*
X177318800Y-111378400D01*
X177318800Y-121589200D02*
X177318800Y-111378400D01*
X125196600Y-110618400D02*
X125196600Y-109848400D01*
X125196600Y-102538400D02*
X125196600Y-103308400D01*
X126566600Y-109848400D02*
X126566600Y-103308400D01*
X123826600Y-109848400D02*
X126566600Y-109848400D01*
X123826600Y-103308400D02*
X123826600Y-109848400D01*
X126566600Y-103308400D02*
X123826600Y-103308400D01*
X126550000Y-67540000D02*
X126550000Y-68310000D01*
X126550000Y-75620000D02*
X126550000Y-74850000D01*
X125180000Y-68310000D02*
X125180000Y-74850000D01*
X127920000Y-68310000D02*
X125180000Y-68310000D01*
X127920000Y-74850000D02*
X127920000Y-68310000D01*
X125180000Y-74850000D02*
X127920000Y-74850000D01*
X105890000Y-67570000D02*
X105890000Y-68340000D01*
X105890000Y-75650000D02*
X105890000Y-74880000D01*
X104520000Y-68340000D02*
X104520000Y-74880000D01*
X107260000Y-68340000D02*
X104520000Y-68340000D01*
X107260000Y-74880000D02*
X107260000Y-68340000D01*
X104520000Y-74880000D02*
X107260000Y-74880000D01*
X112400000Y-67570000D02*
X112400000Y-68340000D01*
X112400000Y-75650000D02*
X112400000Y-74880000D01*
X111030000Y-68340000D02*
X111030000Y-74880000D01*
X113770000Y-68340000D02*
X111030000Y-68340000D01*
X113770000Y-74880000D02*
X113770000Y-68340000D01*
X111030000Y-74880000D02*
X113770000Y-74880000D01*
X126580000Y-80780000D02*
X126580000Y-81470000D01*
X126580000Y-86200000D02*
X126580000Y-85510000D01*
X125160000Y-81470000D02*
X125160000Y-85510000D01*
X128000000Y-81470000D02*
X125160000Y-81470000D01*
X128000000Y-85510000D02*
X128000000Y-81470000D01*
X125160000Y-85510000D02*
X128000000Y-85510000D01*
X105910000Y-80770000D02*
X105910000Y-81460000D01*
X105910000Y-86190000D02*
X105910000Y-85500000D01*
X104490000Y-81460000D02*
X104490000Y-85500000D01*
X107330000Y-81460000D02*
X104490000Y-81460000D01*
X107330000Y-85500000D02*
X107330000Y-81460000D01*
X104490000Y-85500000D02*
X107330000Y-85500000D01*
X112420000Y-80800000D02*
X112420000Y-81490000D01*
X112420000Y-86220000D02*
X112420000Y-85530000D01*
X111000000Y-81490000D02*
X111000000Y-85530000D01*
X113840000Y-81490000D02*
X111000000Y-81490000D01*
X113840000Y-85530000D02*
X113840000Y-81490000D01*
X111000000Y-85530000D02*
X113840000Y-85530000D01*
X95164600Y-133105200D02*
X95164600Y-131775200D01*
X96494600Y-133105200D02*
X95164600Y-133105200D01*
X95164600Y-130505200D02*
X95164600Y-127905200D01*
X97764600Y-130505200D02*
X95164600Y-130505200D01*
X97764600Y-133105200D02*
X97764600Y-130505200D01*
X95164600Y-127905200D02*
X146084600Y-127905200D01*
X97764600Y-133105200D02*
X146084600Y-133105200D01*
X146084600Y-133105200D02*
X146084600Y-127905200D01*
X119380000Y-67550000D02*
X119380000Y-68320000D01*
X119380000Y-75630000D02*
X119380000Y-74860000D01*
X118010000Y-68320000D02*
X118010000Y-74860000D01*
X120750000Y-68320000D02*
X118010000Y-68320000D01*
X120750000Y-74860000D02*
X120750000Y-68320000D01*
X118010000Y-74860000D02*
X120750000Y-74860000D01*
X119350000Y-80800000D02*
X119350000Y-81490000D01*
X119350000Y-86220000D02*
X119350000Y-85530000D01*
X117930000Y-81490000D02*
X117930000Y-85530000D01*
X120770000Y-81490000D02*
X117930000Y-81490000D01*
X120770000Y-85530000D02*
X120770000Y-81490000D01*
X117930000Y-85530000D02*
X120770000Y-85530000D01*
X85480000Y-133280000D02*
X84150000Y-133280000D01*
X85480000Y-131950000D02*
X85480000Y-133280000D01*
X85480000Y-130680000D02*
X82820000Y-130680000D01*
X82820000Y-130680000D02*
X82820000Y-123000000D01*
X85480000Y-130680000D02*
X85480000Y-123000000D01*
X85480000Y-123000000D02*
X82820000Y-123000000D01*
X164875000Y-106540000D02*
X164875000Y-101100000D01*
X164635000Y-106540000D02*
X164635000Y-101100000D01*
X164755000Y-106540000D02*
X164755000Y-101100000D01*
X156560000Y-101100000D02*
X156560000Y-101980000D01*
X166300000Y-101100000D02*
X156560000Y-101100000D01*
X166300000Y-101980000D02*
X166300000Y-101100000D01*
X156560000Y-106540000D02*
X156560000Y-105660000D01*
X166300000Y-106540000D02*
X156560000Y-106540000D01*
X166300000Y-105660000D02*
X166300000Y-106540000D01*
X183185000Y-101090000D02*
X183185000Y-106530000D01*
X183425000Y-101090000D02*
X183425000Y-106530000D01*
X183305000Y-101090000D02*
X183305000Y-106530000D01*
X191500000Y-106530000D02*
X191500000Y-105650000D01*
X181760000Y-106530000D02*
X191500000Y-106530000D01*
X181760000Y-105650000D02*
X181760000Y-106530000D01*
X191500000Y-101090000D02*
X191500000Y-101970000D01*
X181760000Y-101090000D02*
X191500000Y-101090000D01*
X181760000Y-101970000D02*
X181760000Y-101090000D01*
X127321000Y-62594800D02*
X127321000Y-61264800D01*
X128651000Y-62594800D02*
X127321000Y-62594800D01*
X129921000Y-62594800D02*
X129921000Y-59934800D01*
X129921000Y-59934800D02*
X150301000Y-59934800D01*
X129921000Y-62594800D02*
X150301000Y-62594800D01*
X150301000Y-62594800D02*
X150301000Y-59934800D01*
X88250000Y-101340000D02*
X89580000Y-101340000D01*
X88250000Y-102670000D02*
X88250000Y-101340000D01*
X88250000Y-103940000D02*
X90910000Y-103940000D01*
X90910000Y-103940000D02*
X90910000Y-111620000D01*
X88250000Y-103940000D02*
X88250000Y-111620000D01*
X88250000Y-111620000D02*
X90910000Y-111620000D01*
X166258530Y-137098256D02*
G75*
G02X167893311Y-135150000I1634781J288256D01*
G01*
X190291470Y-137098256D02*
G75*
G03X188656689Y-135150000I-1634781J288256D01*
G01*
X167157798Y-142198256D02*
G75*
G03X168792579Y-143570000I1634781J288256D01*
G01*
X189392202Y-142198256D02*
G75*
G02X187757421Y-143570000I-1634781J288256D01*
G01*
X167893311Y-135150000D02*
X188656689Y-135150000D01*
X168792579Y-143570000D02*
X187757421Y-143570000D01*
X190291470Y-137098256D02*
X189392202Y-142198256D01*
X166258530Y-137098256D02*
X167157798Y-142198256D01*
X109269400Y-124917200D02*
X110039400Y-124917200D01*
X117349400Y-124917200D02*
X116579400Y-124917200D01*
X110039400Y-126287200D02*
X116579400Y-126287200D01*
X110039400Y-123547200D02*
X110039400Y-126287200D01*
X116579400Y-123547200D02*
X110039400Y-123547200D01*
X116579400Y-126287200D02*
X116579400Y-123547200D01*
X109244000Y-121107200D02*
X110014000Y-121107200D01*
X117324000Y-121107200D02*
X116554000Y-121107200D01*
X110014000Y-122477200D02*
X116554000Y-122477200D01*
X110014000Y-119737200D02*
X110014000Y-122477200D01*
X116554000Y-119737200D02*
X110014000Y-119737200D01*
X116554000Y-122477200D02*
X116554000Y-119737200D01*
X122502800Y-124917200D02*
X123272800Y-124917200D01*
X130582800Y-124917200D02*
X129812800Y-124917200D01*
X123272800Y-126287200D02*
X129812800Y-126287200D01*
X123272800Y-123547200D02*
X123272800Y-126287200D01*
X129812800Y-123547200D02*
X123272800Y-123547200D01*
X129812800Y-126287200D02*
X129812800Y-123547200D01*
X121259600Y-110593000D02*
X121259600Y-109823000D01*
X121259600Y-102513000D02*
X121259600Y-103283000D01*
X122629600Y-109823000D02*
X122629600Y-103283000D01*
X119889600Y-109823000D02*
X122629600Y-109823000D01*
X119889600Y-103283000D02*
X119889600Y-109823000D01*
X122629600Y-103283000D02*
X119889600Y-103283000D01*
X113969800Y-108634400D02*
X113969800Y-109404400D01*
X113969800Y-116714400D02*
X113969800Y-115944400D01*
X112599800Y-109404400D02*
X112599800Y-115944400D01*
X115339800Y-109404400D02*
X112599800Y-109404400D01*
X115339800Y-115944400D02*
X115339800Y-109404400D01*
X112599800Y-115944400D02*
X115339800Y-115944400D01*
X151952400Y-140320800D02*
X151952400Y-130110000D01*
X151952400Y-140320800D02*
X162163200Y-140320800D01*
X162163200Y-140320800D02*
X162163200Y-130110000D01*
X151952400Y-130110000D02*
X162163200Y-130110000D01*
X187639600Y-133389200D02*
X177428800Y-133389200D01*
X187639600Y-133389200D02*
X187639600Y-123178400D01*
X187639600Y-123178400D02*
X177428800Y-123178400D01*
X177428800Y-133389200D02*
X177428800Y-123178400D01*
X197810000Y-131996000D02*
X196300000Y-131996000D01*
X197810000Y-128296000D02*
X196300000Y-128296000D01*
X196300000Y-125025000D02*
X196300000Y-135266000D01*
X197810000Y-135266000D02*
X193169000Y-135266000D01*
X197810000Y-125025000D02*
X193169000Y-125025000D01*
X193169000Y-125025000D02*
X193169000Y-135266000D01*
X197810000Y-125025000D02*
X197810000Y-135266000D01*
X125815878Y-119872278D02*
G75*
G03X123977400Y-115433800I-1838478J1838478D01*
G01*
X122138922Y-119872278D02*
G75*
G02X123977400Y-115433800I1838478J1838478D01*
G01*
X122177400Y-119883800D02*
X125777400Y-119883800D01*
X116290878Y-106003878D02*
G75*
G03X114452400Y-101565400I-1838478J1838478D01*
G01*
X112613922Y-106003878D02*
G75*
G02X114452400Y-101565400I1838478J1838478D01*
G01*
X112652400Y-106015400D02*
X116252400Y-106015400D01*
X147675600Y-101930200D02*
X145770600Y-101930200D01*
X132364800Y-108280200D02*
G75*
G03X132364800Y-108280200I-1250000J0D01*
G01*
X132364800Y-118440200D02*
G75*
G03X132364800Y-118440200I-1250000J0D01*
G01*
X146385600Y-118440200D02*
G75*
G03X146385600Y-118440200I-1250000J0D01*
G01*
X146385600Y-108280200D02*
G75*
G03X146385600Y-108280200I-1250000J0D01*
G01*
X128625600Y-101930200D02*
X147675600Y-101930200D01*
X128625600Y-120980200D02*
X128625600Y-101930200D01*
X147675600Y-120980200D02*
X128625600Y-120980200D01*
X147675600Y-101930200D02*
X147675600Y-120980200D01*
X97205800Y-104368600D02*
X98475800Y-104368600D01*
X97205800Y-103098600D02*
X97205800Y-104368600D01*
X97205800Y-118338600D02*
X97205800Y-103098600D01*
X109905800Y-118338600D02*
X97205800Y-118338600D01*
X109905800Y-103098600D02*
X109905800Y-118338600D01*
X97205800Y-103098600D02*
X109905800Y-103098600D01*
X197880000Y-116160000D02*
X196370000Y-116160000D01*
X197880000Y-112460000D02*
X196370000Y-112460000D01*
X196370000Y-109189000D02*
X196370000Y-119430000D01*
X197880000Y-119430000D02*
X193239000Y-119430000D01*
X197880000Y-109189000D02*
X193239000Y-109189000D01*
X193239000Y-109189000D02*
X193239000Y-119430000D01*
X197880000Y-109189000D02*
X197880000Y-119430000D01*
X167182800Y-111734600D02*
G75*
G03X167182800Y-111734600I-1090000J0D01*
G01*
X153718600Y-125046400D02*
G75*
G03X153718600Y-125046400I-1090000J0D01*
G01*
X168325800Y-109499400D02*
X168325800Y-127279400D01*
X150545800Y-109499400D02*
X168325800Y-109499400D01*
X150545800Y-127279400D02*
X150545800Y-109499400D01*
X168325800Y-127279400D02*
X150545800Y-127279400D01*
D12*
X189382400Y-93345000D02*
X189382400Y-47625000D01*
X184302400Y-47625000D02*
X184302400Y-90805000D01*
X189382400Y-47625000D02*
X184302400Y-47625000D01*
X189382400Y-93345000D02*
X186842400Y-93345000D01*
X184022400Y-92075000D02*
X184022400Y-93625000D01*
X186842400Y-93345000D02*
X186842400Y-90805000D01*
X186842400Y-90805000D02*
X184302400Y-90805000D01*
X184022400Y-93625000D02*
X185572400Y-93625000D01*
X120802400Y-98425000D02*
X138582400Y-98425000D01*
X138582400Y-98425000D02*
X138582400Y-95885000D01*
X138582400Y-95885000D02*
X120802400Y-95885000D01*
X117982400Y-98705000D02*
X119532400Y-98705000D01*
X120802400Y-98425000D02*
X120802400Y-95885000D01*
X119532400Y-95605000D02*
X117982400Y-95605000D01*
X117982400Y-95605000D02*
X117982400Y-98705000D01*
X143662400Y-98425000D02*
X161442400Y-98425000D01*
X161442400Y-98425000D02*
X161442400Y-95885000D01*
X161442400Y-95885000D02*
X143662400Y-95885000D01*
X140842400Y-98705000D02*
X142392400Y-98705000D01*
X143662400Y-98425000D02*
X143662400Y-95885000D01*
X142392400Y-95605000D02*
X140842400Y-95605000D01*
X140842400Y-95605000D02*
X140842400Y-98705000D01*
X166522400Y-98425000D02*
X184302400Y-98425000D01*
X184302400Y-98425000D02*
X184302400Y-95885000D01*
X184302400Y-95885000D02*
X166522400Y-95885000D01*
X163702400Y-98705000D02*
X165252400Y-98705000D01*
X166522400Y-98425000D02*
X166522400Y-95885000D01*
X165252400Y-95605000D02*
X163702400Y-95605000D01*
X163702400Y-95605000D02*
X163702400Y-98705000D01*
X111658400Y-50165000D02*
X134518400Y-50165000D01*
X134518400Y-50165000D02*
X134518400Y-47625000D01*
X134518400Y-47625000D02*
X111658400Y-47625000D01*
X108838400Y-50445000D02*
X110388400Y-50445000D01*
X111658400Y-50165000D02*
X111658400Y-47625000D01*
X110388400Y-47345000D02*
X108838400Y-47345000D01*
X108838400Y-47345000D02*
X108838400Y-50445000D01*
X138582400Y-50165000D02*
X156362400Y-50165000D01*
X156362400Y-50165000D02*
X156362400Y-47625000D01*
X156362400Y-47625000D02*
X138582400Y-47625000D01*
X135762400Y-50445000D02*
X137312400Y-50445000D01*
X138582400Y-50165000D02*
X138582400Y-47625000D01*
X137312400Y-47345000D02*
X135762400Y-47345000D01*
X135762400Y-47345000D02*
X135762400Y-50445000D01*
X161442400Y-50165000D02*
X179222400Y-50165000D01*
X179222400Y-50165000D02*
X179222400Y-47625000D01*
X179222400Y-47625000D02*
X161442400Y-47625000D01*
X158622400Y-50445000D02*
X160172400Y-50445000D01*
X161442400Y-50165000D02*
X161442400Y-47625000D01*
X160172400Y-47345000D02*
X158622400Y-47345000D01*
X158622400Y-47345000D02*
X158622400Y-50445000D01*
X107848400Y-97155000D02*
G75*
G03X107848400Y-97155000I-2286000J0D01*
G01*
X159918400Y-92075000D02*
G75*
G03X159918400Y-92075000I-2286000J0D01*
G01*
X190398400Y-97155000D02*
G75*
G03X190398400Y-97155000I-2286000J0D01*
G01*
X109118400Y-48895000D02*
G75*
G03X109118400Y-48895000I-2286000J0D01*
G01*
X159918400Y-64135000D02*
G75*
G03X159918400Y-64135000I-2286000J0D01*
G01*
X184048400Y-48895000D02*
G75*
G03X184048400Y-48895000I-2286000J0D01*
G01*
X147560666Y-142176380D02*
X147560666Y-142890666D01*
X147513047Y-143033523D01*
X147417809Y-143128761D01*
X147274952Y-143176380D01*
X147179714Y-143176380D01*
X147989238Y-142271619D02*
X148036857Y-142224000D01*
X148132095Y-142176380D01*
X148370190Y-142176380D01*
X148465428Y-142224000D01*
X148513047Y-142271619D01*
X148560666Y-142366857D01*
X148560666Y-142462095D01*
X148513047Y-142604952D01*
X147941619Y-143176380D01*
X148560666Y-143176380D01*
X112598095Y-144262380D02*
X112598095Y-143262380D01*
X113169523Y-144262380D01*
X113169523Y-143262380D01*
X113598095Y-143976666D02*
X114074285Y-143976666D01*
X113502857Y-144262380D02*
X113836190Y-143262380D01*
X114169523Y-144262380D01*
X114455238Y-144214761D02*
X114598095Y-144262380D01*
X114836190Y-144262380D01*
X114931428Y-144214761D01*
X114979047Y-144167142D01*
X115026666Y-144071904D01*
X115026666Y-143976666D01*
X114979047Y-143881428D01*
X114931428Y-143833809D01*
X114836190Y-143786190D01*
X114645714Y-143738571D01*
X114550476Y-143690952D01*
X114502857Y-143643333D01*
X114455238Y-143548095D01*
X114455238Y-143452857D01*
X114502857Y-143357619D01*
X114550476Y-143310000D01*
X114645714Y-143262380D01*
X114883809Y-143262380D01*
X115026666Y-143310000D01*
X115407619Y-143976666D02*
X115883809Y-143976666D01*
X115312380Y-144262380D02*
X115645714Y-143262380D01*
X115979047Y-144262380D01*
X116074285Y-144357619D02*
X116836190Y-144357619D01*
X116931428Y-143262380D02*
X117502857Y-143262380D01*
X117217142Y-144262380D02*
X117217142Y-143262380D01*
X118217142Y-144214761D02*
X118121904Y-144262380D01*
X117931428Y-144262380D01*
X117836190Y-144214761D01*
X117788571Y-144119523D01*
X117788571Y-143738571D01*
X117836190Y-143643333D01*
X117931428Y-143595714D01*
X118121904Y-143595714D01*
X118217142Y-143643333D01*
X118264761Y-143738571D01*
X118264761Y-143833809D01*
X117788571Y-143929047D01*
X118836190Y-144262380D02*
X118740952Y-144214761D01*
X118693333Y-144119523D01*
X118693333Y-143262380D01*
X119598095Y-144214761D02*
X119502857Y-144262380D01*
X119312380Y-144262380D01*
X119217142Y-144214761D01*
X119169523Y-144119523D01*
X119169523Y-143738571D01*
X119217142Y-143643333D01*
X119312380Y-143595714D01*
X119502857Y-143595714D01*
X119598095Y-143643333D01*
X119645714Y-143738571D01*
X119645714Y-143833809D01*
X119169523Y-143929047D01*
X120074285Y-144262380D02*
X120074285Y-143595714D01*
X120074285Y-143690952D02*
X120121904Y-143643333D01*
X120217142Y-143595714D01*
X120360000Y-143595714D01*
X120455238Y-143643333D01*
X120502857Y-143738571D01*
X120502857Y-144262380D01*
X120502857Y-143738571D02*
X120550476Y-143643333D01*
X120645714Y-143595714D01*
X120788571Y-143595714D01*
X120883809Y-143643333D01*
X120931428Y-143738571D01*
X120931428Y-144262380D01*
X121788571Y-144214761D02*
X121693333Y-144262380D01*
X121502857Y-144262380D01*
X121407619Y-144214761D01*
X121360000Y-144119523D01*
X121360000Y-143738571D01*
X121407619Y-143643333D01*
X121502857Y-143595714D01*
X121693333Y-143595714D01*
X121788571Y-143643333D01*
X121836190Y-143738571D01*
X121836190Y-143833809D01*
X121360000Y-143929047D01*
X122121904Y-143595714D02*
X122502857Y-143595714D01*
X122264761Y-143262380D02*
X122264761Y-144119523D01*
X122312380Y-144214761D01*
X122407619Y-144262380D01*
X122502857Y-144262380D01*
X122836190Y-144262380D02*
X122836190Y-143595714D01*
X122836190Y-143786190D02*
X122883809Y-143690952D01*
X122931428Y-143643333D01*
X123026666Y-143595714D01*
X123121904Y-143595714D01*
X123360000Y-143595714D02*
X123598095Y-144262380D01*
X123836190Y-143595714D02*
X123598095Y-144262380D01*
X123502857Y-144500476D01*
X123455238Y-144548095D01*
X123360000Y-144595714D01*
X123979047Y-144357619D02*
X124740952Y-144357619D01*
X124979047Y-144262380D02*
X124979047Y-143262380D01*
X125455238Y-143595714D02*
X125455238Y-144262380D01*
X125455238Y-143690952D02*
X125502857Y-143643333D01*
X125598095Y-143595714D01*
X125740952Y-143595714D01*
X125836190Y-143643333D01*
X125883809Y-143738571D01*
X125883809Y-144262380D01*
X126217142Y-143595714D02*
X126598095Y-143595714D01*
X126360000Y-143262380D02*
X126360000Y-144119523D01*
X126407619Y-144214761D01*
X126502857Y-144262380D01*
X126598095Y-144262380D01*
X127312380Y-144214761D02*
X127217142Y-144262380D01*
X127026666Y-144262380D01*
X126931428Y-144214761D01*
X126883809Y-144119523D01*
X126883809Y-143738571D01*
X126931428Y-143643333D01*
X127026666Y-143595714D01*
X127217142Y-143595714D01*
X127312380Y-143643333D01*
X127360000Y-143738571D01*
X127360000Y-143833809D01*
X126883809Y-143929047D01*
X127788571Y-144262380D02*
X127788571Y-143595714D01*
X127788571Y-143786190D02*
X127836190Y-143690952D01*
X127883809Y-143643333D01*
X127979047Y-143595714D01*
X128074285Y-143595714D01*
X128264761Y-143595714D02*
X128645714Y-143595714D01*
X128407619Y-144262380D02*
X128407619Y-143405238D01*
X128455238Y-143310000D01*
X128550476Y-143262380D01*
X128645714Y-143262380D01*
X129407619Y-144262380D02*
X129407619Y-143738571D01*
X129360000Y-143643333D01*
X129264761Y-143595714D01*
X129074285Y-143595714D01*
X128979047Y-143643333D01*
X129407619Y-144214761D02*
X129312380Y-144262380D01*
X129074285Y-144262380D01*
X128979047Y-144214761D01*
X128931428Y-144119523D01*
X128931428Y-144024285D01*
X128979047Y-143929047D01*
X129074285Y-143881428D01*
X129312380Y-143881428D01*
X129407619Y-143833809D01*
X130312380Y-144214761D02*
X130217142Y-144262380D01*
X130026666Y-144262380D01*
X129931428Y-144214761D01*
X129883809Y-144167142D01*
X129836190Y-144071904D01*
X129836190Y-143786190D01*
X129883809Y-143690952D01*
X129931428Y-143643333D01*
X130026666Y-143595714D01*
X130217142Y-143595714D01*
X130312380Y-143643333D01*
X131121904Y-144214761D02*
X131026666Y-144262380D01*
X130836190Y-144262380D01*
X130740952Y-144214761D01*
X130693333Y-144119523D01*
X130693333Y-143738571D01*
X130740952Y-143643333D01*
X130836190Y-143595714D01*
X131026666Y-143595714D01*
X131121904Y-143643333D01*
X131169523Y-143738571D01*
X131169523Y-143833809D01*
X130693333Y-143929047D01*
X148516323Y-137791580D02*
X147944895Y-137791580D01*
X148230609Y-137791580D02*
X148230609Y-136791580D01*
X148135371Y-136934438D01*
X148040133Y-137029676D01*
X147944895Y-137077295D01*
X148992514Y-137791580D02*
X149182990Y-137791580D01*
X149278228Y-137743961D01*
X149325847Y-137696342D01*
X149421085Y-137553485D01*
X149468704Y-137363009D01*
X149468704Y-136982057D01*
X149421085Y-136886819D01*
X149373466Y-136839200D01*
X149278228Y-136791580D01*
X149087752Y-136791580D01*
X148992514Y-136839200D01*
X148944895Y-136886819D01*
X148897276Y-136982057D01*
X148897276Y-137220152D01*
X148944895Y-137315390D01*
X148992514Y-137363009D01*
X149087752Y-137410628D01*
X149278228Y-137410628D01*
X149373466Y-137363009D01*
X149421085Y-137315390D01*
X149468704Y-137220152D01*
X147490876Y-139737980D02*
X148109923Y-139737980D01*
X147776590Y-140118933D01*
X147919447Y-140118933D01*
X148014685Y-140166552D01*
X148062304Y-140214171D01*
X148109923Y-140309409D01*
X148109923Y-140547504D01*
X148062304Y-140642742D01*
X148014685Y-140690361D01*
X147919447Y-140737980D01*
X147633733Y-140737980D01*
X147538495Y-140690361D01*
X147490876Y-140642742D01*
X148443257Y-139737980D02*
X149109923Y-139737980D01*
X148681352Y-140737980D01*
X91963295Y-139782419D02*
X92010914Y-139734800D01*
X92106152Y-139687180D01*
X92344247Y-139687180D01*
X92439485Y-139734800D01*
X92487104Y-139782419D01*
X92534723Y-139877657D01*
X92534723Y-139972895D01*
X92487104Y-140115752D01*
X91915676Y-140687180D01*
X92534723Y-140687180D01*
X93153771Y-139687180D02*
X93249009Y-139687180D01*
X93344247Y-139734800D01*
X93391866Y-139782419D01*
X93439485Y-139877657D01*
X93487104Y-140068133D01*
X93487104Y-140306228D01*
X93439485Y-140496704D01*
X93391866Y-140591942D01*
X93344247Y-140639561D01*
X93249009Y-140687180D01*
X93153771Y-140687180D01*
X93058533Y-140639561D01*
X93010914Y-140591942D01*
X92963295Y-140496704D01*
X92915676Y-140306228D01*
X92915676Y-140068133D01*
X92963295Y-139877657D01*
X93010914Y-139782419D01*
X93058533Y-139734800D01*
X93153771Y-139687180D01*
X92960114Y-137842380D02*
X92388685Y-137842380D01*
X92674400Y-137842380D02*
X92674400Y-136842380D01*
X92579161Y-136985238D01*
X92483923Y-137080476D01*
X92388685Y-137128095D01*
X84198095Y-81102380D02*
X84198095Y-80102380D01*
X84198095Y-80578571D02*
X84769523Y-80578571D01*
X84769523Y-81102380D02*
X84769523Y-80102380D01*
X85388571Y-80530952D02*
X85293333Y-80483333D01*
X85245714Y-80435714D01*
X85198095Y-80340476D01*
X85198095Y-80292857D01*
X85245714Y-80197619D01*
X85293333Y-80150000D01*
X85388571Y-80102380D01*
X85579047Y-80102380D01*
X85674285Y-80150000D01*
X85721904Y-80197619D01*
X85769523Y-80292857D01*
X85769523Y-80340476D01*
X85721904Y-80435714D01*
X85674285Y-80483333D01*
X85579047Y-80530952D01*
X85388571Y-80530952D01*
X85293333Y-80578571D01*
X85245714Y-80626190D01*
X85198095Y-80721428D01*
X85198095Y-80911904D01*
X85245714Y-81007142D01*
X85293333Y-81054761D01*
X85388571Y-81102380D01*
X85579047Y-81102380D01*
X85674285Y-81054761D01*
X85721904Y-81007142D01*
X85769523Y-80911904D01*
X85769523Y-80721428D01*
X85721904Y-80626190D01*
X85674285Y-80578571D01*
X85579047Y-80530952D01*
X97738095Y-74052380D02*
X97738095Y-73052380D01*
X97738095Y-73528571D02*
X98309523Y-73528571D01*
X98309523Y-74052380D02*
X98309523Y-73052380D01*
X98690476Y-73052380D02*
X99357142Y-73052380D01*
X98928571Y-74052380D01*
X101486380Y-71280904D02*
X102295904Y-71280904D01*
X102391142Y-71233285D01*
X102438761Y-71185666D01*
X102486380Y-71090428D01*
X102486380Y-70899952D01*
X102438761Y-70804714D01*
X102391142Y-70757095D01*
X102295904Y-70709476D01*
X101486380Y-70709476D01*
X102486380Y-69709476D02*
X102486380Y-70280904D01*
X102486380Y-69995190D02*
X101486380Y-69995190D01*
X101629238Y-70090428D01*
X101724476Y-70185666D01*
X101772095Y-70280904D01*
X82750000Y-67212380D02*
X82750000Y-66212380D01*
X82988095Y-66212380D01*
X83130952Y-66260000D01*
X83226190Y-66355238D01*
X83273809Y-66450476D01*
X83321428Y-66640952D01*
X83321428Y-66783809D01*
X83273809Y-66974285D01*
X83226190Y-67069523D01*
X83130952Y-67164761D01*
X82988095Y-67212380D01*
X82750000Y-67212380D01*
X83702380Y-66307619D02*
X83750000Y-66260000D01*
X83845238Y-66212380D01*
X84083333Y-66212380D01*
X84178571Y-66260000D01*
X84226190Y-66307619D01*
X84273809Y-66402857D01*
X84273809Y-66498095D01*
X84226190Y-66640952D01*
X83654761Y-67212380D01*
X84273809Y-67212380D01*
X85130952Y-66545714D02*
X85130952Y-67212380D01*
X84892857Y-66164761D02*
X84654761Y-66879047D01*
X85273809Y-66879047D01*
X85511904Y-66212380D02*
X85845238Y-67212380D01*
X86178571Y-66212380D01*
X86464285Y-66307619D02*
X86511904Y-66260000D01*
X86607142Y-66212380D01*
X86845238Y-66212380D01*
X86940476Y-66260000D01*
X86988095Y-66307619D01*
X87035714Y-66402857D01*
X87035714Y-66498095D01*
X86988095Y-66640952D01*
X86416666Y-67212380D01*
X87035714Y-67212380D01*
X87940476Y-66212380D02*
X87464285Y-66212380D01*
X87416666Y-66688571D01*
X87464285Y-66640952D01*
X87559523Y-66593333D01*
X87797619Y-66593333D01*
X87892857Y-66640952D01*
X87940476Y-66688571D01*
X87988095Y-66783809D01*
X87988095Y-67021904D01*
X87940476Y-67117142D01*
X87892857Y-67164761D01*
X87797619Y-67212380D01*
X87559523Y-67212380D01*
X87464285Y-67164761D01*
X87416666Y-67117142D01*
X88750000Y-66688571D02*
X88416666Y-66688571D01*
X88416666Y-67212380D02*
X88416666Y-66212380D01*
X88892857Y-66212380D01*
X89321428Y-67212380D02*
X89511904Y-67212380D01*
X89607142Y-67164761D01*
X89654761Y-67117142D01*
X89750000Y-66974285D01*
X89797619Y-66783809D01*
X89797619Y-66402857D01*
X89750000Y-66307619D01*
X89702380Y-66260000D01*
X89607142Y-66212380D01*
X89416666Y-66212380D01*
X89321428Y-66260000D01*
X89273809Y-66307619D01*
X89226190Y-66402857D01*
X89226190Y-66640952D01*
X89273809Y-66736190D01*
X89321428Y-66783809D01*
X89416666Y-66831428D01*
X89607142Y-66831428D01*
X89702380Y-66783809D01*
X89750000Y-66736190D01*
X89797619Y-66640952D01*
X84188980Y-74160504D02*
X85188980Y-73827171D01*
X84188980Y-73493838D01*
X84188980Y-72970028D02*
X84188980Y-72779552D01*
X84236600Y-72684314D01*
X84331838Y-72589076D01*
X84522314Y-72541457D01*
X84855647Y-72541457D01*
X85046123Y-72589076D01*
X85141361Y-72684314D01*
X85188980Y-72779552D01*
X85188980Y-72970028D01*
X85141361Y-73065266D01*
X85046123Y-73160504D01*
X84855647Y-73208123D01*
X84522314Y-73208123D01*
X84331838Y-73160504D01*
X84236600Y-73065266D01*
X84188980Y-72970028D01*
X84188980Y-72112885D02*
X84998504Y-72112885D01*
X85093742Y-72065266D01*
X85141361Y-72017647D01*
X85188980Y-71922409D01*
X85188980Y-71731933D01*
X85141361Y-71636695D01*
X85093742Y-71589076D01*
X84998504Y-71541457D01*
X84188980Y-71541457D01*
X84188980Y-71208123D02*
X84188980Y-70636695D01*
X85188980Y-70922409D02*
X84188980Y-70922409D01*
X86751200Y-72830304D02*
X86703580Y-72925542D01*
X86703580Y-73068400D01*
X86751200Y-73211257D01*
X86846438Y-73306495D01*
X86941676Y-73354114D01*
X87132152Y-73401733D01*
X87275009Y-73401733D01*
X87465485Y-73354114D01*
X87560723Y-73306495D01*
X87655961Y-73211257D01*
X87703580Y-73068400D01*
X87703580Y-72973161D01*
X87655961Y-72830304D01*
X87608342Y-72782685D01*
X87275009Y-72782685D01*
X87275009Y-72973161D01*
X87703580Y-72354114D02*
X86703580Y-72354114D01*
X87703580Y-71782685D01*
X86703580Y-71782685D01*
X87703580Y-71306495D02*
X86703580Y-71306495D01*
X86703580Y-71068400D01*
X86751200Y-70925542D01*
X86846438Y-70830304D01*
X86941676Y-70782685D01*
X87132152Y-70735066D01*
X87275009Y-70735066D01*
X87465485Y-70782685D01*
X87560723Y-70830304D01*
X87655961Y-70925542D01*
X87703580Y-71068400D01*
X87703580Y-71306495D01*
X89265800Y-72804904D02*
X89218180Y-72900142D01*
X89218180Y-73043000D01*
X89265800Y-73185857D01*
X89361038Y-73281095D01*
X89456276Y-73328714D01*
X89646752Y-73376333D01*
X89789609Y-73376333D01*
X89980085Y-73328714D01*
X90075323Y-73281095D01*
X90170561Y-73185857D01*
X90218180Y-73043000D01*
X90218180Y-72947761D01*
X90170561Y-72804904D01*
X90122942Y-72757285D01*
X89789609Y-72757285D01*
X89789609Y-72947761D01*
X90218180Y-72328714D02*
X89218180Y-72328714D01*
X90218180Y-71757285D01*
X89218180Y-71757285D01*
X90218180Y-71281095D02*
X89218180Y-71281095D01*
X89218180Y-71043000D01*
X89265800Y-70900142D01*
X89361038Y-70804904D01*
X89456276Y-70757285D01*
X89646752Y-70709666D01*
X89789609Y-70709666D01*
X89980085Y-70757285D01*
X90075323Y-70804904D01*
X90170561Y-70900142D01*
X90218180Y-71043000D01*
X90218180Y-71281095D01*
X91783580Y-72757238D02*
X92783580Y-72423904D01*
X91783580Y-72090571D01*
X92783580Y-71757238D02*
X91783580Y-71757238D01*
X92783580Y-71281047D02*
X91783580Y-71281047D01*
X92783580Y-70709619D01*
X91783580Y-70709619D01*
X94799771Y-72196895D02*
X94799771Y-71863561D01*
X95323580Y-71720704D02*
X95323580Y-72196895D01*
X94323580Y-72196895D01*
X94323580Y-71720704D01*
X95323580Y-71292133D02*
X94323580Y-71292133D01*
X95323580Y-70720704D01*
X94323580Y-70720704D01*
X168903333Y-90322380D02*
X168427142Y-90322380D01*
X168427142Y-89322380D01*
X169189047Y-89417619D02*
X169236666Y-89370000D01*
X169331904Y-89322380D01*
X169570000Y-89322380D01*
X169665238Y-89370000D01*
X169712857Y-89417619D01*
X169760476Y-89512857D01*
X169760476Y-89608095D01*
X169712857Y-89750952D01*
X169141428Y-90322380D01*
X169760476Y-90322380D01*
X162837142Y-90342380D02*
X162265714Y-90342380D01*
X162551428Y-90342380D02*
X162551428Y-89342380D01*
X162456190Y-89485238D01*
X162360952Y-89580476D01*
X162265714Y-89628095D01*
X163456190Y-89342380D02*
X163551428Y-89342380D01*
X163646666Y-89390000D01*
X163694285Y-89437619D01*
X163741904Y-89532857D01*
X163789523Y-89723333D01*
X163789523Y-89961428D01*
X163741904Y-90151904D01*
X163694285Y-90247142D01*
X163646666Y-90294761D01*
X163551428Y-90342380D01*
X163456190Y-90342380D01*
X163360952Y-90294761D01*
X163313333Y-90247142D01*
X163265714Y-90151904D01*
X163218095Y-89961428D01*
X163218095Y-89723333D01*
X163265714Y-89532857D01*
X163313333Y-89437619D01*
X163360952Y-89390000D01*
X163456190Y-89342380D01*
X164408571Y-89342380D02*
X164503809Y-89342380D01*
X164599047Y-89390000D01*
X164646666Y-89437619D01*
X164694285Y-89532857D01*
X164741904Y-89723333D01*
X164741904Y-89961428D01*
X164694285Y-90151904D01*
X164646666Y-90247142D01*
X164599047Y-90294761D01*
X164503809Y-90342380D01*
X164408571Y-90342380D01*
X164313333Y-90294761D01*
X164265714Y-90247142D01*
X164218095Y-90151904D01*
X164170476Y-89961428D01*
X164170476Y-89723333D01*
X164218095Y-89532857D01*
X164265714Y-89437619D01*
X164313333Y-89390000D01*
X164408571Y-89342380D01*
X165599047Y-89675714D02*
X165599047Y-90342380D01*
X165170476Y-89675714D02*
X165170476Y-90199523D01*
X165218095Y-90294761D01*
X165313333Y-90342380D01*
X165456190Y-90342380D01*
X165551428Y-90294761D01*
X165599047Y-90247142D01*
X166075238Y-90342380D02*
X166075238Y-89342380D01*
X166075238Y-89818571D02*
X166646666Y-89818571D01*
X166646666Y-90342380D02*
X166646666Y-89342380D01*
X181573333Y-90402380D02*
X181097142Y-90402380D01*
X181097142Y-89402380D01*
X182430476Y-90402380D02*
X181859047Y-90402380D01*
X182144761Y-90402380D02*
X182144761Y-89402380D01*
X182049523Y-89545238D01*
X181954285Y-89640476D01*
X181859047Y-89688095D01*
X175297142Y-90372380D02*
X174725714Y-90372380D01*
X175011428Y-90372380D02*
X175011428Y-89372380D01*
X174916190Y-89515238D01*
X174820952Y-89610476D01*
X174725714Y-89658095D01*
X175916190Y-89372380D02*
X176011428Y-89372380D01*
X176106666Y-89420000D01*
X176154285Y-89467619D01*
X176201904Y-89562857D01*
X176249523Y-89753333D01*
X176249523Y-89991428D01*
X176201904Y-90181904D01*
X176154285Y-90277142D01*
X176106666Y-90324761D01*
X176011428Y-90372380D01*
X175916190Y-90372380D01*
X175820952Y-90324761D01*
X175773333Y-90277142D01*
X175725714Y-90181904D01*
X175678095Y-89991428D01*
X175678095Y-89753333D01*
X175725714Y-89562857D01*
X175773333Y-89467619D01*
X175820952Y-89420000D01*
X175916190Y-89372380D01*
X176868571Y-89372380D02*
X176963809Y-89372380D01*
X177059047Y-89420000D01*
X177106666Y-89467619D01*
X177154285Y-89562857D01*
X177201904Y-89753333D01*
X177201904Y-89991428D01*
X177154285Y-90181904D01*
X177106666Y-90277142D01*
X177059047Y-90324761D01*
X176963809Y-90372380D01*
X176868571Y-90372380D01*
X176773333Y-90324761D01*
X176725714Y-90277142D01*
X176678095Y-90181904D01*
X176630476Y-89991428D01*
X176630476Y-89753333D01*
X176678095Y-89562857D01*
X176725714Y-89467619D01*
X176773333Y-89420000D01*
X176868571Y-89372380D01*
X178059047Y-89705714D02*
X178059047Y-90372380D01*
X177630476Y-89705714D02*
X177630476Y-90229523D01*
X177678095Y-90324761D01*
X177773333Y-90372380D01*
X177916190Y-90372380D01*
X178011428Y-90324761D01*
X178059047Y-90277142D01*
X178535238Y-90372380D02*
X178535238Y-89372380D01*
X178535238Y-89848571D02*
X179106666Y-89848571D01*
X179106666Y-90372380D02*
X179106666Y-89372380D01*
X186273333Y-110937142D02*
X186225714Y-110984761D01*
X186082857Y-111032380D01*
X185987619Y-111032380D01*
X185844761Y-110984761D01*
X185749523Y-110889523D01*
X185701904Y-110794285D01*
X185654285Y-110603809D01*
X185654285Y-110460952D01*
X185701904Y-110270476D01*
X185749523Y-110175238D01*
X185844761Y-110080000D01*
X185987619Y-110032380D01*
X186082857Y-110032380D01*
X186225714Y-110080000D01*
X186273333Y-110127619D01*
X187225714Y-111032380D02*
X186654285Y-111032380D01*
X186940000Y-111032380D02*
X186940000Y-110032380D01*
X186844761Y-110175238D01*
X186749523Y-110270476D01*
X186654285Y-110318095D01*
X177896190Y-110962380D02*
X177324761Y-110962380D01*
X177610476Y-110962380D02*
X177610476Y-109962380D01*
X177515238Y-110105238D01*
X177420000Y-110200476D01*
X177324761Y-110248095D01*
X178515238Y-109962380D02*
X178610476Y-109962380D01*
X178705714Y-110010000D01*
X178753333Y-110057619D01*
X178800952Y-110152857D01*
X178848571Y-110343333D01*
X178848571Y-110581428D01*
X178800952Y-110771904D01*
X178753333Y-110867142D01*
X178705714Y-110914761D01*
X178610476Y-110962380D01*
X178515238Y-110962380D01*
X178420000Y-110914761D01*
X178372380Y-110867142D01*
X178324761Y-110771904D01*
X178277142Y-110581428D01*
X178277142Y-110343333D01*
X178324761Y-110152857D01*
X178372380Y-110057619D01*
X178420000Y-110010000D01*
X178515238Y-109962380D01*
X179467619Y-109962380D02*
X179562857Y-109962380D01*
X179658095Y-110010000D01*
X179705714Y-110057619D01*
X179753333Y-110152857D01*
X179800952Y-110343333D01*
X179800952Y-110581428D01*
X179753333Y-110771904D01*
X179705714Y-110867142D01*
X179658095Y-110914761D01*
X179562857Y-110962380D01*
X179467619Y-110962380D01*
X179372380Y-110914761D01*
X179324761Y-110867142D01*
X179277142Y-110771904D01*
X179229523Y-110581428D01*
X179229523Y-110343333D01*
X179277142Y-110152857D01*
X179324761Y-110057619D01*
X179372380Y-110010000D01*
X179467619Y-109962380D01*
X180420000Y-109962380D02*
X180515238Y-109962380D01*
X180610476Y-110010000D01*
X180658095Y-110057619D01*
X180705714Y-110152857D01*
X180753333Y-110343333D01*
X180753333Y-110581428D01*
X180705714Y-110771904D01*
X180658095Y-110867142D01*
X180610476Y-110914761D01*
X180515238Y-110962380D01*
X180420000Y-110962380D01*
X180324761Y-110914761D01*
X180277142Y-110867142D01*
X180229523Y-110771904D01*
X180181904Y-110581428D01*
X180181904Y-110343333D01*
X180229523Y-110152857D01*
X180277142Y-110057619D01*
X180324761Y-110010000D01*
X180420000Y-109962380D01*
X181610476Y-110295714D02*
X181610476Y-110962380D01*
X181181904Y-110295714D02*
X181181904Y-110819523D01*
X181229523Y-110914761D01*
X181324761Y-110962380D01*
X181467619Y-110962380D01*
X181562857Y-110914761D01*
X181610476Y-110867142D01*
X182420000Y-110438571D02*
X182086666Y-110438571D01*
X182086666Y-110962380D02*
X182086666Y-109962380D01*
X182562857Y-109962380D01*
X144438095Y-111352380D02*
X144438095Y-110352380D01*
X144438095Y-110828571D02*
X145009523Y-110828571D01*
X145009523Y-111352380D02*
X145009523Y-110352380D01*
X145914285Y-110352380D02*
X145723809Y-110352380D01*
X145628571Y-110400000D01*
X145580952Y-110447619D01*
X145485714Y-110590476D01*
X145438095Y-110780952D01*
X145438095Y-111161904D01*
X145485714Y-111257142D01*
X145533333Y-111304761D01*
X145628571Y-111352380D01*
X145819047Y-111352380D01*
X145914285Y-111304761D01*
X145961904Y-111257142D01*
X146009523Y-111161904D01*
X146009523Y-110923809D01*
X145961904Y-110828571D01*
X145914285Y-110780952D01*
X145819047Y-110733333D01*
X145628571Y-110733333D01*
X145533333Y-110780952D01*
X145485714Y-110828571D01*
X145438095Y-110923809D01*
X130448095Y-111382380D02*
X130448095Y-110382380D01*
X130448095Y-110858571D02*
X131019523Y-110858571D01*
X131019523Y-111382380D02*
X131019523Y-110382380D01*
X131971904Y-110382380D02*
X131495714Y-110382380D01*
X131448095Y-110858571D01*
X131495714Y-110810952D01*
X131590952Y-110763333D01*
X131829047Y-110763333D01*
X131924285Y-110810952D01*
X131971904Y-110858571D01*
X132019523Y-110953809D01*
X132019523Y-111191904D01*
X131971904Y-111287142D01*
X131924285Y-111334761D01*
X131829047Y-111382380D01*
X131590952Y-111382380D01*
X131495714Y-111334761D01*
X131448095Y-111287142D01*
X130368095Y-116392380D02*
X130368095Y-115392380D01*
X130368095Y-115868571D02*
X130939523Y-115868571D01*
X130939523Y-116392380D02*
X130939523Y-115392380D01*
X131844285Y-115725714D02*
X131844285Y-116392380D01*
X131606190Y-115344761D02*
X131368095Y-116059047D01*
X131987142Y-116059047D01*
X165428095Y-114572380D02*
X165428095Y-113572380D01*
X165428095Y-114048571D02*
X165999523Y-114048571D01*
X165999523Y-114572380D02*
X165999523Y-113572380D01*
X166428095Y-113667619D02*
X166475714Y-113620000D01*
X166570952Y-113572380D01*
X166809047Y-113572380D01*
X166904285Y-113620000D01*
X166951904Y-113667619D01*
X166999523Y-113762857D01*
X166999523Y-113858095D01*
X166951904Y-114000952D01*
X166380476Y-114572380D01*
X166999523Y-114572380D01*
X151898095Y-123212380D02*
X151898095Y-122212380D01*
X151898095Y-122688571D02*
X152469523Y-122688571D01*
X152469523Y-123212380D02*
X152469523Y-122212380D01*
X153469523Y-123212380D02*
X152898095Y-123212380D01*
X153183809Y-123212380D02*
X153183809Y-122212380D01*
X153088571Y-122355238D01*
X152993333Y-122450476D01*
X152898095Y-122498095D01*
X144428095Y-116332380D02*
X144428095Y-115332380D01*
X144428095Y-115808571D02*
X144999523Y-115808571D01*
X144999523Y-116332380D02*
X144999523Y-115332380D01*
X145380476Y-115332380D02*
X145999523Y-115332380D01*
X145666190Y-115713333D01*
X145809047Y-115713333D01*
X145904285Y-115760952D01*
X145951904Y-115808571D01*
X145999523Y-115903809D01*
X145999523Y-116141904D01*
X145951904Y-116237142D01*
X145904285Y-116284761D01*
X145809047Y-116332380D01*
X145523333Y-116332380D01*
X145428095Y-116284761D01*
X145380476Y-116237142D01*
X127697142Y-101192380D02*
X127363809Y-100716190D01*
X127125714Y-101192380D02*
X127125714Y-100192380D01*
X127506666Y-100192380D01*
X127601904Y-100240000D01*
X127649523Y-100287619D01*
X127697142Y-100382857D01*
X127697142Y-100525714D01*
X127649523Y-100620952D01*
X127601904Y-100668571D01*
X127506666Y-100716190D01*
X127125714Y-100716190D01*
X128649523Y-101192380D02*
X128078095Y-101192380D01*
X128363809Y-101192380D02*
X128363809Y-100192380D01*
X128268571Y-100335238D01*
X128173333Y-100430476D01*
X128078095Y-100478095D01*
X129268571Y-100192380D02*
X129363809Y-100192380D01*
X129459047Y-100240000D01*
X129506666Y-100287619D01*
X129554285Y-100382857D01*
X129601904Y-100573333D01*
X129601904Y-100811428D01*
X129554285Y-101001904D01*
X129506666Y-101097142D01*
X129459047Y-101144761D01*
X129363809Y-101192380D01*
X129268571Y-101192380D01*
X129173333Y-101144761D01*
X129125714Y-101097142D01*
X129078095Y-101001904D01*
X129030476Y-100811428D01*
X129030476Y-100573333D01*
X129078095Y-100382857D01*
X129125714Y-100287619D01*
X129173333Y-100240000D01*
X129268571Y-100192380D01*
X124529523Y-100012380D02*
X123958095Y-100012380D01*
X124243809Y-100012380D02*
X124243809Y-99012380D01*
X124148571Y-99155238D01*
X124053333Y-99250476D01*
X123958095Y-99298095D01*
X125148571Y-99012380D02*
X125243809Y-99012380D01*
X125339047Y-99060000D01*
X125386666Y-99107619D01*
X125434285Y-99202857D01*
X125481904Y-99393333D01*
X125481904Y-99631428D01*
X125434285Y-99821904D01*
X125386666Y-99917142D01*
X125339047Y-99964761D01*
X125243809Y-100012380D01*
X125148571Y-100012380D01*
X125053333Y-99964761D01*
X125005714Y-99917142D01*
X124958095Y-99821904D01*
X124910476Y-99631428D01*
X124910476Y-99393333D01*
X124958095Y-99202857D01*
X125005714Y-99107619D01*
X125053333Y-99060000D01*
X125148571Y-99012380D01*
X125910476Y-100012380D02*
X125910476Y-99012380D01*
X126481904Y-100012380D02*
X126053333Y-99440952D01*
X126481904Y-99012380D02*
X125910476Y-99583809D01*
X124632380Y-71746666D02*
X124156190Y-72080000D01*
X124632380Y-72318095D02*
X123632380Y-72318095D01*
X123632380Y-71937142D01*
X123680000Y-71841904D01*
X123727619Y-71794285D01*
X123822857Y-71746666D01*
X123965714Y-71746666D01*
X124060952Y-71794285D01*
X124108571Y-71841904D01*
X124156190Y-71937142D01*
X124156190Y-72318095D01*
X123965714Y-70889523D02*
X124632380Y-70889523D01*
X123584761Y-71127619D02*
X124299047Y-71365714D01*
X124299047Y-70746666D01*
X128372380Y-71841904D02*
X128372380Y-72318095D01*
X128848571Y-72365714D01*
X128800952Y-72318095D01*
X128753333Y-72222857D01*
X128753333Y-71984761D01*
X128800952Y-71889523D01*
X128848571Y-71841904D01*
X128943809Y-71794285D01*
X129181904Y-71794285D01*
X129277142Y-71841904D01*
X129324761Y-71889523D01*
X129372380Y-71984761D01*
X129372380Y-72222857D01*
X129324761Y-72318095D01*
X129277142Y-72365714D01*
X129372380Y-71365714D02*
X128372380Y-71365714D01*
X129372380Y-70794285D02*
X128800952Y-71222857D01*
X128372380Y-70794285D02*
X128943809Y-71365714D01*
X103972380Y-71776666D02*
X103496190Y-72110000D01*
X103972380Y-72348095D02*
X102972380Y-72348095D01*
X102972380Y-71967142D01*
X103020000Y-71871904D01*
X103067619Y-71824285D01*
X103162857Y-71776666D01*
X103305714Y-71776666D01*
X103400952Y-71824285D01*
X103448571Y-71871904D01*
X103496190Y-71967142D01*
X103496190Y-72348095D01*
X103067619Y-71395714D02*
X103020000Y-71348095D01*
X102972380Y-71252857D01*
X102972380Y-71014761D01*
X103020000Y-70919523D01*
X103067619Y-70871904D01*
X103162857Y-70824285D01*
X103258095Y-70824285D01*
X103400952Y-70871904D01*
X103972380Y-71443333D01*
X103972380Y-70824285D01*
X107712380Y-71871904D02*
X107712380Y-72348095D01*
X108188571Y-72395714D01*
X108140952Y-72348095D01*
X108093333Y-72252857D01*
X108093333Y-72014761D01*
X108140952Y-71919523D01*
X108188571Y-71871904D01*
X108283809Y-71824285D01*
X108521904Y-71824285D01*
X108617142Y-71871904D01*
X108664761Y-71919523D01*
X108712380Y-72014761D01*
X108712380Y-72252857D01*
X108664761Y-72348095D01*
X108617142Y-72395714D01*
X108712380Y-71395714D02*
X107712380Y-71395714D01*
X108712380Y-70824285D02*
X108140952Y-71252857D01*
X107712380Y-70824285D02*
X108283809Y-71395714D01*
X110482380Y-71776666D02*
X110006190Y-72110000D01*
X110482380Y-72348095D02*
X109482380Y-72348095D01*
X109482380Y-71967142D01*
X109530000Y-71871904D01*
X109577619Y-71824285D01*
X109672857Y-71776666D01*
X109815714Y-71776666D01*
X109910952Y-71824285D01*
X109958571Y-71871904D01*
X110006190Y-71967142D01*
X110006190Y-72348095D01*
X110482380Y-70824285D02*
X110482380Y-71395714D01*
X110482380Y-71110000D02*
X109482380Y-71110000D01*
X109625238Y-71205238D01*
X109720476Y-71300476D01*
X109768095Y-71395714D01*
X114222380Y-71871904D02*
X114222380Y-72348095D01*
X114698571Y-72395714D01*
X114650952Y-72348095D01*
X114603333Y-72252857D01*
X114603333Y-72014761D01*
X114650952Y-71919523D01*
X114698571Y-71871904D01*
X114793809Y-71824285D01*
X115031904Y-71824285D01*
X115127142Y-71871904D01*
X115174761Y-71919523D01*
X115222380Y-72014761D01*
X115222380Y-72252857D01*
X115174761Y-72348095D01*
X115127142Y-72395714D01*
X115222380Y-71395714D02*
X114222380Y-71395714D01*
X115222380Y-70824285D02*
X114650952Y-71252857D01*
X114222380Y-70824285D02*
X114793809Y-71395714D01*
X124517142Y-83656666D02*
X124564761Y-83704285D01*
X124612380Y-83847142D01*
X124612380Y-83942380D01*
X124564761Y-84085238D01*
X124469523Y-84180476D01*
X124374285Y-84228095D01*
X124183809Y-84275714D01*
X124040952Y-84275714D01*
X123850476Y-84228095D01*
X123755238Y-84180476D01*
X123660000Y-84085238D01*
X123612380Y-83942380D01*
X123612380Y-83847142D01*
X123660000Y-83704285D01*
X123707619Y-83656666D01*
X123612380Y-83323333D02*
X123612380Y-82656666D01*
X124612380Y-83085238D01*
X129452380Y-84561428D02*
X129452380Y-85132857D01*
X129452380Y-84847142D02*
X128452380Y-84847142D01*
X128595238Y-84942380D01*
X128690476Y-85037619D01*
X128738095Y-85132857D01*
X128452380Y-83942380D02*
X128452380Y-83847142D01*
X128500000Y-83751904D01*
X128547619Y-83704285D01*
X128642857Y-83656666D01*
X128833333Y-83609047D01*
X129071428Y-83609047D01*
X129261904Y-83656666D01*
X129357142Y-83704285D01*
X129404761Y-83751904D01*
X129452380Y-83847142D01*
X129452380Y-83942380D01*
X129404761Y-84037619D01*
X129357142Y-84085238D01*
X129261904Y-84132857D01*
X129071428Y-84180476D01*
X128833333Y-84180476D01*
X128642857Y-84132857D01*
X128547619Y-84085238D01*
X128500000Y-84037619D01*
X128452380Y-83942380D01*
X128785714Y-82751904D02*
X129452380Y-82751904D01*
X128785714Y-83180476D02*
X129309523Y-83180476D01*
X129404761Y-83132857D01*
X129452380Y-83037619D01*
X129452380Y-82894761D01*
X129404761Y-82799523D01*
X129357142Y-82751904D01*
X128928571Y-81942380D02*
X128928571Y-82275714D01*
X129452380Y-82275714D02*
X128452380Y-82275714D01*
X128452380Y-81799523D01*
X103847142Y-83646666D02*
X103894761Y-83694285D01*
X103942380Y-83837142D01*
X103942380Y-83932380D01*
X103894761Y-84075238D01*
X103799523Y-84170476D01*
X103704285Y-84218095D01*
X103513809Y-84265714D01*
X103370952Y-84265714D01*
X103180476Y-84218095D01*
X103085238Y-84170476D01*
X102990000Y-84075238D01*
X102942380Y-83932380D01*
X102942380Y-83837142D01*
X102990000Y-83694285D01*
X103037619Y-83646666D01*
X103275714Y-82789523D02*
X103942380Y-82789523D01*
X102894761Y-83027619D02*
X103609047Y-83265714D01*
X103609047Y-82646666D01*
X108782380Y-84551428D02*
X108782380Y-85122857D01*
X108782380Y-84837142D02*
X107782380Y-84837142D01*
X107925238Y-84932380D01*
X108020476Y-85027619D01*
X108068095Y-85122857D01*
X107782380Y-83932380D02*
X107782380Y-83837142D01*
X107830000Y-83741904D01*
X107877619Y-83694285D01*
X107972857Y-83646666D01*
X108163333Y-83599047D01*
X108401428Y-83599047D01*
X108591904Y-83646666D01*
X108687142Y-83694285D01*
X108734761Y-83741904D01*
X108782380Y-83837142D01*
X108782380Y-83932380D01*
X108734761Y-84027619D01*
X108687142Y-84075238D01*
X108591904Y-84122857D01*
X108401428Y-84170476D01*
X108163333Y-84170476D01*
X107972857Y-84122857D01*
X107877619Y-84075238D01*
X107830000Y-84027619D01*
X107782380Y-83932380D01*
X108115714Y-82741904D02*
X108782380Y-82741904D01*
X108115714Y-83170476D02*
X108639523Y-83170476D01*
X108734761Y-83122857D01*
X108782380Y-83027619D01*
X108782380Y-82884761D01*
X108734761Y-82789523D01*
X108687142Y-82741904D01*
X108258571Y-81932380D02*
X108258571Y-82265714D01*
X108782380Y-82265714D02*
X107782380Y-82265714D01*
X107782380Y-81789523D01*
X110357142Y-83676666D02*
X110404761Y-83724285D01*
X110452380Y-83867142D01*
X110452380Y-83962380D01*
X110404761Y-84105238D01*
X110309523Y-84200476D01*
X110214285Y-84248095D01*
X110023809Y-84295714D01*
X109880952Y-84295714D01*
X109690476Y-84248095D01*
X109595238Y-84200476D01*
X109500000Y-84105238D01*
X109452380Y-83962380D01*
X109452380Y-83867142D01*
X109500000Y-83724285D01*
X109547619Y-83676666D01*
X109452380Y-83343333D02*
X109452380Y-82724285D01*
X109833333Y-83057619D01*
X109833333Y-82914761D01*
X109880952Y-82819523D01*
X109928571Y-82771904D01*
X110023809Y-82724285D01*
X110261904Y-82724285D01*
X110357142Y-82771904D01*
X110404761Y-82819523D01*
X110452380Y-82914761D01*
X110452380Y-83200476D01*
X110404761Y-83295714D01*
X110357142Y-83343333D01*
X115292380Y-84581428D02*
X115292380Y-85152857D01*
X115292380Y-84867142D02*
X114292380Y-84867142D01*
X114435238Y-84962380D01*
X114530476Y-85057619D01*
X114578095Y-85152857D01*
X114292380Y-83962380D02*
X114292380Y-83867142D01*
X114340000Y-83771904D01*
X114387619Y-83724285D01*
X114482857Y-83676666D01*
X114673333Y-83629047D01*
X114911428Y-83629047D01*
X115101904Y-83676666D01*
X115197142Y-83724285D01*
X115244761Y-83771904D01*
X115292380Y-83867142D01*
X115292380Y-83962380D01*
X115244761Y-84057619D01*
X115197142Y-84105238D01*
X115101904Y-84152857D01*
X114911428Y-84200476D01*
X114673333Y-84200476D01*
X114482857Y-84152857D01*
X114387619Y-84105238D01*
X114340000Y-84057619D01*
X114292380Y-83962380D01*
X114625714Y-82771904D02*
X115292380Y-82771904D01*
X114625714Y-83200476D02*
X115149523Y-83200476D01*
X115244761Y-83152857D01*
X115292380Y-83057619D01*
X115292380Y-82914761D01*
X115244761Y-82819523D01*
X115197142Y-82771904D01*
X114768571Y-81962380D02*
X114768571Y-82295714D01*
X115292380Y-82295714D02*
X114292380Y-82295714D01*
X114292380Y-81819523D01*
X95145266Y-134148580D02*
X95145266Y-134862866D01*
X95097647Y-135005723D01*
X95002409Y-135100961D01*
X94859552Y-135148580D01*
X94764314Y-135148580D01*
X96145266Y-135148580D02*
X95573838Y-135148580D01*
X95859552Y-135148580D02*
X95859552Y-134148580D01*
X95764314Y-134291438D01*
X95669076Y-134386676D01*
X95573838Y-134434295D01*
X134525714Y-126752380D02*
X134192380Y-126276190D01*
X133954285Y-126752380D02*
X133954285Y-125752380D01*
X134335238Y-125752380D01*
X134430476Y-125800000D01*
X134478095Y-125847619D01*
X134525714Y-125942857D01*
X134525714Y-126085714D01*
X134478095Y-126180952D01*
X134430476Y-126228571D01*
X134335238Y-126276190D01*
X133954285Y-126276190D01*
X135382857Y-126752380D02*
X135382857Y-126228571D01*
X135335238Y-126133333D01*
X135240000Y-126085714D01*
X135049523Y-126085714D01*
X134954285Y-126133333D01*
X135382857Y-126704761D02*
X135287619Y-126752380D01*
X135049523Y-126752380D01*
X134954285Y-126704761D01*
X134906666Y-126609523D01*
X134906666Y-126514285D01*
X134954285Y-126419047D01*
X135049523Y-126371428D01*
X135287619Y-126371428D01*
X135382857Y-126323809D01*
X135811428Y-126704761D02*
X135906666Y-126752380D01*
X136097142Y-126752380D01*
X136192380Y-126704761D01*
X136240000Y-126609523D01*
X136240000Y-126561904D01*
X136192380Y-126466666D01*
X136097142Y-126419047D01*
X135954285Y-126419047D01*
X135859047Y-126371428D01*
X135811428Y-126276190D01*
X135811428Y-126228571D01*
X135859047Y-126133333D01*
X135954285Y-126085714D01*
X136097142Y-126085714D01*
X136192380Y-126133333D01*
X136668571Y-126085714D02*
X136668571Y-127085714D01*
X136668571Y-126133333D02*
X136763809Y-126085714D01*
X136954285Y-126085714D01*
X137049523Y-126133333D01*
X137097142Y-126180952D01*
X137144761Y-126276190D01*
X137144761Y-126561904D01*
X137097142Y-126657142D01*
X137049523Y-126704761D01*
X136954285Y-126752380D01*
X136763809Y-126752380D01*
X136668571Y-126704761D01*
X137573333Y-126752380D02*
X137573333Y-125752380D01*
X137573333Y-126133333D02*
X137668571Y-126085714D01*
X137859047Y-126085714D01*
X137954285Y-126133333D01*
X138001904Y-126180952D01*
X138049523Y-126276190D01*
X138049523Y-126561904D01*
X138001904Y-126657142D01*
X137954285Y-126704761D01*
X137859047Y-126752380D01*
X137668571Y-126752380D01*
X137573333Y-126704761D01*
X138859047Y-126704761D02*
X138763809Y-126752380D01*
X138573333Y-126752380D01*
X138478095Y-126704761D01*
X138430476Y-126609523D01*
X138430476Y-126228571D01*
X138478095Y-126133333D01*
X138573333Y-126085714D01*
X138763809Y-126085714D01*
X138859047Y-126133333D01*
X138906666Y-126228571D01*
X138906666Y-126323809D01*
X138430476Y-126419047D01*
X139335238Y-126752380D02*
X139335238Y-126085714D01*
X139335238Y-126276190D02*
X139382857Y-126180952D01*
X139430476Y-126133333D01*
X139525714Y-126085714D01*
X139620952Y-126085714D01*
X139954285Y-126752380D02*
X139954285Y-126085714D01*
X139954285Y-126276190D02*
X140001904Y-126180952D01*
X140049523Y-126133333D01*
X140144761Y-126085714D01*
X140240000Y-126085714D01*
X140478095Y-126085714D02*
X140716190Y-126752380D01*
X140954285Y-126085714D02*
X140716190Y-126752380D01*
X140620952Y-126990476D01*
X140573333Y-127038095D01*
X140478095Y-127085714D01*
X141097142Y-126847619D02*
X141859047Y-126847619D01*
X142097142Y-126752380D02*
X142097142Y-125752380D01*
X142478095Y-125752380D01*
X142573333Y-125800000D01*
X142620952Y-125847619D01*
X142668571Y-125942857D01*
X142668571Y-126085714D01*
X142620952Y-126180952D01*
X142573333Y-126228571D01*
X142478095Y-126276190D01*
X142097142Y-126276190D01*
X143097142Y-126752380D02*
X143097142Y-126085714D01*
X143097142Y-125752380D02*
X143049523Y-125800000D01*
X143097142Y-125847619D01*
X143144761Y-125800000D01*
X143097142Y-125752380D01*
X143097142Y-125847619D01*
X143335238Y-126847619D02*
X144097142Y-126847619D01*
X144287619Y-125847619D02*
X144335238Y-125800000D01*
X144430476Y-125752380D01*
X144668571Y-125752380D01*
X144763809Y-125800000D01*
X144811428Y-125847619D01*
X144859047Y-125942857D01*
X144859047Y-126038095D01*
X144811428Y-126180952D01*
X144240000Y-126752380D01*
X144859047Y-126752380D01*
X145049523Y-126847619D02*
X145811428Y-126847619D01*
X145954285Y-125752380D02*
X146573333Y-125752380D01*
X146240000Y-126133333D01*
X146382857Y-126133333D01*
X146478095Y-126180952D01*
X146525714Y-126228571D01*
X146573333Y-126323809D01*
X146573333Y-126561904D01*
X146525714Y-126657142D01*
X146478095Y-126704761D01*
X146382857Y-126752380D01*
X146097142Y-126752380D01*
X146001904Y-126704761D01*
X145954285Y-126657142D01*
X117462380Y-71756666D02*
X116986190Y-72090000D01*
X117462380Y-72328095D02*
X116462380Y-72328095D01*
X116462380Y-71947142D01*
X116510000Y-71851904D01*
X116557619Y-71804285D01*
X116652857Y-71756666D01*
X116795714Y-71756666D01*
X116890952Y-71804285D01*
X116938571Y-71851904D01*
X116986190Y-71947142D01*
X116986190Y-72328095D01*
X116462380Y-71423333D02*
X116462380Y-70804285D01*
X116843333Y-71137619D01*
X116843333Y-70994761D01*
X116890952Y-70899523D01*
X116938571Y-70851904D01*
X117033809Y-70804285D01*
X117271904Y-70804285D01*
X117367142Y-70851904D01*
X117414761Y-70899523D01*
X117462380Y-70994761D01*
X117462380Y-71280476D01*
X117414761Y-71375714D01*
X117367142Y-71423333D01*
X121202380Y-71851904D02*
X121202380Y-72328095D01*
X121678571Y-72375714D01*
X121630952Y-72328095D01*
X121583333Y-72232857D01*
X121583333Y-71994761D01*
X121630952Y-71899523D01*
X121678571Y-71851904D01*
X121773809Y-71804285D01*
X122011904Y-71804285D01*
X122107142Y-71851904D01*
X122154761Y-71899523D01*
X122202380Y-71994761D01*
X122202380Y-72232857D01*
X122154761Y-72328095D01*
X122107142Y-72375714D01*
X122202380Y-71375714D02*
X121202380Y-71375714D01*
X122202380Y-70804285D02*
X121630952Y-71232857D01*
X121202380Y-70804285D02*
X121773809Y-71375714D01*
X117347142Y-83566666D02*
X117394761Y-83614285D01*
X117442380Y-83757142D01*
X117442380Y-83852380D01*
X117394761Y-83995238D01*
X117299523Y-84090476D01*
X117204285Y-84138095D01*
X117013809Y-84185714D01*
X116870952Y-84185714D01*
X116680476Y-84138095D01*
X116585238Y-84090476D01*
X116490000Y-83995238D01*
X116442380Y-83852380D01*
X116442380Y-83757142D01*
X116490000Y-83614285D01*
X116537619Y-83566666D01*
X116442380Y-82709523D02*
X116442380Y-82900000D01*
X116490000Y-82995238D01*
X116537619Y-83042857D01*
X116680476Y-83138095D01*
X116870952Y-83185714D01*
X117251904Y-83185714D01*
X117347142Y-83138095D01*
X117394761Y-83090476D01*
X117442380Y-82995238D01*
X117442380Y-82804761D01*
X117394761Y-82709523D01*
X117347142Y-82661904D01*
X117251904Y-82614285D01*
X117013809Y-82614285D01*
X116918571Y-82661904D01*
X116870952Y-82709523D01*
X116823333Y-82804761D01*
X116823333Y-82995238D01*
X116870952Y-83090476D01*
X116918571Y-83138095D01*
X117013809Y-83185714D01*
X122462380Y-84511428D02*
X122462380Y-85082857D01*
X122462380Y-84797142D02*
X121462380Y-84797142D01*
X121605238Y-84892380D01*
X121700476Y-84987619D01*
X121748095Y-85082857D01*
X121462380Y-83892380D02*
X121462380Y-83797142D01*
X121510000Y-83701904D01*
X121557619Y-83654285D01*
X121652857Y-83606666D01*
X121843333Y-83559047D01*
X122081428Y-83559047D01*
X122271904Y-83606666D01*
X122367142Y-83654285D01*
X122414761Y-83701904D01*
X122462380Y-83797142D01*
X122462380Y-83892380D01*
X122414761Y-83987619D01*
X122367142Y-84035238D01*
X122271904Y-84082857D01*
X122081428Y-84130476D01*
X121843333Y-84130476D01*
X121652857Y-84082857D01*
X121557619Y-84035238D01*
X121510000Y-83987619D01*
X121462380Y-83892380D01*
X121795714Y-82701904D02*
X122462380Y-82701904D01*
X121795714Y-83130476D02*
X122319523Y-83130476D01*
X122414761Y-83082857D01*
X122462380Y-82987619D01*
X122462380Y-82844761D01*
X122414761Y-82749523D01*
X122367142Y-82701904D01*
X121938571Y-81892380D02*
X121938571Y-82225714D01*
X122462380Y-82225714D02*
X121462380Y-82225714D01*
X121462380Y-81749523D01*
X85016666Y-121152380D02*
X85016666Y-121866666D01*
X84969047Y-122009523D01*
X84873809Y-122104761D01*
X84730952Y-122152380D01*
X84635714Y-122152380D01*
X85540476Y-122152380D02*
X85730952Y-122152380D01*
X85826190Y-122104761D01*
X85873809Y-122057142D01*
X85969047Y-121914285D01*
X86016666Y-121723809D01*
X86016666Y-121342857D01*
X85969047Y-121247619D01*
X85921428Y-121200000D01*
X85826190Y-121152380D01*
X85635714Y-121152380D01*
X85540476Y-121200000D01*
X85492857Y-121247619D01*
X85445238Y-121342857D01*
X85445238Y-121580952D01*
X85492857Y-121676190D01*
X85540476Y-121723809D01*
X85635714Y-121771428D01*
X85826190Y-121771428D01*
X85921428Y-121723809D01*
X85969047Y-121676190D01*
X86016666Y-121580952D01*
X82377009Y-135163360D02*
X82377009Y-134163360D01*
X82757961Y-134163360D01*
X82853200Y-134210980D01*
X82900819Y-134258599D01*
X82948438Y-134353837D01*
X82948438Y-134496694D01*
X82900819Y-134591932D01*
X82853200Y-134639551D01*
X82757961Y-134687170D01*
X82377009Y-134687170D01*
X83519866Y-135163360D02*
X83424628Y-135115741D01*
X83377009Y-135068122D01*
X83329390Y-134972884D01*
X83329390Y-134687170D01*
X83377009Y-134591932D01*
X83424628Y-134544313D01*
X83519866Y-134496694D01*
X83662723Y-134496694D01*
X83757961Y-134544313D01*
X83805580Y-134591932D01*
X83853200Y-134687170D01*
X83853200Y-134972884D01*
X83805580Y-135068122D01*
X83757961Y-135115741D01*
X83662723Y-135163360D01*
X83519866Y-135163360D01*
X84186533Y-134496694D02*
X84377009Y-135163360D01*
X84567485Y-134687170D01*
X84757961Y-135163360D01*
X84948438Y-134496694D01*
X85710342Y-135115741D02*
X85615104Y-135163360D01*
X85424628Y-135163360D01*
X85329390Y-135115741D01*
X85281771Y-135020503D01*
X85281771Y-134639551D01*
X85329390Y-134544313D01*
X85424628Y-134496694D01*
X85615104Y-134496694D01*
X85710342Y-134544313D01*
X85757961Y-134639551D01*
X85757961Y-134734789D01*
X85281771Y-134830027D01*
X86186533Y-135163360D02*
X86186533Y-134496694D01*
X86186533Y-134687170D02*
X86234152Y-134591932D01*
X86281771Y-134544313D01*
X86377009Y-134496694D01*
X86472247Y-134496694D01*
X160691904Y-107992380D02*
X160691904Y-106992380D01*
X160930000Y-106992380D01*
X161072857Y-107040000D01*
X161168095Y-107135238D01*
X161215714Y-107230476D01*
X161263333Y-107420952D01*
X161263333Y-107563809D01*
X161215714Y-107754285D01*
X161168095Y-107849523D01*
X161072857Y-107944761D01*
X160930000Y-107992380D01*
X160691904Y-107992380D01*
X161596666Y-106992380D02*
X162215714Y-106992380D01*
X161882380Y-107373333D01*
X162025238Y-107373333D01*
X162120476Y-107420952D01*
X162168095Y-107468571D01*
X162215714Y-107563809D01*
X162215714Y-107801904D01*
X162168095Y-107897142D01*
X162120476Y-107944761D01*
X162025238Y-107992380D01*
X161739523Y-107992380D01*
X161644285Y-107944761D01*
X161596666Y-107897142D01*
X154124942Y-100686780D02*
X153553514Y-100686780D01*
X153839228Y-100686780D02*
X153839228Y-99686780D01*
X153743990Y-99829638D01*
X153648752Y-99924876D01*
X153553514Y-99972495D01*
X154553514Y-100686780D02*
X154553514Y-99686780D01*
X155124942Y-100686780D01*
X155124942Y-99686780D01*
X156077323Y-99686780D02*
X155601133Y-99686780D01*
X155553514Y-100162971D01*
X155601133Y-100115352D01*
X155696371Y-100067733D01*
X155934466Y-100067733D01*
X156029704Y-100115352D01*
X156077323Y-100162971D01*
X156124942Y-100258209D01*
X156124942Y-100496304D01*
X156077323Y-100591542D01*
X156029704Y-100639161D01*
X155934466Y-100686780D01*
X155696371Y-100686780D01*
X155601133Y-100639161D01*
X155553514Y-100591542D01*
X156696371Y-100115352D02*
X156601133Y-100067733D01*
X156553514Y-100020114D01*
X156505895Y-99924876D01*
X156505895Y-99877257D01*
X156553514Y-99782019D01*
X156601133Y-99734400D01*
X156696371Y-99686780D01*
X156886847Y-99686780D01*
X156982085Y-99734400D01*
X157029704Y-99782019D01*
X157077323Y-99877257D01*
X157077323Y-99924876D01*
X157029704Y-100020114D01*
X156982085Y-100067733D01*
X156886847Y-100115352D01*
X156696371Y-100115352D01*
X156601133Y-100162971D01*
X156553514Y-100210590D01*
X156505895Y-100305828D01*
X156505895Y-100496304D01*
X156553514Y-100591542D01*
X156601133Y-100639161D01*
X156696371Y-100686780D01*
X156886847Y-100686780D01*
X156982085Y-100639161D01*
X157029704Y-100591542D01*
X157077323Y-100496304D01*
X157077323Y-100305828D01*
X157029704Y-100210590D01*
X156982085Y-100162971D01*
X156886847Y-100115352D01*
X157458276Y-99782019D02*
X157505895Y-99734400D01*
X157601133Y-99686780D01*
X157839228Y-99686780D01*
X157934466Y-99734400D01*
X157982085Y-99782019D01*
X158029704Y-99877257D01*
X158029704Y-99972495D01*
X157982085Y-100115352D01*
X157410657Y-100686780D01*
X158029704Y-100686780D01*
X158410657Y-99782019D02*
X158458276Y-99734400D01*
X158553514Y-99686780D01*
X158791609Y-99686780D01*
X158886847Y-99734400D01*
X158934466Y-99782019D01*
X158982085Y-99877257D01*
X158982085Y-99972495D01*
X158934466Y-100115352D01*
X158363038Y-100686780D01*
X158982085Y-100686780D01*
X186653904Y-107945380D02*
X186653904Y-106945380D01*
X186892000Y-106945380D01*
X187034857Y-106993000D01*
X187130095Y-107088238D01*
X187177714Y-107183476D01*
X187225333Y-107373952D01*
X187225333Y-107516809D01*
X187177714Y-107707285D01*
X187130095Y-107802523D01*
X187034857Y-107897761D01*
X186892000Y-107945380D01*
X186653904Y-107945380D01*
X188177714Y-107945380D02*
X187606285Y-107945380D01*
X187892000Y-107945380D02*
X187892000Y-106945380D01*
X187796761Y-107088238D01*
X187701523Y-107183476D01*
X187606285Y-107231095D01*
X189948142Y-100706380D02*
X189376714Y-100706380D01*
X189662428Y-100706380D02*
X189662428Y-99706380D01*
X189567190Y-99849238D01*
X189471952Y-99944476D01*
X189376714Y-99992095D01*
X190376714Y-100706380D02*
X190376714Y-99706380D01*
X190948142Y-100706380D01*
X190948142Y-99706380D01*
X191900523Y-99706380D02*
X191424333Y-99706380D01*
X191376714Y-100182571D01*
X191424333Y-100134952D01*
X191519571Y-100087333D01*
X191757666Y-100087333D01*
X191852904Y-100134952D01*
X191900523Y-100182571D01*
X191948142Y-100277809D01*
X191948142Y-100515904D01*
X191900523Y-100611142D01*
X191852904Y-100658761D01*
X191757666Y-100706380D01*
X191519571Y-100706380D01*
X191424333Y-100658761D01*
X191376714Y-100611142D01*
X192519571Y-100134952D02*
X192424333Y-100087333D01*
X192376714Y-100039714D01*
X192329095Y-99944476D01*
X192329095Y-99896857D01*
X192376714Y-99801619D01*
X192424333Y-99754000D01*
X192519571Y-99706380D01*
X192710047Y-99706380D01*
X192805285Y-99754000D01*
X192852904Y-99801619D01*
X192900523Y-99896857D01*
X192900523Y-99944476D01*
X192852904Y-100039714D01*
X192805285Y-100087333D01*
X192710047Y-100134952D01*
X192519571Y-100134952D01*
X192424333Y-100182571D01*
X192376714Y-100230190D01*
X192329095Y-100325428D01*
X192329095Y-100515904D01*
X192376714Y-100611142D01*
X192424333Y-100658761D01*
X192519571Y-100706380D01*
X192710047Y-100706380D01*
X192805285Y-100658761D01*
X192852904Y-100611142D01*
X192900523Y-100515904D01*
X192900523Y-100325428D01*
X192852904Y-100230190D01*
X192805285Y-100182571D01*
X192710047Y-100134952D01*
X193281476Y-99801619D02*
X193329095Y-99754000D01*
X193424333Y-99706380D01*
X193662428Y-99706380D01*
X193757666Y-99754000D01*
X193805285Y-99801619D01*
X193852904Y-99896857D01*
X193852904Y-99992095D01*
X193805285Y-100134952D01*
X193233857Y-100706380D01*
X193852904Y-100706380D01*
X194233857Y-99801619D02*
X194281476Y-99754000D01*
X194376714Y-99706380D01*
X194614809Y-99706380D01*
X194710047Y-99754000D01*
X194757666Y-99801619D01*
X194805285Y-99896857D01*
X194805285Y-99992095D01*
X194757666Y-100134952D01*
X194186238Y-100706380D01*
X194805285Y-100706380D01*
X179899047Y-101281428D02*
X180660952Y-101281428D01*
X180280000Y-101662380D02*
X180280000Y-100900476D01*
X149780666Y-63384180D02*
X149780666Y-64098466D01*
X149733047Y-64241323D01*
X149637809Y-64336561D01*
X149494952Y-64384180D01*
X149399714Y-64384180D01*
X150399714Y-63812752D02*
X150304476Y-63765133D01*
X150256857Y-63717514D01*
X150209238Y-63622276D01*
X150209238Y-63574657D01*
X150256857Y-63479419D01*
X150304476Y-63431800D01*
X150399714Y-63384180D01*
X150590190Y-63384180D01*
X150685428Y-63431800D01*
X150733047Y-63479419D01*
X150780666Y-63574657D01*
X150780666Y-63622276D01*
X150733047Y-63717514D01*
X150685428Y-63765133D01*
X150590190Y-63812752D01*
X150399714Y-63812752D01*
X150304476Y-63860371D01*
X150256857Y-63907990D01*
X150209238Y-64003228D01*
X150209238Y-64193704D01*
X150256857Y-64288942D01*
X150304476Y-64336561D01*
X150399714Y-64384180D01*
X150590190Y-64384180D01*
X150685428Y-64336561D01*
X150733047Y-64288942D01*
X150780666Y-64193704D01*
X150780666Y-64003228D01*
X150733047Y-63907990D01*
X150685428Y-63860371D01*
X150590190Y-63812752D01*
X127418095Y-63968571D02*
X127560952Y-64016190D01*
X127608571Y-64063809D01*
X127656190Y-64159047D01*
X127656190Y-64301904D01*
X127608571Y-64397142D01*
X127560952Y-64444761D01*
X127465714Y-64492380D01*
X127084761Y-64492380D01*
X127084761Y-63492380D01*
X127418095Y-63492380D01*
X127513333Y-63540000D01*
X127560952Y-63587619D01*
X127608571Y-63682857D01*
X127608571Y-63778095D01*
X127560952Y-63873333D01*
X127513333Y-63920952D01*
X127418095Y-63968571D01*
X127084761Y-63968571D01*
X128227619Y-64492380D02*
X128132380Y-64444761D01*
X128084761Y-64397142D01*
X128037142Y-64301904D01*
X128037142Y-64016190D01*
X128084761Y-63920952D01*
X128132380Y-63873333D01*
X128227619Y-63825714D01*
X128370476Y-63825714D01*
X128465714Y-63873333D01*
X128513333Y-63920952D01*
X128560952Y-64016190D01*
X128560952Y-64301904D01*
X128513333Y-64397142D01*
X128465714Y-64444761D01*
X128370476Y-64492380D01*
X128227619Y-64492380D01*
X129418095Y-64492380D02*
X129418095Y-63968571D01*
X129370476Y-63873333D01*
X129275238Y-63825714D01*
X129084761Y-63825714D01*
X128989523Y-63873333D01*
X129418095Y-64444761D02*
X129322857Y-64492380D01*
X129084761Y-64492380D01*
X128989523Y-64444761D01*
X128941904Y-64349523D01*
X128941904Y-64254285D01*
X128989523Y-64159047D01*
X129084761Y-64111428D01*
X129322857Y-64111428D01*
X129418095Y-64063809D01*
X129894285Y-64492380D02*
X129894285Y-63825714D01*
X129894285Y-64016190D02*
X129941904Y-63920952D01*
X129989523Y-63873333D01*
X130084761Y-63825714D01*
X130180000Y-63825714D01*
X130941904Y-64492380D02*
X130941904Y-63492380D01*
X130941904Y-64444761D02*
X130846666Y-64492380D01*
X130656190Y-64492380D01*
X130560952Y-64444761D01*
X130513333Y-64397142D01*
X130465714Y-64301904D01*
X130465714Y-64016190D01*
X130513333Y-63920952D01*
X130560952Y-63873333D01*
X130656190Y-63825714D01*
X130846666Y-63825714D01*
X130941904Y-63873333D01*
X131180000Y-64587619D02*
X131941904Y-64587619D01*
X132037142Y-63825714D02*
X132418095Y-63825714D01*
X132180000Y-63492380D02*
X132180000Y-64349523D01*
X132227619Y-64444761D01*
X132322857Y-64492380D01*
X132418095Y-64492380D01*
X132894285Y-64492380D02*
X132799047Y-64444761D01*
X132751428Y-64397142D01*
X132703809Y-64301904D01*
X132703809Y-64016190D01*
X132751428Y-63920952D01*
X132799047Y-63873333D01*
X132894285Y-63825714D01*
X133037142Y-63825714D01*
X133132380Y-63873333D01*
X133180000Y-63920952D01*
X133227619Y-64016190D01*
X133227619Y-64301904D01*
X133180000Y-64397142D01*
X133132380Y-64444761D01*
X133037142Y-64492380D01*
X132894285Y-64492380D01*
X133418095Y-64587619D02*
X134180000Y-64587619D01*
X134751428Y-63968571D02*
X134894285Y-64016190D01*
X134941904Y-64063809D01*
X134989523Y-64159047D01*
X134989523Y-64301904D01*
X134941904Y-64397142D01*
X134894285Y-64444761D01*
X134799047Y-64492380D01*
X134418095Y-64492380D01*
X134418095Y-63492380D01*
X134751428Y-63492380D01*
X134846666Y-63540000D01*
X134894285Y-63587619D01*
X134941904Y-63682857D01*
X134941904Y-63778095D01*
X134894285Y-63873333D01*
X134846666Y-63920952D01*
X134751428Y-63968571D01*
X134418095Y-63968571D01*
X135560952Y-64492380D02*
X135465714Y-64444761D01*
X135418095Y-64397142D01*
X135370476Y-64301904D01*
X135370476Y-64016190D01*
X135418095Y-63920952D01*
X135465714Y-63873333D01*
X135560952Y-63825714D01*
X135703809Y-63825714D01*
X135799047Y-63873333D01*
X135846666Y-63920952D01*
X135894285Y-64016190D01*
X135894285Y-64301904D01*
X135846666Y-64397142D01*
X135799047Y-64444761D01*
X135703809Y-64492380D01*
X135560952Y-64492380D01*
X136751428Y-64492380D02*
X136751428Y-63968571D01*
X136703809Y-63873333D01*
X136608571Y-63825714D01*
X136418095Y-63825714D01*
X136322857Y-63873333D01*
X136751428Y-64444761D02*
X136656190Y-64492380D01*
X136418095Y-64492380D01*
X136322857Y-64444761D01*
X136275238Y-64349523D01*
X136275238Y-64254285D01*
X136322857Y-64159047D01*
X136418095Y-64111428D01*
X136656190Y-64111428D01*
X136751428Y-64063809D01*
X137227619Y-64492380D02*
X137227619Y-63825714D01*
X137227619Y-64016190D02*
X137275238Y-63920952D01*
X137322857Y-63873333D01*
X137418095Y-63825714D01*
X137513333Y-63825714D01*
X138275238Y-64492380D02*
X138275238Y-63492380D01*
X138275238Y-64444761D02*
X138180000Y-64492380D01*
X137989523Y-64492380D01*
X137894285Y-64444761D01*
X137846666Y-64397142D01*
X137799047Y-64301904D01*
X137799047Y-64016190D01*
X137846666Y-63920952D01*
X137894285Y-63873333D01*
X137989523Y-63825714D01*
X138180000Y-63825714D01*
X138275238Y-63873333D01*
X86285980Y-102697104D02*
X87095504Y-102697104D01*
X87190742Y-102649485D01*
X87238361Y-102601866D01*
X87285980Y-102506628D01*
X87285980Y-102316152D01*
X87238361Y-102220914D01*
X87190742Y-102173295D01*
X87095504Y-102125676D01*
X86285980Y-102125676D01*
X86285980Y-101744723D02*
X86285980Y-101078057D01*
X87285980Y-101506628D01*
X92851780Y-112649847D02*
X92851780Y-113126038D01*
X91851780Y-113126038D01*
X92851780Y-112316514D02*
X92185114Y-112316514D01*
X91851780Y-112316514D02*
X91899400Y-112364133D01*
X91947019Y-112316514D01*
X91899400Y-112268895D01*
X91851780Y-112316514D01*
X91947019Y-112316514D01*
X92851780Y-111411752D02*
X91851780Y-111411752D01*
X92804161Y-111411752D02*
X92851780Y-111506990D01*
X92851780Y-111697466D01*
X92804161Y-111792704D01*
X92756542Y-111840323D01*
X92661304Y-111887942D01*
X92375590Y-111887942D01*
X92280352Y-111840323D01*
X92232733Y-111792704D01*
X92185114Y-111697466D01*
X92185114Y-111506990D01*
X92232733Y-111411752D01*
X92851780Y-110506990D02*
X92327971Y-110506990D01*
X92232733Y-110554609D01*
X92185114Y-110649847D01*
X92185114Y-110840323D01*
X92232733Y-110935561D01*
X92804161Y-110506990D02*
X92851780Y-110602228D01*
X92851780Y-110840323D01*
X92804161Y-110935561D01*
X92708923Y-110983180D01*
X92613685Y-110983180D01*
X92518447Y-110935561D01*
X92470828Y-110840323D01*
X92470828Y-110602228D01*
X92423209Y-110506990D01*
X92851780Y-110030800D02*
X92185114Y-110030800D01*
X92375590Y-110030800D02*
X92280352Y-109983180D01*
X92232733Y-109935561D01*
X92185114Y-109840323D01*
X92185114Y-109745085D01*
X92947019Y-109649847D02*
X92947019Y-108887942D01*
X92851780Y-108078419D02*
X92375590Y-108411752D01*
X92851780Y-108649847D02*
X91851780Y-108649847D01*
X91851780Y-108268895D01*
X91899400Y-108173657D01*
X91947019Y-108126038D01*
X92042257Y-108078419D01*
X92185114Y-108078419D01*
X92280352Y-108126038D01*
X92327971Y-108173657D01*
X92375590Y-108268895D01*
X92375590Y-108649847D01*
X92851780Y-107221276D02*
X92327971Y-107221276D01*
X92232733Y-107268895D01*
X92185114Y-107364133D01*
X92185114Y-107554609D01*
X92232733Y-107649847D01*
X92804161Y-107221276D02*
X92851780Y-107316514D01*
X92851780Y-107554609D01*
X92804161Y-107649847D01*
X92708923Y-107697466D01*
X92613685Y-107697466D01*
X92518447Y-107649847D01*
X92470828Y-107554609D01*
X92470828Y-107316514D01*
X92423209Y-107221276D01*
X92185114Y-106745085D02*
X92851780Y-106745085D01*
X92280352Y-106745085D02*
X92232733Y-106697466D01*
X92185114Y-106602228D01*
X92185114Y-106459371D01*
X92232733Y-106364133D01*
X92327971Y-106316514D01*
X92851780Y-106316514D01*
X92185114Y-105411752D02*
X92994638Y-105411752D01*
X93089876Y-105459371D01*
X93137495Y-105506990D01*
X93185114Y-105602228D01*
X93185114Y-105745085D01*
X93137495Y-105840323D01*
X92804161Y-105411752D02*
X92851780Y-105506990D01*
X92851780Y-105697466D01*
X92804161Y-105792704D01*
X92756542Y-105840323D01*
X92661304Y-105887942D01*
X92375590Y-105887942D01*
X92280352Y-105840323D01*
X92232733Y-105792704D01*
X92185114Y-105697466D01*
X92185114Y-105506990D01*
X92232733Y-105411752D01*
X92804161Y-104554609D02*
X92851780Y-104649847D01*
X92851780Y-104840323D01*
X92804161Y-104935561D01*
X92708923Y-104983180D01*
X92327971Y-104983180D01*
X92232733Y-104935561D01*
X92185114Y-104840323D01*
X92185114Y-104649847D01*
X92232733Y-104554609D01*
X92327971Y-104506990D01*
X92423209Y-104506990D01*
X92518447Y-104983180D01*
X92327971Y-103745085D02*
X92327971Y-104078419D01*
X92851780Y-104078419D02*
X91851780Y-104078419D01*
X91851780Y-103602228D01*
X92851780Y-103221276D02*
X92185114Y-103221276D01*
X91851780Y-103221276D02*
X91899400Y-103268895D01*
X91947019Y-103221276D01*
X91899400Y-103173657D01*
X91851780Y-103221276D01*
X91947019Y-103221276D01*
X92185114Y-102745085D02*
X92851780Y-102745085D01*
X92280352Y-102745085D02*
X92232733Y-102697466D01*
X92185114Y-102602228D01*
X92185114Y-102459371D01*
X92232733Y-102364133D01*
X92327971Y-102316514D01*
X92851780Y-102316514D01*
X92851780Y-101411752D02*
X91851780Y-101411752D01*
X92804161Y-101411752D02*
X92851780Y-101506990D01*
X92851780Y-101697466D01*
X92804161Y-101792704D01*
X92756542Y-101840323D01*
X92661304Y-101887942D01*
X92375590Y-101887942D01*
X92280352Y-101840323D01*
X92232733Y-101792704D01*
X92185114Y-101697466D01*
X92185114Y-101506990D01*
X92232733Y-101411752D01*
X92804161Y-100554609D02*
X92851780Y-100649847D01*
X92851780Y-100840323D01*
X92804161Y-100935561D01*
X92708923Y-100983180D01*
X92327971Y-100983180D01*
X92232733Y-100935561D01*
X92185114Y-100840323D01*
X92185114Y-100649847D01*
X92232733Y-100554609D01*
X92327971Y-100506990D01*
X92423209Y-100506990D01*
X92518447Y-100983180D01*
X92851780Y-100078419D02*
X92185114Y-100078419D01*
X92375590Y-100078419D02*
X92280352Y-100030800D01*
X92232733Y-99983180D01*
X92185114Y-99887942D01*
X92185114Y-99792704D01*
X194722904Y-136973180D02*
X194722904Y-135973180D01*
X194722904Y-136449371D02*
X195294333Y-136449371D01*
X195294333Y-136973180D02*
X195294333Y-135973180D01*
X196294333Y-136973180D02*
X195722904Y-136973180D01*
X196008619Y-136973180D02*
X196008619Y-135973180D01*
X195913380Y-136116038D01*
X195818142Y-136211276D01*
X195722904Y-136258895D01*
X197151476Y-135973180D02*
X196961000Y-135973180D01*
X196865761Y-136020800D01*
X196818142Y-136068419D01*
X196722904Y-136211276D01*
X196675285Y-136401752D01*
X196675285Y-136782704D01*
X196722904Y-136877942D01*
X196770523Y-136925561D01*
X196865761Y-136973180D01*
X197056238Y-136973180D01*
X197151476Y-136925561D01*
X197199095Y-136877942D01*
X197246714Y-136782704D01*
X197246714Y-136544609D01*
X197199095Y-136449371D01*
X197151476Y-136401752D01*
X197056238Y-136354133D01*
X196865761Y-136354133D01*
X196770523Y-136401752D01*
X196722904Y-136449371D01*
X196675285Y-136544609D01*
X194701904Y-54732380D02*
X194701904Y-53732380D01*
X194701904Y-54208571D02*
X195273333Y-54208571D01*
X195273333Y-54732380D02*
X195273333Y-53732380D01*
X196273333Y-54732380D02*
X195701904Y-54732380D01*
X195987619Y-54732380D02*
X195987619Y-53732380D01*
X195892380Y-53875238D01*
X195797142Y-53970476D01*
X195701904Y-54018095D01*
X197178095Y-53732380D02*
X196701904Y-53732380D01*
X196654285Y-54208571D01*
X196701904Y-54160952D01*
X196797142Y-54113333D01*
X197035238Y-54113333D01*
X197130476Y-54160952D01*
X197178095Y-54208571D01*
X197225714Y-54303809D01*
X197225714Y-54541904D01*
X197178095Y-54637142D01*
X197130476Y-54684761D01*
X197035238Y-54732380D01*
X196797142Y-54732380D01*
X196701904Y-54684761D01*
X196654285Y-54637142D01*
X84740904Y-136973180D02*
X84740904Y-135973180D01*
X84740904Y-136449371D02*
X85312333Y-136449371D01*
X85312333Y-136973180D02*
X85312333Y-135973180D01*
X86312333Y-136973180D02*
X85740904Y-136973180D01*
X86026619Y-136973180D02*
X86026619Y-135973180D01*
X85931380Y-136116038D01*
X85836142Y-136211276D01*
X85740904Y-136258895D01*
X87169476Y-136306514D02*
X87169476Y-136973180D01*
X86931380Y-135925561D02*
X86693285Y-136639847D01*
X87312333Y-136639847D01*
X90171904Y-51092380D02*
X90171904Y-50092380D01*
X90171904Y-50568571D02*
X90743333Y-50568571D01*
X90743333Y-51092380D02*
X90743333Y-50092380D01*
X91743333Y-51092380D02*
X91171904Y-51092380D01*
X91457619Y-51092380D02*
X91457619Y-50092380D01*
X91362380Y-50235238D01*
X91267142Y-50330476D01*
X91171904Y-50378095D01*
X92076666Y-50092380D02*
X92695714Y-50092380D01*
X92362380Y-50473333D01*
X92505238Y-50473333D01*
X92600476Y-50520952D01*
X92648095Y-50568571D01*
X92695714Y-50663809D01*
X92695714Y-50901904D01*
X92648095Y-50997142D01*
X92600476Y-51044761D01*
X92505238Y-51092380D01*
X92219523Y-51092380D01*
X92124285Y-51044761D01*
X92076666Y-50997142D01*
X190344666Y-142599380D02*
X190344666Y-143313666D01*
X190297047Y-143456523D01*
X190201809Y-143551761D01*
X190058952Y-143599380D01*
X189963714Y-143599380D01*
X190725619Y-142599380D02*
X191344666Y-142599380D01*
X191011333Y-142980333D01*
X191154190Y-142980333D01*
X191249428Y-143027952D01*
X191297047Y-143075571D01*
X191344666Y-143170809D01*
X191344666Y-143408904D01*
X191297047Y-143504142D01*
X191249428Y-143551761D01*
X191154190Y-143599380D01*
X190868476Y-143599380D01*
X190773238Y-143551761D01*
X190725619Y-143504142D01*
X171148095Y-144782380D02*
X171148095Y-143782380D01*
X171719523Y-144782380D01*
X171719523Y-143782380D01*
X172148095Y-144496666D02*
X172624285Y-144496666D01*
X172052857Y-144782380D02*
X172386190Y-143782380D01*
X172719523Y-144782380D01*
X173005238Y-144734761D02*
X173148095Y-144782380D01*
X173386190Y-144782380D01*
X173481428Y-144734761D01*
X173529047Y-144687142D01*
X173576666Y-144591904D01*
X173576666Y-144496666D01*
X173529047Y-144401428D01*
X173481428Y-144353809D01*
X173386190Y-144306190D01*
X173195714Y-144258571D01*
X173100476Y-144210952D01*
X173052857Y-144163333D01*
X173005238Y-144068095D01*
X173005238Y-143972857D01*
X173052857Y-143877619D01*
X173100476Y-143830000D01*
X173195714Y-143782380D01*
X173433809Y-143782380D01*
X173576666Y-143830000D01*
X173957619Y-144496666D02*
X174433809Y-144496666D01*
X173862380Y-144782380D02*
X174195714Y-143782380D01*
X174529047Y-144782380D01*
X175624285Y-144782380D02*
X175624285Y-143782380D01*
X176005238Y-143782380D01*
X176100476Y-143830000D01*
X176148095Y-143877619D01*
X176195714Y-143972857D01*
X176195714Y-144115714D01*
X176148095Y-144210952D01*
X176100476Y-144258571D01*
X176005238Y-144306190D01*
X175624285Y-144306190D01*
X176529047Y-143782380D02*
X176767142Y-144782380D01*
X176957619Y-144068095D01*
X177148095Y-144782380D01*
X177386190Y-143782380D01*
X178338571Y-144782380D02*
X178005238Y-144306190D01*
X177767142Y-144782380D02*
X177767142Y-143782380D01*
X178148095Y-143782380D01*
X178243333Y-143830000D01*
X178290952Y-143877619D01*
X178338571Y-143972857D01*
X178338571Y-144115714D01*
X178290952Y-144210952D01*
X178243333Y-144258571D01*
X178148095Y-144306190D01*
X177767142Y-144306190D01*
X178529047Y-144877619D02*
X179290952Y-144877619D01*
X179529047Y-144782380D02*
X179529047Y-143782380D01*
X180005238Y-144115714D02*
X180005238Y-144782380D01*
X180005238Y-144210952D02*
X180052857Y-144163333D01*
X180148095Y-144115714D01*
X180290952Y-144115714D01*
X180386190Y-144163333D01*
X180433809Y-144258571D01*
X180433809Y-144782380D01*
X180767142Y-144115714D02*
X181148095Y-144115714D01*
X180910000Y-143782380D02*
X180910000Y-144639523D01*
X180957619Y-144734761D01*
X181052857Y-144782380D01*
X181148095Y-144782380D01*
X181862380Y-144734761D02*
X181767142Y-144782380D01*
X181576666Y-144782380D01*
X181481428Y-144734761D01*
X181433809Y-144639523D01*
X181433809Y-144258571D01*
X181481428Y-144163333D01*
X181576666Y-144115714D01*
X181767142Y-144115714D01*
X181862380Y-144163333D01*
X181910000Y-144258571D01*
X181910000Y-144353809D01*
X181433809Y-144449047D01*
X182338571Y-144782380D02*
X182338571Y-144115714D01*
X182338571Y-144306190D02*
X182386190Y-144210952D01*
X182433809Y-144163333D01*
X182529047Y-144115714D01*
X182624285Y-144115714D01*
X182814761Y-144115714D02*
X183195714Y-144115714D01*
X182957619Y-144782380D02*
X182957619Y-143925238D01*
X183005238Y-143830000D01*
X183100476Y-143782380D01*
X183195714Y-143782380D01*
X183957619Y-144782380D02*
X183957619Y-144258571D01*
X183910000Y-144163333D01*
X183814761Y-144115714D01*
X183624285Y-144115714D01*
X183529047Y-144163333D01*
X183957619Y-144734761D02*
X183862380Y-144782380D01*
X183624285Y-144782380D01*
X183529047Y-144734761D01*
X183481428Y-144639523D01*
X183481428Y-144544285D01*
X183529047Y-144449047D01*
X183624285Y-144401428D01*
X183862380Y-144401428D01*
X183957619Y-144353809D01*
X184862380Y-144734761D02*
X184767142Y-144782380D01*
X184576666Y-144782380D01*
X184481428Y-144734761D01*
X184433809Y-144687142D01*
X184386190Y-144591904D01*
X184386190Y-144306190D01*
X184433809Y-144210952D01*
X184481428Y-144163333D01*
X184576666Y-144115714D01*
X184767142Y-144115714D01*
X184862380Y-144163333D01*
X185671904Y-144734761D02*
X185576666Y-144782380D01*
X185386190Y-144782380D01*
X185290952Y-144734761D01*
X185243333Y-144639523D01*
X185243333Y-144258571D01*
X185290952Y-144163333D01*
X185386190Y-144115714D01*
X185576666Y-144115714D01*
X185671904Y-144163333D01*
X185719523Y-144258571D01*
X185719523Y-144353809D01*
X185243333Y-144449047D01*
X190741523Y-141237180D02*
X190170095Y-141237180D01*
X190455809Y-141237180D02*
X190455809Y-140237180D01*
X190360571Y-140380038D01*
X190265333Y-140475276D01*
X190170095Y-140522895D01*
X191646285Y-140237180D02*
X191170095Y-140237180D01*
X191122476Y-140713371D01*
X191170095Y-140665752D01*
X191265333Y-140618133D01*
X191503428Y-140618133D01*
X191598666Y-140665752D01*
X191646285Y-140713371D01*
X191693904Y-140808609D01*
X191693904Y-141046704D01*
X191646285Y-141141942D01*
X191598666Y-141189561D01*
X191503428Y-141237180D01*
X191265333Y-141237180D01*
X191170095Y-141189561D01*
X191122476Y-141141942D01*
X190836761Y-137871752D02*
X190741523Y-137824133D01*
X190693904Y-137776514D01*
X190646285Y-137681276D01*
X190646285Y-137633657D01*
X190693904Y-137538419D01*
X190741523Y-137490800D01*
X190836761Y-137443180D01*
X191027238Y-137443180D01*
X191122476Y-137490800D01*
X191170095Y-137538419D01*
X191217714Y-137633657D01*
X191217714Y-137681276D01*
X191170095Y-137776514D01*
X191122476Y-137824133D01*
X191027238Y-137871752D01*
X190836761Y-137871752D01*
X190741523Y-137919371D01*
X190693904Y-137966990D01*
X190646285Y-138062228D01*
X190646285Y-138252704D01*
X190693904Y-138347942D01*
X190741523Y-138395561D01*
X190836761Y-138443180D01*
X191027238Y-138443180D01*
X191122476Y-138395561D01*
X191170095Y-138347942D01*
X191217714Y-138252704D01*
X191217714Y-138062228D01*
X191170095Y-137966990D01*
X191122476Y-137919371D01*
X191027238Y-137871752D01*
X165798723Y-141237180D02*
X165989200Y-141237180D01*
X166084438Y-141189561D01*
X166132057Y-141141942D01*
X166227295Y-140999085D01*
X166274914Y-140808609D01*
X166274914Y-140427657D01*
X166227295Y-140332419D01*
X166179676Y-140284800D01*
X166084438Y-140237180D01*
X165893961Y-140237180D01*
X165798723Y-140284800D01*
X165751104Y-140332419D01*
X165703485Y-140427657D01*
X165703485Y-140665752D01*
X165751104Y-140760990D01*
X165798723Y-140808609D01*
X165893961Y-140856228D01*
X166084438Y-140856228D01*
X166179676Y-140808609D01*
X166227295Y-140760990D01*
X166274914Y-140665752D01*
X165919314Y-138341580D02*
X165347885Y-138341580D01*
X165633600Y-138341580D02*
X165633600Y-137341580D01*
X165538361Y-137484438D01*
X165443123Y-137579676D01*
X165347885Y-137627295D01*
X101465142Y-125257820D02*
X101131809Y-124781630D01*
X100893714Y-125257820D02*
X100893714Y-124257820D01*
X101274666Y-124257820D01*
X101369904Y-124305440D01*
X101417523Y-124353059D01*
X101465142Y-124448297D01*
X101465142Y-124591154D01*
X101417523Y-124686392D01*
X101369904Y-124734011D01*
X101274666Y-124781630D01*
X100893714Y-124781630D01*
X102417523Y-125257820D02*
X101846095Y-125257820D01*
X102131809Y-125257820D02*
X102131809Y-124257820D01*
X102036571Y-124400678D01*
X101941333Y-124495916D01*
X101846095Y-124543535D01*
X102750857Y-124257820D02*
X103369904Y-124257820D01*
X103036571Y-124638773D01*
X103179428Y-124638773D01*
X103274666Y-124686392D01*
X103322285Y-124734011D01*
X103369904Y-124829249D01*
X103369904Y-125067344D01*
X103322285Y-125162582D01*
X103274666Y-125210201D01*
X103179428Y-125257820D01*
X102893714Y-125257820D01*
X102798476Y-125210201D01*
X102750857Y-125162582D01*
X104770323Y-125267980D02*
X104198895Y-125267980D01*
X104484609Y-125267980D02*
X104484609Y-124267980D01*
X104389371Y-124410838D01*
X104294133Y-124506076D01*
X104198895Y-124553695D01*
X105389371Y-124267980D02*
X105484609Y-124267980D01*
X105579847Y-124315600D01*
X105627466Y-124363219D01*
X105675085Y-124458457D01*
X105722704Y-124648933D01*
X105722704Y-124887028D01*
X105675085Y-125077504D01*
X105627466Y-125172742D01*
X105579847Y-125220361D01*
X105484609Y-125267980D01*
X105389371Y-125267980D01*
X105294133Y-125220361D01*
X105246514Y-125172742D01*
X105198895Y-125077504D01*
X105151276Y-124887028D01*
X105151276Y-124648933D01*
X105198895Y-124458457D01*
X105246514Y-124363219D01*
X105294133Y-124315600D01*
X105389371Y-124267980D01*
X106151276Y-125267980D02*
X106151276Y-124267980D01*
X106722704Y-125267980D02*
X106294133Y-124696552D01*
X106722704Y-124267980D02*
X106151276Y-124839409D01*
X120530382Y-121635780D02*
X120197049Y-121159590D01*
X119958954Y-121635780D02*
X119958954Y-120635780D01*
X120339906Y-120635780D01*
X120435144Y-120683400D01*
X120482763Y-120731019D01*
X120530382Y-120826257D01*
X120530382Y-120969114D01*
X120482763Y-121064352D01*
X120435144Y-121111971D01*
X120339906Y-121159590D01*
X119958954Y-121159590D01*
X121482763Y-121635780D02*
X120911335Y-121635780D01*
X121197049Y-121635780D02*
X121197049Y-120635780D01*
X121101811Y-120778638D01*
X121006573Y-120873876D01*
X120911335Y-120921495D01*
X121863716Y-120731019D02*
X121911335Y-120683400D01*
X122006573Y-120635780D01*
X122244668Y-120635780D01*
X122339906Y-120683400D01*
X122387525Y-120731019D01*
X122435144Y-120826257D01*
X122435144Y-120921495D01*
X122387525Y-121064352D01*
X121816097Y-121635780D01*
X122435144Y-121635780D01*
X105554495Y-120559580D02*
X105078304Y-120559580D01*
X105030685Y-121035771D01*
X105078304Y-120988152D01*
X105173542Y-120940533D01*
X105411638Y-120940533D01*
X105506876Y-120988152D01*
X105554495Y-121035771D01*
X105602114Y-121131009D01*
X105602114Y-121369104D01*
X105554495Y-121464342D01*
X105506876Y-121511961D01*
X105411638Y-121559580D01*
X105173542Y-121559580D01*
X105078304Y-121511961D01*
X105030685Y-121464342D01*
X106030685Y-121559580D02*
X106030685Y-120559580D01*
X106602114Y-121559580D02*
X106173542Y-120988152D01*
X106602114Y-120559580D02*
X106030685Y-121131009D01*
X133717142Y-124452380D02*
X133383809Y-123976190D01*
X133145714Y-124452380D02*
X133145714Y-123452380D01*
X133526666Y-123452380D01*
X133621904Y-123500000D01*
X133669523Y-123547619D01*
X133717142Y-123642857D01*
X133717142Y-123785714D01*
X133669523Y-123880952D01*
X133621904Y-123928571D01*
X133526666Y-123976190D01*
X133145714Y-123976190D01*
X134669523Y-124452380D02*
X134098095Y-124452380D01*
X134383809Y-124452380D02*
X134383809Y-123452380D01*
X134288571Y-123595238D01*
X134193333Y-123690476D01*
X134098095Y-123738095D01*
X135621904Y-124452380D02*
X135050476Y-124452380D01*
X135336190Y-124452380D02*
X135336190Y-123452380D01*
X135240952Y-123595238D01*
X135145714Y-123690476D01*
X135050476Y-123738095D01*
X131428095Y-122192380D02*
X130951904Y-122192380D01*
X130904285Y-122668571D01*
X130951904Y-122620952D01*
X131047142Y-122573333D01*
X131285238Y-122573333D01*
X131380476Y-122620952D01*
X131428095Y-122668571D01*
X131475714Y-122763809D01*
X131475714Y-123001904D01*
X131428095Y-123097142D01*
X131380476Y-123144761D01*
X131285238Y-123192380D01*
X131047142Y-123192380D01*
X130951904Y-123144761D01*
X130904285Y-123097142D01*
X131904285Y-123192380D02*
X131904285Y-122192380D01*
X132475714Y-123192380D02*
X132047142Y-122620952D01*
X132475714Y-122192380D02*
X131904285Y-122763809D01*
X119362380Y-109026666D02*
X118886190Y-109360000D01*
X119362380Y-109598095D02*
X118362380Y-109598095D01*
X118362380Y-109217142D01*
X118410000Y-109121904D01*
X118457619Y-109074285D01*
X118552857Y-109026666D01*
X118695714Y-109026666D01*
X118790952Y-109074285D01*
X118838571Y-109121904D01*
X118886190Y-109217142D01*
X118886190Y-109598095D01*
X119362380Y-108550476D02*
X119362380Y-108360000D01*
X119314761Y-108264761D01*
X119267142Y-108217142D01*
X119124285Y-108121904D01*
X118933809Y-108074285D01*
X118552857Y-108074285D01*
X118457619Y-108121904D01*
X118410000Y-108169523D01*
X118362380Y-108264761D01*
X118362380Y-108455238D01*
X118410000Y-108550476D01*
X118457619Y-108598095D01*
X118552857Y-108645714D01*
X118790952Y-108645714D01*
X118886190Y-108598095D01*
X118933809Y-108550476D01*
X118981428Y-108455238D01*
X118981428Y-108264761D01*
X118933809Y-108169523D01*
X118886190Y-108121904D01*
X118790952Y-108074285D01*
X118322380Y-104551904D02*
X118322380Y-105028095D01*
X118798571Y-105075714D01*
X118750952Y-105028095D01*
X118703333Y-104932857D01*
X118703333Y-104694761D01*
X118750952Y-104599523D01*
X118798571Y-104551904D01*
X118893809Y-104504285D01*
X119131904Y-104504285D01*
X119227142Y-104551904D01*
X119274761Y-104599523D01*
X119322380Y-104694761D01*
X119322380Y-104932857D01*
X119274761Y-105028095D01*
X119227142Y-105075714D01*
X119322380Y-104075714D02*
X118322380Y-104075714D01*
X119322380Y-103504285D02*
X118750952Y-103932857D01*
X118322380Y-103504285D02*
X118893809Y-104075714D01*
X112052180Y-112841066D02*
X111575990Y-113174400D01*
X112052180Y-113412495D02*
X111052180Y-113412495D01*
X111052180Y-113031542D01*
X111099800Y-112936304D01*
X111147419Y-112888685D01*
X111242657Y-112841066D01*
X111385514Y-112841066D01*
X111480752Y-112888685D01*
X111528371Y-112936304D01*
X111575990Y-113031542D01*
X111575990Y-113412495D01*
X111480752Y-112269638D02*
X111433133Y-112364876D01*
X111385514Y-112412495D01*
X111290276Y-112460114D01*
X111242657Y-112460114D01*
X111147419Y-112412495D01*
X111099800Y-112364876D01*
X111052180Y-112269638D01*
X111052180Y-112079161D01*
X111099800Y-111983923D01*
X111147419Y-111936304D01*
X111242657Y-111888685D01*
X111290276Y-111888685D01*
X111385514Y-111936304D01*
X111433133Y-111983923D01*
X111480752Y-112079161D01*
X111480752Y-112269638D01*
X111528371Y-112364876D01*
X111575990Y-112412495D01*
X111671228Y-112460114D01*
X111861704Y-112460114D01*
X111956942Y-112412495D01*
X112004561Y-112364876D01*
X112052180Y-112269638D01*
X112052180Y-112079161D01*
X112004561Y-111983923D01*
X111956942Y-111936304D01*
X111861704Y-111888685D01*
X111671228Y-111888685D01*
X111575990Y-111936304D01*
X111528371Y-111983923D01*
X111480752Y-112079161D01*
X115792180Y-112936304D02*
X115792180Y-113412495D01*
X116268371Y-113460114D01*
X116220752Y-113412495D01*
X116173133Y-113317257D01*
X116173133Y-113079161D01*
X116220752Y-112983923D01*
X116268371Y-112936304D01*
X116363609Y-112888685D01*
X116601704Y-112888685D01*
X116696942Y-112936304D01*
X116744561Y-112983923D01*
X116792180Y-113079161D01*
X116792180Y-113317257D01*
X116744561Y-113412495D01*
X116696942Y-113460114D01*
X116792180Y-112460114D02*
X115792180Y-112460114D01*
X116792180Y-111888685D02*
X116220752Y-112317257D01*
X115792180Y-111888685D02*
X116363609Y-112460114D01*
X161412333Y-141643142D02*
X161364714Y-141690761D01*
X161221857Y-141738380D01*
X161126619Y-141738380D01*
X160983761Y-141690761D01*
X160888523Y-141595523D01*
X160840904Y-141500285D01*
X160793285Y-141309809D01*
X160793285Y-141166952D01*
X160840904Y-140976476D01*
X160888523Y-140881238D01*
X160983761Y-140786000D01*
X161126619Y-140738380D01*
X161221857Y-140738380D01*
X161364714Y-140786000D01*
X161412333Y-140833619D01*
X162317095Y-140738380D02*
X161840904Y-140738380D01*
X161793285Y-141214571D01*
X161840904Y-141166952D01*
X161936142Y-141119333D01*
X162174238Y-141119333D01*
X162269476Y-141166952D01*
X162317095Y-141214571D01*
X162364714Y-141309809D01*
X162364714Y-141547904D01*
X162317095Y-141643142D01*
X162269476Y-141690761D01*
X162174238Y-141738380D01*
X161936142Y-141738380D01*
X161840904Y-141690761D01*
X161793285Y-141643142D01*
X159332952Y-128641619D02*
X159380571Y-128594000D01*
X159475809Y-128546380D01*
X159713904Y-128546380D01*
X159809142Y-128594000D01*
X159856761Y-128641619D01*
X159904380Y-128736857D01*
X159904380Y-128832095D01*
X159856761Y-128974952D01*
X159285333Y-129546380D01*
X159904380Y-129546380D01*
X160285333Y-128641619D02*
X160332952Y-128594000D01*
X160428190Y-128546380D01*
X160666285Y-128546380D01*
X160761523Y-128594000D01*
X160809142Y-128641619D01*
X160856761Y-128736857D01*
X160856761Y-128832095D01*
X160809142Y-128974952D01*
X160237714Y-129546380D01*
X160856761Y-129546380D01*
X161475809Y-128546380D02*
X161571047Y-128546380D01*
X161666285Y-128594000D01*
X161713904Y-128641619D01*
X161761523Y-128736857D01*
X161809142Y-128927333D01*
X161809142Y-129165428D01*
X161761523Y-129355904D01*
X161713904Y-129451142D01*
X161666285Y-129498761D01*
X161571047Y-129546380D01*
X161475809Y-129546380D01*
X161380571Y-129498761D01*
X161332952Y-129451142D01*
X161285333Y-129355904D01*
X161237714Y-129165428D01*
X161237714Y-128927333D01*
X161285333Y-128736857D01*
X161332952Y-128641619D01*
X161380571Y-128594000D01*
X161475809Y-128546380D01*
X162666285Y-128879714D02*
X162666285Y-129546380D01*
X162237714Y-128879714D02*
X162237714Y-129403523D01*
X162285333Y-129498761D01*
X162380571Y-129546380D01*
X162523428Y-129546380D01*
X162618666Y-129498761D01*
X162666285Y-129451142D01*
X163475809Y-129022571D02*
X163142476Y-129022571D01*
X163142476Y-129546380D02*
X163142476Y-128546380D01*
X163618666Y-128546380D01*
X186463333Y-122777142D02*
X186415714Y-122824761D01*
X186272857Y-122872380D01*
X186177619Y-122872380D01*
X186034761Y-122824761D01*
X185939523Y-122729523D01*
X185891904Y-122634285D01*
X185844285Y-122443809D01*
X185844285Y-122300952D01*
X185891904Y-122110476D01*
X185939523Y-122015238D01*
X186034761Y-121920000D01*
X186177619Y-121872380D01*
X186272857Y-121872380D01*
X186415714Y-121920000D01*
X186463333Y-121967619D01*
X186844285Y-121967619D02*
X186891904Y-121920000D01*
X186987142Y-121872380D01*
X187225238Y-121872380D01*
X187320476Y-121920000D01*
X187368095Y-121967619D01*
X187415714Y-122062857D01*
X187415714Y-122158095D01*
X187368095Y-122300952D01*
X186796666Y-122872380D01*
X187415714Y-122872380D01*
X178126190Y-122832380D02*
X177554761Y-122832380D01*
X177840476Y-122832380D02*
X177840476Y-121832380D01*
X177745238Y-121975238D01*
X177650000Y-122070476D01*
X177554761Y-122118095D01*
X178745238Y-121832380D02*
X178840476Y-121832380D01*
X178935714Y-121880000D01*
X178983333Y-121927619D01*
X179030952Y-122022857D01*
X179078571Y-122213333D01*
X179078571Y-122451428D01*
X179030952Y-122641904D01*
X178983333Y-122737142D01*
X178935714Y-122784761D01*
X178840476Y-122832380D01*
X178745238Y-122832380D01*
X178650000Y-122784761D01*
X178602380Y-122737142D01*
X178554761Y-122641904D01*
X178507142Y-122451428D01*
X178507142Y-122213333D01*
X178554761Y-122022857D01*
X178602380Y-121927619D01*
X178650000Y-121880000D01*
X178745238Y-121832380D01*
X179697619Y-121832380D02*
X179792857Y-121832380D01*
X179888095Y-121880000D01*
X179935714Y-121927619D01*
X179983333Y-122022857D01*
X180030952Y-122213333D01*
X180030952Y-122451428D01*
X179983333Y-122641904D01*
X179935714Y-122737142D01*
X179888095Y-122784761D01*
X179792857Y-122832380D01*
X179697619Y-122832380D01*
X179602380Y-122784761D01*
X179554761Y-122737142D01*
X179507142Y-122641904D01*
X179459523Y-122451428D01*
X179459523Y-122213333D01*
X179507142Y-122022857D01*
X179554761Y-121927619D01*
X179602380Y-121880000D01*
X179697619Y-121832380D01*
X180650000Y-121832380D02*
X180745238Y-121832380D01*
X180840476Y-121880000D01*
X180888095Y-121927619D01*
X180935714Y-122022857D01*
X180983333Y-122213333D01*
X180983333Y-122451428D01*
X180935714Y-122641904D01*
X180888095Y-122737142D01*
X180840476Y-122784761D01*
X180745238Y-122832380D01*
X180650000Y-122832380D01*
X180554761Y-122784761D01*
X180507142Y-122737142D01*
X180459523Y-122641904D01*
X180411904Y-122451428D01*
X180411904Y-122213333D01*
X180459523Y-122022857D01*
X180507142Y-121927619D01*
X180554761Y-121880000D01*
X180650000Y-121832380D01*
X181840476Y-122165714D02*
X181840476Y-122832380D01*
X181411904Y-122165714D02*
X181411904Y-122689523D01*
X181459523Y-122784761D01*
X181554761Y-122832380D01*
X181697619Y-122832380D01*
X181792857Y-122784761D01*
X181840476Y-122737142D01*
X182650000Y-122308571D02*
X182316666Y-122308571D01*
X182316666Y-122832380D02*
X182316666Y-121832380D01*
X182792857Y-121832380D01*
X191579380Y-135254904D02*
X192388904Y-135254904D01*
X192484142Y-135207285D01*
X192531761Y-135159666D01*
X192579380Y-135064428D01*
X192579380Y-134873952D01*
X192531761Y-134778714D01*
X192484142Y-134731095D01*
X192388904Y-134683476D01*
X191579380Y-134683476D01*
X191674619Y-134254904D02*
X191627000Y-134207285D01*
X191579380Y-134112047D01*
X191579380Y-133873952D01*
X191627000Y-133778714D01*
X191674619Y-133731095D01*
X191769857Y-133683476D01*
X191865095Y-133683476D01*
X192007952Y-133731095D01*
X192579380Y-134302523D01*
X192579380Y-133683476D01*
X199183380Y-132801857D02*
X199183380Y-133278047D01*
X198183380Y-133278047D01*
X199183380Y-132468523D02*
X198183380Y-132468523D01*
X198897666Y-132135190D01*
X198183380Y-131801857D01*
X199183380Y-131801857D01*
X198278619Y-131373285D02*
X198231000Y-131325666D01*
X198183380Y-131230428D01*
X198183380Y-130992333D01*
X198231000Y-130897095D01*
X198278619Y-130849476D01*
X198373857Y-130801857D01*
X198469095Y-130801857D01*
X198611952Y-130849476D01*
X199183380Y-131420904D01*
X199183380Y-130801857D01*
X198183380Y-129897095D02*
X198183380Y-130373285D01*
X198659571Y-130420904D01*
X198611952Y-130373285D01*
X198564333Y-130278047D01*
X198564333Y-130039952D01*
X198611952Y-129944714D01*
X198659571Y-129897095D01*
X198754809Y-129849476D01*
X198992904Y-129849476D01*
X199088142Y-129897095D01*
X199135761Y-129944714D01*
X199183380Y-130039952D01*
X199183380Y-130278047D01*
X199135761Y-130373285D01*
X199088142Y-130420904D01*
X198183380Y-129516142D02*
X198183380Y-128849476D01*
X199183380Y-129278047D01*
X198183380Y-128039952D02*
X198183380Y-128230428D01*
X198231000Y-128325666D01*
X198278619Y-128373285D01*
X198421476Y-128468523D01*
X198611952Y-128516142D01*
X198992904Y-128516142D01*
X199088142Y-128468523D01*
X199135761Y-128420904D01*
X199183380Y-128325666D01*
X199183380Y-128135190D01*
X199135761Y-128039952D01*
X199088142Y-127992333D01*
X198992904Y-127944714D01*
X198754809Y-127944714D01*
X198659571Y-127992333D01*
X198611952Y-128039952D01*
X198564333Y-128135190D01*
X198564333Y-128325666D01*
X198611952Y-128420904D01*
X198659571Y-128468523D01*
X198754809Y-128516142D01*
X198183380Y-127659000D02*
X198183380Y-127087571D01*
X199183380Y-127373285D02*
X198183380Y-127373285D01*
X198802428Y-126754238D02*
X198802428Y-125992333D01*
X198183380Y-125039952D02*
X198183380Y-125516142D01*
X198659571Y-125563761D01*
X198611952Y-125516142D01*
X198564333Y-125420904D01*
X198564333Y-125182809D01*
X198611952Y-125087571D01*
X198659571Y-125039952D01*
X198754809Y-124992333D01*
X198992904Y-124992333D01*
X199088142Y-125039952D01*
X199135761Y-125087571D01*
X199183380Y-125182809D01*
X199183380Y-125420904D01*
X199135761Y-125516142D01*
X199088142Y-125563761D01*
X125736361Y-121502419D02*
X125641123Y-121454800D01*
X125545885Y-121359561D01*
X125403028Y-121216704D01*
X125307790Y-121169085D01*
X125212552Y-121169085D01*
X125260171Y-121407180D02*
X125164933Y-121359561D01*
X125069695Y-121264323D01*
X125022076Y-121073847D01*
X125022076Y-120740514D01*
X125069695Y-120550038D01*
X125164933Y-120454800D01*
X125260171Y-120407180D01*
X125450647Y-120407180D01*
X125545885Y-120454800D01*
X125641123Y-120550038D01*
X125688742Y-120740514D01*
X125688742Y-121073847D01*
X125641123Y-121264323D01*
X125545885Y-121359561D01*
X125450647Y-121407180D01*
X125260171Y-121407180D01*
X126022076Y-120407180D02*
X126641123Y-120407180D01*
X126307790Y-120788133D01*
X126450647Y-120788133D01*
X126545885Y-120835752D01*
X126593504Y-120883371D01*
X126641123Y-120978609D01*
X126641123Y-121216704D01*
X126593504Y-121311942D01*
X126545885Y-121359561D01*
X126450647Y-121407180D01*
X126164933Y-121407180D01*
X126069695Y-121359561D01*
X126022076Y-121311942D01*
X121415514Y-114101619D02*
X121463133Y-114054000D01*
X121558371Y-114006380D01*
X121796466Y-114006380D01*
X121891704Y-114054000D01*
X121939323Y-114101619D01*
X121986942Y-114196857D01*
X121986942Y-114292095D01*
X121939323Y-114434952D01*
X121367895Y-115006380D01*
X121986942Y-115006380D01*
X122415514Y-115006380D02*
X122415514Y-114006380D01*
X122986942Y-115006380D01*
X122986942Y-114006380D01*
X123367895Y-114006380D02*
X124034561Y-114006380D01*
X123605990Y-115006380D01*
X124605990Y-114006380D02*
X124701228Y-114006380D01*
X124796466Y-114054000D01*
X124844085Y-114101619D01*
X124891704Y-114196857D01*
X124939323Y-114387333D01*
X124939323Y-114625428D01*
X124891704Y-114815904D01*
X124844085Y-114911142D01*
X124796466Y-114958761D01*
X124701228Y-115006380D01*
X124605990Y-115006380D01*
X124510752Y-114958761D01*
X124463133Y-114911142D01*
X124415514Y-114815904D01*
X124367895Y-114625428D01*
X124367895Y-114387333D01*
X124415514Y-114196857D01*
X124463133Y-114101619D01*
X124510752Y-114054000D01*
X124605990Y-114006380D01*
X125558371Y-114006380D02*
X125653609Y-114006380D01*
X125748847Y-114054000D01*
X125796466Y-114101619D01*
X125844085Y-114196857D01*
X125891704Y-114387333D01*
X125891704Y-114625428D01*
X125844085Y-114815904D01*
X125796466Y-114911142D01*
X125748847Y-114958761D01*
X125653609Y-115006380D01*
X125558371Y-115006380D01*
X125463133Y-114958761D01*
X125415514Y-114911142D01*
X125367895Y-114815904D01*
X125320276Y-114625428D01*
X125320276Y-114387333D01*
X125367895Y-114196857D01*
X125415514Y-114101619D01*
X125463133Y-114054000D01*
X125558371Y-114006380D01*
X126510752Y-114006380D02*
X126605990Y-114006380D01*
X126701228Y-114054000D01*
X126748847Y-114101619D01*
X126796466Y-114196857D01*
X126844085Y-114387333D01*
X126844085Y-114625428D01*
X126796466Y-114815904D01*
X126748847Y-114911142D01*
X126701228Y-114958761D01*
X126605990Y-115006380D01*
X126510752Y-115006380D01*
X126415514Y-114958761D01*
X126367895Y-114911142D01*
X126320276Y-114815904D01*
X126272657Y-114625428D01*
X126272657Y-114387333D01*
X126320276Y-114196857D01*
X126367895Y-114101619D01*
X126415514Y-114054000D01*
X126510752Y-114006380D01*
X116185961Y-107659419D02*
X116090723Y-107611800D01*
X115995485Y-107516561D01*
X115852628Y-107373704D01*
X115757390Y-107326085D01*
X115662152Y-107326085D01*
X115709771Y-107564180D02*
X115614533Y-107516561D01*
X115519295Y-107421323D01*
X115471676Y-107230847D01*
X115471676Y-106897514D01*
X115519295Y-106707038D01*
X115614533Y-106611800D01*
X115709771Y-106564180D01*
X115900247Y-106564180D01*
X115995485Y-106611800D01*
X116090723Y-106707038D01*
X116138342Y-106897514D01*
X116138342Y-107230847D01*
X116090723Y-107421323D01*
X115995485Y-107516561D01*
X115900247Y-107564180D01*
X115709771Y-107564180D01*
X116519295Y-106659419D02*
X116566914Y-106611800D01*
X116662152Y-106564180D01*
X116900247Y-106564180D01*
X116995485Y-106611800D01*
X117043104Y-106659419D01*
X117090723Y-106754657D01*
X117090723Y-106849895D01*
X117043104Y-106992752D01*
X116471676Y-107564180D01*
X117090723Y-107564180D01*
X111865114Y-100207819D02*
X111912733Y-100160200D01*
X112007971Y-100112580D01*
X112246066Y-100112580D01*
X112341304Y-100160200D01*
X112388923Y-100207819D01*
X112436542Y-100303057D01*
X112436542Y-100398295D01*
X112388923Y-100541152D01*
X111817495Y-101112580D01*
X112436542Y-101112580D01*
X112865114Y-101112580D02*
X112865114Y-100112580D01*
X113436542Y-101112580D01*
X113436542Y-100112580D01*
X113817495Y-100112580D02*
X114484161Y-100112580D01*
X114055590Y-101112580D01*
X115055590Y-100112580D02*
X115150828Y-100112580D01*
X115246066Y-100160200D01*
X115293685Y-100207819D01*
X115341304Y-100303057D01*
X115388923Y-100493533D01*
X115388923Y-100731628D01*
X115341304Y-100922104D01*
X115293685Y-101017342D01*
X115246066Y-101064961D01*
X115150828Y-101112580D01*
X115055590Y-101112580D01*
X114960352Y-101064961D01*
X114912733Y-101017342D01*
X114865114Y-100922104D01*
X114817495Y-100731628D01*
X114817495Y-100493533D01*
X114865114Y-100303057D01*
X114912733Y-100207819D01*
X114960352Y-100160200D01*
X115055590Y-100112580D01*
X116007971Y-100112580D02*
X116103209Y-100112580D01*
X116198447Y-100160200D01*
X116246066Y-100207819D01*
X116293685Y-100303057D01*
X116341304Y-100493533D01*
X116341304Y-100731628D01*
X116293685Y-100922104D01*
X116246066Y-101017342D01*
X116198447Y-101064961D01*
X116103209Y-101112580D01*
X116007971Y-101112580D01*
X115912733Y-101064961D01*
X115865114Y-101017342D01*
X115817495Y-100922104D01*
X115769876Y-100731628D01*
X115769876Y-100493533D01*
X115817495Y-100303057D01*
X115865114Y-100207819D01*
X115912733Y-100160200D01*
X116007971Y-100112580D01*
X116960352Y-100112580D02*
X117055590Y-100112580D01*
X117150828Y-100160200D01*
X117198447Y-100207819D01*
X117246066Y-100303057D01*
X117293685Y-100493533D01*
X117293685Y-100731628D01*
X117246066Y-100922104D01*
X117198447Y-101017342D01*
X117150828Y-101064961D01*
X117055590Y-101112580D01*
X116960352Y-101112580D01*
X116865114Y-101064961D01*
X116817495Y-101017342D01*
X116769876Y-100922104D01*
X116722257Y-100731628D01*
X116722257Y-100493533D01*
X116769876Y-100303057D01*
X116817495Y-100207819D01*
X116865114Y-100160200D01*
X116960352Y-100112580D01*
X146329495Y-121702580D02*
X146329495Y-122512104D01*
X146377114Y-122607342D01*
X146424733Y-122654961D01*
X146519971Y-122702580D01*
X146710447Y-122702580D01*
X146805685Y-122654961D01*
X146853304Y-122607342D01*
X146900923Y-122512104D01*
X146900923Y-121702580D01*
X147519971Y-122131152D02*
X147424733Y-122083533D01*
X147377114Y-122035914D01*
X147329495Y-121940676D01*
X147329495Y-121893057D01*
X147377114Y-121797819D01*
X147424733Y-121750200D01*
X147519971Y-121702580D01*
X147710447Y-121702580D01*
X147805685Y-121750200D01*
X147853304Y-121797819D01*
X147900923Y-121893057D01*
X147900923Y-121940676D01*
X147853304Y-122035914D01*
X147805685Y-122083533D01*
X147710447Y-122131152D01*
X147519971Y-122131152D01*
X147424733Y-122178771D01*
X147377114Y-122226390D01*
X147329495Y-122321628D01*
X147329495Y-122512104D01*
X147377114Y-122607342D01*
X147424733Y-122654961D01*
X147519971Y-122702580D01*
X147710447Y-122702580D01*
X147805685Y-122654961D01*
X147853304Y-122607342D01*
X147900923Y-122512104D01*
X147900923Y-122321628D01*
X147853304Y-122226390D01*
X147805685Y-122178771D01*
X147710447Y-122131152D01*
X141706980Y-100953866D02*
X142183171Y-100953866D01*
X141611742Y-101239580D02*
X141945076Y-100239580D01*
X142278409Y-101239580D01*
X142611742Y-101239580D02*
X142611742Y-100239580D01*
X142849838Y-100239580D01*
X142992695Y-100287200D01*
X143087933Y-100382438D01*
X143135552Y-100477676D01*
X143183171Y-100668152D01*
X143183171Y-100811009D01*
X143135552Y-101001485D01*
X143087933Y-101096723D01*
X142992695Y-101191961D01*
X142849838Y-101239580D01*
X142611742Y-101239580D01*
X143516504Y-100239580D02*
X144183171Y-101239580D01*
X144183171Y-100239580D02*
X143516504Y-101239580D01*
X145040314Y-101239580D02*
X144564123Y-101239580D01*
X144564123Y-100239580D01*
X145278409Y-100239580D02*
X145897457Y-100239580D01*
X145564123Y-100620533D01*
X145706980Y-100620533D01*
X145802219Y-100668152D01*
X145849838Y-100715771D01*
X145897457Y-100811009D01*
X145897457Y-101049104D01*
X145849838Y-101144342D01*
X145802219Y-101191961D01*
X145706980Y-101239580D01*
X145421266Y-101239580D01*
X145326028Y-101191961D01*
X145278409Y-101144342D01*
X146230790Y-100239580D02*
X146897457Y-100239580D01*
X146468885Y-101239580D01*
X147183171Y-100239580D02*
X147849838Y-100239580D01*
X147421266Y-101239580D01*
X130197266Y-104963980D02*
X130863933Y-105963980D01*
X130863933Y-104963980D02*
X130197266Y-105963980D01*
X133070600Y-105513190D02*
X133070600Y-105989380D01*
X132737266Y-104989380D02*
X133070600Y-105513190D01*
X133403933Y-104989380D01*
X135277266Y-104989380D02*
X135943933Y-104989380D01*
X135277266Y-105989380D01*
X135943933Y-105989380D01*
X137890285Y-104989380D02*
X138461714Y-104989380D01*
X138176000Y-105989380D02*
X138176000Y-104989380D01*
X139903295Y-105011600D02*
X139808057Y-104963980D01*
X139665200Y-104963980D01*
X139522342Y-105011600D01*
X139427104Y-105106838D01*
X139379485Y-105202076D01*
X139331866Y-105392552D01*
X139331866Y-105535409D01*
X139379485Y-105725885D01*
X139427104Y-105821123D01*
X139522342Y-105916361D01*
X139665200Y-105963980D01*
X139760438Y-105963980D01*
X139903295Y-105916361D01*
X139950914Y-105868742D01*
X139950914Y-105535409D01*
X139760438Y-105535409D01*
X140379485Y-105963980D02*
X140379485Y-104963980D01*
X140950914Y-105963980D01*
X140950914Y-104963980D01*
X141427104Y-105963980D02*
X141427104Y-104963980D01*
X141665200Y-104963980D01*
X141808057Y-105011600D01*
X141903295Y-105106838D01*
X141950914Y-105202076D01*
X141998533Y-105392552D01*
X141998533Y-105535409D01*
X141950914Y-105725885D01*
X141903295Y-105821123D01*
X141808057Y-105916361D01*
X141665200Y-105963980D01*
X141427104Y-105963980D01*
X142697295Y-104963980D02*
X143316342Y-104963980D01*
X142983009Y-105344933D01*
X143125866Y-105344933D01*
X143221104Y-105392552D01*
X143268723Y-105440171D01*
X143316342Y-105535409D01*
X143316342Y-105773504D01*
X143268723Y-105868742D01*
X143221104Y-105916361D01*
X143125866Y-105963980D01*
X142840152Y-105963980D01*
X142744914Y-105916361D01*
X142697295Y-105868742D01*
X143602057Y-104963980D02*
X143935390Y-105963980D01*
X144268723Y-104963980D01*
X145102390Y-104989380D02*
X145435723Y-105989380D01*
X145769057Y-104989380D01*
X146102390Y-105989380D02*
X146102390Y-105322714D01*
X146102390Y-104989380D02*
X146054771Y-105037000D01*
X146102390Y-105084619D01*
X146150009Y-105037000D01*
X146102390Y-104989380D01*
X146102390Y-105084619D01*
X146578580Y-105322714D02*
X146578580Y-105989380D01*
X146578580Y-105417952D02*
X146626200Y-105370333D01*
X146721438Y-105322714D01*
X146864295Y-105322714D01*
X146959533Y-105370333D01*
X147007152Y-105465571D01*
X147007152Y-105989380D01*
X96926495Y-119238780D02*
X96926495Y-120048304D01*
X96974114Y-120143542D01*
X97021733Y-120191161D01*
X97116971Y-120238780D01*
X97307447Y-120238780D01*
X97402685Y-120191161D01*
X97450304Y-120143542D01*
X97497923Y-120048304D01*
X97497923Y-119238780D01*
X98402685Y-119238780D02*
X98212209Y-119238780D01*
X98116971Y-119286400D01*
X98069352Y-119334019D01*
X97974114Y-119476876D01*
X97926495Y-119667352D01*
X97926495Y-120048304D01*
X97974114Y-120143542D01*
X98021733Y-120191161D01*
X98116971Y-120238780D01*
X98307447Y-120238780D01*
X98402685Y-120191161D01*
X98450304Y-120143542D01*
X98497923Y-120048304D01*
X98497923Y-119810209D01*
X98450304Y-119714971D01*
X98402685Y-119667352D01*
X98307447Y-119619733D01*
X98116971Y-119619733D01*
X98021733Y-119667352D01*
X97974114Y-119714971D01*
X97926495Y-119810209D01*
X96031990Y-101903161D02*
X96174847Y-101950780D01*
X96412942Y-101950780D01*
X96508180Y-101903161D01*
X96555800Y-101855542D01*
X96603419Y-101760304D01*
X96603419Y-101665066D01*
X96555800Y-101569828D01*
X96508180Y-101522209D01*
X96412942Y-101474590D01*
X96222466Y-101426971D01*
X96127228Y-101379352D01*
X96079609Y-101331733D01*
X96031990Y-101236495D01*
X96031990Y-101141257D01*
X96079609Y-101046019D01*
X96127228Y-100998400D01*
X96222466Y-100950780D01*
X96460561Y-100950780D01*
X96603419Y-100998400D01*
X97365323Y-101426971D02*
X97031990Y-101426971D01*
X97031990Y-101950780D02*
X97031990Y-100950780D01*
X97508180Y-100950780D01*
X97651038Y-102046019D02*
X98412942Y-102046019D01*
X99127228Y-101950780D02*
X98651038Y-101950780D01*
X98651038Y-100950780D01*
X99603419Y-101950780D02*
X99508180Y-101903161D01*
X99460561Y-101855542D01*
X99412942Y-101760304D01*
X99412942Y-101474590D01*
X99460561Y-101379352D01*
X99508180Y-101331733D01*
X99603419Y-101284114D01*
X99746276Y-101284114D01*
X99841514Y-101331733D01*
X99889133Y-101379352D01*
X99936752Y-101474590D01*
X99936752Y-101760304D01*
X99889133Y-101855542D01*
X99841514Y-101903161D01*
X99746276Y-101950780D01*
X99603419Y-101950780D01*
X100793895Y-101284114D02*
X100793895Y-102093638D01*
X100746276Y-102188876D01*
X100698657Y-102236495D01*
X100603419Y-102284114D01*
X100460561Y-102284114D01*
X100365323Y-102236495D01*
X100793895Y-101903161D02*
X100698657Y-101950780D01*
X100508180Y-101950780D01*
X100412942Y-101903161D01*
X100365323Y-101855542D01*
X100317704Y-101760304D01*
X100317704Y-101474590D01*
X100365323Y-101379352D01*
X100412942Y-101331733D01*
X100508180Y-101284114D01*
X100698657Y-101284114D01*
X100793895Y-101331733D01*
X101270085Y-101950780D02*
X101270085Y-101284114D01*
X101270085Y-100950780D02*
X101222466Y-100998400D01*
X101270085Y-101046019D01*
X101317704Y-100998400D01*
X101270085Y-100950780D01*
X101270085Y-101046019D01*
X102174847Y-101903161D02*
X102079609Y-101950780D01*
X101889133Y-101950780D01*
X101793895Y-101903161D01*
X101746276Y-101855542D01*
X101698657Y-101760304D01*
X101698657Y-101474590D01*
X101746276Y-101379352D01*
X101793895Y-101331733D01*
X101889133Y-101284114D01*
X102079609Y-101284114D01*
X102174847Y-101331733D01*
X102365323Y-102046019D02*
X103127228Y-102046019D01*
X103841514Y-101950780D02*
X103365323Y-101950780D01*
X103365323Y-100950780D01*
X104555800Y-101903161D02*
X104460561Y-101950780D01*
X104270085Y-101950780D01*
X104174847Y-101903161D01*
X104127228Y-101807923D01*
X104127228Y-101426971D01*
X104174847Y-101331733D01*
X104270085Y-101284114D01*
X104460561Y-101284114D01*
X104555800Y-101331733D01*
X104603419Y-101426971D01*
X104603419Y-101522209D01*
X104127228Y-101617447D01*
X104936752Y-101284114D02*
X105174847Y-101950780D01*
X105412942Y-101284114D01*
X106174847Y-101903161D02*
X106079609Y-101950780D01*
X105889133Y-101950780D01*
X105793895Y-101903161D01*
X105746276Y-101807923D01*
X105746276Y-101426971D01*
X105793895Y-101331733D01*
X105889133Y-101284114D01*
X106079609Y-101284114D01*
X106174847Y-101331733D01*
X106222466Y-101426971D01*
X106222466Y-101522209D01*
X105746276Y-101617447D01*
X106793895Y-101950780D02*
X106698657Y-101903161D01*
X106651038Y-101807923D01*
X106651038Y-100950780D01*
X106936752Y-102046019D02*
X107698657Y-102046019D01*
X108508180Y-101855542D02*
X108460561Y-101903161D01*
X108317704Y-101950780D01*
X108222466Y-101950780D01*
X108079609Y-101903161D01*
X107984371Y-101807923D01*
X107936752Y-101712685D01*
X107889133Y-101522209D01*
X107889133Y-101379352D01*
X107936752Y-101188876D01*
X107984371Y-101093638D01*
X108079609Y-100998400D01*
X108222466Y-100950780D01*
X108317704Y-100950780D01*
X108460561Y-100998400D01*
X108508180Y-101046019D01*
X109079609Y-101950780D02*
X108984371Y-101903161D01*
X108936752Y-101855542D01*
X108889133Y-101760304D01*
X108889133Y-101474590D01*
X108936752Y-101379352D01*
X108984371Y-101331733D01*
X109079609Y-101284114D01*
X109222466Y-101284114D01*
X109317704Y-101331733D01*
X109365323Y-101379352D01*
X109412942Y-101474590D01*
X109412942Y-101760304D01*
X109365323Y-101855542D01*
X109317704Y-101903161D01*
X109222466Y-101950780D01*
X109079609Y-101950780D01*
X109841514Y-101284114D02*
X109841514Y-101950780D01*
X109841514Y-101379352D02*
X109889133Y-101331733D01*
X109984371Y-101284114D01*
X110127228Y-101284114D01*
X110222466Y-101331733D01*
X110270085Y-101426971D01*
X110270085Y-101950780D01*
X110651038Y-101284114D02*
X110889133Y-101950780D01*
X111127228Y-101284114D01*
X100369761Y-117520980D02*
X99893571Y-117520980D01*
X99893571Y-116520980D01*
X100560238Y-116520980D02*
X100893571Y-117520980D01*
X101226904Y-116520980D01*
X101988809Y-116854314D02*
X101988809Y-117520980D01*
X101750714Y-116473361D02*
X101512619Y-117187647D01*
X102131666Y-117187647D01*
X100369761Y-114980980D02*
X99893571Y-114980980D01*
X99893571Y-113980980D01*
X100560238Y-113980980D02*
X100893571Y-114980980D01*
X101226904Y-113980980D01*
X101465000Y-113980980D02*
X102084047Y-113980980D01*
X101750714Y-114361933D01*
X101893571Y-114361933D01*
X101988809Y-114409552D01*
X102036428Y-114457171D01*
X102084047Y-114552409D01*
X102084047Y-114790504D01*
X102036428Y-114885742D01*
X101988809Y-114933361D01*
X101893571Y-114980980D01*
X101607857Y-114980980D01*
X101512619Y-114933361D01*
X101465000Y-114885742D01*
X100482495Y-111488600D02*
X100387257Y-111440980D01*
X100244400Y-111440980D01*
X100101542Y-111488600D01*
X100006304Y-111583838D01*
X99958685Y-111679076D01*
X99911066Y-111869552D01*
X99911066Y-112012409D01*
X99958685Y-112202885D01*
X100006304Y-112298123D01*
X100101542Y-112393361D01*
X100244400Y-112440980D01*
X100339638Y-112440980D01*
X100482495Y-112393361D01*
X100530114Y-112345742D01*
X100530114Y-112012409D01*
X100339638Y-112012409D01*
X100958685Y-112440980D02*
X100958685Y-111440980D01*
X101530114Y-112440980D01*
X101530114Y-111440980D01*
X102006304Y-112440980D02*
X102006304Y-111440980D01*
X102244400Y-111440980D01*
X102387257Y-111488600D01*
X102482495Y-111583838D01*
X102530114Y-111679076D01*
X102577733Y-111869552D01*
X102577733Y-112012409D01*
X102530114Y-112202885D01*
X102482495Y-112298123D01*
X102387257Y-112393361D01*
X102244400Y-112440980D01*
X102006304Y-112440980D01*
X100388752Y-109900980D02*
X99912561Y-109900980D01*
X99912561Y-108900980D01*
X100579228Y-108900980D02*
X100912561Y-109900980D01*
X101245895Y-108900980D01*
X100369761Y-107360980D02*
X99893571Y-107360980D01*
X99893571Y-106360980D01*
X100560238Y-106360980D02*
X100893571Y-107360980D01*
X101226904Y-106360980D01*
X101512619Y-106456219D02*
X101560238Y-106408600D01*
X101655476Y-106360980D01*
X101893571Y-106360980D01*
X101988809Y-106408600D01*
X102036428Y-106456219D01*
X102084047Y-106551457D01*
X102084047Y-106646695D01*
X102036428Y-106789552D01*
X101465000Y-107360980D01*
X102084047Y-107360980D01*
X100344361Y-104795580D02*
X99868171Y-104795580D01*
X99868171Y-103795580D01*
X100534838Y-103795580D02*
X100868171Y-104795580D01*
X101201504Y-103795580D01*
X102058647Y-104795580D02*
X101487219Y-104795580D01*
X101772933Y-104795580D02*
X101772933Y-103795580D01*
X101677695Y-103938438D01*
X101582457Y-104033676D01*
X101487219Y-104081295D01*
X104905323Y-117571780D02*
X104905323Y-116571780D01*
X104905323Y-117047971D02*
X105476752Y-117047971D01*
X105476752Y-117571780D02*
X105476752Y-116571780D01*
X105810085Y-116571780D02*
X106143419Y-117571780D01*
X106476752Y-116571780D01*
X107238657Y-116905114D02*
X107238657Y-117571780D01*
X107000561Y-116524161D02*
X106762466Y-117238447D01*
X107381514Y-117238447D01*
X104879923Y-115133380D02*
X104879923Y-114133380D01*
X104879923Y-114609571D02*
X105451352Y-114609571D01*
X105451352Y-115133380D02*
X105451352Y-114133380D01*
X105784685Y-114133380D02*
X106118019Y-115133380D01*
X106451352Y-114133380D01*
X106689447Y-114133380D02*
X107308495Y-114133380D01*
X106975161Y-114514333D01*
X107118019Y-114514333D01*
X107213257Y-114561952D01*
X107260876Y-114609571D01*
X107308495Y-114704809D01*
X107308495Y-114942904D01*
X107260876Y-115038142D01*
X107213257Y-115085761D01*
X107118019Y-115133380D01*
X106832304Y-115133380D01*
X106737066Y-115085761D01*
X106689447Y-115038142D01*
X105206895Y-111564800D02*
X105111657Y-111517180D01*
X104968800Y-111517180D01*
X104825942Y-111564800D01*
X104730704Y-111660038D01*
X104683085Y-111755276D01*
X104635466Y-111945752D01*
X104635466Y-112088609D01*
X104683085Y-112279085D01*
X104730704Y-112374323D01*
X104825942Y-112469561D01*
X104968800Y-112517180D01*
X105064038Y-112517180D01*
X105206895Y-112469561D01*
X105254514Y-112421942D01*
X105254514Y-112088609D01*
X105064038Y-112088609D01*
X105683085Y-112517180D02*
X105683085Y-111517180D01*
X106254514Y-112517180D01*
X106254514Y-111517180D01*
X106730704Y-112517180D02*
X106730704Y-111517180D01*
X106968800Y-111517180D01*
X107111657Y-111564800D01*
X107206895Y-111660038D01*
X107254514Y-111755276D01*
X107302133Y-111945752D01*
X107302133Y-112088609D01*
X107254514Y-112279085D01*
X107206895Y-112374323D01*
X107111657Y-112469561D01*
X106968800Y-112517180D01*
X106730704Y-112517180D01*
X104924314Y-110002580D02*
X104924314Y-109002580D01*
X104924314Y-109478771D02*
X105495742Y-109478771D01*
X105495742Y-110002580D02*
X105495742Y-109002580D01*
X105829076Y-109002580D02*
X106162409Y-110002580D01*
X106495742Y-109002580D01*
X104905323Y-107411780D02*
X104905323Y-106411780D01*
X104905323Y-106887971D02*
X105476752Y-106887971D01*
X105476752Y-107411780D02*
X105476752Y-106411780D01*
X105810085Y-106411780D02*
X106143419Y-107411780D01*
X106476752Y-106411780D01*
X106762466Y-106507019D02*
X106810085Y-106459400D01*
X106905323Y-106411780D01*
X107143419Y-106411780D01*
X107238657Y-106459400D01*
X107286276Y-106507019D01*
X107333895Y-106602257D01*
X107333895Y-106697495D01*
X107286276Y-106840352D01*
X106714847Y-107411780D01*
X107333895Y-107411780D01*
X104879923Y-104871780D02*
X104879923Y-103871780D01*
X104879923Y-104347971D02*
X105451352Y-104347971D01*
X105451352Y-104871780D02*
X105451352Y-103871780D01*
X105784685Y-103871780D02*
X106118019Y-104871780D01*
X106451352Y-103871780D01*
X107308495Y-104871780D02*
X106737066Y-104871780D01*
X107022780Y-104871780D02*
X107022780Y-103871780D01*
X106927542Y-104014638D01*
X106832304Y-104109876D01*
X106737066Y-104157495D01*
X193062380Y-121751904D02*
X193871904Y-121751904D01*
X193967142Y-121704285D01*
X194014761Y-121656666D01*
X194062380Y-121561428D01*
X194062380Y-121370952D01*
X194014761Y-121275714D01*
X193967142Y-121228095D01*
X193871904Y-121180476D01*
X193062380Y-121180476D01*
X193062380Y-120228095D02*
X193062380Y-120704285D01*
X193538571Y-120751904D01*
X193490952Y-120704285D01*
X193443333Y-120609047D01*
X193443333Y-120370952D01*
X193490952Y-120275714D01*
X193538571Y-120228095D01*
X193633809Y-120180476D01*
X193871904Y-120180476D01*
X193967142Y-120228095D01*
X194014761Y-120275714D01*
X194062380Y-120370952D01*
X194062380Y-120609047D01*
X194014761Y-120704285D01*
X193967142Y-120751904D01*
X199253380Y-116965857D02*
X199253380Y-117442047D01*
X198253380Y-117442047D01*
X199253380Y-116632523D02*
X198253380Y-116632523D01*
X198967666Y-116299190D01*
X198253380Y-115965857D01*
X199253380Y-115965857D01*
X198348619Y-115537285D02*
X198301000Y-115489666D01*
X198253380Y-115394428D01*
X198253380Y-115156333D01*
X198301000Y-115061095D01*
X198348619Y-115013476D01*
X198443857Y-114965857D01*
X198539095Y-114965857D01*
X198681952Y-115013476D01*
X199253380Y-115584904D01*
X199253380Y-114965857D01*
X198253380Y-114061095D02*
X198253380Y-114537285D01*
X198729571Y-114584904D01*
X198681952Y-114537285D01*
X198634333Y-114442047D01*
X198634333Y-114203952D01*
X198681952Y-114108714D01*
X198729571Y-114061095D01*
X198824809Y-114013476D01*
X199062904Y-114013476D01*
X199158142Y-114061095D01*
X199205761Y-114108714D01*
X199253380Y-114203952D01*
X199253380Y-114442047D01*
X199205761Y-114537285D01*
X199158142Y-114584904D01*
X198253380Y-113680142D02*
X198253380Y-113013476D01*
X199253380Y-113442047D01*
X198253380Y-112203952D02*
X198253380Y-112394428D01*
X198301000Y-112489666D01*
X198348619Y-112537285D01*
X198491476Y-112632523D01*
X198681952Y-112680142D01*
X199062904Y-112680142D01*
X199158142Y-112632523D01*
X199205761Y-112584904D01*
X199253380Y-112489666D01*
X199253380Y-112299190D01*
X199205761Y-112203952D01*
X199158142Y-112156333D01*
X199062904Y-112108714D01*
X198824809Y-112108714D01*
X198729571Y-112156333D01*
X198681952Y-112203952D01*
X198634333Y-112299190D01*
X198634333Y-112489666D01*
X198681952Y-112584904D01*
X198729571Y-112632523D01*
X198824809Y-112680142D01*
X198253380Y-111823000D02*
X198253380Y-111251571D01*
X199253380Y-111537285D02*
X198253380Y-111537285D01*
X198872428Y-110918238D02*
X198872428Y-110156333D01*
X198253380Y-109203952D02*
X198253380Y-109680142D01*
X198729571Y-109727761D01*
X198681952Y-109680142D01*
X198634333Y-109584904D01*
X198634333Y-109346809D01*
X198681952Y-109251571D01*
X198729571Y-109203952D01*
X198824809Y-109156333D01*
X199062904Y-109156333D01*
X199158142Y-109203952D01*
X199205761Y-109251571D01*
X199253380Y-109346809D01*
X199253380Y-109584904D01*
X199205761Y-109680142D01*
X199158142Y-109727761D01*
X167055895Y-128128780D02*
X167055895Y-128938304D01*
X167103514Y-129033542D01*
X167151133Y-129081161D01*
X167246371Y-129128780D01*
X167436847Y-129128780D01*
X167532085Y-129081161D01*
X167579704Y-129033542D01*
X167627323Y-128938304D01*
X167627323Y-128128780D01*
X168008276Y-128128780D02*
X168627323Y-128128780D01*
X168293990Y-128509733D01*
X168436847Y-128509733D01*
X168532085Y-128557352D01*
X168579704Y-128604971D01*
X168627323Y-128700209D01*
X168627323Y-128938304D01*
X168579704Y-129033542D01*
X168532085Y-129081161D01*
X168436847Y-129128780D01*
X168151133Y-129128780D01*
X168055895Y-129081161D01*
X168008276Y-129033542D01*
X150398600Y-108630980D02*
X150398600Y-107630980D01*
X150636695Y-107630980D01*
X150779552Y-107678600D01*
X150874790Y-107773838D01*
X150922409Y-107869076D01*
X150970028Y-108059552D01*
X150970028Y-108202409D01*
X150922409Y-108392885D01*
X150874790Y-108488123D01*
X150779552Y-108583361D01*
X150636695Y-108630980D01*
X150398600Y-108630980D01*
X151350980Y-107726219D02*
X151398600Y-107678600D01*
X151493838Y-107630980D01*
X151731933Y-107630980D01*
X151827171Y-107678600D01*
X151874790Y-107726219D01*
X151922409Y-107821457D01*
X151922409Y-107916695D01*
X151874790Y-108059552D01*
X151303361Y-108630980D01*
X151922409Y-108630980D01*
X152779552Y-107964314D02*
X152779552Y-108630980D01*
X152541457Y-107583361D02*
X152303361Y-108297647D01*
X152922409Y-108297647D01*
X153160504Y-107630980D02*
X153493838Y-108630980D01*
X153827171Y-107630980D01*
X154112885Y-107726219D02*
X154160504Y-107678600D01*
X154255742Y-107630980D01*
X154493838Y-107630980D01*
X154589076Y-107678600D01*
X154636695Y-107726219D01*
X154684314Y-107821457D01*
X154684314Y-107916695D01*
X154636695Y-108059552D01*
X154065266Y-108630980D01*
X154684314Y-108630980D01*
X155589076Y-107630980D02*
X155112885Y-107630980D01*
X155065266Y-108107171D01*
X155112885Y-108059552D01*
X155208123Y-108011933D01*
X155446219Y-108011933D01*
X155541457Y-108059552D01*
X155589076Y-108107171D01*
X155636695Y-108202409D01*
X155636695Y-108440504D01*
X155589076Y-108535742D01*
X155541457Y-108583361D01*
X155446219Y-108630980D01*
X155208123Y-108630980D01*
X155112885Y-108583361D01*
X155065266Y-108535742D01*
X156398600Y-108107171D02*
X156065266Y-108107171D01*
X156065266Y-108630980D02*
X156065266Y-107630980D01*
X156541457Y-107630980D01*
X156970028Y-108630980D02*
X157160504Y-108630980D01*
X157255742Y-108583361D01*
X157303361Y-108535742D01*
X157398600Y-108392885D01*
X157446219Y-108202409D01*
X157446219Y-107821457D01*
X157398600Y-107726219D01*
X157350980Y-107678600D01*
X157255742Y-107630980D01*
X157065266Y-107630980D01*
X156970028Y-107678600D01*
X156922409Y-107726219D01*
X156874790Y-107821457D01*
X156874790Y-108059552D01*
X156922409Y-108154790D01*
X156970028Y-108202409D01*
X157065266Y-108250028D01*
X157255742Y-108250028D01*
X157350980Y-108202409D01*
X157398600Y-108154790D01*
X157446219Y-108059552D01*
X165771580Y-125002704D02*
X166771580Y-124669371D01*
X165771580Y-124336038D01*
X165771580Y-123812228D02*
X165771580Y-123621752D01*
X165819200Y-123526514D01*
X165914438Y-123431276D01*
X166104914Y-123383657D01*
X166438247Y-123383657D01*
X166628723Y-123431276D01*
X166723961Y-123526514D01*
X166771580Y-123621752D01*
X166771580Y-123812228D01*
X166723961Y-123907466D01*
X166628723Y-124002704D01*
X166438247Y-124050323D01*
X166104914Y-124050323D01*
X165914438Y-124002704D01*
X165819200Y-123907466D01*
X165771580Y-123812228D01*
X165771580Y-122955085D02*
X166581104Y-122955085D01*
X166676342Y-122907466D01*
X166723961Y-122859847D01*
X166771580Y-122764609D01*
X166771580Y-122574133D01*
X166723961Y-122478895D01*
X166676342Y-122431276D01*
X166581104Y-122383657D01*
X165771580Y-122383657D01*
X165771580Y-122050323D02*
X165771580Y-121478895D01*
X166771580Y-121764609D02*
X165771580Y-121764609D01*
X163304600Y-124332904D02*
X163256980Y-124428142D01*
X163256980Y-124571000D01*
X163304600Y-124713857D01*
X163399838Y-124809095D01*
X163495076Y-124856714D01*
X163685552Y-124904333D01*
X163828409Y-124904333D01*
X164018885Y-124856714D01*
X164114123Y-124809095D01*
X164209361Y-124713857D01*
X164256980Y-124571000D01*
X164256980Y-124475761D01*
X164209361Y-124332904D01*
X164161742Y-124285285D01*
X163828409Y-124285285D01*
X163828409Y-124475761D01*
X164256980Y-123856714D02*
X163256980Y-123856714D01*
X164256980Y-123285285D01*
X163256980Y-123285285D01*
X164256980Y-122809095D02*
X163256980Y-122809095D01*
X163256980Y-122571000D01*
X163304600Y-122428142D01*
X163399838Y-122332904D01*
X163495076Y-122285285D01*
X163685552Y-122237666D01*
X163828409Y-122237666D01*
X164018885Y-122285285D01*
X164114123Y-122332904D01*
X164209361Y-122428142D01*
X164256980Y-122571000D01*
X164256980Y-122809095D01*
X160790000Y-124358304D02*
X160742380Y-124453542D01*
X160742380Y-124596400D01*
X160790000Y-124739257D01*
X160885238Y-124834495D01*
X160980476Y-124882114D01*
X161170952Y-124929733D01*
X161313809Y-124929733D01*
X161504285Y-124882114D01*
X161599523Y-124834495D01*
X161694761Y-124739257D01*
X161742380Y-124596400D01*
X161742380Y-124501161D01*
X161694761Y-124358304D01*
X161647142Y-124310685D01*
X161313809Y-124310685D01*
X161313809Y-124501161D01*
X161742380Y-123882114D02*
X160742380Y-123882114D01*
X161742380Y-123310685D01*
X160742380Y-123310685D01*
X161742380Y-122834495D02*
X160742380Y-122834495D01*
X160742380Y-122596400D01*
X160790000Y-122453542D01*
X160885238Y-122358304D01*
X160980476Y-122310685D01*
X161170952Y-122263066D01*
X161313809Y-122263066D01*
X161504285Y-122310685D01*
X161599523Y-122358304D01*
X161694761Y-122453542D01*
X161742380Y-122596400D01*
X161742380Y-122834495D01*
X158176980Y-125072638D02*
X159176980Y-124739304D01*
X158176980Y-124405971D01*
X159176980Y-124072638D02*
X158176980Y-124072638D01*
X159176980Y-123596447D02*
X158176980Y-123596447D01*
X159176980Y-123025019D01*
X158176980Y-123025019D01*
X156113171Y-124918695D02*
X156113171Y-124585361D01*
X156636980Y-124442504D02*
X156636980Y-124918695D01*
X155636980Y-124918695D01*
X155636980Y-124442504D01*
X156636980Y-124013933D02*
X155636980Y-124013933D01*
X156636980Y-123442504D01*
X155636980Y-123442504D01*
X192222380Y-68458095D02*
X191222380Y-68458095D01*
X191222380Y-68077142D01*
X191270000Y-67981904D01*
X191317619Y-67934285D01*
X191412857Y-67886666D01*
X191555714Y-67886666D01*
X191650952Y-67934285D01*
X191698571Y-67981904D01*
X191746190Y-68077142D01*
X191746190Y-68458095D01*
X192222380Y-66934285D02*
X192222380Y-67505714D01*
X192222380Y-67220000D02*
X191222380Y-67220000D01*
X191365238Y-67315238D01*
X191460476Y-67410476D01*
X191508095Y-67505714D01*
X192192380Y-73860476D02*
X191192380Y-73860476D01*
X191192380Y-73622380D01*
X191240000Y-73479523D01*
X191335238Y-73384285D01*
X191430476Y-73336666D01*
X191620952Y-73289047D01*
X191763809Y-73289047D01*
X191954285Y-73336666D01*
X192049523Y-73384285D01*
X192144761Y-73479523D01*
X192192380Y-73622380D01*
X192192380Y-73860476D01*
X192192380Y-72860476D02*
X191525714Y-72860476D01*
X191192380Y-72860476D02*
X191240000Y-72908095D01*
X191287619Y-72860476D01*
X191240000Y-72812857D01*
X191192380Y-72860476D01*
X191287619Y-72860476D01*
X191525714Y-71955714D02*
X192335238Y-71955714D01*
X192430476Y-72003333D01*
X192478095Y-72050952D01*
X192525714Y-72146190D01*
X192525714Y-72289047D01*
X192478095Y-72384285D01*
X192144761Y-71955714D02*
X192192380Y-72050952D01*
X192192380Y-72241428D01*
X192144761Y-72336666D01*
X192097142Y-72384285D01*
X192001904Y-72431904D01*
X191716190Y-72431904D01*
X191620952Y-72384285D01*
X191573333Y-72336666D01*
X191525714Y-72241428D01*
X191525714Y-72050952D01*
X191573333Y-71955714D01*
X192192380Y-71479523D02*
X191525714Y-71479523D01*
X191192380Y-71479523D02*
X191240000Y-71527142D01*
X191287619Y-71479523D01*
X191240000Y-71431904D01*
X191192380Y-71479523D01*
X191287619Y-71479523D01*
X191525714Y-71146190D02*
X191525714Y-70765238D01*
X191192380Y-71003333D02*
X192049523Y-71003333D01*
X192144761Y-70955714D01*
X192192380Y-70860476D01*
X192192380Y-70765238D01*
X192192380Y-70003333D02*
X191668571Y-70003333D01*
X191573333Y-70050952D01*
X191525714Y-70146190D01*
X191525714Y-70336666D01*
X191573333Y-70431904D01*
X192144761Y-70003333D02*
X192192380Y-70098571D01*
X192192380Y-70336666D01*
X192144761Y-70431904D01*
X192049523Y-70479523D01*
X191954285Y-70479523D01*
X191859047Y-70431904D01*
X191811428Y-70336666D01*
X191811428Y-70098571D01*
X191763809Y-70003333D01*
X192192380Y-69384285D02*
X192144761Y-69479523D01*
X192049523Y-69527142D01*
X191192380Y-69527142D01*
X127684304Y-94813380D02*
X127684304Y-93813380D01*
X128065257Y-93813380D01*
X128160495Y-93861000D01*
X128208114Y-93908619D01*
X128255733Y-94003857D01*
X128255733Y-94146714D01*
X128208114Y-94241952D01*
X128160495Y-94289571D01*
X128065257Y-94337190D01*
X127684304Y-94337190D01*
X128636685Y-93908619D02*
X128684304Y-93861000D01*
X128779542Y-93813380D01*
X129017638Y-93813380D01*
X129112876Y-93861000D01*
X129160495Y-93908619D01*
X129208114Y-94003857D01*
X129208114Y-94099095D01*
X129160495Y-94241952D01*
X128589066Y-94813380D01*
X129208114Y-94813380D01*
X126446209Y-93289380D02*
X126446209Y-92289380D01*
X126827161Y-92289380D01*
X126922400Y-92337000D01*
X126970019Y-92384619D01*
X127017638Y-92479857D01*
X127017638Y-92622714D01*
X126970019Y-92717952D01*
X126922400Y-92765571D01*
X126827161Y-92813190D01*
X126446209Y-92813190D01*
X127589066Y-93289380D02*
X127493828Y-93241761D01*
X127446209Y-93194142D01*
X127398590Y-93098904D01*
X127398590Y-92813190D01*
X127446209Y-92717952D01*
X127493828Y-92670333D01*
X127589066Y-92622714D01*
X127731923Y-92622714D01*
X127827161Y-92670333D01*
X127874780Y-92717952D01*
X127922400Y-92813190D01*
X127922400Y-93098904D01*
X127874780Y-93194142D01*
X127827161Y-93241761D01*
X127731923Y-93289380D01*
X127589066Y-93289380D01*
X128255733Y-92622714D02*
X128446209Y-93289380D01*
X128636685Y-92813190D01*
X128827161Y-93289380D01*
X129017638Y-92622714D01*
X129779542Y-93241761D02*
X129684304Y-93289380D01*
X129493828Y-93289380D01*
X129398590Y-93241761D01*
X129350971Y-93146523D01*
X129350971Y-92765571D01*
X129398590Y-92670333D01*
X129493828Y-92622714D01*
X129684304Y-92622714D01*
X129779542Y-92670333D01*
X129827161Y-92765571D01*
X129827161Y-92860809D01*
X129350971Y-92956047D01*
X130255733Y-93289380D02*
X130255733Y-92622714D01*
X130255733Y-92813190D02*
X130303352Y-92717952D01*
X130350971Y-92670333D01*
X130446209Y-92622714D01*
X130541447Y-92622714D01*
X150544304Y-95067380D02*
X150544304Y-94067380D01*
X150925257Y-94067380D01*
X151020495Y-94115000D01*
X151068114Y-94162619D01*
X151115733Y-94257857D01*
X151115733Y-94400714D01*
X151068114Y-94495952D01*
X151020495Y-94543571D01*
X150925257Y-94591190D01*
X150544304Y-94591190D01*
X151449066Y-94067380D02*
X152068114Y-94067380D01*
X151734780Y-94448333D01*
X151877638Y-94448333D01*
X151972876Y-94495952D01*
X152020495Y-94543571D01*
X152068114Y-94638809D01*
X152068114Y-94876904D01*
X152020495Y-94972142D01*
X151972876Y-95019761D01*
X151877638Y-95067380D01*
X151591923Y-95067380D01*
X151496685Y-95019761D01*
X151449066Y-94972142D01*
X148972876Y-93003666D02*
X149449066Y-93003666D01*
X148877638Y-93289380D02*
X149210971Y-92289380D01*
X149544304Y-93289380D01*
X149877638Y-92622714D02*
X149877638Y-93289380D01*
X149877638Y-92717952D02*
X149925257Y-92670333D01*
X150020495Y-92622714D01*
X150163352Y-92622714D01*
X150258590Y-92670333D01*
X150306209Y-92765571D01*
X150306209Y-93289380D01*
X151210971Y-93289380D02*
X151210971Y-92765571D01*
X151163352Y-92670333D01*
X151068114Y-92622714D01*
X150877638Y-92622714D01*
X150782400Y-92670333D01*
X151210971Y-93241761D02*
X151115733Y-93289380D01*
X150877638Y-93289380D01*
X150782400Y-93241761D01*
X150734780Y-93146523D01*
X150734780Y-93051285D01*
X150782400Y-92956047D01*
X150877638Y-92908428D01*
X151115733Y-92908428D01*
X151210971Y-92860809D01*
X151830019Y-93289380D02*
X151734780Y-93241761D01*
X151687161Y-93146523D01*
X151687161Y-92289380D01*
X152353828Y-93289380D02*
X152258590Y-93241761D01*
X152210971Y-93194142D01*
X152163352Y-93098904D01*
X152163352Y-92813190D01*
X152210971Y-92717952D01*
X152258590Y-92670333D01*
X152353828Y-92622714D01*
X152496685Y-92622714D01*
X152591923Y-92670333D01*
X152639542Y-92717952D01*
X152687161Y-92813190D01*
X152687161Y-93098904D01*
X152639542Y-93194142D01*
X152591923Y-93241761D01*
X152496685Y-93289380D01*
X152353828Y-93289380D01*
X153544304Y-92622714D02*
X153544304Y-93432238D01*
X153496685Y-93527476D01*
X153449066Y-93575095D01*
X153353828Y-93622714D01*
X153210971Y-93622714D01*
X153115733Y-93575095D01*
X153544304Y-93241761D02*
X153449066Y-93289380D01*
X153258590Y-93289380D01*
X153163352Y-93241761D01*
X153115733Y-93194142D01*
X153068114Y-93098904D01*
X153068114Y-92813190D01*
X153115733Y-92717952D01*
X153163352Y-92670333D01*
X153258590Y-92622714D01*
X153449066Y-92622714D01*
X153544304Y-92670333D01*
X173404304Y-94813380D02*
X173404304Y-93813380D01*
X173785257Y-93813380D01*
X173880495Y-93861000D01*
X173928114Y-93908619D01*
X173975733Y-94003857D01*
X173975733Y-94146714D01*
X173928114Y-94241952D01*
X173880495Y-94289571D01*
X173785257Y-94337190D01*
X173404304Y-94337190D01*
X174832876Y-94146714D02*
X174832876Y-94813380D01*
X174594780Y-93765761D02*
X174356685Y-94480047D01*
X174975733Y-94480047D01*
X171832876Y-93003666D02*
X172309066Y-93003666D01*
X171737638Y-93289380D02*
X172070971Y-92289380D01*
X172404304Y-93289380D01*
X172737638Y-92622714D02*
X172737638Y-93289380D01*
X172737638Y-92717952D02*
X172785257Y-92670333D01*
X172880495Y-92622714D01*
X173023352Y-92622714D01*
X173118590Y-92670333D01*
X173166209Y-92765571D01*
X173166209Y-93289380D01*
X174070971Y-93289380D02*
X174070971Y-92765571D01*
X174023352Y-92670333D01*
X173928114Y-92622714D01*
X173737638Y-92622714D01*
X173642400Y-92670333D01*
X174070971Y-93241761D02*
X173975733Y-93289380D01*
X173737638Y-93289380D01*
X173642400Y-93241761D01*
X173594780Y-93146523D01*
X173594780Y-93051285D01*
X173642400Y-92956047D01*
X173737638Y-92908428D01*
X173975733Y-92908428D01*
X174070971Y-92860809D01*
X174690019Y-93289380D02*
X174594780Y-93241761D01*
X174547161Y-93146523D01*
X174547161Y-92289380D01*
X175213828Y-93289380D02*
X175118590Y-93241761D01*
X175070971Y-93194142D01*
X175023352Y-93098904D01*
X175023352Y-92813190D01*
X175070971Y-92717952D01*
X175118590Y-92670333D01*
X175213828Y-92622714D01*
X175356685Y-92622714D01*
X175451923Y-92670333D01*
X175499542Y-92717952D01*
X175547161Y-92813190D01*
X175547161Y-93098904D01*
X175499542Y-93194142D01*
X175451923Y-93241761D01*
X175356685Y-93289380D01*
X175213828Y-93289380D01*
X176404304Y-92622714D02*
X176404304Y-93432238D01*
X176356685Y-93527476D01*
X176309066Y-93575095D01*
X176213828Y-93622714D01*
X176070971Y-93622714D01*
X175975733Y-93575095D01*
X176404304Y-93241761D02*
X176309066Y-93289380D01*
X176118590Y-93289380D01*
X176023352Y-93241761D01*
X175975733Y-93194142D01*
X175928114Y-93098904D01*
X175928114Y-92813190D01*
X175975733Y-92717952D01*
X176023352Y-92670333D01*
X176118590Y-92622714D01*
X176309066Y-92622714D01*
X176404304Y-92670333D01*
X121080304Y-52141380D02*
X121080304Y-51141380D01*
X121461257Y-51141380D01*
X121556495Y-51189000D01*
X121604114Y-51236619D01*
X121651733Y-51331857D01*
X121651733Y-51474714D01*
X121604114Y-51569952D01*
X121556495Y-51617571D01*
X121461257Y-51665190D01*
X121080304Y-51665190D01*
X122556495Y-51141380D02*
X122080304Y-51141380D01*
X122032685Y-51617571D01*
X122080304Y-51569952D01*
X122175542Y-51522333D01*
X122413638Y-51522333D01*
X122508876Y-51569952D01*
X122556495Y-51617571D01*
X122604114Y-51712809D01*
X122604114Y-51950904D01*
X122556495Y-52046142D01*
X122508876Y-52093761D01*
X122413638Y-52141380D01*
X122175542Y-52141380D01*
X122080304Y-52093761D01*
X122032685Y-52046142D01*
X120413638Y-53665380D02*
X120413638Y-52665380D01*
X120794590Y-52665380D01*
X120889828Y-52713000D01*
X120937447Y-52760619D01*
X120985066Y-52855857D01*
X120985066Y-52998714D01*
X120937447Y-53093952D01*
X120889828Y-53141571D01*
X120794590Y-53189190D01*
X120413638Y-53189190D01*
X121318400Y-52665380D02*
X121556495Y-53665380D01*
X121746971Y-52951095D01*
X121937447Y-53665380D01*
X122175542Y-52665380D01*
X122556495Y-53665380D02*
X122556495Y-52665380D01*
X122889828Y-53379666D01*
X123223161Y-52665380D01*
X123223161Y-53665380D01*
X135911904Y-51952380D02*
X135911904Y-50952380D01*
X136292857Y-50952380D01*
X136388095Y-51000000D01*
X136435714Y-51047619D01*
X136483333Y-51142857D01*
X136483333Y-51285714D01*
X136435714Y-51380952D01*
X136388095Y-51428571D01*
X136292857Y-51476190D01*
X135911904Y-51476190D01*
X137340476Y-50952380D02*
X137150000Y-50952380D01*
X137054761Y-51000000D01*
X137007142Y-51047619D01*
X136911904Y-51190476D01*
X136864285Y-51380952D01*
X136864285Y-51761904D01*
X136911904Y-51857142D01*
X136959523Y-51904761D01*
X137054761Y-51952380D01*
X137245238Y-51952380D01*
X137340476Y-51904761D01*
X137388095Y-51857142D01*
X137435714Y-51761904D01*
X137435714Y-51523809D01*
X137388095Y-51428571D01*
X137340476Y-51380952D01*
X137245238Y-51333333D01*
X137054761Y-51333333D01*
X136959523Y-51380952D01*
X136911904Y-51428571D01*
X136864285Y-51523809D01*
X153765238Y-51942380D02*
X153765238Y-50942380D01*
X154146190Y-50942380D01*
X154241428Y-50990000D01*
X154289047Y-51037619D01*
X154336666Y-51132857D01*
X154336666Y-51275714D01*
X154289047Y-51370952D01*
X154241428Y-51418571D01*
X154146190Y-51466190D01*
X153765238Y-51466190D01*
X154670000Y-50942380D02*
X154908095Y-51942380D01*
X155098571Y-51228095D01*
X155289047Y-51942380D01*
X155527142Y-50942380D01*
X155908095Y-51942380D02*
X155908095Y-50942380D01*
X156241428Y-51656666D01*
X156574761Y-50942380D01*
X156574761Y-51942380D01*
X168324304Y-52141380D02*
X168324304Y-51141380D01*
X168705257Y-51141380D01*
X168800495Y-51189000D01*
X168848114Y-51236619D01*
X168895733Y-51331857D01*
X168895733Y-51474714D01*
X168848114Y-51569952D01*
X168800495Y-51617571D01*
X168705257Y-51665190D01*
X168324304Y-51665190D01*
X169229066Y-51141380D02*
X169895733Y-51141380D01*
X169467161Y-52141380D01*
X164133828Y-53316142D02*
X164086209Y-53363761D01*
X163943352Y-53411380D01*
X163848114Y-53411380D01*
X163705257Y-53363761D01*
X163610019Y-53268523D01*
X163562400Y-53173285D01*
X163514780Y-52982809D01*
X163514780Y-52839952D01*
X163562400Y-52649476D01*
X163610019Y-52554238D01*
X163705257Y-52459000D01*
X163848114Y-52411380D01*
X163943352Y-52411380D01*
X164086209Y-52459000D01*
X164133828Y-52506619D01*
X164705257Y-53411380D02*
X164610019Y-53363761D01*
X164562400Y-53316142D01*
X164514780Y-53220904D01*
X164514780Y-52935190D01*
X164562400Y-52839952D01*
X164610019Y-52792333D01*
X164705257Y-52744714D01*
X164848114Y-52744714D01*
X164943352Y-52792333D01*
X164990971Y-52839952D01*
X165038590Y-52935190D01*
X165038590Y-53220904D01*
X164990971Y-53316142D01*
X164943352Y-53363761D01*
X164848114Y-53411380D01*
X164705257Y-53411380D01*
X165467161Y-53411380D02*
X165467161Y-52744714D01*
X165467161Y-52839952D02*
X165514780Y-52792333D01*
X165610019Y-52744714D01*
X165752876Y-52744714D01*
X165848114Y-52792333D01*
X165895733Y-52887571D01*
X165895733Y-53411380D01*
X165895733Y-52887571D02*
X165943352Y-52792333D01*
X166038590Y-52744714D01*
X166181447Y-52744714D01*
X166276685Y-52792333D01*
X166324304Y-52887571D01*
X166324304Y-53411380D01*
X166800495Y-53411380D02*
X166800495Y-52744714D01*
X166800495Y-52839952D02*
X166848114Y-52792333D01*
X166943352Y-52744714D01*
X167086209Y-52744714D01*
X167181447Y-52792333D01*
X167229066Y-52887571D01*
X167229066Y-53411380D01*
X167229066Y-52887571D02*
X167276685Y-52792333D01*
X167371923Y-52744714D01*
X167514780Y-52744714D01*
X167610019Y-52792333D01*
X167657638Y-52887571D01*
X167657638Y-53411380D01*
X168562400Y-52744714D02*
X168562400Y-53411380D01*
X168133828Y-52744714D02*
X168133828Y-53268523D01*
X168181447Y-53363761D01*
X168276685Y-53411380D01*
X168419542Y-53411380D01*
X168514780Y-53363761D01*
X168562400Y-53316142D01*
X169038590Y-52744714D02*
X169038590Y-53411380D01*
X169038590Y-52839952D02*
X169086209Y-52792333D01*
X169181447Y-52744714D01*
X169324304Y-52744714D01*
X169419542Y-52792333D01*
X169467161Y-52887571D01*
X169467161Y-53411380D01*
X169943352Y-53411380D02*
X169943352Y-52744714D01*
X169943352Y-52411380D02*
X169895733Y-52459000D01*
X169943352Y-52506619D01*
X169990971Y-52459000D01*
X169943352Y-52411380D01*
X169943352Y-52506619D01*
X170848114Y-53363761D02*
X170752876Y-53411380D01*
X170562400Y-53411380D01*
X170467161Y-53363761D01*
X170419542Y-53316142D01*
X170371923Y-53220904D01*
X170371923Y-52935190D01*
X170419542Y-52839952D01*
X170467161Y-52792333D01*
X170562400Y-52744714D01*
X170752876Y-52744714D01*
X170848114Y-52792333D01*
X171705257Y-53411380D02*
X171705257Y-52887571D01*
X171657638Y-52792333D01*
X171562400Y-52744714D01*
X171371923Y-52744714D01*
X171276685Y-52792333D01*
X171705257Y-53363761D02*
X171610019Y-53411380D01*
X171371923Y-53411380D01*
X171276685Y-53363761D01*
X171229066Y-53268523D01*
X171229066Y-53173285D01*
X171276685Y-53078047D01*
X171371923Y-53030428D01*
X171610019Y-53030428D01*
X171705257Y-52982809D01*
X172038590Y-52744714D02*
X172419542Y-52744714D01*
X172181447Y-52411380D02*
X172181447Y-53268523D01*
X172229066Y-53363761D01*
X172324304Y-53411380D01*
X172419542Y-53411380D01*
X172752876Y-53411380D02*
X172752876Y-52744714D01*
X172752876Y-52411380D02*
X172705257Y-52459000D01*
X172752876Y-52506619D01*
X172800495Y-52459000D01*
X172752876Y-52411380D01*
X172752876Y-52506619D01*
X173371923Y-53411380D02*
X173276685Y-53363761D01*
X173229066Y-53316142D01*
X173181447Y-53220904D01*
X173181447Y-52935190D01*
X173229066Y-52839952D01*
X173276685Y-52792333D01*
X173371923Y-52744714D01*
X173514780Y-52744714D01*
X173610019Y-52792333D01*
X173657638Y-52839952D01*
X173705257Y-52935190D01*
X173705257Y-53220904D01*
X173657638Y-53316142D01*
X173610019Y-53363761D01*
X173514780Y-53411380D01*
X173371923Y-53411380D01*
X174133828Y-52744714D02*
X174133828Y-53411380D01*
X174133828Y-52839952D02*
X174181447Y-52792333D01*
X174276685Y-52744714D01*
X174419542Y-52744714D01*
X174514780Y-52792333D01*
X174562400Y-52887571D01*
X174562400Y-53411380D01*
M02*
