M48
; DRILL file {KiCad (5.1.5)-3} date 4/13/2020 11:59:49 PM
; FORMAT={-:-/ absolute / inch / decimal}
; #@! TF.CreationDate,2020-04-13T23:59:49-04:00
; #@! TF.GenerationSoftware,Kicad,Pcbnew,(5.1.5)-3
FMAT,2
INCH
T1C0.0157
T2C0.0295
T3C0.0315
T4C0.0394
T5C0.0400
T6C0.0402
T7C0.0433
T8C0.0591
T9C0.0630
T10C0.0709
T11C0.1200
T12C0.0866
T13C0.0984
T14C0.1378
%
G90
G05
T1
X3.652Y-3.565
X3.6661Y-4.4559
X3.7063Y-4.4941
X3.7106Y-3.5646
X3.7449Y-4.5315
X3.7744Y-3.5646
X3.7831Y-4.5705
X3.8413Y-3.5642
X3.9811Y-5.565
X3.9906Y-4.1961
X3.998Y-4.0969
X4.0886Y-5.4884
X4.1988Y-5.4884
X4.3083Y-5.4884
X5.2988Y-2.5953
X5.365Y-2.2963
X5.3933Y-5.2591
X5.6933Y-2.7874
X5.9543Y-3.7094
X5.9713Y-2.7902
X6.0374Y-2.9331
X6.1008Y-2.911
X6.4579Y-2.4587
X6.7551Y-2.3957
T2
X6.6465Y-3.7106
X7.1949Y-4.3035
X4.456Y-4.101
X4.506Y-4.101
X4.556Y-4.101
X4.831Y-4.647
X4.881Y-4.647
X4.931Y-4.647
T3
X4.6988Y-3.1402
X4.6988Y-3.4354
X4.1697Y-3.139
X4.1697Y-3.4343
X4.261Y-4.918
X4.661Y-4.918
X4.426Y-3.1402
X4.426Y-3.4354
X4.782Y-4.918
X5.182Y-4.918
X4.774Y-3.995
X4.774Y-4.395
X4.9835Y-3.1394
X4.9835Y-3.4346
X4.7Y-2.6185
X4.7Y-3.0185
X4.929Y-3.996
X4.929Y-4.396
X4.26Y-4.768
X4.66Y-4.768
X4.9823Y-2.6181
X4.9823Y-3.0181
X4.4252Y-2.6193
X4.4252Y-3.0193
X4.1689Y-2.6193
X4.1689Y-3.0193
X4.487Y-4.236
X4.487Y-4.636
T4
X3.3181Y-4.2449
X7.0906Y-2.8661
X7.2213Y-2.9602
X6.637Y-5.4307
X6.6915Y-5.5425
X6.7461Y-5.4307
X6.8006Y-5.5425
X6.8551Y-5.4307
X6.9096Y-5.5425
X6.9642Y-5.4307
X7.0187Y-5.5425
X7.0732Y-5.4307
X7.1278Y-5.5425
X7.1823Y-5.4307
X7.2368Y-5.5425
X7.2913Y-5.4307
X7.3459Y-5.5425
X7.4004Y-5.4307
X3.799Y-5.088
X3.799Y-5.188
X3.899Y-5.088
X3.899Y-5.188
X3.999Y-5.088
X3.999Y-5.188
X4.099Y-5.088
X4.099Y-5.188
X4.199Y-5.088
X4.199Y-5.188
X4.299Y-5.088
X4.299Y-5.188
X4.399Y-5.088
X4.399Y-5.188
X4.499Y-5.088
X4.499Y-5.188
X4.599Y-5.088
X4.599Y-5.188
X4.699Y-5.088
X4.699Y-5.188
X4.799Y-5.088
X4.799Y-5.188
X4.899Y-5.088
X4.899Y-5.188
X4.999Y-5.088
X4.999Y-5.188
X5.099Y-5.088
X5.099Y-5.188
X5.199Y-5.088
X5.199Y-5.188
X5.299Y-5.088
X5.299Y-5.188
X5.399Y-5.088
X5.399Y-5.188
X5.499Y-5.088
X5.499Y-5.188
X5.599Y-5.088
X5.599Y-5.188
X5.699Y-5.088
X5.699Y-5.188
X3.7626Y-5.4091
X3.8171Y-5.5209
X3.8717Y-5.4091
X3.9262Y-5.5209
X3.9807Y-5.4091
X4.0352Y-5.5209
X4.0898Y-5.4091
X4.1443Y-5.5209
X4.1988Y-5.4091
X4.2533Y-5.5209
X4.3079Y-5.4091
X4.3624Y-5.5209
X4.4169Y-5.4091
X4.4715Y-5.5209
X4.526Y-5.4091
X4.5805Y-5.5209
X4.635Y-5.4091
X4.6896Y-5.5209
X4.7441Y-5.4091
X4.7986Y-5.5209
X4.8531Y-5.4091
X4.9077Y-5.5209
X4.9622Y-5.4091
X5.0167Y-5.5209
X5.0713Y-5.4091
X5.1258Y-5.5209
X5.1803Y-5.4091
X5.2348Y-5.5209
X5.2894Y-5.4091
X5.3439Y-5.5209
X5.3984Y-5.4091
X5.453Y-5.5209
X5.5075Y-5.4091
X5.562Y-5.5209
X5.6165Y-5.4091
X5.6711Y-5.5209
X5.7256Y-5.4091
X3.313Y-4.8949
X3.313Y-4.9949
X3.313Y-5.0949
X3.313Y-5.1949
X3.5268Y-4.0421
X3.5268Y-4.1421
X3.5268Y-4.2421
X3.5268Y-4.3421
X5.065Y-2.412
X5.165Y-2.412
X5.265Y-2.412
X5.365Y-2.412
X5.465Y-2.412
X5.565Y-2.412
X5.665Y-2.412
X5.765Y-2.412
X5.865Y-2.412
T5
X7.306Y-1.925
X7.306Y-2.025
X7.306Y-2.125
X7.306Y-2.225
X7.306Y-2.325
X7.306Y-2.425
X7.306Y-2.525
X7.306Y-2.625
X7.306Y-2.725
X7.306Y-2.825
X7.306Y-2.925
X7.306Y-3.025
X7.306Y-3.125
X7.306Y-3.225
X7.306Y-3.325
X7.306Y-3.425
X7.306Y-3.525
X7.306Y-3.625
X7.406Y-1.925
X7.406Y-2.025
X7.406Y-2.125
X7.406Y-2.225
X7.406Y-2.325
X7.406Y-2.425
X7.406Y-2.525
X7.406Y-2.625
X7.406Y-2.725
X7.406Y-2.825
X7.406Y-2.925
X7.406Y-3.025
X7.406Y-3.125
X7.406Y-3.225
X7.406Y-3.325
X7.406Y-3.425
X7.406Y-3.525
X7.406Y-3.625
X5.406Y-1.925
X5.506Y-1.925
X5.606Y-1.925
X5.706Y-1.925
X5.806Y-1.925
X5.906Y-1.925
X6.006Y-1.925
X6.106Y-1.925
X4.346Y-1.925
X4.446Y-1.925
X4.546Y-1.925
X4.646Y-1.925
X4.746Y-1.925
X4.846Y-1.925
X4.946Y-1.925
X5.046Y-1.925
X5.146Y-1.925
X5.246Y-1.925
X6.506Y-3.825
X6.606Y-3.825
X6.706Y-3.825
X6.806Y-3.825
X6.906Y-3.825
X7.006Y-3.825
X7.106Y-3.825
X7.206Y-3.825
X6.306Y-1.925
X6.406Y-1.925
X6.506Y-1.925
X6.606Y-1.925
X6.706Y-1.925
X6.806Y-1.925
X6.906Y-1.925
X7.006Y-1.925
X4.706Y-3.825
X4.806Y-3.825
X4.906Y-3.825
X5.006Y-3.825
X5.106Y-3.825
X5.206Y-3.825
X5.306Y-3.825
X5.406Y-3.825
X5.606Y-3.825
X5.706Y-3.825
X5.806Y-3.825
X5.906Y-3.825
X6.006Y-3.825
X6.106Y-3.825
X6.206Y-3.825
X6.306Y-3.825
T6
X5.139Y-4.088
X5.239Y-4.088
X5.339Y-4.088
X5.439Y-4.088
X5.539Y-4.088
X5.639Y-4.088
X5.739Y-4.088
X3.877Y-4.109
X3.877Y-4.209
X3.877Y-4.309
X3.877Y-4.409
X3.877Y-4.509
X3.877Y-4.609
X4.277Y-4.109
X4.277Y-4.209
X4.277Y-4.309
X4.277Y-4.409
X4.277Y-4.509
X4.277Y-4.609
X3.3321Y-2.7413
X3.4321Y-2.7413
X3.5321Y-2.7413
X3.6321Y-2.7413
X3.7321Y-2.7413
X6.152Y-4.961
X6.252Y-4.961
X6.352Y-4.961
X6.452Y-4.961
X6.552Y-4.961
T7
X7.6618Y-4.3665
X7.6618Y-4.4335
X7.6618Y-4.5004
X7.6618Y-4.5673
X7.6618Y-4.6343
X7.6591Y-4.99
X7.6591Y-5.0569
X7.6591Y-5.1239
X7.6591Y-5.1908
X7.6591Y-5.2577
T8
X3.4902Y-4.7071
X5.4354Y-2.9614
X5.8902Y-5.2744
X6.1906Y-3.0232
X6.8669Y-4.8209
X6.876Y-4.3622
T9
X7.0976Y-4.087
X7.5976Y-4.087
X6.1055Y-4.0874
X6.6055Y-4.0874
T10
X6.3315Y-3.0681
X6.6114Y-3.0681
X6.8224Y-3.0709
X7.1024Y-3.0709
T11
X7.156Y-1.925
X6.206Y-3.625
X6.206Y-2.525
X4.206Y-1.925
X7.406Y-3.825
X4.156Y-3.825
T12
X3.3449Y-3.3035
X6.009Y-4.921
X6.539Y-4.3992
X3.8752Y-2.7795
T13
X5.1618Y-4.663
X5.7138Y-4.263
X5.7142Y-4.6634
X5.1622Y-4.2634
T14
X7.715Y-2.007
X3.38Y-2.007
X7.715Y-5.552
X3.385Y-5.552
T0
M30
