G04 #@! TF.GenerationSoftware,KiCad,Pcbnew,(5.1.5)-3*
G04 #@! TF.CreationDate,2020-03-31T15:59:09-04:00*
G04 #@! TF.ProjectId,Deck_Plate_PCB,4465636b-5f50-46c6-9174-655f5043422e,A*
G04 #@! TF.SameCoordinates,Original*
G04 #@! TF.FileFunction,Legend,Top*
G04 #@! TF.FilePolarity,Positive*
%FSLAX46Y46*%
G04 Gerber Fmt 4.6, Leading zero omitted, Abs format (unit mm)*
G04 Created by KiCad (PCBNEW (5.1.5)-3) date 2020-03-31 15:59:09*
%MOMM*%
%LPD*%
G04 APERTURE LIST*
%ADD10C,0.400000*%
%ADD11C,0.150000*%
%ADD12C,0.120000*%
G04 APERTURE END LIST*
D10*
X84750952Y-94879523D02*
X83560476Y-95712857D01*
X84750952Y-96308095D02*
X82250952Y-96308095D01*
X82250952Y-95355714D01*
X82370000Y-95117619D01*
X82489047Y-94998571D01*
X82727142Y-94879523D01*
X83084285Y-94879523D01*
X83322380Y-94998571D01*
X83441428Y-95117619D01*
X83560476Y-95355714D01*
X83560476Y-96308095D01*
X84750952Y-93450952D02*
X84631904Y-93689047D01*
X84512857Y-93808095D01*
X84274761Y-93927142D01*
X83560476Y-93927142D01*
X83322380Y-93808095D01*
X83203333Y-93689047D01*
X83084285Y-93450952D01*
X83084285Y-93093809D01*
X83203333Y-92855714D01*
X83322380Y-92736666D01*
X83560476Y-92617619D01*
X84274761Y-92617619D01*
X84512857Y-92736666D01*
X84631904Y-92855714D01*
X84750952Y-93093809D01*
X84750952Y-93450952D01*
X84631904Y-90474761D02*
X84750952Y-90712857D01*
X84750952Y-91189047D01*
X84631904Y-91427142D01*
X84512857Y-91546190D01*
X84274761Y-91665238D01*
X83560476Y-91665238D01*
X83322380Y-91546190D01*
X83203333Y-91427142D01*
X83084285Y-91189047D01*
X83084285Y-90712857D01*
X83203333Y-90474761D01*
X84750952Y-89403333D02*
X82250952Y-89403333D01*
X83798571Y-89165238D02*
X84750952Y-88450952D01*
X83084285Y-88450952D02*
X84036666Y-89403333D01*
X84631904Y-87498571D02*
X84750952Y-87141428D01*
X84750952Y-86546190D01*
X84631904Y-86308095D01*
X84512857Y-86189047D01*
X84274761Y-86070000D01*
X84036666Y-86070000D01*
X83798571Y-86189047D01*
X83679523Y-86308095D01*
X83560476Y-86546190D01*
X83441428Y-87022380D01*
X83322380Y-87260476D01*
X83203333Y-87379523D01*
X82965238Y-87498571D01*
X82727142Y-87498571D01*
X82489047Y-87379523D01*
X82370000Y-87260476D01*
X82250952Y-87022380D01*
X82250952Y-86427142D01*
X82370000Y-86070000D01*
X84750952Y-83927142D02*
X83441428Y-83927142D01*
X83203333Y-84046190D01*
X83084285Y-84284285D01*
X83084285Y-84760476D01*
X83203333Y-84998571D01*
X84631904Y-83927142D02*
X84750952Y-84165238D01*
X84750952Y-84760476D01*
X84631904Y-84998571D01*
X84393809Y-85117619D01*
X84155714Y-85117619D01*
X83917619Y-84998571D01*
X83798571Y-84760476D01*
X83798571Y-84165238D01*
X83679523Y-83927142D01*
X83084285Y-83093809D02*
X83084285Y-82141428D01*
X82250952Y-82736666D02*
X84393809Y-82736666D01*
X84631904Y-82617619D01*
X84750952Y-82379523D01*
X84750952Y-82141428D01*
X83798571Y-81308095D02*
X83798571Y-79403333D01*
X82250952Y-78450952D02*
X84750952Y-76784285D01*
X82250952Y-76784285D02*
X84750952Y-78450952D01*
X83560476Y-74284285D02*
X83441428Y-74403333D01*
X83322380Y-74641428D01*
X83322380Y-74879523D01*
X83441428Y-75117619D01*
X83560476Y-75236666D01*
X83798571Y-75355714D01*
X84036666Y-75355714D01*
X84274761Y-75236666D01*
X84393809Y-75117619D01*
X84512857Y-74879523D01*
X84512857Y-74641428D01*
X84393809Y-74403333D01*
X84274761Y-74284285D01*
X83322380Y-74284285D02*
X84274761Y-74284285D01*
X84393809Y-74165238D01*
X84393809Y-74046190D01*
X84274761Y-73808095D01*
X84036666Y-73689047D01*
X83441428Y-73689047D01*
X83084285Y-73927142D01*
X82846190Y-74284285D01*
X82727142Y-74760476D01*
X82846190Y-75236666D01*
X83084285Y-75593809D01*
X83441428Y-75831904D01*
X83917619Y-75950952D01*
X84393809Y-75831904D01*
X84750952Y-75593809D01*
X84989047Y-75236666D01*
X85108095Y-74760476D01*
X84989047Y-74284285D01*
X84750952Y-73927142D01*
X82250952Y-72974761D02*
X84750952Y-72141428D01*
X82250952Y-71308095D01*
X82250952Y-70831904D02*
X82250952Y-69403333D01*
X84750952Y-70117619D02*
X82250952Y-70117619D01*
X82489047Y-66784285D02*
X82370000Y-66665238D01*
X82250952Y-66427142D01*
X82250952Y-65831904D01*
X82370000Y-65593809D01*
X82489047Y-65474761D01*
X82727142Y-65355714D01*
X82965238Y-65355714D01*
X83322380Y-65474761D01*
X84750952Y-66903333D01*
X84750952Y-65355714D01*
X82250952Y-63808095D02*
X82250952Y-63570000D01*
X82370000Y-63331904D01*
X82489047Y-63212857D01*
X82727142Y-63093809D01*
X83203333Y-62974761D01*
X83798571Y-62974761D01*
X84274761Y-63093809D01*
X84512857Y-63212857D01*
X84631904Y-63331904D01*
X84750952Y-63570000D01*
X84750952Y-63808095D01*
X84631904Y-64046190D01*
X84512857Y-64165238D01*
X84274761Y-64284285D01*
X83798571Y-64403333D01*
X83203333Y-64403333D01*
X82727142Y-64284285D01*
X82489047Y-64165238D01*
X82370000Y-64046190D01*
X82250952Y-63808095D01*
X82489047Y-62022380D02*
X82370000Y-61903333D01*
X82250952Y-61665238D01*
X82250952Y-61070000D01*
X82370000Y-60831904D01*
X82489047Y-60712857D01*
X82727142Y-60593809D01*
X82965238Y-60593809D01*
X83322380Y-60712857D01*
X84750952Y-62141428D01*
X84750952Y-60593809D01*
X82250952Y-59046190D02*
X82250952Y-58808095D01*
X82370000Y-58570000D01*
X82489047Y-58450952D01*
X82727142Y-58331904D01*
X83203333Y-58212857D01*
X83798571Y-58212857D01*
X84274761Y-58331904D01*
X84512857Y-58450952D01*
X84631904Y-58570000D01*
X84750952Y-58808095D01*
X84750952Y-59046190D01*
X84631904Y-59284285D01*
X84512857Y-59403333D01*
X84274761Y-59522380D01*
X83798571Y-59641428D01*
X83203333Y-59641428D01*
X82727142Y-59522380D01*
X82489047Y-59403333D01*
X82370000Y-59284285D01*
X82250952Y-59046190D01*
D11*
X97865714Y-89636666D02*
X98341904Y-89636666D01*
X97770476Y-89922380D02*
X98103809Y-88922380D01*
X98437142Y-89922380D01*
X98675238Y-88922380D02*
X99341904Y-88922380D01*
X98913333Y-89922380D01*
X95635714Y-89656666D02*
X96111904Y-89656666D01*
X95540476Y-89942380D02*
X95873809Y-88942380D01*
X96207142Y-89942380D01*
X96969047Y-89275714D02*
X96969047Y-89942380D01*
X96730952Y-88894761D02*
X96492857Y-89609047D01*
X97111904Y-89609047D01*
X93595714Y-89676666D02*
X94071904Y-89676666D01*
X93500476Y-89962380D02*
X93833809Y-88962380D01*
X94167142Y-89962380D01*
X94976666Y-88962380D02*
X94500476Y-88962380D01*
X94452857Y-89438571D01*
X94500476Y-89390952D01*
X94595714Y-89343333D01*
X94833809Y-89343333D01*
X94929047Y-89390952D01*
X94976666Y-89438571D01*
X95024285Y-89533809D01*
X95024285Y-89771904D01*
X94976666Y-89867142D01*
X94929047Y-89914761D01*
X94833809Y-89962380D01*
X94595714Y-89962380D01*
X94500476Y-89914761D01*
X94452857Y-89867142D01*
X91515714Y-89676666D02*
X91991904Y-89676666D01*
X91420476Y-89962380D02*
X91753809Y-88962380D01*
X92087142Y-89962380D01*
X92849047Y-88962380D02*
X92658571Y-88962380D01*
X92563333Y-89010000D01*
X92515714Y-89057619D01*
X92420476Y-89200476D01*
X92372857Y-89390952D01*
X92372857Y-89771904D01*
X92420476Y-89867142D01*
X92468095Y-89914761D01*
X92563333Y-89962380D01*
X92753809Y-89962380D01*
X92849047Y-89914761D01*
X92896666Y-89867142D01*
X92944285Y-89771904D01*
X92944285Y-89533809D01*
X92896666Y-89438571D01*
X92849047Y-89390952D01*
X92753809Y-89343333D01*
X92563333Y-89343333D01*
X92468095Y-89390952D01*
X92420476Y-89438571D01*
X92372857Y-89533809D01*
X103979523Y-63824761D02*
X104122380Y-63872380D01*
X104360476Y-63872380D01*
X104455714Y-63824761D01*
X104503333Y-63777142D01*
X104550952Y-63681904D01*
X104550952Y-63586666D01*
X104503333Y-63491428D01*
X104455714Y-63443809D01*
X104360476Y-63396190D01*
X104170000Y-63348571D01*
X104074761Y-63300952D01*
X104027142Y-63253333D01*
X103979523Y-63158095D01*
X103979523Y-63062857D01*
X104027142Y-62967619D01*
X104074761Y-62920000D01*
X104170000Y-62872380D01*
X104408095Y-62872380D01*
X104550952Y-62920000D01*
X104979523Y-63872380D02*
X104979523Y-63205714D01*
X104979523Y-62872380D02*
X104931904Y-62920000D01*
X104979523Y-62967619D01*
X105027142Y-62920000D01*
X104979523Y-62872380D01*
X104979523Y-62967619D01*
X105884285Y-63205714D02*
X105884285Y-64015238D01*
X105836666Y-64110476D01*
X105789047Y-64158095D01*
X105693809Y-64205714D01*
X105550952Y-64205714D01*
X105455714Y-64158095D01*
X105884285Y-63824761D02*
X105789047Y-63872380D01*
X105598571Y-63872380D01*
X105503333Y-63824761D01*
X105455714Y-63777142D01*
X105408095Y-63681904D01*
X105408095Y-63396190D01*
X105455714Y-63300952D01*
X105503333Y-63253333D01*
X105598571Y-63205714D01*
X105789047Y-63205714D01*
X105884285Y-63253333D01*
X106360476Y-63205714D02*
X106360476Y-63872380D01*
X106360476Y-63300952D02*
X106408095Y-63253333D01*
X106503333Y-63205714D01*
X106646190Y-63205714D01*
X106741428Y-63253333D01*
X106789047Y-63348571D01*
X106789047Y-63872380D01*
X107693809Y-63872380D02*
X107693809Y-63348571D01*
X107646190Y-63253333D01*
X107550952Y-63205714D01*
X107360476Y-63205714D01*
X107265238Y-63253333D01*
X107693809Y-63824761D02*
X107598571Y-63872380D01*
X107360476Y-63872380D01*
X107265238Y-63824761D01*
X107217619Y-63729523D01*
X107217619Y-63634285D01*
X107265238Y-63539047D01*
X107360476Y-63491428D01*
X107598571Y-63491428D01*
X107693809Y-63443809D01*
X108312857Y-63872380D02*
X108217619Y-63824761D01*
X108170000Y-63729523D01*
X108170000Y-62872380D01*
X110027142Y-63777142D02*
X109979523Y-63824761D01*
X109836666Y-63872380D01*
X109741428Y-63872380D01*
X109598571Y-63824761D01*
X109503333Y-63729523D01*
X109455714Y-63634285D01*
X109408095Y-63443809D01*
X109408095Y-63300952D01*
X109455714Y-63110476D01*
X109503333Y-63015238D01*
X109598571Y-62920000D01*
X109741428Y-62872380D01*
X109836666Y-62872380D01*
X109979523Y-62920000D01*
X110027142Y-62967619D01*
X110598571Y-63872380D02*
X110503333Y-63824761D01*
X110455714Y-63777142D01*
X110408095Y-63681904D01*
X110408095Y-63396190D01*
X110455714Y-63300952D01*
X110503333Y-63253333D01*
X110598571Y-63205714D01*
X110741428Y-63205714D01*
X110836666Y-63253333D01*
X110884285Y-63300952D01*
X110931904Y-63396190D01*
X110931904Y-63681904D01*
X110884285Y-63777142D01*
X110836666Y-63824761D01*
X110741428Y-63872380D01*
X110598571Y-63872380D01*
X111360476Y-63205714D02*
X111360476Y-63872380D01*
X111360476Y-63300952D02*
X111408095Y-63253333D01*
X111503333Y-63205714D01*
X111646190Y-63205714D01*
X111741428Y-63253333D01*
X111789047Y-63348571D01*
X111789047Y-63872380D01*
X112693809Y-63872380D02*
X112693809Y-62872380D01*
X112693809Y-63824761D02*
X112598571Y-63872380D01*
X112408095Y-63872380D01*
X112312857Y-63824761D01*
X112265238Y-63777142D01*
X112217619Y-63681904D01*
X112217619Y-63396190D01*
X112265238Y-63300952D01*
X112312857Y-63253333D01*
X112408095Y-63205714D01*
X112598571Y-63205714D01*
X112693809Y-63253333D01*
X113170000Y-63872380D02*
X113170000Y-63205714D01*
X113170000Y-62872380D02*
X113122380Y-62920000D01*
X113170000Y-62967619D01*
X113217619Y-62920000D01*
X113170000Y-62872380D01*
X113170000Y-62967619D01*
X113503333Y-63205714D02*
X113884285Y-63205714D01*
X113646190Y-62872380D02*
X113646190Y-63729523D01*
X113693809Y-63824761D01*
X113789047Y-63872380D01*
X113884285Y-63872380D01*
X114217619Y-63872380D02*
X114217619Y-63205714D01*
X114217619Y-62872380D02*
X114169999Y-62920000D01*
X114217619Y-62967619D01*
X114265238Y-62920000D01*
X114217619Y-62872380D01*
X114217619Y-62967619D01*
X114836666Y-63872380D02*
X114741428Y-63824761D01*
X114693809Y-63777142D01*
X114646190Y-63681904D01*
X114646190Y-63396190D01*
X114693809Y-63300952D01*
X114741428Y-63253333D01*
X114836666Y-63205714D01*
X114979523Y-63205714D01*
X115074761Y-63253333D01*
X115122380Y-63300952D01*
X115169999Y-63396190D01*
X115169999Y-63681904D01*
X115122380Y-63777142D01*
X115074761Y-63824761D01*
X114979523Y-63872380D01*
X114836666Y-63872380D01*
X115598571Y-63205714D02*
X115598571Y-63872380D01*
X115598571Y-63300952D02*
X115646190Y-63253333D01*
X115741428Y-63205714D01*
X115884285Y-63205714D01*
X115979523Y-63253333D01*
X116027142Y-63348571D01*
X116027142Y-63872380D01*
X116503333Y-63872380D02*
X116503333Y-63205714D01*
X116503333Y-62872380D02*
X116455714Y-62920000D01*
X116503333Y-62967619D01*
X116550952Y-62920000D01*
X116503333Y-62872380D01*
X116503333Y-62967619D01*
X116979523Y-63205714D02*
X116979523Y-63872380D01*
X116979523Y-63300952D02*
X117027142Y-63253333D01*
X117122380Y-63205714D01*
X117265238Y-63205714D01*
X117360476Y-63253333D01*
X117408095Y-63348571D01*
X117408095Y-63872380D01*
X118312857Y-63205714D02*
X118312857Y-64015238D01*
X118265238Y-64110476D01*
X118217619Y-64158095D01*
X118122380Y-64205714D01*
X117979523Y-64205714D01*
X117884285Y-64158095D01*
X118312857Y-63824761D02*
X118217619Y-63872380D01*
X118027142Y-63872380D01*
X117931904Y-63824761D01*
X117884285Y-63777142D01*
X117836666Y-63681904D01*
X117836666Y-63396190D01*
X117884285Y-63300952D01*
X117931904Y-63253333D01*
X118027142Y-63205714D01*
X118217619Y-63205714D01*
X118312857Y-63253333D01*
X148866190Y-59032380D02*
X148866190Y-58032380D01*
X149247142Y-58032380D01*
X149342380Y-58080000D01*
X149390000Y-58127619D01*
X149437619Y-58222857D01*
X149437619Y-58365714D01*
X149390000Y-58460952D01*
X149342380Y-58508571D01*
X149247142Y-58556190D01*
X148866190Y-58556190D01*
X150294761Y-59032380D02*
X150294761Y-58508571D01*
X150247142Y-58413333D01*
X150151904Y-58365714D01*
X149961428Y-58365714D01*
X149866190Y-58413333D01*
X150294761Y-58984761D02*
X150199523Y-59032380D01*
X149961428Y-59032380D01*
X149866190Y-58984761D01*
X149818571Y-58889523D01*
X149818571Y-58794285D01*
X149866190Y-58699047D01*
X149961428Y-58651428D01*
X150199523Y-58651428D01*
X150294761Y-58603809D01*
X150675714Y-58365714D02*
X150913809Y-59032380D01*
X151151904Y-58365714D02*
X150913809Y-59032380D01*
X150818571Y-59270476D01*
X150770952Y-59318095D01*
X150675714Y-59365714D01*
X151675714Y-59032380D02*
X151580476Y-58984761D01*
X151532857Y-58889523D01*
X151532857Y-58032380D01*
X152199523Y-59032380D02*
X152104285Y-58984761D01*
X152056666Y-58937142D01*
X152009047Y-58841904D01*
X152009047Y-58556190D01*
X152056666Y-58460952D01*
X152104285Y-58413333D01*
X152199523Y-58365714D01*
X152342380Y-58365714D01*
X152437619Y-58413333D01*
X152485238Y-58460952D01*
X152532857Y-58556190D01*
X152532857Y-58841904D01*
X152485238Y-58937142D01*
X152437619Y-58984761D01*
X152342380Y-59032380D01*
X152199523Y-59032380D01*
X153390000Y-59032380D02*
X153390000Y-58508571D01*
X153342380Y-58413333D01*
X153247142Y-58365714D01*
X153056666Y-58365714D01*
X152961428Y-58413333D01*
X153390000Y-58984761D02*
X153294761Y-59032380D01*
X153056666Y-59032380D01*
X152961428Y-58984761D01*
X152913809Y-58889523D01*
X152913809Y-58794285D01*
X152961428Y-58699047D01*
X153056666Y-58651428D01*
X153294761Y-58651428D01*
X153390000Y-58603809D01*
X154294761Y-59032380D02*
X154294761Y-58032380D01*
X154294761Y-58984761D02*
X154199523Y-59032380D01*
X154009047Y-59032380D01*
X153913809Y-58984761D01*
X153866190Y-58937142D01*
X153818571Y-58841904D01*
X153818571Y-58556190D01*
X153866190Y-58460952D01*
X153913809Y-58413333D01*
X154009047Y-58365714D01*
X154199523Y-58365714D01*
X154294761Y-58413333D01*
X154532857Y-59127619D02*
X155294761Y-59127619D01*
X155390000Y-58032380D02*
X155961428Y-58032380D01*
X155675714Y-59032380D02*
X155675714Y-58032380D01*
X156675714Y-58984761D02*
X156580476Y-59032380D01*
X156390000Y-59032380D01*
X156294761Y-58984761D01*
X156247142Y-58889523D01*
X156247142Y-58508571D01*
X156294761Y-58413333D01*
X156390000Y-58365714D01*
X156580476Y-58365714D01*
X156675714Y-58413333D01*
X156723333Y-58508571D01*
X156723333Y-58603809D01*
X156247142Y-58699047D01*
X157151904Y-59032380D02*
X157151904Y-58365714D01*
X157151904Y-58460952D02*
X157199523Y-58413333D01*
X157294761Y-58365714D01*
X157437619Y-58365714D01*
X157532857Y-58413333D01*
X157580476Y-58508571D01*
X157580476Y-59032380D01*
X157580476Y-58508571D02*
X157628095Y-58413333D01*
X157723333Y-58365714D01*
X157866190Y-58365714D01*
X157961428Y-58413333D01*
X158009047Y-58508571D01*
X158009047Y-59032380D01*
X158485238Y-58365714D02*
X158485238Y-59365714D01*
X158485238Y-58413333D02*
X158580476Y-58365714D01*
X158770952Y-58365714D01*
X158866190Y-58413333D01*
X158913809Y-58460952D01*
X158961428Y-58556190D01*
X158961428Y-58841904D01*
X158913809Y-58937142D01*
X158866190Y-58984761D01*
X158770952Y-59032380D01*
X158580476Y-59032380D01*
X158485238Y-58984761D01*
X146804761Y-59591428D02*
X146852380Y-59448571D01*
X146852380Y-59210476D01*
X146804761Y-59115238D01*
X146757142Y-59067619D01*
X146661904Y-59020000D01*
X146566666Y-59020000D01*
X146471428Y-59067619D01*
X146423809Y-59115238D01*
X146376190Y-59210476D01*
X146328571Y-59400952D01*
X146280952Y-59496190D01*
X146233333Y-59543809D01*
X146138095Y-59591428D01*
X146042857Y-59591428D01*
X145947619Y-59543809D01*
X145900000Y-59496190D01*
X145852380Y-59400952D01*
X145852380Y-59162857D01*
X145900000Y-59020000D01*
X146852380Y-58448571D02*
X146804761Y-58543809D01*
X146757142Y-58591428D01*
X146661904Y-58639047D01*
X146376190Y-58639047D01*
X146280952Y-58591428D01*
X146233333Y-58543809D01*
X146185714Y-58448571D01*
X146185714Y-58305714D01*
X146233333Y-58210476D01*
X146280952Y-58162857D01*
X146376190Y-58115238D01*
X146661904Y-58115238D01*
X146757142Y-58162857D01*
X146804761Y-58210476D01*
X146852380Y-58305714D01*
X146852380Y-58448571D01*
X146852380Y-57543809D02*
X146804761Y-57639047D01*
X146709523Y-57686666D01*
X145852380Y-57686666D01*
X146852380Y-56734285D02*
X146328571Y-56734285D01*
X146233333Y-56781904D01*
X146185714Y-56877142D01*
X146185714Y-57067619D01*
X146233333Y-57162857D01*
X146804761Y-56734285D02*
X146852380Y-56829523D01*
X146852380Y-57067619D01*
X146804761Y-57162857D01*
X146709523Y-57210476D01*
X146614285Y-57210476D01*
X146519047Y-57162857D01*
X146471428Y-57067619D01*
X146471428Y-56829523D01*
X146423809Y-56734285D01*
X146852380Y-56258095D02*
X146185714Y-56258095D01*
X146376190Y-56258095D02*
X146280952Y-56210476D01*
X146233333Y-56162857D01*
X146185714Y-56067619D01*
X146185714Y-55972380D01*
X146947619Y-55877142D02*
X146947619Y-55115238D01*
X145852380Y-55020000D02*
X145852380Y-54448571D01*
X146852380Y-54734285D02*
X145852380Y-54734285D01*
X146804761Y-53734285D02*
X146852380Y-53829523D01*
X146852380Y-54020000D01*
X146804761Y-54115238D01*
X146709523Y-54162857D01*
X146328571Y-54162857D01*
X146233333Y-54115238D01*
X146185714Y-54020000D01*
X146185714Y-53829523D01*
X146233333Y-53734285D01*
X146328571Y-53686666D01*
X146423809Y-53686666D01*
X146519047Y-54162857D01*
X146852380Y-53258095D02*
X146185714Y-53258095D01*
X146280952Y-53258095D02*
X146233333Y-53210476D01*
X146185714Y-53115238D01*
X146185714Y-52972380D01*
X146233333Y-52877142D01*
X146328571Y-52829523D01*
X146852380Y-52829523D01*
X146328571Y-52829523D02*
X146233333Y-52781904D01*
X146185714Y-52686666D01*
X146185714Y-52543809D01*
X146233333Y-52448571D01*
X146328571Y-52400952D01*
X146852380Y-52400952D01*
X146185714Y-51924761D02*
X147185714Y-51924761D01*
X146233333Y-51924761D02*
X146185714Y-51829523D01*
X146185714Y-51639047D01*
X146233333Y-51543809D01*
X146280952Y-51496190D01*
X146376190Y-51448571D01*
X146661904Y-51448571D01*
X146757142Y-51496190D01*
X146804761Y-51543809D01*
X146852380Y-51639047D01*
X146852380Y-51829523D01*
X146804761Y-51924761D01*
X144392380Y-59539523D02*
X143392380Y-59539523D01*
X143392380Y-59301428D01*
X143440000Y-59158571D01*
X143535238Y-59063333D01*
X143630476Y-59015714D01*
X143820952Y-58968095D01*
X143963809Y-58968095D01*
X144154285Y-59015714D01*
X144249523Y-59063333D01*
X144344761Y-59158571D01*
X144392380Y-59301428D01*
X144392380Y-59539523D01*
X144392380Y-58539523D02*
X143725714Y-58539523D01*
X143392380Y-58539523D02*
X143440000Y-58587142D01*
X143487619Y-58539523D01*
X143440000Y-58491904D01*
X143392380Y-58539523D01*
X143487619Y-58539523D01*
X144392380Y-58063333D02*
X143725714Y-58063333D01*
X143916190Y-58063333D02*
X143820952Y-58015714D01*
X143773333Y-57968095D01*
X143725714Y-57872857D01*
X143725714Y-57777619D01*
X141824761Y-59562380D02*
X141872380Y-59419523D01*
X141872380Y-59181428D01*
X141824761Y-59086190D01*
X141777142Y-59038571D01*
X141681904Y-58990952D01*
X141586666Y-58990952D01*
X141491428Y-59038571D01*
X141443809Y-59086190D01*
X141396190Y-59181428D01*
X141348571Y-59371904D01*
X141300952Y-59467142D01*
X141253333Y-59514761D01*
X141158095Y-59562380D01*
X141062857Y-59562380D01*
X140967619Y-59514761D01*
X140920000Y-59467142D01*
X140872380Y-59371904D01*
X140872380Y-59133809D01*
X140920000Y-58990952D01*
X141205714Y-58705238D02*
X141205714Y-58324285D01*
X140872380Y-58562380D02*
X141729523Y-58562380D01*
X141824761Y-58514761D01*
X141872380Y-58419523D01*
X141872380Y-58324285D01*
X141824761Y-57610000D02*
X141872380Y-57705238D01*
X141872380Y-57895714D01*
X141824761Y-57990952D01*
X141729523Y-58038571D01*
X141348571Y-58038571D01*
X141253333Y-57990952D01*
X141205714Y-57895714D01*
X141205714Y-57705238D01*
X141253333Y-57610000D01*
X141348571Y-57562380D01*
X141443809Y-57562380D01*
X141539047Y-58038571D01*
X141205714Y-57133809D02*
X142205714Y-57133809D01*
X141253333Y-57133809D02*
X141205714Y-57038571D01*
X141205714Y-56848095D01*
X141253333Y-56752857D01*
X141300952Y-56705238D01*
X141396190Y-56657619D01*
X141681904Y-56657619D01*
X141777142Y-56705238D01*
X141824761Y-56752857D01*
X141872380Y-56848095D01*
X141872380Y-57038571D01*
X141824761Y-57133809D01*
X138838571Y-59240476D02*
X138886190Y-59097619D01*
X138933809Y-59050000D01*
X139029047Y-59002380D01*
X139171904Y-59002380D01*
X139267142Y-59050000D01*
X139314761Y-59097619D01*
X139362380Y-59192857D01*
X139362380Y-59573809D01*
X138362380Y-59573809D01*
X138362380Y-59240476D01*
X138410000Y-59145238D01*
X138457619Y-59097619D01*
X138552857Y-59050000D01*
X138648095Y-59050000D01*
X138743333Y-59097619D01*
X138790952Y-59145238D01*
X138838571Y-59240476D01*
X138838571Y-59573809D01*
X138695714Y-58145238D02*
X139362380Y-58145238D01*
X138695714Y-58573809D02*
X139219523Y-58573809D01*
X139314761Y-58526190D01*
X139362380Y-58430952D01*
X139362380Y-58288095D01*
X139314761Y-58192857D01*
X139267142Y-58145238D01*
X139362380Y-57669047D02*
X138695714Y-57669047D01*
X138886190Y-57669047D02*
X138790952Y-57621428D01*
X138743333Y-57573809D01*
X138695714Y-57478571D01*
X138695714Y-57383333D01*
X138695714Y-57050000D02*
X139362380Y-57050000D01*
X138790952Y-57050000D02*
X138743333Y-57002380D01*
X138695714Y-56907142D01*
X138695714Y-56764285D01*
X138743333Y-56669047D01*
X138838571Y-56621428D01*
X139362380Y-56621428D01*
X139457619Y-56383333D02*
X139457619Y-55621428D01*
X139314761Y-55430952D02*
X139362380Y-55288095D01*
X139362380Y-55050000D01*
X139314761Y-54954761D01*
X139267142Y-54907142D01*
X139171904Y-54859523D01*
X139076666Y-54859523D01*
X138981428Y-54907142D01*
X138933809Y-54954761D01*
X138886190Y-55050000D01*
X138838571Y-55240476D01*
X138790952Y-55335714D01*
X138743333Y-55383333D01*
X138648095Y-55430952D01*
X138552857Y-55430952D01*
X138457619Y-55383333D01*
X138410000Y-55335714D01*
X138362380Y-55240476D01*
X138362380Y-55002380D01*
X138410000Y-54859523D01*
X139362380Y-54430952D02*
X138695714Y-54430952D01*
X138362380Y-54430952D02*
X138410000Y-54478571D01*
X138457619Y-54430952D01*
X138410000Y-54383333D01*
X138362380Y-54430952D01*
X138457619Y-54430952D01*
X138695714Y-53526190D02*
X139505238Y-53526190D01*
X139600476Y-53573809D01*
X139648095Y-53621428D01*
X139695714Y-53716666D01*
X139695714Y-53859523D01*
X139648095Y-53954761D01*
X139314761Y-53526190D02*
X139362380Y-53621428D01*
X139362380Y-53811904D01*
X139314761Y-53907142D01*
X139267142Y-53954761D01*
X139171904Y-54002380D01*
X138886190Y-54002380D01*
X138790952Y-53954761D01*
X138743333Y-53907142D01*
X138695714Y-53811904D01*
X138695714Y-53621428D01*
X138743333Y-53526190D01*
X135962380Y-59608571D02*
X135962380Y-59037142D01*
X136962380Y-59322857D02*
X135962380Y-59322857D01*
X135962380Y-58846666D02*
X135962380Y-58275238D01*
X136962380Y-58560952D02*
X135962380Y-58560952D01*
X136962380Y-57465714D02*
X136962380Y-57941904D01*
X135962380Y-57941904D01*
X137057619Y-57370476D02*
X137057619Y-56608571D01*
X136962380Y-55799047D02*
X136486190Y-56132380D01*
X136962380Y-56370476D02*
X135962380Y-56370476D01*
X135962380Y-55989523D01*
X136010000Y-55894285D01*
X136057619Y-55846666D01*
X136152857Y-55799047D01*
X136295714Y-55799047D01*
X136390952Y-55846666D01*
X136438571Y-55894285D01*
X136486190Y-55989523D01*
X136486190Y-56370476D01*
X135962380Y-55465714D02*
X136962380Y-54799047D01*
X135962380Y-54799047D02*
X136962380Y-55465714D01*
X133252380Y-59559523D02*
X133252380Y-58988095D01*
X134252380Y-59273809D02*
X133252380Y-59273809D01*
X133252380Y-58797619D02*
X133252380Y-58226190D01*
X134252380Y-58511904D02*
X133252380Y-58511904D01*
X134252380Y-57416666D02*
X134252380Y-57892857D01*
X133252380Y-57892857D01*
X134347619Y-57321428D02*
X134347619Y-56559523D01*
X133252380Y-56464285D02*
X133252380Y-55892857D01*
X134252380Y-56178571D02*
X133252380Y-56178571D01*
X133252380Y-55654761D02*
X134252380Y-54988095D01*
X133252380Y-54988095D02*
X134252380Y-55654761D01*
X131624761Y-59570476D02*
X131672380Y-59427619D01*
X131672380Y-59189523D01*
X131624761Y-59094285D01*
X131577142Y-59046666D01*
X131481904Y-58999047D01*
X131386666Y-58999047D01*
X131291428Y-59046666D01*
X131243809Y-59094285D01*
X131196190Y-59189523D01*
X131148571Y-59380000D01*
X131100952Y-59475238D01*
X131053333Y-59522857D01*
X130958095Y-59570476D01*
X130862857Y-59570476D01*
X130767619Y-59522857D01*
X130720000Y-59475238D01*
X130672380Y-59380000D01*
X130672380Y-59141904D01*
X130720000Y-58999047D01*
X131577142Y-57999047D02*
X131624761Y-58046666D01*
X131672380Y-58189523D01*
X131672380Y-58284761D01*
X131624761Y-58427619D01*
X131529523Y-58522857D01*
X131434285Y-58570476D01*
X131243809Y-58618095D01*
X131100952Y-58618095D01*
X130910476Y-58570476D01*
X130815238Y-58522857D01*
X130720000Y-58427619D01*
X130672380Y-58284761D01*
X130672380Y-58189523D01*
X130720000Y-58046666D01*
X130767619Y-57999047D01*
X131672380Y-57094285D02*
X131672380Y-57570476D01*
X130672380Y-57570476D01*
X129034761Y-59614285D02*
X129082380Y-59471428D01*
X129082380Y-59233333D01*
X129034761Y-59138095D01*
X128987142Y-59090476D01*
X128891904Y-59042857D01*
X128796666Y-59042857D01*
X128701428Y-59090476D01*
X128653809Y-59138095D01*
X128606190Y-59233333D01*
X128558571Y-59423809D01*
X128510952Y-59519047D01*
X128463333Y-59566666D01*
X128368095Y-59614285D01*
X128272857Y-59614285D01*
X128177619Y-59566666D01*
X128130000Y-59519047D01*
X128082380Y-59423809D01*
X128082380Y-59185714D01*
X128130000Y-59042857D01*
X129082380Y-58614285D02*
X128082380Y-58614285D01*
X128082380Y-58376190D01*
X128130000Y-58233333D01*
X128225238Y-58138095D01*
X128320476Y-58090476D01*
X128510952Y-58042857D01*
X128653809Y-58042857D01*
X128844285Y-58090476D01*
X128939523Y-58138095D01*
X129034761Y-58233333D01*
X129082380Y-58376190D01*
X129082380Y-58614285D01*
X128796666Y-57661904D02*
X128796666Y-57185714D01*
X129082380Y-57757142D02*
X128082380Y-57423809D01*
X129082380Y-57090476D01*
X147054285Y-128995714D02*
X147054285Y-129662380D01*
X146816190Y-128614761D02*
X146578095Y-129329047D01*
X147197142Y-129329047D01*
X147768571Y-128662380D02*
X147863809Y-128662380D01*
X147959047Y-128710000D01*
X148006666Y-128757619D01*
X148054285Y-128852857D01*
X148101904Y-129043333D01*
X148101904Y-129281428D01*
X148054285Y-129471904D01*
X148006666Y-129567142D01*
X147959047Y-129614761D01*
X147863809Y-129662380D01*
X147768571Y-129662380D01*
X147673333Y-129614761D01*
X147625714Y-129567142D01*
X147578095Y-129471904D01*
X147530476Y-129281428D01*
X147530476Y-129043333D01*
X147578095Y-128852857D01*
X147625714Y-128757619D01*
X147673333Y-128710000D01*
X147768571Y-128662380D01*
X146570476Y-131192380D02*
X147189523Y-131192380D01*
X146856190Y-131573333D01*
X146999047Y-131573333D01*
X147094285Y-131620952D01*
X147141904Y-131668571D01*
X147189523Y-131763809D01*
X147189523Y-132001904D01*
X147141904Y-132097142D01*
X147094285Y-132144761D01*
X146999047Y-132192380D01*
X146713333Y-132192380D01*
X146618095Y-132144761D01*
X146570476Y-132097142D01*
X147665714Y-132192380D02*
X147856190Y-132192380D01*
X147951428Y-132144761D01*
X147999047Y-132097142D01*
X148094285Y-131954285D01*
X148141904Y-131763809D01*
X148141904Y-131382857D01*
X148094285Y-131287619D01*
X148046666Y-131240000D01*
X147951428Y-131192380D01*
X147760952Y-131192380D01*
X147665714Y-131240000D01*
X147618095Y-131287619D01*
X147570476Y-131382857D01*
X147570476Y-131620952D01*
X147618095Y-131716190D01*
X147665714Y-131763809D01*
X147760952Y-131811428D01*
X147951428Y-131811428D01*
X148046666Y-131763809D01*
X148094285Y-131716190D01*
X148141904Y-131620952D01*
X93684285Y-128857619D02*
X93731904Y-128810000D01*
X93827142Y-128762380D01*
X94065238Y-128762380D01*
X94160476Y-128810000D01*
X94208095Y-128857619D01*
X94255714Y-128952857D01*
X94255714Y-129048095D01*
X94208095Y-129190952D01*
X93636666Y-129762380D01*
X94255714Y-129762380D01*
X94295714Y-132262380D02*
X93724285Y-132262380D01*
X94010000Y-132262380D02*
X94010000Y-131262380D01*
X93914761Y-131405238D01*
X93819523Y-131500476D01*
X93724285Y-131548095D01*
X85305995Y-123883800D02*
X85210757Y-123836180D01*
X85067900Y-123836180D01*
X84925042Y-123883800D01*
X84829804Y-123979038D01*
X84782185Y-124074276D01*
X84734566Y-124264752D01*
X84734566Y-124407609D01*
X84782185Y-124598085D01*
X84829804Y-124693323D01*
X84925042Y-124788561D01*
X85067900Y-124836180D01*
X85163138Y-124836180D01*
X85305995Y-124788561D01*
X85353614Y-124740942D01*
X85353614Y-124407609D01*
X85163138Y-124407609D01*
X85782185Y-124836180D02*
X85782185Y-123836180D01*
X86353614Y-124836180D01*
X86353614Y-123836180D01*
X86829804Y-124836180D02*
X86829804Y-123836180D01*
X87067900Y-123836180D01*
X87210757Y-123883800D01*
X87305995Y-123979038D01*
X87353614Y-124074276D01*
X87401233Y-124264752D01*
X87401233Y-124407609D01*
X87353614Y-124598085D01*
X87305995Y-124693323D01*
X87210757Y-124788561D01*
X87067900Y-124836180D01*
X86829804Y-124836180D01*
X85314185Y-126439680D02*
X84837995Y-126439680D01*
X84790376Y-126915871D01*
X84837995Y-126868252D01*
X84933233Y-126820633D01*
X85171328Y-126820633D01*
X85266566Y-126868252D01*
X85314185Y-126915871D01*
X85361804Y-127011109D01*
X85361804Y-127249204D01*
X85314185Y-127344442D01*
X85266566Y-127392061D01*
X85171328Y-127439680D01*
X84933233Y-127439680D01*
X84837995Y-127392061D01*
X84790376Y-127344442D01*
X85647519Y-126439680D02*
X85980852Y-127439680D01*
X86314185Y-126439680D01*
X86409423Y-127534919D02*
X87171328Y-127534919D01*
X87742757Y-126915871D02*
X87885614Y-126963490D01*
X87933233Y-127011109D01*
X87980852Y-127106347D01*
X87980852Y-127249204D01*
X87933233Y-127344442D01*
X87885614Y-127392061D01*
X87790376Y-127439680D01*
X87409423Y-127439680D01*
X87409423Y-126439680D01*
X87742757Y-126439680D01*
X87837995Y-126487300D01*
X87885614Y-126534919D01*
X87933233Y-126630157D01*
X87933233Y-126725395D01*
X87885614Y-126820633D01*
X87837995Y-126868252D01*
X87742757Y-126915871D01*
X87409423Y-126915871D01*
X88837995Y-126773014D02*
X88837995Y-127439680D01*
X88409423Y-126773014D02*
X88409423Y-127296823D01*
X88457042Y-127392061D01*
X88552280Y-127439680D01*
X88695138Y-127439680D01*
X88790376Y-127392061D01*
X88837995Y-127344442D01*
X89266566Y-127392061D02*
X89361804Y-127439680D01*
X89552280Y-127439680D01*
X89647519Y-127392061D01*
X89695138Y-127296823D01*
X89695138Y-127249204D01*
X89647519Y-127153966D01*
X89552280Y-127106347D01*
X89409423Y-127106347D01*
X89314185Y-127058728D01*
X89266566Y-126963490D01*
X89266566Y-126915871D01*
X89314185Y-126820633D01*
X89409423Y-126773014D01*
X89552280Y-126773014D01*
X89647519Y-126820633D01*
X89885614Y-127534919D02*
X90647519Y-127534919D01*
X90837995Y-126534919D02*
X90885614Y-126487300D01*
X90980852Y-126439680D01*
X91218947Y-126439680D01*
X91314185Y-126487300D01*
X91361804Y-126534919D01*
X91409423Y-126630157D01*
X91409423Y-126725395D01*
X91361804Y-126868252D01*
X90790376Y-127439680D01*
X91409423Y-127439680D01*
X84929957Y-129966980D02*
X85120433Y-129966980D01*
X85215671Y-129919361D01*
X85263290Y-129871742D01*
X85358528Y-129728885D01*
X85406147Y-129538409D01*
X85406147Y-129157457D01*
X85358528Y-129062219D01*
X85310909Y-129014600D01*
X85215671Y-128966980D01*
X85025195Y-128966980D01*
X84929957Y-129014600D01*
X84882338Y-129062219D01*
X84834719Y-129157457D01*
X84834719Y-129395552D01*
X84882338Y-129490790D01*
X84929957Y-129538409D01*
X85025195Y-129586028D01*
X85215671Y-129586028D01*
X85310909Y-129538409D01*
X85358528Y-129490790D01*
X85406147Y-129395552D01*
X85691861Y-128966980D02*
X86025195Y-129966980D01*
X86358528Y-128966980D01*
X86453766Y-130062219D02*
X87215671Y-130062219D01*
X87787100Y-129443171D02*
X87929957Y-129490790D01*
X87977576Y-129538409D01*
X88025195Y-129633647D01*
X88025195Y-129776504D01*
X87977576Y-129871742D01*
X87929957Y-129919361D01*
X87834719Y-129966980D01*
X87453766Y-129966980D01*
X87453766Y-128966980D01*
X87787100Y-128966980D01*
X87882338Y-129014600D01*
X87929957Y-129062219D01*
X87977576Y-129157457D01*
X87977576Y-129252695D01*
X87929957Y-129347933D01*
X87882338Y-129395552D01*
X87787100Y-129443171D01*
X87453766Y-129443171D01*
X88882338Y-129300314D02*
X88882338Y-129966980D01*
X88453766Y-129300314D02*
X88453766Y-129824123D01*
X88501385Y-129919361D01*
X88596623Y-129966980D01*
X88739480Y-129966980D01*
X88834719Y-129919361D01*
X88882338Y-129871742D01*
X89310909Y-129919361D02*
X89406147Y-129966980D01*
X89596623Y-129966980D01*
X89691861Y-129919361D01*
X89739480Y-129824123D01*
X89739480Y-129776504D01*
X89691861Y-129681266D01*
X89596623Y-129633647D01*
X89453766Y-129633647D01*
X89358528Y-129586028D01*
X89310909Y-129490790D01*
X89310909Y-129443171D01*
X89358528Y-129347933D01*
X89453766Y-129300314D01*
X89596623Y-129300314D01*
X89691861Y-129347933D01*
X85276085Y-131354580D02*
X84799895Y-131354580D01*
X84752276Y-131830771D01*
X84799895Y-131783152D01*
X84895133Y-131735533D01*
X85133228Y-131735533D01*
X85228466Y-131783152D01*
X85276085Y-131830771D01*
X85323704Y-131926009D01*
X85323704Y-132164104D01*
X85276085Y-132259342D01*
X85228466Y-132306961D01*
X85133228Y-132354580D01*
X84895133Y-132354580D01*
X84799895Y-132306961D01*
X84752276Y-132259342D01*
X85609419Y-131354580D02*
X85942752Y-132354580D01*
X86276085Y-131354580D01*
X86371323Y-132449819D02*
X87133228Y-132449819D01*
X87704657Y-131830771D02*
X87847514Y-131878390D01*
X87895133Y-131926009D01*
X87942752Y-132021247D01*
X87942752Y-132164104D01*
X87895133Y-132259342D01*
X87847514Y-132306961D01*
X87752276Y-132354580D01*
X87371323Y-132354580D01*
X87371323Y-131354580D01*
X87704657Y-131354580D01*
X87799895Y-131402200D01*
X87847514Y-131449819D01*
X87895133Y-131545057D01*
X87895133Y-131640295D01*
X87847514Y-131735533D01*
X87799895Y-131783152D01*
X87704657Y-131830771D01*
X87371323Y-131830771D01*
X88799895Y-131687914D02*
X88799895Y-132354580D01*
X88371323Y-131687914D02*
X88371323Y-132211723D01*
X88418942Y-132306961D01*
X88514180Y-132354580D01*
X88657038Y-132354580D01*
X88752276Y-132306961D01*
X88799895Y-132259342D01*
X89228466Y-132306961D02*
X89323704Y-132354580D01*
X89514180Y-132354580D01*
X89609419Y-132306961D01*
X89657038Y-132211723D01*
X89657038Y-132164104D01*
X89609419Y-132068866D01*
X89514180Y-132021247D01*
X89371323Y-132021247D01*
X89276085Y-131973628D01*
X89228466Y-131878390D01*
X89228466Y-131830771D01*
X89276085Y-131735533D01*
X89371323Y-131687914D01*
X89514180Y-131687914D01*
X89609419Y-131735533D01*
X89847514Y-132449819D02*
X90609419Y-132449819D01*
X91371323Y-132354580D02*
X90799895Y-132354580D01*
X91085609Y-132354580D02*
X91085609Y-131354580D01*
X90990371Y-131497438D01*
X90895133Y-131592676D01*
X90799895Y-131640295D01*
X78968600Y-43967400D02*
X78917800Y-147980400D01*
X202539600Y-147980400D02*
X78917800Y-147980400D01*
X202920600Y-147980400D02*
X202539600Y-147980400D01*
X202971400Y-44323000D02*
X202920600Y-147980400D01*
X202971400Y-43967400D02*
X202971400Y-44323000D01*
X79324200Y-43967400D02*
X202971400Y-43967400D01*
X78968600Y-43967400D02*
X79324200Y-43967400D01*
X78968600Y-43967400D02*
X79222600Y-43967400D01*
X131801600Y-40900123D02*
X129515885Y-40900123D01*
X130658742Y-40900123D02*
X130658742Y-36900123D01*
X130277790Y-37471552D01*
X129896838Y-37852504D01*
X129515885Y-38042980D01*
X135611123Y-40900123D02*
X133325409Y-40900123D01*
X134468266Y-40900123D02*
X134468266Y-36900123D01*
X134087314Y-37471552D01*
X133706361Y-37852504D01*
X133325409Y-38042980D01*
X138087314Y-36900123D02*
X138468266Y-36900123D01*
X138849219Y-37090600D01*
X139039695Y-37281076D01*
X139230171Y-37662028D01*
X139420647Y-38423933D01*
X139420647Y-39376314D01*
X139230171Y-40138219D01*
X139039695Y-40519171D01*
X138849219Y-40709647D01*
X138468266Y-40900123D01*
X138087314Y-40900123D01*
X137706361Y-40709647D01*
X137515885Y-40519171D01*
X137325409Y-40138219D01*
X137134933Y-39376314D01*
X137134933Y-38423933D01*
X137325409Y-37662028D01*
X137515885Y-37281076D01*
X137706361Y-37090600D01*
X138087314Y-36900123D01*
X141134933Y-40900123D02*
X141134933Y-38233457D01*
X141134933Y-38614409D02*
X141325409Y-38423933D01*
X141706361Y-38233457D01*
X142277790Y-38233457D01*
X142658742Y-38423933D01*
X142849219Y-38804885D01*
X142849219Y-40900123D01*
X142849219Y-38804885D02*
X143039695Y-38423933D01*
X143420647Y-38233457D01*
X143992076Y-38233457D01*
X144373028Y-38423933D01*
X144563504Y-38804885D01*
X144563504Y-40900123D01*
X146468266Y-40900123D02*
X146468266Y-38233457D01*
X146468266Y-38614409D02*
X146658742Y-38423933D01*
X147039695Y-38233457D01*
X147611123Y-38233457D01*
X147992076Y-38423933D01*
X148182552Y-38804885D01*
X148182552Y-40900123D01*
X148182552Y-38804885D02*
X148373028Y-38423933D01*
X148753980Y-38233457D01*
X149325409Y-38233457D01*
X149706361Y-38423933D01*
X149896838Y-38804885D01*
X149896838Y-40900123D01*
X59106800Y-86061323D02*
X59868704Y-86061323D01*
X60249657Y-85870847D01*
X60440133Y-85680371D01*
X60821085Y-85108942D01*
X61011561Y-84347038D01*
X61011561Y-82823228D01*
X60821085Y-82442276D01*
X60630609Y-82251800D01*
X60249657Y-82061323D01*
X59487752Y-82061323D01*
X59106800Y-82251800D01*
X58916323Y-82442276D01*
X58725847Y-82823228D01*
X58725847Y-83775609D01*
X58916323Y-84156561D01*
X59106800Y-84347038D01*
X59487752Y-84537514D01*
X60249657Y-84537514D01*
X60630609Y-84347038D01*
X60821085Y-84156561D01*
X61011561Y-83775609D01*
X63487752Y-82061323D02*
X63868704Y-82061323D01*
X64249657Y-82251800D01*
X64440133Y-82442276D01*
X64630609Y-82823228D01*
X64821085Y-83585133D01*
X64821085Y-84537514D01*
X64630609Y-85299419D01*
X64440133Y-85680371D01*
X64249657Y-85870847D01*
X63868704Y-86061323D01*
X63487752Y-86061323D01*
X63106800Y-85870847D01*
X62916323Y-85680371D01*
X62725847Y-85299419D01*
X62535371Y-84537514D01*
X62535371Y-83585133D01*
X62725847Y-82823228D01*
X62916323Y-82442276D01*
X63106800Y-82251800D01*
X63487752Y-82061323D01*
X66535371Y-86061323D02*
X66535371Y-83394657D01*
X66535371Y-83775609D02*
X66725847Y-83585133D01*
X67106800Y-83394657D01*
X67678228Y-83394657D01*
X68059180Y-83585133D01*
X68249657Y-83966085D01*
X68249657Y-86061323D01*
X68249657Y-83966085D02*
X68440133Y-83585133D01*
X68821085Y-83394657D01*
X69392514Y-83394657D01*
X69773466Y-83585133D01*
X69963942Y-83966085D01*
X69963942Y-86061323D01*
X71868704Y-86061323D02*
X71868704Y-83394657D01*
X71868704Y-83775609D02*
X72059180Y-83585133D01*
X72440133Y-83394657D01*
X73011561Y-83394657D01*
X73392514Y-83585133D01*
X73582990Y-83966085D01*
X73582990Y-86061323D01*
X73582990Y-83966085D02*
X73773466Y-83585133D01*
X74154419Y-83394657D01*
X74725847Y-83394657D01*
X75106800Y-83585133D01*
X75297276Y-83966085D01*
X75297276Y-86061323D01*
X119984780Y-94329285D02*
X119984780Y-94900714D01*
X119984780Y-94615000D02*
X118984780Y-94615000D01*
X119127638Y-94710238D01*
X119222876Y-94805476D01*
X119270495Y-94900714D01*
D12*
X125196600Y-110618400D02*
X125196600Y-109848400D01*
X125196600Y-102538400D02*
X125196600Y-103308400D01*
X126566600Y-109848400D02*
X126566600Y-103308400D01*
X123826600Y-109848400D02*
X126566600Y-109848400D01*
X123826600Y-103308400D02*
X123826600Y-109848400D01*
X126566600Y-103308400D02*
X123826600Y-103308400D01*
X126550000Y-67540000D02*
X126550000Y-68310000D01*
X126550000Y-75620000D02*
X126550000Y-74850000D01*
X125180000Y-68310000D02*
X125180000Y-74850000D01*
X127920000Y-68310000D02*
X125180000Y-68310000D01*
X127920000Y-74850000D02*
X127920000Y-68310000D01*
X125180000Y-74850000D02*
X127920000Y-74850000D01*
X105890000Y-67570000D02*
X105890000Y-68340000D01*
X105890000Y-75650000D02*
X105890000Y-74880000D01*
X104520000Y-68340000D02*
X104520000Y-74880000D01*
X107260000Y-68340000D02*
X104520000Y-68340000D01*
X107260000Y-74880000D02*
X107260000Y-68340000D01*
X104520000Y-74880000D02*
X107260000Y-74880000D01*
X112400000Y-67570000D02*
X112400000Y-68340000D01*
X112400000Y-75650000D02*
X112400000Y-74880000D01*
X111030000Y-68340000D02*
X111030000Y-74880000D01*
X113770000Y-68340000D02*
X111030000Y-68340000D01*
X113770000Y-74880000D02*
X113770000Y-68340000D01*
X111030000Y-74880000D02*
X113770000Y-74880000D01*
X126580000Y-80780000D02*
X126580000Y-81470000D01*
X126580000Y-86200000D02*
X126580000Y-85510000D01*
X125160000Y-81470000D02*
X125160000Y-85510000D01*
X128000000Y-81470000D02*
X125160000Y-81470000D01*
X128000000Y-85510000D02*
X128000000Y-81470000D01*
X125160000Y-85510000D02*
X128000000Y-85510000D01*
X105910000Y-80770000D02*
X105910000Y-81460000D01*
X105910000Y-86190000D02*
X105910000Y-85500000D01*
X104490000Y-81460000D02*
X104490000Y-85500000D01*
X107330000Y-81460000D02*
X104490000Y-81460000D01*
X107330000Y-85500000D02*
X107330000Y-81460000D01*
X104490000Y-85500000D02*
X107330000Y-85500000D01*
X112420000Y-80800000D02*
X112420000Y-81490000D01*
X112420000Y-86220000D02*
X112420000Y-85530000D01*
X111000000Y-81490000D02*
X111000000Y-85530000D01*
X113840000Y-81490000D02*
X111000000Y-81490000D01*
X113840000Y-85530000D02*
X113840000Y-81490000D01*
X111000000Y-85530000D02*
X113840000Y-85530000D01*
X95164600Y-133105200D02*
X95164600Y-131775200D01*
X96494600Y-133105200D02*
X95164600Y-133105200D01*
X95164600Y-130505200D02*
X95164600Y-127905200D01*
X97764600Y-130505200D02*
X95164600Y-130505200D01*
X97764600Y-133105200D02*
X97764600Y-130505200D01*
X95164600Y-127905200D02*
X146084600Y-127905200D01*
X97764600Y-133105200D02*
X146084600Y-133105200D01*
X146084600Y-133105200D02*
X146084600Y-127905200D01*
X119380000Y-67550000D02*
X119380000Y-68320000D01*
X119380000Y-75630000D02*
X119380000Y-74860000D01*
X118010000Y-68320000D02*
X118010000Y-74860000D01*
X120750000Y-68320000D02*
X118010000Y-68320000D01*
X120750000Y-74860000D02*
X120750000Y-68320000D01*
X118010000Y-74860000D02*
X120750000Y-74860000D01*
X119350000Y-80800000D02*
X119350000Y-81490000D01*
X119350000Y-86220000D02*
X119350000Y-85530000D01*
X117930000Y-81490000D02*
X117930000Y-85530000D01*
X120770000Y-81490000D02*
X117930000Y-81490000D01*
X120770000Y-85530000D02*
X120770000Y-81490000D01*
X117930000Y-85530000D02*
X120770000Y-85530000D01*
X83753000Y-133252520D02*
X82423000Y-133252520D01*
X83753000Y-131922520D02*
X83753000Y-133252520D01*
X83753000Y-130652520D02*
X81093000Y-130652520D01*
X81093000Y-130652520D02*
X81093000Y-122972520D01*
X83753000Y-130652520D02*
X83753000Y-122972520D01*
X83753000Y-122972520D02*
X81093000Y-122972520D01*
X167097200Y-105945600D02*
X167097200Y-100505600D01*
X166857200Y-105945600D02*
X166857200Y-100505600D01*
X166977200Y-105945600D02*
X166977200Y-100505600D01*
X158782200Y-100505600D02*
X158782200Y-101385600D01*
X168522200Y-100505600D02*
X158782200Y-100505600D01*
X168522200Y-101385600D02*
X168522200Y-100505600D01*
X158782200Y-105945600D02*
X158782200Y-105065600D01*
X168522200Y-105945600D02*
X158782200Y-105945600D01*
X168522200Y-105065600D02*
X168522200Y-105945600D01*
X187563000Y-100454800D02*
X187563000Y-105894800D01*
X187803000Y-100454800D02*
X187803000Y-105894800D01*
X187683000Y-100454800D02*
X187683000Y-105894800D01*
X195878000Y-105894800D02*
X195878000Y-105014800D01*
X186138000Y-105894800D02*
X195878000Y-105894800D01*
X186138000Y-105014800D02*
X186138000Y-105894800D01*
X195878000Y-100454800D02*
X195878000Y-101334800D01*
X186138000Y-100454800D02*
X195878000Y-100454800D01*
X186138000Y-101334800D02*
X186138000Y-100454800D01*
X127321000Y-62594800D02*
X127321000Y-61264800D01*
X128651000Y-62594800D02*
X127321000Y-62594800D01*
X129921000Y-62594800D02*
X129921000Y-59934800D01*
X129921000Y-59934800D02*
X150301000Y-59934800D01*
X129921000Y-62594800D02*
X150301000Y-62594800D01*
X150301000Y-62594800D02*
X150301000Y-59934800D01*
X81474000Y-113577680D02*
X81474000Y-112247680D01*
X82804000Y-113577680D02*
X81474000Y-113577680D01*
X84074000Y-113577680D02*
X84074000Y-110917680D01*
X84074000Y-110917680D02*
X91754000Y-110917680D01*
X84074000Y-113577680D02*
X91754000Y-113577680D01*
X91754000Y-113577680D02*
X91754000Y-110917680D01*
X82726400Y-120103900D02*
X83496400Y-120103900D01*
X90806400Y-120103900D02*
X90036400Y-120103900D01*
X83496400Y-121473900D02*
X90036400Y-121473900D01*
X83496400Y-118733900D02*
X83496400Y-121473900D01*
X90036400Y-118733900D02*
X83496400Y-118733900D01*
X90036400Y-121473900D02*
X90036400Y-118733900D01*
X82680680Y-116423440D02*
X83450680Y-116423440D01*
X90760680Y-116423440D02*
X89990680Y-116423440D01*
X83450680Y-117793440D02*
X89990680Y-117793440D01*
X83450680Y-115053440D02*
X83450680Y-117793440D01*
X89990680Y-115053440D02*
X83450680Y-115053440D01*
X89990680Y-117793440D02*
X89990680Y-115053440D01*
X81524800Y-107603600D02*
X81524800Y-106273600D01*
X82854800Y-107603600D02*
X81524800Y-107603600D01*
X84124800Y-107603600D02*
X84124800Y-104943600D01*
X84124800Y-104943600D02*
X91804800Y-104943600D01*
X84124800Y-107603600D02*
X91804800Y-107603600D01*
X91804800Y-107603600D02*
X91804800Y-104943600D01*
X165674130Y-139645656D02*
G75*
G02X167308911Y-137697400I1634781J288256D01*
G01*
X189707070Y-139645656D02*
G75*
G03X188072289Y-137697400I-1634781J288256D01*
G01*
X166573398Y-144745656D02*
G75*
G03X168208179Y-146117400I1634781J288256D01*
G01*
X188807802Y-144745656D02*
G75*
G02X187173021Y-146117400I-1634781J288256D01*
G01*
X167308911Y-137697400D02*
X188072289Y-137697400D01*
X168208179Y-146117400D02*
X187173021Y-146117400D01*
X189707070Y-139645656D02*
X188807802Y-144745656D01*
X165674130Y-139645656D02*
X166573398Y-144745656D01*
X92809530Y-139569456D02*
G75*
G02X94444311Y-137621200I1634781J288256D01*
G01*
X147042470Y-139569456D02*
G75*
G03X145407689Y-137621200I-1634781J288256D01*
G01*
X93708798Y-144669456D02*
G75*
G03X95343579Y-146041200I1634781J288256D01*
G01*
X146143202Y-144669456D02*
G75*
G02X144508421Y-146041200I-1634781J288256D01*
G01*
X94444311Y-137621200D02*
X145407689Y-137621200D01*
X95343579Y-146041200D02*
X144508421Y-146041200D01*
X147042470Y-139569456D02*
X146143202Y-144669456D01*
X92809530Y-139569456D02*
X93708798Y-144669456D01*
X109269400Y-124917200D02*
X110039400Y-124917200D01*
X117349400Y-124917200D02*
X116579400Y-124917200D01*
X110039400Y-126287200D02*
X116579400Y-126287200D01*
X110039400Y-123547200D02*
X110039400Y-126287200D01*
X116579400Y-123547200D02*
X110039400Y-123547200D01*
X116579400Y-126287200D02*
X116579400Y-123547200D01*
X109244000Y-121107200D02*
X110014000Y-121107200D01*
X117324000Y-121107200D02*
X116554000Y-121107200D01*
X110014000Y-122477200D02*
X116554000Y-122477200D01*
X110014000Y-119737200D02*
X110014000Y-122477200D01*
X116554000Y-119737200D02*
X110014000Y-119737200D01*
X116554000Y-122477200D02*
X116554000Y-119737200D01*
X122502800Y-124917200D02*
X123272800Y-124917200D01*
X130582800Y-124917200D02*
X129812800Y-124917200D01*
X123272800Y-126287200D02*
X129812800Y-126287200D01*
X123272800Y-123547200D02*
X123272800Y-126287200D01*
X129812800Y-123547200D02*
X123272800Y-123547200D01*
X129812800Y-126287200D02*
X129812800Y-123547200D01*
X121259600Y-110593000D02*
X121259600Y-109823000D01*
X121259600Y-102513000D02*
X121259600Y-103283000D01*
X122629600Y-109823000D02*
X122629600Y-103283000D01*
X119889600Y-109823000D02*
X122629600Y-109823000D01*
X119889600Y-103283000D02*
X119889600Y-109823000D01*
X122629600Y-103283000D02*
X119889600Y-103283000D01*
X113969800Y-108634400D02*
X113969800Y-109404400D01*
X113969800Y-116714400D02*
X113969800Y-115944400D01*
X112599800Y-109404400D02*
X112599800Y-115944400D01*
X115339800Y-109404400D02*
X112599800Y-109404400D01*
X115339800Y-115944400D02*
X115339800Y-109404400D01*
X112599800Y-115944400D02*
X115339800Y-115944400D01*
X174269400Y-102793000D02*
X174269400Y-102573000D01*
X175489400Y-104013000D02*
G75*
G03X175489400Y-104013000I-1220000J0D01*
G01*
X179197000Y-102818400D02*
X179197000Y-102598400D01*
X180417000Y-104038400D02*
G75*
G03X180417000Y-104038400I-1220000J0D01*
G01*
X151841200Y-145288000D02*
X151841200Y-135077200D01*
X151841200Y-145288000D02*
X162052000Y-145288000D01*
X162052000Y-145288000D02*
X162052000Y-135077200D01*
X151841200Y-135077200D02*
X162052000Y-135077200D01*
X189458600Y-133807200D02*
X179247800Y-133807200D01*
X189458600Y-133807200D02*
X189458600Y-123596400D01*
X189458600Y-123596400D02*
X179247800Y-123596400D01*
X179247800Y-133807200D02*
X179247800Y-123596400D01*
X189407800Y-121513600D02*
X179197000Y-121513600D01*
X189407800Y-121513600D02*
X189407800Y-111302800D01*
X189407800Y-111302800D02*
X179197000Y-111302800D01*
X179197000Y-121513600D02*
X179197000Y-111302800D01*
X200374000Y-131996000D02*
X198864000Y-131996000D01*
X200374000Y-128296000D02*
X198864000Y-128296000D01*
X198864000Y-125025000D02*
X198864000Y-135266000D01*
X200374000Y-135266000D02*
X195733000Y-135266000D01*
X200374000Y-125025000D02*
X195733000Y-125025000D01*
X195733000Y-125025000D02*
X195733000Y-135266000D01*
X200374000Y-125025000D02*
X200374000Y-135266000D01*
X125815878Y-119872278D02*
G75*
G03X123977400Y-115433800I-1838478J1838478D01*
G01*
X122138922Y-119872278D02*
G75*
G02X123977400Y-115433800I1838478J1838478D01*
G01*
X122177400Y-119883800D02*
X125777400Y-119883800D01*
X116290878Y-106003878D02*
G75*
G03X114452400Y-101565400I-1838478J1838478D01*
G01*
X112613922Y-106003878D02*
G75*
G02X114452400Y-101565400I1838478J1838478D01*
G01*
X112652400Y-106015400D02*
X116252400Y-106015400D01*
X147675600Y-101930200D02*
X145770600Y-101930200D01*
X132364800Y-108280200D02*
G75*
G03X132364800Y-108280200I-1250000J0D01*
G01*
X132364800Y-118440200D02*
G75*
G03X132364800Y-118440200I-1250000J0D01*
G01*
X146385600Y-118440200D02*
G75*
G03X146385600Y-118440200I-1250000J0D01*
G01*
X146385600Y-108280200D02*
G75*
G03X146385600Y-108280200I-1250000J0D01*
G01*
X128625600Y-101930200D02*
X147675600Y-101930200D01*
X128625600Y-120980200D02*
X128625600Y-101930200D01*
X147675600Y-120980200D02*
X128625600Y-120980200D01*
X147675600Y-101930200D02*
X147675600Y-120980200D01*
X97205800Y-104368600D02*
X98475800Y-104368600D01*
X97205800Y-103098600D02*
X97205800Y-104368600D01*
X97205800Y-118338600D02*
X97205800Y-103098600D01*
X109905800Y-118338600D02*
X97205800Y-118338600D01*
X109905800Y-103098600D02*
X109905800Y-118338600D01*
X97205800Y-103098600D02*
X109905800Y-103098600D01*
X200551800Y-116044800D02*
X199041800Y-116044800D01*
X200551800Y-112344800D02*
X199041800Y-112344800D01*
X199041800Y-109073800D02*
X199041800Y-119314800D01*
X200551800Y-119314800D02*
X195910800Y-119314800D01*
X200551800Y-109073800D02*
X195910800Y-109073800D01*
X195910800Y-109073800D02*
X195910800Y-119314800D01*
X200551800Y-109073800D02*
X200551800Y-119314800D01*
X167182800Y-111734600D02*
G75*
G03X167182800Y-111734600I-1090000J0D01*
G01*
X153718600Y-125046400D02*
G75*
G03X153718600Y-125046400I-1090000J0D01*
G01*
X168325800Y-109499400D02*
X168325800Y-127279400D01*
X150545800Y-109499400D02*
X168325800Y-109499400D01*
X150545800Y-127279400D02*
X150545800Y-109499400D01*
X168325800Y-127279400D02*
X150545800Y-127279400D01*
D11*
X189382400Y-93345000D02*
X189382400Y-47625000D01*
X184302400Y-47625000D02*
X184302400Y-90805000D01*
X189382400Y-47625000D02*
X184302400Y-47625000D01*
X189382400Y-93345000D02*
X186842400Y-93345000D01*
X184022400Y-92075000D02*
X184022400Y-93625000D01*
X186842400Y-93345000D02*
X186842400Y-90805000D01*
X186842400Y-90805000D02*
X184302400Y-90805000D01*
X184022400Y-93625000D02*
X185572400Y-93625000D01*
X120802400Y-98425000D02*
X138582400Y-98425000D01*
X138582400Y-98425000D02*
X138582400Y-95885000D01*
X138582400Y-95885000D02*
X120802400Y-95885000D01*
X117982400Y-98705000D02*
X119532400Y-98705000D01*
X120802400Y-98425000D02*
X120802400Y-95885000D01*
X119532400Y-95605000D02*
X117982400Y-95605000D01*
X117982400Y-95605000D02*
X117982400Y-98705000D01*
X143662400Y-98425000D02*
X161442400Y-98425000D01*
X161442400Y-98425000D02*
X161442400Y-95885000D01*
X161442400Y-95885000D02*
X143662400Y-95885000D01*
X140842400Y-98705000D02*
X142392400Y-98705000D01*
X143662400Y-98425000D02*
X143662400Y-95885000D01*
X142392400Y-95605000D02*
X140842400Y-95605000D01*
X140842400Y-95605000D02*
X140842400Y-98705000D01*
X166522400Y-98425000D02*
X184302400Y-98425000D01*
X184302400Y-98425000D02*
X184302400Y-95885000D01*
X184302400Y-95885000D02*
X166522400Y-95885000D01*
X163702400Y-98705000D02*
X165252400Y-98705000D01*
X166522400Y-98425000D02*
X166522400Y-95885000D01*
X165252400Y-95605000D02*
X163702400Y-95605000D01*
X163702400Y-95605000D02*
X163702400Y-98705000D01*
X111658400Y-50165000D02*
X134518400Y-50165000D01*
X134518400Y-50165000D02*
X134518400Y-47625000D01*
X134518400Y-47625000D02*
X111658400Y-47625000D01*
X108838400Y-50445000D02*
X110388400Y-50445000D01*
X111658400Y-50165000D02*
X111658400Y-47625000D01*
X110388400Y-47345000D02*
X108838400Y-47345000D01*
X108838400Y-47345000D02*
X108838400Y-50445000D01*
X138582400Y-50165000D02*
X156362400Y-50165000D01*
X156362400Y-50165000D02*
X156362400Y-47625000D01*
X156362400Y-47625000D02*
X138582400Y-47625000D01*
X135762400Y-50445000D02*
X137312400Y-50445000D01*
X138582400Y-50165000D02*
X138582400Y-47625000D01*
X137312400Y-47345000D02*
X135762400Y-47345000D01*
X135762400Y-47345000D02*
X135762400Y-50445000D01*
X161442400Y-50165000D02*
X179222400Y-50165000D01*
X179222400Y-50165000D02*
X179222400Y-47625000D01*
X179222400Y-47625000D02*
X161442400Y-47625000D01*
X158622400Y-50445000D02*
X160172400Y-50445000D01*
X161442400Y-50165000D02*
X161442400Y-47625000D01*
X160172400Y-47345000D02*
X158622400Y-47345000D01*
X158622400Y-47345000D02*
X158622400Y-50445000D01*
X107848400Y-97155000D02*
G75*
G03X107848400Y-97155000I-2286000J0D01*
G01*
X159918400Y-92075000D02*
G75*
G03X159918400Y-92075000I-2286000J0D01*
G01*
X190398400Y-97155000D02*
G75*
G03X190398400Y-97155000I-2286000J0D01*
G01*
X109118400Y-48895000D02*
G75*
G03X109118400Y-48895000I-2286000J0D01*
G01*
X159918400Y-64135000D02*
G75*
G03X159918400Y-64135000I-2286000J0D01*
G01*
X184048400Y-48895000D02*
G75*
G03X184048400Y-48895000I-2286000J0D01*
G01*
X144438095Y-111352380D02*
X144438095Y-110352380D01*
X144438095Y-110828571D02*
X145009523Y-110828571D01*
X145009523Y-111352380D02*
X145009523Y-110352380D01*
X145914285Y-110352380D02*
X145723809Y-110352380D01*
X145628571Y-110400000D01*
X145580952Y-110447619D01*
X145485714Y-110590476D01*
X145438095Y-110780952D01*
X145438095Y-111161904D01*
X145485714Y-111257142D01*
X145533333Y-111304761D01*
X145628571Y-111352380D01*
X145819047Y-111352380D01*
X145914285Y-111304761D01*
X145961904Y-111257142D01*
X146009523Y-111161904D01*
X146009523Y-110923809D01*
X145961904Y-110828571D01*
X145914285Y-110780952D01*
X145819047Y-110733333D01*
X145628571Y-110733333D01*
X145533333Y-110780952D01*
X145485714Y-110828571D01*
X145438095Y-110923809D01*
X130448095Y-111382380D02*
X130448095Y-110382380D01*
X130448095Y-110858571D02*
X131019523Y-110858571D01*
X131019523Y-111382380D02*
X131019523Y-110382380D01*
X131971904Y-110382380D02*
X131495714Y-110382380D01*
X131448095Y-110858571D01*
X131495714Y-110810952D01*
X131590952Y-110763333D01*
X131829047Y-110763333D01*
X131924285Y-110810952D01*
X131971904Y-110858571D01*
X132019523Y-110953809D01*
X132019523Y-111191904D01*
X131971904Y-111287142D01*
X131924285Y-111334761D01*
X131829047Y-111382380D01*
X131590952Y-111382380D01*
X131495714Y-111334761D01*
X131448095Y-111287142D01*
X130368095Y-116392380D02*
X130368095Y-115392380D01*
X130368095Y-115868571D02*
X130939523Y-115868571D01*
X130939523Y-116392380D02*
X130939523Y-115392380D01*
X131844285Y-115725714D02*
X131844285Y-116392380D01*
X131606190Y-115344761D02*
X131368095Y-116059047D01*
X131987142Y-116059047D01*
X165428095Y-114572380D02*
X165428095Y-113572380D01*
X165428095Y-114048571D02*
X165999523Y-114048571D01*
X165999523Y-114572380D02*
X165999523Y-113572380D01*
X166428095Y-113667619D02*
X166475714Y-113620000D01*
X166570952Y-113572380D01*
X166809047Y-113572380D01*
X166904285Y-113620000D01*
X166951904Y-113667619D01*
X166999523Y-113762857D01*
X166999523Y-113858095D01*
X166951904Y-114000952D01*
X166380476Y-114572380D01*
X166999523Y-114572380D01*
X151898095Y-123212380D02*
X151898095Y-122212380D01*
X151898095Y-122688571D02*
X152469523Y-122688571D01*
X152469523Y-123212380D02*
X152469523Y-122212380D01*
X153469523Y-123212380D02*
X152898095Y-123212380D01*
X153183809Y-123212380D02*
X153183809Y-122212380D01*
X153088571Y-122355238D01*
X152993333Y-122450476D01*
X152898095Y-122498095D01*
X144428095Y-116332380D02*
X144428095Y-115332380D01*
X144428095Y-115808571D02*
X144999523Y-115808571D01*
X144999523Y-116332380D02*
X144999523Y-115332380D01*
X145380476Y-115332380D02*
X145999523Y-115332380D01*
X145666190Y-115713333D01*
X145809047Y-115713333D01*
X145904285Y-115760952D01*
X145951904Y-115808571D01*
X145999523Y-115903809D01*
X145999523Y-116141904D01*
X145951904Y-116237142D01*
X145904285Y-116284761D01*
X145809047Y-116332380D01*
X145523333Y-116332380D01*
X145428095Y-116284761D01*
X145380476Y-116237142D01*
X131183142Y-101163380D02*
X130849809Y-100687190D01*
X130611714Y-101163380D02*
X130611714Y-100163380D01*
X130992666Y-100163380D01*
X131087904Y-100211000D01*
X131135523Y-100258619D01*
X131183142Y-100353857D01*
X131183142Y-100496714D01*
X131135523Y-100591952D01*
X131087904Y-100639571D01*
X130992666Y-100687190D01*
X130611714Y-100687190D01*
X132135523Y-101163380D02*
X131564095Y-101163380D01*
X131849809Y-101163380D02*
X131849809Y-100163380D01*
X131754571Y-100306238D01*
X131659333Y-100401476D01*
X131564095Y-100449095D01*
X132754571Y-100163380D02*
X132849809Y-100163380D01*
X132945047Y-100211000D01*
X132992666Y-100258619D01*
X133040285Y-100353857D01*
X133087904Y-100544333D01*
X133087904Y-100782428D01*
X133040285Y-100972904D01*
X132992666Y-101068142D01*
X132945047Y-101115761D01*
X132849809Y-101163380D01*
X132754571Y-101163380D01*
X132659333Y-101115761D01*
X132611714Y-101068142D01*
X132564095Y-100972904D01*
X132516476Y-100782428D01*
X132516476Y-100544333D01*
X132564095Y-100353857D01*
X132611714Y-100258619D01*
X132659333Y-100211000D01*
X132754571Y-100163380D01*
X127782723Y-101188780D02*
X127211295Y-101188780D01*
X127497009Y-101188780D02*
X127497009Y-100188780D01*
X127401771Y-100331638D01*
X127306533Y-100426876D01*
X127211295Y-100474495D01*
X128401771Y-100188780D02*
X128497009Y-100188780D01*
X128592247Y-100236400D01*
X128639866Y-100284019D01*
X128687485Y-100379257D01*
X128735104Y-100569733D01*
X128735104Y-100807828D01*
X128687485Y-100998304D01*
X128639866Y-101093542D01*
X128592247Y-101141161D01*
X128497009Y-101188780D01*
X128401771Y-101188780D01*
X128306533Y-101141161D01*
X128258914Y-101093542D01*
X128211295Y-100998304D01*
X128163676Y-100807828D01*
X128163676Y-100569733D01*
X128211295Y-100379257D01*
X128258914Y-100284019D01*
X128306533Y-100236400D01*
X128401771Y-100188780D01*
X129163676Y-101188780D02*
X129163676Y-100188780D01*
X129735104Y-101188780D02*
X129306533Y-100617352D01*
X129735104Y-100188780D02*
X129163676Y-100760209D01*
X124632380Y-71746666D02*
X124156190Y-72080000D01*
X124632380Y-72318095D02*
X123632380Y-72318095D01*
X123632380Y-71937142D01*
X123680000Y-71841904D01*
X123727619Y-71794285D01*
X123822857Y-71746666D01*
X123965714Y-71746666D01*
X124060952Y-71794285D01*
X124108571Y-71841904D01*
X124156190Y-71937142D01*
X124156190Y-72318095D01*
X123965714Y-70889523D02*
X124632380Y-70889523D01*
X123584761Y-71127619D02*
X124299047Y-71365714D01*
X124299047Y-70746666D01*
X128372380Y-71841904D02*
X128372380Y-72318095D01*
X128848571Y-72365714D01*
X128800952Y-72318095D01*
X128753333Y-72222857D01*
X128753333Y-71984761D01*
X128800952Y-71889523D01*
X128848571Y-71841904D01*
X128943809Y-71794285D01*
X129181904Y-71794285D01*
X129277142Y-71841904D01*
X129324761Y-71889523D01*
X129372380Y-71984761D01*
X129372380Y-72222857D01*
X129324761Y-72318095D01*
X129277142Y-72365714D01*
X129372380Y-71365714D02*
X128372380Y-71365714D01*
X129372380Y-70794285D02*
X128800952Y-71222857D01*
X128372380Y-70794285D02*
X128943809Y-71365714D01*
X103972380Y-71776666D02*
X103496190Y-72110000D01*
X103972380Y-72348095D02*
X102972380Y-72348095D01*
X102972380Y-71967142D01*
X103020000Y-71871904D01*
X103067619Y-71824285D01*
X103162857Y-71776666D01*
X103305714Y-71776666D01*
X103400952Y-71824285D01*
X103448571Y-71871904D01*
X103496190Y-71967142D01*
X103496190Y-72348095D01*
X103067619Y-71395714D02*
X103020000Y-71348095D01*
X102972380Y-71252857D01*
X102972380Y-71014761D01*
X103020000Y-70919523D01*
X103067619Y-70871904D01*
X103162857Y-70824285D01*
X103258095Y-70824285D01*
X103400952Y-70871904D01*
X103972380Y-71443333D01*
X103972380Y-70824285D01*
X107712380Y-71871904D02*
X107712380Y-72348095D01*
X108188571Y-72395714D01*
X108140952Y-72348095D01*
X108093333Y-72252857D01*
X108093333Y-72014761D01*
X108140952Y-71919523D01*
X108188571Y-71871904D01*
X108283809Y-71824285D01*
X108521904Y-71824285D01*
X108617142Y-71871904D01*
X108664761Y-71919523D01*
X108712380Y-72014761D01*
X108712380Y-72252857D01*
X108664761Y-72348095D01*
X108617142Y-72395714D01*
X108712380Y-71395714D02*
X107712380Y-71395714D01*
X108712380Y-70824285D02*
X108140952Y-71252857D01*
X107712380Y-70824285D02*
X108283809Y-71395714D01*
X110482380Y-71776666D02*
X110006190Y-72110000D01*
X110482380Y-72348095D02*
X109482380Y-72348095D01*
X109482380Y-71967142D01*
X109530000Y-71871904D01*
X109577619Y-71824285D01*
X109672857Y-71776666D01*
X109815714Y-71776666D01*
X109910952Y-71824285D01*
X109958571Y-71871904D01*
X110006190Y-71967142D01*
X110006190Y-72348095D01*
X110482380Y-70824285D02*
X110482380Y-71395714D01*
X110482380Y-71110000D02*
X109482380Y-71110000D01*
X109625238Y-71205238D01*
X109720476Y-71300476D01*
X109768095Y-71395714D01*
X114222380Y-71871904D02*
X114222380Y-72348095D01*
X114698571Y-72395714D01*
X114650952Y-72348095D01*
X114603333Y-72252857D01*
X114603333Y-72014761D01*
X114650952Y-71919523D01*
X114698571Y-71871904D01*
X114793809Y-71824285D01*
X115031904Y-71824285D01*
X115127142Y-71871904D01*
X115174761Y-71919523D01*
X115222380Y-72014761D01*
X115222380Y-72252857D01*
X115174761Y-72348095D01*
X115127142Y-72395714D01*
X115222380Y-71395714D02*
X114222380Y-71395714D01*
X115222380Y-70824285D02*
X114650952Y-71252857D01*
X114222380Y-70824285D02*
X114793809Y-71395714D01*
X124517142Y-83656666D02*
X124564761Y-83704285D01*
X124612380Y-83847142D01*
X124612380Y-83942380D01*
X124564761Y-84085238D01*
X124469523Y-84180476D01*
X124374285Y-84228095D01*
X124183809Y-84275714D01*
X124040952Y-84275714D01*
X123850476Y-84228095D01*
X123755238Y-84180476D01*
X123660000Y-84085238D01*
X123612380Y-83942380D01*
X123612380Y-83847142D01*
X123660000Y-83704285D01*
X123707619Y-83656666D01*
X123612380Y-83323333D02*
X123612380Y-82656666D01*
X124612380Y-83085238D01*
X129452380Y-84561428D02*
X129452380Y-85132857D01*
X129452380Y-84847142D02*
X128452380Y-84847142D01*
X128595238Y-84942380D01*
X128690476Y-85037619D01*
X128738095Y-85132857D01*
X128452380Y-83942380D02*
X128452380Y-83847142D01*
X128500000Y-83751904D01*
X128547619Y-83704285D01*
X128642857Y-83656666D01*
X128833333Y-83609047D01*
X129071428Y-83609047D01*
X129261904Y-83656666D01*
X129357142Y-83704285D01*
X129404761Y-83751904D01*
X129452380Y-83847142D01*
X129452380Y-83942380D01*
X129404761Y-84037619D01*
X129357142Y-84085238D01*
X129261904Y-84132857D01*
X129071428Y-84180476D01*
X128833333Y-84180476D01*
X128642857Y-84132857D01*
X128547619Y-84085238D01*
X128500000Y-84037619D01*
X128452380Y-83942380D01*
X128785714Y-82751904D02*
X129452380Y-82751904D01*
X128785714Y-83180476D02*
X129309523Y-83180476D01*
X129404761Y-83132857D01*
X129452380Y-83037619D01*
X129452380Y-82894761D01*
X129404761Y-82799523D01*
X129357142Y-82751904D01*
X128928571Y-81942380D02*
X128928571Y-82275714D01*
X129452380Y-82275714D02*
X128452380Y-82275714D01*
X128452380Y-81799523D01*
X103847142Y-83646666D02*
X103894761Y-83694285D01*
X103942380Y-83837142D01*
X103942380Y-83932380D01*
X103894761Y-84075238D01*
X103799523Y-84170476D01*
X103704285Y-84218095D01*
X103513809Y-84265714D01*
X103370952Y-84265714D01*
X103180476Y-84218095D01*
X103085238Y-84170476D01*
X102990000Y-84075238D01*
X102942380Y-83932380D01*
X102942380Y-83837142D01*
X102990000Y-83694285D01*
X103037619Y-83646666D01*
X103275714Y-82789523D02*
X103942380Y-82789523D01*
X102894761Y-83027619D02*
X103609047Y-83265714D01*
X103609047Y-82646666D01*
X108782380Y-84551428D02*
X108782380Y-85122857D01*
X108782380Y-84837142D02*
X107782380Y-84837142D01*
X107925238Y-84932380D01*
X108020476Y-85027619D01*
X108068095Y-85122857D01*
X107782380Y-83932380D02*
X107782380Y-83837142D01*
X107830000Y-83741904D01*
X107877619Y-83694285D01*
X107972857Y-83646666D01*
X108163333Y-83599047D01*
X108401428Y-83599047D01*
X108591904Y-83646666D01*
X108687142Y-83694285D01*
X108734761Y-83741904D01*
X108782380Y-83837142D01*
X108782380Y-83932380D01*
X108734761Y-84027619D01*
X108687142Y-84075238D01*
X108591904Y-84122857D01*
X108401428Y-84170476D01*
X108163333Y-84170476D01*
X107972857Y-84122857D01*
X107877619Y-84075238D01*
X107830000Y-84027619D01*
X107782380Y-83932380D01*
X108115714Y-82741904D02*
X108782380Y-82741904D01*
X108115714Y-83170476D02*
X108639523Y-83170476D01*
X108734761Y-83122857D01*
X108782380Y-83027619D01*
X108782380Y-82884761D01*
X108734761Y-82789523D01*
X108687142Y-82741904D01*
X108258571Y-81932380D02*
X108258571Y-82265714D01*
X108782380Y-82265714D02*
X107782380Y-82265714D01*
X107782380Y-81789523D01*
X110357142Y-83676666D02*
X110404761Y-83724285D01*
X110452380Y-83867142D01*
X110452380Y-83962380D01*
X110404761Y-84105238D01*
X110309523Y-84200476D01*
X110214285Y-84248095D01*
X110023809Y-84295714D01*
X109880952Y-84295714D01*
X109690476Y-84248095D01*
X109595238Y-84200476D01*
X109500000Y-84105238D01*
X109452380Y-83962380D01*
X109452380Y-83867142D01*
X109500000Y-83724285D01*
X109547619Y-83676666D01*
X109452380Y-83343333D02*
X109452380Y-82724285D01*
X109833333Y-83057619D01*
X109833333Y-82914761D01*
X109880952Y-82819523D01*
X109928571Y-82771904D01*
X110023809Y-82724285D01*
X110261904Y-82724285D01*
X110357142Y-82771904D01*
X110404761Y-82819523D01*
X110452380Y-82914761D01*
X110452380Y-83200476D01*
X110404761Y-83295714D01*
X110357142Y-83343333D01*
X115292380Y-84581428D02*
X115292380Y-85152857D01*
X115292380Y-84867142D02*
X114292380Y-84867142D01*
X114435238Y-84962380D01*
X114530476Y-85057619D01*
X114578095Y-85152857D01*
X114292380Y-83962380D02*
X114292380Y-83867142D01*
X114340000Y-83771904D01*
X114387619Y-83724285D01*
X114482857Y-83676666D01*
X114673333Y-83629047D01*
X114911428Y-83629047D01*
X115101904Y-83676666D01*
X115197142Y-83724285D01*
X115244761Y-83771904D01*
X115292380Y-83867142D01*
X115292380Y-83962380D01*
X115244761Y-84057619D01*
X115197142Y-84105238D01*
X115101904Y-84152857D01*
X114911428Y-84200476D01*
X114673333Y-84200476D01*
X114482857Y-84152857D01*
X114387619Y-84105238D01*
X114340000Y-84057619D01*
X114292380Y-83962380D01*
X114625714Y-82771904D02*
X115292380Y-82771904D01*
X114625714Y-83200476D02*
X115149523Y-83200476D01*
X115244761Y-83152857D01*
X115292380Y-83057619D01*
X115292380Y-82914761D01*
X115244761Y-82819523D01*
X115197142Y-82771904D01*
X114768571Y-81962380D02*
X114768571Y-82295714D01*
X115292380Y-82295714D02*
X114292380Y-82295714D01*
X114292380Y-81819523D01*
X95145266Y-134148580D02*
X95145266Y-134862866D01*
X95097647Y-135005723D01*
X95002409Y-135100961D01*
X94859552Y-135148580D01*
X94764314Y-135148580D01*
X96145266Y-135148580D02*
X95573838Y-135148580D01*
X95859552Y-135148580D02*
X95859552Y-134148580D01*
X95764314Y-134291438D01*
X95669076Y-134386676D01*
X95573838Y-134434295D01*
X134376874Y-135067300D02*
X134043540Y-134591110D01*
X133805445Y-135067300D02*
X133805445Y-134067300D01*
X134186398Y-134067300D01*
X134281636Y-134114920D01*
X134329255Y-134162539D01*
X134376874Y-134257777D01*
X134376874Y-134400634D01*
X134329255Y-134495872D01*
X134281636Y-134543491D01*
X134186398Y-134591110D01*
X133805445Y-134591110D01*
X135234017Y-135067300D02*
X135234017Y-134543491D01*
X135186398Y-134448253D01*
X135091160Y-134400634D01*
X134900683Y-134400634D01*
X134805445Y-134448253D01*
X135234017Y-135019681D02*
X135138779Y-135067300D01*
X134900683Y-135067300D01*
X134805445Y-135019681D01*
X134757826Y-134924443D01*
X134757826Y-134829205D01*
X134805445Y-134733967D01*
X134900683Y-134686348D01*
X135138779Y-134686348D01*
X135234017Y-134638729D01*
X135662588Y-135019681D02*
X135757826Y-135067300D01*
X135948302Y-135067300D01*
X136043540Y-135019681D01*
X136091160Y-134924443D01*
X136091160Y-134876824D01*
X136043540Y-134781586D01*
X135948302Y-134733967D01*
X135805445Y-134733967D01*
X135710207Y-134686348D01*
X135662588Y-134591110D01*
X135662588Y-134543491D01*
X135710207Y-134448253D01*
X135805445Y-134400634D01*
X135948302Y-134400634D01*
X136043540Y-134448253D01*
X136519731Y-134400634D02*
X136519731Y-135400634D01*
X136519731Y-134448253D02*
X136614969Y-134400634D01*
X136805445Y-134400634D01*
X136900683Y-134448253D01*
X136948302Y-134495872D01*
X136995921Y-134591110D01*
X136995921Y-134876824D01*
X136948302Y-134972062D01*
X136900683Y-135019681D01*
X136805445Y-135067300D01*
X136614969Y-135067300D01*
X136519731Y-135019681D01*
X137424493Y-135067300D02*
X137424493Y-134067300D01*
X137424493Y-134448253D02*
X137519731Y-134400634D01*
X137710207Y-134400634D01*
X137805445Y-134448253D01*
X137853064Y-134495872D01*
X137900683Y-134591110D01*
X137900683Y-134876824D01*
X137853064Y-134972062D01*
X137805445Y-135019681D01*
X137710207Y-135067300D01*
X137519731Y-135067300D01*
X137424493Y-135019681D01*
X138710207Y-135019681D02*
X138614969Y-135067300D01*
X138424493Y-135067300D01*
X138329255Y-135019681D01*
X138281636Y-134924443D01*
X138281636Y-134543491D01*
X138329255Y-134448253D01*
X138424493Y-134400634D01*
X138614969Y-134400634D01*
X138710207Y-134448253D01*
X138757826Y-134543491D01*
X138757826Y-134638729D01*
X138281636Y-134733967D01*
X139186398Y-135067300D02*
X139186398Y-134400634D01*
X139186398Y-134591110D02*
X139234017Y-134495872D01*
X139281636Y-134448253D01*
X139376874Y-134400634D01*
X139472112Y-134400634D01*
X139805445Y-135067300D02*
X139805445Y-134400634D01*
X139805445Y-134591110D02*
X139853064Y-134495872D01*
X139900683Y-134448253D01*
X139995921Y-134400634D01*
X140091160Y-134400634D01*
X140329255Y-134400634D02*
X140567350Y-135067300D01*
X140805445Y-134400634D02*
X140567350Y-135067300D01*
X140472112Y-135305396D01*
X140424493Y-135353015D01*
X140329255Y-135400634D01*
X140948302Y-135162539D02*
X141710207Y-135162539D01*
X141948302Y-135067300D02*
X141948302Y-134067300D01*
X142329255Y-134067300D01*
X142424493Y-134114920D01*
X142472112Y-134162539D01*
X142519731Y-134257777D01*
X142519731Y-134400634D01*
X142472112Y-134495872D01*
X142424493Y-134543491D01*
X142329255Y-134591110D01*
X141948302Y-134591110D01*
X142948302Y-135067300D02*
X142948302Y-134400634D01*
X142948302Y-134067300D02*
X142900683Y-134114920D01*
X142948302Y-134162539D01*
X142995921Y-134114920D01*
X142948302Y-134067300D01*
X142948302Y-134162539D01*
X143186398Y-135162539D02*
X143948302Y-135162539D01*
X144138779Y-134162539D02*
X144186398Y-134114920D01*
X144281636Y-134067300D01*
X144519731Y-134067300D01*
X144614969Y-134114920D01*
X144662588Y-134162539D01*
X144710207Y-134257777D01*
X144710207Y-134353015D01*
X144662588Y-134495872D01*
X144091160Y-135067300D01*
X144710207Y-135067300D01*
X144900683Y-135162539D02*
X145662588Y-135162539D01*
X145805445Y-134067300D02*
X146424493Y-134067300D01*
X146091160Y-134448253D01*
X146234017Y-134448253D01*
X146329255Y-134495872D01*
X146376874Y-134543491D01*
X146424493Y-134638729D01*
X146424493Y-134876824D01*
X146376874Y-134972062D01*
X146329255Y-135019681D01*
X146234017Y-135067300D01*
X145948302Y-135067300D01*
X145853064Y-135019681D01*
X145805445Y-134972062D01*
X117462380Y-71756666D02*
X116986190Y-72090000D01*
X117462380Y-72328095D02*
X116462380Y-72328095D01*
X116462380Y-71947142D01*
X116510000Y-71851904D01*
X116557619Y-71804285D01*
X116652857Y-71756666D01*
X116795714Y-71756666D01*
X116890952Y-71804285D01*
X116938571Y-71851904D01*
X116986190Y-71947142D01*
X116986190Y-72328095D01*
X116462380Y-71423333D02*
X116462380Y-70804285D01*
X116843333Y-71137619D01*
X116843333Y-70994761D01*
X116890952Y-70899523D01*
X116938571Y-70851904D01*
X117033809Y-70804285D01*
X117271904Y-70804285D01*
X117367142Y-70851904D01*
X117414761Y-70899523D01*
X117462380Y-70994761D01*
X117462380Y-71280476D01*
X117414761Y-71375714D01*
X117367142Y-71423333D01*
X121202380Y-71851904D02*
X121202380Y-72328095D01*
X121678571Y-72375714D01*
X121630952Y-72328095D01*
X121583333Y-72232857D01*
X121583333Y-71994761D01*
X121630952Y-71899523D01*
X121678571Y-71851904D01*
X121773809Y-71804285D01*
X122011904Y-71804285D01*
X122107142Y-71851904D01*
X122154761Y-71899523D01*
X122202380Y-71994761D01*
X122202380Y-72232857D01*
X122154761Y-72328095D01*
X122107142Y-72375714D01*
X122202380Y-71375714D02*
X121202380Y-71375714D01*
X122202380Y-70804285D02*
X121630952Y-71232857D01*
X121202380Y-70804285D02*
X121773809Y-71375714D01*
X117347142Y-83566666D02*
X117394761Y-83614285D01*
X117442380Y-83757142D01*
X117442380Y-83852380D01*
X117394761Y-83995238D01*
X117299523Y-84090476D01*
X117204285Y-84138095D01*
X117013809Y-84185714D01*
X116870952Y-84185714D01*
X116680476Y-84138095D01*
X116585238Y-84090476D01*
X116490000Y-83995238D01*
X116442380Y-83852380D01*
X116442380Y-83757142D01*
X116490000Y-83614285D01*
X116537619Y-83566666D01*
X116442380Y-82709523D02*
X116442380Y-82900000D01*
X116490000Y-82995238D01*
X116537619Y-83042857D01*
X116680476Y-83138095D01*
X116870952Y-83185714D01*
X117251904Y-83185714D01*
X117347142Y-83138095D01*
X117394761Y-83090476D01*
X117442380Y-82995238D01*
X117442380Y-82804761D01*
X117394761Y-82709523D01*
X117347142Y-82661904D01*
X117251904Y-82614285D01*
X117013809Y-82614285D01*
X116918571Y-82661904D01*
X116870952Y-82709523D01*
X116823333Y-82804761D01*
X116823333Y-82995238D01*
X116870952Y-83090476D01*
X116918571Y-83138095D01*
X117013809Y-83185714D01*
X122462380Y-84511428D02*
X122462380Y-85082857D01*
X122462380Y-84797142D02*
X121462380Y-84797142D01*
X121605238Y-84892380D01*
X121700476Y-84987619D01*
X121748095Y-85082857D01*
X121462380Y-83892380D02*
X121462380Y-83797142D01*
X121510000Y-83701904D01*
X121557619Y-83654285D01*
X121652857Y-83606666D01*
X121843333Y-83559047D01*
X122081428Y-83559047D01*
X122271904Y-83606666D01*
X122367142Y-83654285D01*
X122414761Y-83701904D01*
X122462380Y-83797142D01*
X122462380Y-83892380D01*
X122414761Y-83987619D01*
X122367142Y-84035238D01*
X122271904Y-84082857D01*
X122081428Y-84130476D01*
X121843333Y-84130476D01*
X121652857Y-84082857D01*
X121557619Y-84035238D01*
X121510000Y-83987619D01*
X121462380Y-83892380D01*
X121795714Y-82701904D02*
X122462380Y-82701904D01*
X121795714Y-83130476D02*
X122319523Y-83130476D01*
X122414761Y-83082857D01*
X122462380Y-82987619D01*
X122462380Y-82844761D01*
X122414761Y-82749523D01*
X122367142Y-82701904D01*
X121938571Y-81892380D02*
X121938571Y-82225714D01*
X122462380Y-82225714D02*
X121462380Y-82225714D01*
X121462380Y-81749523D01*
X80650009Y-135135880D02*
X80650009Y-134135880D01*
X81030961Y-134135880D01*
X81126200Y-134183500D01*
X81173819Y-134231119D01*
X81221438Y-134326357D01*
X81221438Y-134469214D01*
X81173819Y-134564452D01*
X81126200Y-134612071D01*
X81030961Y-134659690D01*
X80650009Y-134659690D01*
X81792866Y-135135880D02*
X81697628Y-135088261D01*
X81650009Y-135040642D01*
X81602390Y-134945404D01*
X81602390Y-134659690D01*
X81650009Y-134564452D01*
X81697628Y-134516833D01*
X81792866Y-134469214D01*
X81935723Y-134469214D01*
X82030961Y-134516833D01*
X82078580Y-134564452D01*
X82126200Y-134659690D01*
X82126200Y-134945404D01*
X82078580Y-135040642D01*
X82030961Y-135088261D01*
X81935723Y-135135880D01*
X81792866Y-135135880D01*
X82459533Y-134469214D02*
X82650009Y-135135880D01*
X82840485Y-134659690D01*
X83030961Y-135135880D01*
X83221438Y-134469214D01*
X83983342Y-135088261D02*
X83888104Y-135135880D01*
X83697628Y-135135880D01*
X83602390Y-135088261D01*
X83554771Y-134993023D01*
X83554771Y-134612071D01*
X83602390Y-134516833D01*
X83697628Y-134469214D01*
X83888104Y-134469214D01*
X83983342Y-134516833D01*
X84030961Y-134612071D01*
X84030961Y-134707309D01*
X83554771Y-134802547D01*
X84459533Y-135135880D02*
X84459533Y-134469214D01*
X84459533Y-134659690D02*
X84507152Y-134564452D01*
X84554771Y-134516833D01*
X84650009Y-134469214D01*
X84745247Y-134469214D01*
X162914104Y-107397980D02*
X162914104Y-106397980D01*
X163152200Y-106397980D01*
X163295057Y-106445600D01*
X163390295Y-106540838D01*
X163437914Y-106636076D01*
X163485533Y-106826552D01*
X163485533Y-106969409D01*
X163437914Y-107159885D01*
X163390295Y-107255123D01*
X163295057Y-107350361D01*
X163152200Y-107397980D01*
X162914104Y-107397980D01*
X163818866Y-106397980D02*
X164437914Y-106397980D01*
X164104580Y-106778933D01*
X164247438Y-106778933D01*
X164342676Y-106826552D01*
X164390295Y-106874171D01*
X164437914Y-106969409D01*
X164437914Y-107207504D01*
X164390295Y-107302742D01*
X164342676Y-107350361D01*
X164247438Y-107397980D01*
X163961723Y-107397980D01*
X163866485Y-107350361D01*
X163818866Y-107302742D01*
X167021142Y-100198180D02*
X166449714Y-100198180D01*
X166735428Y-100198180D02*
X166735428Y-99198180D01*
X166640190Y-99341038D01*
X166544952Y-99436276D01*
X166449714Y-99483895D01*
X167449714Y-100198180D02*
X167449714Y-99198180D01*
X168021142Y-100198180D01*
X168021142Y-99198180D01*
X168973523Y-99198180D02*
X168497333Y-99198180D01*
X168449714Y-99674371D01*
X168497333Y-99626752D01*
X168592571Y-99579133D01*
X168830666Y-99579133D01*
X168925904Y-99626752D01*
X168973523Y-99674371D01*
X169021142Y-99769609D01*
X169021142Y-100007704D01*
X168973523Y-100102942D01*
X168925904Y-100150561D01*
X168830666Y-100198180D01*
X168592571Y-100198180D01*
X168497333Y-100150561D01*
X168449714Y-100102942D01*
X169592571Y-99626752D02*
X169497333Y-99579133D01*
X169449714Y-99531514D01*
X169402095Y-99436276D01*
X169402095Y-99388657D01*
X169449714Y-99293419D01*
X169497333Y-99245800D01*
X169592571Y-99198180D01*
X169783047Y-99198180D01*
X169878285Y-99245800D01*
X169925904Y-99293419D01*
X169973523Y-99388657D01*
X169973523Y-99436276D01*
X169925904Y-99531514D01*
X169878285Y-99579133D01*
X169783047Y-99626752D01*
X169592571Y-99626752D01*
X169497333Y-99674371D01*
X169449714Y-99721990D01*
X169402095Y-99817228D01*
X169402095Y-100007704D01*
X169449714Y-100102942D01*
X169497333Y-100150561D01*
X169592571Y-100198180D01*
X169783047Y-100198180D01*
X169878285Y-100150561D01*
X169925904Y-100102942D01*
X169973523Y-100007704D01*
X169973523Y-99817228D01*
X169925904Y-99721990D01*
X169878285Y-99674371D01*
X169783047Y-99626752D01*
X170354476Y-99293419D02*
X170402095Y-99245800D01*
X170497333Y-99198180D01*
X170735428Y-99198180D01*
X170830666Y-99245800D01*
X170878285Y-99293419D01*
X170925904Y-99388657D01*
X170925904Y-99483895D01*
X170878285Y-99626752D01*
X170306857Y-100198180D01*
X170925904Y-100198180D01*
X171306857Y-99293419D02*
X171354476Y-99245800D01*
X171449714Y-99198180D01*
X171687809Y-99198180D01*
X171783047Y-99245800D01*
X171830666Y-99293419D01*
X171878285Y-99388657D01*
X171878285Y-99483895D01*
X171830666Y-99626752D01*
X171259238Y-100198180D01*
X171878285Y-100198180D01*
X169740295Y-106277980D02*
X169740295Y-105277980D01*
X170311723Y-106277980D02*
X169883152Y-105706552D01*
X170311723Y-105277980D02*
X169740295Y-105849409D01*
X191031904Y-107310180D02*
X191031904Y-106310180D01*
X191270000Y-106310180D01*
X191412857Y-106357800D01*
X191508095Y-106453038D01*
X191555714Y-106548276D01*
X191603333Y-106738752D01*
X191603333Y-106881609D01*
X191555714Y-107072085D01*
X191508095Y-107167323D01*
X191412857Y-107262561D01*
X191270000Y-107310180D01*
X191031904Y-107310180D01*
X192555714Y-107310180D02*
X191984285Y-107310180D01*
X192270000Y-107310180D02*
X192270000Y-106310180D01*
X192174761Y-106453038D01*
X192079523Y-106548276D01*
X191984285Y-106595895D01*
X194326142Y-100071180D02*
X193754714Y-100071180D01*
X194040428Y-100071180D02*
X194040428Y-99071180D01*
X193945190Y-99214038D01*
X193849952Y-99309276D01*
X193754714Y-99356895D01*
X194754714Y-100071180D02*
X194754714Y-99071180D01*
X195326142Y-100071180D01*
X195326142Y-99071180D01*
X196278523Y-99071180D02*
X195802333Y-99071180D01*
X195754714Y-99547371D01*
X195802333Y-99499752D01*
X195897571Y-99452133D01*
X196135666Y-99452133D01*
X196230904Y-99499752D01*
X196278523Y-99547371D01*
X196326142Y-99642609D01*
X196326142Y-99880704D01*
X196278523Y-99975942D01*
X196230904Y-100023561D01*
X196135666Y-100071180D01*
X195897571Y-100071180D01*
X195802333Y-100023561D01*
X195754714Y-99975942D01*
X196897571Y-99499752D02*
X196802333Y-99452133D01*
X196754714Y-99404514D01*
X196707095Y-99309276D01*
X196707095Y-99261657D01*
X196754714Y-99166419D01*
X196802333Y-99118800D01*
X196897571Y-99071180D01*
X197088047Y-99071180D01*
X197183285Y-99118800D01*
X197230904Y-99166419D01*
X197278523Y-99261657D01*
X197278523Y-99309276D01*
X197230904Y-99404514D01*
X197183285Y-99452133D01*
X197088047Y-99499752D01*
X196897571Y-99499752D01*
X196802333Y-99547371D01*
X196754714Y-99594990D01*
X196707095Y-99690228D01*
X196707095Y-99880704D01*
X196754714Y-99975942D01*
X196802333Y-100023561D01*
X196897571Y-100071180D01*
X197088047Y-100071180D01*
X197183285Y-100023561D01*
X197230904Y-99975942D01*
X197278523Y-99880704D01*
X197278523Y-99690228D01*
X197230904Y-99594990D01*
X197183285Y-99547371D01*
X197088047Y-99499752D01*
X197659476Y-99166419D02*
X197707095Y-99118800D01*
X197802333Y-99071180D01*
X198040428Y-99071180D01*
X198135666Y-99118800D01*
X198183285Y-99166419D01*
X198230904Y-99261657D01*
X198230904Y-99356895D01*
X198183285Y-99499752D01*
X197611857Y-100071180D01*
X198230904Y-100071180D01*
X198611857Y-99166419D02*
X198659476Y-99118800D01*
X198754714Y-99071180D01*
X198992809Y-99071180D01*
X199088047Y-99118800D01*
X199135666Y-99166419D01*
X199183285Y-99261657D01*
X199183285Y-99356895D01*
X199135666Y-99499752D01*
X198564238Y-100071180D01*
X199183285Y-100071180D01*
X184396095Y-101027180D02*
X184396095Y-100027180D01*
X184967523Y-101027180D02*
X184538952Y-100455752D01*
X184967523Y-100027180D02*
X184396095Y-100598609D01*
X149780666Y-63384180D02*
X149780666Y-64098466D01*
X149733047Y-64241323D01*
X149637809Y-64336561D01*
X149494952Y-64384180D01*
X149399714Y-64384180D01*
X150399714Y-63812752D02*
X150304476Y-63765133D01*
X150256857Y-63717514D01*
X150209238Y-63622276D01*
X150209238Y-63574657D01*
X150256857Y-63479419D01*
X150304476Y-63431800D01*
X150399714Y-63384180D01*
X150590190Y-63384180D01*
X150685428Y-63431800D01*
X150733047Y-63479419D01*
X150780666Y-63574657D01*
X150780666Y-63622276D01*
X150733047Y-63717514D01*
X150685428Y-63765133D01*
X150590190Y-63812752D01*
X150399714Y-63812752D01*
X150304476Y-63860371D01*
X150256857Y-63907990D01*
X150209238Y-64003228D01*
X150209238Y-64193704D01*
X150256857Y-64288942D01*
X150304476Y-64336561D01*
X150399714Y-64384180D01*
X150590190Y-64384180D01*
X150685428Y-64336561D01*
X150733047Y-64288942D01*
X150780666Y-64193704D01*
X150780666Y-64003228D01*
X150733047Y-63907990D01*
X150685428Y-63860371D01*
X150590190Y-63812752D01*
X127418095Y-63968571D02*
X127560952Y-64016190D01*
X127608571Y-64063809D01*
X127656190Y-64159047D01*
X127656190Y-64301904D01*
X127608571Y-64397142D01*
X127560952Y-64444761D01*
X127465714Y-64492380D01*
X127084761Y-64492380D01*
X127084761Y-63492380D01*
X127418095Y-63492380D01*
X127513333Y-63540000D01*
X127560952Y-63587619D01*
X127608571Y-63682857D01*
X127608571Y-63778095D01*
X127560952Y-63873333D01*
X127513333Y-63920952D01*
X127418095Y-63968571D01*
X127084761Y-63968571D01*
X128227619Y-64492380D02*
X128132380Y-64444761D01*
X128084761Y-64397142D01*
X128037142Y-64301904D01*
X128037142Y-64016190D01*
X128084761Y-63920952D01*
X128132380Y-63873333D01*
X128227619Y-63825714D01*
X128370476Y-63825714D01*
X128465714Y-63873333D01*
X128513333Y-63920952D01*
X128560952Y-64016190D01*
X128560952Y-64301904D01*
X128513333Y-64397142D01*
X128465714Y-64444761D01*
X128370476Y-64492380D01*
X128227619Y-64492380D01*
X129418095Y-64492380D02*
X129418095Y-63968571D01*
X129370476Y-63873333D01*
X129275238Y-63825714D01*
X129084761Y-63825714D01*
X128989523Y-63873333D01*
X129418095Y-64444761D02*
X129322857Y-64492380D01*
X129084761Y-64492380D01*
X128989523Y-64444761D01*
X128941904Y-64349523D01*
X128941904Y-64254285D01*
X128989523Y-64159047D01*
X129084761Y-64111428D01*
X129322857Y-64111428D01*
X129418095Y-64063809D01*
X129894285Y-64492380D02*
X129894285Y-63825714D01*
X129894285Y-64016190D02*
X129941904Y-63920952D01*
X129989523Y-63873333D01*
X130084761Y-63825714D01*
X130180000Y-63825714D01*
X130941904Y-64492380D02*
X130941904Y-63492380D01*
X130941904Y-64444761D02*
X130846666Y-64492380D01*
X130656190Y-64492380D01*
X130560952Y-64444761D01*
X130513333Y-64397142D01*
X130465714Y-64301904D01*
X130465714Y-64016190D01*
X130513333Y-63920952D01*
X130560952Y-63873333D01*
X130656190Y-63825714D01*
X130846666Y-63825714D01*
X130941904Y-63873333D01*
X131180000Y-64587619D02*
X131941904Y-64587619D01*
X132037142Y-63825714D02*
X132418095Y-63825714D01*
X132180000Y-63492380D02*
X132180000Y-64349523D01*
X132227619Y-64444761D01*
X132322857Y-64492380D01*
X132418095Y-64492380D01*
X132894285Y-64492380D02*
X132799047Y-64444761D01*
X132751428Y-64397142D01*
X132703809Y-64301904D01*
X132703809Y-64016190D01*
X132751428Y-63920952D01*
X132799047Y-63873333D01*
X132894285Y-63825714D01*
X133037142Y-63825714D01*
X133132380Y-63873333D01*
X133180000Y-63920952D01*
X133227619Y-64016190D01*
X133227619Y-64301904D01*
X133180000Y-64397142D01*
X133132380Y-64444761D01*
X133037142Y-64492380D01*
X132894285Y-64492380D01*
X133418095Y-64587619D02*
X134180000Y-64587619D01*
X134751428Y-63968571D02*
X134894285Y-64016190D01*
X134941904Y-64063809D01*
X134989523Y-64159047D01*
X134989523Y-64301904D01*
X134941904Y-64397142D01*
X134894285Y-64444761D01*
X134799047Y-64492380D01*
X134418095Y-64492380D01*
X134418095Y-63492380D01*
X134751428Y-63492380D01*
X134846666Y-63540000D01*
X134894285Y-63587619D01*
X134941904Y-63682857D01*
X134941904Y-63778095D01*
X134894285Y-63873333D01*
X134846666Y-63920952D01*
X134751428Y-63968571D01*
X134418095Y-63968571D01*
X135560952Y-64492380D02*
X135465714Y-64444761D01*
X135418095Y-64397142D01*
X135370476Y-64301904D01*
X135370476Y-64016190D01*
X135418095Y-63920952D01*
X135465714Y-63873333D01*
X135560952Y-63825714D01*
X135703809Y-63825714D01*
X135799047Y-63873333D01*
X135846666Y-63920952D01*
X135894285Y-64016190D01*
X135894285Y-64301904D01*
X135846666Y-64397142D01*
X135799047Y-64444761D01*
X135703809Y-64492380D01*
X135560952Y-64492380D01*
X136751428Y-64492380D02*
X136751428Y-63968571D01*
X136703809Y-63873333D01*
X136608571Y-63825714D01*
X136418095Y-63825714D01*
X136322857Y-63873333D01*
X136751428Y-64444761D02*
X136656190Y-64492380D01*
X136418095Y-64492380D01*
X136322857Y-64444761D01*
X136275238Y-64349523D01*
X136275238Y-64254285D01*
X136322857Y-64159047D01*
X136418095Y-64111428D01*
X136656190Y-64111428D01*
X136751428Y-64063809D01*
X137227619Y-64492380D02*
X137227619Y-63825714D01*
X137227619Y-64016190D02*
X137275238Y-63920952D01*
X137322857Y-63873333D01*
X137418095Y-63825714D01*
X137513333Y-63825714D01*
X138275238Y-64492380D02*
X138275238Y-63492380D01*
X138275238Y-64444761D02*
X138180000Y-64492380D01*
X137989523Y-64492380D01*
X137894285Y-64444761D01*
X137846666Y-64397142D01*
X137799047Y-64301904D01*
X137799047Y-64016190D01*
X137846666Y-63920952D01*
X137894285Y-63873333D01*
X137989523Y-63825714D01*
X138180000Y-63825714D01*
X138275238Y-63873333D01*
X92694855Y-111583220D02*
X92694855Y-112392744D01*
X92742474Y-112487982D01*
X92790093Y-112535601D01*
X92885331Y-112583220D01*
X93075807Y-112583220D01*
X93171045Y-112535601D01*
X93218664Y-112487982D01*
X93266283Y-112392744D01*
X93266283Y-111583220D01*
X93790093Y-112583220D02*
X93980569Y-112583220D01*
X94075807Y-112535601D01*
X94123426Y-112487982D01*
X94218664Y-112345125D01*
X94266283Y-112154649D01*
X94266283Y-111773697D01*
X94218664Y-111678459D01*
X94171045Y-111630840D01*
X94075807Y-111583220D01*
X93885331Y-111583220D01*
X93790093Y-111630840D01*
X93742474Y-111678459D01*
X93694855Y-111773697D01*
X93694855Y-112011792D01*
X93742474Y-112107030D01*
X93790093Y-112154649D01*
X93885331Y-112202268D01*
X94075807Y-112202268D01*
X94171045Y-112154649D01*
X94218664Y-112107030D01*
X94266283Y-112011792D01*
X80914455Y-108972100D02*
X81485883Y-108972100D01*
X81200169Y-109972100D02*
X81200169Y-108972100D01*
X81676360Y-108972100D02*
X82247788Y-108972100D01*
X81962074Y-109972100D02*
X81962074Y-108972100D01*
X83057312Y-109972100D02*
X82581121Y-109972100D01*
X82581121Y-108972100D01*
X83152550Y-110067339D02*
X83914455Y-110067339D01*
X84723979Y-109876862D02*
X84676360Y-109924481D01*
X84533502Y-109972100D01*
X84438264Y-109972100D01*
X84295407Y-109924481D01*
X84200169Y-109829243D01*
X84152550Y-109734005D01*
X84104931Y-109543529D01*
X84104931Y-109400672D01*
X84152550Y-109210196D01*
X84200169Y-109114958D01*
X84295407Y-109019720D01*
X84438264Y-108972100D01*
X84533502Y-108972100D01*
X84676360Y-109019720D01*
X84723979Y-109067339D01*
X85581121Y-109972100D02*
X85581121Y-109448291D01*
X85533502Y-109353053D01*
X85438264Y-109305434D01*
X85247788Y-109305434D01*
X85152550Y-109353053D01*
X85581121Y-109924481D02*
X85485883Y-109972100D01*
X85247788Y-109972100D01*
X85152550Y-109924481D01*
X85104931Y-109829243D01*
X85104931Y-109734005D01*
X85152550Y-109638767D01*
X85247788Y-109591148D01*
X85485883Y-109591148D01*
X85581121Y-109543529D01*
X86057312Y-109972100D02*
X86057312Y-109305434D01*
X86057312Y-109400672D02*
X86104931Y-109353053D01*
X86200169Y-109305434D01*
X86343026Y-109305434D01*
X86438264Y-109353053D01*
X86485883Y-109448291D01*
X86485883Y-109972100D01*
X86485883Y-109448291D02*
X86533502Y-109353053D01*
X86628740Y-109305434D01*
X86771598Y-109305434D01*
X86866836Y-109353053D01*
X86914455Y-109448291D01*
X86914455Y-109972100D01*
X87771598Y-109924481D02*
X87676360Y-109972100D01*
X87485883Y-109972100D01*
X87390645Y-109924481D01*
X87343026Y-109829243D01*
X87343026Y-109448291D01*
X87390645Y-109353053D01*
X87485883Y-109305434D01*
X87676360Y-109305434D01*
X87771598Y-109353053D01*
X87819217Y-109448291D01*
X87819217Y-109543529D01*
X87343026Y-109638767D01*
X88247788Y-109972100D02*
X88247788Y-109305434D01*
X88247788Y-109495910D02*
X88295407Y-109400672D01*
X88343026Y-109353053D01*
X88438264Y-109305434D01*
X88533502Y-109305434D01*
X89295407Y-109972100D02*
X89295407Y-109448291D01*
X89247788Y-109353053D01*
X89152550Y-109305434D01*
X88962074Y-109305434D01*
X88866836Y-109353053D01*
X89295407Y-109924481D02*
X89200169Y-109972100D01*
X88962074Y-109972100D01*
X88866836Y-109924481D01*
X88819217Y-109829243D01*
X88819217Y-109734005D01*
X88866836Y-109638767D01*
X88962074Y-109591148D01*
X89200169Y-109591148D01*
X89295407Y-109543529D01*
X93975893Y-120541040D02*
X93642560Y-120064850D01*
X93404464Y-120541040D02*
X93404464Y-119541040D01*
X93785417Y-119541040D01*
X93880655Y-119588660D01*
X93928274Y-119636279D01*
X93975893Y-119731517D01*
X93975893Y-119874374D01*
X93928274Y-119969612D01*
X93880655Y-120017231D01*
X93785417Y-120064850D01*
X93404464Y-120064850D01*
X94309226Y-119541040D02*
X94975893Y-119541040D01*
X94547321Y-120541040D01*
X93937223Y-122232680D02*
X93365795Y-122232680D01*
X93651509Y-122232680D02*
X93651509Y-121232680D01*
X93556271Y-121375538D01*
X93461033Y-121470776D01*
X93365795Y-121518395D01*
X94556271Y-121232680D02*
X94651509Y-121232680D01*
X94746747Y-121280300D01*
X94794366Y-121327919D01*
X94841985Y-121423157D01*
X94889604Y-121613633D01*
X94889604Y-121851728D01*
X94841985Y-122042204D01*
X94794366Y-122137442D01*
X94746747Y-122185061D01*
X94651509Y-122232680D01*
X94556271Y-122232680D01*
X94461033Y-122185061D01*
X94413414Y-122137442D01*
X94365795Y-122042204D01*
X94318176Y-121851728D01*
X94318176Y-121613633D01*
X94365795Y-121423157D01*
X94413414Y-121327919D01*
X94461033Y-121280300D01*
X94556271Y-121232680D01*
X95318176Y-122232680D02*
X95318176Y-121232680D01*
X95889604Y-122232680D02*
X95461033Y-121661252D01*
X95889604Y-121232680D02*
X95318176Y-121804109D01*
X93945413Y-116875820D02*
X93612080Y-116399630D01*
X93373984Y-116875820D02*
X93373984Y-115875820D01*
X93754937Y-115875820D01*
X93850175Y-115923440D01*
X93897794Y-115971059D01*
X93945413Y-116066297D01*
X93945413Y-116209154D01*
X93897794Y-116304392D01*
X93850175Y-116352011D01*
X93754937Y-116399630D01*
X93373984Y-116399630D01*
X94802556Y-115875820D02*
X94612080Y-115875820D01*
X94516841Y-115923440D01*
X94469222Y-115971059D01*
X94373984Y-116113916D01*
X94326365Y-116304392D01*
X94326365Y-116685344D01*
X94373984Y-116780582D01*
X94421603Y-116828201D01*
X94516841Y-116875820D01*
X94707318Y-116875820D01*
X94802556Y-116828201D01*
X94850175Y-116780582D01*
X94897794Y-116685344D01*
X94897794Y-116447249D01*
X94850175Y-116352011D01*
X94802556Y-116304392D01*
X94707318Y-116256773D01*
X94516841Y-116256773D01*
X94421603Y-116304392D01*
X94373984Y-116352011D01*
X94326365Y-116447249D01*
X93911823Y-118409980D02*
X93340395Y-118409980D01*
X93626109Y-118409980D02*
X93626109Y-117409980D01*
X93530871Y-117552838D01*
X93435633Y-117648076D01*
X93340395Y-117695695D01*
X94530871Y-117409980D02*
X94626109Y-117409980D01*
X94721347Y-117457600D01*
X94768966Y-117505219D01*
X94816585Y-117600457D01*
X94864204Y-117790933D01*
X94864204Y-118029028D01*
X94816585Y-118219504D01*
X94768966Y-118314742D01*
X94721347Y-118362361D01*
X94626109Y-118409980D01*
X94530871Y-118409980D01*
X94435633Y-118362361D01*
X94388014Y-118314742D01*
X94340395Y-118219504D01*
X94292776Y-118029028D01*
X94292776Y-117790933D01*
X94340395Y-117600457D01*
X94388014Y-117505219D01*
X94435633Y-117457600D01*
X94530871Y-117409980D01*
X95292776Y-118409980D02*
X95292776Y-117409980D01*
X95864204Y-118409980D02*
X95435633Y-117838552D01*
X95864204Y-117409980D02*
X95292776Y-117981409D01*
X92760895Y-105741220D02*
X92760895Y-106550744D01*
X92808514Y-106645982D01*
X92856133Y-106693601D01*
X92951371Y-106741220D01*
X93141847Y-106741220D01*
X93237085Y-106693601D01*
X93284704Y-106645982D01*
X93332323Y-106550744D01*
X93332323Y-105741220D01*
X93713276Y-105741220D02*
X94379942Y-105741220D01*
X93951371Y-106741220D01*
X80596552Y-103906580D02*
X80120361Y-103906580D01*
X80120361Y-102906580D01*
X80929885Y-103906580D02*
X80929885Y-103239914D01*
X80929885Y-102906580D02*
X80882266Y-102954200D01*
X80929885Y-103001819D01*
X80977504Y-102954200D01*
X80929885Y-102906580D01*
X80929885Y-103001819D01*
X81834647Y-103906580D02*
X81834647Y-102906580D01*
X81834647Y-103858961D02*
X81739409Y-103906580D01*
X81548933Y-103906580D01*
X81453695Y-103858961D01*
X81406076Y-103811342D01*
X81358457Y-103716104D01*
X81358457Y-103430390D01*
X81406076Y-103335152D01*
X81453695Y-103287533D01*
X81548933Y-103239914D01*
X81739409Y-103239914D01*
X81834647Y-103287533D01*
X82739409Y-103906580D02*
X82739409Y-103382771D01*
X82691790Y-103287533D01*
X82596552Y-103239914D01*
X82406076Y-103239914D01*
X82310838Y-103287533D01*
X82739409Y-103858961D02*
X82644171Y-103906580D01*
X82406076Y-103906580D01*
X82310838Y-103858961D01*
X82263219Y-103763723D01*
X82263219Y-103668485D01*
X82310838Y-103573247D01*
X82406076Y-103525628D01*
X82644171Y-103525628D01*
X82739409Y-103478009D01*
X83215600Y-103906580D02*
X83215600Y-103239914D01*
X83215600Y-103430390D02*
X83263219Y-103335152D01*
X83310838Y-103287533D01*
X83406076Y-103239914D01*
X83501314Y-103239914D01*
X83596552Y-104001819D02*
X84358457Y-104001819D01*
X85167980Y-103906580D02*
X84834647Y-103430390D01*
X84596552Y-103906580D02*
X84596552Y-102906580D01*
X84977504Y-102906580D01*
X85072742Y-102954200D01*
X85120361Y-103001819D01*
X85167980Y-103097057D01*
X85167980Y-103239914D01*
X85120361Y-103335152D01*
X85072742Y-103382771D01*
X84977504Y-103430390D01*
X84596552Y-103430390D01*
X86025123Y-103906580D02*
X86025123Y-103382771D01*
X85977504Y-103287533D01*
X85882266Y-103239914D01*
X85691790Y-103239914D01*
X85596552Y-103287533D01*
X86025123Y-103858961D02*
X85929885Y-103906580D01*
X85691790Y-103906580D01*
X85596552Y-103858961D01*
X85548933Y-103763723D01*
X85548933Y-103668485D01*
X85596552Y-103573247D01*
X85691790Y-103525628D01*
X85929885Y-103525628D01*
X86025123Y-103478009D01*
X86501314Y-103239914D02*
X86501314Y-103906580D01*
X86501314Y-103335152D02*
X86548933Y-103287533D01*
X86644171Y-103239914D01*
X86787028Y-103239914D01*
X86882266Y-103287533D01*
X86929885Y-103382771D01*
X86929885Y-103906580D01*
X87834647Y-103239914D02*
X87834647Y-104049438D01*
X87787028Y-104144676D01*
X87739409Y-104192295D01*
X87644171Y-104239914D01*
X87501314Y-104239914D01*
X87406076Y-104192295D01*
X87834647Y-103858961D02*
X87739409Y-103906580D01*
X87548933Y-103906580D01*
X87453695Y-103858961D01*
X87406076Y-103811342D01*
X87358457Y-103716104D01*
X87358457Y-103430390D01*
X87406076Y-103335152D01*
X87453695Y-103287533D01*
X87548933Y-103239914D01*
X87739409Y-103239914D01*
X87834647Y-103287533D01*
X88691790Y-103858961D02*
X88596552Y-103906580D01*
X88406076Y-103906580D01*
X88310838Y-103858961D01*
X88263219Y-103763723D01*
X88263219Y-103382771D01*
X88310838Y-103287533D01*
X88406076Y-103239914D01*
X88596552Y-103239914D01*
X88691790Y-103287533D01*
X88739409Y-103382771D01*
X88739409Y-103478009D01*
X88263219Y-103573247D01*
X89501314Y-103382771D02*
X89167980Y-103382771D01*
X89167980Y-103906580D02*
X89167980Y-102906580D01*
X89644171Y-102906580D01*
X90025123Y-103906580D02*
X90025123Y-103239914D01*
X90025123Y-102906580D02*
X89977504Y-102954200D01*
X90025123Y-103001819D01*
X90072742Y-102954200D01*
X90025123Y-102906580D01*
X90025123Y-103001819D01*
X90501314Y-103239914D02*
X90501314Y-103906580D01*
X90501314Y-103335152D02*
X90548933Y-103287533D01*
X90644171Y-103239914D01*
X90787028Y-103239914D01*
X90882266Y-103287533D01*
X90929885Y-103382771D01*
X90929885Y-103906580D01*
X91834647Y-103906580D02*
X91834647Y-102906580D01*
X91834647Y-103858961D02*
X91739409Y-103906580D01*
X91548933Y-103906580D01*
X91453695Y-103858961D01*
X91406076Y-103811342D01*
X91358457Y-103716104D01*
X91358457Y-103430390D01*
X91406076Y-103335152D01*
X91453695Y-103287533D01*
X91548933Y-103239914D01*
X91739409Y-103239914D01*
X91834647Y-103287533D01*
X92691790Y-103858961D02*
X92596552Y-103906580D01*
X92406076Y-103906580D01*
X92310838Y-103858961D01*
X92263219Y-103763723D01*
X92263219Y-103382771D01*
X92310838Y-103287533D01*
X92406076Y-103239914D01*
X92596552Y-103239914D01*
X92691790Y-103287533D01*
X92739409Y-103382771D01*
X92739409Y-103478009D01*
X92263219Y-103573247D01*
X93167980Y-103906580D02*
X93167980Y-103239914D01*
X93167980Y-103430390D02*
X93215600Y-103335152D01*
X93263219Y-103287533D01*
X93358457Y-103239914D01*
X93453695Y-103239914D01*
X194722904Y-136973180D02*
X194722904Y-135973180D01*
X194722904Y-136449371D02*
X195294333Y-136449371D01*
X195294333Y-136973180D02*
X195294333Y-135973180D01*
X196294333Y-136973180D02*
X195722904Y-136973180D01*
X196008619Y-136973180D02*
X196008619Y-135973180D01*
X195913380Y-136116038D01*
X195818142Y-136211276D01*
X195722904Y-136258895D01*
X197151476Y-135973180D02*
X196961000Y-135973180D01*
X196865761Y-136020800D01*
X196818142Y-136068419D01*
X196722904Y-136211276D01*
X196675285Y-136401752D01*
X196675285Y-136782704D01*
X196722904Y-136877942D01*
X196770523Y-136925561D01*
X196865761Y-136973180D01*
X197056238Y-136973180D01*
X197151476Y-136925561D01*
X197199095Y-136877942D01*
X197246714Y-136782704D01*
X197246714Y-136544609D01*
X197199095Y-136449371D01*
X197151476Y-136401752D01*
X197056238Y-136354133D01*
X196865761Y-136354133D01*
X196770523Y-136401752D01*
X196722904Y-136449371D01*
X196675285Y-136544609D01*
X193746714Y-145449371D02*
X194080047Y-145449371D01*
X194222904Y-145973180D02*
X193746714Y-145973180D01*
X193746714Y-144973180D01*
X194222904Y-144973180D01*
X194651476Y-145306514D02*
X194651476Y-145973180D01*
X194651476Y-145401752D02*
X194699095Y-145354133D01*
X194794333Y-145306514D01*
X194937190Y-145306514D01*
X195032428Y-145354133D01*
X195080047Y-145449371D01*
X195080047Y-145973180D01*
X195984809Y-145925561D02*
X195889571Y-145973180D01*
X195699095Y-145973180D01*
X195603857Y-145925561D01*
X195556238Y-145877942D01*
X195508619Y-145782704D01*
X195508619Y-145496990D01*
X195556238Y-145401752D01*
X195603857Y-145354133D01*
X195699095Y-145306514D01*
X195889571Y-145306514D01*
X195984809Y-145354133D01*
X196556238Y-145973180D02*
X196461000Y-145925561D01*
X196413380Y-145830323D01*
X196413380Y-144973180D01*
X197080047Y-145973180D02*
X196984809Y-145925561D01*
X196937190Y-145877942D01*
X196889571Y-145782704D01*
X196889571Y-145496990D01*
X196937190Y-145401752D01*
X196984809Y-145354133D01*
X197080047Y-145306514D01*
X197222904Y-145306514D01*
X197318142Y-145354133D01*
X197365761Y-145401752D01*
X197413380Y-145496990D01*
X197413380Y-145782704D01*
X197365761Y-145877942D01*
X197318142Y-145925561D01*
X197222904Y-145973180D01*
X197080047Y-145973180D01*
X197794333Y-145925561D02*
X197889571Y-145973180D01*
X198080047Y-145973180D01*
X198175285Y-145925561D01*
X198222904Y-145830323D01*
X198222904Y-145782704D01*
X198175285Y-145687466D01*
X198080047Y-145639847D01*
X197937190Y-145639847D01*
X197841952Y-145592228D01*
X197794333Y-145496990D01*
X197794333Y-145449371D01*
X197841952Y-145354133D01*
X197937190Y-145306514D01*
X198080047Y-145306514D01*
X198175285Y-145354133D01*
X194722904Y-46930180D02*
X194722904Y-45930180D01*
X194722904Y-46406371D02*
X195294333Y-46406371D01*
X195294333Y-46930180D02*
X195294333Y-45930180D01*
X196294333Y-46930180D02*
X195722904Y-46930180D01*
X196008619Y-46930180D02*
X196008619Y-45930180D01*
X195913380Y-46073038D01*
X195818142Y-46168276D01*
X195722904Y-46215895D01*
X197199095Y-45930180D02*
X196722904Y-45930180D01*
X196675285Y-46406371D01*
X196722904Y-46358752D01*
X196818142Y-46311133D01*
X197056238Y-46311133D01*
X197151476Y-46358752D01*
X197199095Y-46406371D01*
X197246714Y-46501609D01*
X197246714Y-46739704D01*
X197199095Y-46834942D01*
X197151476Y-46882561D01*
X197056238Y-46930180D01*
X196818142Y-46930180D01*
X196722904Y-46882561D01*
X196675285Y-46834942D01*
X193746714Y-55406371D02*
X194080047Y-55406371D01*
X194222904Y-55930180D02*
X193746714Y-55930180D01*
X193746714Y-54930180D01*
X194222904Y-54930180D01*
X194651476Y-55263514D02*
X194651476Y-55930180D01*
X194651476Y-55358752D02*
X194699095Y-55311133D01*
X194794333Y-55263514D01*
X194937190Y-55263514D01*
X195032428Y-55311133D01*
X195080047Y-55406371D01*
X195080047Y-55930180D01*
X195984809Y-55882561D02*
X195889571Y-55930180D01*
X195699095Y-55930180D01*
X195603857Y-55882561D01*
X195556238Y-55834942D01*
X195508619Y-55739704D01*
X195508619Y-55453990D01*
X195556238Y-55358752D01*
X195603857Y-55311133D01*
X195699095Y-55263514D01*
X195889571Y-55263514D01*
X195984809Y-55311133D01*
X196556238Y-55930180D02*
X196461000Y-55882561D01*
X196413380Y-55787323D01*
X196413380Y-54930180D01*
X197080047Y-55930180D02*
X196984809Y-55882561D01*
X196937190Y-55834942D01*
X196889571Y-55739704D01*
X196889571Y-55453990D01*
X196937190Y-55358752D01*
X196984809Y-55311133D01*
X197080047Y-55263514D01*
X197222904Y-55263514D01*
X197318142Y-55311133D01*
X197365761Y-55358752D01*
X197413380Y-55453990D01*
X197413380Y-55739704D01*
X197365761Y-55834942D01*
X197318142Y-55882561D01*
X197222904Y-55930180D01*
X197080047Y-55930180D01*
X197794333Y-55882561D02*
X197889571Y-55930180D01*
X198080047Y-55930180D01*
X198175285Y-55882561D01*
X198222904Y-55787323D01*
X198222904Y-55739704D01*
X198175285Y-55644466D01*
X198080047Y-55596847D01*
X197937190Y-55596847D01*
X197841952Y-55549228D01*
X197794333Y-55453990D01*
X197794333Y-55406371D01*
X197841952Y-55311133D01*
X197937190Y-55263514D01*
X198080047Y-55263514D01*
X198175285Y-55311133D01*
X84740904Y-136973180D02*
X84740904Y-135973180D01*
X84740904Y-136449371D02*
X85312333Y-136449371D01*
X85312333Y-136973180D02*
X85312333Y-135973180D01*
X86312333Y-136973180D02*
X85740904Y-136973180D01*
X86026619Y-136973180D02*
X86026619Y-135973180D01*
X85931380Y-136116038D01*
X85836142Y-136211276D01*
X85740904Y-136258895D01*
X87169476Y-136306514D02*
X87169476Y-136973180D01*
X86931380Y-135925561D02*
X86693285Y-136639847D01*
X87312333Y-136639847D01*
X83764714Y-145449371D02*
X84098047Y-145449371D01*
X84240904Y-145973180D02*
X83764714Y-145973180D01*
X83764714Y-144973180D01*
X84240904Y-144973180D01*
X84669476Y-145306514D02*
X84669476Y-145973180D01*
X84669476Y-145401752D02*
X84717095Y-145354133D01*
X84812333Y-145306514D01*
X84955190Y-145306514D01*
X85050428Y-145354133D01*
X85098047Y-145449371D01*
X85098047Y-145973180D01*
X86002809Y-145925561D02*
X85907571Y-145973180D01*
X85717095Y-145973180D01*
X85621857Y-145925561D01*
X85574238Y-145877942D01*
X85526619Y-145782704D01*
X85526619Y-145496990D01*
X85574238Y-145401752D01*
X85621857Y-145354133D01*
X85717095Y-145306514D01*
X85907571Y-145306514D01*
X86002809Y-145354133D01*
X86574238Y-145973180D02*
X86479000Y-145925561D01*
X86431380Y-145830323D01*
X86431380Y-144973180D01*
X87098047Y-145973180D02*
X87002809Y-145925561D01*
X86955190Y-145877942D01*
X86907571Y-145782704D01*
X86907571Y-145496990D01*
X86955190Y-145401752D01*
X87002809Y-145354133D01*
X87098047Y-145306514D01*
X87240904Y-145306514D01*
X87336142Y-145354133D01*
X87383761Y-145401752D01*
X87431380Y-145496990D01*
X87431380Y-145782704D01*
X87383761Y-145877942D01*
X87336142Y-145925561D01*
X87240904Y-145973180D01*
X87098047Y-145973180D01*
X87812333Y-145925561D02*
X87907571Y-145973180D01*
X88098047Y-145973180D01*
X88193285Y-145925561D01*
X88240904Y-145830323D01*
X88240904Y-145782704D01*
X88193285Y-145687466D01*
X88098047Y-145639847D01*
X87955190Y-145639847D01*
X87859952Y-145592228D01*
X87812333Y-145496990D01*
X87812333Y-145449371D01*
X87859952Y-145354133D01*
X87955190Y-145306514D01*
X88098047Y-145306514D01*
X88193285Y-145354133D01*
X84613904Y-46930180D02*
X84613904Y-45930180D01*
X84613904Y-46406371D02*
X85185333Y-46406371D01*
X85185333Y-46930180D02*
X85185333Y-45930180D01*
X86185333Y-46930180D02*
X85613904Y-46930180D01*
X85899619Y-46930180D02*
X85899619Y-45930180D01*
X85804380Y-46073038D01*
X85709142Y-46168276D01*
X85613904Y-46215895D01*
X86518666Y-45930180D02*
X87137714Y-45930180D01*
X86804380Y-46311133D01*
X86947238Y-46311133D01*
X87042476Y-46358752D01*
X87090095Y-46406371D01*
X87137714Y-46501609D01*
X87137714Y-46739704D01*
X87090095Y-46834942D01*
X87042476Y-46882561D01*
X86947238Y-46930180D01*
X86661523Y-46930180D01*
X86566285Y-46882561D01*
X86518666Y-46834942D01*
X189760266Y-145146780D02*
X189760266Y-145861066D01*
X189712647Y-146003923D01*
X189617409Y-146099161D01*
X189474552Y-146146780D01*
X189379314Y-146146780D01*
X190141219Y-145146780D02*
X190760266Y-145146780D01*
X190426933Y-145527733D01*
X190569790Y-145527733D01*
X190665028Y-145575352D01*
X190712647Y-145622971D01*
X190760266Y-145718209D01*
X190760266Y-145956304D01*
X190712647Y-146051542D01*
X190665028Y-146099161D01*
X190569790Y-146146780D01*
X190284076Y-146146780D01*
X190188838Y-146099161D01*
X190141219Y-146051542D01*
X170428695Y-137048780D02*
X170428695Y-136048780D01*
X171000123Y-137048780D01*
X171000123Y-136048780D01*
X171428695Y-136763066D02*
X171904885Y-136763066D01*
X171333457Y-137048780D02*
X171666790Y-136048780D01*
X172000123Y-137048780D01*
X172285838Y-137001161D02*
X172428695Y-137048780D01*
X172666790Y-137048780D01*
X172762028Y-137001161D01*
X172809647Y-136953542D01*
X172857266Y-136858304D01*
X172857266Y-136763066D01*
X172809647Y-136667828D01*
X172762028Y-136620209D01*
X172666790Y-136572590D01*
X172476314Y-136524971D01*
X172381076Y-136477352D01*
X172333457Y-136429733D01*
X172285838Y-136334495D01*
X172285838Y-136239257D01*
X172333457Y-136144019D01*
X172381076Y-136096400D01*
X172476314Y-136048780D01*
X172714409Y-136048780D01*
X172857266Y-136096400D01*
X173238219Y-136763066D02*
X173714409Y-136763066D01*
X173142980Y-137048780D02*
X173476314Y-136048780D01*
X173809647Y-137048780D01*
X174904885Y-137048780D02*
X174904885Y-136048780D01*
X175285838Y-136048780D01*
X175381076Y-136096400D01*
X175428695Y-136144019D01*
X175476314Y-136239257D01*
X175476314Y-136382114D01*
X175428695Y-136477352D01*
X175381076Y-136524971D01*
X175285838Y-136572590D01*
X174904885Y-136572590D01*
X175809647Y-136048780D02*
X176047742Y-137048780D01*
X176238219Y-136334495D01*
X176428695Y-137048780D01*
X176666790Y-136048780D01*
X177619171Y-137048780D02*
X177285838Y-136572590D01*
X177047742Y-137048780D02*
X177047742Y-136048780D01*
X177428695Y-136048780D01*
X177523933Y-136096400D01*
X177571552Y-136144019D01*
X177619171Y-136239257D01*
X177619171Y-136382114D01*
X177571552Y-136477352D01*
X177523933Y-136524971D01*
X177428695Y-136572590D01*
X177047742Y-136572590D01*
X177809647Y-137144019D02*
X178571552Y-137144019D01*
X178809647Y-137048780D02*
X178809647Y-136048780D01*
X179285838Y-136382114D02*
X179285838Y-137048780D01*
X179285838Y-136477352D02*
X179333457Y-136429733D01*
X179428695Y-136382114D01*
X179571552Y-136382114D01*
X179666790Y-136429733D01*
X179714409Y-136524971D01*
X179714409Y-137048780D01*
X180047742Y-136382114D02*
X180428695Y-136382114D01*
X180190600Y-136048780D02*
X180190600Y-136905923D01*
X180238219Y-137001161D01*
X180333457Y-137048780D01*
X180428695Y-137048780D01*
X181142980Y-137001161D02*
X181047742Y-137048780D01*
X180857266Y-137048780D01*
X180762028Y-137001161D01*
X180714409Y-136905923D01*
X180714409Y-136524971D01*
X180762028Y-136429733D01*
X180857266Y-136382114D01*
X181047742Y-136382114D01*
X181142980Y-136429733D01*
X181190600Y-136524971D01*
X181190600Y-136620209D01*
X180714409Y-136715447D01*
X181619171Y-137048780D02*
X181619171Y-136382114D01*
X181619171Y-136572590D02*
X181666790Y-136477352D01*
X181714409Y-136429733D01*
X181809647Y-136382114D01*
X181904885Y-136382114D01*
X182095361Y-136382114D02*
X182476314Y-136382114D01*
X182238219Y-137048780D02*
X182238219Y-136191638D01*
X182285838Y-136096400D01*
X182381076Y-136048780D01*
X182476314Y-136048780D01*
X183238219Y-137048780D02*
X183238219Y-136524971D01*
X183190600Y-136429733D01*
X183095361Y-136382114D01*
X182904885Y-136382114D01*
X182809647Y-136429733D01*
X183238219Y-137001161D02*
X183142980Y-137048780D01*
X182904885Y-137048780D01*
X182809647Y-137001161D01*
X182762028Y-136905923D01*
X182762028Y-136810685D01*
X182809647Y-136715447D01*
X182904885Y-136667828D01*
X183142980Y-136667828D01*
X183238219Y-136620209D01*
X184142980Y-137001161D02*
X184047742Y-137048780D01*
X183857266Y-137048780D01*
X183762028Y-137001161D01*
X183714409Y-136953542D01*
X183666790Y-136858304D01*
X183666790Y-136572590D01*
X183714409Y-136477352D01*
X183762028Y-136429733D01*
X183857266Y-136382114D01*
X184047742Y-136382114D01*
X184142980Y-136429733D01*
X184952504Y-137001161D02*
X184857266Y-137048780D01*
X184666790Y-137048780D01*
X184571552Y-137001161D01*
X184523933Y-136905923D01*
X184523933Y-136524971D01*
X184571552Y-136429733D01*
X184666790Y-136382114D01*
X184857266Y-136382114D01*
X184952504Y-136429733D01*
X185000123Y-136524971D01*
X185000123Y-136620209D01*
X184523933Y-136715447D01*
X190157123Y-143784580D02*
X189585695Y-143784580D01*
X189871409Y-143784580D02*
X189871409Y-142784580D01*
X189776171Y-142927438D01*
X189680933Y-143022676D01*
X189585695Y-143070295D01*
X191061885Y-142784580D02*
X190585695Y-142784580D01*
X190538076Y-143260771D01*
X190585695Y-143213152D01*
X190680933Y-143165533D01*
X190919028Y-143165533D01*
X191014266Y-143213152D01*
X191061885Y-143260771D01*
X191109504Y-143356009D01*
X191109504Y-143594104D01*
X191061885Y-143689342D01*
X191014266Y-143736961D01*
X190919028Y-143784580D01*
X190680933Y-143784580D01*
X190585695Y-143736961D01*
X190538076Y-143689342D01*
X190252361Y-140419152D02*
X190157123Y-140371533D01*
X190109504Y-140323914D01*
X190061885Y-140228676D01*
X190061885Y-140181057D01*
X190109504Y-140085819D01*
X190157123Y-140038200D01*
X190252361Y-139990580D01*
X190442838Y-139990580D01*
X190538076Y-140038200D01*
X190585695Y-140085819D01*
X190633314Y-140181057D01*
X190633314Y-140228676D01*
X190585695Y-140323914D01*
X190538076Y-140371533D01*
X190442838Y-140419152D01*
X190252361Y-140419152D01*
X190157123Y-140466771D01*
X190109504Y-140514390D01*
X190061885Y-140609628D01*
X190061885Y-140800104D01*
X190109504Y-140895342D01*
X190157123Y-140942961D01*
X190252361Y-140990580D01*
X190442838Y-140990580D01*
X190538076Y-140942961D01*
X190585695Y-140895342D01*
X190633314Y-140800104D01*
X190633314Y-140609628D01*
X190585695Y-140514390D01*
X190538076Y-140466771D01*
X190442838Y-140419152D01*
X165214323Y-143784580D02*
X165404800Y-143784580D01*
X165500038Y-143736961D01*
X165547657Y-143689342D01*
X165642895Y-143546485D01*
X165690514Y-143356009D01*
X165690514Y-142975057D01*
X165642895Y-142879819D01*
X165595276Y-142832200D01*
X165500038Y-142784580D01*
X165309561Y-142784580D01*
X165214323Y-142832200D01*
X165166704Y-142879819D01*
X165119085Y-142975057D01*
X165119085Y-143213152D01*
X165166704Y-143308390D01*
X165214323Y-143356009D01*
X165309561Y-143403628D01*
X165500038Y-143403628D01*
X165595276Y-143356009D01*
X165642895Y-143308390D01*
X165690514Y-143213152D01*
X165334914Y-140888980D02*
X164763485Y-140888980D01*
X165049200Y-140888980D02*
X165049200Y-139888980D01*
X164953961Y-140031838D01*
X164858723Y-140127076D01*
X164763485Y-140174695D01*
X146986666Y-145197580D02*
X146986666Y-145911866D01*
X146939047Y-146054723D01*
X146843809Y-146149961D01*
X146700952Y-146197580D01*
X146605714Y-146197580D01*
X147415238Y-145292819D02*
X147462857Y-145245200D01*
X147558095Y-145197580D01*
X147796190Y-145197580D01*
X147891428Y-145245200D01*
X147939047Y-145292819D01*
X147986666Y-145388057D01*
X147986666Y-145483295D01*
X147939047Y-145626152D01*
X147367619Y-146197580D01*
X147986666Y-146197580D01*
X111134095Y-137053580D02*
X111134095Y-136053580D01*
X111705523Y-137053580D01*
X111705523Y-136053580D01*
X112134095Y-136767866D02*
X112610285Y-136767866D01*
X112038857Y-137053580D02*
X112372190Y-136053580D01*
X112705523Y-137053580D01*
X112991238Y-137005961D02*
X113134095Y-137053580D01*
X113372190Y-137053580D01*
X113467428Y-137005961D01*
X113515047Y-136958342D01*
X113562666Y-136863104D01*
X113562666Y-136767866D01*
X113515047Y-136672628D01*
X113467428Y-136625009D01*
X113372190Y-136577390D01*
X113181714Y-136529771D01*
X113086476Y-136482152D01*
X113038857Y-136434533D01*
X112991238Y-136339295D01*
X112991238Y-136244057D01*
X113038857Y-136148819D01*
X113086476Y-136101200D01*
X113181714Y-136053580D01*
X113419809Y-136053580D01*
X113562666Y-136101200D01*
X113943619Y-136767866D02*
X114419809Y-136767866D01*
X113848380Y-137053580D02*
X114181714Y-136053580D01*
X114515047Y-137053580D01*
X114610285Y-137148819D02*
X115372190Y-137148819D01*
X115467428Y-136053580D02*
X116038857Y-136053580D01*
X115753142Y-137053580D02*
X115753142Y-136053580D01*
X116753142Y-137005961D02*
X116657904Y-137053580D01*
X116467428Y-137053580D01*
X116372190Y-137005961D01*
X116324571Y-136910723D01*
X116324571Y-136529771D01*
X116372190Y-136434533D01*
X116467428Y-136386914D01*
X116657904Y-136386914D01*
X116753142Y-136434533D01*
X116800761Y-136529771D01*
X116800761Y-136625009D01*
X116324571Y-136720247D01*
X117372190Y-137053580D02*
X117276952Y-137005961D01*
X117229333Y-136910723D01*
X117229333Y-136053580D01*
X118134095Y-137005961D02*
X118038857Y-137053580D01*
X117848380Y-137053580D01*
X117753142Y-137005961D01*
X117705523Y-136910723D01*
X117705523Y-136529771D01*
X117753142Y-136434533D01*
X117848380Y-136386914D01*
X118038857Y-136386914D01*
X118134095Y-136434533D01*
X118181714Y-136529771D01*
X118181714Y-136625009D01*
X117705523Y-136720247D01*
X118610285Y-137053580D02*
X118610285Y-136386914D01*
X118610285Y-136482152D02*
X118657904Y-136434533D01*
X118753142Y-136386914D01*
X118896000Y-136386914D01*
X118991238Y-136434533D01*
X119038857Y-136529771D01*
X119038857Y-137053580D01*
X119038857Y-136529771D02*
X119086476Y-136434533D01*
X119181714Y-136386914D01*
X119324571Y-136386914D01*
X119419809Y-136434533D01*
X119467428Y-136529771D01*
X119467428Y-137053580D01*
X120324571Y-137005961D02*
X120229333Y-137053580D01*
X120038857Y-137053580D01*
X119943619Y-137005961D01*
X119896000Y-136910723D01*
X119896000Y-136529771D01*
X119943619Y-136434533D01*
X120038857Y-136386914D01*
X120229333Y-136386914D01*
X120324571Y-136434533D01*
X120372190Y-136529771D01*
X120372190Y-136625009D01*
X119896000Y-136720247D01*
X120657904Y-136386914D02*
X121038857Y-136386914D01*
X120800761Y-136053580D02*
X120800761Y-136910723D01*
X120848380Y-137005961D01*
X120943619Y-137053580D01*
X121038857Y-137053580D01*
X121372190Y-137053580D02*
X121372190Y-136386914D01*
X121372190Y-136577390D02*
X121419809Y-136482152D01*
X121467428Y-136434533D01*
X121562666Y-136386914D01*
X121657904Y-136386914D01*
X121896000Y-136386914D02*
X122134095Y-137053580D01*
X122372190Y-136386914D02*
X122134095Y-137053580D01*
X122038857Y-137291676D01*
X121991238Y-137339295D01*
X121896000Y-137386914D01*
X122515047Y-137148819D02*
X123276952Y-137148819D01*
X123515047Y-137053580D02*
X123515047Y-136053580D01*
X123991238Y-136386914D02*
X123991238Y-137053580D01*
X123991238Y-136482152D02*
X124038857Y-136434533D01*
X124134095Y-136386914D01*
X124276952Y-136386914D01*
X124372190Y-136434533D01*
X124419809Y-136529771D01*
X124419809Y-137053580D01*
X124753142Y-136386914D02*
X125134095Y-136386914D01*
X124896000Y-136053580D02*
X124896000Y-136910723D01*
X124943619Y-137005961D01*
X125038857Y-137053580D01*
X125134095Y-137053580D01*
X125848380Y-137005961D02*
X125753142Y-137053580D01*
X125562666Y-137053580D01*
X125467428Y-137005961D01*
X125419809Y-136910723D01*
X125419809Y-136529771D01*
X125467428Y-136434533D01*
X125562666Y-136386914D01*
X125753142Y-136386914D01*
X125848380Y-136434533D01*
X125896000Y-136529771D01*
X125896000Y-136625009D01*
X125419809Y-136720247D01*
X126324571Y-137053580D02*
X126324571Y-136386914D01*
X126324571Y-136577390D02*
X126372190Y-136482152D01*
X126419809Y-136434533D01*
X126515047Y-136386914D01*
X126610285Y-136386914D01*
X126800761Y-136386914D02*
X127181714Y-136386914D01*
X126943619Y-137053580D02*
X126943619Y-136196438D01*
X126991238Y-136101200D01*
X127086476Y-136053580D01*
X127181714Y-136053580D01*
X127943619Y-137053580D02*
X127943619Y-136529771D01*
X127896000Y-136434533D01*
X127800761Y-136386914D01*
X127610285Y-136386914D01*
X127515047Y-136434533D01*
X127943619Y-137005961D02*
X127848380Y-137053580D01*
X127610285Y-137053580D01*
X127515047Y-137005961D01*
X127467428Y-136910723D01*
X127467428Y-136815485D01*
X127515047Y-136720247D01*
X127610285Y-136672628D01*
X127848380Y-136672628D01*
X127943619Y-136625009D01*
X128848380Y-137005961D02*
X128753142Y-137053580D01*
X128562666Y-137053580D01*
X128467428Y-137005961D01*
X128419809Y-136958342D01*
X128372190Y-136863104D01*
X128372190Y-136577390D01*
X128419809Y-136482152D01*
X128467428Y-136434533D01*
X128562666Y-136386914D01*
X128753142Y-136386914D01*
X128848380Y-136434533D01*
X129657904Y-137005961D02*
X129562666Y-137053580D01*
X129372190Y-137053580D01*
X129276952Y-137005961D01*
X129229333Y-136910723D01*
X129229333Y-136529771D01*
X129276952Y-136434533D01*
X129372190Y-136386914D01*
X129562666Y-136386914D01*
X129657904Y-136434533D01*
X129705523Y-136529771D01*
X129705523Y-136625009D01*
X129229333Y-136720247D01*
X147942323Y-140812780D02*
X147370895Y-140812780D01*
X147656609Y-140812780D02*
X147656609Y-139812780D01*
X147561371Y-139955638D01*
X147466133Y-140050876D01*
X147370895Y-140098495D01*
X148418514Y-140812780D02*
X148608990Y-140812780D01*
X148704228Y-140765161D01*
X148751847Y-140717542D01*
X148847085Y-140574685D01*
X148894704Y-140384209D01*
X148894704Y-140003257D01*
X148847085Y-139908019D01*
X148799466Y-139860400D01*
X148704228Y-139812780D01*
X148513752Y-139812780D01*
X148418514Y-139860400D01*
X148370895Y-139908019D01*
X148323276Y-140003257D01*
X148323276Y-140241352D01*
X148370895Y-140336590D01*
X148418514Y-140384209D01*
X148513752Y-140431828D01*
X148704228Y-140431828D01*
X148799466Y-140384209D01*
X148847085Y-140336590D01*
X148894704Y-140241352D01*
X146916876Y-142759180D02*
X147535923Y-142759180D01*
X147202590Y-143140133D01*
X147345447Y-143140133D01*
X147440685Y-143187752D01*
X147488304Y-143235371D01*
X147535923Y-143330609D01*
X147535923Y-143568704D01*
X147488304Y-143663942D01*
X147440685Y-143711561D01*
X147345447Y-143759180D01*
X147059733Y-143759180D01*
X146964495Y-143711561D01*
X146916876Y-143663942D01*
X147869257Y-142759180D02*
X148535923Y-142759180D01*
X148107352Y-143759180D01*
X91389295Y-142803619D02*
X91436914Y-142756000D01*
X91532152Y-142708380D01*
X91770247Y-142708380D01*
X91865485Y-142756000D01*
X91913104Y-142803619D01*
X91960723Y-142898857D01*
X91960723Y-142994095D01*
X91913104Y-143136952D01*
X91341676Y-143708380D01*
X91960723Y-143708380D01*
X92579771Y-142708380D02*
X92675009Y-142708380D01*
X92770247Y-142756000D01*
X92817866Y-142803619D01*
X92865485Y-142898857D01*
X92913104Y-143089333D01*
X92913104Y-143327428D01*
X92865485Y-143517904D01*
X92817866Y-143613142D01*
X92770247Y-143660761D01*
X92675009Y-143708380D01*
X92579771Y-143708380D01*
X92484533Y-143660761D01*
X92436914Y-143613142D01*
X92389295Y-143517904D01*
X92341676Y-143327428D01*
X92341676Y-143089333D01*
X92389295Y-142898857D01*
X92436914Y-142803619D01*
X92484533Y-142756000D01*
X92579771Y-142708380D01*
X92386114Y-140863580D02*
X91814685Y-140863580D01*
X92100400Y-140863580D02*
X92100400Y-139863580D01*
X92005161Y-140006438D01*
X91909923Y-140101676D01*
X91814685Y-140149295D01*
X101465142Y-125257820D02*
X101131809Y-124781630D01*
X100893714Y-125257820D02*
X100893714Y-124257820D01*
X101274666Y-124257820D01*
X101369904Y-124305440D01*
X101417523Y-124353059D01*
X101465142Y-124448297D01*
X101465142Y-124591154D01*
X101417523Y-124686392D01*
X101369904Y-124734011D01*
X101274666Y-124781630D01*
X100893714Y-124781630D01*
X102417523Y-125257820D02*
X101846095Y-125257820D01*
X102131809Y-125257820D02*
X102131809Y-124257820D01*
X102036571Y-124400678D01*
X101941333Y-124495916D01*
X101846095Y-124543535D01*
X102750857Y-124257820D02*
X103369904Y-124257820D01*
X103036571Y-124638773D01*
X103179428Y-124638773D01*
X103274666Y-124686392D01*
X103322285Y-124734011D01*
X103369904Y-124829249D01*
X103369904Y-125067344D01*
X103322285Y-125162582D01*
X103274666Y-125210201D01*
X103179428Y-125257820D01*
X102893714Y-125257820D01*
X102798476Y-125210201D01*
X102750857Y-125162582D01*
X104770323Y-125267980D02*
X104198895Y-125267980D01*
X104484609Y-125267980D02*
X104484609Y-124267980D01*
X104389371Y-124410838D01*
X104294133Y-124506076D01*
X104198895Y-124553695D01*
X105389371Y-124267980D02*
X105484609Y-124267980D01*
X105579847Y-124315600D01*
X105627466Y-124363219D01*
X105675085Y-124458457D01*
X105722704Y-124648933D01*
X105722704Y-124887028D01*
X105675085Y-125077504D01*
X105627466Y-125172742D01*
X105579847Y-125220361D01*
X105484609Y-125267980D01*
X105389371Y-125267980D01*
X105294133Y-125220361D01*
X105246514Y-125172742D01*
X105198895Y-125077504D01*
X105151276Y-124887028D01*
X105151276Y-124648933D01*
X105198895Y-124458457D01*
X105246514Y-124363219D01*
X105294133Y-124315600D01*
X105389371Y-124267980D01*
X106151276Y-125267980D02*
X106151276Y-124267980D01*
X106722704Y-125267980D02*
X106294133Y-124696552D01*
X106722704Y-124267980D02*
X106151276Y-124839409D01*
X120530382Y-121635780D02*
X120197049Y-121159590D01*
X119958954Y-121635780D02*
X119958954Y-120635780D01*
X120339906Y-120635780D01*
X120435144Y-120683400D01*
X120482763Y-120731019D01*
X120530382Y-120826257D01*
X120530382Y-120969114D01*
X120482763Y-121064352D01*
X120435144Y-121111971D01*
X120339906Y-121159590D01*
X119958954Y-121159590D01*
X121482763Y-121635780D02*
X120911335Y-121635780D01*
X121197049Y-121635780D02*
X121197049Y-120635780D01*
X121101811Y-120778638D01*
X121006573Y-120873876D01*
X120911335Y-120921495D01*
X121863716Y-120731019D02*
X121911335Y-120683400D01*
X122006573Y-120635780D01*
X122244668Y-120635780D01*
X122339906Y-120683400D01*
X122387525Y-120731019D01*
X122435144Y-120826257D01*
X122435144Y-120921495D01*
X122387525Y-121064352D01*
X121816097Y-121635780D01*
X122435144Y-121635780D01*
X105554495Y-120559580D02*
X105078304Y-120559580D01*
X105030685Y-121035771D01*
X105078304Y-120988152D01*
X105173542Y-120940533D01*
X105411638Y-120940533D01*
X105506876Y-120988152D01*
X105554495Y-121035771D01*
X105602114Y-121131009D01*
X105602114Y-121369104D01*
X105554495Y-121464342D01*
X105506876Y-121511961D01*
X105411638Y-121559580D01*
X105173542Y-121559580D01*
X105078304Y-121511961D01*
X105030685Y-121464342D01*
X106030685Y-121559580D02*
X106030685Y-120559580D01*
X106602114Y-121559580D02*
X106173542Y-120988152D01*
X106602114Y-120559580D02*
X106030685Y-121131009D01*
X136090422Y-125364500D02*
X135757089Y-124888310D01*
X135518994Y-125364500D02*
X135518994Y-124364500D01*
X135899946Y-124364500D01*
X135995184Y-124412120D01*
X136042803Y-124459739D01*
X136090422Y-124554977D01*
X136090422Y-124697834D01*
X136042803Y-124793072D01*
X135995184Y-124840691D01*
X135899946Y-124888310D01*
X135518994Y-124888310D01*
X137042803Y-125364500D02*
X136471375Y-125364500D01*
X136757089Y-125364500D02*
X136757089Y-124364500D01*
X136661851Y-124507358D01*
X136566613Y-124602596D01*
X136471375Y-124650215D01*
X137995184Y-125364500D02*
X137423756Y-125364500D01*
X137709470Y-125364500D02*
X137709470Y-124364500D01*
X137614232Y-124507358D01*
X137518994Y-124602596D01*
X137423756Y-124650215D01*
X133697695Y-124369580D02*
X133221504Y-124369580D01*
X133173885Y-124845771D01*
X133221504Y-124798152D01*
X133316742Y-124750533D01*
X133554838Y-124750533D01*
X133650076Y-124798152D01*
X133697695Y-124845771D01*
X133745314Y-124941009D01*
X133745314Y-125179104D01*
X133697695Y-125274342D01*
X133650076Y-125321961D01*
X133554838Y-125369580D01*
X133316742Y-125369580D01*
X133221504Y-125321961D01*
X133173885Y-125274342D01*
X134173885Y-125369580D02*
X134173885Y-124369580D01*
X134745314Y-125369580D02*
X134316742Y-124798152D01*
X134745314Y-124369580D02*
X134173885Y-124941009D01*
X119349780Y-108802466D02*
X118873590Y-109135800D01*
X119349780Y-109373895D02*
X118349780Y-109373895D01*
X118349780Y-108992942D01*
X118397400Y-108897704D01*
X118445019Y-108850085D01*
X118540257Y-108802466D01*
X118683114Y-108802466D01*
X118778352Y-108850085D01*
X118825971Y-108897704D01*
X118873590Y-108992942D01*
X118873590Y-109373895D01*
X119349780Y-108326276D02*
X119349780Y-108135800D01*
X119302161Y-108040561D01*
X119254542Y-107992942D01*
X119111685Y-107897704D01*
X118921209Y-107850085D01*
X118540257Y-107850085D01*
X118445019Y-107897704D01*
X118397400Y-107945323D01*
X118349780Y-108040561D01*
X118349780Y-108231038D01*
X118397400Y-108326276D01*
X118445019Y-108373895D01*
X118540257Y-108421514D01*
X118778352Y-108421514D01*
X118873590Y-108373895D01*
X118921209Y-108326276D01*
X118968828Y-108231038D01*
X118968828Y-108040561D01*
X118921209Y-107945323D01*
X118873590Y-107897704D01*
X118778352Y-107850085D01*
X118341980Y-106814904D02*
X118341980Y-107291095D01*
X118818171Y-107338714D01*
X118770552Y-107291095D01*
X118722933Y-107195857D01*
X118722933Y-106957761D01*
X118770552Y-106862523D01*
X118818171Y-106814904D01*
X118913409Y-106767285D01*
X119151504Y-106767285D01*
X119246742Y-106814904D01*
X119294361Y-106862523D01*
X119341980Y-106957761D01*
X119341980Y-107195857D01*
X119294361Y-107291095D01*
X119246742Y-107338714D01*
X119341980Y-106338714D02*
X118341980Y-106338714D01*
X119341980Y-105767285D02*
X118770552Y-106195857D01*
X118341980Y-105767285D02*
X118913409Y-106338714D01*
X112052180Y-112841066D02*
X111575990Y-113174400D01*
X112052180Y-113412495D02*
X111052180Y-113412495D01*
X111052180Y-113031542D01*
X111099800Y-112936304D01*
X111147419Y-112888685D01*
X111242657Y-112841066D01*
X111385514Y-112841066D01*
X111480752Y-112888685D01*
X111528371Y-112936304D01*
X111575990Y-113031542D01*
X111575990Y-113412495D01*
X111480752Y-112269638D02*
X111433133Y-112364876D01*
X111385514Y-112412495D01*
X111290276Y-112460114D01*
X111242657Y-112460114D01*
X111147419Y-112412495D01*
X111099800Y-112364876D01*
X111052180Y-112269638D01*
X111052180Y-112079161D01*
X111099800Y-111983923D01*
X111147419Y-111936304D01*
X111242657Y-111888685D01*
X111290276Y-111888685D01*
X111385514Y-111936304D01*
X111433133Y-111983923D01*
X111480752Y-112079161D01*
X111480752Y-112269638D01*
X111528371Y-112364876D01*
X111575990Y-112412495D01*
X111671228Y-112460114D01*
X111861704Y-112460114D01*
X111956942Y-112412495D01*
X112004561Y-112364876D01*
X112052180Y-112269638D01*
X112052180Y-112079161D01*
X112004561Y-111983923D01*
X111956942Y-111936304D01*
X111861704Y-111888685D01*
X111671228Y-111888685D01*
X111575990Y-111936304D01*
X111528371Y-111983923D01*
X111480752Y-112079161D01*
X115792180Y-112936304D02*
X115792180Y-113412495D01*
X116268371Y-113460114D01*
X116220752Y-113412495D01*
X116173133Y-113317257D01*
X116173133Y-113079161D01*
X116220752Y-112983923D01*
X116268371Y-112936304D01*
X116363609Y-112888685D01*
X116601704Y-112888685D01*
X116696942Y-112936304D01*
X116744561Y-112983923D01*
X116792180Y-113079161D01*
X116792180Y-113317257D01*
X116744561Y-113412495D01*
X116696942Y-113460114D01*
X116792180Y-112460114D02*
X115792180Y-112460114D01*
X116792180Y-111888685D02*
X116220752Y-112317257D01*
X115792180Y-111888685D02*
X116363609Y-112460114D01*
X174102733Y-106776780D02*
X173626542Y-106776780D01*
X173626542Y-105776780D01*
X174388447Y-105872019D02*
X174436066Y-105824400D01*
X174531304Y-105776780D01*
X174769400Y-105776780D01*
X174864638Y-105824400D01*
X174912257Y-105872019D01*
X174959876Y-105967257D01*
X174959876Y-106062495D01*
X174912257Y-106205352D01*
X174340828Y-106776780D01*
X174959876Y-106776780D01*
X176941780Y-104385857D02*
X176941780Y-104957285D01*
X176941780Y-104671571D02*
X175941780Y-104671571D01*
X176084638Y-104766809D01*
X176179876Y-104862047D01*
X176227495Y-104957285D01*
X175941780Y-103766809D02*
X175941780Y-103671571D01*
X175989400Y-103576333D01*
X176037019Y-103528714D01*
X176132257Y-103481095D01*
X176322733Y-103433476D01*
X176560828Y-103433476D01*
X176751304Y-103481095D01*
X176846542Y-103528714D01*
X176894161Y-103576333D01*
X176941780Y-103671571D01*
X176941780Y-103766809D01*
X176894161Y-103862047D01*
X176846542Y-103909666D01*
X176751304Y-103957285D01*
X176560828Y-104004904D01*
X176322733Y-104004904D01*
X176132257Y-103957285D01*
X176037019Y-103909666D01*
X175989400Y-103862047D01*
X175941780Y-103766809D01*
X175941780Y-102814428D02*
X175941780Y-102719190D01*
X175989400Y-102623952D01*
X176037019Y-102576333D01*
X176132257Y-102528714D01*
X176322733Y-102481095D01*
X176560828Y-102481095D01*
X176751304Y-102528714D01*
X176846542Y-102576333D01*
X176894161Y-102623952D01*
X176941780Y-102719190D01*
X176941780Y-102814428D01*
X176894161Y-102909666D01*
X176846542Y-102957285D01*
X176751304Y-103004904D01*
X176560828Y-103052523D01*
X176322733Y-103052523D01*
X176132257Y-103004904D01*
X176037019Y-102957285D01*
X175989400Y-102909666D01*
X175941780Y-102814428D01*
X176275114Y-101623952D02*
X176941780Y-101623952D01*
X176275114Y-102052523D02*
X176798923Y-102052523D01*
X176894161Y-102004904D01*
X176941780Y-101909666D01*
X176941780Y-101766809D01*
X176894161Y-101671571D01*
X176846542Y-101623952D01*
X176941780Y-101147761D02*
X175941780Y-101147761D01*
X176417971Y-101147761D02*
X176417971Y-100576333D01*
X176941780Y-100576333D02*
X175941780Y-100576333D01*
X179284333Y-106852980D02*
X178808142Y-106852980D01*
X178808142Y-105852980D01*
X180141476Y-106852980D02*
X179570047Y-106852980D01*
X179855761Y-106852980D02*
X179855761Y-105852980D01*
X179760523Y-105995838D01*
X179665285Y-106091076D01*
X179570047Y-106138695D01*
X181869380Y-104411257D02*
X181869380Y-104982685D01*
X181869380Y-104696971D02*
X180869380Y-104696971D01*
X181012238Y-104792209D01*
X181107476Y-104887447D01*
X181155095Y-104982685D01*
X180869380Y-103792209D02*
X180869380Y-103696971D01*
X180917000Y-103601733D01*
X180964619Y-103554114D01*
X181059857Y-103506495D01*
X181250333Y-103458876D01*
X181488428Y-103458876D01*
X181678904Y-103506495D01*
X181774142Y-103554114D01*
X181821761Y-103601733D01*
X181869380Y-103696971D01*
X181869380Y-103792209D01*
X181821761Y-103887447D01*
X181774142Y-103935066D01*
X181678904Y-103982685D01*
X181488428Y-104030304D01*
X181250333Y-104030304D01*
X181059857Y-103982685D01*
X180964619Y-103935066D01*
X180917000Y-103887447D01*
X180869380Y-103792209D01*
X180869380Y-102839828D02*
X180869380Y-102744590D01*
X180917000Y-102649352D01*
X180964619Y-102601733D01*
X181059857Y-102554114D01*
X181250333Y-102506495D01*
X181488428Y-102506495D01*
X181678904Y-102554114D01*
X181774142Y-102601733D01*
X181821761Y-102649352D01*
X181869380Y-102744590D01*
X181869380Y-102839828D01*
X181821761Y-102935066D01*
X181774142Y-102982685D01*
X181678904Y-103030304D01*
X181488428Y-103077923D01*
X181250333Y-103077923D01*
X181059857Y-103030304D01*
X180964619Y-102982685D01*
X180917000Y-102935066D01*
X180869380Y-102839828D01*
X181202714Y-101649352D02*
X181869380Y-101649352D01*
X181202714Y-102077923D02*
X181726523Y-102077923D01*
X181821761Y-102030304D01*
X181869380Y-101935066D01*
X181869380Y-101792209D01*
X181821761Y-101696971D01*
X181774142Y-101649352D01*
X181869380Y-101173161D02*
X180869380Y-101173161D01*
X181345571Y-101173161D02*
X181345571Y-100601733D01*
X181869380Y-100601733D02*
X180869380Y-100601733D01*
X161301133Y-146610342D02*
X161253514Y-146657961D01*
X161110657Y-146705580D01*
X161015419Y-146705580D01*
X160872561Y-146657961D01*
X160777323Y-146562723D01*
X160729704Y-146467485D01*
X160682085Y-146277009D01*
X160682085Y-146134152D01*
X160729704Y-145943676D01*
X160777323Y-145848438D01*
X160872561Y-145753200D01*
X161015419Y-145705580D01*
X161110657Y-145705580D01*
X161253514Y-145753200D01*
X161301133Y-145800819D01*
X162205895Y-145705580D02*
X161729704Y-145705580D01*
X161682085Y-146181771D01*
X161729704Y-146134152D01*
X161824942Y-146086533D01*
X162063038Y-146086533D01*
X162158276Y-146134152D01*
X162205895Y-146181771D01*
X162253514Y-146277009D01*
X162253514Y-146515104D01*
X162205895Y-146610342D01*
X162158276Y-146657961D01*
X162063038Y-146705580D01*
X161824942Y-146705580D01*
X161729704Y-146657961D01*
X161682085Y-146610342D01*
X159221752Y-133608819D02*
X159269371Y-133561200D01*
X159364609Y-133513580D01*
X159602704Y-133513580D01*
X159697942Y-133561200D01*
X159745561Y-133608819D01*
X159793180Y-133704057D01*
X159793180Y-133799295D01*
X159745561Y-133942152D01*
X159174133Y-134513580D01*
X159793180Y-134513580D01*
X160174133Y-133608819D02*
X160221752Y-133561200D01*
X160316990Y-133513580D01*
X160555085Y-133513580D01*
X160650323Y-133561200D01*
X160697942Y-133608819D01*
X160745561Y-133704057D01*
X160745561Y-133799295D01*
X160697942Y-133942152D01*
X160126514Y-134513580D01*
X160745561Y-134513580D01*
X161364609Y-133513580D02*
X161459847Y-133513580D01*
X161555085Y-133561200D01*
X161602704Y-133608819D01*
X161650323Y-133704057D01*
X161697942Y-133894533D01*
X161697942Y-134132628D01*
X161650323Y-134323104D01*
X161602704Y-134418342D01*
X161555085Y-134465961D01*
X161459847Y-134513580D01*
X161364609Y-134513580D01*
X161269371Y-134465961D01*
X161221752Y-134418342D01*
X161174133Y-134323104D01*
X161126514Y-134132628D01*
X161126514Y-133894533D01*
X161174133Y-133704057D01*
X161221752Y-133608819D01*
X161269371Y-133561200D01*
X161364609Y-133513580D01*
X162555085Y-133846914D02*
X162555085Y-134513580D01*
X162126514Y-133846914D02*
X162126514Y-134370723D01*
X162174133Y-134465961D01*
X162269371Y-134513580D01*
X162412228Y-134513580D01*
X162507466Y-134465961D01*
X162555085Y-134418342D01*
X163364609Y-133989771D02*
X163031276Y-133989771D01*
X163031276Y-134513580D02*
X163031276Y-133513580D01*
X163507466Y-133513580D01*
X188631533Y-123013742D02*
X188583914Y-123061361D01*
X188441057Y-123108980D01*
X188345819Y-123108980D01*
X188202961Y-123061361D01*
X188107723Y-122966123D01*
X188060104Y-122870885D01*
X188012485Y-122680409D01*
X188012485Y-122537552D01*
X188060104Y-122347076D01*
X188107723Y-122251838D01*
X188202961Y-122156600D01*
X188345819Y-122108980D01*
X188441057Y-122108980D01*
X188583914Y-122156600D01*
X188631533Y-122204219D01*
X189012485Y-122204219D02*
X189060104Y-122156600D01*
X189155342Y-122108980D01*
X189393438Y-122108980D01*
X189488676Y-122156600D01*
X189536295Y-122204219D01*
X189583914Y-122299457D01*
X189583914Y-122394695D01*
X189536295Y-122537552D01*
X188964866Y-123108980D01*
X189583914Y-123108980D01*
X182253190Y-123108980D02*
X181681761Y-123108980D01*
X181967476Y-123108980D02*
X181967476Y-122108980D01*
X181872238Y-122251838D01*
X181777000Y-122347076D01*
X181681761Y-122394695D01*
X182872238Y-122108980D02*
X182967476Y-122108980D01*
X183062714Y-122156600D01*
X183110333Y-122204219D01*
X183157952Y-122299457D01*
X183205571Y-122489933D01*
X183205571Y-122728028D01*
X183157952Y-122918504D01*
X183110333Y-123013742D01*
X183062714Y-123061361D01*
X182967476Y-123108980D01*
X182872238Y-123108980D01*
X182777000Y-123061361D01*
X182729380Y-123013742D01*
X182681761Y-122918504D01*
X182634142Y-122728028D01*
X182634142Y-122489933D01*
X182681761Y-122299457D01*
X182729380Y-122204219D01*
X182777000Y-122156600D01*
X182872238Y-122108980D01*
X183824619Y-122108980D02*
X183919857Y-122108980D01*
X184015095Y-122156600D01*
X184062714Y-122204219D01*
X184110333Y-122299457D01*
X184157952Y-122489933D01*
X184157952Y-122728028D01*
X184110333Y-122918504D01*
X184062714Y-123013742D01*
X184015095Y-123061361D01*
X183919857Y-123108980D01*
X183824619Y-123108980D01*
X183729380Y-123061361D01*
X183681761Y-123013742D01*
X183634142Y-122918504D01*
X183586523Y-122728028D01*
X183586523Y-122489933D01*
X183634142Y-122299457D01*
X183681761Y-122204219D01*
X183729380Y-122156600D01*
X183824619Y-122108980D01*
X184777000Y-122108980D02*
X184872238Y-122108980D01*
X184967476Y-122156600D01*
X185015095Y-122204219D01*
X185062714Y-122299457D01*
X185110333Y-122489933D01*
X185110333Y-122728028D01*
X185062714Y-122918504D01*
X185015095Y-123013742D01*
X184967476Y-123061361D01*
X184872238Y-123108980D01*
X184777000Y-123108980D01*
X184681761Y-123061361D01*
X184634142Y-123013742D01*
X184586523Y-122918504D01*
X184538904Y-122728028D01*
X184538904Y-122489933D01*
X184586523Y-122299457D01*
X184634142Y-122204219D01*
X184681761Y-122156600D01*
X184777000Y-122108980D01*
X185967476Y-122442314D02*
X185967476Y-123108980D01*
X185538904Y-122442314D02*
X185538904Y-122966123D01*
X185586523Y-123061361D01*
X185681761Y-123108980D01*
X185824619Y-123108980D01*
X185919857Y-123061361D01*
X185967476Y-123013742D01*
X186777000Y-122585171D02*
X186443666Y-122585171D01*
X186443666Y-123108980D02*
X186443666Y-122108980D01*
X186919857Y-122108980D01*
X188631533Y-110618542D02*
X188583914Y-110666161D01*
X188441057Y-110713780D01*
X188345819Y-110713780D01*
X188202961Y-110666161D01*
X188107723Y-110570923D01*
X188060104Y-110475685D01*
X188012485Y-110285209D01*
X188012485Y-110142352D01*
X188060104Y-109951876D01*
X188107723Y-109856638D01*
X188202961Y-109761400D01*
X188345819Y-109713780D01*
X188441057Y-109713780D01*
X188583914Y-109761400D01*
X188631533Y-109809019D01*
X189583914Y-110713780D02*
X189012485Y-110713780D01*
X189298200Y-110713780D02*
X189298200Y-109713780D01*
X189202961Y-109856638D01*
X189107723Y-109951876D01*
X189012485Y-109999495D01*
X182024590Y-110739180D02*
X181453161Y-110739180D01*
X181738876Y-110739180D02*
X181738876Y-109739180D01*
X181643638Y-109882038D01*
X181548400Y-109977276D01*
X181453161Y-110024895D01*
X182643638Y-109739180D02*
X182738876Y-109739180D01*
X182834114Y-109786800D01*
X182881733Y-109834419D01*
X182929352Y-109929657D01*
X182976971Y-110120133D01*
X182976971Y-110358228D01*
X182929352Y-110548704D01*
X182881733Y-110643942D01*
X182834114Y-110691561D01*
X182738876Y-110739180D01*
X182643638Y-110739180D01*
X182548400Y-110691561D01*
X182500780Y-110643942D01*
X182453161Y-110548704D01*
X182405542Y-110358228D01*
X182405542Y-110120133D01*
X182453161Y-109929657D01*
X182500780Y-109834419D01*
X182548400Y-109786800D01*
X182643638Y-109739180D01*
X183596019Y-109739180D02*
X183691257Y-109739180D01*
X183786495Y-109786800D01*
X183834114Y-109834419D01*
X183881733Y-109929657D01*
X183929352Y-110120133D01*
X183929352Y-110358228D01*
X183881733Y-110548704D01*
X183834114Y-110643942D01*
X183786495Y-110691561D01*
X183691257Y-110739180D01*
X183596019Y-110739180D01*
X183500780Y-110691561D01*
X183453161Y-110643942D01*
X183405542Y-110548704D01*
X183357923Y-110358228D01*
X183357923Y-110120133D01*
X183405542Y-109929657D01*
X183453161Y-109834419D01*
X183500780Y-109786800D01*
X183596019Y-109739180D01*
X184548400Y-109739180D02*
X184643638Y-109739180D01*
X184738876Y-109786800D01*
X184786495Y-109834419D01*
X184834114Y-109929657D01*
X184881733Y-110120133D01*
X184881733Y-110358228D01*
X184834114Y-110548704D01*
X184786495Y-110643942D01*
X184738876Y-110691561D01*
X184643638Y-110739180D01*
X184548400Y-110739180D01*
X184453161Y-110691561D01*
X184405542Y-110643942D01*
X184357923Y-110548704D01*
X184310304Y-110358228D01*
X184310304Y-110120133D01*
X184357923Y-109929657D01*
X184405542Y-109834419D01*
X184453161Y-109786800D01*
X184548400Y-109739180D01*
X185738876Y-110072514D02*
X185738876Y-110739180D01*
X185310304Y-110072514D02*
X185310304Y-110596323D01*
X185357923Y-110691561D01*
X185453161Y-110739180D01*
X185596019Y-110739180D01*
X185691257Y-110691561D01*
X185738876Y-110643942D01*
X186548400Y-110215371D02*
X186215066Y-110215371D01*
X186215066Y-110739180D02*
X186215066Y-109739180D01*
X186691257Y-109739180D01*
X194143380Y-135254904D02*
X194952904Y-135254904D01*
X195048142Y-135207285D01*
X195095761Y-135159666D01*
X195143380Y-135064428D01*
X195143380Y-134873952D01*
X195095761Y-134778714D01*
X195048142Y-134731095D01*
X194952904Y-134683476D01*
X194143380Y-134683476D01*
X194238619Y-134254904D02*
X194191000Y-134207285D01*
X194143380Y-134112047D01*
X194143380Y-133873952D01*
X194191000Y-133778714D01*
X194238619Y-133731095D01*
X194333857Y-133683476D01*
X194429095Y-133683476D01*
X194571952Y-133731095D01*
X195143380Y-134302523D01*
X195143380Y-133683476D01*
X201747380Y-132801857D02*
X201747380Y-133278047D01*
X200747380Y-133278047D01*
X201747380Y-132468523D02*
X200747380Y-132468523D01*
X201461666Y-132135190D01*
X200747380Y-131801857D01*
X201747380Y-131801857D01*
X200842619Y-131373285D02*
X200795000Y-131325666D01*
X200747380Y-131230428D01*
X200747380Y-130992333D01*
X200795000Y-130897095D01*
X200842619Y-130849476D01*
X200937857Y-130801857D01*
X201033095Y-130801857D01*
X201175952Y-130849476D01*
X201747380Y-131420904D01*
X201747380Y-130801857D01*
X200747380Y-129897095D02*
X200747380Y-130373285D01*
X201223571Y-130420904D01*
X201175952Y-130373285D01*
X201128333Y-130278047D01*
X201128333Y-130039952D01*
X201175952Y-129944714D01*
X201223571Y-129897095D01*
X201318809Y-129849476D01*
X201556904Y-129849476D01*
X201652142Y-129897095D01*
X201699761Y-129944714D01*
X201747380Y-130039952D01*
X201747380Y-130278047D01*
X201699761Y-130373285D01*
X201652142Y-130420904D01*
X200747380Y-129516142D02*
X200747380Y-128849476D01*
X201747380Y-129278047D01*
X200747380Y-128039952D02*
X200747380Y-128230428D01*
X200795000Y-128325666D01*
X200842619Y-128373285D01*
X200985476Y-128468523D01*
X201175952Y-128516142D01*
X201556904Y-128516142D01*
X201652142Y-128468523D01*
X201699761Y-128420904D01*
X201747380Y-128325666D01*
X201747380Y-128135190D01*
X201699761Y-128039952D01*
X201652142Y-127992333D01*
X201556904Y-127944714D01*
X201318809Y-127944714D01*
X201223571Y-127992333D01*
X201175952Y-128039952D01*
X201128333Y-128135190D01*
X201128333Y-128325666D01*
X201175952Y-128420904D01*
X201223571Y-128468523D01*
X201318809Y-128516142D01*
X200747380Y-127659000D02*
X200747380Y-127087571D01*
X201747380Y-127373285D02*
X200747380Y-127373285D01*
X201366428Y-126754238D02*
X201366428Y-125992333D01*
X200747380Y-125039952D02*
X200747380Y-125516142D01*
X201223571Y-125563761D01*
X201175952Y-125516142D01*
X201128333Y-125420904D01*
X201128333Y-125182809D01*
X201175952Y-125087571D01*
X201223571Y-125039952D01*
X201318809Y-124992333D01*
X201556904Y-124992333D01*
X201652142Y-125039952D01*
X201699761Y-125087571D01*
X201747380Y-125182809D01*
X201747380Y-125420904D01*
X201699761Y-125516142D01*
X201652142Y-125563761D01*
X125736361Y-121502419D02*
X125641123Y-121454800D01*
X125545885Y-121359561D01*
X125403028Y-121216704D01*
X125307790Y-121169085D01*
X125212552Y-121169085D01*
X125260171Y-121407180D02*
X125164933Y-121359561D01*
X125069695Y-121264323D01*
X125022076Y-121073847D01*
X125022076Y-120740514D01*
X125069695Y-120550038D01*
X125164933Y-120454800D01*
X125260171Y-120407180D01*
X125450647Y-120407180D01*
X125545885Y-120454800D01*
X125641123Y-120550038D01*
X125688742Y-120740514D01*
X125688742Y-121073847D01*
X125641123Y-121264323D01*
X125545885Y-121359561D01*
X125450647Y-121407180D01*
X125260171Y-121407180D01*
X126022076Y-120407180D02*
X126641123Y-120407180D01*
X126307790Y-120788133D01*
X126450647Y-120788133D01*
X126545885Y-120835752D01*
X126593504Y-120883371D01*
X126641123Y-120978609D01*
X126641123Y-121216704D01*
X126593504Y-121311942D01*
X126545885Y-121359561D01*
X126450647Y-121407180D01*
X126164933Y-121407180D01*
X126069695Y-121359561D01*
X126022076Y-121311942D01*
X121415514Y-114101619D02*
X121463133Y-114054000D01*
X121558371Y-114006380D01*
X121796466Y-114006380D01*
X121891704Y-114054000D01*
X121939323Y-114101619D01*
X121986942Y-114196857D01*
X121986942Y-114292095D01*
X121939323Y-114434952D01*
X121367895Y-115006380D01*
X121986942Y-115006380D01*
X122415514Y-115006380D02*
X122415514Y-114006380D01*
X122986942Y-115006380D01*
X122986942Y-114006380D01*
X123367895Y-114006380D02*
X124034561Y-114006380D01*
X123605990Y-115006380D01*
X124605990Y-114006380D02*
X124701228Y-114006380D01*
X124796466Y-114054000D01*
X124844085Y-114101619D01*
X124891704Y-114196857D01*
X124939323Y-114387333D01*
X124939323Y-114625428D01*
X124891704Y-114815904D01*
X124844085Y-114911142D01*
X124796466Y-114958761D01*
X124701228Y-115006380D01*
X124605990Y-115006380D01*
X124510752Y-114958761D01*
X124463133Y-114911142D01*
X124415514Y-114815904D01*
X124367895Y-114625428D01*
X124367895Y-114387333D01*
X124415514Y-114196857D01*
X124463133Y-114101619D01*
X124510752Y-114054000D01*
X124605990Y-114006380D01*
X125558371Y-114006380D02*
X125653609Y-114006380D01*
X125748847Y-114054000D01*
X125796466Y-114101619D01*
X125844085Y-114196857D01*
X125891704Y-114387333D01*
X125891704Y-114625428D01*
X125844085Y-114815904D01*
X125796466Y-114911142D01*
X125748847Y-114958761D01*
X125653609Y-115006380D01*
X125558371Y-115006380D01*
X125463133Y-114958761D01*
X125415514Y-114911142D01*
X125367895Y-114815904D01*
X125320276Y-114625428D01*
X125320276Y-114387333D01*
X125367895Y-114196857D01*
X125415514Y-114101619D01*
X125463133Y-114054000D01*
X125558371Y-114006380D01*
X126510752Y-114006380D02*
X126605990Y-114006380D01*
X126701228Y-114054000D01*
X126748847Y-114101619D01*
X126796466Y-114196857D01*
X126844085Y-114387333D01*
X126844085Y-114625428D01*
X126796466Y-114815904D01*
X126748847Y-114911142D01*
X126701228Y-114958761D01*
X126605990Y-115006380D01*
X126510752Y-115006380D01*
X126415514Y-114958761D01*
X126367895Y-114911142D01*
X126320276Y-114815904D01*
X126272657Y-114625428D01*
X126272657Y-114387333D01*
X126320276Y-114196857D01*
X126367895Y-114101619D01*
X126415514Y-114054000D01*
X126510752Y-114006380D01*
X116185961Y-107659419D02*
X116090723Y-107611800D01*
X115995485Y-107516561D01*
X115852628Y-107373704D01*
X115757390Y-107326085D01*
X115662152Y-107326085D01*
X115709771Y-107564180D02*
X115614533Y-107516561D01*
X115519295Y-107421323D01*
X115471676Y-107230847D01*
X115471676Y-106897514D01*
X115519295Y-106707038D01*
X115614533Y-106611800D01*
X115709771Y-106564180D01*
X115900247Y-106564180D01*
X115995485Y-106611800D01*
X116090723Y-106707038D01*
X116138342Y-106897514D01*
X116138342Y-107230847D01*
X116090723Y-107421323D01*
X115995485Y-107516561D01*
X115900247Y-107564180D01*
X115709771Y-107564180D01*
X116519295Y-106659419D02*
X116566914Y-106611800D01*
X116662152Y-106564180D01*
X116900247Y-106564180D01*
X116995485Y-106611800D01*
X117043104Y-106659419D01*
X117090723Y-106754657D01*
X117090723Y-106849895D01*
X117043104Y-106992752D01*
X116471676Y-107564180D01*
X117090723Y-107564180D01*
X111865114Y-100207819D02*
X111912733Y-100160200D01*
X112007971Y-100112580D01*
X112246066Y-100112580D01*
X112341304Y-100160200D01*
X112388923Y-100207819D01*
X112436542Y-100303057D01*
X112436542Y-100398295D01*
X112388923Y-100541152D01*
X111817495Y-101112580D01*
X112436542Y-101112580D01*
X112865114Y-101112580D02*
X112865114Y-100112580D01*
X113436542Y-101112580D01*
X113436542Y-100112580D01*
X113817495Y-100112580D02*
X114484161Y-100112580D01*
X114055590Y-101112580D01*
X115055590Y-100112580D02*
X115150828Y-100112580D01*
X115246066Y-100160200D01*
X115293685Y-100207819D01*
X115341304Y-100303057D01*
X115388923Y-100493533D01*
X115388923Y-100731628D01*
X115341304Y-100922104D01*
X115293685Y-101017342D01*
X115246066Y-101064961D01*
X115150828Y-101112580D01*
X115055590Y-101112580D01*
X114960352Y-101064961D01*
X114912733Y-101017342D01*
X114865114Y-100922104D01*
X114817495Y-100731628D01*
X114817495Y-100493533D01*
X114865114Y-100303057D01*
X114912733Y-100207819D01*
X114960352Y-100160200D01*
X115055590Y-100112580D01*
X116007971Y-100112580D02*
X116103209Y-100112580D01*
X116198447Y-100160200D01*
X116246066Y-100207819D01*
X116293685Y-100303057D01*
X116341304Y-100493533D01*
X116341304Y-100731628D01*
X116293685Y-100922104D01*
X116246066Y-101017342D01*
X116198447Y-101064961D01*
X116103209Y-101112580D01*
X116007971Y-101112580D01*
X115912733Y-101064961D01*
X115865114Y-101017342D01*
X115817495Y-100922104D01*
X115769876Y-100731628D01*
X115769876Y-100493533D01*
X115817495Y-100303057D01*
X115865114Y-100207819D01*
X115912733Y-100160200D01*
X116007971Y-100112580D01*
X116960352Y-100112580D02*
X117055590Y-100112580D01*
X117150828Y-100160200D01*
X117198447Y-100207819D01*
X117246066Y-100303057D01*
X117293685Y-100493533D01*
X117293685Y-100731628D01*
X117246066Y-100922104D01*
X117198447Y-101017342D01*
X117150828Y-101064961D01*
X117055590Y-101112580D01*
X116960352Y-101112580D01*
X116865114Y-101064961D01*
X116817495Y-101017342D01*
X116769876Y-100922104D01*
X116722257Y-100731628D01*
X116722257Y-100493533D01*
X116769876Y-100303057D01*
X116817495Y-100207819D01*
X116865114Y-100160200D01*
X116960352Y-100112580D01*
X146329495Y-121702580D02*
X146329495Y-122512104D01*
X146377114Y-122607342D01*
X146424733Y-122654961D01*
X146519971Y-122702580D01*
X146710447Y-122702580D01*
X146805685Y-122654961D01*
X146853304Y-122607342D01*
X146900923Y-122512104D01*
X146900923Y-121702580D01*
X147519971Y-122131152D02*
X147424733Y-122083533D01*
X147377114Y-122035914D01*
X147329495Y-121940676D01*
X147329495Y-121893057D01*
X147377114Y-121797819D01*
X147424733Y-121750200D01*
X147519971Y-121702580D01*
X147710447Y-121702580D01*
X147805685Y-121750200D01*
X147853304Y-121797819D01*
X147900923Y-121893057D01*
X147900923Y-121940676D01*
X147853304Y-122035914D01*
X147805685Y-122083533D01*
X147710447Y-122131152D01*
X147519971Y-122131152D01*
X147424733Y-122178771D01*
X147377114Y-122226390D01*
X147329495Y-122321628D01*
X147329495Y-122512104D01*
X147377114Y-122607342D01*
X147424733Y-122654961D01*
X147519971Y-122702580D01*
X147710447Y-122702580D01*
X147805685Y-122654961D01*
X147853304Y-122607342D01*
X147900923Y-122512104D01*
X147900923Y-122321628D01*
X147853304Y-122226390D01*
X147805685Y-122178771D01*
X147710447Y-122131152D01*
X141706980Y-100953866D02*
X142183171Y-100953866D01*
X141611742Y-101239580D02*
X141945076Y-100239580D01*
X142278409Y-101239580D01*
X142611742Y-101239580D02*
X142611742Y-100239580D01*
X142849838Y-100239580D01*
X142992695Y-100287200D01*
X143087933Y-100382438D01*
X143135552Y-100477676D01*
X143183171Y-100668152D01*
X143183171Y-100811009D01*
X143135552Y-101001485D01*
X143087933Y-101096723D01*
X142992695Y-101191961D01*
X142849838Y-101239580D01*
X142611742Y-101239580D01*
X143516504Y-100239580D02*
X144183171Y-101239580D01*
X144183171Y-100239580D02*
X143516504Y-101239580D01*
X145040314Y-101239580D02*
X144564123Y-101239580D01*
X144564123Y-100239580D01*
X145278409Y-100239580D02*
X145897457Y-100239580D01*
X145564123Y-100620533D01*
X145706980Y-100620533D01*
X145802219Y-100668152D01*
X145849838Y-100715771D01*
X145897457Y-100811009D01*
X145897457Y-101049104D01*
X145849838Y-101144342D01*
X145802219Y-101191961D01*
X145706980Y-101239580D01*
X145421266Y-101239580D01*
X145326028Y-101191961D01*
X145278409Y-101144342D01*
X146230790Y-100239580D02*
X146897457Y-100239580D01*
X146468885Y-101239580D01*
X147183171Y-100239580D02*
X147849838Y-100239580D01*
X147421266Y-101239580D01*
X130197266Y-104963980D02*
X130863933Y-105963980D01*
X130863933Y-104963980D02*
X130197266Y-105963980D01*
X133070600Y-105513190D02*
X133070600Y-105989380D01*
X132737266Y-104989380D02*
X133070600Y-105513190D01*
X133403933Y-104989380D01*
X135277266Y-104989380D02*
X135943933Y-104989380D01*
X135277266Y-105989380D01*
X135943933Y-105989380D01*
X137890285Y-104989380D02*
X138461714Y-104989380D01*
X138176000Y-105989380D02*
X138176000Y-104989380D01*
X139903295Y-105011600D02*
X139808057Y-104963980D01*
X139665200Y-104963980D01*
X139522342Y-105011600D01*
X139427104Y-105106838D01*
X139379485Y-105202076D01*
X139331866Y-105392552D01*
X139331866Y-105535409D01*
X139379485Y-105725885D01*
X139427104Y-105821123D01*
X139522342Y-105916361D01*
X139665200Y-105963980D01*
X139760438Y-105963980D01*
X139903295Y-105916361D01*
X139950914Y-105868742D01*
X139950914Y-105535409D01*
X139760438Y-105535409D01*
X140379485Y-105963980D02*
X140379485Y-104963980D01*
X140950914Y-105963980D01*
X140950914Y-104963980D01*
X141427104Y-105963980D02*
X141427104Y-104963980D01*
X141665200Y-104963980D01*
X141808057Y-105011600D01*
X141903295Y-105106838D01*
X141950914Y-105202076D01*
X141998533Y-105392552D01*
X141998533Y-105535409D01*
X141950914Y-105725885D01*
X141903295Y-105821123D01*
X141808057Y-105916361D01*
X141665200Y-105963980D01*
X141427104Y-105963980D01*
X142697295Y-104963980D02*
X143316342Y-104963980D01*
X142983009Y-105344933D01*
X143125866Y-105344933D01*
X143221104Y-105392552D01*
X143268723Y-105440171D01*
X143316342Y-105535409D01*
X143316342Y-105773504D01*
X143268723Y-105868742D01*
X143221104Y-105916361D01*
X143125866Y-105963980D01*
X142840152Y-105963980D01*
X142744914Y-105916361D01*
X142697295Y-105868742D01*
X143602057Y-104963980D02*
X143935390Y-105963980D01*
X144268723Y-104963980D01*
X145102390Y-104989380D02*
X145435723Y-105989380D01*
X145769057Y-104989380D01*
X146102390Y-105989380D02*
X146102390Y-105322714D01*
X146102390Y-104989380D02*
X146054771Y-105037000D01*
X146102390Y-105084619D01*
X146150009Y-105037000D01*
X146102390Y-104989380D01*
X146102390Y-105084619D01*
X146578580Y-105322714D02*
X146578580Y-105989380D01*
X146578580Y-105417952D02*
X146626200Y-105370333D01*
X146721438Y-105322714D01*
X146864295Y-105322714D01*
X146959533Y-105370333D01*
X147007152Y-105465571D01*
X147007152Y-105989380D01*
X96926495Y-119238780D02*
X96926495Y-120048304D01*
X96974114Y-120143542D01*
X97021733Y-120191161D01*
X97116971Y-120238780D01*
X97307447Y-120238780D01*
X97402685Y-120191161D01*
X97450304Y-120143542D01*
X97497923Y-120048304D01*
X97497923Y-119238780D01*
X98402685Y-119238780D02*
X98212209Y-119238780D01*
X98116971Y-119286400D01*
X98069352Y-119334019D01*
X97974114Y-119476876D01*
X97926495Y-119667352D01*
X97926495Y-120048304D01*
X97974114Y-120143542D01*
X98021733Y-120191161D01*
X98116971Y-120238780D01*
X98307447Y-120238780D01*
X98402685Y-120191161D01*
X98450304Y-120143542D01*
X98497923Y-120048304D01*
X98497923Y-119810209D01*
X98450304Y-119714971D01*
X98402685Y-119667352D01*
X98307447Y-119619733D01*
X98116971Y-119619733D01*
X98021733Y-119667352D01*
X97974114Y-119714971D01*
X97926495Y-119810209D01*
X96031990Y-101903161D02*
X96174847Y-101950780D01*
X96412942Y-101950780D01*
X96508180Y-101903161D01*
X96555800Y-101855542D01*
X96603419Y-101760304D01*
X96603419Y-101665066D01*
X96555800Y-101569828D01*
X96508180Y-101522209D01*
X96412942Y-101474590D01*
X96222466Y-101426971D01*
X96127228Y-101379352D01*
X96079609Y-101331733D01*
X96031990Y-101236495D01*
X96031990Y-101141257D01*
X96079609Y-101046019D01*
X96127228Y-100998400D01*
X96222466Y-100950780D01*
X96460561Y-100950780D01*
X96603419Y-100998400D01*
X97365323Y-101426971D02*
X97031990Y-101426971D01*
X97031990Y-101950780D02*
X97031990Y-100950780D01*
X97508180Y-100950780D01*
X97651038Y-102046019D02*
X98412942Y-102046019D01*
X99127228Y-101950780D02*
X98651038Y-101950780D01*
X98651038Y-100950780D01*
X99603419Y-101950780D02*
X99508180Y-101903161D01*
X99460561Y-101855542D01*
X99412942Y-101760304D01*
X99412942Y-101474590D01*
X99460561Y-101379352D01*
X99508180Y-101331733D01*
X99603419Y-101284114D01*
X99746276Y-101284114D01*
X99841514Y-101331733D01*
X99889133Y-101379352D01*
X99936752Y-101474590D01*
X99936752Y-101760304D01*
X99889133Y-101855542D01*
X99841514Y-101903161D01*
X99746276Y-101950780D01*
X99603419Y-101950780D01*
X100793895Y-101284114D02*
X100793895Y-102093638D01*
X100746276Y-102188876D01*
X100698657Y-102236495D01*
X100603419Y-102284114D01*
X100460561Y-102284114D01*
X100365323Y-102236495D01*
X100793895Y-101903161D02*
X100698657Y-101950780D01*
X100508180Y-101950780D01*
X100412942Y-101903161D01*
X100365323Y-101855542D01*
X100317704Y-101760304D01*
X100317704Y-101474590D01*
X100365323Y-101379352D01*
X100412942Y-101331733D01*
X100508180Y-101284114D01*
X100698657Y-101284114D01*
X100793895Y-101331733D01*
X101270085Y-101950780D02*
X101270085Y-101284114D01*
X101270085Y-100950780D02*
X101222466Y-100998400D01*
X101270085Y-101046019D01*
X101317704Y-100998400D01*
X101270085Y-100950780D01*
X101270085Y-101046019D01*
X102174847Y-101903161D02*
X102079609Y-101950780D01*
X101889133Y-101950780D01*
X101793895Y-101903161D01*
X101746276Y-101855542D01*
X101698657Y-101760304D01*
X101698657Y-101474590D01*
X101746276Y-101379352D01*
X101793895Y-101331733D01*
X101889133Y-101284114D01*
X102079609Y-101284114D01*
X102174847Y-101331733D01*
X102365323Y-102046019D02*
X103127228Y-102046019D01*
X103841514Y-101950780D02*
X103365323Y-101950780D01*
X103365323Y-100950780D01*
X104555800Y-101903161D02*
X104460561Y-101950780D01*
X104270085Y-101950780D01*
X104174847Y-101903161D01*
X104127228Y-101807923D01*
X104127228Y-101426971D01*
X104174847Y-101331733D01*
X104270085Y-101284114D01*
X104460561Y-101284114D01*
X104555800Y-101331733D01*
X104603419Y-101426971D01*
X104603419Y-101522209D01*
X104127228Y-101617447D01*
X104936752Y-101284114D02*
X105174847Y-101950780D01*
X105412942Y-101284114D01*
X106174847Y-101903161D02*
X106079609Y-101950780D01*
X105889133Y-101950780D01*
X105793895Y-101903161D01*
X105746276Y-101807923D01*
X105746276Y-101426971D01*
X105793895Y-101331733D01*
X105889133Y-101284114D01*
X106079609Y-101284114D01*
X106174847Y-101331733D01*
X106222466Y-101426971D01*
X106222466Y-101522209D01*
X105746276Y-101617447D01*
X106793895Y-101950780D02*
X106698657Y-101903161D01*
X106651038Y-101807923D01*
X106651038Y-100950780D01*
X106936752Y-102046019D02*
X107698657Y-102046019D01*
X108508180Y-101855542D02*
X108460561Y-101903161D01*
X108317704Y-101950780D01*
X108222466Y-101950780D01*
X108079609Y-101903161D01*
X107984371Y-101807923D01*
X107936752Y-101712685D01*
X107889133Y-101522209D01*
X107889133Y-101379352D01*
X107936752Y-101188876D01*
X107984371Y-101093638D01*
X108079609Y-100998400D01*
X108222466Y-100950780D01*
X108317704Y-100950780D01*
X108460561Y-100998400D01*
X108508180Y-101046019D01*
X109079609Y-101950780D02*
X108984371Y-101903161D01*
X108936752Y-101855542D01*
X108889133Y-101760304D01*
X108889133Y-101474590D01*
X108936752Y-101379352D01*
X108984371Y-101331733D01*
X109079609Y-101284114D01*
X109222466Y-101284114D01*
X109317704Y-101331733D01*
X109365323Y-101379352D01*
X109412942Y-101474590D01*
X109412942Y-101760304D01*
X109365323Y-101855542D01*
X109317704Y-101903161D01*
X109222466Y-101950780D01*
X109079609Y-101950780D01*
X109841514Y-101284114D02*
X109841514Y-101950780D01*
X109841514Y-101379352D02*
X109889133Y-101331733D01*
X109984371Y-101284114D01*
X110127228Y-101284114D01*
X110222466Y-101331733D01*
X110270085Y-101426971D01*
X110270085Y-101950780D01*
X110651038Y-101284114D02*
X110889133Y-101950780D01*
X111127228Y-101284114D01*
X100369761Y-117520980D02*
X99893571Y-117520980D01*
X99893571Y-116520980D01*
X100560238Y-116520980D02*
X100893571Y-117520980D01*
X101226904Y-116520980D01*
X101988809Y-116854314D02*
X101988809Y-117520980D01*
X101750714Y-116473361D02*
X101512619Y-117187647D01*
X102131666Y-117187647D01*
X100369761Y-114980980D02*
X99893571Y-114980980D01*
X99893571Y-113980980D01*
X100560238Y-113980980D02*
X100893571Y-114980980D01*
X101226904Y-113980980D01*
X101465000Y-113980980D02*
X102084047Y-113980980D01*
X101750714Y-114361933D01*
X101893571Y-114361933D01*
X101988809Y-114409552D01*
X102036428Y-114457171D01*
X102084047Y-114552409D01*
X102084047Y-114790504D01*
X102036428Y-114885742D01*
X101988809Y-114933361D01*
X101893571Y-114980980D01*
X101607857Y-114980980D01*
X101512619Y-114933361D01*
X101465000Y-114885742D01*
X100482495Y-111488600D02*
X100387257Y-111440980D01*
X100244400Y-111440980D01*
X100101542Y-111488600D01*
X100006304Y-111583838D01*
X99958685Y-111679076D01*
X99911066Y-111869552D01*
X99911066Y-112012409D01*
X99958685Y-112202885D01*
X100006304Y-112298123D01*
X100101542Y-112393361D01*
X100244400Y-112440980D01*
X100339638Y-112440980D01*
X100482495Y-112393361D01*
X100530114Y-112345742D01*
X100530114Y-112012409D01*
X100339638Y-112012409D01*
X100958685Y-112440980D02*
X100958685Y-111440980D01*
X101530114Y-112440980D01*
X101530114Y-111440980D01*
X102006304Y-112440980D02*
X102006304Y-111440980D01*
X102244400Y-111440980D01*
X102387257Y-111488600D01*
X102482495Y-111583838D01*
X102530114Y-111679076D01*
X102577733Y-111869552D01*
X102577733Y-112012409D01*
X102530114Y-112202885D01*
X102482495Y-112298123D01*
X102387257Y-112393361D01*
X102244400Y-112440980D01*
X102006304Y-112440980D01*
X100388752Y-109900980D02*
X99912561Y-109900980D01*
X99912561Y-108900980D01*
X100579228Y-108900980D02*
X100912561Y-109900980D01*
X101245895Y-108900980D01*
X100369761Y-107360980D02*
X99893571Y-107360980D01*
X99893571Y-106360980D01*
X100560238Y-106360980D02*
X100893571Y-107360980D01*
X101226904Y-106360980D01*
X101512619Y-106456219D02*
X101560238Y-106408600D01*
X101655476Y-106360980D01*
X101893571Y-106360980D01*
X101988809Y-106408600D01*
X102036428Y-106456219D01*
X102084047Y-106551457D01*
X102084047Y-106646695D01*
X102036428Y-106789552D01*
X101465000Y-107360980D01*
X102084047Y-107360980D01*
X100344361Y-104795580D02*
X99868171Y-104795580D01*
X99868171Y-103795580D01*
X100534838Y-103795580D02*
X100868171Y-104795580D01*
X101201504Y-103795580D01*
X102058647Y-104795580D02*
X101487219Y-104795580D01*
X101772933Y-104795580D02*
X101772933Y-103795580D01*
X101677695Y-103938438D01*
X101582457Y-104033676D01*
X101487219Y-104081295D01*
X104905323Y-117571780D02*
X104905323Y-116571780D01*
X104905323Y-117047971D02*
X105476752Y-117047971D01*
X105476752Y-117571780D02*
X105476752Y-116571780D01*
X105810085Y-116571780D02*
X106143419Y-117571780D01*
X106476752Y-116571780D01*
X107238657Y-116905114D02*
X107238657Y-117571780D01*
X107000561Y-116524161D02*
X106762466Y-117238447D01*
X107381514Y-117238447D01*
X104879923Y-115133380D02*
X104879923Y-114133380D01*
X104879923Y-114609571D02*
X105451352Y-114609571D01*
X105451352Y-115133380D02*
X105451352Y-114133380D01*
X105784685Y-114133380D02*
X106118019Y-115133380D01*
X106451352Y-114133380D01*
X106689447Y-114133380D02*
X107308495Y-114133380D01*
X106975161Y-114514333D01*
X107118019Y-114514333D01*
X107213257Y-114561952D01*
X107260876Y-114609571D01*
X107308495Y-114704809D01*
X107308495Y-114942904D01*
X107260876Y-115038142D01*
X107213257Y-115085761D01*
X107118019Y-115133380D01*
X106832304Y-115133380D01*
X106737066Y-115085761D01*
X106689447Y-115038142D01*
X105206895Y-111564800D02*
X105111657Y-111517180D01*
X104968800Y-111517180D01*
X104825942Y-111564800D01*
X104730704Y-111660038D01*
X104683085Y-111755276D01*
X104635466Y-111945752D01*
X104635466Y-112088609D01*
X104683085Y-112279085D01*
X104730704Y-112374323D01*
X104825942Y-112469561D01*
X104968800Y-112517180D01*
X105064038Y-112517180D01*
X105206895Y-112469561D01*
X105254514Y-112421942D01*
X105254514Y-112088609D01*
X105064038Y-112088609D01*
X105683085Y-112517180D02*
X105683085Y-111517180D01*
X106254514Y-112517180D01*
X106254514Y-111517180D01*
X106730704Y-112517180D02*
X106730704Y-111517180D01*
X106968800Y-111517180D01*
X107111657Y-111564800D01*
X107206895Y-111660038D01*
X107254514Y-111755276D01*
X107302133Y-111945752D01*
X107302133Y-112088609D01*
X107254514Y-112279085D01*
X107206895Y-112374323D01*
X107111657Y-112469561D01*
X106968800Y-112517180D01*
X106730704Y-112517180D01*
X104924314Y-110002580D02*
X104924314Y-109002580D01*
X104924314Y-109478771D02*
X105495742Y-109478771D01*
X105495742Y-110002580D02*
X105495742Y-109002580D01*
X105829076Y-109002580D02*
X106162409Y-110002580D01*
X106495742Y-109002580D01*
X104905323Y-107411780D02*
X104905323Y-106411780D01*
X104905323Y-106887971D02*
X105476752Y-106887971D01*
X105476752Y-107411780D02*
X105476752Y-106411780D01*
X105810085Y-106411780D02*
X106143419Y-107411780D01*
X106476752Y-106411780D01*
X106762466Y-106507019D02*
X106810085Y-106459400D01*
X106905323Y-106411780D01*
X107143419Y-106411780D01*
X107238657Y-106459400D01*
X107286276Y-106507019D01*
X107333895Y-106602257D01*
X107333895Y-106697495D01*
X107286276Y-106840352D01*
X106714847Y-107411780D01*
X107333895Y-107411780D01*
X104879923Y-104871780D02*
X104879923Y-103871780D01*
X104879923Y-104347971D02*
X105451352Y-104347971D01*
X105451352Y-104871780D02*
X105451352Y-103871780D01*
X105784685Y-103871780D02*
X106118019Y-104871780D01*
X106451352Y-103871780D01*
X107308495Y-104871780D02*
X106737066Y-104871780D01*
X107022780Y-104871780D02*
X107022780Y-103871780D01*
X106927542Y-104014638D01*
X106832304Y-104109876D01*
X106737066Y-104157495D01*
X194321180Y-119303704D02*
X195130704Y-119303704D01*
X195225942Y-119256085D01*
X195273561Y-119208466D01*
X195321180Y-119113228D01*
X195321180Y-118922752D01*
X195273561Y-118827514D01*
X195225942Y-118779895D01*
X195130704Y-118732276D01*
X194321180Y-118732276D01*
X194321180Y-117779895D02*
X194321180Y-118256085D01*
X194797371Y-118303704D01*
X194749752Y-118256085D01*
X194702133Y-118160847D01*
X194702133Y-117922752D01*
X194749752Y-117827514D01*
X194797371Y-117779895D01*
X194892609Y-117732276D01*
X195130704Y-117732276D01*
X195225942Y-117779895D01*
X195273561Y-117827514D01*
X195321180Y-117922752D01*
X195321180Y-118160847D01*
X195273561Y-118256085D01*
X195225942Y-118303704D01*
X201925180Y-116850657D02*
X201925180Y-117326847D01*
X200925180Y-117326847D01*
X201925180Y-116517323D02*
X200925180Y-116517323D01*
X201639466Y-116183990D01*
X200925180Y-115850657D01*
X201925180Y-115850657D01*
X201020419Y-115422085D02*
X200972800Y-115374466D01*
X200925180Y-115279228D01*
X200925180Y-115041133D01*
X200972800Y-114945895D01*
X201020419Y-114898276D01*
X201115657Y-114850657D01*
X201210895Y-114850657D01*
X201353752Y-114898276D01*
X201925180Y-115469704D01*
X201925180Y-114850657D01*
X200925180Y-113945895D02*
X200925180Y-114422085D01*
X201401371Y-114469704D01*
X201353752Y-114422085D01*
X201306133Y-114326847D01*
X201306133Y-114088752D01*
X201353752Y-113993514D01*
X201401371Y-113945895D01*
X201496609Y-113898276D01*
X201734704Y-113898276D01*
X201829942Y-113945895D01*
X201877561Y-113993514D01*
X201925180Y-114088752D01*
X201925180Y-114326847D01*
X201877561Y-114422085D01*
X201829942Y-114469704D01*
X200925180Y-113564942D02*
X200925180Y-112898276D01*
X201925180Y-113326847D01*
X200925180Y-112088752D02*
X200925180Y-112279228D01*
X200972800Y-112374466D01*
X201020419Y-112422085D01*
X201163276Y-112517323D01*
X201353752Y-112564942D01*
X201734704Y-112564942D01*
X201829942Y-112517323D01*
X201877561Y-112469704D01*
X201925180Y-112374466D01*
X201925180Y-112183990D01*
X201877561Y-112088752D01*
X201829942Y-112041133D01*
X201734704Y-111993514D01*
X201496609Y-111993514D01*
X201401371Y-112041133D01*
X201353752Y-112088752D01*
X201306133Y-112183990D01*
X201306133Y-112374466D01*
X201353752Y-112469704D01*
X201401371Y-112517323D01*
X201496609Y-112564942D01*
X200925180Y-111707800D02*
X200925180Y-111136371D01*
X201925180Y-111422085D02*
X200925180Y-111422085D01*
X201544228Y-110803038D02*
X201544228Y-110041133D01*
X200925180Y-109088752D02*
X200925180Y-109564942D01*
X201401371Y-109612561D01*
X201353752Y-109564942D01*
X201306133Y-109469704D01*
X201306133Y-109231609D01*
X201353752Y-109136371D01*
X201401371Y-109088752D01*
X201496609Y-109041133D01*
X201734704Y-109041133D01*
X201829942Y-109088752D01*
X201877561Y-109136371D01*
X201925180Y-109231609D01*
X201925180Y-109469704D01*
X201877561Y-109564942D01*
X201829942Y-109612561D01*
X167055895Y-128128780D02*
X167055895Y-128938304D01*
X167103514Y-129033542D01*
X167151133Y-129081161D01*
X167246371Y-129128780D01*
X167436847Y-129128780D01*
X167532085Y-129081161D01*
X167579704Y-129033542D01*
X167627323Y-128938304D01*
X167627323Y-128128780D01*
X168008276Y-128128780D02*
X168627323Y-128128780D01*
X168293990Y-128509733D01*
X168436847Y-128509733D01*
X168532085Y-128557352D01*
X168579704Y-128604971D01*
X168627323Y-128700209D01*
X168627323Y-128938304D01*
X168579704Y-129033542D01*
X168532085Y-129081161D01*
X168436847Y-129128780D01*
X168151133Y-129128780D01*
X168055895Y-129081161D01*
X168008276Y-129033542D01*
X150398600Y-108630980D02*
X150398600Y-107630980D01*
X150636695Y-107630980D01*
X150779552Y-107678600D01*
X150874790Y-107773838D01*
X150922409Y-107869076D01*
X150970028Y-108059552D01*
X150970028Y-108202409D01*
X150922409Y-108392885D01*
X150874790Y-108488123D01*
X150779552Y-108583361D01*
X150636695Y-108630980D01*
X150398600Y-108630980D01*
X151350980Y-107726219D02*
X151398600Y-107678600D01*
X151493838Y-107630980D01*
X151731933Y-107630980D01*
X151827171Y-107678600D01*
X151874790Y-107726219D01*
X151922409Y-107821457D01*
X151922409Y-107916695D01*
X151874790Y-108059552D01*
X151303361Y-108630980D01*
X151922409Y-108630980D01*
X152779552Y-107964314D02*
X152779552Y-108630980D01*
X152541457Y-107583361D02*
X152303361Y-108297647D01*
X152922409Y-108297647D01*
X153160504Y-107630980D02*
X153493838Y-108630980D01*
X153827171Y-107630980D01*
X154112885Y-107726219D02*
X154160504Y-107678600D01*
X154255742Y-107630980D01*
X154493838Y-107630980D01*
X154589076Y-107678600D01*
X154636695Y-107726219D01*
X154684314Y-107821457D01*
X154684314Y-107916695D01*
X154636695Y-108059552D01*
X154065266Y-108630980D01*
X154684314Y-108630980D01*
X155589076Y-107630980D02*
X155112885Y-107630980D01*
X155065266Y-108107171D01*
X155112885Y-108059552D01*
X155208123Y-108011933D01*
X155446219Y-108011933D01*
X155541457Y-108059552D01*
X155589076Y-108107171D01*
X155636695Y-108202409D01*
X155636695Y-108440504D01*
X155589076Y-108535742D01*
X155541457Y-108583361D01*
X155446219Y-108630980D01*
X155208123Y-108630980D01*
X155112885Y-108583361D01*
X155065266Y-108535742D01*
X156398600Y-108107171D02*
X156065266Y-108107171D01*
X156065266Y-108630980D02*
X156065266Y-107630980D01*
X156541457Y-107630980D01*
X156970028Y-108630980D02*
X157160504Y-108630980D01*
X157255742Y-108583361D01*
X157303361Y-108535742D01*
X157398600Y-108392885D01*
X157446219Y-108202409D01*
X157446219Y-107821457D01*
X157398600Y-107726219D01*
X157350980Y-107678600D01*
X157255742Y-107630980D01*
X157065266Y-107630980D01*
X156970028Y-107678600D01*
X156922409Y-107726219D01*
X156874790Y-107821457D01*
X156874790Y-108059552D01*
X156922409Y-108154790D01*
X156970028Y-108202409D01*
X157065266Y-108250028D01*
X157255742Y-108250028D01*
X157350980Y-108202409D01*
X157398600Y-108154790D01*
X157446219Y-108059552D01*
X165771580Y-125002704D02*
X166771580Y-124669371D01*
X165771580Y-124336038D01*
X165771580Y-123812228D02*
X165771580Y-123621752D01*
X165819200Y-123526514D01*
X165914438Y-123431276D01*
X166104914Y-123383657D01*
X166438247Y-123383657D01*
X166628723Y-123431276D01*
X166723961Y-123526514D01*
X166771580Y-123621752D01*
X166771580Y-123812228D01*
X166723961Y-123907466D01*
X166628723Y-124002704D01*
X166438247Y-124050323D01*
X166104914Y-124050323D01*
X165914438Y-124002704D01*
X165819200Y-123907466D01*
X165771580Y-123812228D01*
X165771580Y-122955085D02*
X166581104Y-122955085D01*
X166676342Y-122907466D01*
X166723961Y-122859847D01*
X166771580Y-122764609D01*
X166771580Y-122574133D01*
X166723961Y-122478895D01*
X166676342Y-122431276D01*
X166581104Y-122383657D01*
X165771580Y-122383657D01*
X165771580Y-122050323D02*
X165771580Y-121478895D01*
X166771580Y-121764609D02*
X165771580Y-121764609D01*
X163304600Y-124332904D02*
X163256980Y-124428142D01*
X163256980Y-124571000D01*
X163304600Y-124713857D01*
X163399838Y-124809095D01*
X163495076Y-124856714D01*
X163685552Y-124904333D01*
X163828409Y-124904333D01*
X164018885Y-124856714D01*
X164114123Y-124809095D01*
X164209361Y-124713857D01*
X164256980Y-124571000D01*
X164256980Y-124475761D01*
X164209361Y-124332904D01*
X164161742Y-124285285D01*
X163828409Y-124285285D01*
X163828409Y-124475761D01*
X164256980Y-123856714D02*
X163256980Y-123856714D01*
X164256980Y-123285285D01*
X163256980Y-123285285D01*
X164256980Y-122809095D02*
X163256980Y-122809095D01*
X163256980Y-122571000D01*
X163304600Y-122428142D01*
X163399838Y-122332904D01*
X163495076Y-122285285D01*
X163685552Y-122237666D01*
X163828409Y-122237666D01*
X164018885Y-122285285D01*
X164114123Y-122332904D01*
X164209361Y-122428142D01*
X164256980Y-122571000D01*
X164256980Y-122809095D01*
X160790000Y-124358304D02*
X160742380Y-124453542D01*
X160742380Y-124596400D01*
X160790000Y-124739257D01*
X160885238Y-124834495D01*
X160980476Y-124882114D01*
X161170952Y-124929733D01*
X161313809Y-124929733D01*
X161504285Y-124882114D01*
X161599523Y-124834495D01*
X161694761Y-124739257D01*
X161742380Y-124596400D01*
X161742380Y-124501161D01*
X161694761Y-124358304D01*
X161647142Y-124310685D01*
X161313809Y-124310685D01*
X161313809Y-124501161D01*
X161742380Y-123882114D02*
X160742380Y-123882114D01*
X161742380Y-123310685D01*
X160742380Y-123310685D01*
X161742380Y-122834495D02*
X160742380Y-122834495D01*
X160742380Y-122596400D01*
X160790000Y-122453542D01*
X160885238Y-122358304D01*
X160980476Y-122310685D01*
X161170952Y-122263066D01*
X161313809Y-122263066D01*
X161504285Y-122310685D01*
X161599523Y-122358304D01*
X161694761Y-122453542D01*
X161742380Y-122596400D01*
X161742380Y-122834495D01*
X158176980Y-125072638D02*
X159176980Y-124739304D01*
X158176980Y-124405971D01*
X159176980Y-124072638D02*
X158176980Y-124072638D01*
X159176980Y-123596447D02*
X158176980Y-123596447D01*
X159176980Y-123025019D01*
X158176980Y-123025019D01*
X156113171Y-124918695D02*
X156113171Y-124585361D01*
X156636980Y-124442504D02*
X156636980Y-124918695D01*
X155636980Y-124918695D01*
X155636980Y-124442504D01*
X156636980Y-124013933D02*
X155636980Y-124013933D01*
X156636980Y-123442504D01*
X155636980Y-123442504D01*
X183230780Y-71223095D02*
X182230780Y-71223095D01*
X182230780Y-70842142D01*
X182278400Y-70746904D01*
X182326019Y-70699285D01*
X182421257Y-70651666D01*
X182564114Y-70651666D01*
X182659352Y-70699285D01*
X182706971Y-70746904D01*
X182754590Y-70842142D01*
X182754590Y-71223095D01*
X183230780Y-69699285D02*
X183230780Y-70270714D01*
X183230780Y-69985000D02*
X182230780Y-69985000D01*
X182373638Y-70080238D01*
X182468876Y-70175476D01*
X182516495Y-70270714D01*
X181452780Y-72675476D02*
X180452780Y-72675476D01*
X180452780Y-72437380D01*
X180500400Y-72294523D01*
X180595638Y-72199285D01*
X180690876Y-72151666D01*
X180881352Y-72104047D01*
X181024209Y-72104047D01*
X181214685Y-72151666D01*
X181309923Y-72199285D01*
X181405161Y-72294523D01*
X181452780Y-72437380D01*
X181452780Y-72675476D01*
X181452780Y-71675476D02*
X180786114Y-71675476D01*
X180452780Y-71675476D02*
X180500400Y-71723095D01*
X180548019Y-71675476D01*
X180500400Y-71627857D01*
X180452780Y-71675476D01*
X180548019Y-71675476D01*
X180786114Y-70770714D02*
X181595638Y-70770714D01*
X181690876Y-70818333D01*
X181738495Y-70865952D01*
X181786114Y-70961190D01*
X181786114Y-71104047D01*
X181738495Y-71199285D01*
X181405161Y-70770714D02*
X181452780Y-70865952D01*
X181452780Y-71056428D01*
X181405161Y-71151666D01*
X181357542Y-71199285D01*
X181262304Y-71246904D01*
X180976590Y-71246904D01*
X180881352Y-71199285D01*
X180833733Y-71151666D01*
X180786114Y-71056428D01*
X180786114Y-70865952D01*
X180833733Y-70770714D01*
X181452780Y-70294523D02*
X180786114Y-70294523D01*
X180452780Y-70294523D02*
X180500400Y-70342142D01*
X180548019Y-70294523D01*
X180500400Y-70246904D01*
X180452780Y-70294523D01*
X180548019Y-70294523D01*
X180786114Y-69961190D02*
X180786114Y-69580238D01*
X180452780Y-69818333D02*
X181309923Y-69818333D01*
X181405161Y-69770714D01*
X181452780Y-69675476D01*
X181452780Y-69580238D01*
X181452780Y-68818333D02*
X180928971Y-68818333D01*
X180833733Y-68865952D01*
X180786114Y-68961190D01*
X180786114Y-69151666D01*
X180833733Y-69246904D01*
X181405161Y-68818333D02*
X181452780Y-68913571D01*
X181452780Y-69151666D01*
X181405161Y-69246904D01*
X181309923Y-69294523D01*
X181214685Y-69294523D01*
X181119447Y-69246904D01*
X181071828Y-69151666D01*
X181071828Y-68913571D01*
X181024209Y-68818333D01*
X181452780Y-68199285D02*
X181405161Y-68294523D01*
X181309923Y-68342142D01*
X180452780Y-68342142D01*
X127684304Y-94813380D02*
X127684304Y-93813380D01*
X128065257Y-93813380D01*
X128160495Y-93861000D01*
X128208114Y-93908619D01*
X128255733Y-94003857D01*
X128255733Y-94146714D01*
X128208114Y-94241952D01*
X128160495Y-94289571D01*
X128065257Y-94337190D01*
X127684304Y-94337190D01*
X128636685Y-93908619D02*
X128684304Y-93861000D01*
X128779542Y-93813380D01*
X129017638Y-93813380D01*
X129112876Y-93861000D01*
X129160495Y-93908619D01*
X129208114Y-94003857D01*
X129208114Y-94099095D01*
X129160495Y-94241952D01*
X128589066Y-94813380D01*
X129208114Y-94813380D01*
X126446209Y-93289380D02*
X126446209Y-92289380D01*
X126827161Y-92289380D01*
X126922400Y-92337000D01*
X126970019Y-92384619D01*
X127017638Y-92479857D01*
X127017638Y-92622714D01*
X126970019Y-92717952D01*
X126922400Y-92765571D01*
X126827161Y-92813190D01*
X126446209Y-92813190D01*
X127589066Y-93289380D02*
X127493828Y-93241761D01*
X127446209Y-93194142D01*
X127398590Y-93098904D01*
X127398590Y-92813190D01*
X127446209Y-92717952D01*
X127493828Y-92670333D01*
X127589066Y-92622714D01*
X127731923Y-92622714D01*
X127827161Y-92670333D01*
X127874780Y-92717952D01*
X127922400Y-92813190D01*
X127922400Y-93098904D01*
X127874780Y-93194142D01*
X127827161Y-93241761D01*
X127731923Y-93289380D01*
X127589066Y-93289380D01*
X128255733Y-92622714D02*
X128446209Y-93289380D01*
X128636685Y-92813190D01*
X128827161Y-93289380D01*
X129017638Y-92622714D01*
X129779542Y-93241761D02*
X129684304Y-93289380D01*
X129493828Y-93289380D01*
X129398590Y-93241761D01*
X129350971Y-93146523D01*
X129350971Y-92765571D01*
X129398590Y-92670333D01*
X129493828Y-92622714D01*
X129684304Y-92622714D01*
X129779542Y-92670333D01*
X129827161Y-92765571D01*
X129827161Y-92860809D01*
X129350971Y-92956047D01*
X130255733Y-93289380D02*
X130255733Y-92622714D01*
X130255733Y-92813190D02*
X130303352Y-92717952D01*
X130350971Y-92670333D01*
X130446209Y-92622714D01*
X130541447Y-92622714D01*
X150544304Y-95067380D02*
X150544304Y-94067380D01*
X150925257Y-94067380D01*
X151020495Y-94115000D01*
X151068114Y-94162619D01*
X151115733Y-94257857D01*
X151115733Y-94400714D01*
X151068114Y-94495952D01*
X151020495Y-94543571D01*
X150925257Y-94591190D01*
X150544304Y-94591190D01*
X151449066Y-94067380D02*
X152068114Y-94067380D01*
X151734780Y-94448333D01*
X151877638Y-94448333D01*
X151972876Y-94495952D01*
X152020495Y-94543571D01*
X152068114Y-94638809D01*
X152068114Y-94876904D01*
X152020495Y-94972142D01*
X151972876Y-95019761D01*
X151877638Y-95067380D01*
X151591923Y-95067380D01*
X151496685Y-95019761D01*
X151449066Y-94972142D01*
X148972876Y-93003666D02*
X149449066Y-93003666D01*
X148877638Y-93289380D02*
X149210971Y-92289380D01*
X149544304Y-93289380D01*
X149877638Y-92622714D02*
X149877638Y-93289380D01*
X149877638Y-92717952D02*
X149925257Y-92670333D01*
X150020495Y-92622714D01*
X150163352Y-92622714D01*
X150258590Y-92670333D01*
X150306209Y-92765571D01*
X150306209Y-93289380D01*
X151210971Y-93289380D02*
X151210971Y-92765571D01*
X151163352Y-92670333D01*
X151068114Y-92622714D01*
X150877638Y-92622714D01*
X150782400Y-92670333D01*
X151210971Y-93241761D02*
X151115733Y-93289380D01*
X150877638Y-93289380D01*
X150782400Y-93241761D01*
X150734780Y-93146523D01*
X150734780Y-93051285D01*
X150782400Y-92956047D01*
X150877638Y-92908428D01*
X151115733Y-92908428D01*
X151210971Y-92860809D01*
X151830019Y-93289380D02*
X151734780Y-93241761D01*
X151687161Y-93146523D01*
X151687161Y-92289380D01*
X152353828Y-93289380D02*
X152258590Y-93241761D01*
X152210971Y-93194142D01*
X152163352Y-93098904D01*
X152163352Y-92813190D01*
X152210971Y-92717952D01*
X152258590Y-92670333D01*
X152353828Y-92622714D01*
X152496685Y-92622714D01*
X152591923Y-92670333D01*
X152639542Y-92717952D01*
X152687161Y-92813190D01*
X152687161Y-93098904D01*
X152639542Y-93194142D01*
X152591923Y-93241761D01*
X152496685Y-93289380D01*
X152353828Y-93289380D01*
X153544304Y-92622714D02*
X153544304Y-93432238D01*
X153496685Y-93527476D01*
X153449066Y-93575095D01*
X153353828Y-93622714D01*
X153210971Y-93622714D01*
X153115733Y-93575095D01*
X153544304Y-93241761D02*
X153449066Y-93289380D01*
X153258590Y-93289380D01*
X153163352Y-93241761D01*
X153115733Y-93194142D01*
X153068114Y-93098904D01*
X153068114Y-92813190D01*
X153115733Y-92717952D01*
X153163352Y-92670333D01*
X153258590Y-92622714D01*
X153449066Y-92622714D01*
X153544304Y-92670333D01*
X173404304Y-94813380D02*
X173404304Y-93813380D01*
X173785257Y-93813380D01*
X173880495Y-93861000D01*
X173928114Y-93908619D01*
X173975733Y-94003857D01*
X173975733Y-94146714D01*
X173928114Y-94241952D01*
X173880495Y-94289571D01*
X173785257Y-94337190D01*
X173404304Y-94337190D01*
X174832876Y-94146714D02*
X174832876Y-94813380D01*
X174594780Y-93765761D02*
X174356685Y-94480047D01*
X174975733Y-94480047D01*
X171832876Y-93003666D02*
X172309066Y-93003666D01*
X171737638Y-93289380D02*
X172070971Y-92289380D01*
X172404304Y-93289380D01*
X172737638Y-92622714D02*
X172737638Y-93289380D01*
X172737638Y-92717952D02*
X172785257Y-92670333D01*
X172880495Y-92622714D01*
X173023352Y-92622714D01*
X173118590Y-92670333D01*
X173166209Y-92765571D01*
X173166209Y-93289380D01*
X174070971Y-93289380D02*
X174070971Y-92765571D01*
X174023352Y-92670333D01*
X173928114Y-92622714D01*
X173737638Y-92622714D01*
X173642400Y-92670333D01*
X174070971Y-93241761D02*
X173975733Y-93289380D01*
X173737638Y-93289380D01*
X173642400Y-93241761D01*
X173594780Y-93146523D01*
X173594780Y-93051285D01*
X173642400Y-92956047D01*
X173737638Y-92908428D01*
X173975733Y-92908428D01*
X174070971Y-92860809D01*
X174690019Y-93289380D02*
X174594780Y-93241761D01*
X174547161Y-93146523D01*
X174547161Y-92289380D01*
X175213828Y-93289380D02*
X175118590Y-93241761D01*
X175070971Y-93194142D01*
X175023352Y-93098904D01*
X175023352Y-92813190D01*
X175070971Y-92717952D01*
X175118590Y-92670333D01*
X175213828Y-92622714D01*
X175356685Y-92622714D01*
X175451923Y-92670333D01*
X175499542Y-92717952D01*
X175547161Y-92813190D01*
X175547161Y-93098904D01*
X175499542Y-93194142D01*
X175451923Y-93241761D01*
X175356685Y-93289380D01*
X175213828Y-93289380D01*
X176404304Y-92622714D02*
X176404304Y-93432238D01*
X176356685Y-93527476D01*
X176309066Y-93575095D01*
X176213828Y-93622714D01*
X176070971Y-93622714D01*
X175975733Y-93575095D01*
X176404304Y-93241761D02*
X176309066Y-93289380D01*
X176118590Y-93289380D01*
X176023352Y-93241761D01*
X175975733Y-93194142D01*
X175928114Y-93098904D01*
X175928114Y-92813190D01*
X175975733Y-92717952D01*
X176023352Y-92670333D01*
X176118590Y-92622714D01*
X176309066Y-92622714D01*
X176404304Y-92670333D01*
X121080304Y-52141380D02*
X121080304Y-51141380D01*
X121461257Y-51141380D01*
X121556495Y-51189000D01*
X121604114Y-51236619D01*
X121651733Y-51331857D01*
X121651733Y-51474714D01*
X121604114Y-51569952D01*
X121556495Y-51617571D01*
X121461257Y-51665190D01*
X121080304Y-51665190D01*
X122556495Y-51141380D02*
X122080304Y-51141380D01*
X122032685Y-51617571D01*
X122080304Y-51569952D01*
X122175542Y-51522333D01*
X122413638Y-51522333D01*
X122508876Y-51569952D01*
X122556495Y-51617571D01*
X122604114Y-51712809D01*
X122604114Y-51950904D01*
X122556495Y-52046142D01*
X122508876Y-52093761D01*
X122413638Y-52141380D01*
X122175542Y-52141380D01*
X122080304Y-52093761D01*
X122032685Y-52046142D01*
X120413638Y-53665380D02*
X120413638Y-52665380D01*
X120794590Y-52665380D01*
X120889828Y-52713000D01*
X120937447Y-52760619D01*
X120985066Y-52855857D01*
X120985066Y-52998714D01*
X120937447Y-53093952D01*
X120889828Y-53141571D01*
X120794590Y-53189190D01*
X120413638Y-53189190D01*
X121318400Y-52665380D02*
X121556495Y-53665380D01*
X121746971Y-52951095D01*
X121937447Y-53665380D01*
X122175542Y-52665380D01*
X122556495Y-53665380D02*
X122556495Y-52665380D01*
X122889828Y-53379666D01*
X123223161Y-52665380D01*
X123223161Y-53665380D01*
X135911904Y-51952380D02*
X135911904Y-50952380D01*
X136292857Y-50952380D01*
X136388095Y-51000000D01*
X136435714Y-51047619D01*
X136483333Y-51142857D01*
X136483333Y-51285714D01*
X136435714Y-51380952D01*
X136388095Y-51428571D01*
X136292857Y-51476190D01*
X135911904Y-51476190D01*
X137340476Y-50952380D02*
X137150000Y-50952380D01*
X137054761Y-51000000D01*
X137007142Y-51047619D01*
X136911904Y-51190476D01*
X136864285Y-51380952D01*
X136864285Y-51761904D01*
X136911904Y-51857142D01*
X136959523Y-51904761D01*
X137054761Y-51952380D01*
X137245238Y-51952380D01*
X137340476Y-51904761D01*
X137388095Y-51857142D01*
X137435714Y-51761904D01*
X137435714Y-51523809D01*
X137388095Y-51428571D01*
X137340476Y-51380952D01*
X137245238Y-51333333D01*
X137054761Y-51333333D01*
X136959523Y-51380952D01*
X136911904Y-51428571D01*
X136864285Y-51523809D01*
X153765238Y-51942380D02*
X153765238Y-50942380D01*
X154146190Y-50942380D01*
X154241428Y-50990000D01*
X154289047Y-51037619D01*
X154336666Y-51132857D01*
X154336666Y-51275714D01*
X154289047Y-51370952D01*
X154241428Y-51418571D01*
X154146190Y-51466190D01*
X153765238Y-51466190D01*
X154670000Y-50942380D02*
X154908095Y-51942380D01*
X155098571Y-51228095D01*
X155289047Y-51942380D01*
X155527142Y-50942380D01*
X155908095Y-51942380D02*
X155908095Y-50942380D01*
X156241428Y-51656666D01*
X156574761Y-50942380D01*
X156574761Y-51942380D01*
X168324304Y-52141380D02*
X168324304Y-51141380D01*
X168705257Y-51141380D01*
X168800495Y-51189000D01*
X168848114Y-51236619D01*
X168895733Y-51331857D01*
X168895733Y-51474714D01*
X168848114Y-51569952D01*
X168800495Y-51617571D01*
X168705257Y-51665190D01*
X168324304Y-51665190D01*
X169229066Y-51141380D02*
X169895733Y-51141380D01*
X169467161Y-52141380D01*
X164133828Y-53316142D02*
X164086209Y-53363761D01*
X163943352Y-53411380D01*
X163848114Y-53411380D01*
X163705257Y-53363761D01*
X163610019Y-53268523D01*
X163562400Y-53173285D01*
X163514780Y-52982809D01*
X163514780Y-52839952D01*
X163562400Y-52649476D01*
X163610019Y-52554238D01*
X163705257Y-52459000D01*
X163848114Y-52411380D01*
X163943352Y-52411380D01*
X164086209Y-52459000D01*
X164133828Y-52506619D01*
X164705257Y-53411380D02*
X164610019Y-53363761D01*
X164562400Y-53316142D01*
X164514780Y-53220904D01*
X164514780Y-52935190D01*
X164562400Y-52839952D01*
X164610019Y-52792333D01*
X164705257Y-52744714D01*
X164848114Y-52744714D01*
X164943352Y-52792333D01*
X164990971Y-52839952D01*
X165038590Y-52935190D01*
X165038590Y-53220904D01*
X164990971Y-53316142D01*
X164943352Y-53363761D01*
X164848114Y-53411380D01*
X164705257Y-53411380D01*
X165467161Y-53411380D02*
X165467161Y-52744714D01*
X165467161Y-52839952D02*
X165514780Y-52792333D01*
X165610019Y-52744714D01*
X165752876Y-52744714D01*
X165848114Y-52792333D01*
X165895733Y-52887571D01*
X165895733Y-53411380D01*
X165895733Y-52887571D02*
X165943352Y-52792333D01*
X166038590Y-52744714D01*
X166181447Y-52744714D01*
X166276685Y-52792333D01*
X166324304Y-52887571D01*
X166324304Y-53411380D01*
X166800495Y-53411380D02*
X166800495Y-52744714D01*
X166800495Y-52839952D02*
X166848114Y-52792333D01*
X166943352Y-52744714D01*
X167086209Y-52744714D01*
X167181447Y-52792333D01*
X167229066Y-52887571D01*
X167229066Y-53411380D01*
X167229066Y-52887571D02*
X167276685Y-52792333D01*
X167371923Y-52744714D01*
X167514780Y-52744714D01*
X167610019Y-52792333D01*
X167657638Y-52887571D01*
X167657638Y-53411380D01*
X168562400Y-52744714D02*
X168562400Y-53411380D01*
X168133828Y-52744714D02*
X168133828Y-53268523D01*
X168181447Y-53363761D01*
X168276685Y-53411380D01*
X168419542Y-53411380D01*
X168514780Y-53363761D01*
X168562400Y-53316142D01*
X169038590Y-52744714D02*
X169038590Y-53411380D01*
X169038590Y-52839952D02*
X169086209Y-52792333D01*
X169181447Y-52744714D01*
X169324304Y-52744714D01*
X169419542Y-52792333D01*
X169467161Y-52887571D01*
X169467161Y-53411380D01*
X169943352Y-53411380D02*
X169943352Y-52744714D01*
X169943352Y-52411380D02*
X169895733Y-52459000D01*
X169943352Y-52506619D01*
X169990971Y-52459000D01*
X169943352Y-52411380D01*
X169943352Y-52506619D01*
X170848114Y-53363761D02*
X170752876Y-53411380D01*
X170562400Y-53411380D01*
X170467161Y-53363761D01*
X170419542Y-53316142D01*
X170371923Y-53220904D01*
X170371923Y-52935190D01*
X170419542Y-52839952D01*
X170467161Y-52792333D01*
X170562400Y-52744714D01*
X170752876Y-52744714D01*
X170848114Y-52792333D01*
X171705257Y-53411380D02*
X171705257Y-52887571D01*
X171657638Y-52792333D01*
X171562400Y-52744714D01*
X171371923Y-52744714D01*
X171276685Y-52792333D01*
X171705257Y-53363761D02*
X171610019Y-53411380D01*
X171371923Y-53411380D01*
X171276685Y-53363761D01*
X171229066Y-53268523D01*
X171229066Y-53173285D01*
X171276685Y-53078047D01*
X171371923Y-53030428D01*
X171610019Y-53030428D01*
X171705257Y-52982809D01*
X172038590Y-52744714D02*
X172419542Y-52744714D01*
X172181447Y-52411380D02*
X172181447Y-53268523D01*
X172229066Y-53363761D01*
X172324304Y-53411380D01*
X172419542Y-53411380D01*
X172752876Y-53411380D02*
X172752876Y-52744714D01*
X172752876Y-52411380D02*
X172705257Y-52459000D01*
X172752876Y-52506619D01*
X172800495Y-52459000D01*
X172752876Y-52411380D01*
X172752876Y-52506619D01*
X173371923Y-53411380D02*
X173276685Y-53363761D01*
X173229066Y-53316142D01*
X173181447Y-53220904D01*
X173181447Y-52935190D01*
X173229066Y-52839952D01*
X173276685Y-52792333D01*
X173371923Y-52744714D01*
X173514780Y-52744714D01*
X173610019Y-52792333D01*
X173657638Y-52839952D01*
X173705257Y-52935190D01*
X173705257Y-53220904D01*
X173657638Y-53316142D01*
X173610019Y-53363761D01*
X173514780Y-53411380D01*
X173371923Y-53411380D01*
X174133828Y-52744714D02*
X174133828Y-53411380D01*
X174133828Y-52839952D02*
X174181447Y-52792333D01*
X174276685Y-52744714D01*
X174419542Y-52744714D01*
X174514780Y-52792333D01*
X174562400Y-52887571D01*
X174562400Y-53411380D01*
M02*
