G04 #@! TF.GenerationSoftware,KiCad,Pcbnew,(5.1.5)-3*
G04 #@! TF.CreationDate,2020-03-31T15:59:09-04:00*
G04 #@! TF.ProjectId,Deck_Plate_PCB,4465636b-5f50-46c6-9174-655f5043422e,A*
G04 #@! TF.SameCoordinates,Original*
G04 #@! TF.FileFunction,Copper,L1,Top*
G04 #@! TF.FilePolarity,Positive*
%FSLAX46Y46*%
G04 Gerber Fmt 4.6, Leading zero omitted, Abs format (unit mm)*
G04 Created by KiCad (PCBNEW (5.1.5)-3) date 2020-03-31 15:59:09*
%MOMM*%
%LPD*%
G04 APERTURE LIST*
%ADD10O,1.600000X1.600000*%
%ADD11C,1.600000*%
%ADD12O,1.700000X1.700000*%
%ADD13R,1.700000X1.700000*%
%ADD14O,3.200000X3.200000*%
%ADD15R,3.200000X3.200000*%
%ADD16R,1.600000X1.600000*%
%ADD17R,4.700000X1.300000*%
%ADD18R,2.500000X4.400000*%
%ADD19R,3.600000X6.200000*%
%ADD20R,6.800000X2.800000*%
%ADD21O,1.800000X1.275000*%
%ADD22R,1.800000X1.275000*%
%ADD23R,1.050000X1.500000*%
%ADD24O,1.050000X1.500000*%
%ADD25C,1.524000*%
%ADD26C,1.727200*%
%ADD27O,1.727200X1.727200*%
%ADD28O,1.727200X2.032000*%
%ADD29C,4.064000*%
%ADD30C,0.600000*%
%ADD31C,0.250000*%
G04 APERTURE END LIST*
D10*
X125196600Y-111658400D03*
D11*
X125196600Y-101498400D03*
D10*
X126550000Y-66500000D03*
D11*
X126550000Y-76660000D03*
D10*
X105890000Y-66530000D03*
D11*
X105890000Y-76690000D03*
D10*
X112400000Y-66530000D03*
D11*
X112400000Y-76690000D03*
D10*
X126580000Y-79740000D03*
D11*
X126580000Y-87240000D03*
D10*
X105910000Y-79730000D03*
D11*
X105910000Y-87230000D03*
D10*
X112420000Y-79760000D03*
D11*
X112420000Y-87260000D03*
D12*
X144754600Y-129235200D03*
X144754600Y-131775200D03*
X142214600Y-129235200D03*
X142214600Y-131775200D03*
X139674600Y-129235200D03*
X139674600Y-131775200D03*
X137134600Y-129235200D03*
X137134600Y-131775200D03*
X134594600Y-129235200D03*
X134594600Y-131775200D03*
X132054600Y-129235200D03*
X132054600Y-131775200D03*
X129514600Y-129235200D03*
X129514600Y-131775200D03*
X126974600Y-129235200D03*
X126974600Y-131775200D03*
X124434600Y-129235200D03*
X124434600Y-131775200D03*
X121894600Y-129235200D03*
X121894600Y-131775200D03*
X119354600Y-129235200D03*
X119354600Y-131775200D03*
X116814600Y-129235200D03*
X116814600Y-131775200D03*
X114274600Y-129235200D03*
X114274600Y-131775200D03*
X111734600Y-129235200D03*
X111734600Y-131775200D03*
X109194600Y-129235200D03*
X109194600Y-131775200D03*
X106654600Y-129235200D03*
X106654600Y-131775200D03*
X104114600Y-129235200D03*
X104114600Y-131775200D03*
X101574600Y-129235200D03*
X101574600Y-131775200D03*
X99034600Y-129235200D03*
X99034600Y-131775200D03*
X96494600Y-129235200D03*
D13*
X96494600Y-131775200D03*
D10*
X119380000Y-66510000D03*
D11*
X119380000Y-76670000D03*
D10*
X119350000Y-79760000D03*
D11*
X119350000Y-87260000D03*
D12*
X82423000Y-124302520D03*
X82423000Y-126842520D03*
X82423000Y-129382520D03*
D13*
X82423000Y-131922520D03*
D14*
X157302200Y-103225600D03*
D15*
X170002200Y-103225600D03*
D14*
X197358000Y-103174800D03*
D15*
X184658000Y-103174800D03*
D12*
X148971000Y-61264800D03*
X146431000Y-61264800D03*
X143891000Y-61264800D03*
X141351000Y-61264800D03*
X138811000Y-61264800D03*
X136271000Y-61264800D03*
X133731000Y-61264800D03*
X131191000Y-61264800D03*
D13*
X128651000Y-61264800D03*
D12*
X90424000Y-112247680D03*
X87884000Y-112247680D03*
X85344000Y-112247680D03*
D13*
X82804000Y-112247680D03*
D10*
X81686400Y-120103900D03*
D11*
X91846400Y-120103900D03*
D10*
X81640680Y-116423440D03*
D11*
X91800680Y-116423440D03*
D12*
X90474800Y-106273600D03*
X87934800Y-106273600D03*
X85394800Y-106273600D03*
D13*
X82854800Y-106273600D03*
D16*
X167995600Y-140487400D03*
D11*
X170765600Y-140487400D03*
X173535600Y-140487400D03*
X176305600Y-140487400D03*
X179075600Y-140487400D03*
X181845600Y-140487400D03*
X184615600Y-140487400D03*
X187385600Y-140487400D03*
X169380600Y-143327400D03*
X172150600Y-143327400D03*
X174920600Y-143327400D03*
X177690600Y-143327400D03*
X180460600Y-143327400D03*
X183230600Y-143327400D03*
X186000600Y-143327400D03*
D16*
X94996000Y-140411200D03*
D11*
X97766000Y-140411200D03*
X100536000Y-140411200D03*
X103306000Y-140411200D03*
X106076000Y-140411200D03*
X108846000Y-140411200D03*
X111616000Y-140411200D03*
X114386000Y-140411200D03*
X117156000Y-140411200D03*
X119926000Y-140411200D03*
X122696000Y-140411200D03*
X125466000Y-140411200D03*
X128236000Y-140411200D03*
X131006000Y-140411200D03*
X133776000Y-140411200D03*
X136546000Y-140411200D03*
X139316000Y-140411200D03*
X142086000Y-140411200D03*
X144856000Y-140411200D03*
X96381000Y-143251200D03*
X99151000Y-143251200D03*
X101921000Y-143251200D03*
X104691000Y-143251200D03*
X107461000Y-143251200D03*
X110231000Y-143251200D03*
X113001000Y-143251200D03*
X115771000Y-143251200D03*
X118541000Y-143251200D03*
X121311000Y-143251200D03*
X124081000Y-143251200D03*
X126851000Y-143251200D03*
X129621000Y-143251200D03*
X132391000Y-143251200D03*
X135161000Y-143251200D03*
X137931000Y-143251200D03*
X140701000Y-143251200D03*
X143471000Y-143251200D03*
D10*
X108229400Y-124917200D03*
D11*
X118389400Y-124917200D03*
D10*
X108204000Y-121107200D03*
D11*
X118364000Y-121107200D03*
D10*
X121462800Y-124917200D03*
D11*
X131622800Y-124917200D03*
D10*
X121259600Y-111633000D03*
D11*
X121259600Y-101473000D03*
D10*
X113969800Y-107594400D03*
D11*
X113969800Y-117754400D03*
D10*
X174269400Y-101473000D03*
D11*
X174269400Y-104013000D03*
D10*
X179197000Y-101498400D03*
D11*
X179197000Y-104038400D03*
D17*
X156718000Y-136042400D03*
X156794200Y-144272000D03*
D18*
X156756100Y-135978900D03*
X156756100Y-144284700D03*
D19*
X178181000Y-128778000D03*
X190627000Y-128752600D03*
D20*
X178117500Y-128739900D03*
X190639700Y-128790700D03*
D19*
X178130200Y-116484400D03*
X190576200Y-116459000D03*
D20*
X178066700Y-116446300D03*
X190588900Y-116497100D03*
D21*
X197104000Y-133546000D03*
X197104000Y-131846000D03*
X197104000Y-130146000D03*
X197104000Y-128446000D03*
D22*
X197104000Y-126746000D03*
D23*
X122707400Y-118033800D03*
D24*
X125247400Y-118033800D03*
X123977400Y-118033800D03*
D23*
X113182400Y-104165400D03*
D24*
X115722400Y-104165400D03*
X114452400Y-104165400D03*
D25*
X130530600Y-103835200D03*
X133070600Y-103835200D03*
X135610600Y-103835200D03*
X138150600Y-103835200D03*
X140690600Y-103835200D03*
X143230600Y-103835200D03*
X145770600Y-103835200D03*
X98475800Y-117068600D03*
X98475800Y-114528600D03*
X98475800Y-111988600D03*
X98475800Y-109448600D03*
X98475800Y-106908600D03*
X98475800Y-104368600D03*
X108635800Y-117068600D03*
X108635800Y-114528600D03*
X108635800Y-111988600D03*
X108635800Y-109448600D03*
X108635800Y-106908600D03*
X108635800Y-104368600D03*
D21*
X197281800Y-117594800D03*
X197281800Y-115894800D03*
X197281800Y-114194800D03*
X197281800Y-112494800D03*
D22*
X197281800Y-110794800D03*
D25*
X156260800Y-126009400D03*
X158800800Y-126009400D03*
X161340800Y-126009400D03*
X163880800Y-126009400D03*
X166420800Y-126009400D03*
D26*
X185572400Y-92075000D03*
D27*
X188112400Y-92075000D03*
X185572400Y-89535000D03*
X188112400Y-89535000D03*
X185572400Y-86995000D03*
X188112400Y-86995000D03*
X185572400Y-84455000D03*
X188112400Y-84455000D03*
X185572400Y-81915000D03*
X188112400Y-81915000D03*
X185572400Y-79375000D03*
X188112400Y-79375000D03*
X185572400Y-76835000D03*
X188112400Y-76835000D03*
X185572400Y-74295000D03*
X188112400Y-74295000D03*
X185572400Y-71755000D03*
X188112400Y-71755000D03*
X185572400Y-69215000D03*
X188112400Y-69215000D03*
X185572400Y-66675000D03*
X188112400Y-66675000D03*
X185572400Y-64135000D03*
X188112400Y-64135000D03*
X185572400Y-61595000D03*
X188112400Y-61595000D03*
X185572400Y-59055000D03*
X188112400Y-59055000D03*
X185572400Y-56515000D03*
X188112400Y-56515000D03*
X185572400Y-53975000D03*
X188112400Y-53975000D03*
X185572400Y-51435000D03*
X188112400Y-51435000D03*
X185572400Y-48895000D03*
X188112400Y-48895000D03*
D28*
X119532400Y-97155000D03*
X122072400Y-97155000D03*
X124612400Y-97155000D03*
X127152400Y-97155000D03*
X129692400Y-97155000D03*
X132232400Y-97155000D03*
X134772400Y-97155000D03*
X137312400Y-97155000D03*
X142392400Y-97155000D03*
X144932400Y-97155000D03*
X147472400Y-97155000D03*
X150012400Y-97155000D03*
X152552400Y-97155000D03*
X155092400Y-97155000D03*
X157632400Y-97155000D03*
X160172400Y-97155000D03*
X165252400Y-97155000D03*
X167792400Y-97155000D03*
X170332400Y-97155000D03*
X172872400Y-97155000D03*
X175412400Y-97155000D03*
X177952400Y-97155000D03*
X180492400Y-97155000D03*
X183032400Y-97155000D03*
X110388400Y-48895000D03*
X112928400Y-48895000D03*
X115468400Y-48895000D03*
X118008400Y-48895000D03*
X120548400Y-48895000D03*
X123088400Y-48895000D03*
X125628400Y-48895000D03*
X128168400Y-48895000D03*
X130708400Y-48895000D03*
X133248400Y-48895000D03*
X137312400Y-48895000D03*
X139852400Y-48895000D03*
X142392400Y-48895000D03*
X144932400Y-48895000D03*
X147472400Y-48895000D03*
X150012400Y-48895000D03*
X152552400Y-48895000D03*
X155092400Y-48895000D03*
X160172400Y-48895000D03*
X162712400Y-48895000D03*
X165252400Y-48895000D03*
X167792400Y-48895000D03*
X170332400Y-48895000D03*
X172872400Y-48895000D03*
X175412400Y-48895000D03*
X177952400Y-48895000D03*
D29*
X105562400Y-97155000D03*
X157632400Y-92075000D03*
X188112400Y-97155000D03*
X106832400Y-48895000D03*
X157632400Y-64135000D03*
X181762400Y-48895000D03*
D30*
X156718000Y-132232400D03*
X171080000Y-63180000D03*
X172320000Y-61780000D03*
X101550000Y-104060000D03*
X101360000Y-106580000D03*
X191490600Y-109524800D03*
X87960000Y-108820000D03*
X87290000Y-102350000D03*
X138580000Y-138300000D03*
X190601602Y-111633000D03*
X189661800Y-108026200D03*
X174320200Y-60071000D03*
X173959998Y-63210000D03*
X169621200Y-108153200D03*
X172923201Y-108153200D03*
X151206200Y-93548200D03*
X177480000Y-68440000D03*
X85686900Y-108813600D03*
X84289900Y-102374700D03*
X132450000Y-65920000D03*
X134590000Y-65920000D03*
X95120002Y-115100000D03*
X95870000Y-90540000D03*
X97900000Y-126200000D03*
X97260000Y-134650000D03*
X94250000Y-90540000D03*
X94140000Y-114149998D03*
X92760000Y-90550000D03*
X93119999Y-113180000D03*
X96090000Y-116090000D03*
X97570000Y-90530000D03*
D31*
X156718000Y-136017000D02*
X156756100Y-135978900D01*
X156718000Y-136042400D02*
X156718000Y-136017000D01*
X156718000Y-136042400D02*
X156718000Y-132232400D01*
X126640000Y-63380000D02*
X129075800Y-63380000D01*
X110388400Y-50208400D02*
X111950000Y-51770000D01*
X129075800Y-63380000D02*
X131191000Y-61264800D01*
X123790000Y-51770000D02*
X126280000Y-54260000D01*
X111950000Y-51770000D02*
X123790000Y-51770000D01*
X126280000Y-63020000D02*
X126640000Y-63380000D01*
X110388400Y-48895000D02*
X110388400Y-50208400D01*
X126280000Y-54260000D02*
X126280000Y-63020000D01*
X128651000Y-61251000D02*
X128651000Y-61264800D01*
X112928400Y-50161000D02*
X113897400Y-51130000D01*
X113897400Y-51130000D02*
X125040000Y-51130000D01*
X125040000Y-51130000D02*
X128651000Y-54741000D01*
X112928400Y-48895000D02*
X112928400Y-50161000D01*
X128651000Y-54741000D02*
X128651000Y-61251000D01*
X108635800Y-117068600D02*
X110782100Y-114922300D01*
X110782100Y-114922300D02*
X110782100Y-101295200D01*
X170655736Y-63180000D02*
X171080000Y-63180000D01*
X132295900Y-99453700D02*
X133502400Y-98247200D01*
X110782100Y-101295200D02*
X112623600Y-99453700D01*
X133502400Y-96088200D02*
X166410600Y-63180000D01*
X112623600Y-99453700D02*
X132295900Y-99453700D01*
X166410600Y-63180000D02*
X170655736Y-63180000D01*
X133502400Y-98247200D02*
X133502400Y-96088200D01*
X165283300Y-61780000D02*
X171895736Y-61780000D01*
X108635800Y-114528600D02*
X110070900Y-113093500D01*
X171895736Y-61780000D02*
X172320000Y-61780000D01*
X110070900Y-113093500D02*
X110070900Y-100888800D01*
X130949700Y-97893828D02*
X130949700Y-96113600D01*
X129974028Y-98869500D02*
X130949700Y-97893828D01*
X110070900Y-100888800D02*
X112090200Y-98869500D01*
X130949700Y-96113600D02*
X165283300Y-61780000D01*
X112090200Y-98869500D02*
X129974028Y-98869500D01*
X101350000Y-106580000D02*
X101360000Y-106580000D01*
X98475800Y-109448600D02*
X98481400Y-109448600D01*
X98481400Y-109448600D02*
X101350000Y-106580000D01*
X104120000Y-101490000D02*
X101550000Y-104060000D01*
X127152400Y-95889000D02*
X126157800Y-94894400D01*
X106420000Y-101490000D02*
X104120000Y-101490000D01*
X127152400Y-97155000D02*
X127152400Y-95889000D01*
X126157800Y-94894400D02*
X113015600Y-94894400D01*
X113015600Y-94894400D02*
X106420000Y-101490000D01*
X197358000Y-106324400D02*
X197358000Y-103174800D01*
X193042400Y-110640000D02*
X197358000Y-106324400D01*
X179360000Y-110640000D02*
X193042400Y-110640000D01*
X178066700Y-116446300D02*
X178066700Y-111933300D01*
X178066700Y-111933300D02*
X179360000Y-110640000D01*
X178181000Y-124917200D02*
X178181000Y-128778000D01*
X160706600Y-106630000D02*
X169952200Y-106630000D01*
X157302200Y-103225600D02*
X160706600Y-106630000D01*
X169952200Y-106630000D02*
X171881800Y-108559600D01*
X171881800Y-108559600D02*
X171881800Y-118618000D01*
X171881800Y-118618000D02*
X178181000Y-124917200D01*
X171754800Y-101473000D02*
X170002200Y-103225600D01*
X174269400Y-101473000D02*
X171754800Y-101473000D01*
X174269400Y-101473000D02*
X181966400Y-109170000D01*
X191135800Y-109170000D02*
X191490600Y-109524800D01*
X181966400Y-109170000D02*
X191135800Y-109170000D01*
X127436001Y-139611201D02*
X128236000Y-140411200D01*
X124234800Y-136410000D02*
X127436001Y-139611201D01*
X102467319Y-136410000D02*
X124234800Y-136410000D01*
X99034600Y-131775200D02*
X99034600Y-132977281D01*
X99034600Y-132977281D02*
X102467319Y-136410000D01*
X126265999Y-141211199D02*
X125466000Y-140411200D01*
X126904800Y-141850000D02*
X126265999Y-141211199D01*
X128240000Y-130509800D02*
X128240000Y-132720000D01*
X134750000Y-141850000D02*
X126904800Y-141850000D01*
X129514600Y-129235200D02*
X128240000Y-130509800D01*
X128240000Y-132720000D02*
X135170000Y-139650000D01*
X135170000Y-139650000D02*
X135170000Y-141430000D01*
X135170000Y-141430000D02*
X134750000Y-141850000D01*
X89080000Y-108820000D02*
X87960000Y-108820000D01*
X90424000Y-112247680D02*
X90424000Y-110164000D01*
X90424000Y-110164000D02*
X89080000Y-108820000D01*
X87589999Y-102050001D02*
X87290000Y-102350000D01*
X133731000Y-61264800D02*
X133731000Y-90879000D01*
X133731000Y-90879000D02*
X130970000Y-93640000D01*
X130970000Y-93640000D02*
X96000000Y-93640000D01*
X96000000Y-93640000D02*
X87589999Y-102050001D01*
X133731000Y-60799000D02*
X133731000Y-61264800D01*
X143069600Y-51460400D02*
X133731000Y-60799000D01*
X169033000Y-51460400D02*
X143069600Y-51460400D01*
X170332400Y-48895000D02*
X170332400Y-50161000D01*
X170332400Y-50161000D02*
X169033000Y-51460400D01*
X138580000Y-138290000D02*
X138580000Y-138300000D01*
X132054600Y-131775200D02*
X132065200Y-131775200D01*
X132065200Y-131775200D02*
X138580000Y-138290000D01*
X132976001Y-139611201D02*
X133776000Y-140411200D01*
X127584800Y-134220000D02*
X132976001Y-139611201D01*
X104114600Y-131775200D02*
X106559400Y-134220000D01*
X106559400Y-134220000D02*
X127584800Y-134220000D01*
X130206001Y-139611201D02*
X131006000Y-140411200D01*
X125864800Y-135270000D02*
X130206001Y-139611201D01*
X101574600Y-131775200D02*
X101574600Y-132977281D01*
X103867319Y-135270000D02*
X125864800Y-135270000D01*
X101574600Y-132977281D02*
X103867319Y-135270000D01*
X191140400Y-115894800D02*
X190576200Y-116459000D01*
X197281800Y-115894800D02*
X191140400Y-115894800D01*
X190588900Y-111645702D02*
X190601602Y-111633000D01*
X190588900Y-116497100D02*
X190588900Y-111645702D01*
X189237536Y-108026200D02*
X189661800Y-108026200D01*
X179197000Y-104038400D02*
X183184800Y-108026200D01*
X183184800Y-108026200D02*
X189237536Y-108026200D01*
X103378000Y-116992000D02*
X96494600Y-123875400D01*
X103378000Y-114604800D02*
X103378000Y-116992000D01*
X96494600Y-123875400D02*
X96494600Y-129235200D01*
X108635800Y-109448600D02*
X108534200Y-109448600D01*
X108534200Y-109448600D02*
X103378000Y-114604800D01*
X107873801Y-108686601D02*
X108635800Y-109448600D01*
X104851200Y-105664000D02*
X107873801Y-108686601D01*
X82854800Y-106273600D02*
X82854800Y-105173600D01*
X82854800Y-105173600D02*
X84218600Y-103809800D01*
X84218600Y-103809800D02*
X95319800Y-103809800D01*
X95319800Y-103809800D02*
X97174000Y-105664000D01*
X97174000Y-105664000D02*
X104851200Y-105664000D01*
X81323000Y-131922520D02*
X80570000Y-131169520D01*
X81754800Y-106273600D02*
X82854800Y-106273600D01*
X80570000Y-131169520D02*
X80570000Y-131130000D01*
X82423000Y-131922520D02*
X81323000Y-131922520D01*
X79451200Y-108577200D02*
X81754800Y-106273600D01*
X79451200Y-130011200D02*
X79451200Y-108577200D01*
X80570000Y-131130000D02*
X79451200Y-130011200D01*
X202520503Y-143351297D02*
X202520503Y-131012503D01*
X198374000Y-147497800D02*
X202520503Y-143351297D01*
X169367200Y-144472170D02*
X169367200Y-147040600D01*
X169380600Y-144458770D02*
X169367200Y-144472170D01*
X169367200Y-147040600D02*
X169824400Y-147497800D01*
X169380600Y-143327400D02*
X169380600Y-144458770D01*
X169824400Y-147497800D02*
X198374000Y-147497800D01*
X202520503Y-114883503D02*
X198431800Y-110794800D01*
X198431800Y-110794800D02*
X197281800Y-110794800D01*
X202412600Y-126746000D02*
X202438000Y-126720600D01*
X197104000Y-126746000D02*
X202412600Y-126746000D01*
X202520503Y-131012503D02*
X202438000Y-126720600D01*
X202438000Y-126720600D02*
X202520503Y-114883503D01*
X156756100Y-143410100D02*
X156756100Y-144284700D01*
X156838800Y-143327400D02*
X156756100Y-143410100D01*
X169380600Y-143327400D02*
X156838800Y-143327400D01*
X168580601Y-142527401D02*
X164930201Y-142527401D01*
X169380600Y-143327400D02*
X168580601Y-142527401D01*
X164930201Y-142527401D02*
X164642800Y-142240000D01*
X164642800Y-142240000D02*
X164642800Y-130759200D01*
X164642800Y-130759200D02*
X168300400Y-127101600D01*
X168300400Y-127101600D02*
X168300400Y-124485400D01*
X168300400Y-124485400D02*
X167614600Y-123799600D01*
X161010600Y-123799600D02*
X158800800Y-126009400D01*
X167614600Y-123799600D02*
X161010600Y-123799600D01*
X170789600Y-125806200D02*
X170789600Y-140463400D01*
X165201600Y-120218200D02*
X170789600Y-125806200D01*
X106273600Y-119786400D02*
X106273600Y-124626402D01*
X145364200Y-127050800D02*
X152196800Y-120218200D01*
X106832400Y-119227600D02*
X106273600Y-119786400D01*
X113969800Y-117754400D02*
X112598200Y-117754400D01*
X106299000Y-126238000D02*
X107111800Y-127050800D01*
X111125000Y-119227600D02*
X106832400Y-119227600D01*
X106273600Y-124626402D02*
X106299000Y-124651802D01*
X112598200Y-117754400D02*
X111125000Y-119227600D01*
X107111800Y-127050800D02*
X145364200Y-127050800D01*
X170789600Y-140463400D02*
X170765600Y-140487400D01*
X106299000Y-124651802D02*
X106299000Y-126238000D01*
X152196800Y-120218200D02*
X165201600Y-120218200D01*
X188112400Y-51435000D02*
X189331600Y-51435000D01*
X179146200Y-55245000D02*
X174620199Y-59771001D01*
X174620199Y-59771001D02*
X174320200Y-60071000D01*
X189331600Y-51435000D02*
X189865000Y-51968400D01*
X189052200Y-55245000D02*
X179146200Y-55245000D01*
X189865000Y-54432200D02*
X189052200Y-55245000D01*
X189865000Y-51968400D02*
X189865000Y-54432200D01*
X125196600Y-101498400D02*
X125196600Y-101103400D01*
X125230000Y-101465000D02*
X125196600Y-101498400D01*
X113182400Y-104165400D02*
X113182400Y-103276400D01*
X113182400Y-103276400D02*
X116357400Y-100101400D01*
X125218600Y-100101400D02*
X125230000Y-100112800D01*
X116357400Y-100101400D02*
X125218600Y-100101400D01*
X125230000Y-100112800D02*
X125230000Y-101465000D01*
X139954000Y-98983800D02*
X139954000Y-95026000D01*
X140600000Y-94380000D02*
X148950000Y-94380000D01*
X139954000Y-95026000D02*
X140600000Y-94380000D01*
X138825000Y-100112800D02*
X139954000Y-98983800D01*
X173959998Y-63634264D02*
X173959998Y-63210000D01*
X173959998Y-69370002D02*
X173959998Y-63634264D01*
X125230000Y-100112800D02*
X138825000Y-100112800D01*
X148950000Y-94380000D02*
X173959998Y-69370002D01*
X80411320Y-112247680D02*
X82804000Y-112247680D01*
X80010000Y-125631601D02*
X80010000Y-112649000D01*
X80010000Y-112649000D02*
X80411320Y-112247680D01*
X82423000Y-126842520D02*
X81220919Y-126842520D01*
X81220919Y-126842520D02*
X80010000Y-125631601D01*
X195954000Y-131846000D02*
X195008800Y-132791200D01*
X197104000Y-131846000D02*
X195954000Y-131846000D01*
X190627000Y-132102600D02*
X190627000Y-128752600D01*
X191315600Y-132791200D02*
X190627000Y-132102600D01*
X195008800Y-132791200D02*
X191315600Y-132791200D01*
X150088600Y-108153200D02*
X169196936Y-108153200D01*
X169196936Y-108153200D02*
X169621200Y-108153200D01*
X145770600Y-103835200D02*
X150088600Y-108153200D01*
X173223200Y-107853201D02*
X172923201Y-108153200D01*
X172923201Y-108577464D02*
X172923201Y-108153200D01*
X190639700Y-128790700D02*
X190639700Y-127140700D01*
X174269400Y-106807001D02*
X173223200Y-107853201D01*
X190639700Y-127140700D02*
X186079400Y-122580400D01*
X172923201Y-118160801D02*
X172923201Y-108577464D01*
X174269400Y-104013000D02*
X174269400Y-106807001D01*
X177342800Y-122580400D02*
X172923201Y-118160801D01*
X186079400Y-122580400D02*
X177342800Y-122580400D01*
X126263400Y-118033800D02*
X125247400Y-118033800D01*
X145770600Y-103835200D02*
X144348200Y-105257600D01*
X143256000Y-105257600D02*
X134493000Y-114020600D01*
X144348200Y-105257600D02*
X143256000Y-105257600D01*
X134493000Y-114020600D02*
X130276600Y-114020600D01*
X130276600Y-114020600D02*
X126263400Y-118033800D01*
X117703600Y-104165400D02*
X115722400Y-104165400D01*
X119151400Y-105613200D02*
X117703600Y-104165400D01*
X125247400Y-118033800D02*
X125247400Y-117033800D01*
X125247400Y-117033800D02*
X121650000Y-113436400D01*
X121650000Y-113436400D02*
X119862600Y-113436400D01*
X119862600Y-113436400D02*
X119151400Y-112725200D01*
X119151400Y-112725200D02*
X119151400Y-105613200D01*
X114452400Y-103165400D02*
X114452400Y-104165400D01*
X116147800Y-101470000D02*
X114452400Y-103165400D01*
X121259600Y-101473000D02*
X121256600Y-101470000D01*
X121256600Y-101470000D02*
X116147800Y-101470000D01*
X114452400Y-107111800D02*
X113969800Y-107594400D01*
X114452400Y-104165400D02*
X114452400Y-107111800D01*
X122707400Y-120599200D02*
X118389400Y-124917200D01*
X122707400Y-118033800D02*
X122707400Y-120599200D01*
X153000000Y-92920000D02*
X177180001Y-68739999D01*
X177180001Y-68739999D02*
X177480000Y-68440000D01*
X151206200Y-93548200D02*
X151834400Y-92920000D01*
X151834400Y-92920000D02*
X153000000Y-92920000D01*
X118364000Y-119975830D02*
X122058630Y-116281200D01*
X118364000Y-121107200D02*
X118364000Y-119975830D01*
X123977400Y-117033800D02*
X123977400Y-118033800D01*
X123224800Y-116281200D02*
X123977400Y-117033800D01*
X122058630Y-116281200D02*
X123224800Y-116281200D01*
X117456789Y-126499189D02*
X119880811Y-126499189D01*
X120662801Y-125717199D02*
X121462800Y-124917200D01*
X117043200Y-126085600D02*
X117456789Y-126499189D01*
X117043200Y-122428000D02*
X117043200Y-126085600D01*
X119880811Y-126499189D02*
X120662801Y-125717199D01*
X118364000Y-121107200D02*
X117043200Y-122428000D01*
X82423000Y-129380000D02*
X82423000Y-129382520D01*
X84630000Y-130420000D02*
X83590000Y-129380000D01*
X148550000Y-134720000D02*
X148550000Y-144312000D01*
X154339600Y-128930400D02*
X148550000Y-134720000D01*
X164577430Y-128930400D02*
X154339600Y-128930400D01*
X83590000Y-129380000D02*
X82423000Y-129380000D01*
X166420800Y-126009400D02*
X166420800Y-127087030D01*
X92160000Y-147340000D02*
X90110000Y-145290000D01*
X90110000Y-145290000D02*
X90110000Y-138460000D01*
X148550000Y-144312000D02*
X145522000Y-147340000D01*
X90110000Y-138460000D02*
X84630000Y-132980000D01*
X145522000Y-147340000D02*
X92160000Y-147340000D01*
X166420800Y-127087030D02*
X164577430Y-128930400D01*
X84630000Y-132980000D02*
X84630000Y-130420000D01*
X98475800Y-116814600D02*
X98475800Y-117068600D01*
X87934800Y-106273600D02*
X98475800Y-116814600D01*
X98475800Y-114274600D02*
X98475800Y-114528600D01*
X90474800Y-106273600D02*
X98475800Y-114274600D01*
X182981600Y-101498400D02*
X179197000Y-101498400D01*
X184658000Y-103174800D02*
X182981600Y-101498400D01*
X122696000Y-141542570D02*
X122696000Y-140411200D01*
X122696000Y-144216000D02*
X122696000Y-141542570D01*
X123250000Y-144770000D02*
X122696000Y-144216000D01*
X138540000Y-144770000D02*
X123250000Y-144770000D01*
X139370000Y-143940000D02*
X138540000Y-144770000D01*
X130135200Y-131775200D02*
X137950000Y-139590000D01*
X137950000Y-139590000D02*
X137950000Y-141070000D01*
X129514600Y-131775200D02*
X130135200Y-131775200D01*
X137950000Y-141070000D02*
X139370000Y-142490000D01*
X139370000Y-142490000D02*
X139370000Y-143940000D01*
X190449200Y-74498200D02*
X188112400Y-76835000D01*
X147091400Y-52984400D02*
X182263870Y-52984400D01*
X182263870Y-52984400D02*
X185083270Y-50165000D01*
X190449200Y-51206400D02*
X190449200Y-74498200D01*
X138811000Y-61264800D02*
X147091400Y-52984400D01*
X185083270Y-50165000D02*
X189407800Y-50165000D01*
X189407800Y-50165000D02*
X190449200Y-51206400D01*
X172872400Y-50161000D02*
X170785600Y-52247800D01*
X172872400Y-48895000D02*
X172872400Y-50161000D01*
X170785600Y-52247800D02*
X143916400Y-52247800D01*
X136271000Y-59893200D02*
X136271000Y-61264800D01*
X143916400Y-52247800D02*
X136271000Y-59893200D01*
X86833600Y-108813600D02*
X85686900Y-108813600D01*
X89166700Y-111146700D02*
X86833600Y-108813600D01*
X91800680Y-116423440D02*
X89166700Y-113789460D01*
X89166700Y-113789460D02*
X89166700Y-111146700D01*
X132450000Y-89430000D02*
X132450000Y-65920000D01*
X129420000Y-92460000D02*
X132450000Y-89430000D01*
X94200000Y-92460000D02*
X129420000Y-92460000D01*
X84289900Y-102374700D02*
X84289900Y-102370100D01*
X84289900Y-102370100D02*
X94200000Y-92460000D01*
X134590000Y-65850000D02*
X134590000Y-65920000D01*
X137210000Y-63230000D02*
X134590000Y-65850000D01*
X148971000Y-61264800D02*
X147005800Y-63230000D01*
X147005800Y-63230000D02*
X137210000Y-63230000D01*
X149319600Y-54490000D02*
X143891000Y-59918600D01*
X185572400Y-53975000D02*
X185057400Y-54490000D01*
X143891000Y-59918600D02*
X143891000Y-61264800D01*
X185057400Y-54490000D02*
X149319600Y-54490000D01*
X141351000Y-60477400D02*
X141351000Y-61264800D01*
X186842400Y-52705000D02*
X184150000Y-52705000D01*
X188112400Y-53975000D02*
X186842400Y-52705000D01*
X184150000Y-52705000D02*
X183145000Y-53710000D01*
X183145000Y-53710000D02*
X148118400Y-53710000D01*
X148118400Y-53710000D02*
X141351000Y-60477400D01*
X183032400Y-71043800D02*
X183032400Y-97155000D01*
X171729400Y-59740800D02*
X183032400Y-71043800D01*
X146431000Y-61264800D02*
X147955000Y-59740800D01*
X147955000Y-59740800D02*
X171729400Y-59740800D01*
X133555800Y-100810000D02*
X150650000Y-100810000D01*
X150650000Y-100810000D02*
X152570000Y-98890000D01*
X165252400Y-98421000D02*
X165252400Y-97155000D01*
X152570000Y-98890000D02*
X164783400Y-98890000D01*
X130530600Y-103835200D02*
X133555800Y-100810000D01*
X164783400Y-98890000D02*
X165252400Y-98421000D01*
X167792400Y-98421000D02*
X167792400Y-97155000D01*
X133070600Y-103835200D02*
X135245800Y-101660000D01*
X166753400Y-99460000D02*
X167792400Y-98421000D01*
X135245800Y-101660000D02*
X151570000Y-101660000D01*
X151570000Y-101660000D02*
X153770000Y-99460000D01*
X153770000Y-99460000D02*
X166753400Y-99460000D01*
X170332400Y-98421000D02*
X170332400Y-97155000D01*
X136829800Y-102616000D02*
X152603200Y-102616000D01*
X135610600Y-103835200D02*
X136829800Y-102616000D01*
X155117800Y-100101400D02*
X168652000Y-100101400D01*
X152603200Y-102616000D02*
X155117800Y-100101400D01*
X168652000Y-100101400D02*
X170332400Y-98421000D01*
X83728560Y-116423440D02*
X81640680Y-116423440D01*
X87884000Y-112247680D02*
X87884000Y-112268000D01*
X87884000Y-112268000D02*
X83728560Y-116423440D01*
X84874100Y-120103900D02*
X91846400Y-120103900D01*
X81640680Y-116423440D02*
X81640680Y-116870480D01*
X81640680Y-116870480D02*
X84874100Y-120103900D01*
X119380000Y-79730000D02*
X119350000Y-79760000D01*
X119380000Y-76670000D02*
X119380000Y-79730000D01*
X95120002Y-122119998D02*
X95120002Y-115524264D01*
X92000000Y-125240000D02*
X95120002Y-122119998D01*
X95120002Y-115524264D02*
X95120002Y-115100000D01*
X92000000Y-133190000D02*
X92000000Y-125240000D01*
X93380000Y-134570000D02*
X92000000Y-133190000D01*
X103306000Y-144214000D02*
X102850000Y-144670000D01*
X103306000Y-140411200D02*
X103306000Y-144214000D01*
X95770000Y-144670000D02*
X93380000Y-142280000D01*
X102850000Y-144670000D02*
X95770000Y-144670000D01*
X93380000Y-142280000D02*
X93380000Y-134570000D01*
X119350000Y-79760000D02*
X116560000Y-79760000D01*
X96169999Y-90240001D02*
X95870000Y-90540000D01*
X116560000Y-79760000D02*
X107270000Y-89050000D01*
X107270000Y-89050000D02*
X97360000Y-89050000D01*
X97360000Y-89050000D02*
X96169999Y-90240001D01*
X106654600Y-129235200D02*
X103619400Y-126200000D01*
X103619400Y-126200000D02*
X97900000Y-126200000D01*
X115310000Y-144790000D02*
X117002200Y-144790000D01*
X114390000Y-142500000D02*
X114390000Y-143870000D01*
X100810000Y-138200000D02*
X112460000Y-138200000D01*
X114390000Y-143870000D02*
X115310000Y-144790000D01*
X97260000Y-134650000D02*
X100810000Y-138200000D01*
X117002200Y-144790000D02*
X118541000Y-143251200D01*
X112460000Y-138200000D02*
X113000000Y-138740000D01*
X113000000Y-138740000D02*
X113000000Y-141110000D01*
X113000000Y-141110000D02*
X114390000Y-142500000D01*
X115051200Y-143251200D02*
X115771000Y-143251200D01*
X115771000Y-139061000D02*
X115771000Y-143251200D01*
X114130000Y-137420000D02*
X115771000Y-139061000D01*
X101880000Y-137420000D02*
X114130000Y-137420000D01*
X102589400Y-127710000D02*
X98120000Y-127710000D01*
X104114600Y-129235200D02*
X102589400Y-127710000D01*
X97780000Y-128050000D02*
X97780000Y-133320000D01*
X98120000Y-127710000D02*
X97780000Y-128050000D01*
X97780000Y-133320000D02*
X101880000Y-137420000D01*
X112400000Y-79740000D02*
X112420000Y-79760000D01*
X112400000Y-76690000D02*
X112400000Y-79740000D01*
X94140000Y-121990000D02*
X94140000Y-114574262D01*
X94140000Y-114574262D02*
X94140000Y-114149998D01*
X90960000Y-134100000D02*
X90960000Y-125170000D01*
X90960000Y-125170000D02*
X94140000Y-121990000D01*
X106076000Y-144424000D02*
X105220000Y-145280000D01*
X105220000Y-145280000D02*
X95170000Y-145280000D01*
X106076000Y-140411200D02*
X106076000Y-144424000D01*
X92440000Y-135580000D02*
X90960000Y-134100000D01*
X92440000Y-142550000D02*
X92440000Y-135580000D01*
X95170000Y-145280000D02*
X92440000Y-142550000D01*
X94549999Y-90240001D02*
X94250000Y-90540000D01*
X100000000Y-84790000D02*
X94549999Y-90240001D01*
X112420000Y-79760000D02*
X107390000Y-84790000D01*
X107390000Y-84790000D02*
X100000000Y-84790000D01*
X105890000Y-79710000D02*
X105910000Y-79730000D01*
X105890000Y-76690000D02*
X105890000Y-79710000D01*
X89870000Y-125090000D02*
X93119999Y-121840001D01*
X91610000Y-143010000D02*
X91610000Y-136800000D01*
X93119999Y-121840001D02*
X93119999Y-113604264D01*
X93119999Y-113604264D02*
X93119999Y-113180000D01*
X107960000Y-145860000D02*
X94460000Y-145860000D01*
X89870000Y-135060000D02*
X89870000Y-125090000D01*
X94460000Y-145860000D02*
X91610000Y-143010000D01*
X108846000Y-144974000D02*
X107960000Y-145860000D01*
X91610000Y-136800000D02*
X89870000Y-135060000D01*
X108846000Y-140411200D02*
X108846000Y-144974000D01*
X92760000Y-90210000D02*
X92760000Y-90550000D01*
X92760000Y-89540000D02*
X92760000Y-90210000D01*
X105910000Y-79730000D02*
X102570000Y-79730000D01*
X102570000Y-79730000D02*
X92760000Y-89540000D01*
X126550000Y-79710000D02*
X126580000Y-79740000D01*
X126550000Y-76660000D02*
X126550000Y-79710000D01*
X96090000Y-116514264D02*
X96090000Y-116090000D01*
X96090000Y-122450000D02*
X96090000Y-116514264D01*
X111616000Y-140411200D02*
X110244800Y-139040000D01*
X99550000Y-139040000D02*
X93060000Y-132550000D01*
X93060000Y-132550000D02*
X93060000Y-125480000D01*
X110244800Y-139040000D02*
X99550000Y-139040000D01*
X93060000Y-125480000D02*
X96090000Y-122450000D01*
X112660000Y-90530000D02*
X97994264Y-90530000D01*
X126580000Y-79740000D02*
X123450000Y-79740000D01*
X97994264Y-90530000D02*
X97570000Y-90530000D01*
X123450000Y-79740000D02*
X112660000Y-90530000D01*
X94996000Y-140411200D02*
X94981200Y-140411200D01*
X97766000Y-140411200D02*
X97371200Y-140411200D01*
X103259038Y-63899038D02*
X105890000Y-66530000D01*
X144925000Y-48895000D02*
X142090000Y-46060000D01*
X144932400Y-48895000D02*
X144925000Y-48895000D01*
X103259038Y-47420962D02*
X103259038Y-63899038D01*
X104620000Y-46060000D02*
X103259038Y-47420962D01*
X142090000Y-46060000D02*
X104620000Y-46060000D01*
X110140000Y-68790000D02*
X112400000Y-66530000D01*
X147472400Y-47629000D02*
X144713400Y-44870000D01*
X104640000Y-68790000D02*
X110140000Y-68790000D01*
X101890000Y-66040000D02*
X104640000Y-68790000D01*
X104440000Y-44870000D02*
X101890000Y-47420000D01*
X147472400Y-48895000D02*
X147472400Y-47629000D01*
X144713400Y-44870000D02*
X104440000Y-44870000D01*
X101890000Y-47420000D02*
X101890000Y-66040000D01*
X121510000Y-64380000D02*
X120179999Y-65710001D01*
X130860000Y-64380000D02*
X121510000Y-64380000D01*
X132450000Y-62790000D02*
X130860000Y-64380000D01*
X150012400Y-50161000D02*
X149473400Y-50700000D01*
X120179999Y-65710001D02*
X119380000Y-66510000D01*
X150012400Y-48895000D02*
X150012400Y-50161000D01*
X149473400Y-50700000D02*
X142140000Y-50700000D01*
X142140000Y-50700000D02*
X132450000Y-60390000D01*
X132450000Y-60390000D02*
X132450000Y-62790000D01*
M02*
