G04 #@! TF.GenerationSoftware,KiCad,Pcbnew,(5.1.5)-3*
G04 #@! TF.CreationDate,2020-04-13T23:59:43-04:00*
G04 #@! TF.ProjectId,Deck_Plate_PCB,4465636b-5f50-46c6-9174-655f5043422e,A*
G04 #@! TF.SameCoordinates,Original*
G04 #@! TF.FileFunction,Soldermask,Top*
G04 #@! TF.FilePolarity,Negative*
%FSLAX46Y46*%
G04 Gerber Fmt 4.6, Leading zero omitted, Abs format (unit mm)*
G04 Created by KiCad (PCBNEW (5.1.5)-3) date 2020-04-13 23:59:43*
%MOMM*%
%LPD*%
G04 APERTURE LIST*
%ADD10R,1.600000X1.600000*%
%ADD11C,1.600000*%
%ADD12C,2.200000*%
%ADD13C,1.524000*%
%ADD14C,3.600000*%
%ADD15R,3.600000X6.200000*%
%ADD16R,6.800000X2.800000*%
%ADD17C,2.500000*%
%ADD18O,1.600000X1.600000*%
%ADD19O,1.700000X1.700000*%
%ADD20R,1.700000X1.700000*%
%ADD21O,3.200000X3.200000*%
%ADD22R,3.200000X3.200000*%
%ADD23C,3.500000*%
%ADD24R,4.700000X1.300000*%
%ADD25R,2.500000X4.400000*%
%ADD26O,1.800000X1.275000*%
%ADD27R,1.800000X1.275000*%
%ADD28R,1.050000X1.500000*%
%ADD29O,1.050000X1.500000*%
%ADD30C,1.727200*%
%ADD31O,1.727200X1.727200*%
%ADD32O,1.727200X2.032000*%
%ADD33C,4.064000*%
G04 APERTURE END LIST*
D10*
X95570000Y-137390000D03*
D11*
X98340000Y-137390000D03*
X101110000Y-137390000D03*
X103880000Y-137390000D03*
X106650000Y-137390000D03*
X109420000Y-137390000D03*
X112190000Y-137390000D03*
X114960000Y-137390000D03*
X117730000Y-137390000D03*
X120500000Y-137390000D03*
X123270000Y-137390000D03*
X126040000Y-137390000D03*
X128810000Y-137390000D03*
X131580000Y-137390000D03*
X134350000Y-137390000D03*
X137120000Y-137390000D03*
X139890000Y-137390000D03*
X142660000Y-137390000D03*
X145430000Y-137390000D03*
X96955000Y-140230000D03*
X99725000Y-140230000D03*
X102495000Y-140230000D03*
X105265000Y-140230000D03*
X108035000Y-140230000D03*
X110805000Y-140230000D03*
X113575000Y-140230000D03*
X116345000Y-140230000D03*
X119115000Y-140230000D03*
X121885000Y-140230000D03*
X124655000Y-140230000D03*
X127425000Y-140230000D03*
X130195000Y-140230000D03*
X132965000Y-140230000D03*
X135735000Y-140230000D03*
X138505000Y-140230000D03*
X141275000Y-140230000D03*
X144045000Y-140230000D03*
D12*
X84960000Y-83909200D03*
X98430000Y-70599200D03*
D13*
X94795000Y-69630000D03*
X92255000Y-69630000D03*
X89715000Y-69630000D03*
X87175000Y-69630000D03*
X84635000Y-69630000D03*
D14*
X160820000Y-77930000D03*
X167930000Y-77930000D03*
X180400000Y-78000000D03*
X173290000Y-78000000D03*
D15*
X176252000Y-116560000D03*
X188698000Y-116534600D03*
D16*
X176188500Y-116521900D03*
X188710700Y-116572700D03*
D17*
X145130000Y-108280000D03*
X131120000Y-108290000D03*
X131110000Y-118440000D03*
D12*
X166090000Y-111739200D03*
X152628600Y-124993400D03*
D17*
X145140000Y-118450000D03*
D18*
X125196600Y-111658400D03*
D11*
X125196600Y-101498400D03*
D18*
X126550000Y-66500000D03*
D11*
X126550000Y-76660000D03*
D18*
X105890000Y-66530000D03*
D11*
X105890000Y-76690000D03*
D18*
X112400000Y-66530000D03*
D11*
X112400000Y-76690000D03*
D18*
X126580000Y-79740000D03*
D11*
X126580000Y-87240000D03*
D18*
X105910000Y-79730000D03*
D11*
X105910000Y-87230000D03*
D18*
X112420000Y-79760000D03*
D11*
X112420000Y-87260000D03*
D19*
X144754600Y-129235200D03*
X144754600Y-131775200D03*
X142214600Y-129235200D03*
X142214600Y-131775200D03*
X139674600Y-129235200D03*
X139674600Y-131775200D03*
X137134600Y-129235200D03*
X137134600Y-131775200D03*
X134594600Y-129235200D03*
X134594600Y-131775200D03*
X132054600Y-129235200D03*
X132054600Y-131775200D03*
X129514600Y-129235200D03*
X129514600Y-131775200D03*
X126974600Y-129235200D03*
X126974600Y-131775200D03*
X124434600Y-129235200D03*
X124434600Y-131775200D03*
X121894600Y-129235200D03*
X121894600Y-131775200D03*
X119354600Y-129235200D03*
X119354600Y-131775200D03*
X116814600Y-129235200D03*
X116814600Y-131775200D03*
X114274600Y-129235200D03*
X114274600Y-131775200D03*
X111734600Y-129235200D03*
X111734600Y-131775200D03*
X109194600Y-129235200D03*
X109194600Y-131775200D03*
X106654600Y-129235200D03*
X106654600Y-131775200D03*
X104114600Y-129235200D03*
X104114600Y-131775200D03*
X101574600Y-129235200D03*
X101574600Y-131775200D03*
X99034600Y-129235200D03*
X99034600Y-131775200D03*
X96494600Y-129235200D03*
D20*
X96494600Y-131775200D03*
D18*
X119380000Y-66510000D03*
D11*
X119380000Y-76670000D03*
D18*
X119350000Y-79760000D03*
D11*
X119350000Y-87260000D03*
D19*
X84150000Y-124330000D03*
X84150000Y-126870000D03*
X84150000Y-129410000D03*
D20*
X84150000Y-131950000D03*
D21*
X155080000Y-103820000D03*
D22*
X167780000Y-103820000D03*
D21*
X192980000Y-103810000D03*
D22*
X180280000Y-103810000D03*
D19*
X148971000Y-61264800D03*
X146431000Y-61264800D03*
X143891000Y-61264800D03*
X141351000Y-61264800D03*
X138811000Y-61264800D03*
X136271000Y-61264800D03*
X133731000Y-61264800D03*
X131191000Y-61264800D03*
D20*
X128651000Y-61264800D03*
D19*
X89580000Y-110290000D03*
X89580000Y-107750000D03*
X89580000Y-105210000D03*
D20*
X89580000Y-102670000D03*
D23*
X195961000Y-141020800D03*
X195961000Y-50977800D03*
X85979000Y-141020800D03*
X85852000Y-50977800D03*
D10*
X168580000Y-137940000D03*
D11*
X171350000Y-137940000D03*
X174120000Y-137940000D03*
X176890000Y-137940000D03*
X179660000Y-137940000D03*
X182430000Y-137940000D03*
X185200000Y-137940000D03*
X187970000Y-137940000D03*
X169965000Y-140780000D03*
X172735000Y-140780000D03*
X175505000Y-140780000D03*
X178275000Y-140780000D03*
X181045000Y-140780000D03*
X183815000Y-140780000D03*
X186585000Y-140780000D03*
D18*
X108229400Y-124917200D03*
D11*
X118389400Y-124917200D03*
D18*
X108204000Y-121107200D03*
D11*
X118364000Y-121107200D03*
D18*
X121462800Y-124917200D03*
D11*
X131622800Y-124917200D03*
D18*
X121259600Y-111633000D03*
D11*
X121259600Y-101473000D03*
D18*
X113969800Y-107594400D03*
D11*
X113969800Y-117754400D03*
D24*
X156829200Y-131075200D03*
X156905400Y-139304800D03*
D25*
X156867300Y-131011700D03*
X156867300Y-139317500D03*
D15*
X176362000Y-128360000D03*
X188808000Y-128334600D03*
D16*
X176298500Y-128321900D03*
X188820700Y-128372700D03*
D26*
X194540000Y-133546000D03*
X194540000Y-131846000D03*
X194540000Y-130146000D03*
X194540000Y-128446000D03*
D27*
X194540000Y-126746000D03*
D28*
X122707400Y-118033800D03*
D29*
X125247400Y-118033800D03*
X123977400Y-118033800D03*
D28*
X113182400Y-104165400D03*
D29*
X115722400Y-104165400D03*
X114452400Y-104165400D03*
D13*
X130530600Y-103835200D03*
X133070600Y-103835200D03*
X135610600Y-103835200D03*
X138150600Y-103835200D03*
X140690600Y-103835200D03*
X143230600Y-103835200D03*
X145770600Y-103835200D03*
X98475800Y-117068600D03*
X98475800Y-114528600D03*
X98475800Y-111988600D03*
X98475800Y-109448600D03*
X98475800Y-106908600D03*
X98475800Y-104368600D03*
X108635800Y-117068600D03*
X108635800Y-114528600D03*
X108635800Y-111988600D03*
X108635800Y-109448600D03*
X108635800Y-106908600D03*
X108635800Y-104368600D03*
D26*
X194610000Y-117710000D03*
X194610000Y-116010000D03*
X194610000Y-114310000D03*
X194610000Y-112610000D03*
D27*
X194610000Y-110910000D03*
D13*
X156260800Y-126009400D03*
X158800800Y-126009400D03*
X161340800Y-126009400D03*
X163880800Y-126009400D03*
X166420800Y-126009400D03*
D30*
X185572400Y-92075000D03*
D31*
X188112400Y-92075000D03*
X185572400Y-89535000D03*
X188112400Y-89535000D03*
X185572400Y-86995000D03*
X188112400Y-86995000D03*
X185572400Y-84455000D03*
X188112400Y-84455000D03*
X185572400Y-81915000D03*
X188112400Y-81915000D03*
X185572400Y-79375000D03*
X188112400Y-79375000D03*
X185572400Y-76835000D03*
X188112400Y-76835000D03*
X185572400Y-74295000D03*
X188112400Y-74295000D03*
X185572400Y-71755000D03*
X188112400Y-71755000D03*
X185572400Y-69215000D03*
X188112400Y-69215000D03*
X185572400Y-66675000D03*
X188112400Y-66675000D03*
X185572400Y-64135000D03*
X188112400Y-64135000D03*
X185572400Y-61595000D03*
X188112400Y-61595000D03*
X185572400Y-59055000D03*
X188112400Y-59055000D03*
X185572400Y-56515000D03*
X188112400Y-56515000D03*
X185572400Y-53975000D03*
X188112400Y-53975000D03*
X185572400Y-51435000D03*
X188112400Y-51435000D03*
X185572400Y-48895000D03*
X188112400Y-48895000D03*
D32*
X119532400Y-97155000D03*
X122072400Y-97155000D03*
X124612400Y-97155000D03*
X127152400Y-97155000D03*
X129692400Y-97155000D03*
X132232400Y-97155000D03*
X134772400Y-97155000D03*
X137312400Y-97155000D03*
X142392400Y-97155000D03*
X144932400Y-97155000D03*
X147472400Y-97155000D03*
X150012400Y-97155000D03*
X152552400Y-97155000D03*
X155092400Y-97155000D03*
X157632400Y-97155000D03*
X160172400Y-97155000D03*
X165252400Y-97155000D03*
X167792400Y-97155000D03*
X170332400Y-97155000D03*
X172872400Y-97155000D03*
X175412400Y-97155000D03*
X177952400Y-97155000D03*
X180492400Y-97155000D03*
X183032400Y-97155000D03*
X110388400Y-48895000D03*
X112928400Y-48895000D03*
X115468400Y-48895000D03*
X118008400Y-48895000D03*
X120548400Y-48895000D03*
X123088400Y-48895000D03*
X125628400Y-48895000D03*
X128168400Y-48895000D03*
X130708400Y-48895000D03*
X133248400Y-48895000D03*
X137312400Y-48895000D03*
X139852400Y-48895000D03*
X142392400Y-48895000D03*
X144932400Y-48895000D03*
X147472400Y-48895000D03*
X150012400Y-48895000D03*
X152552400Y-48895000D03*
X155092400Y-48895000D03*
X160172400Y-48895000D03*
X162712400Y-48895000D03*
X165252400Y-48895000D03*
X167792400Y-48895000D03*
X170332400Y-48895000D03*
X172872400Y-48895000D03*
X175412400Y-48895000D03*
X177952400Y-48895000D03*
D33*
X105562400Y-97155000D03*
X157632400Y-92075000D03*
X188112400Y-97155000D03*
X106832400Y-48895000D03*
X157632400Y-64135000D03*
X181762400Y-48895000D03*
M02*
