G04 #@! TF.GenerationSoftware,KiCad,Pcbnew,(5.1.5)-3*
G04 #@! TF.CreationDate,2020-04-13T23:59:43-04:00*
G04 #@! TF.ProjectId,Deck_Plate_PCB,4465636b-5f50-46c6-9174-655f5043422e,A*
G04 #@! TF.SameCoordinates,Original*
G04 #@! TF.FileFunction,Legend,Bot*
G04 #@! TF.FilePolarity,Positive*
%FSLAX46Y46*%
G04 Gerber Fmt 4.6, Leading zero omitted, Abs format (unit mm)*
G04 Created by KiCad (PCBNEW (5.1.5)-3) date 2020-04-13 23:59:43*
%MOMM*%
%LPD*%
G04 APERTURE LIST*
%ADD10C,0.300000*%
G04 APERTURE END LIST*
D10*
X112810000Y-55108571D02*
X113310000Y-54394285D01*
X113667142Y-55108571D02*
X113667142Y-53608571D01*
X113095714Y-53608571D01*
X112952857Y-53680000D01*
X112881428Y-53751428D01*
X112810000Y-53894285D01*
X112810000Y-54108571D01*
X112881428Y-54251428D01*
X112952857Y-54322857D01*
X113095714Y-54394285D01*
X113667142Y-54394285D01*
X111952857Y-55108571D02*
X112095714Y-55037142D01*
X112167142Y-54965714D01*
X112238571Y-54822857D01*
X112238571Y-54394285D01*
X112167142Y-54251428D01*
X112095714Y-54180000D01*
X111952857Y-54108571D01*
X111738571Y-54108571D01*
X111595714Y-54180000D01*
X111524285Y-54251428D01*
X111452857Y-54394285D01*
X111452857Y-54822857D01*
X111524285Y-54965714D01*
X111595714Y-55037142D01*
X111738571Y-55108571D01*
X111952857Y-55108571D01*
X110167142Y-55037142D02*
X110310000Y-55108571D01*
X110595714Y-55108571D01*
X110738571Y-55037142D01*
X110810000Y-54965714D01*
X110881428Y-54822857D01*
X110881428Y-54394285D01*
X110810000Y-54251428D01*
X110738571Y-54180000D01*
X110595714Y-54108571D01*
X110310000Y-54108571D01*
X110167142Y-54180000D01*
X109524285Y-55108571D02*
X109524285Y-53608571D01*
X109381428Y-54537142D02*
X108952857Y-55108571D01*
X108952857Y-54108571D02*
X109524285Y-54680000D01*
X108381428Y-55037142D02*
X108167142Y-55108571D01*
X107810000Y-55108571D01*
X107667142Y-55037142D01*
X107595714Y-54965714D01*
X107524285Y-54822857D01*
X107524285Y-54680000D01*
X107595714Y-54537142D01*
X107667142Y-54465714D01*
X107810000Y-54394285D01*
X108095714Y-54322857D01*
X108238571Y-54251428D01*
X108310000Y-54180000D01*
X108381428Y-54037142D01*
X108381428Y-53894285D01*
X108310000Y-53751428D01*
X108238571Y-53680000D01*
X108095714Y-53608571D01*
X107738571Y-53608571D01*
X107524285Y-53680000D01*
X106238571Y-55108571D02*
X106238571Y-54322857D01*
X106310000Y-54180000D01*
X106452857Y-54108571D01*
X106738571Y-54108571D01*
X106881428Y-54180000D01*
X106238571Y-55037142D02*
X106381428Y-55108571D01*
X106738571Y-55108571D01*
X106881428Y-55037142D01*
X106952857Y-54894285D01*
X106952857Y-54751428D01*
X106881428Y-54608571D01*
X106738571Y-54537142D01*
X106381428Y-54537142D01*
X106238571Y-54465714D01*
X105738571Y-54108571D02*
X105167142Y-54108571D01*
X105524285Y-53608571D02*
X105524285Y-54894285D01*
X105452857Y-55037142D01*
X105310000Y-55108571D01*
X105167142Y-55108571D01*
X104667142Y-54537142D02*
X103524285Y-54537142D01*
X102952857Y-53608571D02*
X101952857Y-55108571D01*
X101952857Y-53608571D02*
X102952857Y-55108571D01*
X100452857Y-54394285D02*
X100524285Y-54322857D01*
X100667142Y-54251428D01*
X100810000Y-54251428D01*
X100952857Y-54322857D01*
X101024285Y-54394285D01*
X101095714Y-54537142D01*
X101095714Y-54680000D01*
X101024285Y-54822857D01*
X100952857Y-54894285D01*
X100810000Y-54965714D01*
X100667142Y-54965714D01*
X100524285Y-54894285D01*
X100452857Y-54822857D01*
X100452857Y-54251428D02*
X100452857Y-54822857D01*
X100381428Y-54894285D01*
X100310000Y-54894285D01*
X100167142Y-54822857D01*
X100095714Y-54680000D01*
X100095714Y-54322857D01*
X100238571Y-54108571D01*
X100452857Y-53965714D01*
X100738571Y-53894285D01*
X101024285Y-53965714D01*
X101238571Y-54108571D01*
X101381428Y-54322857D01*
X101452857Y-54608571D01*
X101381428Y-54894285D01*
X101238571Y-55108571D01*
X101024285Y-55251428D01*
X100738571Y-55322857D01*
X100452857Y-55251428D01*
X100238571Y-55108571D01*
X99667142Y-53608571D02*
X99167142Y-55108571D01*
X98667142Y-53608571D01*
X98381428Y-53608571D02*
X97524285Y-53608571D01*
X97952857Y-55108571D02*
X97952857Y-53608571D01*
X95952857Y-53751428D02*
X95881428Y-53680000D01*
X95738571Y-53608571D01*
X95381428Y-53608571D01*
X95238571Y-53680000D01*
X95167142Y-53751428D01*
X95095714Y-53894285D01*
X95095714Y-54037142D01*
X95167142Y-54251428D01*
X96024285Y-55108571D01*
X95095714Y-55108571D01*
X94167142Y-53608571D02*
X94024285Y-53608571D01*
X93881428Y-53680000D01*
X93810000Y-53751428D01*
X93738571Y-53894285D01*
X93667142Y-54180000D01*
X93667142Y-54537142D01*
X93738571Y-54822857D01*
X93810000Y-54965714D01*
X93881428Y-55037142D01*
X94024285Y-55108571D01*
X94167142Y-55108571D01*
X94310000Y-55037142D01*
X94381428Y-54965714D01*
X94452857Y-54822857D01*
X94524285Y-54537142D01*
X94524285Y-54180000D01*
X94452857Y-53894285D01*
X94381428Y-53751428D01*
X94310000Y-53680000D01*
X94167142Y-53608571D01*
X93095714Y-53751428D02*
X93024285Y-53680000D01*
X92881428Y-53608571D01*
X92524285Y-53608571D01*
X92381428Y-53680000D01*
X92310000Y-53751428D01*
X92238571Y-53894285D01*
X92238571Y-54037142D01*
X92310000Y-54251428D01*
X93167142Y-55108571D01*
X92238571Y-55108571D01*
X91310000Y-53608571D02*
X91167142Y-53608571D01*
X91024285Y-53680000D01*
X90952857Y-53751428D01*
X90881428Y-53894285D01*
X90810000Y-54180000D01*
X90810000Y-54537142D01*
X90881428Y-54822857D01*
X90952857Y-54965714D01*
X91024285Y-55037142D01*
X91167142Y-55108571D01*
X91310000Y-55108571D01*
X91452857Y-55037142D01*
X91524285Y-54965714D01*
X91595714Y-54822857D01*
X91667142Y-54537142D01*
X91667142Y-54180000D01*
X91595714Y-53894285D01*
X91524285Y-53751428D01*
X91452857Y-53680000D01*
X91310000Y-53608571D01*
X89238571Y-53608571D02*
X88381428Y-53608571D01*
X88810000Y-55108571D02*
X88810000Y-53608571D01*
X87310000Y-55037142D02*
X87452857Y-55108571D01*
X87738571Y-55108571D01*
X87881428Y-55037142D01*
X87952857Y-54894285D01*
X87952857Y-54322857D01*
X87881428Y-54180000D01*
X87738571Y-54108571D01*
X87452857Y-54108571D01*
X87310000Y-54180000D01*
X87238571Y-54322857D01*
X87238571Y-54465714D01*
X87952857Y-54608571D01*
X85952857Y-55108571D02*
X85952857Y-54322857D01*
X86024285Y-54180000D01*
X86167142Y-54108571D01*
X86452857Y-54108571D01*
X86595714Y-54180000D01*
X85952857Y-55037142D02*
X86095714Y-55108571D01*
X86452857Y-55108571D01*
X86595714Y-55037142D01*
X86667142Y-54894285D01*
X86667142Y-54751428D01*
X86595714Y-54608571D01*
X86452857Y-54537142D01*
X86095714Y-54537142D01*
X85952857Y-54465714D01*
X85238571Y-55108571D02*
X85238571Y-54108571D01*
X85238571Y-54251428D02*
X85167142Y-54180000D01*
X85024285Y-54108571D01*
X84810000Y-54108571D01*
X84667142Y-54180000D01*
X84595714Y-54322857D01*
X84595714Y-55108571D01*
X84595714Y-54322857D02*
X84524285Y-54180000D01*
X84381428Y-54108571D01*
X84167142Y-54108571D01*
X84024285Y-54180000D01*
X83952857Y-54322857D01*
X83952857Y-55108571D01*
X102219285Y-85963571D02*
X102219285Y-87035000D01*
X102290714Y-87249285D01*
X102433571Y-87392142D01*
X102647857Y-87463571D01*
X102790714Y-87463571D01*
X100862142Y-87463571D02*
X100862142Y-86677857D01*
X100933571Y-86535000D01*
X101076428Y-86463571D01*
X101362142Y-86463571D01*
X101505000Y-86535000D01*
X100862142Y-87392142D02*
X101005000Y-87463571D01*
X101362142Y-87463571D01*
X101505000Y-87392142D01*
X101576428Y-87249285D01*
X101576428Y-87106428D01*
X101505000Y-86963571D01*
X101362142Y-86892142D01*
X101005000Y-86892142D01*
X100862142Y-86820714D01*
X99505000Y-87392142D02*
X99647857Y-87463571D01*
X99933571Y-87463571D01*
X100076428Y-87392142D01*
X100147857Y-87320714D01*
X100219285Y-87177857D01*
X100219285Y-86749285D01*
X100147857Y-86606428D01*
X100076428Y-86535000D01*
X99933571Y-86463571D01*
X99647857Y-86463571D01*
X99505000Y-86535000D01*
X98647857Y-87463571D02*
X98790714Y-87392142D01*
X98862142Y-87320714D01*
X98933571Y-87177857D01*
X98933571Y-86749285D01*
X98862142Y-86606428D01*
X98790714Y-86535000D01*
X98647857Y-86463571D01*
X98433571Y-86463571D01*
X98290714Y-86535000D01*
X98219285Y-86606428D01*
X98147857Y-86749285D01*
X98147857Y-87177857D01*
X98219285Y-87320714D01*
X98290714Y-87392142D01*
X98433571Y-87463571D01*
X98647857Y-87463571D01*
X97505000Y-87463571D02*
X97505000Y-85963571D01*
X97505000Y-86535000D02*
X97362142Y-86463571D01*
X97076428Y-86463571D01*
X96933571Y-86535000D01*
X96862142Y-86606428D01*
X96790714Y-86749285D01*
X96790714Y-87177857D01*
X96862142Y-87320714D01*
X96933571Y-87392142D01*
X97076428Y-87463571D01*
X97362142Y-87463571D01*
X97505000Y-87392142D01*
X95005000Y-87463571D02*
X95005000Y-85963571D01*
X94647857Y-85963571D01*
X94433571Y-86035000D01*
X94290714Y-86177857D01*
X94219285Y-86320714D01*
X94147857Y-86606428D01*
X94147857Y-86820714D01*
X94219285Y-87106428D01*
X94290714Y-87249285D01*
X94433571Y-87392142D01*
X94647857Y-87463571D01*
X95005000Y-87463571D01*
X93505000Y-87463571D02*
X93505000Y-86463571D01*
X93505000Y-85963571D02*
X93576428Y-86035000D01*
X93505000Y-86106428D01*
X93433571Y-86035000D01*
X93505000Y-85963571D01*
X93505000Y-86106428D01*
X90862142Y-86035000D02*
X91005000Y-85963571D01*
X91219285Y-85963571D01*
X91433571Y-86035000D01*
X91576428Y-86177857D01*
X91647857Y-86320714D01*
X91719285Y-86606428D01*
X91719285Y-86820714D01*
X91647857Y-87106428D01*
X91576428Y-87249285D01*
X91433571Y-87392142D01*
X91219285Y-87463571D01*
X91076428Y-87463571D01*
X90862142Y-87392142D01*
X90790714Y-87320714D01*
X90790714Y-86820714D01*
X91076428Y-86820714D01*
X90147857Y-87463571D02*
X90147857Y-86463571D01*
X90147857Y-85963571D02*
X90219285Y-86035000D01*
X90147857Y-86106428D01*
X90076428Y-86035000D01*
X90147857Y-85963571D01*
X90147857Y-86106428D01*
X89433571Y-87463571D02*
X89433571Y-86463571D01*
X89433571Y-86749285D02*
X89362142Y-86606428D01*
X89290714Y-86535000D01*
X89147857Y-86463571D01*
X89005000Y-86463571D01*
X88290714Y-87463571D02*
X88433571Y-87392142D01*
X88505000Y-87320714D01*
X88576428Y-87177857D01*
X88576428Y-86749285D01*
X88505000Y-86606428D01*
X88433571Y-86535000D01*
X88290714Y-86463571D01*
X88076428Y-86463571D01*
X87933571Y-86535000D01*
X87862142Y-86606428D01*
X87790714Y-86749285D01*
X87790714Y-87177857D01*
X87862142Y-87320714D01*
X87933571Y-87392142D01*
X88076428Y-87463571D01*
X88290714Y-87463571D01*
X86933571Y-87463571D02*
X87076428Y-87392142D01*
X87147857Y-87249285D01*
X87147857Y-85963571D01*
X85719285Y-87463571D02*
X85719285Y-86677857D01*
X85790714Y-86535000D01*
X85933571Y-86463571D01*
X86219285Y-86463571D01*
X86362142Y-86535000D01*
X85719285Y-87392142D02*
X85862142Y-87463571D01*
X86219285Y-87463571D01*
X86362142Y-87392142D01*
X86433571Y-87249285D01*
X86433571Y-87106428D01*
X86362142Y-86963571D01*
X86219285Y-86892142D01*
X85862142Y-86892142D01*
X85719285Y-86820714D01*
X85005000Y-87463571D02*
X85005000Y-86463571D01*
X85005000Y-86606428D02*
X84933571Y-86535000D01*
X84790714Y-86463571D01*
X84576428Y-86463571D01*
X84433571Y-86535000D01*
X84362142Y-86677857D01*
X84362142Y-87463571D01*
X84362142Y-86677857D02*
X84290714Y-86535000D01*
X84147857Y-86463571D01*
X83933571Y-86463571D01*
X83790714Y-86535000D01*
X83719285Y-86677857D01*
X83719285Y-87463571D01*
X82790714Y-87463571D02*
X82933571Y-87392142D01*
X83005000Y-87320714D01*
X83076428Y-87177857D01*
X83076428Y-86749285D01*
X83005000Y-86606428D01*
X82933571Y-86535000D01*
X82790714Y-86463571D01*
X82576428Y-86463571D01*
X82433571Y-86535000D01*
X82362142Y-86606428D01*
X82290714Y-86749285D01*
X82290714Y-87177857D01*
X82362142Y-87320714D01*
X82433571Y-87392142D01*
X82576428Y-87463571D01*
X82790714Y-87463571D01*
X102647857Y-90013571D02*
X102647857Y-88513571D01*
X101790714Y-90013571D02*
X102433571Y-89156428D01*
X101790714Y-88513571D02*
X102647857Y-89370714D01*
X100505000Y-90013571D02*
X100505000Y-89227857D01*
X100576428Y-89085000D01*
X100719285Y-89013571D01*
X101005000Y-89013571D01*
X101147857Y-89085000D01*
X100505000Y-89942142D02*
X100647857Y-90013571D01*
X101005000Y-90013571D01*
X101147857Y-89942142D01*
X101219285Y-89799285D01*
X101219285Y-89656428D01*
X101147857Y-89513571D01*
X101005000Y-89442142D01*
X100647857Y-89442142D01*
X100505000Y-89370714D01*
X100005000Y-89013571D02*
X99433571Y-89013571D01*
X99790714Y-88513571D02*
X99790714Y-89799285D01*
X99719285Y-89942142D01*
X99576428Y-90013571D01*
X99433571Y-90013571D01*
X98933571Y-90013571D02*
X98933571Y-88513571D01*
X98290714Y-90013571D02*
X98290714Y-89227857D01*
X98362142Y-89085000D01*
X98504999Y-89013571D01*
X98719285Y-89013571D01*
X98862142Y-89085000D01*
X98933571Y-89156428D01*
X97576428Y-90013571D02*
X97576428Y-89013571D01*
X97576428Y-89299285D02*
X97504999Y-89156428D01*
X97433571Y-89085000D01*
X97290714Y-89013571D01*
X97147857Y-89013571D01*
X96790714Y-89013571D02*
X96433571Y-90013571D01*
X96076428Y-89013571D02*
X96433571Y-90013571D01*
X96576428Y-90370714D01*
X96647857Y-90442142D01*
X96790714Y-90513571D01*
X95504999Y-89013571D02*
X95504999Y-90013571D01*
X95504999Y-89156428D02*
X95433571Y-89085000D01*
X95290714Y-89013571D01*
X95076428Y-89013571D01*
X94933571Y-89085000D01*
X94862142Y-89227857D01*
X94862142Y-90013571D01*
X92147857Y-90013571D02*
X92647857Y-89299285D01*
X93004999Y-90013571D02*
X93004999Y-88513571D01*
X92433571Y-88513571D01*
X92290714Y-88585000D01*
X92219285Y-88656428D01*
X92147857Y-88799285D01*
X92147857Y-89013571D01*
X92219285Y-89156428D01*
X92290714Y-89227857D01*
X92433571Y-89299285D01*
X93004999Y-89299285D01*
X91290714Y-90013571D02*
X91433571Y-89942142D01*
X91504999Y-89870714D01*
X91576428Y-89727857D01*
X91576428Y-89299285D01*
X91504999Y-89156428D01*
X91433571Y-89085000D01*
X91290714Y-89013571D01*
X91076428Y-89013571D01*
X90933571Y-89085000D01*
X90862142Y-89156428D01*
X90790714Y-89299285D01*
X90790714Y-89727857D01*
X90862142Y-89870714D01*
X90933571Y-89942142D01*
X91076428Y-90013571D01*
X91290714Y-90013571D01*
X90147857Y-90013571D02*
X90147857Y-88513571D01*
X90147857Y-89085000D02*
X90004999Y-89013571D01*
X89719285Y-89013571D01*
X89576428Y-89085000D01*
X89504999Y-89156428D01*
X89433571Y-89299285D01*
X89433571Y-89727857D01*
X89504999Y-89870714D01*
X89576428Y-89942142D01*
X89719285Y-90013571D01*
X90004999Y-90013571D01*
X90147857Y-89942142D01*
X88219285Y-89942142D02*
X88362142Y-90013571D01*
X88647857Y-90013571D01*
X88790714Y-89942142D01*
X88862142Y-89799285D01*
X88862142Y-89227857D01*
X88790714Y-89085000D01*
X88647857Y-89013571D01*
X88362142Y-89013571D01*
X88219285Y-89085000D01*
X88147857Y-89227857D01*
X88147857Y-89370714D01*
X88862142Y-89513571D01*
X87504999Y-90013571D02*
X87504999Y-89013571D01*
X87504999Y-89299285D02*
X87433571Y-89156428D01*
X87362142Y-89085000D01*
X87219285Y-89013571D01*
X87076428Y-89013571D01*
X86790714Y-89013571D02*
X86219285Y-89013571D01*
X86576428Y-88513571D02*
X86576428Y-89799285D01*
X86504999Y-89942142D01*
X86362142Y-90013571D01*
X86219285Y-90013571D01*
X85790714Y-89942142D02*
X85647857Y-90013571D01*
X85362142Y-90013571D01*
X85219285Y-89942142D01*
X85147857Y-89799285D01*
X85147857Y-89727857D01*
X85219285Y-89585000D01*
X85362142Y-89513571D01*
X85576428Y-89513571D01*
X85719285Y-89442142D01*
X85790714Y-89299285D01*
X85790714Y-89227857D01*
X85719285Y-89085000D01*
X85576428Y-89013571D01*
X85362142Y-89013571D01*
X85219285Y-89085000D01*
X84290714Y-90013571D02*
X84433571Y-89942142D01*
X84504999Y-89870714D01*
X84576428Y-89727857D01*
X84576428Y-89299285D01*
X84504999Y-89156428D01*
X84433571Y-89085000D01*
X84290714Y-89013571D01*
X84076428Y-89013571D01*
X83933571Y-89085000D01*
X83862142Y-89156428D01*
X83790714Y-89299285D01*
X83790714Y-89727857D01*
X83862142Y-89870714D01*
X83933571Y-89942142D01*
X84076428Y-90013571D01*
X84290714Y-90013571D01*
X83147857Y-89013571D02*
X83147857Y-90013571D01*
X83147857Y-89156428D02*
X83076428Y-89085000D01*
X82933571Y-89013571D01*
X82719285Y-89013571D01*
X82576428Y-89085000D01*
X82504999Y-89227857D01*
X82504999Y-90013571D01*
X102647857Y-92563571D02*
X102647857Y-91063571D01*
X102147857Y-92135000D01*
X101647857Y-91063571D01*
X101647857Y-92563571D01*
X100290714Y-92563571D02*
X100290714Y-91777857D01*
X100362142Y-91635000D01*
X100505000Y-91563571D01*
X100790714Y-91563571D01*
X100933571Y-91635000D01*
X100290714Y-92492142D02*
X100433571Y-92563571D01*
X100790714Y-92563571D01*
X100933571Y-92492142D01*
X101005000Y-92349285D01*
X101005000Y-92206428D01*
X100933571Y-92063571D01*
X100790714Y-91992142D01*
X100433571Y-91992142D01*
X100290714Y-91920714D01*
X99790714Y-91563571D02*
X99219285Y-91563571D01*
X99576428Y-91063571D02*
X99576428Y-92349285D01*
X99505000Y-92492142D01*
X99362142Y-92563571D01*
X99219285Y-92563571D01*
X98933571Y-91563571D02*
X98362142Y-91563571D01*
X98719285Y-91063571D02*
X98719285Y-92349285D01*
X98647857Y-92492142D01*
X98505000Y-92563571D01*
X98362142Y-92563571D01*
X96219285Y-91777857D02*
X96005000Y-91849285D01*
X95933571Y-91920714D01*
X95862142Y-92063571D01*
X95862142Y-92277857D01*
X95933571Y-92420714D01*
X96005000Y-92492142D01*
X96147857Y-92563571D01*
X96719285Y-92563571D01*
X96719285Y-91063571D01*
X96219285Y-91063571D01*
X96076428Y-91135000D01*
X96005000Y-91206428D01*
X95933571Y-91349285D01*
X95933571Y-91492142D01*
X96005000Y-91635000D01*
X96076428Y-91706428D01*
X96219285Y-91777857D01*
X96719285Y-91777857D01*
X95219285Y-92563571D02*
X95219285Y-91563571D01*
X95219285Y-91849285D02*
X95147857Y-91706428D01*
X95076428Y-91635000D01*
X94933571Y-91563571D01*
X94790714Y-91563571D01*
X94076428Y-92563571D02*
X94219285Y-92492142D01*
X94290714Y-92420714D01*
X94362142Y-92277857D01*
X94362142Y-91849285D01*
X94290714Y-91706428D01*
X94219285Y-91635000D01*
X94076428Y-91563571D01*
X93862142Y-91563571D01*
X93719285Y-91635000D01*
X93647857Y-91706428D01*
X93576428Y-91849285D01*
X93576428Y-92277857D01*
X93647857Y-92420714D01*
X93719285Y-92492142D01*
X93862142Y-92563571D01*
X94076428Y-92563571D01*
X92290714Y-92492142D02*
X92433571Y-92563571D01*
X92719285Y-92563571D01*
X92862142Y-92492142D01*
X92933571Y-92420714D01*
X93005000Y-92277857D01*
X93005000Y-91849285D01*
X92933571Y-91706428D01*
X92862142Y-91635000D01*
X92719285Y-91563571D01*
X92433571Y-91563571D01*
X92290714Y-91635000D01*
X91647857Y-92563571D02*
X91647857Y-91063571D01*
X91505000Y-91992142D02*
X91076428Y-92563571D01*
X91076428Y-91563571D02*
X91647857Y-92135000D01*
X90433571Y-92563571D02*
X90433571Y-91563571D01*
X90433571Y-91706428D02*
X90362142Y-91635000D01*
X90219285Y-91563571D01*
X90005000Y-91563571D01*
X89862142Y-91635000D01*
X89790714Y-91777857D01*
X89790714Y-92563571D01*
X89790714Y-91777857D02*
X89719285Y-91635000D01*
X89576428Y-91563571D01*
X89362142Y-91563571D01*
X89219285Y-91635000D01*
X89147857Y-91777857D01*
X89147857Y-92563571D01*
X87862142Y-92492142D02*
X88005000Y-92563571D01*
X88290714Y-92563571D01*
X88433571Y-92492142D01*
X88505000Y-92349285D01*
X88505000Y-91777857D01*
X88433571Y-91635000D01*
X88290714Y-91563571D01*
X88005000Y-91563571D01*
X87862142Y-91635000D01*
X87790714Y-91777857D01*
X87790714Y-91920714D01*
X88505000Y-92063571D01*
X87290714Y-91563571D02*
X86933571Y-92563571D01*
X86576428Y-91563571D02*
X86933571Y-92563571D01*
X87076428Y-92920714D01*
X87147857Y-92992142D01*
X87290714Y-93063571D01*
X85433571Y-92492142D02*
X85576428Y-92563571D01*
X85862142Y-92563571D01*
X86005000Y-92492142D01*
X86076428Y-92349285D01*
X86076428Y-91777857D01*
X86005000Y-91635000D01*
X85862142Y-91563571D01*
X85576428Y-91563571D01*
X85433571Y-91635000D01*
X85362142Y-91777857D01*
X85362142Y-91920714D01*
X86076428Y-92063571D01*
X84719285Y-92563571D02*
X84719285Y-91563571D01*
X84719285Y-91849285D02*
X84647857Y-91706428D01*
X84576428Y-91635000D01*
X84433571Y-91563571D01*
X84290714Y-91563571D01*
X101790714Y-95113571D02*
X102290714Y-94399285D01*
X102647857Y-95113571D02*
X102647857Y-93613571D01*
X102076428Y-93613571D01*
X101933571Y-93685000D01*
X101862142Y-93756428D01*
X101790714Y-93899285D01*
X101790714Y-94113571D01*
X101862142Y-94256428D01*
X101933571Y-94327857D01*
X102076428Y-94399285D01*
X102647857Y-94399285D01*
X101147857Y-95113571D02*
X101147857Y-94113571D01*
X101147857Y-93613571D02*
X101219285Y-93685000D01*
X101147857Y-93756428D01*
X101076428Y-93685000D01*
X101147857Y-93613571D01*
X101147857Y-93756428D01*
X100576428Y-94113571D02*
X100219285Y-95113571D01*
X99862142Y-94113571D02*
X100219285Y-95113571D01*
X100362142Y-95470714D01*
X100433571Y-95542142D01*
X100576428Y-95613571D01*
X98647857Y-95113571D02*
X98647857Y-94327857D01*
X98719285Y-94185000D01*
X98862142Y-94113571D01*
X99147857Y-94113571D01*
X99290714Y-94185000D01*
X98647857Y-95042142D02*
X98790714Y-95113571D01*
X99147857Y-95113571D01*
X99290714Y-95042142D01*
X99362142Y-94899285D01*
X99362142Y-94756428D01*
X99290714Y-94613571D01*
X99147857Y-94542142D01*
X98790714Y-94542142D01*
X98647857Y-94470714D01*
X96862142Y-95042142D02*
X96647857Y-95113571D01*
X96290714Y-95113571D01*
X96147857Y-95042142D01*
X96076428Y-94970714D01*
X96005000Y-94827857D01*
X96005000Y-94685000D01*
X96076428Y-94542142D01*
X96147857Y-94470714D01*
X96290714Y-94399285D01*
X96576428Y-94327857D01*
X96719285Y-94256428D01*
X96790714Y-94185000D01*
X96862142Y-94042142D01*
X96862142Y-93899285D01*
X96790714Y-93756428D01*
X96719285Y-93685000D01*
X96576428Y-93613571D01*
X96219285Y-93613571D01*
X96005000Y-93685000D01*
X94719285Y-95113571D02*
X94719285Y-94327857D01*
X94790714Y-94185000D01*
X94933571Y-94113571D01*
X95219285Y-94113571D01*
X95362142Y-94185000D01*
X94719285Y-95042142D02*
X94862142Y-95113571D01*
X95219285Y-95113571D01*
X95362142Y-95042142D01*
X95433571Y-94899285D01*
X95433571Y-94756428D01*
X95362142Y-94613571D01*
X95219285Y-94542142D01*
X94862142Y-94542142D01*
X94719285Y-94470714D01*
X94005000Y-95113571D02*
X94005000Y-94113571D01*
X94005000Y-94399285D02*
X93933571Y-94256428D01*
X93862142Y-94185000D01*
X93719285Y-94113571D01*
X93576428Y-94113571D01*
X92505000Y-95042142D02*
X92647857Y-95113571D01*
X92933571Y-95113571D01*
X93076428Y-95042142D01*
X93147857Y-94899285D01*
X93147857Y-94327857D01*
X93076428Y-94185000D01*
X92933571Y-94113571D01*
X92647857Y-94113571D01*
X92505000Y-94185000D01*
X92433571Y-94327857D01*
X92433571Y-94470714D01*
X93147857Y-94613571D01*
X91219285Y-95042142D02*
X91362142Y-95113571D01*
X91647857Y-95113571D01*
X91790714Y-95042142D01*
X91862142Y-94899285D01*
X91862142Y-94327857D01*
X91790714Y-94185000D01*
X91647857Y-94113571D01*
X91362142Y-94113571D01*
X91219285Y-94185000D01*
X91147857Y-94327857D01*
X91147857Y-94470714D01*
X91862142Y-94613571D01*
X90505000Y-94113571D02*
X90505000Y-95113571D01*
X90505000Y-94256428D02*
X90433571Y-94185000D01*
X90290714Y-94113571D01*
X90076428Y-94113571D01*
X89933571Y-94185000D01*
X89862142Y-94327857D01*
X89862142Y-95113571D01*
X102719285Y-97592142D02*
X102505000Y-97663571D01*
X102147857Y-97663571D01*
X102005000Y-97592142D01*
X101933571Y-97520714D01*
X101862142Y-97377857D01*
X101862142Y-97235000D01*
X101933571Y-97092142D01*
X102005000Y-97020714D01*
X102147857Y-96949285D01*
X102433571Y-96877857D01*
X102576428Y-96806428D01*
X102647857Y-96735000D01*
X102719285Y-96592142D01*
X102719285Y-96449285D01*
X102647857Y-96306428D01*
X102576428Y-96235000D01*
X102433571Y-96163571D01*
X102076428Y-96163571D01*
X101862142Y-96235000D01*
X101219285Y-96663571D02*
X101219285Y-98163571D01*
X101219285Y-96735000D02*
X101076428Y-96663571D01*
X100790714Y-96663571D01*
X100647857Y-96735000D01*
X100576428Y-96806428D01*
X100505000Y-96949285D01*
X100505000Y-97377857D01*
X100576428Y-97520714D01*
X100647857Y-97592142D01*
X100790714Y-97663571D01*
X101076428Y-97663571D01*
X101219285Y-97592142D01*
X99290714Y-97592142D02*
X99433571Y-97663571D01*
X99719285Y-97663571D01*
X99862142Y-97592142D01*
X99933571Y-97449285D01*
X99933571Y-96877857D01*
X99862142Y-96735000D01*
X99719285Y-96663571D01*
X99433571Y-96663571D01*
X99290714Y-96735000D01*
X99219285Y-96877857D01*
X99219285Y-97020714D01*
X99933571Y-97163571D01*
X98576428Y-96663571D02*
X98576428Y-97663571D01*
X98576428Y-96806428D02*
X98505000Y-96735000D01*
X98362142Y-96663571D01*
X98147857Y-96663571D01*
X98005000Y-96735000D01*
X97933571Y-96877857D01*
X97933571Y-97663571D01*
X96576428Y-97592142D02*
X96719285Y-97663571D01*
X97005000Y-97663571D01*
X97147857Y-97592142D01*
X97219285Y-97520714D01*
X97290714Y-97377857D01*
X97290714Y-96949285D01*
X97219285Y-96806428D01*
X97147857Y-96735000D01*
X97005000Y-96663571D01*
X96719285Y-96663571D01*
X96576428Y-96735000D01*
X95362142Y-97592142D02*
X95505000Y-97663571D01*
X95790714Y-97663571D01*
X95933571Y-97592142D01*
X96005000Y-97449285D01*
X96005000Y-96877857D01*
X95933571Y-96735000D01*
X95790714Y-96663571D01*
X95505000Y-96663571D01*
X95362142Y-96735000D01*
X95290714Y-96877857D01*
X95290714Y-97020714D01*
X96005000Y-97163571D01*
X94647857Y-97663571D02*
X94647857Y-96663571D01*
X94647857Y-96949285D02*
X94576428Y-96806428D01*
X94505000Y-96735000D01*
X94362142Y-96663571D01*
X94219285Y-96663571D01*
X92076428Y-96877857D02*
X91862142Y-96949285D01*
X91790714Y-97020714D01*
X91719285Y-97163571D01*
X91719285Y-97377857D01*
X91790714Y-97520714D01*
X91862142Y-97592142D01*
X92005000Y-97663571D01*
X92576428Y-97663571D01*
X92576428Y-96163571D01*
X92076428Y-96163571D01*
X91933571Y-96235000D01*
X91862142Y-96306428D01*
X91790714Y-96449285D01*
X91790714Y-96592142D01*
X91862142Y-96735000D01*
X91933571Y-96806428D01*
X92076428Y-96877857D01*
X92576428Y-96877857D01*
X90433571Y-96663571D02*
X90433571Y-97663571D01*
X91076428Y-96663571D02*
X91076428Y-97449285D01*
X91005000Y-97592142D01*
X90862142Y-97663571D01*
X90647857Y-97663571D01*
X90505000Y-97592142D01*
X90433571Y-97520714D01*
X89147857Y-97592142D02*
X89290714Y-97663571D01*
X89576428Y-97663571D01*
X89719285Y-97592142D01*
X89790714Y-97449285D01*
X89790714Y-96877857D01*
X89719285Y-96735000D01*
X89576428Y-96663571D01*
X89290714Y-96663571D01*
X89147857Y-96735000D01*
X89076428Y-96877857D01*
X89076428Y-97020714D01*
X89790714Y-97163571D01*
X88433571Y-97663571D02*
X88433571Y-96163571D01*
X88433571Y-96735000D02*
X88290714Y-96663571D01*
X88005000Y-96663571D01*
X87862142Y-96735000D01*
X87790714Y-96806428D01*
X87719285Y-96949285D01*
X87719285Y-97377857D01*
X87790714Y-97520714D01*
X87862142Y-97592142D01*
X88005000Y-97663571D01*
X88290714Y-97663571D01*
X88433571Y-97592142D01*
X86505000Y-97592142D02*
X86647857Y-97663571D01*
X86933571Y-97663571D01*
X87076428Y-97592142D01*
X87147857Y-97449285D01*
X87147857Y-96877857D01*
X87076428Y-96735000D01*
X86933571Y-96663571D01*
X86647857Y-96663571D01*
X86505000Y-96735000D01*
X86433571Y-96877857D01*
X86433571Y-97020714D01*
X87147857Y-97163571D01*
X85576428Y-97663571D02*
X85719285Y-97592142D01*
X85790714Y-97449285D01*
X85790714Y-96163571D01*
X102719285Y-100142142D02*
X102505000Y-100213571D01*
X102147857Y-100213571D01*
X102005000Y-100142142D01*
X101933571Y-100070714D01*
X101862142Y-99927857D01*
X101862142Y-99785000D01*
X101933571Y-99642142D01*
X102005000Y-99570714D01*
X102147857Y-99499285D01*
X102433571Y-99427857D01*
X102576428Y-99356428D01*
X102647857Y-99285000D01*
X102719285Y-99142142D01*
X102719285Y-98999285D01*
X102647857Y-98856428D01*
X102576428Y-98785000D01*
X102433571Y-98713571D01*
X102076428Y-98713571D01*
X101862142Y-98785000D01*
X100576428Y-99213571D02*
X100576428Y-100213571D01*
X101219285Y-99213571D02*
X101219285Y-99999285D01*
X101147857Y-100142142D01*
X101005000Y-100213571D01*
X100790714Y-100213571D01*
X100647857Y-100142142D01*
X100576428Y-100070714D01*
X99862142Y-100213571D02*
X99862142Y-99213571D01*
X99862142Y-99499285D02*
X99790714Y-99356428D01*
X99719285Y-99285000D01*
X99576428Y-99213571D01*
X99433571Y-99213571D01*
X98290714Y-100213571D02*
X98290714Y-99427857D01*
X98362142Y-99285000D01*
X98505000Y-99213571D01*
X98790714Y-99213571D01*
X98933571Y-99285000D01*
X98290714Y-100142142D02*
X98433571Y-100213571D01*
X98790714Y-100213571D01*
X98933571Y-100142142D01*
X99005000Y-99999285D01*
X99005000Y-99856428D01*
X98933571Y-99713571D01*
X98790714Y-99642142D01*
X98433571Y-99642142D01*
X98290714Y-99570714D01*
X97576428Y-100213571D02*
X97576428Y-98713571D01*
X97576428Y-99285000D02*
X97433571Y-99213571D01*
X97147857Y-99213571D01*
X97005000Y-99285000D01*
X96933571Y-99356428D01*
X96862142Y-99499285D01*
X96862142Y-99927857D01*
X96933571Y-100070714D01*
X97005000Y-100142142D01*
X97147857Y-100213571D01*
X97433571Y-100213571D01*
X97576428Y-100142142D01*
X96219285Y-100213571D02*
X96219285Y-98713571D01*
X95576428Y-100213571D02*
X95576428Y-99427857D01*
X95647857Y-99285000D01*
X95790714Y-99213571D01*
X96005000Y-99213571D01*
X96147857Y-99285000D01*
X96219285Y-99356428D01*
X94862142Y-100213571D02*
X94862142Y-99213571D01*
X94862142Y-98713571D02*
X94933571Y-98785000D01*
X94862142Y-98856428D01*
X94790714Y-98785000D01*
X94862142Y-98713571D01*
X94862142Y-98856428D01*
X93076428Y-100142142D02*
X92862142Y-100213571D01*
X92505000Y-100213571D01*
X92362142Y-100142142D01*
X92290714Y-100070714D01*
X92219285Y-99927857D01*
X92219285Y-99785000D01*
X92290714Y-99642142D01*
X92362142Y-99570714D01*
X92505000Y-99499285D01*
X92790714Y-99427857D01*
X92933571Y-99356428D01*
X93005000Y-99285000D01*
X93076428Y-99142142D01*
X93076428Y-98999285D01*
X93005000Y-98856428D01*
X92933571Y-98785000D01*
X92790714Y-98713571D01*
X92433571Y-98713571D01*
X92219285Y-98785000D01*
X91576428Y-100213571D02*
X91576428Y-99213571D01*
X91576428Y-99499285D02*
X91505000Y-99356428D01*
X91433571Y-99285000D01*
X91290714Y-99213571D01*
X91147857Y-99213571D01*
X90647857Y-100213571D02*
X90647857Y-99213571D01*
X90647857Y-98713571D02*
X90719285Y-98785000D01*
X90647857Y-98856428D01*
X90576428Y-98785000D01*
X90647857Y-98713571D01*
X90647857Y-98856428D01*
X90076428Y-99213571D02*
X89719285Y-100213571D01*
X89362142Y-99213571D01*
X88147857Y-100213571D02*
X88147857Y-99427857D01*
X88219285Y-99285000D01*
X88362142Y-99213571D01*
X88647857Y-99213571D01*
X88790714Y-99285000D01*
X88147857Y-100142142D02*
X88290714Y-100213571D01*
X88647857Y-100213571D01*
X88790714Y-100142142D01*
X88862142Y-99999285D01*
X88862142Y-99856428D01*
X88790714Y-99713571D01*
X88647857Y-99642142D01*
X88290714Y-99642142D01*
X88147857Y-99570714D01*
X87505000Y-100142142D02*
X87362142Y-100213571D01*
X87076428Y-100213571D01*
X86933571Y-100142142D01*
X86862142Y-99999285D01*
X86862142Y-99927857D01*
X86933571Y-99785000D01*
X87076428Y-99713571D01*
X87290714Y-99713571D01*
X87433571Y-99642142D01*
X87505000Y-99499285D01*
X87505000Y-99427857D01*
X87433571Y-99285000D01*
X87290714Y-99213571D01*
X87076428Y-99213571D01*
X86933571Y-99285000D01*
X86433571Y-99213571D02*
X85862142Y-99213571D01*
X86219285Y-98713571D02*
X86219285Y-99999285D01*
X86147857Y-100142142D01*
X86005000Y-100213571D01*
X85862142Y-100213571D01*
X84719285Y-100213571D02*
X84719285Y-99427857D01*
X84790714Y-99285000D01*
X84933571Y-99213571D01*
X85219285Y-99213571D01*
X85362142Y-99285000D01*
X84719285Y-100142142D02*
X84862142Y-100213571D01*
X85219285Y-100213571D01*
X85362142Y-100142142D01*
X85433571Y-99999285D01*
X85433571Y-99856428D01*
X85362142Y-99713571D01*
X85219285Y-99642142D01*
X84862142Y-99642142D01*
X84719285Y-99570714D01*
X84147857Y-99213571D02*
X83790714Y-100213571D01*
X83433571Y-99213571D01*
X82219285Y-100213571D02*
X82219285Y-99427857D01*
X82290714Y-99285000D01*
X82433571Y-99213571D01*
X82719285Y-99213571D01*
X82862142Y-99285000D01*
X82219285Y-100142142D02*
X82362142Y-100213571D01*
X82719285Y-100213571D01*
X82862142Y-100142142D01*
X82933571Y-99999285D01*
X82933571Y-99856428D01*
X82862142Y-99713571D01*
X82719285Y-99642142D01*
X82362142Y-99642142D01*
X82219285Y-99570714D01*
X98847857Y-73187857D02*
X99347857Y-73187857D01*
X99347857Y-73973571D02*
X99347857Y-72473571D01*
X98633571Y-72473571D01*
X97419285Y-73973571D02*
X97419285Y-73187857D01*
X97490714Y-73045000D01*
X97633571Y-72973571D01*
X97919285Y-72973571D01*
X98062142Y-73045000D01*
X97419285Y-73902142D02*
X97562142Y-73973571D01*
X97919285Y-73973571D01*
X98062142Y-73902142D01*
X98133571Y-73759285D01*
X98133571Y-73616428D01*
X98062142Y-73473571D01*
X97919285Y-73402142D01*
X97562142Y-73402142D01*
X97419285Y-73330714D01*
X96705000Y-73973571D02*
X96705000Y-72973571D01*
X96705000Y-73259285D02*
X96633571Y-73116428D01*
X96562142Y-73045000D01*
X96419285Y-72973571D01*
X96276428Y-72973571D01*
X95776428Y-73973571D02*
X95776428Y-72973571D01*
X95776428Y-72473571D02*
X95847857Y-72545000D01*
X95776428Y-72616428D01*
X95705000Y-72545000D01*
X95776428Y-72473571D01*
X95776428Y-72616428D01*
X94419285Y-73973571D02*
X94419285Y-72473571D01*
X94419285Y-73902142D02*
X94562142Y-73973571D01*
X94847857Y-73973571D01*
X94990714Y-73902142D01*
X95062142Y-73830714D01*
X95133571Y-73687857D01*
X95133571Y-73259285D01*
X95062142Y-73116428D01*
X94990714Y-73045000D01*
X94847857Y-72973571D01*
X94562142Y-72973571D01*
X94419285Y-73045000D01*
X92062142Y-73187857D02*
X91847857Y-73259285D01*
X91776428Y-73330714D01*
X91705000Y-73473571D01*
X91705000Y-73687857D01*
X91776428Y-73830714D01*
X91847857Y-73902142D01*
X91990714Y-73973571D01*
X92562142Y-73973571D01*
X92562142Y-72473571D01*
X92062142Y-72473571D01*
X91919285Y-72545000D01*
X91847857Y-72616428D01*
X91776428Y-72759285D01*
X91776428Y-72902142D01*
X91847857Y-73045000D01*
X91919285Y-73116428D01*
X92062142Y-73187857D01*
X92562142Y-73187857D01*
X90419285Y-73973571D02*
X90419285Y-73187857D01*
X90490714Y-73045000D01*
X90633571Y-72973571D01*
X90919285Y-72973571D01*
X91062142Y-73045000D01*
X90419285Y-73902142D02*
X90562142Y-73973571D01*
X90919285Y-73973571D01*
X91062142Y-73902142D01*
X91133571Y-73759285D01*
X91133571Y-73616428D01*
X91062142Y-73473571D01*
X90919285Y-73402142D01*
X90562142Y-73402142D01*
X90419285Y-73330714D01*
X89847857Y-72973571D02*
X89062142Y-72973571D01*
X89847857Y-73973571D01*
X89062142Y-73973571D01*
X88633571Y-72973571D02*
X87847857Y-72973571D01*
X88633571Y-73973571D01*
X87847857Y-73973571D01*
X86633571Y-73973571D02*
X86633571Y-73187857D01*
X86705000Y-73045000D01*
X86847857Y-72973571D01*
X87133571Y-72973571D01*
X87276428Y-73045000D01*
X86633571Y-73902142D02*
X86776428Y-73973571D01*
X87133571Y-73973571D01*
X87276428Y-73902142D01*
X87347857Y-73759285D01*
X87347857Y-73616428D01*
X87276428Y-73473571D01*
X87133571Y-73402142D01*
X86776428Y-73402142D01*
X86633571Y-73330714D01*
X85705000Y-73973571D02*
X85847857Y-73902142D01*
X85919285Y-73759285D01*
X85919285Y-72473571D01*
X98490714Y-76380714D02*
X98562142Y-76452142D01*
X98776428Y-76523571D01*
X98919285Y-76523571D01*
X99133571Y-76452142D01*
X99276428Y-76309285D01*
X99347857Y-76166428D01*
X99419285Y-75880714D01*
X99419285Y-75666428D01*
X99347857Y-75380714D01*
X99276428Y-75237857D01*
X99133571Y-75095000D01*
X98919285Y-75023571D01*
X98776428Y-75023571D01*
X98562142Y-75095000D01*
X98490714Y-75166428D01*
X97847857Y-76523571D02*
X97847857Y-75023571D01*
X97205000Y-76523571D02*
X97205000Y-75737857D01*
X97276428Y-75595000D01*
X97419285Y-75523571D01*
X97633571Y-75523571D01*
X97776428Y-75595000D01*
X97847857Y-75666428D01*
X96490714Y-76523571D02*
X96490714Y-75523571D01*
X96490714Y-75809285D02*
X96419285Y-75666428D01*
X96347857Y-75595000D01*
X96205000Y-75523571D01*
X96062142Y-75523571D01*
X95562142Y-76523571D02*
X95562142Y-75523571D01*
X95562142Y-75023571D02*
X95633571Y-75095000D01*
X95562142Y-75166428D01*
X95490714Y-75095000D01*
X95562142Y-75023571D01*
X95562142Y-75166428D01*
X94919285Y-76452142D02*
X94776428Y-76523571D01*
X94490714Y-76523571D01*
X94347857Y-76452142D01*
X94276428Y-76309285D01*
X94276428Y-76237857D01*
X94347857Y-76095000D01*
X94490714Y-76023571D01*
X94705000Y-76023571D01*
X94847857Y-75952142D01*
X94919285Y-75809285D01*
X94919285Y-75737857D01*
X94847857Y-75595000D01*
X94705000Y-75523571D01*
X94490714Y-75523571D01*
X94347857Y-75595000D01*
X92490714Y-76523571D02*
X92490714Y-75023571D01*
X91990714Y-76095000D01*
X91490714Y-75023571D01*
X91490714Y-76523571D01*
X90133571Y-76523571D02*
X90133571Y-75737857D01*
X90205000Y-75595000D01*
X90347857Y-75523571D01*
X90633571Y-75523571D01*
X90776428Y-75595000D01*
X90133571Y-76452142D02*
X90276428Y-76523571D01*
X90633571Y-76523571D01*
X90776428Y-76452142D01*
X90847857Y-76309285D01*
X90847857Y-76166428D01*
X90776428Y-76023571D01*
X90633571Y-75952142D01*
X90276428Y-75952142D01*
X90133571Y-75880714D01*
X89633571Y-75523571D02*
X89062142Y-75523571D01*
X89419285Y-75023571D02*
X89419285Y-76309285D01*
X89347857Y-76452142D01*
X89205000Y-76523571D01*
X89062142Y-76523571D01*
X88776428Y-75523571D02*
X88205000Y-75523571D01*
X88562142Y-75023571D02*
X88562142Y-76309285D01*
X88490714Y-76452142D01*
X88347857Y-76523571D01*
X88205000Y-76523571D01*
X87776428Y-76452142D02*
X87633571Y-76523571D01*
X87347857Y-76523571D01*
X87205000Y-76452142D01*
X87133571Y-76309285D01*
X87133571Y-76237857D01*
X87205000Y-76095000D01*
X87347857Y-76023571D01*
X87562142Y-76023571D01*
X87705000Y-75952142D01*
X87776428Y-75809285D01*
X87776428Y-75737857D01*
X87705000Y-75595000D01*
X87562142Y-75523571D01*
X87347857Y-75523571D01*
X87205000Y-75595000D01*
X86276428Y-76523571D02*
X86419285Y-76452142D01*
X86490714Y-76380714D01*
X86562142Y-76237857D01*
X86562142Y-75809285D01*
X86490714Y-75666428D01*
X86419285Y-75595000D01*
X86276428Y-75523571D01*
X86062142Y-75523571D01*
X85919285Y-75595000D01*
X85847857Y-75666428D01*
X85776428Y-75809285D01*
X85776428Y-76237857D01*
X85847857Y-76380714D01*
X85919285Y-76452142D01*
X86062142Y-76523571D01*
X86276428Y-76523571D01*
X85133571Y-75523571D02*
X85133571Y-76523571D01*
X85133571Y-75666428D02*
X85062142Y-75595000D01*
X84919285Y-75523571D01*
X84705000Y-75523571D01*
X84562142Y-75595000D01*
X84490714Y-75737857D01*
X84490714Y-76523571D01*
X99347857Y-78287857D02*
X98847857Y-78287857D01*
X98633571Y-79073571D02*
X99347857Y-79073571D01*
X99347857Y-77573571D01*
X98633571Y-77573571D01*
X97990714Y-79073571D02*
X97990714Y-78073571D01*
X97990714Y-78359285D02*
X97919285Y-78216428D01*
X97847857Y-78145000D01*
X97705000Y-78073571D01*
X97562142Y-78073571D01*
X97062142Y-79073571D02*
X97062142Y-78073571D01*
X97062142Y-77573571D02*
X97133571Y-77645000D01*
X97062142Y-77716428D01*
X96990714Y-77645000D01*
X97062142Y-77573571D01*
X97062142Y-77716428D01*
X95705000Y-79002142D02*
X95847857Y-79073571D01*
X96133571Y-79073571D01*
X96276428Y-79002142D01*
X96347857Y-78930714D01*
X96419285Y-78787857D01*
X96419285Y-78359285D01*
X96347857Y-78216428D01*
X96276428Y-78145000D01*
X96133571Y-78073571D01*
X95847857Y-78073571D01*
X95705000Y-78145000D01*
X94062142Y-77573571D02*
X93705000Y-79073571D01*
X93419285Y-78002142D01*
X93133571Y-79073571D01*
X92776428Y-77573571D01*
X92205000Y-79073571D02*
X92205000Y-78073571D01*
X92205000Y-77573571D02*
X92276428Y-77645000D01*
X92205000Y-77716428D01*
X92133571Y-77645000D01*
X92205000Y-77573571D01*
X92205000Y-77716428D01*
X91276428Y-79073571D02*
X91419285Y-79002142D01*
X91490714Y-78859285D01*
X91490714Y-77573571D01*
X90490714Y-79073571D02*
X90633571Y-79002142D01*
X90705000Y-78859285D01*
X90705000Y-77573571D01*
X89919285Y-79073571D02*
X89919285Y-78073571D01*
X89919285Y-77573571D02*
X89990714Y-77645000D01*
X89919285Y-77716428D01*
X89847857Y-77645000D01*
X89919285Y-77573571D01*
X89919285Y-77716428D01*
X88562142Y-79073571D02*
X88562142Y-78287857D01*
X88633571Y-78145000D01*
X88776428Y-78073571D01*
X89062142Y-78073571D01*
X89205000Y-78145000D01*
X88562142Y-79002142D02*
X88705000Y-79073571D01*
X89062142Y-79073571D01*
X89205000Y-79002142D01*
X89276428Y-78859285D01*
X89276428Y-78716428D01*
X89205000Y-78573571D01*
X89062142Y-78502142D01*
X88705000Y-78502142D01*
X88562142Y-78430714D01*
X87847857Y-79073571D02*
X87847857Y-78073571D01*
X87847857Y-78216428D02*
X87776428Y-78145000D01*
X87633571Y-78073571D01*
X87419285Y-78073571D01*
X87276428Y-78145000D01*
X87205000Y-78287857D01*
X87205000Y-79073571D01*
X87205000Y-78287857D02*
X87133571Y-78145000D01*
X86990714Y-78073571D01*
X86776428Y-78073571D01*
X86633571Y-78145000D01*
X86562142Y-78287857D01*
X86562142Y-79073571D01*
X85919285Y-79002142D02*
X85776428Y-79073571D01*
X85490714Y-79073571D01*
X85347857Y-79002142D01*
X85276428Y-78859285D01*
X85276428Y-78787857D01*
X85347857Y-78645000D01*
X85490714Y-78573571D01*
X85705000Y-78573571D01*
X85847857Y-78502142D01*
X85919285Y-78359285D01*
X85919285Y-78287857D01*
X85847857Y-78145000D01*
X85705000Y-78073571D01*
X85490714Y-78073571D01*
X85347857Y-78145000D01*
X99347857Y-81623571D02*
X99347857Y-80123571D01*
X99347857Y-80837857D02*
X98490714Y-80837857D01*
X98490714Y-81623571D02*
X98490714Y-80123571D01*
X97133571Y-80623571D02*
X97133571Y-81623571D01*
X97776428Y-80623571D02*
X97776428Y-81409285D01*
X97705000Y-81552142D01*
X97562142Y-81623571D01*
X97347857Y-81623571D01*
X97205000Y-81552142D01*
X97133571Y-81480714D01*
X96419285Y-80623571D02*
X96419285Y-81623571D01*
X96419285Y-80766428D02*
X96347857Y-80695000D01*
X96205000Y-80623571D01*
X95990714Y-80623571D01*
X95847857Y-80695000D01*
X95776428Y-80837857D01*
X95776428Y-81623571D01*
X94419285Y-81623571D02*
X94419285Y-80837857D01*
X94490714Y-80695000D01*
X94633571Y-80623571D01*
X94919285Y-80623571D01*
X95062142Y-80695000D01*
X94419285Y-81552142D02*
X94562142Y-81623571D01*
X94919285Y-81623571D01*
X95062142Y-81552142D01*
X95133571Y-81409285D01*
X95133571Y-81266428D01*
X95062142Y-81123571D01*
X94919285Y-81052142D01*
X94562142Y-81052142D01*
X94419285Y-80980714D01*
X93705000Y-81623571D02*
X93705000Y-80623571D01*
X93705000Y-80123571D02*
X93776428Y-80195000D01*
X93705000Y-80266428D01*
X93633571Y-80195000D01*
X93705000Y-80123571D01*
X93705000Y-80266428D01*
X92990714Y-80623571D02*
X92990714Y-81623571D01*
X92990714Y-80766428D02*
X92919285Y-80695000D01*
X92776428Y-80623571D01*
X92562142Y-80623571D01*
X92419285Y-80695000D01*
X92347857Y-80837857D01*
X92347857Y-81623571D01*
X90562142Y-81552142D02*
X90347857Y-81623571D01*
X89990714Y-81623571D01*
X89847857Y-81552142D01*
X89776428Y-81480714D01*
X89705000Y-81337857D01*
X89705000Y-81195000D01*
X89776428Y-81052142D01*
X89847857Y-80980714D01*
X89990714Y-80909285D01*
X90276428Y-80837857D01*
X90419285Y-80766428D01*
X90490714Y-80695000D01*
X90562142Y-80552142D01*
X90562142Y-80409285D01*
X90490714Y-80266428D01*
X90419285Y-80195000D01*
X90276428Y-80123571D01*
X89919285Y-80123571D01*
X89705000Y-80195000D01*
X89062142Y-81623571D02*
X89062142Y-80123571D01*
X88419285Y-81623571D02*
X88419285Y-80837857D01*
X88490714Y-80695000D01*
X88633571Y-80623571D01*
X88847857Y-80623571D01*
X88990714Y-80695000D01*
X89062142Y-80766428D01*
X87062142Y-81623571D02*
X87062142Y-80837857D01*
X87133571Y-80695000D01*
X87276428Y-80623571D01*
X87562142Y-80623571D01*
X87705000Y-80695000D01*
X87062142Y-81552142D02*
X87205000Y-81623571D01*
X87562142Y-81623571D01*
X87705000Y-81552142D01*
X87776428Y-81409285D01*
X87776428Y-81266428D01*
X87705000Y-81123571D01*
X87562142Y-81052142D01*
X87205000Y-81052142D01*
X87062142Y-80980714D01*
X86347857Y-81623571D02*
X86347857Y-80623571D01*
X86347857Y-80766428D02*
X86276428Y-80695000D01*
X86133571Y-80623571D01*
X85919285Y-80623571D01*
X85776428Y-80695000D01*
X85705000Y-80837857D01*
X85705000Y-81623571D01*
X85705000Y-80837857D02*
X85633571Y-80695000D01*
X85490714Y-80623571D01*
X85276428Y-80623571D01*
X85133571Y-80695000D01*
X85062142Y-80837857D01*
X85062142Y-81623571D01*
X84419285Y-81552142D02*
X84276428Y-81623571D01*
X83990714Y-81623571D01*
X83847857Y-81552142D01*
X83776428Y-81409285D01*
X83776428Y-81337857D01*
X83847857Y-81195000D01*
X83990714Y-81123571D01*
X84205000Y-81123571D01*
X84347857Y-81052142D01*
X84419285Y-80909285D01*
X84419285Y-80837857D01*
X84347857Y-80695000D01*
X84205000Y-80623571D01*
X83990714Y-80623571D01*
X83847857Y-80695000D01*
X83133571Y-81623571D02*
X83133571Y-80623571D01*
X83133571Y-80123571D02*
X83205000Y-80195000D01*
X83133571Y-80266428D01*
X83062142Y-80195000D01*
X83133571Y-80123571D01*
X83133571Y-80266428D01*
X100347857Y-58233571D02*
X100347857Y-56733571D01*
X99490714Y-58233571D02*
X100133571Y-57376428D01*
X99490714Y-56733571D02*
X100347857Y-57590714D01*
X98847857Y-58233571D02*
X98847857Y-57233571D01*
X98847857Y-57519285D02*
X98776428Y-57376428D01*
X98705000Y-57305000D01*
X98562142Y-57233571D01*
X98419285Y-57233571D01*
X97919285Y-58233571D02*
X97919285Y-57233571D01*
X97919285Y-56733571D02*
X97990714Y-56805000D01*
X97919285Y-56876428D01*
X97847857Y-56805000D01*
X97919285Y-56733571D01*
X97919285Y-56876428D01*
X97276428Y-58162142D02*
X97133571Y-58233571D01*
X96847857Y-58233571D01*
X96705000Y-58162142D01*
X96633571Y-58019285D01*
X96633571Y-57947857D01*
X96705000Y-57805000D01*
X96847857Y-57733571D01*
X97062142Y-57733571D01*
X97205000Y-57662142D01*
X97276428Y-57519285D01*
X97276428Y-57447857D01*
X97205000Y-57305000D01*
X97062142Y-57233571D01*
X96847857Y-57233571D01*
X96705000Y-57305000D01*
X96205000Y-57233571D02*
X95633571Y-57233571D01*
X95990714Y-56733571D02*
X95990714Y-58019285D01*
X95919285Y-58162142D01*
X95776428Y-58233571D01*
X95633571Y-58233571D01*
X94919285Y-58233571D02*
X95062142Y-58162142D01*
X95133571Y-58090714D01*
X95205000Y-57947857D01*
X95205000Y-57519285D01*
X95133571Y-57376428D01*
X95062142Y-57305000D01*
X94919285Y-57233571D01*
X94705000Y-57233571D01*
X94562142Y-57305000D01*
X94490714Y-57376428D01*
X94419285Y-57519285D01*
X94419285Y-57947857D01*
X94490714Y-58090714D01*
X94562142Y-58162142D01*
X94705000Y-58233571D01*
X94919285Y-58233571D01*
X93990714Y-57233571D02*
X93419285Y-57233571D01*
X93776428Y-58233571D02*
X93776428Y-56947857D01*
X93705000Y-56805000D01*
X93562142Y-56733571D01*
X93419285Y-56733571D01*
X92347857Y-58162142D02*
X92490714Y-58233571D01*
X92776428Y-58233571D01*
X92919285Y-58162142D01*
X92990714Y-58019285D01*
X92990714Y-57447857D01*
X92919285Y-57305000D01*
X92776428Y-57233571D01*
X92490714Y-57233571D01*
X92347857Y-57305000D01*
X92276428Y-57447857D01*
X92276428Y-57590714D01*
X92990714Y-57733571D01*
X91633571Y-58233571D02*
X91633571Y-57233571D01*
X91633571Y-57519285D02*
X91562142Y-57376428D01*
X91490714Y-57305000D01*
X91347857Y-57233571D01*
X91205000Y-57233571D01*
X89633571Y-58162142D02*
X89419285Y-58233571D01*
X89062142Y-58233571D01*
X88919285Y-58162142D01*
X88847857Y-58090714D01*
X88776428Y-57947857D01*
X88776428Y-57805000D01*
X88847857Y-57662142D01*
X88919285Y-57590714D01*
X89062142Y-57519285D01*
X89347857Y-57447857D01*
X89490714Y-57376428D01*
X89562142Y-57305000D01*
X89633571Y-57162142D01*
X89633571Y-57019285D01*
X89562142Y-56876428D01*
X89490714Y-56805000D01*
X89347857Y-56733571D01*
X88990714Y-56733571D01*
X88776428Y-56805000D01*
X88347857Y-57233571D02*
X87776428Y-57233571D01*
X88133571Y-56733571D02*
X88133571Y-58019285D01*
X88062142Y-58162142D01*
X87919285Y-58233571D01*
X87776428Y-58233571D01*
X87062142Y-58233571D02*
X87205000Y-58162142D01*
X87276428Y-58090714D01*
X87347857Y-57947857D01*
X87347857Y-57519285D01*
X87276428Y-57376428D01*
X87205000Y-57305000D01*
X87062142Y-57233571D01*
X86847857Y-57233571D01*
X86705000Y-57305000D01*
X86633571Y-57376428D01*
X86562142Y-57519285D01*
X86562142Y-57947857D01*
X86633571Y-58090714D01*
X86705000Y-58162142D01*
X86847857Y-58233571D01*
X87062142Y-58233571D01*
X85919285Y-57233571D02*
X85919285Y-58233571D01*
X85919285Y-57376428D02*
X85847857Y-57305000D01*
X85705000Y-57233571D01*
X85490714Y-57233571D01*
X85347857Y-57305000D01*
X85276428Y-57447857D01*
X85276428Y-58233571D01*
X83990714Y-58162142D02*
X84133571Y-58233571D01*
X84419285Y-58233571D01*
X84562142Y-58162142D01*
X84633571Y-58019285D01*
X84633571Y-57447857D01*
X84562142Y-57305000D01*
X84419285Y-57233571D01*
X84133571Y-57233571D01*
X83990714Y-57305000D01*
X83919285Y-57447857D01*
X83919285Y-57590714D01*
X84633571Y-57733571D01*
X100347857Y-60783571D02*
X100347857Y-59283571D01*
X99490714Y-60783571D01*
X99490714Y-59283571D01*
X98776428Y-60783571D02*
X98776428Y-59783571D01*
X98776428Y-59283571D02*
X98847857Y-59355000D01*
X98776428Y-59426428D01*
X98705000Y-59355000D01*
X98776428Y-59283571D01*
X98776428Y-59426428D01*
X97419285Y-60712142D02*
X97562142Y-60783571D01*
X97847857Y-60783571D01*
X97990714Y-60712142D01*
X98062142Y-60640714D01*
X98133571Y-60497857D01*
X98133571Y-60069285D01*
X98062142Y-59926428D01*
X97990714Y-59855000D01*
X97847857Y-59783571D01*
X97562142Y-59783571D01*
X97419285Y-59855000D01*
X96776428Y-60783571D02*
X96776428Y-59283571D01*
X96133571Y-60783571D02*
X96133571Y-59997857D01*
X96205000Y-59855000D01*
X96347857Y-59783571D01*
X96562142Y-59783571D01*
X96705000Y-59855000D01*
X96776428Y-59926428D01*
X95205000Y-60783571D02*
X95347857Y-60712142D01*
X95419285Y-60640714D01*
X95490714Y-60497857D01*
X95490714Y-60069285D01*
X95419285Y-59926428D01*
X95347857Y-59855000D01*
X95205000Y-59783571D01*
X94990714Y-59783571D01*
X94847857Y-59855000D01*
X94776428Y-59926428D01*
X94705000Y-60069285D01*
X94705000Y-60497857D01*
X94776428Y-60640714D01*
X94847857Y-60712142D01*
X94990714Y-60783571D01*
X95205000Y-60783571D01*
X93847857Y-60783571D02*
X93990714Y-60712142D01*
X94062142Y-60569285D01*
X94062142Y-59283571D01*
X92633571Y-60783571D02*
X92633571Y-59997857D01*
X92705000Y-59855000D01*
X92847857Y-59783571D01*
X93133571Y-59783571D01*
X93276428Y-59855000D01*
X92633571Y-60712142D02*
X92776428Y-60783571D01*
X93133571Y-60783571D01*
X93276428Y-60712142D01*
X93347857Y-60569285D01*
X93347857Y-60426428D01*
X93276428Y-60283571D01*
X93133571Y-60212142D01*
X92776428Y-60212142D01*
X92633571Y-60140714D01*
X91990714Y-60712142D02*
X91847857Y-60783571D01*
X91562142Y-60783571D01*
X91419285Y-60712142D01*
X91347857Y-60569285D01*
X91347857Y-60497857D01*
X91419285Y-60355000D01*
X91562142Y-60283571D01*
X91776428Y-60283571D01*
X91919285Y-60212142D01*
X91990714Y-60069285D01*
X91990714Y-59997857D01*
X91919285Y-59855000D01*
X91776428Y-59783571D01*
X91562142Y-59783571D01*
X91419285Y-59855000D01*
X89133571Y-59283571D02*
X89133571Y-60355000D01*
X89205000Y-60569285D01*
X89347857Y-60712142D01*
X89562142Y-60783571D01*
X89705000Y-60783571D01*
X88205000Y-60783571D02*
X88347857Y-60712142D01*
X88419285Y-60640714D01*
X88490714Y-60497857D01*
X88490714Y-60069285D01*
X88419285Y-59926428D01*
X88347857Y-59855000D01*
X88205000Y-59783571D01*
X87990714Y-59783571D01*
X87847857Y-59855000D01*
X87776428Y-59926428D01*
X87705000Y-60069285D01*
X87705000Y-60497857D01*
X87776428Y-60640714D01*
X87847857Y-60712142D01*
X87990714Y-60783571D01*
X88205000Y-60783571D01*
X87062142Y-59783571D02*
X87062142Y-60783571D01*
X87062142Y-59926428D02*
X86990714Y-59855000D01*
X86847857Y-59783571D01*
X86633571Y-59783571D01*
X86490714Y-59855000D01*
X86419285Y-59997857D01*
X86419285Y-60783571D01*
X85133571Y-60712142D02*
X85276428Y-60783571D01*
X85562142Y-60783571D01*
X85705000Y-60712142D01*
X85776428Y-60569285D01*
X85776428Y-59997857D01*
X85705000Y-59855000D01*
X85562142Y-59783571D01*
X85276428Y-59783571D01*
X85133571Y-59855000D01*
X85062142Y-59997857D01*
X85062142Y-60140714D01*
X85776428Y-60283571D01*
X84490714Y-60712142D02*
X84347857Y-60783571D01*
X84062142Y-60783571D01*
X83919285Y-60712142D01*
X83847857Y-60569285D01*
X83847857Y-60497857D01*
X83919285Y-60355000D01*
X84062142Y-60283571D01*
X84276428Y-60283571D01*
X84419285Y-60212142D01*
X84490714Y-60069285D01*
X84490714Y-59997857D01*
X84419285Y-59855000D01*
X84276428Y-59783571D01*
X84062142Y-59783571D01*
X83919285Y-59855000D01*
X99847857Y-62547857D02*
X99633571Y-62619285D01*
X99562142Y-62690714D01*
X99490714Y-62833571D01*
X99490714Y-63047857D01*
X99562142Y-63190714D01*
X99633571Y-63262142D01*
X99776428Y-63333571D01*
X100347857Y-63333571D01*
X100347857Y-61833571D01*
X99847857Y-61833571D01*
X99705000Y-61905000D01*
X99633571Y-61976428D01*
X99562142Y-62119285D01*
X99562142Y-62262142D01*
X99633571Y-62405000D01*
X99705000Y-62476428D01*
X99847857Y-62547857D01*
X100347857Y-62547857D01*
X98847857Y-63333571D02*
X98847857Y-62333571D01*
X98847857Y-62619285D02*
X98776428Y-62476428D01*
X98705000Y-62405000D01*
X98562142Y-62333571D01*
X98419285Y-62333571D01*
X97347857Y-63262142D02*
X97490714Y-63333571D01*
X97776428Y-63333571D01*
X97919285Y-63262142D01*
X97990714Y-63119285D01*
X97990714Y-62547857D01*
X97919285Y-62405000D01*
X97776428Y-62333571D01*
X97490714Y-62333571D01*
X97347857Y-62405000D01*
X97276428Y-62547857D01*
X97276428Y-62690714D01*
X97990714Y-62833571D01*
X96633571Y-62333571D02*
X96633571Y-63333571D01*
X96633571Y-62476428D02*
X96562142Y-62405000D01*
X96419285Y-62333571D01*
X96205000Y-62333571D01*
X96062142Y-62405000D01*
X95990714Y-62547857D01*
X95990714Y-63333571D01*
X95276428Y-62333571D02*
X95276428Y-63333571D01*
X95276428Y-62476428D02*
X95205000Y-62405000D01*
X95062142Y-62333571D01*
X94847857Y-62333571D01*
X94705000Y-62405000D01*
X94633571Y-62547857D01*
X94633571Y-63333571D01*
X93276428Y-63333571D02*
X93276428Y-62547857D01*
X93347857Y-62405000D01*
X93490714Y-62333571D01*
X93776428Y-62333571D01*
X93919285Y-62405000D01*
X93276428Y-63262142D02*
X93419285Y-63333571D01*
X93776428Y-63333571D01*
X93919285Y-63262142D01*
X93990714Y-63119285D01*
X93990714Y-62976428D01*
X93919285Y-62833571D01*
X93776428Y-62762142D01*
X93419285Y-62762142D01*
X93276428Y-62690714D01*
X92562142Y-62333571D02*
X92562142Y-63333571D01*
X92562142Y-62476428D02*
X92490714Y-62405000D01*
X92347857Y-62333571D01*
X92133571Y-62333571D01*
X91990714Y-62405000D01*
X91919285Y-62547857D01*
X91919285Y-63333571D01*
X89205000Y-63333571D02*
X89705000Y-62619285D01*
X90062142Y-63333571D02*
X90062142Y-61833571D01*
X89490714Y-61833571D01*
X89347857Y-61905000D01*
X89276428Y-61976428D01*
X89205000Y-62119285D01*
X89205000Y-62333571D01*
X89276428Y-62476428D01*
X89347857Y-62547857D01*
X89490714Y-62619285D01*
X90062142Y-62619285D01*
X87919285Y-63333571D02*
X87919285Y-62547857D01*
X87990714Y-62405000D01*
X88133571Y-62333571D01*
X88419285Y-62333571D01*
X88562142Y-62405000D01*
X87919285Y-63262142D02*
X88062142Y-63333571D01*
X88419285Y-63333571D01*
X88562142Y-63262142D01*
X88633571Y-63119285D01*
X88633571Y-62976428D01*
X88562142Y-62833571D01*
X88419285Y-62762142D01*
X88062142Y-62762142D01*
X87919285Y-62690714D01*
X86562142Y-62333571D02*
X86562142Y-63333571D01*
X87205000Y-62333571D02*
X87205000Y-63119285D01*
X87133571Y-63262142D01*
X86990714Y-63333571D01*
X86776428Y-63333571D01*
X86633571Y-63262142D01*
X86562142Y-63190714D01*
X85919285Y-63262142D02*
X85776428Y-63333571D01*
X85490714Y-63333571D01*
X85347857Y-63262142D01*
X85276428Y-63119285D01*
X85276428Y-63047857D01*
X85347857Y-62905000D01*
X85490714Y-62833571D01*
X85705000Y-62833571D01*
X85847857Y-62762142D01*
X85919285Y-62619285D01*
X85919285Y-62547857D01*
X85847857Y-62405000D01*
X85705000Y-62333571D01*
X85490714Y-62333571D01*
X85347857Y-62405000D01*
X83990714Y-63262142D02*
X84133571Y-63333571D01*
X84419285Y-63333571D01*
X84562142Y-63262142D01*
X84633571Y-63190714D01*
X84705000Y-63047857D01*
X84705000Y-62619285D01*
X84633571Y-62476428D01*
X84562142Y-62405000D01*
X84419285Y-62333571D01*
X84133571Y-62333571D01*
X83990714Y-62405000D01*
X83347857Y-63333571D02*
X83347857Y-61833571D01*
X82705000Y-63333571D02*
X82705000Y-62547857D01*
X82776428Y-62405000D01*
X82919285Y-62333571D01*
X83133571Y-62333571D01*
X83276428Y-62405000D01*
X83347857Y-62476428D01*
X100347857Y-65883571D02*
X100347857Y-64383571D01*
X99990714Y-64383571D01*
X99776428Y-64455000D01*
X99633571Y-64597857D01*
X99562142Y-64740714D01*
X99490714Y-65026428D01*
X99490714Y-65240714D01*
X99562142Y-65526428D01*
X99633571Y-65669285D01*
X99776428Y-65812142D01*
X99990714Y-65883571D01*
X100347857Y-65883571D01*
X98205000Y-65883571D02*
X98205000Y-65097857D01*
X98276428Y-64955000D01*
X98419285Y-64883571D01*
X98705000Y-64883571D01*
X98847857Y-64955000D01*
X98205000Y-65812142D02*
X98347857Y-65883571D01*
X98705000Y-65883571D01*
X98847857Y-65812142D01*
X98919285Y-65669285D01*
X98919285Y-65526428D01*
X98847857Y-65383571D01*
X98705000Y-65312142D01*
X98347857Y-65312142D01*
X98205000Y-65240714D01*
X97490714Y-64883571D02*
X97490714Y-65883571D01*
X97490714Y-65026428D02*
X97419285Y-64955000D01*
X97276428Y-64883571D01*
X97062142Y-64883571D01*
X96919285Y-64955000D01*
X96847857Y-65097857D01*
X96847857Y-65883571D01*
X96133571Y-64883571D02*
X96133571Y-65883571D01*
X96133571Y-65026428D02*
X96062142Y-64955000D01*
X95919285Y-64883571D01*
X95705000Y-64883571D01*
X95562142Y-64955000D01*
X95490714Y-65097857D01*
X95490714Y-65883571D01*
X94919285Y-64883571D02*
X94562142Y-65883571D01*
X94205000Y-64883571D02*
X94562142Y-65883571D01*
X94705000Y-66240714D01*
X94776428Y-66312142D01*
X94919285Y-66383571D01*
X91990714Y-65097857D02*
X92490714Y-65097857D01*
X92490714Y-65883571D02*
X92490714Y-64383571D01*
X91776428Y-64383571D01*
X90990714Y-65883571D02*
X91133571Y-65812142D01*
X91205000Y-65669285D01*
X91205000Y-64383571D01*
X90562142Y-64883571D02*
X90205000Y-65883571D01*
X89847857Y-64883571D02*
X90205000Y-65883571D01*
X90347857Y-66240714D01*
X90419285Y-66312142D01*
X90562142Y-66383571D01*
X89276428Y-64883571D02*
X89276428Y-65883571D01*
X89276428Y-65026428D02*
X89205000Y-64955000D01*
X89062142Y-64883571D01*
X88847857Y-64883571D01*
X88705000Y-64955000D01*
X88633571Y-65097857D01*
X88633571Y-65883571D01*
X87919285Y-64883571D02*
X87919285Y-65883571D01*
X87919285Y-65026428D02*
X87847857Y-64955000D01*
X87705000Y-64883571D01*
X87490714Y-64883571D01*
X87347857Y-64955000D01*
X87276428Y-65097857D01*
X87276428Y-65883571D01*
M02*
