G04 #@! TF.GenerationSoftware,KiCad,Pcbnew,(5.1.5)-3*
G04 #@! TF.CreationDate,2020-04-13T23:59:43-04:00*
G04 #@! TF.ProjectId,Deck_Plate_PCB,4465636b-5f50-46c6-9174-655f5043422e,A*
G04 #@! TF.SameCoordinates,Original*
G04 #@! TF.FileFunction,Copper,L1,Top*
G04 #@! TF.FilePolarity,Positive*
%FSLAX46Y46*%
G04 Gerber Fmt 4.6, Leading zero omitted, Abs format (unit mm)*
G04 Created by KiCad (PCBNEW (5.1.5)-3) date 2020-04-13 23:59:43*
%MOMM*%
%LPD*%
G04 APERTURE LIST*
%ADD10R,1.600000X1.600000*%
%ADD11C,1.600000*%
%ADD12C,1.524000*%
%ADD13C,3.600000*%
%ADD14R,3.600000X6.200000*%
%ADD15R,6.800000X2.800000*%
%ADD16O,1.600000X1.600000*%
%ADD17O,1.700000X1.700000*%
%ADD18R,1.700000X1.700000*%
%ADD19O,3.200000X3.200000*%
%ADD20R,3.200000X3.200000*%
%ADD21R,4.700000X1.300000*%
%ADD22R,2.500000X4.400000*%
%ADD23O,1.800000X1.275000*%
%ADD24R,1.800000X1.275000*%
%ADD25R,1.050000X1.500000*%
%ADD26O,1.050000X1.500000*%
%ADD27C,1.727200*%
%ADD28O,1.727200X1.727200*%
%ADD29O,1.727200X2.032000*%
%ADD30C,4.064000*%
%ADD31C,3.000000*%
%ADD32C,0.600000*%
%ADD33C,1.500000*%
%ADD34C,1.000000*%
%ADD35C,2.000000*%
%ADD36C,1.500000*%
%ADD37C,0.250000*%
%ADD38C,0.750000*%
%ADD39C,0.400000*%
%ADD40C,1.000000*%
G04 APERTURE END LIST*
D10*
X95570000Y-137390000D03*
D11*
X98340000Y-137390000D03*
X101110000Y-137390000D03*
X103880000Y-137390000D03*
X106650000Y-137390000D03*
X109420000Y-137390000D03*
X112190000Y-137390000D03*
X114960000Y-137390000D03*
X117730000Y-137390000D03*
X120500000Y-137390000D03*
X123270000Y-137390000D03*
X126040000Y-137390000D03*
X128810000Y-137390000D03*
X131580000Y-137390000D03*
X134350000Y-137390000D03*
X137120000Y-137390000D03*
X139890000Y-137390000D03*
X142660000Y-137390000D03*
X145430000Y-137390000D03*
X96955000Y-140230000D03*
X99725000Y-140230000D03*
X102495000Y-140230000D03*
X105265000Y-140230000D03*
X108035000Y-140230000D03*
X110805000Y-140230000D03*
X113575000Y-140230000D03*
X116345000Y-140230000D03*
X119115000Y-140230000D03*
X121885000Y-140230000D03*
X124655000Y-140230000D03*
X127425000Y-140230000D03*
X130195000Y-140230000D03*
X132965000Y-140230000D03*
X135735000Y-140230000D03*
X138505000Y-140230000D03*
X141275000Y-140230000D03*
X144045000Y-140230000D03*
D12*
X94795000Y-69630000D03*
X92255000Y-69630000D03*
X89715000Y-69630000D03*
X87175000Y-69630000D03*
X84635000Y-69630000D03*
D13*
X160820000Y-77930000D03*
X167930000Y-77930000D03*
X180400000Y-78000000D03*
X173290000Y-78000000D03*
D14*
X176252000Y-116560000D03*
X188698000Y-116534600D03*
D15*
X176188500Y-116521900D03*
X188710700Y-116572700D03*
D16*
X125196600Y-111658400D03*
D11*
X125196600Y-101498400D03*
D16*
X126550000Y-66500000D03*
D11*
X126550000Y-76660000D03*
D16*
X105890000Y-66530000D03*
D11*
X105890000Y-76690000D03*
D16*
X112400000Y-66530000D03*
D11*
X112400000Y-76690000D03*
D16*
X126580000Y-79740000D03*
D11*
X126580000Y-87240000D03*
D16*
X105910000Y-79730000D03*
D11*
X105910000Y-87230000D03*
D16*
X112420000Y-79760000D03*
D11*
X112420000Y-87260000D03*
D17*
X144754600Y-129235200D03*
X144754600Y-131775200D03*
X142214600Y-129235200D03*
X142214600Y-131775200D03*
X139674600Y-129235200D03*
X139674600Y-131775200D03*
X137134600Y-129235200D03*
X137134600Y-131775200D03*
X134594600Y-129235200D03*
X134594600Y-131775200D03*
X132054600Y-129235200D03*
X132054600Y-131775200D03*
X129514600Y-129235200D03*
X129514600Y-131775200D03*
X126974600Y-129235200D03*
X126974600Y-131775200D03*
X124434600Y-129235200D03*
X124434600Y-131775200D03*
X121894600Y-129235200D03*
X121894600Y-131775200D03*
X119354600Y-129235200D03*
X119354600Y-131775200D03*
X116814600Y-129235200D03*
X116814600Y-131775200D03*
X114274600Y-129235200D03*
X114274600Y-131775200D03*
X111734600Y-129235200D03*
X111734600Y-131775200D03*
X109194600Y-129235200D03*
X109194600Y-131775200D03*
X106654600Y-129235200D03*
X106654600Y-131775200D03*
X104114600Y-129235200D03*
X104114600Y-131775200D03*
X101574600Y-129235200D03*
X101574600Y-131775200D03*
X99034600Y-129235200D03*
X99034600Y-131775200D03*
X96494600Y-129235200D03*
D18*
X96494600Y-131775200D03*
D16*
X119380000Y-66510000D03*
D11*
X119380000Y-76670000D03*
D16*
X119350000Y-79760000D03*
D11*
X119350000Y-87260000D03*
D17*
X84150000Y-124330000D03*
X84150000Y-126870000D03*
X84150000Y-129410000D03*
D18*
X84150000Y-131950000D03*
D19*
X155080000Y-103820000D03*
D20*
X167780000Y-103820000D03*
D19*
X192980000Y-103810000D03*
D20*
X180280000Y-103810000D03*
D17*
X148971000Y-61264800D03*
X146431000Y-61264800D03*
X143891000Y-61264800D03*
X141351000Y-61264800D03*
X138811000Y-61264800D03*
X136271000Y-61264800D03*
X133731000Y-61264800D03*
X131191000Y-61264800D03*
D18*
X128651000Y-61264800D03*
D17*
X89580000Y-110290000D03*
X89580000Y-107750000D03*
X89580000Y-105210000D03*
D18*
X89580000Y-102670000D03*
D10*
X168580000Y-137940000D03*
D11*
X171350000Y-137940000D03*
X174120000Y-137940000D03*
X176890000Y-137940000D03*
X179660000Y-137940000D03*
X182430000Y-137940000D03*
X185200000Y-137940000D03*
X187970000Y-137940000D03*
X169965000Y-140780000D03*
X172735000Y-140780000D03*
X175505000Y-140780000D03*
X178275000Y-140780000D03*
X181045000Y-140780000D03*
X183815000Y-140780000D03*
X186585000Y-140780000D03*
D16*
X108229400Y-124917200D03*
D11*
X118389400Y-124917200D03*
D16*
X108204000Y-121107200D03*
D11*
X118364000Y-121107200D03*
D16*
X121462800Y-124917200D03*
D11*
X131622800Y-124917200D03*
D16*
X121259600Y-111633000D03*
D11*
X121259600Y-101473000D03*
D16*
X113969800Y-107594400D03*
D11*
X113969800Y-117754400D03*
D21*
X156829200Y-131075200D03*
X156905400Y-139304800D03*
D22*
X156867300Y-131011700D03*
X156867300Y-139317500D03*
D14*
X176362000Y-128360000D03*
X188808000Y-128334600D03*
D15*
X176298500Y-128321900D03*
X188820700Y-128372700D03*
D23*
X194540000Y-133546000D03*
X194540000Y-131846000D03*
X194540000Y-130146000D03*
X194540000Y-128446000D03*
D24*
X194540000Y-126746000D03*
D25*
X122707400Y-118033800D03*
D26*
X125247400Y-118033800D03*
X123977400Y-118033800D03*
D25*
X113182400Y-104165400D03*
D26*
X115722400Y-104165400D03*
X114452400Y-104165400D03*
D12*
X130530600Y-103835200D03*
X133070600Y-103835200D03*
X135610600Y-103835200D03*
X138150600Y-103835200D03*
X140690600Y-103835200D03*
X143230600Y-103835200D03*
X145770600Y-103835200D03*
X98475800Y-117068600D03*
X98475800Y-114528600D03*
X98475800Y-111988600D03*
X98475800Y-109448600D03*
X98475800Y-106908600D03*
X98475800Y-104368600D03*
X108635800Y-117068600D03*
X108635800Y-114528600D03*
X108635800Y-111988600D03*
X108635800Y-109448600D03*
X108635800Y-106908600D03*
X108635800Y-104368600D03*
D23*
X194610000Y-117710000D03*
X194610000Y-116010000D03*
X194610000Y-114310000D03*
X194610000Y-112610000D03*
D24*
X194610000Y-110910000D03*
D12*
X156260800Y-126009400D03*
X158800800Y-126009400D03*
X161340800Y-126009400D03*
X163880800Y-126009400D03*
X166420800Y-126009400D03*
D27*
X185572400Y-92075000D03*
D28*
X188112400Y-92075000D03*
X185572400Y-89535000D03*
X188112400Y-89535000D03*
X185572400Y-86995000D03*
X188112400Y-86995000D03*
X185572400Y-84455000D03*
X188112400Y-84455000D03*
X185572400Y-81915000D03*
X188112400Y-81915000D03*
X185572400Y-79375000D03*
X188112400Y-79375000D03*
X185572400Y-76835000D03*
X188112400Y-76835000D03*
X185572400Y-74295000D03*
X188112400Y-74295000D03*
X185572400Y-71755000D03*
X188112400Y-71755000D03*
X185572400Y-69215000D03*
X188112400Y-69215000D03*
X185572400Y-66675000D03*
X188112400Y-66675000D03*
X185572400Y-64135000D03*
X188112400Y-64135000D03*
X185572400Y-61595000D03*
X188112400Y-61595000D03*
X185572400Y-59055000D03*
X188112400Y-59055000D03*
X185572400Y-56515000D03*
X188112400Y-56515000D03*
X185572400Y-53975000D03*
X188112400Y-53975000D03*
X185572400Y-51435000D03*
X188112400Y-51435000D03*
X185572400Y-48895000D03*
X188112400Y-48895000D03*
D29*
X119532400Y-97155000D03*
X122072400Y-97155000D03*
X124612400Y-97155000D03*
X127152400Y-97155000D03*
X129692400Y-97155000D03*
X132232400Y-97155000D03*
X134772400Y-97155000D03*
X137312400Y-97155000D03*
X142392400Y-97155000D03*
X144932400Y-97155000D03*
X147472400Y-97155000D03*
X150012400Y-97155000D03*
X152552400Y-97155000D03*
X155092400Y-97155000D03*
X157632400Y-97155000D03*
X160172400Y-97155000D03*
X165252400Y-97155000D03*
X167792400Y-97155000D03*
X170332400Y-97155000D03*
X172872400Y-97155000D03*
X175412400Y-97155000D03*
X177952400Y-97155000D03*
X180492400Y-97155000D03*
X183032400Y-97155000D03*
X110388400Y-48895000D03*
X112928400Y-48895000D03*
X115468400Y-48895000D03*
X118008400Y-48895000D03*
X120548400Y-48895000D03*
X123088400Y-48895000D03*
X125628400Y-48895000D03*
X128168400Y-48895000D03*
X130708400Y-48895000D03*
X133248400Y-48895000D03*
X137312400Y-48895000D03*
X139852400Y-48895000D03*
X142392400Y-48895000D03*
X144932400Y-48895000D03*
X147472400Y-48895000D03*
X150012400Y-48895000D03*
X152552400Y-48895000D03*
X155092400Y-48895000D03*
X160172400Y-48895000D03*
X162712400Y-48895000D03*
X165252400Y-48895000D03*
X167792400Y-48895000D03*
X170332400Y-48895000D03*
X172872400Y-48895000D03*
X175412400Y-48895000D03*
X177952400Y-48895000D03*
D30*
X105562400Y-97155000D03*
X157632400Y-92075000D03*
X188112400Y-97155000D03*
X106832400Y-48895000D03*
X157632400Y-64135000D03*
X181762400Y-48895000D03*
D31*
X174420000Y-122450000D03*
X174650000Y-110800000D03*
X149610000Y-133970000D03*
D32*
X164030000Y-62449998D03*
X144610000Y-70800000D03*
X151670000Y-70870000D03*
X171580000Y-60850000D03*
X101550000Y-104060000D03*
X101360000Y-106580000D03*
D33*
X168820000Y-94250000D03*
D34*
X182750000Y-109310000D03*
D32*
X136989998Y-133580000D03*
D31*
X88650000Y-119560000D03*
D35*
X183420000Y-75190000D03*
D31*
X138060000Y-75220000D03*
D35*
X180100000Y-72800000D03*
D31*
X157240000Y-76790000D03*
D32*
X153350000Y-74500000D03*
X154960000Y-73940000D03*
X151240000Y-94220000D03*
X136270000Y-58325000D03*
X95120002Y-115100000D03*
X95870000Y-90540000D03*
X103850000Y-139405010D03*
X94250000Y-90540000D03*
X94140000Y-114149998D03*
X106650004Y-139405010D03*
X92760000Y-90550000D03*
X93119999Y-113180000D03*
X109430000Y-139405010D03*
X96090000Y-116090000D03*
X97570000Y-90530000D03*
X101120000Y-141349979D03*
D33*
X84280000Y-107820000D03*
D32*
X134590000Y-65920000D03*
D36*
X154645600Y-133970000D02*
X151731320Y-133970000D01*
X151731320Y-133970000D02*
X149610000Y-133970000D01*
X156867300Y-133461700D02*
X156867300Y-131011700D01*
X156359000Y-133970000D02*
X156867300Y-133461700D01*
X154645600Y-133970000D02*
X156359000Y-133970000D01*
X176362000Y-124392000D02*
X174420000Y-122450000D01*
X176362000Y-128360000D02*
X176362000Y-124392000D01*
X176252000Y-112402000D02*
X174650000Y-110800000D01*
X176252000Y-116560000D02*
X176252000Y-112402000D01*
X147415200Y-131775200D02*
X144754600Y-131775200D01*
X149610000Y-133970000D02*
X147415200Y-131775200D01*
D37*
X132054600Y-129235200D02*
X133539800Y-127750000D01*
X135649400Y-127750000D02*
X137134600Y-129235200D01*
X133539800Y-127750000D02*
X135649400Y-127750000D01*
X128651000Y-61251000D02*
X128651000Y-61264800D01*
X164029996Y-62449998D02*
X164030000Y-62449998D01*
X155390000Y-70870000D02*
X164029996Y-62449998D01*
X151670000Y-70870000D02*
X155390000Y-70870000D01*
X125120000Y-70800000D02*
X144610000Y-70800000D01*
X123400000Y-69080000D02*
X125120000Y-70800000D01*
X123400000Y-65415800D02*
X123400000Y-69080000D01*
X128651000Y-61264800D02*
X127551000Y-61264800D01*
X127551000Y-61264800D02*
X123400000Y-65415800D01*
X142380000Y-83970000D02*
X155390000Y-70870000D01*
X133500000Y-92850000D02*
X142380000Y-83970000D01*
X133500000Y-98249600D02*
X133500000Y-92850000D01*
X110782100Y-114922300D02*
X110782100Y-101295200D01*
X108635800Y-117068600D02*
X110782100Y-114922300D01*
X132295900Y-99453700D02*
X133500000Y-98249600D01*
X112623600Y-99453700D02*
X132295900Y-99453700D01*
X110782100Y-101295200D02*
X112623600Y-99453700D01*
X171155736Y-60850000D02*
X171580000Y-60850000D01*
X156810000Y-60850000D02*
X171155736Y-60850000D01*
X131191000Y-62466881D02*
X131190000Y-62467881D01*
X131191000Y-61264800D02*
X131191000Y-62466881D01*
X131190000Y-62467881D02*
X131190000Y-66130000D01*
X133320000Y-68260000D02*
X149290000Y-68260000D01*
X131190000Y-66130000D02*
X133320000Y-68260000D01*
X149290000Y-68260000D02*
X156810000Y-60850000D01*
X135030000Y-82630000D02*
X149290000Y-68260000D01*
X130960000Y-97883528D02*
X130960000Y-86700000D01*
X110070900Y-113093500D02*
X110070900Y-100888800D01*
X108635800Y-114528600D02*
X110070900Y-113093500D01*
X129974028Y-98869500D02*
X130960000Y-97883528D01*
X110070900Y-100888800D02*
X112090200Y-98869500D01*
X130960000Y-86700000D02*
X135010000Y-82650000D01*
X112090200Y-98869500D02*
X129974028Y-98869500D01*
X101350000Y-106580000D02*
X101360000Y-106580000D01*
X98475800Y-109448600D02*
X98481400Y-109448600D01*
X98481400Y-109448600D02*
X101350000Y-106580000D01*
X104120000Y-101490000D02*
X101550000Y-104060000D01*
X127152400Y-95889000D02*
X126157800Y-94894400D01*
X106420000Y-101490000D02*
X104120000Y-101490000D01*
X127152400Y-97155000D02*
X127152400Y-95889000D01*
X126157800Y-94894400D02*
X113015600Y-94894400D01*
X113015600Y-94894400D02*
X106420000Y-101490000D01*
D38*
X160800000Y-77880000D02*
X160800000Y-86200000D01*
X160800000Y-86200000D02*
X168800000Y-94200000D01*
X163570000Y-75180000D02*
X160820000Y-77930000D01*
X170600000Y-79050000D02*
X170600000Y-76050000D01*
X174150000Y-82600000D02*
X170600000Y-79050000D01*
X170600000Y-76050000D02*
X169730000Y-75180000D01*
X169730000Y-75180000D02*
X163570000Y-75180000D01*
X174150000Y-82600000D02*
X174150000Y-95250000D01*
D39*
X174150000Y-96477986D02*
X174150000Y-95250000D01*
X174148790Y-96479196D02*
X174150000Y-96477986D01*
X174150000Y-98710000D02*
X174150000Y-97832014D01*
X174148790Y-97830804D02*
X174148790Y-96479196D01*
X174150000Y-97832014D02*
X174148790Y-97830804D01*
D38*
X172160000Y-100700000D02*
X174150000Y-98710000D01*
X176520000Y-109320000D02*
X172160000Y-104960000D01*
X172160000Y-104960000D02*
X172160000Y-100700000D01*
X177750000Y-109320000D02*
X176520000Y-109320000D01*
X182740000Y-109320000D02*
X182750000Y-109310000D01*
X178150000Y-109320000D02*
X182740000Y-109320000D01*
X177750000Y-109320000D02*
X178150000Y-109320000D01*
D37*
X97766000Y-140411200D02*
X97371200Y-140411200D01*
X126930000Y-135510000D02*
X128810000Y-137390000D01*
X101567319Y-135510000D02*
X126930000Y-135510000D01*
X99034600Y-131775200D02*
X99034600Y-132977281D01*
X99034600Y-132977281D02*
X101567319Y-135510000D01*
X127360000Y-138710000D02*
X126040000Y-137390000D01*
X128250000Y-133020000D02*
X128730000Y-133500000D01*
X130820000Y-133500000D02*
X133120000Y-135800000D01*
X135910000Y-138050000D02*
X135250000Y-138710000D01*
X128730000Y-133500000D02*
X130820000Y-133500000D01*
X135250000Y-138710000D02*
X127360000Y-138710000D01*
X129514600Y-129235200D02*
X129514600Y-130036198D01*
X128250000Y-131300798D02*
X128250000Y-133020000D01*
X129514600Y-130036198D02*
X128250000Y-131300798D01*
X135000000Y-135800000D02*
X135900000Y-136700000D01*
X135900000Y-136700000D02*
X135900000Y-137505002D01*
X133120000Y-135800000D02*
X135000000Y-135800000D01*
X135900000Y-137505002D02*
X135910000Y-137515002D01*
X135910000Y-137515002D02*
X135910000Y-138050000D01*
X172872400Y-50161000D02*
X172872400Y-48895000D01*
X170753400Y-52280000D02*
X172872400Y-50161000D01*
X134333719Y-59460000D02*
X138450000Y-59460000D01*
X133731000Y-61264800D02*
X133731000Y-60062719D01*
X133731000Y-60062719D02*
X134333719Y-59460000D01*
X138450000Y-59460000D02*
X145630000Y-52280000D01*
X145630000Y-52280000D02*
X170753400Y-52280000D01*
X132054600Y-131775200D02*
X132065200Y-131775200D01*
X133859400Y-133580000D02*
X136989998Y-133580000D01*
X132054600Y-131775200D02*
X133859400Y-133580000D01*
X133380000Y-137390000D02*
X134350000Y-137390000D01*
X130210000Y-134220000D02*
X133380000Y-137390000D01*
X104114600Y-131775200D02*
X106559400Y-134220000D01*
X106559400Y-134220000D02*
X130210000Y-134220000D01*
X103457319Y-134860000D02*
X129050000Y-134860000D01*
X101574600Y-131775200D02*
X101574600Y-132977281D01*
X129050000Y-134860000D02*
X131580000Y-137390000D01*
X101574600Y-132977281D02*
X103457319Y-134860000D01*
X191140400Y-115894800D02*
X190576200Y-116459000D01*
X108635800Y-109448600D02*
X108534200Y-109448600D01*
X190627000Y-116459000D02*
X190588900Y-116497100D01*
D38*
X173290000Y-78000000D02*
X176763790Y-81473790D01*
X176763790Y-81473790D02*
X176763790Y-95323790D01*
X194130000Y-115890000D02*
X194125200Y-115894800D01*
D39*
X176688790Y-97830804D02*
X176688790Y-97048790D01*
X176688790Y-97048790D02*
X176676010Y-97036010D01*
X176676010Y-97036010D02*
X176676010Y-96479196D01*
X176688790Y-97830804D02*
X176688790Y-98561210D01*
X176676010Y-95411570D02*
X176763790Y-95323790D01*
X176676010Y-96479196D02*
X176676010Y-95411570D01*
D37*
X176503990Y-98746010D02*
X176688790Y-98561210D01*
D38*
X173399990Y-101850010D02*
X173399990Y-104409990D01*
X176688790Y-98561210D02*
X173399990Y-101850010D01*
X173399990Y-104409990D02*
X177150000Y-108160000D01*
X190390000Y-112290000D02*
X194110000Y-116010000D01*
X187890000Y-112290000D02*
X190390000Y-112290000D01*
D37*
X194110000Y-116010000D02*
X194610000Y-116010000D01*
D38*
X177150000Y-108160000D02*
X183760000Y-108160000D01*
X183760000Y-108160000D02*
X187890000Y-112290000D01*
D36*
X189273400Y-116010000D02*
X188710700Y-116572700D01*
X194610000Y-116010000D02*
X189273400Y-116010000D01*
X86660000Y-131950000D02*
X84150000Y-131950000D01*
D37*
X86687480Y-131922520D02*
X86660000Y-131950000D01*
D36*
X88650000Y-129960000D02*
X88650000Y-121681320D01*
X86687480Y-131922520D02*
X88650000Y-129960000D01*
X88650000Y-121681320D02*
X88650000Y-119560000D01*
D37*
X87910000Y-102670000D02*
X89580000Y-102670000D01*
X86770000Y-103810000D02*
X87910000Y-102670000D01*
X107873801Y-108686601D02*
X108635800Y-109448600D01*
X104851200Y-105664000D02*
X107873801Y-108686601D01*
X86770000Y-101090000D02*
X87810000Y-100050000D01*
X97174000Y-105664000D02*
X104851200Y-105664000D01*
X86770000Y-103810000D02*
X86770000Y-101090000D01*
X87810000Y-100050000D02*
X91560000Y-100050000D01*
X91560000Y-100050000D02*
X97174000Y-105664000D01*
X86770000Y-117680000D02*
X86770000Y-103810000D01*
X88650000Y-119560000D02*
X86770000Y-117680000D01*
D36*
X158800800Y-124949200D02*
X158800800Y-126009400D01*
X159950400Y-123799600D02*
X158800800Y-124949200D01*
X167614600Y-123799600D02*
X159950400Y-123799600D01*
X169070000Y-125255000D02*
X167614600Y-123799600D01*
X169070000Y-129100000D02*
X169070000Y-125255000D01*
X163830000Y-134340000D02*
X169070000Y-129100000D01*
X156867300Y-139317500D02*
X163702500Y-139317500D01*
D37*
X163702500Y-139317500D02*
X163830000Y-139190000D01*
D36*
X163830000Y-139190000D02*
X163830000Y-134340000D01*
X165580000Y-140780000D02*
X169965000Y-140780000D01*
X163830000Y-139190000D02*
X165420000Y-140780000D01*
X165420000Y-140780000D02*
X165580000Y-140780000D01*
X169965000Y-140780000D02*
X172985000Y-143800000D01*
X172985000Y-143800000D02*
X187070000Y-143800000D01*
X187070000Y-143800000D02*
X190710000Y-140160000D01*
X190710000Y-140160000D02*
X190710000Y-137800000D01*
X190710000Y-137800000D02*
X192890000Y-135620000D01*
X192890000Y-135620000D02*
X196490000Y-135620000D01*
X196490000Y-135620000D02*
X197400000Y-134710000D01*
X195760000Y-110910000D02*
X194610000Y-110910000D01*
X197400000Y-112550000D02*
X195760000Y-110910000D01*
X195694000Y-126750000D02*
X197420000Y-126750000D01*
X194540000Y-126746000D02*
X195690000Y-126746000D01*
D37*
X195690000Y-126746000D02*
X195694000Y-126750000D01*
D36*
X197400000Y-134710000D02*
X197420000Y-126750000D01*
X197420000Y-126750000D02*
X197400000Y-112550000D01*
X197400000Y-112550000D02*
X197400000Y-97630000D01*
X197400000Y-97630000D02*
X191900000Y-92130000D01*
X191900000Y-92130000D02*
X191900000Y-82300000D01*
X191900000Y-82300000D02*
X190340000Y-80740000D01*
D37*
X184502798Y-80660000D02*
X184436399Y-80726399D01*
X190340000Y-80740000D02*
X190260000Y-80660000D01*
D39*
X190260000Y-80660000D02*
X190240000Y-80640000D01*
X184522798Y-80640000D02*
X184502798Y-80660000D01*
X190240000Y-80640000D02*
X184522798Y-80640000D01*
D36*
X137760001Y-74920001D02*
X138060000Y-75220000D01*
X92255000Y-69630000D02*
X96505000Y-73880000D01*
X136720000Y-73880000D02*
X137760001Y-74920001D01*
X96505000Y-73880000D02*
X136720000Y-73880000D01*
X161230000Y-72800000D02*
X158739999Y-75290001D01*
X158739999Y-75290001D02*
X157240000Y-76790000D01*
X180100000Y-72800000D02*
X161230000Y-72800000D01*
D40*
X183937319Y-80054521D02*
X183937319Y-75707319D01*
X184522798Y-80640000D02*
X183937319Y-80054521D01*
D37*
X170450000Y-137040000D02*
X171350000Y-137940000D01*
X106832400Y-119227600D02*
X106273600Y-119786400D01*
X112496600Y-119227600D02*
X106832400Y-119227600D01*
X106273600Y-119786400D02*
X106273600Y-124626402D01*
X106273600Y-124626402D02*
X106299000Y-124651802D01*
X106299000Y-124651802D02*
X106299000Y-126238000D01*
X107111800Y-127050800D02*
X145364200Y-127050800D01*
X113969800Y-117754400D02*
X112496600Y-119227600D01*
X106299000Y-126238000D02*
X107111800Y-127050800D01*
X145364200Y-127050800D02*
X150515000Y-121900000D01*
X150515000Y-121900000D02*
X167740000Y-121900000D01*
X170450000Y-124610000D02*
X170450000Y-137040000D01*
X167740000Y-121900000D02*
X170450000Y-124610000D01*
X125196600Y-101498400D02*
X125196600Y-101103400D01*
X125230000Y-101465000D02*
X125196600Y-101498400D01*
X113182400Y-104165400D02*
X113182400Y-103276400D01*
X113182400Y-103276400D02*
X116357400Y-100101400D01*
X125218600Y-100101400D02*
X125230000Y-100112800D01*
X116357400Y-100101400D02*
X125218600Y-100101400D01*
X125230000Y-100112800D02*
X125230000Y-101465000D01*
X139954000Y-93206000D02*
X153350000Y-79810000D01*
X139954000Y-98983800D02*
X139954000Y-93206000D01*
X125230000Y-100112800D02*
X138825000Y-100112800D01*
X153350000Y-79810000D02*
X153350000Y-74500000D01*
X138825000Y-100112800D02*
X139954000Y-98983800D01*
X117703600Y-104165400D02*
X115722400Y-104165400D01*
X119151400Y-105613200D02*
X117703600Y-104165400D01*
X125247400Y-118033800D02*
X125247400Y-117033800D01*
X125247400Y-117033800D02*
X121650000Y-113436400D01*
X121650000Y-113436400D02*
X119862600Y-113436400D01*
X119862600Y-113436400D02*
X119151400Y-112725200D01*
X119151400Y-112725200D02*
X119151400Y-105613200D01*
D38*
X167930000Y-89890000D02*
X167930000Y-77930000D01*
X171600000Y-93560000D02*
X167930000Y-89890000D01*
D37*
X190627000Y-127153400D02*
X190639700Y-127140700D01*
X190627000Y-128752600D02*
X190627000Y-127153400D01*
D38*
X145770600Y-103835200D02*
X150088600Y-108153200D01*
X171600000Y-93560000D02*
X171600000Y-95320000D01*
D39*
X171600000Y-95320000D02*
X171600000Y-99140000D01*
D38*
X150088600Y-108153200D02*
X150940000Y-108150000D01*
D37*
X150940000Y-109910000D02*
X150940000Y-108150000D01*
X147240000Y-113610000D02*
X150940000Y-109910000D01*
X131930000Y-113610000D02*
X147240000Y-113610000D01*
X125247400Y-118033800D02*
X127506200Y-118033800D01*
X127506200Y-118033800D02*
X131930000Y-113610000D01*
D38*
X150940000Y-108150000D02*
X169621200Y-108153200D01*
X193594000Y-131846000D02*
X194540000Y-131846000D01*
X192390000Y-133050000D02*
X193594000Y-131846000D01*
X171560000Y-130960000D02*
X173650000Y-133050000D01*
X173650000Y-133050000D02*
X192390000Y-133050000D01*
X171560000Y-109730000D02*
X171560000Y-130960000D01*
X170580000Y-100160000D02*
X171600000Y-99140000D01*
X170580000Y-107194400D02*
X170580000Y-100160000D01*
X171560000Y-109140000D02*
X170090000Y-107670000D01*
X169621200Y-108153200D02*
X170090000Y-107670000D01*
X171560000Y-109730000D02*
X171560000Y-109140000D01*
X170090000Y-107670000D02*
X170580000Y-107194400D01*
D36*
X190828000Y-130380000D02*
X188820700Y-128372700D01*
X191730000Y-130380000D02*
X190828000Y-130380000D01*
X194540000Y-131846000D02*
X193196000Y-131846000D01*
X193196000Y-131846000D02*
X191730000Y-130380000D01*
D37*
X114452400Y-103165400D02*
X114452400Y-104165400D01*
X116147800Y-101470000D02*
X114452400Y-103165400D01*
X121259600Y-101473000D02*
X121256600Y-101470000D01*
X121256600Y-101470000D02*
X116147800Y-101470000D01*
X114452400Y-107111800D02*
X113969800Y-107594400D01*
X114452400Y-104165400D02*
X114452400Y-107111800D01*
X122707400Y-120599200D02*
X118389400Y-124917200D01*
X122707400Y-118033800D02*
X122707400Y-120599200D01*
X151539999Y-93920001D02*
X151240000Y-94220000D01*
X154960000Y-90500000D02*
X151539999Y-93920001D01*
X154960000Y-73940000D02*
X154960000Y-90500000D01*
X118364000Y-119975830D02*
X122058630Y-116281200D01*
X118364000Y-121107200D02*
X118364000Y-119975830D01*
X123977400Y-117033800D02*
X123977400Y-118033800D01*
X123224800Y-116281200D02*
X123977400Y-117033800D01*
X122058630Y-116281200D02*
X123224800Y-116281200D01*
X117456789Y-126499189D02*
X119880811Y-126499189D01*
X120662801Y-125717199D02*
X121462800Y-124917200D01*
X117043200Y-126085600D02*
X117456789Y-126499189D01*
X117043200Y-122428000D02*
X117043200Y-126085600D01*
X119880811Y-126499189D02*
X120662801Y-125717199D01*
X118364000Y-121107200D02*
X117043200Y-122428000D01*
X98475800Y-116814600D02*
X98475800Y-117068600D01*
X91920000Y-107750000D02*
X89580000Y-107750000D01*
X97450000Y-113280000D02*
X91920000Y-107750000D01*
X99430000Y-113280000D02*
X97450000Y-113280000D01*
X99237799Y-116306601D02*
X99237799Y-116302201D01*
X100120000Y-115420000D02*
X100120000Y-113970000D01*
X100120000Y-113970000D02*
X99430000Y-113280000D01*
X98475800Y-117068600D02*
X99237799Y-116306601D01*
X99237799Y-116302201D02*
X100120000Y-115420000D01*
X98475800Y-114274600D02*
X98475800Y-114528600D01*
X92490000Y-110290000D02*
X89580000Y-110290000D01*
X96730000Y-114530000D02*
X92490000Y-110290000D01*
X98475800Y-114528600D02*
X98474400Y-114530000D01*
X98474400Y-114530000D02*
X96730000Y-114530000D01*
D38*
X180400000Y-78000000D02*
X181760000Y-79360000D01*
D37*
X179100000Y-78000000D02*
X179240000Y-78140000D01*
X179640000Y-78000000D02*
X179260000Y-78380000D01*
X180400000Y-78000000D02*
X179850000Y-78000000D01*
D38*
X179240000Y-79160000D02*
X179240000Y-95440000D01*
X180400000Y-78000000D02*
X179240000Y-79160000D01*
X181760000Y-79360000D02*
X181760000Y-94120000D01*
X181760000Y-94120000D02*
X181760000Y-95640000D01*
D39*
X179240000Y-97842014D02*
X179228790Y-97830804D01*
X179240000Y-98410000D02*
X179240000Y-97842014D01*
X179230000Y-95450000D02*
X179240000Y-95440000D01*
X179230000Y-96477986D02*
X179230000Y-95450000D01*
X179228790Y-97830804D02*
X179228790Y-96479196D01*
X179228790Y-96479196D02*
X179230000Y-96477986D01*
X181760000Y-95640000D02*
X181760000Y-98540000D01*
D38*
X175250000Y-104320000D02*
X175250000Y-102390000D01*
X179230000Y-98410000D02*
X179240000Y-98410000D01*
X175250000Y-102390000D02*
X179230000Y-98410000D01*
X177720000Y-106790000D02*
X175250000Y-104320000D01*
X180280000Y-100020000D02*
X180280000Y-103810000D01*
X180280000Y-100020000D02*
X181760000Y-98540000D01*
X177720000Y-106790000D02*
X184080000Y-106790000D01*
X184080000Y-106790000D02*
X188380000Y-111090000D01*
X188380000Y-111090000D02*
X191310000Y-111090000D01*
X192830000Y-112610000D02*
X194610000Y-112610000D01*
X191310000Y-111090000D02*
X192830000Y-112610000D01*
D37*
X129514600Y-131775200D02*
X130135200Y-131775200D01*
X123270000Y-141560000D02*
X123270000Y-137390000D01*
X123420000Y-141710000D02*
X123270000Y-141560000D01*
X139650000Y-141710000D02*
X123420000Y-141710000D01*
X139860000Y-139690000D02*
X139860000Y-141500000D01*
X130085200Y-131775200D02*
X133310000Y-135000000D01*
X139860000Y-141500000D02*
X139650000Y-141710000D01*
X133310000Y-135000000D02*
X140620000Y-135000000D01*
X129514600Y-131775200D02*
X130085200Y-131775200D01*
X141360000Y-138190000D02*
X139860000Y-139690000D01*
X140620000Y-135000000D02*
X141360000Y-135740000D01*
X141360000Y-135740000D02*
X141360000Y-138190000D01*
X190449200Y-74498200D02*
X188112400Y-76835000D01*
X147091400Y-52984400D02*
X182263870Y-52984400D01*
X182263870Y-52984400D02*
X185083270Y-50165000D01*
X190449200Y-51206400D02*
X190449200Y-74498200D01*
X138811000Y-61264800D02*
X147091400Y-52984400D01*
X185083270Y-50165000D02*
X189407800Y-50165000D01*
X189407800Y-50165000D02*
X190449200Y-51206400D01*
X168913400Y-51580000D02*
X170332400Y-50161000D01*
X170332400Y-50161000D02*
X170332400Y-48895000D01*
X136270000Y-58325000D02*
X143015000Y-51580000D01*
X143015000Y-51580000D02*
X168913400Y-51580000D01*
X149319600Y-54490000D02*
X143891000Y-59918600D01*
X185572400Y-53975000D02*
X185057400Y-54490000D01*
X143891000Y-59918600D02*
X143891000Y-61264800D01*
X185057400Y-54490000D02*
X149319600Y-54490000D01*
X141351000Y-60477400D02*
X141351000Y-61264800D01*
X186842400Y-52705000D02*
X184150000Y-52705000D01*
X188112400Y-53975000D02*
X186842400Y-52705000D01*
X184150000Y-52705000D02*
X183145000Y-53710000D01*
X183145000Y-53710000D02*
X148118400Y-53710000D01*
X148118400Y-53710000D02*
X141351000Y-60477400D01*
X182820000Y-61730000D02*
X182820000Y-73808998D01*
X182820000Y-73808998D02*
X182004999Y-74623999D01*
X147955000Y-59740800D02*
X180830800Y-59740800D01*
X183032400Y-76873402D02*
X183032400Y-95889000D01*
X182004999Y-75846001D02*
X183032400Y-76873402D01*
X182004999Y-74623999D02*
X182004999Y-75846001D01*
X146431000Y-61264800D02*
X147955000Y-59740800D01*
X183032400Y-95889000D02*
X183032400Y-97155000D01*
X180830800Y-59740800D02*
X182820000Y-61730000D01*
X133555800Y-100810000D02*
X150650000Y-100810000D01*
X150650000Y-100810000D02*
X152570000Y-98890000D01*
X165252400Y-98421000D02*
X165252400Y-97155000D01*
X152570000Y-98890000D02*
X164783400Y-98890000D01*
X130530600Y-103835200D02*
X133555800Y-100810000D01*
X164783400Y-98890000D02*
X165252400Y-98421000D01*
X167792400Y-98421000D02*
X167792400Y-97155000D01*
X133070600Y-103835200D02*
X135245800Y-101660000D01*
X166753400Y-99460000D02*
X167792400Y-98421000D01*
X135245800Y-101660000D02*
X151570000Y-101660000D01*
X151570000Y-101660000D02*
X153770000Y-99460000D01*
X153770000Y-99460000D02*
X166753400Y-99460000D01*
X170332400Y-98421000D02*
X170332400Y-97155000D01*
X136829800Y-102616000D02*
X152603200Y-102616000D01*
X135610600Y-103835200D02*
X136829800Y-102616000D01*
X155117800Y-100101400D02*
X168652000Y-100101400D01*
X152603200Y-102616000D02*
X155117800Y-100101400D01*
X168652000Y-100101400D02*
X170332400Y-98421000D01*
X119380000Y-79730000D02*
X119350000Y-79760000D01*
X119380000Y-76670000D02*
X119380000Y-79730000D01*
X119350000Y-79760000D02*
X116560000Y-79760000D01*
X96169999Y-90240001D02*
X95870000Y-90540000D01*
X116560000Y-79760000D02*
X107270000Y-89050000D01*
X107270000Y-89050000D02*
X97360000Y-89050000D01*
X97360000Y-89050000D02*
X96169999Y-90240001D01*
X98026410Y-142910000D02*
X95520000Y-140403590D01*
X95520000Y-140403590D02*
X95520000Y-139580000D01*
X94050000Y-136530000D02*
X92010000Y-134490000D01*
X92000000Y-118220002D02*
X95120002Y-115100000D01*
X101910000Y-142910000D02*
X98026410Y-142910000D01*
X103850000Y-139405010D02*
X103850000Y-140970000D01*
X92010000Y-134490000D02*
X92000000Y-118220002D01*
X103850000Y-140970000D02*
X101910000Y-142910000D01*
X95520000Y-139580000D02*
X95130000Y-139190000D01*
X95130000Y-139190000D02*
X95110000Y-139190000D01*
X95110000Y-139190000D02*
X94050000Y-138130000D01*
X94050000Y-138130000D02*
X94050000Y-136530000D01*
X97600000Y-135780000D02*
X94660000Y-132840000D01*
X98740000Y-135780000D02*
X97600000Y-135780000D01*
X99750000Y-138180000D02*
X99750000Y-136790000D01*
X115670000Y-141780000D02*
X114930000Y-141040000D01*
X117565000Y-141780000D02*
X115670000Y-141780000D01*
X119115000Y-140230000D02*
X117565000Y-141780000D01*
X103619400Y-126200000D02*
X106654600Y-129235200D01*
X114350000Y-138780000D02*
X100350000Y-138780000D01*
X99750000Y-136790000D02*
X98740000Y-135780000D01*
X94660000Y-132840000D02*
X94660000Y-127460000D01*
X114930000Y-141040000D02*
X114930000Y-139360000D01*
X100350000Y-138780000D02*
X99750000Y-138180000D01*
X94660000Y-127460000D02*
X95920000Y-126200000D01*
X114930000Y-139360000D02*
X114350000Y-138780000D01*
X95920000Y-126200000D02*
X103619400Y-126200000D01*
X115830000Y-136080000D02*
X116345000Y-136595000D01*
X102589400Y-127710000D02*
X98120000Y-127710000D01*
X116345000Y-136595000D02*
X116345000Y-140230000D01*
X104114600Y-129235200D02*
X102589400Y-127710000D01*
X100540000Y-136080000D02*
X115830000Y-136080000D01*
X97780000Y-133320000D02*
X100540000Y-136080000D01*
X98120000Y-127710000D02*
X97780000Y-128050000D01*
X97780000Y-128050000D02*
X97780000Y-133320000D01*
X112400000Y-79740000D02*
X112420000Y-79760000D01*
X112400000Y-76690000D02*
X112400000Y-79740000D01*
X94549999Y-90240001D02*
X94250000Y-90540000D01*
X100000000Y-84790000D02*
X94549999Y-90240001D01*
X112420000Y-79760000D02*
X107390000Y-84790000D01*
X107390000Y-84790000D02*
X100000000Y-84790000D01*
X91220000Y-117069998D02*
X94140000Y-114149998D01*
X91260000Y-134460000D02*
X91220000Y-117069998D01*
X95040000Y-139850000D02*
X93500000Y-138310000D01*
X106650004Y-141019996D02*
X104160000Y-143510000D01*
X93500000Y-138310000D02*
X93500000Y-136700000D01*
X104160000Y-143510000D02*
X97990000Y-143510000D01*
X106650004Y-139405010D02*
X106650004Y-141019996D01*
X97990000Y-143510000D02*
X95040000Y-140560000D01*
X93500000Y-136700000D02*
X91260000Y-134460000D01*
X95040000Y-140560000D02*
X95040000Y-139850000D01*
X105890000Y-79710000D02*
X105910000Y-79730000D01*
X105890000Y-76690000D02*
X105890000Y-79710000D01*
X92760000Y-90210000D02*
X92760000Y-90550000D01*
X92760000Y-89540000D02*
X92760000Y-90210000D01*
X105910000Y-79730000D02*
X102570000Y-79730000D01*
X102570000Y-79730000D02*
X92760000Y-89540000D01*
X94310000Y-140560000D02*
X97690000Y-143940000D01*
X104970000Y-144020000D02*
X107470000Y-141520000D01*
X93119999Y-113180000D02*
X90555002Y-115744997D01*
X90555002Y-115744997D02*
X90555002Y-134595002D01*
X97690000Y-143940000D02*
X97690000Y-144020000D01*
X94310000Y-139800000D02*
X94310000Y-140560000D01*
X92790000Y-136830000D02*
X92790000Y-138280000D01*
X97690000Y-144020000D02*
X104970000Y-144020000D01*
X92790000Y-138280000D02*
X94310000Y-139800000D01*
X107470000Y-141520000D02*
X108740000Y-141520000D01*
X108740000Y-141520000D02*
X109430000Y-140830000D01*
X109430000Y-140830000D02*
X109430000Y-139405010D01*
X90555002Y-134595002D02*
X92790000Y-136830000D01*
X126550000Y-79710000D02*
X126580000Y-79740000D01*
X126550000Y-76660000D02*
X126550000Y-79710000D01*
X112660000Y-90530000D02*
X97994264Y-90530000D01*
X126580000Y-79740000D02*
X123450000Y-79740000D01*
X97994264Y-90530000D02*
X97570000Y-90530000D01*
X123450000Y-79740000D02*
X112660000Y-90530000D01*
X96990000Y-138110000D02*
X98350000Y-139470000D01*
X96990000Y-136310000D02*
X96990000Y-138110000D01*
X100820001Y-141649978D02*
X101120000Y-141349979D01*
X93060000Y-132380000D02*
X96990000Y-136310000D01*
X99389978Y-141649978D02*
X100820001Y-141649978D01*
X98350000Y-140610000D02*
X99389978Y-141649978D01*
X98350000Y-139470000D02*
X98350000Y-140610000D01*
X93060000Y-119120000D02*
X93060000Y-132380000D01*
X96090000Y-116090000D02*
X93060000Y-119120000D01*
X107850000Y-64570000D02*
X105890000Y-66530000D01*
X112940000Y-64570000D02*
X107850000Y-64570000D01*
X139852400Y-50161000D02*
X138513400Y-51500000D01*
X139852400Y-48895000D02*
X139852400Y-50161000D01*
X126010000Y-51500000D02*
X112940000Y-64570000D01*
X138513400Y-51500000D02*
X126010000Y-51500000D01*
X113720000Y-66530000D02*
X112400000Y-66530000D01*
X138809800Y-52630000D02*
X127620000Y-52630000D01*
X142392400Y-48895000D02*
X142392400Y-49047400D01*
X127620000Y-52630000D02*
X113720000Y-66530000D01*
X142392400Y-49047400D02*
X138809800Y-52630000D01*
X144932400Y-48895000D02*
X144925000Y-48895000D01*
X144932400Y-50161000D02*
X144932400Y-48895000D01*
X144393400Y-50700000D02*
X144932400Y-50161000D01*
X119380000Y-66510000D02*
X119380000Y-63350000D01*
X119380000Y-63350000D02*
X128940000Y-53790000D01*
X128940000Y-53790000D02*
X139050000Y-53790000D01*
X139050000Y-53790000D02*
X142140000Y-50700000D01*
X142140000Y-50700000D02*
X144393400Y-50700000D01*
D36*
X84280000Y-106759340D02*
X84280000Y-107820000D01*
X84635000Y-71725000D02*
X88050000Y-75140000D01*
X84635000Y-69630000D02*
X84635000Y-71725000D01*
X88050000Y-75140000D02*
X88050000Y-96070000D01*
X84280000Y-99840000D02*
X84280000Y-106759340D01*
X88050000Y-96070000D02*
X84280000Y-99840000D01*
D37*
X134590000Y-65850000D02*
X134590000Y-65920000D01*
X137210000Y-63230000D02*
X134590000Y-65850000D01*
X148971000Y-61264800D02*
X147005800Y-63230000D01*
X147005800Y-63230000D02*
X137210000Y-63230000D01*
M02*
