G04 #@! TF.GenerationSoftware,KiCad,Pcbnew,(5.1.5)-3*
G04 #@! TF.CreationDate,2020-04-14T00:16:00-04:00*
G04 #@! TF.ProjectId,Deck_Plate_Daughter,4465636b-5f50-46c6-9174-655f44617567,rev?*
G04 #@! TF.SameCoordinates,Original*
G04 #@! TF.FileFunction,Soldermask,Bot*
G04 #@! TF.FilePolarity,Negative*
%FSLAX46Y46*%
G04 Gerber Fmt 4.6, Leading zero omitted, Abs format (unit mm)*
G04 Created by KiCad (PCBNEW (5.1.5)-3) date 2020-04-14 00:16:00*
%MOMM*%
%LPD*%
G04 APERTURE LIST*
%ADD10O,1.700000X1.700000*%
%ADD11R,1.700000X1.700000*%
%ADD12O,1.600000X1.600000*%
%ADD13C,1.600000*%
%ADD14C,3.000000*%
%ADD15C,5.300000*%
%ADD16C,2.500000*%
%ADD17C,3.200000*%
%ADD18C,1.524000*%
%ADD19O,1.750000X1.200000*%
%ADD20C,0.100000*%
%ADD21C,3.500000*%
G04 APERTURE END LIST*
D10*
X86950000Y-81950000D03*
X86950000Y-79410000D03*
X86950000Y-76870000D03*
D11*
X86950000Y-74330000D03*
D12*
X113780000Y-75780000D03*
D13*
X103620000Y-75780000D03*
D12*
X130950000Y-75810000D03*
D13*
X123450000Y-75810000D03*
D10*
X89520000Y-61250000D03*
D11*
X86980000Y-61250000D03*
D14*
X193090000Y-83470000D03*
X159470000Y-83470000D03*
D15*
X92250000Y-114050000D03*
X92180000Y-89290000D03*
X114820000Y-89350000D03*
X115080000Y-114030000D03*
X135140000Y-89330000D03*
X134610000Y-114040000D03*
D10*
X185710000Y-50680000D03*
X183170000Y-50680000D03*
X180630000Y-50680000D03*
D11*
X178090000Y-50680000D03*
D12*
X176910000Y-57990000D03*
D13*
X187070000Y-57990000D03*
D12*
X187080000Y-54540000D03*
D13*
X176920000Y-54540000D03*
D16*
X118070000Y-66950000D03*
X97750000Y-66930000D03*
X118070000Y-49790000D03*
X196160000Y-104870000D03*
D17*
X185969200Y-130470000D03*
X156739200Y-130510000D03*
D16*
X196160000Y-62940000D03*
X154200000Y-104870000D03*
X154200000Y-62930000D03*
X97750000Y-49800000D03*
D10*
X139660000Y-52560000D03*
D11*
X137120000Y-52560000D03*
D10*
X150254000Y-50592000D03*
X152794000Y-50592000D03*
X155334000Y-50592000D03*
X157874000Y-50592000D03*
D11*
X160414000Y-50592000D03*
D10*
X84140000Y-123820000D03*
X84140000Y-126360000D03*
X84140000Y-128900000D03*
D11*
X84140000Y-131440000D03*
D10*
X185993200Y-110138500D03*
X183453200Y-110138500D03*
X180913200Y-110138500D03*
D11*
X178373200Y-110138500D03*
D10*
X148844000Y-60833000D03*
X146304000Y-60833000D03*
X143764000Y-60833000D03*
X141224000Y-60833000D03*
X138684000Y-60833000D03*
X136144000Y-60833000D03*
X133604000Y-60833000D03*
X131064000Y-60833000D03*
D11*
X128524000Y-60833000D03*
D16*
X142626080Y-68605400D03*
X142651480Y-117703600D03*
X84612480Y-68605400D03*
X84637880Y-117703600D03*
D10*
X144696180Y-128803400D03*
X144696180Y-131343400D03*
X142156180Y-128803400D03*
X142156180Y-131343400D03*
X139616180Y-128803400D03*
X139616180Y-131343400D03*
X137076180Y-128803400D03*
X137076180Y-131343400D03*
X134536180Y-128803400D03*
X134536180Y-131343400D03*
X131996180Y-128803400D03*
X131996180Y-131343400D03*
X129456180Y-128803400D03*
X129456180Y-131343400D03*
X126916180Y-128803400D03*
X126916180Y-131343400D03*
X124376180Y-128803400D03*
X124376180Y-131343400D03*
X121836180Y-128803400D03*
X121836180Y-131343400D03*
X119296180Y-128803400D03*
X119296180Y-131343400D03*
X116756180Y-128803400D03*
X116756180Y-131343400D03*
X114216180Y-128803400D03*
X114216180Y-131343400D03*
X111676180Y-128803400D03*
X111676180Y-131343400D03*
X109136180Y-128803400D03*
X109136180Y-131343400D03*
X106596180Y-128803400D03*
X106596180Y-131343400D03*
X104056180Y-128803400D03*
X104056180Y-131343400D03*
X101516180Y-128803400D03*
X101516180Y-131343400D03*
X98976180Y-128803400D03*
X98976180Y-131343400D03*
X96436180Y-128803400D03*
D11*
X96436180Y-131343400D03*
D18*
X108773600Y-50552000D03*
X106233600Y-50552000D03*
X114641000Y-66681000D03*
X112101000Y-66681000D03*
X109561000Y-66681000D03*
X107021000Y-66681000D03*
X104481000Y-66681000D03*
X101941000Y-66681000D03*
X156060000Y-116073800D03*
X159920800Y-116073800D03*
X163070400Y-116073800D03*
X166931200Y-116073800D03*
X170080800Y-116073800D03*
X173941600Y-116073800D03*
X177091200Y-116073800D03*
X180952000Y-116073800D03*
X184152400Y-116073800D03*
X187987800Y-116073800D03*
X179072400Y-141600800D03*
X175211600Y-141600800D03*
X168201200Y-141600800D03*
X172062000Y-141600800D03*
X165051600Y-141600800D03*
X161190800Y-141600800D03*
X174112800Y-102884200D03*
X170607600Y-102909600D03*
X176094000Y-64174600D03*
X179599200Y-64149200D03*
X185034800Y-64149200D03*
X188540000Y-64149200D03*
D12*
X93190000Y-57520000D03*
D13*
X83030000Y-57520000D03*
D10*
X146070280Y-138364320D03*
D11*
X146070280Y-140904320D03*
D19*
X195950000Y-120200000D03*
D20*
G36*
X196599505Y-117601204D02*
G01*
X196623773Y-117604804D01*
X196647572Y-117610765D01*
X196670671Y-117619030D01*
X196692850Y-117629520D01*
X196713893Y-117642132D01*
X196733599Y-117656747D01*
X196751777Y-117673223D01*
X196768253Y-117691401D01*
X196782868Y-117711107D01*
X196795480Y-117732150D01*
X196805970Y-117754329D01*
X196814235Y-117777428D01*
X196820196Y-117801227D01*
X196823796Y-117825495D01*
X196825000Y-117849999D01*
X196825000Y-118550001D01*
X196823796Y-118574505D01*
X196820196Y-118598773D01*
X196814235Y-118622572D01*
X196805970Y-118645671D01*
X196795480Y-118667850D01*
X196782868Y-118688893D01*
X196768253Y-118708599D01*
X196751777Y-118726777D01*
X196733599Y-118743253D01*
X196713893Y-118757868D01*
X196692850Y-118770480D01*
X196670671Y-118780970D01*
X196647572Y-118789235D01*
X196623773Y-118795196D01*
X196599505Y-118798796D01*
X196575001Y-118800000D01*
X195324999Y-118800000D01*
X195300495Y-118798796D01*
X195276227Y-118795196D01*
X195252428Y-118789235D01*
X195229329Y-118780970D01*
X195207150Y-118770480D01*
X195186107Y-118757868D01*
X195166401Y-118743253D01*
X195148223Y-118726777D01*
X195131747Y-118708599D01*
X195117132Y-118688893D01*
X195104520Y-118667850D01*
X195094030Y-118645671D01*
X195085765Y-118622572D01*
X195079804Y-118598773D01*
X195076204Y-118574505D01*
X195075000Y-118550001D01*
X195075000Y-117849999D01*
X195076204Y-117825495D01*
X195079804Y-117801227D01*
X195085765Y-117777428D01*
X195094030Y-117754329D01*
X195104520Y-117732150D01*
X195117132Y-117711107D01*
X195131747Y-117691401D01*
X195148223Y-117673223D01*
X195166401Y-117656747D01*
X195186107Y-117642132D01*
X195207150Y-117629520D01*
X195229329Y-117619030D01*
X195252428Y-117610765D01*
X195276227Y-117604804D01*
X195300495Y-117601204D01*
X195324999Y-117600000D01*
X196575001Y-117600000D01*
X196599505Y-117601204D01*
G37*
D21*
X195940680Y-50520600D03*
X85933280Y-50520600D03*
X195940680Y-140538200D03*
X85933280Y-140538200D03*
M02*
