G04 #@! TF.GenerationSoftware,KiCad,Pcbnew,(5.1.5)-3*
G04 #@! TF.CreationDate,2020-04-13T17:47:30-04:00*
G04 #@! TF.ProjectId,Deck_Plate_Daughter,4465636b-5f50-46c6-9174-655f44617567,rev?*
G04 #@! TF.SameCoordinates,Original*
G04 #@! TF.FileFunction,Legend,Bot*
G04 #@! TF.FilePolarity,Positive*
%FSLAX46Y46*%
G04 Gerber Fmt 4.6, Leading zero omitted, Abs format (unit mm)*
G04 Created by KiCad (PCBNEW (5.1.5)-3) date 2020-04-13 17:47:30*
%MOMM*%
%LPD*%
G04 APERTURE LIST*
%ADD10C,0.300000*%
%ADD11C,1.000000*%
%ADD12C,0.120000*%
%ADD13C,0.150000*%
G04 APERTURE END LIST*
D10*
X136831428Y-100945714D02*
X136402857Y-101088571D01*
X136260000Y-101231428D01*
X136117142Y-101517142D01*
X136117142Y-101945714D01*
X136260000Y-102231428D01*
X136402857Y-102374285D01*
X136688571Y-102517142D01*
X137831428Y-102517142D01*
X137831428Y-99517142D01*
X136831428Y-99517142D01*
X136545714Y-99660000D01*
X136402857Y-99802857D01*
X136260000Y-100088571D01*
X136260000Y-100374285D01*
X136402857Y-100660000D01*
X136545714Y-100802857D01*
X136831428Y-100945714D01*
X137831428Y-100945714D01*
X133545714Y-102517142D02*
X133545714Y-100945714D01*
X133688571Y-100660000D01*
X133974285Y-100517142D01*
X134545714Y-100517142D01*
X134831428Y-100660000D01*
X133545714Y-102374285D02*
X133831428Y-102517142D01*
X134545714Y-102517142D01*
X134831428Y-102374285D01*
X134974285Y-102088571D01*
X134974285Y-101802857D01*
X134831428Y-101517142D01*
X134545714Y-101374285D01*
X133831428Y-101374285D01*
X133545714Y-101231428D01*
X132545714Y-100517142D02*
X131402857Y-100517142D01*
X132117142Y-99517142D02*
X132117142Y-102088571D01*
X131974285Y-102374285D01*
X131688571Y-102517142D01*
X131402857Y-102517142D01*
X130831428Y-100517142D02*
X129688571Y-100517142D01*
X130402857Y-99517142D02*
X130402857Y-102088571D01*
X130260000Y-102374285D01*
X129974285Y-102517142D01*
X129688571Y-102517142D01*
X127545714Y-102374285D02*
X127831428Y-102517142D01*
X128402857Y-102517142D01*
X128688571Y-102374285D01*
X128831428Y-102088571D01*
X128831428Y-100945714D01*
X128688571Y-100660000D01*
X128402857Y-100517142D01*
X127831428Y-100517142D01*
X127545714Y-100660000D01*
X127402857Y-100945714D01*
X127402857Y-101231428D01*
X128831428Y-101517142D01*
X126117142Y-102517142D02*
X126117142Y-100517142D01*
X126117142Y-101088571D02*
X125974285Y-100802857D01*
X125831428Y-100660000D01*
X125545714Y-100517142D01*
X125260000Y-100517142D01*
X124545714Y-100517142D02*
X123831428Y-102517142D01*
X123117142Y-100517142D02*
X123831428Y-102517142D01*
X124117142Y-103231428D01*
X124260000Y-103374285D01*
X124545714Y-103517142D01*
X119688571Y-102517142D02*
X119688571Y-99517142D01*
X118545714Y-99517142D01*
X118260000Y-99660000D01*
X118117142Y-99802857D01*
X117974285Y-100088571D01*
X117974285Y-100517142D01*
X118117142Y-100802857D01*
X118260000Y-100945714D01*
X118545714Y-101088571D01*
X119688571Y-101088571D01*
X116260000Y-102517142D02*
X116545714Y-102374285D01*
X116688571Y-102088571D01*
X116688571Y-99517142D01*
X113831428Y-102517142D02*
X113831428Y-100945714D01*
X113974285Y-100660000D01*
X114260000Y-100517142D01*
X114831428Y-100517142D01*
X115117142Y-100660000D01*
X113831428Y-102374285D02*
X114117142Y-102517142D01*
X114831428Y-102517142D01*
X115117142Y-102374285D01*
X115260000Y-102088571D01*
X115260000Y-101802857D01*
X115117142Y-101517142D01*
X114831428Y-101374285D01*
X114117142Y-101374285D01*
X113831428Y-101231428D01*
X111117142Y-102374285D02*
X111402857Y-102517142D01*
X111974285Y-102517142D01*
X112260000Y-102374285D01*
X112402857Y-102231428D01*
X112545714Y-101945714D01*
X112545714Y-101088571D01*
X112402857Y-100802857D01*
X112260000Y-100660000D01*
X111974285Y-100517142D01*
X111402857Y-100517142D01*
X111117142Y-100660000D01*
X108688571Y-102374285D02*
X108974285Y-102517142D01*
X109545714Y-102517142D01*
X109831428Y-102374285D01*
X109974285Y-102088571D01*
X109974285Y-100945714D01*
X109831428Y-100660000D01*
X109545714Y-100517142D01*
X108974285Y-100517142D01*
X108688571Y-100660000D01*
X108545714Y-100945714D01*
X108545714Y-101231428D01*
X109974285Y-101517142D01*
X107260000Y-102517142D02*
X107260000Y-100517142D01*
X107260000Y-100802857D02*
X107117142Y-100660000D01*
X106831428Y-100517142D01*
X106402857Y-100517142D01*
X106117142Y-100660000D01*
X105974285Y-100945714D01*
X105974285Y-102517142D01*
X105974285Y-100945714D02*
X105831428Y-100660000D01*
X105545714Y-100517142D01*
X105117142Y-100517142D01*
X104831428Y-100660000D01*
X104688571Y-100945714D01*
X104688571Y-102517142D01*
X102117142Y-102374285D02*
X102402857Y-102517142D01*
X102974285Y-102517142D01*
X103260000Y-102374285D01*
X103402857Y-102088571D01*
X103402857Y-100945714D01*
X103260000Y-100660000D01*
X102974285Y-100517142D01*
X102402857Y-100517142D01*
X102117142Y-100660000D01*
X101974285Y-100945714D01*
X101974285Y-101231428D01*
X103402857Y-101517142D01*
X100688571Y-100517142D02*
X100688571Y-102517142D01*
X100688571Y-100802857D02*
X100545714Y-100660000D01*
X100260000Y-100517142D01*
X99831428Y-100517142D01*
X99545714Y-100660000D01*
X99402857Y-100945714D01*
X99402857Y-102517142D01*
X98402857Y-100517142D02*
X97260000Y-100517142D01*
X97974285Y-99517142D02*
X97974285Y-102088571D01*
X97831428Y-102374285D01*
X97545714Y-102517142D01*
X97260000Y-102517142D01*
D11*
X82260000Y-92020000D02*
X150980000Y-92020000D01*
X150980000Y-92020000D02*
X150980000Y-111080000D01*
X82260000Y-92020000D02*
X82260000Y-111080000D01*
X82260000Y-111080000D02*
X150980000Y-111080000D01*
D12*
X160962000Y-83469600D02*
G75*
G03X160962000Y-83469600I-1500000J0D01*
G01*
X194591600Y-83469600D02*
G75*
G03X194591600Y-83469600I-1500000J0D01*
G01*
X196292000Y-67010400D02*
X196292000Y-93020000D01*
X156261600Y-67010400D02*
X196292000Y-67010400D01*
X156261600Y-93020000D02*
X156261600Y-67010400D01*
X196292000Y-93020000D02*
X156261600Y-93020000D01*
D13*
X194378895Y-87986380D02*
X194378895Y-86986380D01*
X194378895Y-87462571D02*
X193807466Y-87462571D01*
X193807466Y-87986380D02*
X193807466Y-86986380D01*
X193378895Y-87081619D02*
X193331276Y-87034000D01*
X193236038Y-86986380D01*
X192997942Y-86986380D01*
X192902704Y-87034000D01*
X192855085Y-87081619D01*
X192807466Y-87176857D01*
X192807466Y-87272095D01*
X192855085Y-87414952D01*
X193426514Y-87986380D01*
X192807466Y-87986380D01*
X191950323Y-86986380D02*
X192140800Y-86986380D01*
X192236038Y-87034000D01*
X192283657Y-87081619D01*
X192378895Y-87224476D01*
X192426514Y-87414952D01*
X192426514Y-87795904D01*
X192378895Y-87891142D01*
X192331276Y-87938761D01*
X192236038Y-87986380D01*
X192045561Y-87986380D01*
X191950323Y-87938761D01*
X191902704Y-87891142D01*
X191855085Y-87795904D01*
X191855085Y-87557809D01*
X191902704Y-87462571D01*
X191950323Y-87414952D01*
X192045561Y-87367333D01*
X192236038Y-87367333D01*
X192331276Y-87414952D01*
X192378895Y-87462571D01*
X192426514Y-87557809D01*
X160758895Y-87986380D02*
X160758895Y-86986380D01*
X160758895Y-87462571D02*
X160187466Y-87462571D01*
X160187466Y-87986380D02*
X160187466Y-86986380D01*
X159758895Y-87081619D02*
X159711276Y-87034000D01*
X159616038Y-86986380D01*
X159377942Y-86986380D01*
X159282704Y-87034000D01*
X159235085Y-87081619D01*
X159187466Y-87176857D01*
X159187466Y-87272095D01*
X159235085Y-87414952D01*
X159806514Y-87986380D01*
X159187466Y-87986380D01*
X158282704Y-86986380D02*
X158758895Y-86986380D01*
X158806514Y-87462571D01*
X158758895Y-87414952D01*
X158663657Y-87367333D01*
X158425561Y-87367333D01*
X158330323Y-87414952D01*
X158282704Y-87462571D01*
X158235085Y-87557809D01*
X158235085Y-87795904D01*
X158282704Y-87891142D01*
X158330323Y-87938761D01*
X158425561Y-87986380D01*
X158663657Y-87986380D01*
X158758895Y-87938761D01*
X158806514Y-87891142D01*
X195323523Y-93691580D02*
X195323523Y-94405866D01*
X195371142Y-94548723D01*
X195466380Y-94643961D01*
X195609238Y-94691580D01*
X195704476Y-94691580D01*
X194323523Y-94691580D02*
X194894952Y-94691580D01*
X194609238Y-94691580D02*
X194609238Y-93691580D01*
X194704476Y-93834438D01*
X194799714Y-93929676D01*
X194894952Y-93977295D01*
X193371142Y-94691580D02*
X193942571Y-94691580D01*
X193656857Y-94691580D02*
X193656857Y-93691580D01*
X193752095Y-93834438D01*
X193847333Y-93929676D01*
X193942571Y-93977295D01*
X93448095Y-110202380D02*
X93448095Y-109202380D01*
X93448095Y-109678571D02*
X92876666Y-109678571D01*
X92876666Y-110202380D02*
X92876666Y-109202380D01*
X92448095Y-109297619D02*
X92400476Y-109250000D01*
X92305238Y-109202380D01*
X92067142Y-109202380D01*
X91971904Y-109250000D01*
X91924285Y-109297619D01*
X91876666Y-109392857D01*
X91876666Y-109488095D01*
X91924285Y-109630952D01*
X92495714Y-110202380D01*
X91876666Y-110202380D01*
X91019523Y-109535714D02*
X91019523Y-110202380D01*
X91257619Y-109154761D02*
X91495714Y-109869047D01*
X90876666Y-109869047D01*
X93458095Y-93912380D02*
X93458095Y-92912380D01*
X93458095Y-93388571D02*
X92886666Y-93388571D01*
X92886666Y-93912380D02*
X92886666Y-92912380D01*
X92458095Y-93007619D02*
X92410476Y-92960000D01*
X92315238Y-92912380D01*
X92077142Y-92912380D01*
X91981904Y-92960000D01*
X91934285Y-93007619D01*
X91886666Y-93102857D01*
X91886666Y-93198095D01*
X91934285Y-93340952D01*
X92505714Y-93912380D01*
X91886666Y-93912380D01*
X91553333Y-92912380D02*
X90934285Y-92912380D01*
X91267619Y-93293333D01*
X91124761Y-93293333D01*
X91029523Y-93340952D01*
X90981904Y-93388571D01*
X90934285Y-93483809D01*
X90934285Y-93721904D01*
X90981904Y-93817142D01*
X91029523Y-93864761D01*
X91124761Y-93912380D01*
X91410476Y-93912380D01*
X91505714Y-93864761D01*
X91553333Y-93817142D01*
X116128095Y-93842380D02*
X116128095Y-92842380D01*
X116128095Y-93318571D02*
X115556666Y-93318571D01*
X115556666Y-93842380D02*
X115556666Y-92842380D01*
X115128095Y-92937619D02*
X115080476Y-92890000D01*
X114985238Y-92842380D01*
X114747142Y-92842380D01*
X114651904Y-92890000D01*
X114604285Y-92937619D01*
X114556666Y-93032857D01*
X114556666Y-93128095D01*
X114604285Y-93270952D01*
X115175714Y-93842380D01*
X114556666Y-93842380D01*
X114175714Y-92937619D02*
X114128095Y-92890000D01*
X114032857Y-92842380D01*
X113794761Y-92842380D01*
X113699523Y-92890000D01*
X113651904Y-92937619D01*
X113604285Y-93032857D01*
X113604285Y-93128095D01*
X113651904Y-93270952D01*
X114223333Y-93842380D01*
X113604285Y-93842380D01*
X116278095Y-110222380D02*
X116278095Y-109222380D01*
X116278095Y-109698571D02*
X115706666Y-109698571D01*
X115706666Y-110222380D02*
X115706666Y-109222380D01*
X115278095Y-109317619D02*
X115230476Y-109270000D01*
X115135238Y-109222380D01*
X114897142Y-109222380D01*
X114801904Y-109270000D01*
X114754285Y-109317619D01*
X114706666Y-109412857D01*
X114706666Y-109508095D01*
X114754285Y-109650952D01*
X115325714Y-110222380D01*
X114706666Y-110222380D01*
X113754285Y-110222380D02*
X114325714Y-110222380D01*
X114040000Y-110222380D02*
X114040000Y-109222380D01*
X114135238Y-109365238D01*
X114230476Y-109460476D01*
X114325714Y-109508095D01*
X136398095Y-93862380D02*
X136398095Y-92862380D01*
X136398095Y-93338571D02*
X135826666Y-93338571D01*
X135826666Y-93862380D02*
X135826666Y-92862380D01*
X135398095Y-92957619D02*
X135350476Y-92910000D01*
X135255238Y-92862380D01*
X135017142Y-92862380D01*
X134921904Y-92910000D01*
X134874285Y-92957619D01*
X134826666Y-93052857D01*
X134826666Y-93148095D01*
X134874285Y-93290952D01*
X135445714Y-93862380D01*
X134826666Y-93862380D01*
X134207619Y-92862380D02*
X134112380Y-92862380D01*
X134017142Y-92910000D01*
X133969523Y-92957619D01*
X133921904Y-93052857D01*
X133874285Y-93243333D01*
X133874285Y-93481428D01*
X133921904Y-93671904D01*
X133969523Y-93767142D01*
X134017142Y-93814761D01*
X134112380Y-93862380D01*
X134207619Y-93862380D01*
X134302857Y-93814761D01*
X134350476Y-93767142D01*
X134398095Y-93671904D01*
X134445714Y-93481428D01*
X134445714Y-93243333D01*
X134398095Y-93052857D01*
X134350476Y-92957619D01*
X134302857Y-92910000D01*
X134207619Y-92862380D01*
X135858095Y-110132380D02*
X135858095Y-109132380D01*
X135858095Y-109608571D02*
X135286666Y-109608571D01*
X135286666Y-110132380D02*
X135286666Y-109132380D01*
X134286666Y-110132380D02*
X134858095Y-110132380D01*
X134572380Y-110132380D02*
X134572380Y-109132380D01*
X134667619Y-109275238D01*
X134762857Y-109370476D01*
X134858095Y-109418095D01*
X133810476Y-110132380D02*
X133620000Y-110132380D01*
X133524761Y-110084761D01*
X133477142Y-110037142D01*
X133381904Y-109894285D01*
X133334285Y-109703809D01*
X133334285Y-109322857D01*
X133381904Y-109227619D01*
X133429523Y-109180000D01*
X133524761Y-109132380D01*
X133715238Y-109132380D01*
X133810476Y-109180000D01*
X133858095Y-109227619D01*
X133905714Y-109322857D01*
X133905714Y-109560952D01*
X133858095Y-109656190D01*
X133810476Y-109703809D01*
X133715238Y-109751428D01*
X133524761Y-109751428D01*
X133429523Y-109703809D01*
X133381904Y-109656190D01*
X133334285Y-109560952D01*
M02*
