M48
; DRILL file {KiCad (5.1.5)-3} date 4/13/2020 5:47:36 PM
; FORMAT={-:-/ absolute / inch / decimal}
; #@! TF.CreationDate,2020-04-13T17:47:36-04:00
; #@! TF.GenerationSoftware,Kicad,Pcbnew,(5.1.5)-3
FMAT,2
INCH
T1C0.0157
T2C0.0295
T3C0.0315
T4C0.0394
T5C0.0402
T6C0.0591
T7C0.0984
T8C0.1181
T9C0.1260
T10C0.1378
T11C0.2087
%
G90
G05
T1
X3.5594Y-3.0839
X3.5795Y-2.6795
X3.7886Y-2.8917
X4.38Y-2.23
X4.7094Y-2.9047
X4.71Y-2.23
X5.6587Y-3.1315
X5.9075Y-3.1433
X6.1547Y-2.2004
X6.4555Y-2.2004
T2
X3.7161Y-3.0909
X7.7146Y-4.6535
X7.7146Y-4.7323
T3
X3.2689Y-2.2646
X3.6689Y-2.2646
X6.9654Y-2.1472
X7.3654Y-2.1472
X6.965Y-2.2831
X7.365Y-2.2831
X4.8602Y-2.9846
X5.1555Y-2.9846
X4.0795Y-2.9835
X4.4795Y-2.9835
T4
X5.06Y-2.395
X5.16Y-2.395
X5.26Y-2.395
X5.36Y-2.395
X5.46Y-2.395
X5.56Y-2.395
X5.66Y-2.395
X5.76Y-2.395
X5.86Y-2.395
X7.0226Y-4.3362
X7.1226Y-4.3362
X7.2226Y-4.3362
X7.3226Y-4.3362
X3.3126Y-4.8748
X3.3126Y-4.9748
X3.3126Y-5.0748
X3.3126Y-5.1748
X5.9155Y-1.9918
X6.0155Y-1.9918
X6.1155Y-1.9918
X6.2155Y-1.9918
X6.3155Y-1.9918
X3.4244Y-2.4114
X3.5244Y-2.4114
X3.4232Y-2.9264
X3.4232Y-3.0264
X3.4232Y-3.1264
X3.4232Y-3.2264
X3.7967Y-5.071
X3.7967Y-5.171
X3.8967Y-5.071
X3.8967Y-5.171
X3.9967Y-5.071
X3.9967Y-5.171
X4.0967Y-5.071
X4.0967Y-5.171
X4.1967Y-5.071
X4.1967Y-5.171
X4.2967Y-5.071
X4.2967Y-5.171
X4.3967Y-5.071
X4.3967Y-5.171
X4.4967Y-5.071
X4.4967Y-5.171
X4.5967Y-5.071
X4.5967Y-5.171
X4.6967Y-5.071
X4.6967Y-5.171
X4.7967Y-5.071
X4.7967Y-5.171
X4.8967Y-5.071
X4.8967Y-5.171
X4.9967Y-5.071
X4.9967Y-5.171
X5.0967Y-5.071
X5.0967Y-5.171
X5.1967Y-5.071
X5.1967Y-5.171
X5.2967Y-5.071
X5.2967Y-5.171
X5.3967Y-5.071
X5.3967Y-5.171
X5.4967Y-5.071
X5.4967Y-5.171
X5.5967Y-5.071
X5.5967Y-5.171
X5.6967Y-5.071
X5.6967Y-5.171
X5.3984Y-2.0693
X5.4984Y-2.0693
X5.7508Y-5.4474
X5.7508Y-5.5474
X7.0114Y-1.9953
X7.1114Y-1.9953
X7.2114Y-1.9953
X7.3114Y-1.9953
T5
X6.7168Y-4.0516
X6.8548Y-4.0506
X6.9328Y-2.5266
X7.0708Y-2.5256
X7.2848Y-2.5256
X7.4228Y-2.5256
X6.1441Y-4.5698
X6.2961Y-4.5698
X6.3461Y-5.5748
X6.4201Y-4.5698
X6.4981Y-5.5748
X6.5721Y-4.5698
X6.6221Y-5.5748
X6.6961Y-4.5698
X6.7741Y-5.5748
X6.8481Y-4.5698
X6.8981Y-5.5748
X6.9721Y-4.5698
X7.0501Y-5.5748
X7.1241Y-4.5698
X7.2501Y-4.5698
X7.4011Y-4.5698
X4.0134Y-2.6252
X4.1134Y-2.6252
X4.1824Y-1.9902
X4.2134Y-2.6252
X4.2824Y-1.9902
X4.3134Y-2.6252
X4.4134Y-2.6252
X4.5134Y-2.6252
T6
X5.887Y-4.6791
X6.1748Y-4.2787
T7
X3.3322Y-4.634
X7.7228Y-4.1287
X5.6162Y-4.634
X3.8484Y-2.635
X4.6484Y-1.9602
X3.3312Y-2.701
X4.6484Y-2.6358
X3.8484Y-1.9606
X5.6152Y-2.701
X7.7228Y-2.478
X6.0709Y-2.4776
X6.0709Y-4.1287
T8
X7.602Y-3.2862
X6.2783Y-3.2862
T9
X6.1708Y-5.1382
X7.3216Y-5.1366
T10
X3.3832Y-5.533
X7.7142Y-1.989
X7.7142Y-5.533
X3.3832Y-1.989
T11
X5.3205Y-3.5169
X5.2996Y-4.4898
X4.5307Y-4.4894
X3.6319Y-4.4902
X4.5205Y-3.5177
X3.6291Y-3.5154
T0
M30
